g alluringPoolPool
v -0.006168932 -0.04103629 -0.00103053
v -0.1703535 -0.02451484 -0.002722348
v -0.05151805 -0.01853339 -0.1462465
v -0.006168932 -0.04103629 -0.00103053
v -0.05151805 -0.01853339 -0.1462465
v 0.1247515 -0.01631324 -0.1479803
v -0.06665477 0.002928096 -0.3192964
v -0.2641645 -0.005654973 -0.2720552
v -0.2327314 0.01836236 -0.4183412
v -0.01215038 0.02635034 -0.5236879
v 0.06231251 -0.0009171186 -0.3568331
v -0.2327314 0.01836236 -0.4183412
v -0.3095747 0.03220971 -0.5271898
v -0.006168932 -0.04103629 -0.00103053
v 0.1247515 -0.01631324 -0.1479803
v 0.1809038 -0.02366797 0.02159825
v -0.006168932 -0.04103629 -0.00103053
v 0.1809038 -0.02366797 0.02159825
v 0.05700245 -0.01758735 0.1796011
v 0.2915606 -0.005147618 0.07113782
v 0.2695879 0.005697567 0.2471251
v 0.2915606 -0.005147618 0.07113782
v -0.006168932 -0.04103629 -0.00103053
v 0.05700245 -0.01758735 0.1796011
v -0.09058055 -0.03035514 0.1336741
v -0.09314403 0.005514461 0.3625959
v 0.08220997 0.00490411 0.2912687
v 0.2460283 0.02806695 0.381143
v 0.2695879 0.005697567 0.2471251
v 0.4540361 0.01541741 0.2454542
v 0.05700245 -0.01758735 0.1796011
v -0.09058055 -0.03035514 0.1336741
v -0.006168932 -0.04103629 -0.00103053
v -0.09058055 -0.03035514 0.1336741
v -0.1703535 -0.02451484 -0.002722348
v -0.452519 0.02236016 0.2641787
v -0.4694258 0.02741845 -0.03323993
v -0.3459516 0.01000054 0.1222738
v -0.4965864 0.0260299 -0.2824083
v -0.2641645 -0.005654973 -0.2720552
v -0.4694258 0.02741845 -0.03323993
v -0.3247724 -0.01039664 -0.1091677
v -0.3459516 0.01000054 0.1222738
v -0.0001264518 0.02764734 0.5305266
v -0.2317549 0.02774652 0.4232534
v -0.09314403 0.005514461 0.3625959
v -0.2317549 0.02774652 0.4232534
v -0.230168 0.009825069 0.2434372
v -0.09314403 0.005514461 0.3625959
v -0.3459516 0.01000054 0.1222738
v -0.1703535 -0.02451484 -0.002722348
v 0.4562944 0.02368768 -0.2660709
v 0.4461016 0.01911767 0.008935367
v 0.3112139 0.0100921 -0.1142772
v 0.4540361 0.01541741 0.2454542
v 0.2695879 0.005697567 0.2471251
v 0.4461016 0.01911767 0.008935367
v 0.2915606 -0.005147618 0.07113782
v 0.3112139 0.0100921 -0.1142772
v -0.01215038 0.02635034 -0.5236879
v 0.228023 0.02010949 -0.3981615
v 0.06231251 -0.0009171186 -0.3568331
v 0.228023 0.02010949 -0.3981615
v 0.1964678 0.005422908 -0.2505136
v 0.06231251 -0.0009171186 -0.3568331
v 0.3112139 0.0100921 -0.1142772
v 0.1964678 0.005422908 -0.2505136
v 0.1809038 -0.02366797 0.02159825
v 0.1247515 -0.01631324 -0.1479803
v 0.06231251 -0.0009171186 -0.3568331
v -0.4965864 0.0260299 -0.2824083
v -0.2327314 0.01836236 -0.4183412
v -0.2641645 -0.005654973 -0.2720552
v -0.6157271 0.03750451 0.3587278
v -0.6055952 0.02417596 -0.0005250828
v -0.452519 0.02236016 0.2641787
v -0.6055952 0.02417596 -0.0005250828
v -0.4694258 0.02741845 -0.03323993
v -0.452519 0.02236016 0.2641787
v -0.4965864 0.0260299 -0.2824083
v 0.002925306 0.03077539 0.7061629
v -0.3021894 0.02948602 0.5302138
v -0.0001264518 0.02764734 0.5305266
v -0.2317549 0.02774652 0.4232534
v -0.452519 0.02236016 0.2641787
v 0.6131548 0.03013452 0.3503889
v 0.3081621 0.03025659 0.5280928
v 0.4540361 0.01541741 0.2454542
v 0.3081621 0.03025659 0.5280928
v 0.2460283 0.02806695 0.381143
v 0.4540361 0.01541741 0.2454542
v 0.6157793 0.02445062 -0.3586937
v 0.6007646 0.04028924 0.002728854
v 0.4562944 0.02368768 -0.2660709
v 0.6007646 0.04028924 0.002728854
v 0.4461016 0.01911767 0.008935367
v 0.4562944 0.02368768 -0.2660709
v 0.4540361 0.01541741 0.2454542
v 0.6131548 0.03013452 0.3503889
v -0.006962389 0.03440698 -0.703795
v 0.3048052 0.02876886 -0.531508
v -0.01215038 0.02635034 -0.5236879
v 0.228023 0.02010949 -0.3981615
v 0.4562944 0.02368768 -0.2660709
v 0.3112139 0.0100921 -0.1142772
v 0.6157793 0.02445062 -0.3586937
v 0.4562944 0.02368768 -0.2660709
v -0.6222578 0.04103692 -0.3451525
v -0.3095747 0.03220971 -0.5271898
v -0.4965864 0.0260299 -0.2824083
v -0.2327314 0.01836236 -0.4183412
v 0.06231251 -0.0009171186 -0.3568331
v -0.06665477 0.002928096 -0.3192964
v 0.1247515 -0.01631324 -0.1479803
v -0.3459516 0.01000054 0.1222738
v -0.3247724 -0.01039664 -0.1091677
v -0.1703535 -0.02451484 -0.002722348
v -0.3247724 -0.01039664 -0.1091677
v -0.05151805 -0.01853339 -0.1462465
v -0.1703535 -0.02451484 -0.002722348
v -0.2641645 -0.005654973 -0.2720552
v -0.09314403 0.005514461 0.3625959
v -0.230168 0.009825069 0.2434372
v -0.09058055 -0.03035514 0.1336741
v -0.230168 0.009825069 0.2434372
v -0.1703535 -0.02451484 -0.002722348
v -0.09058055 -0.03035514 0.1336741
v 0.3112139 0.0100921 -0.1142772
v 0.2915606 -0.005147618 0.07113782
v 0.1809038 -0.02366797 0.02159825
v -0.452519 0.02236016 0.2641787
v -0.3459516 0.01000054 0.1222738
v -0.2317549 0.02774652 0.4232534
v -0.6157271 0.03750451 0.3587278
v -0.3021894 0.02948602 0.5302138
v -0.0001264518 0.02764734 0.5305266
v -0.09314403 0.005514461 0.3625959
v 0.2460283 0.02806695 0.381143
v 0.002925306 0.03077539 0.7061629
v -0.0001264518 0.02764734 0.5305266
v 0.3081621 0.03025659 0.5280928
v 0.2460283 0.02806695 0.381143
v 0.2695879 0.005697567 0.2471251
v 0.2915606 -0.005147618 0.07113782
v 0.4461016 0.01911767 0.008935367
v -0.006962389 0.03440698 -0.703795
v -0.01215038 0.02635034 -0.5236879
v -0.3095747 0.03220971 -0.5271898
v -0.2641645 -0.005654973 -0.2720552
v -0.3247724 -0.01039664 -0.1091677
v -0.4694258 0.02741845 -0.03323993
v -0.6222578 0.04103692 -0.3451525
v -0.4965864 0.0260299 -0.2824083
v -0.6055952 0.02417596 -0.0005250828
vt 0.4999999 0.7647996
vt 1 0.6323999
vt 0 0.6323999
vt 0.4999999 0.7647996
vt 1 0.6323999
vt 0 0.6323999
vt 0.4999999 0.5000002
vt 1 0.5000002
vt 0.4999999 0.3676005
vt 0 0.3676005
vt 0 0.5000002
vt 0.4999999 0.3676005
vt 0.4999999 0.2352008
vt 0.4999999 0.7647996
vt 1 0.6323999
vt 0 0.6323999
vt 0.4999999 0.7647996
vt 1 0.6323999
vt 0 0.6323999
vt 0.4999999 0.5000002
vt 0 0.5000002
vt 0.4999999 0.5000002
vt 0.4999999 0.7647996
vt 1 0.6323999
vt 0 0.6323999
vt 0 0.5000002
vt 0.4999999 0.5000002
vt 0.4999999 0.3676005
vt 1 0.5000002
vt 1 0.3676005
vt 1 0.6323999
vt 0 0.6323999
vt 0.4999999 0.7647996
vt 1 0.6323999
vt 0 0.6323999
vt 1 0.3676005
vt 0.4999999 0.3676005
vt 1 0.5000002
vt 0 0.3676005
vt 0 0.5000002
vt 0.4999999 0.3676005
vt 0.4999999 0.5000002
vt 1 0.5000002
vt 1 0.3676005
vt 0.4999999 0.3676005
vt 1 0.5000002
vt 0.4999999 0.3676005
vt 0.4999999 0.5000002
vt 1 0.5000002
vt 0 0.5000002
vt 0 0.6323999
vt 1 0.3676005
vt 0.4999999 0.3676005
vt 1 0.5000002
vt 0 0.3676005
vt 0 0.5000002
vt 0.4999999 0.3676005
vt 0.4999999 0.5000002
vt 1 0.5000002
vt 1 0.3676005
vt 0.4999999 0.3676005
vt 1 0.5000002
vt 0.4999999 0.3676005
vt 0.4999999 0.5000002
vt 1 0.5000002
vt 0 0.5000002
vt 0.4999999 0.5000002
vt 0 0.6323999
vt 1 0.6323999
vt 1 0.5000002
vt 1 0.3676005
vt 0.4999999 0.3676005
vt 1 0.5000002
vt 1 0.2352008
vt 0.4999999 0.2352008
vt 1 0.3676005
vt 0.4999999 0.2352008
vt 0.4999999 0.3676005
vt 1 0.3676005
vt 0 0.3676005
vt 1 0.2352008
vt 0.4999999 0.2352008
vt 1 0.3676005
vt 0.4999999 0.3676005
vt 0 0.3676005
vt 1 0.2352008
vt 0.4999999 0.2352008
vt 1 0.3676005
vt 0.4999999 0.2352008
vt 0.4999999 0.3676005
vt 1 0.3676005
vt 1 0.2352008
vt 0.4999999 0.2352008
vt 1 0.3676005
vt 0.4999999 0.2352008
vt 0.4999999 0.3676005
vt 1 0.3676005
vt 0 0.3676005
vt 0 0.2352008
vt 1 0.2352008
vt 0.4999999 0.2352008
vt 1 0.3676005
vt 0.4999999 0.3676005
vt 0 0.3676005
vt 0 0.5000002
vt 0 0.2352008
vt 0 0.3676005
vt 1 0.2352008
vt 0.4999999 0.2352008
vt 1 0.3676005
vt 0.4999999 0.3676005
vt 0 0.5000002
vt 0.4999999 0.5000002
vt 0 0.6323999
vt 1 0.5000002
vt 0.4999999 0.5000002
vt 1 0.6323999
vt 0.4999999 0.5000002
vt 0 0.6323999
vt 1 0.6323999
vt 0 0.5000002
vt 1 0.5000002
vt 0.4999999 0.5000002
vt 1 0.6323999
vt 0.4999999 0.5000002
vt 0 0.6323999
vt 1 0.6323999
vt 1 0.5000002
vt 0.4999999 0.5000002
vt 1 0.6323999
vt 0 0.3676005
vt 0 0.5000002
vt 0.4999999 0.3676005
vt 0 0.2352008
vt 0.4999999 0.2352008
vt 0 0.3676005
vt 0 0.5000002
vt 0.4999999 0.3676005
vt 0 0.2352008
vt 0 0.3676005
vt 0.4999999 0.2352008
vt 0.4999999 0.3676005
vt 0 0.5000002
vt 0.4999999 0.5000002
vt 0.4999999 0.3676005
vt 0 0.2352008
vt 0 0.3676005
vt 0.4999999 0.2352008
vt 0 0.5000002
vt 0.4999999 0.5000002
vt 0.4999999 0.3676005
vt 0 0.2352008
vt 0 0.3676005
vt 0.4999999 0.2352008
vn 0.09814134 0.9876112 0.1224432
vn 0.09814136 0.9876112 0.1224432
vn 0.09814136 0.9876112 0.1224432
vn -0.01088233 0.9876227 0.1564697
vn -0.01088233 0.9876227 0.1564697
vn -0.01088233 0.9876227 0.1564697
vn -0.004333861 0.9869338 0.1610681
vn -0.004333861 0.9869338 0.1610681
vn -0.004333856 0.9869338 0.1610681
vn 0.03407725 0.988637 0.1464093
vn 0.03407724 0.988637 0.1464093
vn 0.01822535 0.9933623 0.1135745
vn 0.01822535 0.9933623 0.1135745
vn -0.1013639 0.9918966 0.07659338
vn -0.1013639 0.9918966 0.07659338
vn -0.1013639 0.9918966 0.07659338
vn -0.0798851 0.9916931 -0.1008127
vn -0.0798851 0.9916931 -0.1008127
vn -0.07988509 0.9916931 -0.1008127
vn -0.1095352 0.9862364 -0.1238539
vn -0.085942 0.9936977 -0.07196397
vn -0.08594202 0.9936977 -0.07196397
vn -0.05134604 0.9925045 -0.1108983
vn -0.05134603 0.9925045 -0.1108982
vn -0.05134603 0.9925045 -0.1108982
vn -0.05970676 0.9860846 -0.1551521
vn -0.04467702 0.9840568 -0.1721511
vn -0.0533887 0.9833735 -0.1735692
vn -0.0533887 0.9833735 -0.1735692
vn -0.0533887 0.9833735 -0.1735691
vn -0.04811071 0.9812232 -0.186779
vn -0.02514136 0.9810835 -0.1919455
vn 0.1002926 0.9948289 -0.01602891
vn 0.1002926 0.9948289 -0.01602891
vn 0.1002926 0.9948289 -0.01602891
vn 0.127881 0.9917433 0.009582654
vn 0.127881 0.9917433 0.009582654
vn 0.127881 0.9917433 0.009582655
vn 0.1359397 0.9905082 -0.02034544
vn 0.1359397 0.9905082 -0.02034543
vn 0.2199756 0.9732971 -0.06560134
vn 0.2199756 0.9732971 -0.06560133
vn 0.2199756 0.9732971 -0.06560133
vn 0.08117159 0.9813358 -0.174331
vn 0.08117159 0.9813358 -0.174331
vn 0.08117156 0.9813358 -0.174331
vn 0.1159403 0.9884568 -0.09752456
vn 0.1159403 0.9884568 -0.09752456
vn 0.1159403 0.9884568 -0.09752456
vn 0.1160683 0.9871879 -0.1094913
vn 0.1160683 0.9871879 -0.1094912
vn -0.07910857 0.9967722 0.01366545
vn -0.07910857 0.9967722 0.01366546
vn -0.07910857 0.9967722 0.01366546
vn -0.05245094 0.998472 0.01738777
vn -0.05245094 0.998472 0.01738777
vn -0.1280727 0.9894434 0.06781657
vn -0.1280727 0.9894434 0.06781656
vn -0.1280727 0.9894434 0.06781656
vn -0.07577588 0.9781364 0.1936682
vn -0.07577586 0.9781364 0.1936681
vn -0.07577589 0.9781364 0.1936681
vn -0.1068668 0.9913862 0.07571682
vn -0.1068667 0.9913862 0.0757168
vn -0.1068668 0.9913862 0.07571682
vn -0.1543609 0.9833103 0.0962991
vn -0.1362992 0.9841688 0.1132886
vn -0.1606856 0.9823423 0.09583237
vn -0.1362992 0.9841688 0.1132886
vn -0.1362992 0.9841688 0.1132886
vn 0.1245132 0.9744811 0.1867699
vn 0.1245132 0.9744811 0.1867699
vn 0.1245132 0.9744811 0.1867699
vn 0.0722261 0.9967764 -0.03493183
vn 0.0722261 0.9967764 -0.03493183
vn 0.07222611 0.9967764 -0.03493183
vn -0.01942278 0.9996475 0.01810518
vn -0.01942279 0.9996475 0.01810519
vn -0.01942279 0.9996475 0.01810519
vn -0.02446819 0.9996965 -0.002892768
vn 0.006090675 0.9998206 -0.01793187
vn 0.006090675 0.9998206 -0.01793187
vn 0.006090675 0.9998206 -0.01793187
vn 0.006085016 0.9999073 -0.01218825
vn -0.00862693 0.9997235 -0.02187624
vn -0.04306904 0.9962869 -0.07454816
vn -0.04306904 0.9962869 -0.07454816
vn -0.04306904 0.9962869 -0.07454816
vn 0.04002797 0.9986933 -0.03177164
vn 0.04002798 0.9986933 -0.03177164
vn 0.04002798 0.9986933 -0.03177164
vn -0.0309429 0.9985054 -0.04505076
vn -0.0309429 0.9985054 -0.04505076
vn -0.0309429 0.9985054 -0.04505076
vn -0.1352775 0.9907411 0.01148847
vn -0.1352775 0.9907411 0.01148846
vn -0.1352775 0.9907411 0.01148846
vn -0.1137578 0.9929581 0.0330684
vn -0.1137577 0.9929581 0.0330684
vn -0.006496435 0.9989898 0.0444652
vn -0.00649644 0.9989898 0.0444652
vn -0.006496437 0.9989898 0.0444652
vn -0.006073475 0.9980989 0.06133237
vn -0.04339603 0.9979089 0.04790112
vn -0.04339601 0.9979089 0.04790111
vn 0.004738007 0.9998541 0.0164155
vn 0.004738008 0.9998541 0.0164155
vn 0.07682792 0.9935151 0.08381614
vn 0.07682792 0.9935151 0.08381614
vn 0.07682791 0.9935151 0.08381614
vn 0.06901422 0.9945717 0.07787202
vn 0.04702978 0.9971222 0.05945874
vn 0.04702978 0.9971222 0.05945874
vn 0.04702978 0.9971222 0.05945874
vn 0.1413131 0.9871932 -0.07402889
vn 0.1413131 0.9871932 -0.07402889
vn 0.1413131 0.9871932 -0.07402889
vn 0.03977164 0.9964291 0.0744789
vn 0.03977163 0.9964291 0.07447889
vn 0.03977163 0.9964291 0.07447889
vn 0.03546044 0.9984773 0.04225639
vn 0.1620027 0.9751742 -0.1509641
vn 0.1620027 0.9751742 -0.1509641
vn 0.1620027 0.9751742 -0.1509641
vn 0.2143747 0.9731638 -0.08363997
vn 0.2143747 0.9731638 -0.08363997
vn 0.2143747 0.9731638 -0.08363997
vn -0.1908911 0.9797524 0.06038093
vn -0.1908911 0.9797524 0.06038092
vn -0.1908911 0.9797524 0.06038092
vn 0.02485093 0.9973585 -0.06825167
vn 0.02485093 0.9973585 -0.06825168
vn 0.02485093 0.9973585 -0.06825167
vn 0.05801677 0.9965447 -0.05943727
vn 0.05801677 0.9965447 -0.05943728
vn -0.06074235 0.9934027 -0.09727018
vn -0.06074234 0.9934027 -0.09727018
vn -0.06074234 0.9934027 -0.09727018
vn -0.008605989 0.9998067 -0.01767773
vn -0.008605988 0.9998067 -0.01767773
vn -0.008605987 0.9998067 -0.01767772
vn -0.008556145 0.9999001 -0.01125397
vn -0.1873902 0.9787117 -0.08371557
vn -0.1873902 0.9787117 -0.08371558
vn -0.1873902 0.9787117 -0.08371556
vn 0.01914082 0.9987955 0.04517964
vn 0.01914082 0.9987955 0.04517964
vn 0.01914082 0.9987955 0.04517964
vn 0.3215722 0.9354382 0.1467883
vn 0.3215722 0.9354382 0.1467883
vn 0.3215722 0.9354382 0.1467883
vn 0.09681836 0.9943305 0.04396559
vn 0.09681835 0.9943305 0.04396558
vn 0.09681837 0.9943305 0.04396558
g alluringPoolPool_0
f 3/3/3 2/2/2 1/1/1
f 6/6/6 5/5/5 4/4/4
f 5/5/5 6/6/6 7/7/7
f 5/5/5 7/7/7 8/8/8
f 8/8/8 7/7/7 9/9/9
f 9/9/9 11/11/11 10/10/10
f 13/13/13 12/12/12 10/10/10
f 16/16/16 15/15/15 14/14/14
f 19/19/19 18/18/18 17/17/17
f 18/18/18 19/19/19 20/20/20
f 22/22/22 19/19/19 21/21/21
f 25/25/25 24/24/24 23/23/23
f 27/27/27 25/25/25 26/26/26
f 28/28/28 27/27/27 26/26/26
f 29/29/29 27/27/27 28/28/28
f 29/29/29 28/28/28 30/30/30
f 31/31/31 27/27/27 29/29/29
f 31/31/31 32/32/32 27/27/27
f 35/35/35 34/34/34 33/33/33
f 38/38/38 37/37/37 36/36/36
f 37/37/37 40/40/40 39/39/39
f 43/43/43 42/42/42 41/41/41
f 46/46/46 45/45/45 44/44/44
f 49/49/49 48/48/48 47/47/47
f 47/47/47 48/48/48 50/50/50
f 48/48/48 51/51/51 50/50/50
f 54/54/54 53/53/53 52/52/52
f 53/53/53 56/56/56 55/55/55
f 59/59/59 58/58/58 57/57/57
f 62/62/62 61/61/61 60/60/60
f 65/65/65 64/64/64 63/63/63
f 63/63/63 67/67/67 66/66/66
f 67/67/67 68/68/68 66/66/66
f 69/69/69 68/68/68 67/67/67
f 69/69/69 67/67/67 70/70/70
f 73/73/73 72/72/72 71/71/71
f 76/76/76 75/75/75 74/74/74
f 79/79/79 78/78/78 77/77/77
f 77/77/77 78/78/78 80/80/80
f 83/83/83 82/82/82 81/81/81
f 83/83/83 84/84/84 82/82/82
f 82/82/82 84/84/84 85/85/85
f 88/88/88 87/87/87 86/86/86
f 91/91/91 90/90/90 89/89/89
f 94/94/94 93/93/93 92/92/92
f 97/97/97 96/96/96 95/95/95
f 95/95/95 96/96/96 98/98/98
f 95/95/95 98/98/98 99/99/99
f 102/102/102 101/101/101 100/100/100
f 102/102/102 103/103/103 101/101/101
f 101/101/101 103/103/103 104/104/104
f 103/103/103 105/105/105 104/104/104
f 101/101/101 107/107/107 106/106/106
f 110/110/110 109/109/109 108/108/108
f 110/110/110 111/111/111 109/109/109
f 111/111/111 113/113/113 112/112/112
f 113/113/113 114/114/114 112/112/112
f 117/117/117 116/116/116 115/115/115
f 120/120/120 119/119/119 118/118/118
f 118/118/118 119/119/119 121/121/121
f 124/124/124 123/123/123 122/122/122
f 127/127/127 126/126/126 125/125/125
f 130/130/130 129/129/129 128/128/128
f 133/133/133 132/132/132 131/131/131
f 135/135/135 131/131/131 134/134/134
f 138/138/138 137/137/137 136/136/136
f 141/141/141 140/140/140 139/139/139
f 141/141/141 142/142/142 140/140/140
f 145/145/145 144/144/144 143/143/143
f 148/148/148 147/147/147 146/146/146
f 151/151/151 150/150/150 149/149/149
f 154/154/154 153/153/153 152/152/152
