g arrowIron
v 0.01315645 0.009410348 -0.01797796
v 0.001830766 0.0601861 2.526167E-10
v 0.01315645 0.009410348 0.01797796
v 0.108591 0.00597651 0.01684455
v 0.01315645 0.009410348 0.01797796
v 0.001830766 0.0601861 2.526167E-10
v 0.1091171 0.0436944 9.631412E-10
v 0.1091171 0.0436944 9.631412E-10
v 0.001830766 0.0601861 2.526167E-10
v 0.01315645 0.009410348 -0.01797796
v 0.108591 0.00597651 -0.01684455
v 1.221826 -0.04533269 0.02172063
v 0.3490195 -0.003844657 0.0176749
v 0.3496066 0.03526911 9.631412E-10
v 1.222352 0.0005944298 9.631412E-10
v 1.222352 0.0005944298 9.631412E-10
v 0.3496066 0.03526911 9.631412E-10
v 0.3490195 -0.003844657 -0.0176749
v 1.221826 -0.04533269 -0.02172063
v 1.221826 -0.04533269 -0.02172063
v 1.268645 -0.04860296 -0.02470989
v 1.270024 0.004675851 1.673661E-09
v 1.222352 0.0005944298 9.631412E-10
v 1.222352 0.0005944298 9.631412E-10
v 1.270024 0.004675851 1.673661E-09
v 1.268645 -0.04860296 0.02470989
v 1.221826 -0.04533269 0.02172063
v 1.267265 -0.1018818 2.384186E-09
v 1.481844 -0.05689031 4.769617E-10
v 1.268645 -0.04860296 -0.02470989
v 1.481844 -0.05689031 4.769617E-10
v 1.267265 -0.1018818 2.384186E-09
v 1.268645 -0.04860296 0.02470989
v 1.2213 -0.09125982 9.631412E-10
v 1.267265 -0.1018818 2.384186E-09
v 1.268645 -0.04860296 -0.02470989
v 1.221826 -0.04533269 -0.02172063
v 0.3490195 -0.003844657 -0.0176749
v 0.3484262 -0.04295659 9.631412E-10
v 1.2213 -0.09125982 9.631412E-10
v 1.221826 -0.04533269 -0.02172063
v 0.01315645 0.009410348 -0.01797796
v 0.0003146524 -0.0397968 2.526167E-10
v 0.1080649 -0.03174138 9.631412E-10
v 0.108591 0.00597651 -0.01684455
v 0.0003146524 -0.0397968 2.526167E-10
v 0.01315645 0.009410348 -0.01797796
v 0.01315645 0.009410348 0.01797796
v 0.1080649 -0.03174138 9.631412E-10
v 0.0003146524 -0.0397968 2.526167E-10
v 0.01315645 0.009410348 0.01797796
v 0.108591 0.00597651 0.01684455
v 1.2213 -0.09125982 9.631412E-10
v 0.3484262 -0.04295659 9.631412E-10
v 0.3490195 -0.003844657 0.0176749
v 1.221826 -0.04533269 0.02172063
v 1.268645 -0.04860296 0.02470989
v 1.267265 -0.1018818 2.384186E-09
v 1.2213 -0.09125982 9.631412E-10
v 1.221826 -0.04533269 0.02172063
v 1.481844 -0.05689031 4.769617E-10
v 1.270024 0.004675851 1.673661E-09
v 1.268645 -0.04860296 -0.02470989
v 1.270024 0.004675851 1.673661E-09
v 1.481844 -0.05689031 4.769617E-10
v 1.268645 -0.04860296 0.02470989
v 0.1174106 0.005616403 0.0864471
v 0.108591 0.00597651 0.01684455
v 0.1091171 0.0436944 9.631412E-10
v 0.1179392 0.07637262 -1.18032E-09
v 0.116882 -0.06513982 -1.18032E-09
v 0.1080649 -0.03174138 9.631412E-10
v 0.108591 0.00597651 0.01684455
v 0.1174106 0.005616403 0.0864471
v 0.108591 0.00597651 -0.01684455
v 0.1080649 -0.03174138 9.631412E-10
v 0.116882 -0.06513982 -1.18032E-09
v 0.1174106 0.005616403 -0.0864471
v 0.1179392 0.07637262 -1.18032E-09
v 0.1091171 0.0436944 9.631412E-10
v 0.108591 0.00597651 -0.01684455
v 0.1174106 0.005616403 -0.0864471
v 0.3490195 -0.003844657 0.0176749
v 0.3401413 -0.00327703 0.02093532
v 0.3408359 0.04308222 8.082952E-10
v 0.3496066 0.03526911 9.631412E-10
v 0.3496066 0.03526911 9.631412E-10
v 0.3408359 0.04308222 8.082952E-10
v 0.3401413 -0.00327703 -0.02093532
v 0.3490195 -0.003844657 -0.0176749
v 0.3394418 -0.04963445 8.082952E-10
v 0.3484262 -0.04295659 9.631412E-10
v 0.3490195 -0.003844657 -0.0176749
v 0.3401413 -0.00327703 -0.02093532
v 0.3484262 -0.04295659 9.631412E-10
v 0.3394418 -0.04963445 8.082952E-10
v 0.3401413 -0.00327703 0.02093532
v 0.3490195 -0.003844657 0.0176749
v 0.3401413 -0.00327703 0.02093532
v 0.1174106 0.005616403 0.0864471
v 0.1179392 0.07637262 -1.18032E-09
v 0.3408359 0.04308222 8.082952E-10
v 0.3408359 0.04308222 8.082952E-10
v 0.1179392 0.07637262 -1.18032E-09
v 0.1174106 0.005616403 -0.0864471
v 0.3401413 -0.00327703 -0.02093532
v 0.116882 -0.06513982 -1.18032E-09
v 0.3394418 -0.04963445 8.082952E-10
v 0.3401413 -0.00327703 -0.02093532
v 0.1174106 0.005616403 -0.0864471
v 0.3394418 -0.04963445 8.082952E-10
v 0.116882 -0.06513982 -1.18032E-09
v 0.1174106 0.005616403 0.0864471
v 0.3401413 -0.00327703 0.02093532
vt 0.7730203 0.6941206
vt 0.7695946 0.7094775
vt 0.7730203 0.6941206
vt 0.8018838 0.6930821
vt 0.7730203 0.6941206
vt 0.7695946 0.7094775
vt 0.802043 0.7044897
vt 0.802043 0.7044897
vt 0.7695946 0.7094775
vt 0.7730203 0.6941206
vt 0.8018838 0.6930821
vt 0.381014 0.2006005
vt 0.3457884 0.2006005
vt 0.3457907 0.2029859
vt 0.381014 0.2029859
vt 0.381014 0.2029859
vt 0.3457907 0.2029859
vt 0.3457884 0.2006005
vt 0.381014 0.2006005
vt 0.3070796 0.3881487
vt 0.3363569 0.3861039
vt 0.3372195 0.4194207
vt 0.307409 0.4168688
vt 0.307409 0.4168688
vt 0.3372195 0.4194207
vt 0.3363569 0.3861039
vt 0.3070796 0.3881487
vt 0.3354942 0.3527868
vt 0.4696775 0.3809214
vt 0.3363569 0.3861039
vt 0.4696775 0.3809214
vt 0.3354942 0.3527868
vt 0.3363569 0.3861039
vt 0.3067502 0.3594289
vt 0.3354942 0.3527868
vt 0.3363569 0.3861039
vt 0.3070796 0.3881487
vt 0.3457884 0.2006005
vt 0.3457858 0.1982151
vt 0.381014 0.1982151
vt 0.381014 0.2006005
vt 0.7730203 0.6941206
vt 0.769136 0.6792381
vt 0.8017248 0.6816744
vt 0.8018838 0.6930821
vt 0.769136 0.6792381
vt 0.7730203 0.6941206
vt 0.7730203 0.6941206
vt 0.8017248 0.6816744
vt 0.769136 0.6792381
vt 0.7730203 0.6941206
vt 0.8018838 0.6930821
vt 0.381014 0.1982151
vt 0.3457858 0.1982151
vt 0.3457884 0.2006005
vt 0.381014 0.2006005
vt 0.3363569 0.3861039
vt 0.3354942 0.3527868
vt 0.3067502 0.3594289
vt 0.3070796 0.3881487
vt 0.4696775 0.3809214
vt 0.3372195 0.4194207
vt 0.3363569 0.3861039
vt 0.3372195 0.4194207
vt 0.4696775 0.3809214
vt 0.3363569 0.3861039
vt 0.803987 0.6929852
vt 0.8018838 0.6930821
vt 0.802043 0.7044897
vt 0.8041468 0.7044082
vt 0.8038274 0.6815619
vt 0.8017248 0.6816744
vt 0.8018838 0.6930821
vt 0.803987 0.6929852
vt 0.8018838 0.6930821
vt 0.8017248 0.6816744
vt 0.8038274 0.6815619
vt 0.803987 0.6929852
vt 0.8041468 0.7044082
vt 0.802043 0.7044897
vt 0.8018838 0.6930821
vt 0.803987 0.6929852
vt 0.8592201 0.6904393
vt 0.8559054 0.6905921
vt 0.8560818 0.7023975
vt 0.8593974 0.7022692
vt 0.8593974 0.7022692
vt 0.8560818 0.7023975
vt 0.8559054 0.6905921
vt 0.8592201 0.6904393
vt 0.8557271 0.6787872
vt 0.8590407 0.67861
vt 0.8592201 0.6904393
vt 0.8559054 0.6905921
vt 0.8590407 0.67861
vt 0.8557271 0.6787872
vt 0.8559054 0.6905921
vt 0.8592201 0.6904393
vt 0.8559054 0.6905921
vt 0.803987 0.6929852
vt 0.8041468 0.7044082
vt 0.8560818 0.7023975
vt 0.8560818 0.7023975
vt 0.8041468 0.7044082
vt 0.803987 0.6929852
vt 0.8559054 0.6905921
vt 0.8038274 0.6815619
vt 0.8557271 0.6787872
vt 0.8559054 0.6905921
vt 0.803987 0.6929852
vt 0.8557271 0.6787872
vt 0.8038274 0.6815619
vt 0.803987 0.6929852
vt 0.8559054 0.6905921
vn -0.9760149 -0.2177036 0
vn -0.9760149 -0.2177036 0
vn -0.9760149 -0.2177036 0
vn 0.04158 0.3702418 0.9280044
vn 0.04158001 0.3702418 0.9280044
vn 0.04158001 0.3702418 0.9280044
vn 0.04158001 0.3702417 0.9280043
vn 0.04157995 0.3702466 -0.9280025
vn 0.04157995 0.3702465 -0.9280025
vn 0.04157995 0.3702466 -0.9280025
vn 0.04157995 0.3702466 -0.9280025
vn 0.01622737 0.4201077 0.9073291
vn 0.01622737 0.4201076 0.9073291
vn 0.01622737 0.4201077 0.9073291
vn 0.01622737 0.4201076 0.9073291
vn 0.01622738 0.4201067 -0.9073296
vn 0.01622738 0.4201067 -0.9073296
vn 0.01622738 0.4201067 -0.9073296
vn 0.01622738 0.4201067 -0.9073296
vn -0.03227135 0.4241817 -0.9050019
vn -0.03227135 0.4241816 -0.9050019
vn -0.03227135 0.4241817 -0.9050019
vn -0.03227135 0.4241816 -0.9050019
vn -0.03227164 0.4241681 0.9050082
vn -0.03227164 0.4241681 0.9050082
vn -0.03227164 0.4241681 0.9050082
vn -0.03227164 0.4241681 0.9050082
vn 0.08826832 -0.4209721 -0.9027686
vn 0.08826832 -0.4209721 -0.9027686
vn 0.08826832 -0.4209721 -0.9027686
vn 0.08826816 -0.4209762 0.9027668
vn 0.08826816 -0.4209763 0.9027668
vn 0.08826816 -0.4209762 0.9027668
vn -0.09205786 -0.4206501 -0.9025403
vn -0.09205787 -0.4206501 -0.9025403
vn -0.09205788 -0.4206502 -0.9025403
vn -0.09205787 -0.4206502 -0.9025403
vn -0.02370433 -0.4199713 -0.9072278
vn -0.02370433 -0.4199713 -0.9072278
vn -0.02370433 -0.4199713 -0.9072278
vn -0.02370433 -0.4199713 -0.9072278
vn 0.01367257 -0.373648 -0.9274698
vn 0.01367258 -0.373648 -0.9274699
vn 0.01367258 -0.373648 -0.9274698
vn 0.01367258 -0.373648 -0.9274698
vn -0.9675952 0.2525065 0
vn -0.9675952 0.2525064 0
vn -0.9675952 0.2525064 0
vn 0.01367254 -0.3736399 0.9274731
vn 0.01367254 -0.3736399 0.9274731
vn 0.01367254 -0.3736399 0.9274731
vn 0.01367254 -0.3736399 0.9274731
vn -0.02370442 -0.4199734 0.9072268
vn -0.02370441 -0.4199733 0.9072268
vn -0.02370441 -0.4199734 0.9072268
vn -0.02370441 -0.4199734 0.9072268
vn -0.09205792 -0.4206596 0.9025358
vn -0.09205794 -0.4206596 0.9025358
vn -0.09205794 -0.4206596 0.9025358
vn -0.09205792 -0.4206596 0.9025358
vn 0.1206476 0.4150817 -0.9017491
vn 0.1206476 0.4150817 -0.9017491
vn 0.1206476 0.4150817 -0.9017491
vn 0.1206472 0.4150891 0.9017457
vn 0.1206472 0.4150891 0.9017457
vn 0.1206472 0.4150891 0.9017457
vn -0.9712291 0.1691308 0.1676565
vn -0.9712291 0.1691308 0.1676565
vn -0.9712291 0.1691308 0.1676565
vn -0.9712291 0.1691308 0.1676565
vn -0.9729996 -0.1541344 0.1717975
vn -0.9729996 -0.1541344 0.1717975
vn -0.9729996 -0.1541344 0.1717974
vn -0.9729996 -0.1541344 0.1717975
vn -0.9729967 -0.1541547 -0.171796
vn -0.9729967 -0.1541548 -0.171796
vn -0.9729967 -0.1541548 -0.171796
vn -0.9729967 -0.1541547 -0.171796
vn -0.9712257 0.1691513 -0.1676559
vn -0.9712257 0.1691512 -0.1676559
vn -0.9712257 0.1691513 -0.1676559
vn -0.9712257 0.1691512 -0.1676559
vn 0.3404389 0.382854 0.8587924
vn 0.3404388 0.382854 0.8587924
vn 0.3404389 0.382854 0.8587924
vn 0.3404388 0.382854 0.8587924
vn 0.3404289 0.3829197 -0.858767
vn 0.3404289 0.3829197 -0.8587669
vn 0.3404289 0.3829197 -0.8587669
vn 0.3404289 0.3829197 -0.8587669
vn 0.2945002 -0.3971449 -0.8692212
vn 0.2945001 -0.3971449 -0.8692212
vn 0.2945001 -0.3971449 -0.8692212
vn 0.2945001 -0.3971449 -0.8692212
vn 0.2945119 -0.3970605 0.8692559
vn 0.2945119 -0.3970605 0.8692559
vn 0.2945119 -0.3970605 0.8692558
vn 0.2945119 -0.3970605 0.8692559
vn 0.169864 0.6650293 0.7272429
vn 0.169864 0.6650293 0.7272429
vn 0.169864 0.6650293 0.7272429
vn 0.169864 0.6650292 0.7272429
vn 0.1698647 0.6650253 -0.7272463
vn 0.1698647 0.6650252 -0.7272465
vn 0.1698647 0.6650253 -0.7272465
vn 0.1698647 0.6650253 -0.7272465
vn 0.117571 -0.6718049 -0.731338
vn 0.117571 -0.6718049 -0.731338
vn 0.117571 -0.6718049 -0.731338
vn 0.117571 -0.671805 -0.731338
vn 0.1175701 -0.6718113 0.7313322
vn 0.1175701 -0.6718115 0.7313322
vn 0.1175701 -0.6718115 0.7313322
vn 0.11757 -0.6718114 0.7313322
g arrowIron_0
f 3/3/3 2/2/2 1/1/1
f 6/6/6 5/5/5 4/4/4
f 7/7/7 6/6/6 4/4/4
f 10/10/10 9/9/9 8/8/8
f 11/11/11 10/10/10 8/8/8
f 14/14/14 13/13/13 12/12/12
f 15/15/15 14/14/14 12/12/12
f 18/18/18 17/17/17 16/16/16
f 19/19/19 18/18/18 16/16/16
f 22/22/22 21/21/21 20/20/20
f 23/23/23 22/22/22 20/20/20
f 26/26/26 25/25/25 24/24/24
f 27/27/27 26/26/26 24/24/24
f 30/30/30 29/29/29 28/28/28
f 33/33/33 32/32/32 31/31/31
f 36/36/36 35/35/35 34/34/34
f 37/37/37 36/36/36 34/34/34
f 40/40/40 39/39/39 38/38/38
f 41/41/41 40/40/40 38/38/38
f 44/44/44 43/43/43 42/42/42
f 45/45/45 44/44/44 42/42/42
f 48/48/48 47/47/47 46/46/46
f 51/51/51 50/50/50 49/49/49
f 52/52/52 51/51/51 49/49/49
f 55/55/55 54/54/54 53/53/53
f 56/56/56 55/55/55 53/53/53
f 59/59/59 58/58/58 57/57/57
f 60/60/60 59/59/59 57/57/57
f 63/63/63 62/62/62 61/61/61
f 66/66/66 65/65/65 64/64/64
f 69/69/69 68/68/68 67/67/67
f 70/70/70 69/69/69 67/67/67
f 73/73/73 72/72/72 71/71/71
f 74/74/74 73/73/73 71/71/71
f 77/77/77 76/76/76 75/75/75
f 78/78/78 77/77/77 75/75/75
f 81/81/81 80/80/80 79/79/79
f 82/82/82 81/81/81 79/79/79
f 85/85/85 84/84/84 83/83/83
f 86/86/86 85/85/85 83/83/83
f 89/89/89 88/88/88 87/87/87
f 90/90/90 89/89/89 87/87/87
f 93/93/93 92/92/92 91/91/91
f 94/94/94 93/93/93 91/91/91
f 97/97/97 96/96/96 95/95/95
f 98/98/98 97/97/97 95/95/95
f 101/101/101 100/100/100 99/99/99
f 102/102/102 101/101/101 99/99/99
f 105/105/105 104/104/104 103/103/103
f 106/106/106 105/105/105 103/103/103
f 109/109/109 108/108/108 107/107/107
f 110/110/110 109/109/109 107/107/107
f 113/113/113 112/112/112 111/111/111
f 114/114/114 113/113/113 111/111/111
