g arrow01
v 0.1016882 -0.0177124 0.01334474
v -0.0004113769 0.01371551 0.02096513
v 0.102511 0.007664642 0.01492555
v -0.001386719 -0.01735703 0.01900483
v 1.233273 -0.05480072 0.01027467
v 1.281307 -0.04232666 0.02985902
v 1.279962 -0.08458359 0.01210389
v 1.279962 -0.08458359 0.01210389
v 1.281307 -0.04232666 0.02985902
v 1.39286 -0.04441635 -0.006539905
v -0.0003479004 0.01638733 -0.02164733
v 0.1017456 -0.01573196 -0.01784011
v 0.1025684 0.00964447 -0.01625945
v -0.00131958 -0.01468567 -0.02360778
v 1.233318 -0.05307297 -0.01727935
v 1.281394 -0.03881531 -0.0300479
v 1.234239 -0.02353424 -0.01541594
v -0.001386719 -0.01735703 0.01900483
v -0.0003479004 0.01638733 -0.02164733
v -0.0004113769 0.01371551 0.02096513
v -0.00131958 -0.01468567 -0.02360778
v 0.102511 0.007664642 0.01492555
v -0.0003479004 0.01638733 -0.02164733
v 0.1025684 0.00964447 -0.01625945
v -0.0004113769 0.01371551 0.02096513
v 0.2880237 0.004134216 -0.01604171
v 0.2879761 0.002227936 0.01437333
v 1.234198 -0.02526184 0.01213807
v 1.234239 -0.02353424 -0.01541594
v 1.234198 -0.02526184 0.01213807
v 1.234239 -0.02353424 -0.01541594
v 1.282661 0.0008126831 0.01699556
v 1.282661 0.0008126831 0.01699556
v 1.281394 -0.03881531 -0.0300479
v 1.39286 -0.04441635 -0.006539905
v 1.39286 -0.04441635 -0.006539905
v 1.281394 -0.03881531 -0.0300479
v 1.279962 -0.08458359 0.01210389
v 1.279962 -0.08458359 0.01210389
v 1.281394 -0.03881531 -0.0300479
v 1.233318 -0.05307297 -0.01727935
v 0.2871338 -0.02467438 0.01267595
v 1.233318 -0.05307297 -0.01727935
v 0.2871802 -0.02276779 -0.01773879
v 1.233273 -0.05480072 0.01027467
v 0.1017456 -0.01573196 -0.01784011
v 0.1016882 -0.0177124 0.01334474
v -0.001386719 -0.01735703 0.01900483
v -0.00131958 -0.01468567 -0.02360778
v 1.233273 -0.05480072 0.01027467
v 0.2879761 0.002227936 0.01437333
v 1.234198 -0.02526184 0.01213807
v 0.2871338 -0.02467438 0.01267595
v 0.102511 0.007664642 0.01492555
v 0.1016882 -0.0177124 0.01334474
v 1.234239 -0.02353424 -0.01541594
v 0.2871802 -0.02276779 -0.01773879
v 1.233318 -0.05307297 -0.01727935
v 0.2880237 0.004134216 -0.01604171
v 0.1017456 -0.01573196 -0.01784011
v 0.1025684 0.00964447 -0.01625945
v 1.282661 0.0008126831 0.01699556
v 1.234239 -0.02353424 -0.01541594
v 1.281394 -0.03881531 -0.0300479
v 1.279962 -0.08458359 0.01210389
v 1.233318 -0.05307297 -0.01727935
v 1.233273 -0.05480072 0.01027467
v 1.39286 -0.04441635 -0.006539905
v 1.281307 -0.04232666 0.02985902
v 1.282661 0.0008126831 0.01699556
v 1.281307 -0.04232666 0.02985902
v 1.234198 -0.02526184 0.01213807
v 1.282661 0.0008126831 0.01699556
v 1.234198 -0.02526184 0.01213807
v 1.281307 -0.04232666 0.02985902
v 1.233273 -0.05480072 0.01027467
v 0.1632568 0.05173996 0.001343788
v 0.09436768 0.05857147 0.001546386
v 0.09437988 0.0590126 -0.001477511
v 0.1632727 0.05221695 -0.001657104
v 0.1023743 0.003762359 0.009962476
v 0.09436768 0.05857147 0.001546386
v 0.1632568 0.05173996 0.001343788
v 0.1716443 0.001650085 0.008880943
v 0.1910828 0.04714294 0.001287717
v 0.3173462 0.03270615 0.000890238
v 0.3516467 -0.003838806 0.006070537
v 0.3516467 -0.003838806 0.006070537
v 0.317362 0.03326401 -0.002059126
v 0.3516919 -0.00193222 -0.008547861
v 0.317362 0.03326401 -0.002059126
v 0.3173462 0.03270615 0.000890238
v 0.1716858 0.003132324 -0.01087831
v 0.1632727 0.05221695 -0.001657104
v 0.09437988 0.0590126 -0.001477511
v 0.1024084 0.005081635 -0.01177523
v 0.3516919 -0.00193222 -0.008547861
v 0.1911133 0.04762832 -0.001706841
v 0.317362 0.03326401 -0.002059126
v 0.1024084 0.005081635 -0.01177523
v 0.09436768 0.05857147 0.001546386
v 0.1023743 0.003762359 0.009962476
v 0.09437988 0.0590126 -0.001477511
v 0.3174756 -0.0300383 0.03135782
v 0.09476318 -0.04587036 0.05936659
v 0.3174914 -0.02776306 0.03331549
v 0.09475098 -0.04826889 0.05747274
v 0.1028332 -0.01396042 -0.004519333
v 0.3174756 -0.0300383 0.03135782
v 0.3519079 -0.01817123 0.0004429233
v 0.3174756 -0.0300383 0.03135782
v 0.1028332 -0.01396042 -0.004519333
v 0.09475098 -0.04826889 0.05747274
v 0.3519079 -0.01817123 0.0004429233
v 0.3174914 -0.02776306 0.03331549
v 0.3519556 -0.006464691 0.009403273
v 0.3174756 -0.0300383 0.03135782
v 0.3519556 -0.006464691 0.009403273
v 0.09476318 -0.04587036 0.05936659
v 0.1028686 0.004205322 0.007492306
v 0.3174914 -0.02776306 0.03331549
v 0.1028686 0.004205322 0.007492306
v 0.09475098 -0.04826889 0.05747274
v 0.1028332 -0.01396042 -0.004519333
v 0.09476318 -0.04587036 0.05936659
v 0.3173462 -0.03062439 -0.03926688
v 0.09475341 -0.0463855 -0.05823654
v 0.317362 -0.03345749 -0.03827519
v 0.09474121 -0.04354614 -0.05936659
v 0.1024792 -0.005277862 -0.01531618
v 0.3173462 -0.03062439 -0.03926688
v 0.351781 -0.009784546 -0.01353228
v 0.09474121 -0.04354614 -0.05936659
v 0.351781 -0.009784546 -0.01353228
v 0.317362 -0.03345749 -0.03827519
v 0.3518274 -0.02339798 -0.007874229
v 0.3173462 -0.03062439 -0.03926688
v 0.3518274 -0.02339798 -0.007874229
v 0.09475341 -0.0463855 -0.05823654
v 0.1028467 -0.01527328 -0.001980997
v 0.09475341 -0.0463855 -0.05823654
v 0.3518274 -0.02339798 -0.007874229
v 0.317362 -0.03345749 -0.03827519
v 0.1028467 -0.01527328 -0.001980997
v 0.09474121 -0.04354614 -0.05936659
v 0.1024792 -0.005277862 -0.01531618
v 0.09474121 -0.04354614 -0.05936659
v 0.1028467 -0.01527328 -0.001980997
v 0.09475341 -0.0463855 -0.05823654
v 0.1716443 0.001650085 0.008880943
v 0.1723743 0.02856766 0.003374176
v 0.1910828 0.04714294 0.001287717
v 0.1723743 0.02856766 0.003374176
v 0.1632568 0.05173996 0.001343788
v 0.1632727 0.05221695 -0.001657104
v 0.1724194 0.02904678 -0.003742444
v 0.1724194 0.02904678 -0.003742444
v 0.1632727 0.05221695 -0.001657104
v 0.1716858 0.003132324 -0.01087831
v 0.3173462 0.03270615 0.000890238
v 0.1910828 0.04714294 0.001287717
v 0.1911133 0.04762832 -0.001706841
v 0.317362 0.03326401 -0.002059126
v 0.1910828 0.04714294 0.001287717
v 0.1723743 0.02856766 0.003374176
v 0.1724194 0.02904678 -0.003742444
v 0.1910828 0.04714294 0.001287717
v 0.1724194 0.02904678 -0.003742444
v 0.1911133 0.04762832 -0.001706841
v 0.1716443 0.001650085 0.008880943
v 0.1632568 0.05173996 0.001343788
v 0.1723743 0.02856766 0.003374176
v 0.1911133 0.04762832 -0.001706841
v 0.1724194 0.02904678 -0.003742444
v 0.1716858 0.003132324 -0.01087831
vt 0.03902012 0.5589346
vt 0.03236198 0.5608935
vt 0.03907043 0.5605395
vt 0.03230256 0.5589286
vt 0.8975783 0.9222453
vt 0.9210086 0.9291685
vt 0.9207407 0.9075954
vt 0.9207407 0.9075954
vt 0.9210086 0.9291685
vt 0.9772692 0.927078
vt 0.03245324 0.5615707
vt 0.03908762 0.5594319
vt 0.03913793 0.5610368
vt 0.03239402 0.5596058
vt 0.8982226 0.9221768
vt 0.9224036 0.9288979
vt 0.8986385 0.9369025
vt 0.03230256 0.5589286
vt 0.03245324 0.5615707
vt 0.03236198 0.5608935
vt 0.03239402 0.5596058
vt 0.03907043 0.5605395
vt 0.03245324 0.5615707
vt 0.03913793 0.5610368
vt 0.03236198 0.5608935
vt 0.05120313 0.5606123
vt 0.05113783 0.5601289
vt 0.1127033 0.5580429
vt 0.1127623 0.5584809
vt 0.8979962 0.9369709
vt 0.8986385 0.9369025
vt 0.9219717 0.9501504
vt 0.9219717 0.9501504
vt 0.9224036 0.9288979
vt 0.9772692 0.927078
vt 0.9772692 0.927078
vt 0.9224036 0.9288979
vt 0.9207407 0.9075954
vt 0.9207407 0.9075954
vt 0.9224036 0.9288979
vt 0.8982226 0.9221768
vt 0.05108652 0.5584278
vt 0.1127061 0.5566129
vt 0.05115172 0.5589111
vt 0.1126469 0.5561751
vt 0.03908762 0.5594319
vt 0.03902012 0.5589346
vt 0.03230256 0.5589286
vt 0.03239402 0.5596058
vt 0.1126469 0.5561751
vt 0.05113783 0.5601289
vt 0.1127033 0.5580429
vt 0.05108652 0.5584278
vt 0.03907043 0.5605395
vt 0.03902012 0.5589346
vt 0.1127623 0.5584809
vt 0.05115172 0.5589111
vt 0.1127061 0.5566129
vt 0.05120313 0.5606123
vt 0.03908762 0.5594319
vt 0.03913793 0.5610368
vt 0.9219717 0.9501504
vt 0.8986385 0.9369025
vt 0.9224036 0.9288979
vt 0.9207407 0.9075954
vt 0.8982226 0.9221768
vt 0.8975783 0.9222453
vt 0.9772692 0.927078
vt 0.9210086 0.9291685
vt 0.9219717 0.9501504
vt 0.9210086 0.9291685
vt 0.8979962 0.9369709
vt 0.9219717 0.9501504
vt 0.8979962 0.9369709
vt 0.9210086 0.9291685
vt 0.8975783 0.9222453
vt 0.1848066 0.5894495
vt 0.1816881 0.6016479
vt 0.1808081 0.6016842
vt 0.1839334 0.5894948
vt 0.1845083 0.586851
vt 0.1816881 0.6016479
vt 0.1848066 0.5894495
vt 0.1873884 0.5757602
vt 0.1860737 0.5840608
vt 0.1917817 0.5612208
vt 0.1948724 0.5469402
vt 0.1948724 0.5469402
vt 0.1909235 0.5612876
vt 0.1906173 0.5470607
vt 0.1909235 0.5612876
vt 0.1917817 0.5612208
vt 0.1816361 0.5756507
vt 0.1839334 0.5894948
vt 0.1808081 0.6016842
vt 0.1781795 0.5866539
vt 0.1906173 0.5470607
vt 0.185203 0.5841061
vt 0.1909235 0.5612876
vt 0.1781795 0.5866539
vt 0.1816881 0.6016479
vt 0.1845083 0.586851
vt 0.1808081 0.6016842
vt 0.2006603 0.5461575
vt 0.1985445 0.5767178
vt 0.2012312 0.5467743
vt 0.1979924 0.5760708
vt 0.1803121 0.5819759
vt 0.2006603 0.5461575
vt 0.1932456 0.543161
vt 0.2006603 0.5461575
vt 0.1803121 0.5819759
vt 0.1979924 0.5760708
vt 0.1932456 0.543161
vt 0.2012312 0.5467743
vt 0.1958572 0.5463132
vt 0.2006603 0.5461575
vt 0.1958572 0.5463132
vt 0.1985445 0.5767178
vt 0.1838117 0.5868276
vt 0.2012312 0.5467743
vt 0.1838117 0.5868276
vt 0.1979924 0.5760708
vt 0.1803121 0.5819759
vt 0.1985445 0.5767178
vt 0.1800873 0.5443288
vt 0.1642962 0.5737573
vt 0.1803768 0.5436379
vt 0.1639665 0.5744458
vt 0.1771516 0.583953
vt 0.1800873 0.5443288
vt 0.1891699 0.5449526
vt 0.1639665 0.5744458
vt 0.1891699 0.5449526
vt 0.1803768 0.5436379
vt 0.1908197 0.5416586
vt 0.1800873 0.5443288
vt 0.1908197 0.5416586
vt 0.1642962 0.5737573
vt 0.181052 0.5817049
vt 0.1642962 0.5737573
vt 0.1908197 0.5416586
vt 0.1803768 0.5436379
vt 0.181052 0.5817049
vt 0.1639665 0.5744458
vt 0.1771516 0.583953
vt 0.1639665 0.5744458
vt 0.181052 0.5817049
vt 0.1642962 0.5737573
vt 0.1873884 0.5757602
vt 0.1858184 0.5822852
vt 0.1860737 0.5840608
vt 0.1858184 0.5822852
vt 0.1848066 0.5894495
vt 0.1839334 0.5894948
vt 0.1837479 0.5822274
vt 0.1837479 0.5822274
vt 0.1839334 0.5894948
vt 0.1816361 0.5756507
vt 0.1917817 0.5612208
vt 0.1860737 0.5840608
vt 0.185203 0.5841061
vt 0.1909235 0.5612876
vt 0.1860737 0.5840608
vt 0.1858184 0.5822852
vt 0.1837479 0.5822274
vt 0.1860737 0.5840608
vt 0.1837479 0.5822274
vt 0.185203 0.5841061
vt 0.1873884 0.5757602
vt 0.1848066 0.5894495
vt 0.1858184 0.5822852
vt 0.185203 0.5841061
vt 0.1837479 0.5822274
vt 0.1816361 0.5756507
vn 0.05471955 -0.06384632 0.9964584
vn 0.05471955 -0.06384632 0.9964584
vn 0.05471955 -0.06384632 0.9964584
vn 0.05449344 -0.06457345 0.996424
vn -0.2683113 -0.3658983 0.8911383
vn -0.2683113 -0.3658983 0.8911383
vn -0.2683113 -0.3658984 0.8911383
vn 0.2805768 -0.3793832 0.8816718
vn 0.2805767 -0.3793831 0.8816718
vn 0.2805768 -0.3793832 0.8816718
vn 0.05612216 0.06025739 -0.9966038
vn 0.05612216 0.06025739 -0.9966038
vn 0.05612216 0.06025739 -0.9966038
vn 0.05638797 0.06110934 -0.9965371
vn -0.2751635 0.06906971 -0.9589132
vn -0.2751635 0.06906971 -0.9589131
vn -0.2751635 0.06906972 -0.9589132
vn -0.9995089 0.0313352 0.0004763679
vn -0.9995089 0.03133519 0.0004763677
vn -0.9995089 0.03133519 0.0004763678
vn -0.9995117 0.03124294 0.0003830882
vn 0.06194343 0.9960671 0.06335055
vn 0.06194344 0.9960671 0.06335056
vn 0.06194344 0.9960671 0.06335055
vn 0.06223198 0.9960998 0.06254867
vn 0.02913 0.9976139 0.06259293
vn 0.02913065 0.9976152 0.06257162
vn 0.02913 0.9976139 0.06259293
vn 0.02913 0.9976139 0.06259294
vn -0.477321 0.8770515 0.05427135
vn -0.4773211 0.8770515 0.05427136
vn -0.4773209 0.8770515 0.05427134
vn 0.1721566 0.751103 -0.6373432
vn 0.1721566 0.751103 -0.6373432
vn 0.1721566 0.751103 -0.6373432
vn 0.119723 -0.6745973 -0.7284126
vn 0.119723 -0.6745972 -0.7284126
vn 0.119723 -0.6745973 -0.7284126
vn 0.005597549 -0.6775302 -0.7354737
vn 0.005597549 -0.6775302 -0.7354737
vn 0.005597549 -0.6775302 -0.7354737
vn -0.03192087 -0.9975293 -0.06258003
vn -0.03192087 -0.9975293 -0.06258003
vn -0.03192087 -0.9975293 -0.06258002
vn -0.03192154 -0.997528 -0.06260153
vn -0.006629854 -0.9980183 -0.06257555
vn -0.00692161 -0.9979649 -0.06338979
vn -0.006629854 -0.9980183 -0.06257556
vn -0.006629854 -0.9980183 -0.06257556
vn 0.0005280702 -0.06297442 0.998015
vn 0.00052807 -0.06297442 0.998015
vn 0.0005280703 -0.06297442 0.998015
vn 0.0005273836 -0.0629857 0.9980143
vn 0.001124654 -0.06300425 0.9980127
vn 0.001263812 -0.06221313 0.9980621
vn 0.002498722 0.06288042 -0.9980179
vn 0.002498721 0.06288043 -0.9980179
vn 0.002498721 0.06288041 -0.9980179
vn 0.00249872 0.06288046 -0.9980179
vn 0.002930618 0.06286714 -0.9980177
vn 0.00301607 0.06207032 -0.9980672
vn 0.04744659 0.7633219 -0.6442736
vn 0.04744659 0.7633219 -0.6442736
vn 0.04744659 0.7633219 -0.6442736
vn -0.5355168 -0.8428139 -0.05372593
vn -0.5355168 -0.8428139 -0.05372592
vn -0.5355169 -0.8428138 -0.05372593
vn 0.3036938 0.2634884 0.9156111
vn 0.3036939 0.2634885 0.9156111
vn 0.3036938 0.2634885 0.9156111
vn -0.2457258 0.2840634 0.926783
vn -0.2457258 0.2840634 0.926783
vn -0.2457258 0.2840634 0.926783
vn -0.3666005 -0.04713218 0.9291838
vn -0.3666005 -0.04713218 0.9291838
vn -0.3666005 -0.04713218 0.9291838
vn 0.0977174 0.9837879 0.1503749
vn 0.0977174 0.9837879 0.1503749
vn 0.09771739 0.9837879 0.1503749
vn 0.09771738 0.9837879 0.1503749
vn 0.01910334 0.1532436 0.9880037
vn 0.01910333 0.1532436 0.9880037
vn 0.01910333 0.1532436 0.9880037
vn 0.01910333 0.1532436 0.9880037
vn 0.02058542 0.1574563 0.9873114
vn 0.02058542 0.1574563 0.9873114
vn 0.02058542 0.1574563 0.9873114
vn 0.7212445 0.6865741 0.09177354
vn 0.7212445 0.6865742 0.09177355
vn 0.7212445 0.6865742 0.09177354
vn 0.7130017 0.6882372 0.1340081
vn 0.7130017 0.6882372 0.1340081
vn 0.01704443 0.1887608 -0.9818751
vn 0.01704443 0.1887608 -0.9818751
vn 0.01704443 0.1887608 -0.9818751
vn 0.01704443 0.1887608 -0.9818751
vn 0.0187774 0.1961668 -0.9803907
vn 0.0187774 0.1961668 -0.9803907
vn 0.0187774 0.1961668 -0.9803907
vn -0.9892116 -0.146123 -0.01042265
vn -0.9892116 -0.146123 -0.01042265
vn -0.9892116 -0.146123 -0.01042265
vn -0.98948 -0.1425299 -0.0247926
vn 0.1402765 -0.6463243 0.7500582
vn 0.1402764 -0.6463244 0.7500582
vn 0.1402765 -0.6463244 0.7500582
vn 0.1413114 -0.6139179 0.7766182
vn -0.008426625 -0.9303718 -0.3665205
vn -0.008426626 -0.9303718 -0.3665205
vn -0.008426625 -0.9303718 -0.3665205
vn 0.01508333 -0.8756765 -0.4826627
vn 0.01508333 -0.8756763 -0.4826627
vn 0.01508333 -0.8756765 -0.4826628
vn 0.67975 -0.4475205 0.5810897
vn 0.67975 -0.4475206 0.5810897
vn 0.6797501 -0.4475206 0.5810897
vn 0.6704765 -0.4866777 0.5600054
vn 0.02538236 0.7172511 0.6963523
vn 0.02538236 0.7172511 0.6963524
vn 0.02538236 0.7172511 0.6963524
vn 0.02014425 0.731996 0.6810111
vn -0.9935015 0.06411414 -0.09404282
vn -0.9935015 0.06411415 -0.09404282
vn -0.9935015 0.06411414 -0.09404282
vn -0.9937204 0.07236475 -0.0853411
vn 0.1032534 -0.3280899 -0.9389865
vn 0.1032534 -0.3280899 -0.9389865
vn 0.1032534 -0.3280899 -0.9389865
vn 0.1047701 -0.3673568 -0.9241604
vn 0.0184337 0.764802 -0.6440017
vn 0.0184337 0.7648019 -0.6440017
vn 0.0184337 0.764802 -0.6440017
vn 0.01561317 0.7534637 -0.6573041
vn 0.6797342 -0.2794993 -0.6781164
vn 0.6797341 -0.2794993 -0.6781163
vn 0.6797342 -0.2794994 -0.6781163
vn 0.6705063 -0.2417625 -0.7014073
vn -0.0170197 -0.8739195 0.4857725
vn -0.0170197 -0.8739195 0.4857725
vn -0.0170197 -0.8739195 0.4857725
vn 0.0303113 -0.9586831 0.2828568
vn 0.0303113 -0.9586831 0.2828569
vn 0.0303113 -0.9586831 0.2828569
vn -0.9913076 0.09068528 0.09531851
vn -0.9913076 0.09068528 0.09531851
vn -0.9913076 0.09068527 0.0953185
vn -0.9919643 0.0432445 0.1188976
vn -0.9919643 0.0432445 0.1188976
vn -0.9919643 0.0432445 0.1188976
vn -0.09178679 0.2019608 0.975083
vn -0.09178678 0.2019608 0.975083
vn -0.09178676 0.2019608 0.975083
vn 0.9296149 0.3663304 0.04022628
vn 0.9296149 0.3663304 0.04022629
vn 0.9296149 0.3663304 0.04022628
vn 0.9296149 0.3663304 0.04022628
vn 0.3901472 0.2341552 -0.890481
vn 0.3901472 0.2341552 -0.890481
vn 0.3901472 0.2341552 -0.890481
vn 0.112128 0.9785836 0.1726311
vn 0.112128 0.9785836 0.1726311
vn 0.112128 0.9785836 0.1726311
vn 0.112128 0.9785836 0.1726311
vn -0.7033675 0.7080926 0.06228095
vn -0.7033675 0.7080926 0.06228095
vn -0.7033676 0.7080926 0.06228095
vn -0.7033675 0.7080926 0.06228095
vn -0.7033676 0.7080926 0.06228095
vn -0.7033675 0.7080926 0.06228095
vn 0.263218 0.1865066 0.9465366
vn 0.2632179 0.1865066 0.9465366
vn 0.263218 0.1865066 0.9465366
vn -0.1611662 0.2662514 -0.9503345
vn -0.1611662 0.2662514 -0.9503345
vn -0.1611662 0.2662515 -0.9503345
g arrow01_0
f 3/3/3 2/2/2 1/1/1
f 4/4/4 1/1/1 2/2/2
f 7/7/7 6/6/6 5/5/5
f 10/10/10 9/9/9 8/8/8
f 13/13/13 12/12/12 11/11/11
f 14/14/14 11/11/11 12/12/12
f 17/17/17 16/16/16 15/15/15
f 20/20/20 19/19/19 18/18/18
f 21/21/21 18/18/18 19/19/19
f 24/24/24 23/23/23 22/22/22
f 25/25/25 22/22/22 23/23/23
f 26/26/26 24/24/24 22/22/22
f 27/27/27 26/26/26 22/22/22
f 27/27/27 28/28/28 26/26/26
f 29/29/29 26/26/26 28/28/28
f 32/32/32 31/31/31 30/30/30
f 35/35/35 34/34/34 33/33/33
f 38/38/38 37/37/37 36/36/36
f 41/41/41 40/40/40 39/39/39
f 44/44/44 43/43/43 42/42/42
f 45/45/45 42/42/42 43/43/43
f 46/46/46 44/44/44 42/42/42
f 47/47/47 46/46/46 42/42/42
f 47/47/47 48/48/48 46/46/46
f 49/49/49 46/46/46 48/48/48
f 52/52/52 51/51/51 50/50/50
f 53/53/53 50/50/50 51/51/51
f 51/51/51 54/54/54 53/53/53
f 55/55/55 53/53/53 54/54/54
f 58/58/58 57/57/57 56/56/56
f 59/59/59 56/56/56 57/57/57
f 57/57/57 60/60/60 59/59/59
f 61/61/61 59/59/59 60/60/60
f 64/64/64 63/63/63 62/62/62
f 67/67/67 66/66/66 65/65/65
f 70/70/70 69/69/69 68/68/68
f 73/73/73 72/72/72 71/71/71
f 76/76/76 75/75/75 74/74/74
f 79/79/79 78/78/78 77/77/77
f 80/80/80 79/79/79 77/77/77
f 83/83/83 82/82/82 81/81/81
f 84/84/84 83/83/83 81/81/81
f 86/86/86 85/85/85 84/84/84
f 87/87/87 86/86/86 84/84/84
f 90/90/90 89/89/89 88/88/88
f 92/92/92 88/88/88 91/91/91
f 95/95/95 94/94/94 93/93/93
f 96/96/96 95/95/95 93/93/93
f 93/93/93 98/98/98 97/97/97
f 98/98/98 99/99/99 97/97/97
f 102/102/102 101/101/101 100/100/100
f 103/103/103 100/100/100 101/101/101
f 106/106/106 105/105/105 104/104/104
f 107/107/107 104/104/104 105/105/105
f 110/110/110 109/109/109 108/108/108
f 113/113/113 112/112/112 111/111/111
f 116/116/116 115/115/115 114/114/114
f 117/117/117 114/114/114 115/115/115
f 120/120/120 119/119/119 118/118/118
f 121/121/121 118/118/118 119/119/119
f 124/124/124 123/123/123 122/122/122
f 125/125/125 122/122/122 123/123/123
f 128/128/128 127/127/127 126/126/126
f 129/129/129 126/126/126 127/127/127
f 132/132/132 131/131/131 130/130/130
f 133/133/133 130/130/130 131/131/131
f 136/136/136 135/135/135 134/134/134
f 137/137/137 134/134/134 135/135/135
f 140/140/140 139/139/139 138/138/138
f 143/143/143 142/142/142 141/141/141
f 146/146/146 145/145/145 144/144/144
f 149/149/149 148/148/148 147/147/147
f 152/152/152 151/151/151 150/150/150
f 155/155/155 154/154/154 153/153/153
f 156/156/156 155/155/155 153/153/153
f 159/159/159 158/158/158 157/157/157
f 162/162/162 161/161/161 160/160/160
f 163/163/163 162/162/162 160/160/160
f 166/166/166 165/165/165 164/164/164
f 169/169/169 168/168/168 167/167/167
f 172/172/172 171/171/171 170/170/170
f 175/175/175 174/174/174 173/173/173
