g arrowGolbin
v 0.1080652 -0.01889526 -0.01559891
v 0.0003149414 -0.0226239 -0.02247391
v 0.0003149414 -0.0226239 0.02247391
v 0.1080652 -0.01889526 0.01559891
v 0.0003149414 -0.0226239 -0.02247391
v 0.001831055 0.02229858 -0.02247391
v 0.001831055 0.02229858 0.02247391
v 0.0003149414 -0.0226239 0.02247391
v 0.001831055 0.02229858 -0.02247391
v 0.1091174 0.01228455 -0.01559891
v 0.1091174 0.01228455 0.01559891
v 0.001831055 0.02229858 0.02247391
v 0.1080652 -0.01889526 0.01559891
v 0.0003149414 -0.0226239 0.02247391
v 0.001831055 0.02229858 0.02247391
v 0.1091174 0.01228455 0.01559891
v 0.1091174 0.01228455 -0.01559891
v 0.001831055 0.02229858 -0.02247391
v 0.0003149414 -0.0226239 -0.02247391
v 0.1080652 -0.01889526 -0.01559891
v 1.137344 -0.05546875 -0.01559891
v 0.1080652 -0.01889526 -0.01559891
v 0.1080652 -0.01889526 0.01559891
v 1.137344 -0.05546875 0.01559891
v 1.137344 -0.05546875 0.01559891
v 0.1080652 -0.01889526 0.01559891
v 0.1091174 0.01228455 0.01559891
v 1.138396 -0.02428894 0.01559891
v 0.1091174 0.01228455 -0.01559891
v 1.138396 -0.02428894 -0.01559891
v 1.138396 -0.02428894 0.01559891
v 0.1091174 0.01228455 0.01559891
v 1.138396 -0.02428894 -0.01559891
v 0.1091174 0.01228455 -0.01559891
v 0.1080652 -0.01889526 -0.01559891
v 1.137344 -0.05546875 -0.01559891
v 1.137344 -0.05546875 0.01559891
v 1.151193 -0.06820679 0.02590627
v 1.151193 -0.06820679 -0.02590627
v 1.137344 -0.05546875 -0.01559891
v 1.293964 -0.04705322 0
v 1.137344 -0.05546875 -0.01559891
v 1.151193 -0.06820679 -0.02590627
v 1.152941 -0.01642395 -0.02590626
v 1.138396 -0.02428894 -0.01559891
v 1.293964 -0.04705322 0
v 1.138396 -0.02428894 -0.01559891
v 1.152941 -0.01642395 -0.02590626
v 1.152941 -0.01642395 0.02590627
v 1.138396 -0.02428894 0.01559891
v 1.293964 -0.04705322 0
v 1.138396 -0.02428894 0.01559891
v 1.152941 -0.01642395 0.02590627
v 1.151193 -0.06820679 0.02590627
v 1.137344 -0.05546875 0.01559891
v 1.293964 -0.04705322 0
v 0.255625 -0.07236957 -0.004571602
v 0.2574878 -0.01760134 0.003933785
v 0.3463692 -0.002659049 0.0001790629
v 0.3458663 -0.01754275 -0.0007107897
v 0.1718762 -0.09461454 -0.005981107
v 0.1497327 -0.07806344 0.0003189349
v 0.2574878 -0.01760134 0.003933785
v 0.255625 -0.07236957 -0.004571602
v 0.0513916 -0.106483 -0.006690686
v 0.1081531 -0.01045468 0.004361063
v 0.1497327 -0.07806344 0.0003189349
v 0.1128809 -0.1046546 -0.006581372
v 0.2574878 -0.01760134 0.003933785
v 0.1497327 -0.07806344 0.0003189349
v 0.1081531 -0.01045468 0.004361063
v 0.255625 -0.07236957 -0.004571602
v 0.3458663 -0.01754275 -0.0007107897
v 0.3463692 -0.002659049 0.0001790629
v 0.2574878 -0.01697808 -0.006490868
v 0.1718762 -0.09461454 -0.005981107
v 0.255625 -0.07236957 -0.004571602
v 0.2574878 -0.01697808 -0.006490868
v 0.1497327 -0.07744017 -0.01010572
v 0.0513916 -0.106483 -0.006690686
v 0.1128809 -0.1046546 -0.006581372
v 0.1497327 -0.07744017 -0.01010572
v 0.1081531 -0.009831417 -0.00606359
v 0.2574878 -0.01697808 -0.006490868
v 0.1081531 -0.009831417 -0.00606359
v 0.1497327 -0.07744017 -0.01010572
v 0.1497327 -0.07744017 -0.01010572
v 0.1497327 -0.07806344 0.0003189349
v 0.1718762 -0.09461454 -0.005981107
v 0.1128809 -0.1046546 -0.006581372
v 0.1497327 -0.07806344 0.0003189349
v 0.1497327 -0.07744017 -0.01010572
v 0.1081531 -0.009831417 -0.00606359
v 0.1081531 -0.01045468 0.004361063
v 0.0513916 -0.106483 -0.006690686
v 0.2731726 0.02711545 -0.0004379236
v 0.2580577 -0.004326901 -0.003574332
v 0.3307289 -0.01828866 0.0004608445
v 0.3314943 -0.003437383 0.001653775
v 0.2245022 0.05812085 0.005779283
v 0.1731748 0.05327091 -0.0008566886
v 0.2580577 -0.004326901 -0.003574332
v 0.2731726 0.02711545 -0.0004379236
v 0.1195096 0.03935187 0.0007295914
v 0.1243105 0.001283081 -0.004040427
v 0.1731748 0.05327091 -0.0008566886
v 0.09067474 0.07272898 0.007849988
v 0.1463023 0.06809286 0.0124317
v 0.2580577 -0.004326901 -0.003574332
v 0.1731748 0.05327091 -0.0008566886
v 0.1243105 0.001283081 -0.004040427
v 0.2731726 0.02711545 -0.0004379236
v 0.3314943 -0.003437383 0.001653775
v 0.3307289 -0.01828866 0.0004608445
v 0.2579865 -0.005159399 0.006835457
v 0.2245022 0.05812085 0.005779283
v 0.2731726 0.02711545 -0.0004379236
v 0.2579865 -0.005159399 0.006835457
v 0.1731036 0.05243841 0.009553102
v 0.1180624 0.04164874 0.00701105
v 0.1731036 0.05243841 0.009553102
v 0.1242393 0.0004505813 0.006369363
v 0.09067474 0.07272898 0.007849988
v 0.1463023 0.06809286 0.0124317
v 0.2579865 -0.005159399 0.006835457
v 0.1242393 0.0004505813 0.006369363
v 0.1731036 0.05243841 0.009553102
v 0.1731036 0.05243841 0.009553102
v 0.1731748 0.05327091 -0.0008566886
v 0.2245022 0.05812085 0.005779283
v 0.1463023 0.06809286 0.0124317
v 0.1731748 0.05327091 -0.0008566886
v 0.1731036 0.05243841 0.009553102
v 0.1242393 0.0004505813 0.006369363
v 0.1243105 0.001283081 -0.004040427
v 0.1195096 0.03935187 0.0007295914
v 0.1180624 0.04164874 0.00701105
v 0.09067474 0.07272898 0.007849988
v 0.2603379 -0.03059322 -0.05727658
v 0.2581216 -0.01494537 -0.002482299
v 0.3307084 -0.01389246 0.009956143
v 0.3311799 -0.01748627 -0.004515605
v 0.23769 -0.02532147 -0.05094932
v 0.2280833 -0.02540028 -0.03758246
v 0.2581216 -0.01494537 -0.002482299
v 0.2603379 -0.03059322 -0.05727658
v 0.095065 -0.005727892 -0.07857566
v 0.124838 -0.00387563 -0.008219857
v 0.2280833 -0.02540028 -0.03758246
v 0.2080278 -0.0222272 -0.05988694
v 0.2581216 -0.01494537 -0.002482299
v 0.2280833 -0.02540028 -0.03758246
v 0.124838 -0.00387563 -0.008219857
v 0.2603379 -0.03059322 -0.05727658
v 0.3311799 -0.01748627 -0.004515605
v 0.3307084 -0.01389246 0.009956143
v 0.2590672 -0.004844415 -0.004959889
v 0.23769 -0.02532147 -0.05094932
v 0.2603379 -0.03059322 -0.05727658
v 0.2590672 -0.004844415 -0.004959889
v 0.2290289 -0.01529932 -0.04006005
v 0.095065 -0.005727892 -0.07857566
v 0.2080278 -0.0222272 -0.05988694
v 0.2290289 -0.01529932 -0.04006005
v 0.1257835 0.006225324 -0.01069745
v 0.2590672 -0.004844415 -0.004959889
v 0.1257835 0.006225324 -0.01069745
v 0.2290289 -0.01529932 -0.04006005
v 0.2290289 -0.01529932 -0.04006005
v 0.2280833 -0.02540028 -0.03758246
v 0.23769 -0.02532147 -0.05094932
v 0.2080278 -0.0222272 -0.05988694
v 0.2280833 -0.02540028 -0.03758246
v 0.2290289 -0.01529932 -0.04006005
v 0.1257835 0.006225324 -0.01069745
v 0.124838 -0.00387563 -0.008219857
v 0.095065 -0.005727892 -0.07857566
v 0.2571634 -0.03097569 0.0551339
v 0.2572032 -0.001861095 0.01145831
v 0.3456004 -0.008094103 0.00520056
v 0.3455784 -0.01614025 0.01776354
v 0.1741802 -0.06030678 0.07575194
v 0.1514601 -0.0371253 0.06488798
v 0.2572032 -0.001861095 0.01145831
v 0.2571634 -0.03097569 0.0551339
v 0.07837479 -0.04775952 0.08849049
v 0.1232175 -0.001645787 0.00881485
v 0.1514601 -0.0371253 0.06488798
v 0.1155417 -0.05701204 0.08555546
v 0.2572032 -0.001861095 0.01145831
v 0.1514601 -0.0371253 0.06488798
v 0.1232175 -0.001645787 0.00881485
v 0.2571634 -0.03097569 0.0551339
v 0.3455784 -0.01614025 0.01776354
v 0.3456004 -0.008094103 0.00520056
v 0.2572902 -0.01065507 0.005826231
v 0.1741802 -0.06030678 0.07575194
v 0.2571634 -0.03097569 0.0551339
v 0.2572902 -0.01065507 0.005826231
v 0.151547 -0.04591928 0.05925591
v 0.07837479 -0.04775952 0.08849049
v 0.1155417 -0.05701204 0.08555546
v 0.151547 -0.04591928 0.05925591
v 0.1233044 -0.01043976 0.00318277
v 0.2572902 -0.01065507 0.005826231
v 0.1233044 -0.01043976 0.00318277
v 0.151547 -0.04591928 0.05925591
v 0.151547 -0.04591928 0.05925591
v 0.1514601 -0.0371253 0.06488798
v 0.1741802 -0.06030678 0.07575194
v 0.1155417 -0.05701204 0.08555546
v 0.1514601 -0.0371253 0.06488798
v 0.151547 -0.04591928 0.05925591
v 0.1233044 -0.01043976 0.00318277
v 0.1232175 -0.001645787 0.00881485
v 0.07837479 -0.04775952 0.08849049
vt 0.4198615 0.5353492
vt 0.4146583 0.5342979
vt 0.4146583 0.5342979
vt 0.4198615 0.5353492
vt 0.4146583 0.5342979
vt 0.4146583 0.5411713
vt 0.4146583 0.5411713
vt 0.4146583 0.5342979
vt 0.4146583 0.5411713
vt 0.4198615 0.54012
vt 0.4198615 0.54012
vt 0.4146583 0.5411713
vt 0.4198615 0.5353492
vt 0.4146583 0.5342979
vt 0.4146583 0.5411713
vt 0.4198615 0.54012
vt 0.4198615 0.54012
vt 0.4146583 0.5411713
vt 0.4146583 0.5342979
vt 0.4198615 0.5353492
vt 0.4623169 0.5353492
vt 0.4198615 0.5353492
vt 0.4198615 0.5353492
vt 0.4623169 0.5353492
vt 0.4623169 0.5353492
vt 0.4198615 0.5353492
vt 0.4198615 0.54012
vt 0.4623169 0.54012
vt 0.4198615 0.54012
vt 0.4623169 0.54012
vt 0.4623169 0.54012
vt 0.4198615 0.54012
vt 0.4623169 0.54012
vt 0.4198615 0.54012
vt 0.4198615 0.5353492
vt 0.4623169 0.5353492
vt 0.8964262 0.5583248
vt 0.9187095 0.5496711
vt 0.9187095 0.5496711
vt 0.8964262 0.5583248
vt 0.9916239 0.5599874
vt 0.8964262 0.5583248
vt 0.9187095 0.5496711
vt 0.9195716 0.5751969
vt 0.8967549 0.5680654
vt 0.9916239 0.5599874
vt 0.8967549 0.5680654
vt 0.9195716 0.5751969
vt 0.9195716 0.5751969
vt 0.8967549 0.5680654
vt 0.9916239 0.5599874
vt 0.8967549 0.5680654
vt 0.9195716 0.5751969
vt 0.9187095 0.5496711
vt 0.8964262 0.5583248
vt 0.9916239 0.5599874
vt 0.2123673 0.6620519
vt 0.2130288 0.6816605
vt 0.2328702 0.6809907
vt 0.2326341 0.6739985
vt 0.1860814 0.6606059
vt 0.1822195 0.6748236
vt 0.2130288 0.6816605
vt 0.2123673 0.6620519
vt 0.1537644 0.6574168
vt 0.1674435 0.6831993
vt 0.1822195 0.6748236
vt 0.1702577 0.6579082
vt 0.2130288 0.6816605
vt 0.1822195 0.6748236
vt 0.1674435 0.6831993
vt 0.2123673 0.6620519
vt 0.2326341 0.6739985
vt 0.2328702 0.6809907
vt 0.2130288 0.6816605
vt 0.1860814 0.6606059
vt 0.2123673 0.6620519
vt 0.2130288 0.6816605
vt 0.1822195 0.6748236
vt 0.1537644 0.6574168
vt 0.1702577 0.6579082
vt 0.1822195 0.6748236
vt 0.1674435 0.6831993
vt 0.2130288 0.6816605
vt 0.1674435 0.6831993
vt 0.1822195 0.6748236
vt 0.1822195 0.6748236
vt 0.1822195 0.6748236
vt 0.1860814 0.6606059
vt 0.1702577 0.6579082
vt 0.1822195 0.6748236
vt 0.1822195 0.6748236
vt 0.1674435 0.6831993
vt 0.1674435 0.6831993
vt 0.1537644 0.6574168
vt 0.2123673 0.6620519
vt 0.2130288 0.6816605
vt 0.2328702 0.6809907
vt 0.2326341 0.6739985
vt 0.1860814 0.6606059
vt 0.1822195 0.6748236
vt 0.2130288 0.6816605
vt 0.2123673 0.6620519
vt 0.1619559 0.6728562
vt 0.1674435 0.6831993
vt 0.1822195 0.6748236
vt 0.1537644 0.6574168
vt 0.1702577 0.6579082
vt 0.2130288 0.6816605
vt 0.1822195 0.6748236
vt 0.1674435 0.6831993
vt 0.2123673 0.6620519
vt 0.2326341 0.6739985
vt 0.2328702 0.6809907
vt 0.2130288 0.6816605
vt 0.1860814 0.6606059
vt 0.2123673 0.6620519
vt 0.2130288 0.6816605
vt 0.1822195 0.6748236
vt 0.1615151 0.6720254
vt 0.1822195 0.6748236
vt 0.1674435 0.6831993
vt 0.1537644 0.6574168
vt 0.1702577 0.6579082
vt 0.2130288 0.6816605
vt 0.1674435 0.6831993
vt 0.1822195 0.6748236
vt 0.1822195 0.6748236
vt 0.1822195 0.6748236
vt 0.1860814 0.6606059
vt 0.1702577 0.6579082
vt 0.1822195 0.6748236
vt 0.1822195 0.6748236
vt 0.1674435 0.6831993
vt 0.1674435 0.6831993
vt 0.1619559 0.6728562
vt 0.1615151 0.6720254
vt 0.1537644 0.6574168
vt 0.2123673 0.6620519
vt 0.2130288 0.6816605
vt 0.2328702 0.6809907
vt 0.2326341 0.6739985
vt 0.1860814 0.6606059
vt 0.1822195 0.6748236
vt 0.2130288 0.6816605
vt 0.2123673 0.6620519
vt 0.1537644 0.6574168
vt 0.1674435 0.6831993
vt 0.1822195 0.6748236
vt 0.1702577 0.6579082
vt 0.2130288 0.6816605
vt 0.1822195 0.6748236
vt 0.1674435 0.6831993
vt 0.2123673 0.6620519
vt 0.2326341 0.6739985
vt 0.2328702 0.6809907
vt 0.2130288 0.6816605
vt 0.1860814 0.6606059
vt 0.2123673 0.6620519
vt 0.2130288 0.6816605
vt 0.1822195 0.6748236
vt 0.1537644 0.6574168
vt 0.1702577 0.6579082
vt 0.1822195 0.6748236
vt 0.1674435 0.6831993
vt 0.2130288 0.6816605
vt 0.1674435 0.6831993
vt 0.1822195 0.6748236
vt 0.1822195 0.6748236
vt 0.1822195 0.6748236
vt 0.1860814 0.6606059
vt 0.1702577 0.6579082
vt 0.1822195 0.6748236
vt 0.1822195 0.6748236
vt 0.1674435 0.6831993
vt 0.1674435 0.6831993
vt 0.1537644 0.6574168
vt 0.2123673 0.6620519
vt 0.2130288 0.6816605
vt 0.2328702 0.6809907
vt 0.2326341 0.6739985
vt 0.1860814 0.6606059
vt 0.1822195 0.6748236
vt 0.2130288 0.6816605
vt 0.2123673 0.6620519
vt 0.1537644 0.6574168
vt 0.1674435 0.6831993
vt 0.1822195 0.6748236
vt 0.1702577 0.6579082
vt 0.2130288 0.6816605
vt 0.1822195 0.6748236
vt 0.1674435 0.6831993
vt 0.2123673 0.6620519
vt 0.2326341 0.6739985
vt 0.2328702 0.6809907
vt 0.2130288 0.6816605
vt 0.1860814 0.6606059
vt 0.2123673 0.6620519
vt 0.2130288 0.6816605
vt 0.1822195 0.6748236
vt 0.1537644 0.6574168
vt 0.1702577 0.6579082
vt 0.1822195 0.6748236
vt 0.1674435 0.6831993
vt 0.2130288 0.6816605
vt 0.1674435 0.6831993
vt 0.1822195 0.6748236
vt 0.1822195 0.6748236
vt 0.1822195 0.6748236
vt 0.1860814 0.6606059
vt 0.1702577 0.6579082
vt 0.1822195 0.6748236
vt 0.1822195 0.6748236
vt 0.1674435 0.6831993
vt 0.1674435 0.6831993
vt 0.1537644 0.6574168
vn 0.03458394 -0.9994018 0
vn 0.03458394 -0.9994018 0
vn 0.03458394 -0.9994018 0
vn 0.03458394 -0.9994018 0
vn -0.9994306 0.03373927 0
vn -0.9994306 0.03373927 0
vn -0.9994306 0.03373927 0
vn -0.9994306 0.03373927 0
vn 0.09293487 0.9956722 0
vn 0.09293487 0.9956722 0
vn 0.09293487 0.9956722 0
vn 0.09293487 0.9956722 0
vn 0.06375052 -0.002150758 0.9979635
vn 0.06375051 -0.002150758 0.9979635
vn 0.06375051 -0.002150758 0.9979635
vn 0.0637505 -0.002150758 0.9979635
vn 0.0637505 -0.002150758 -0.9979635
vn 0.06375051 -0.002150758 -0.9979635
vn 0.06375051 -0.002150758 -0.9979635
vn 0.06375052 -0.002150758 -0.9979635
vn -0.07889845 -0.9968827 0
vn -0.03419112 -0.9994153 0
vn -0.03419112 -0.9994153 0
vn -0.07889845 -0.9968827 0
vn -0.04481273 0.001513647 0.9989943
vn 0 0 1
vn 0 0 1
vn -0.0447894 0.001512859 0.9989954
vn 0.03419117 0.9994153 0
vn -0.01070189 0.9999428 0
vn -0.01070189 0.9999428 0
vn 0.03419117 0.9994153 0
vn -0.04478942 0.001514391 -0.9989954
vn 0 0 -1
vn 0 0 -1
vn -0.04481274 0.00151518 -0.9989943
vn -0.07889845 -0.9968827 0
vn -0.003786594 -0.9999928 0
vn -0.003786594 -0.9999928 0
vn -0.07889845 -0.9968827 0
vn 0.1400921 -0.9901385 0
vn -0.04481274 0.00151518 -0.9989943
vn 0.0299322 -0.0009994212 -0.9995514
vn 0.029935 -0.0009995162 -0.9995514
vn -0.04478942 0.001514391 -0.9989954
vn 0.1733156 -0.005842711 -0.984849
vn -0.01070189 0.9999428 0
vn 0.06365373 0.9979721 0
vn 0.06365373 0.9979721 0
vn -0.01070189 0.9999428 0
vn 0.2065363 0.9784389 0
vn -0.0447894 0.001512859 0.9989954
vn 0.029935 -0.001006554 0.9995514
vn 0.02993217 -0.001006459 0.9995514
vn -0.04481273 0.001513647 0.9989943
vn 0.1733155 -0.005847779 0.984849
vn 0.09313945 -0.1362051 0.9862927
vn 0.09313947 -0.1362051 0.9862927
vn 0.09313947 -0.1362051 0.9862927
vn 0.09313946 -0.1362051 0.9862927
vn 0.0395244 -0.1923149 0.980537
vn 0.03952441 -0.1923149 0.980537
vn 0.03952441 -0.1923149 0.980537
vn 0.03952441 -0.1923149 0.980537
vn -0.03688872 -0.1171331 0.9924309
vn -0.03688872 -0.1171331 0.9924309
vn -0.03688872 -0.1171331 0.9924309
vn -0.03688872 -0.1171331 0.9924309
vn 0 -0.05968048 0.9982175
vn 0 -0.05968048 0.9982175
vn 0 -0.05968048 0.9982175
vn 0.009104623 -0.01494958 -0.9998468
vn 0.009104623 -0.01494958 -0.9998468
vn 0.009104623 -0.01494958 -0.9998468
vn 0.009104623 -0.01494958 -0.9998468
vn 0.0394577 -0.07198061 -0.9966253
vn 0.03945769 -0.07198062 -0.9966253
vn 0.03945769 -0.07198062 -0.9966253
vn 0.03945769 -0.0719806 -0.9966253
vn -0.03578844 0.003675256 -0.9993526
vn -0.03578844 0.003675253 -0.9993526
vn -0.03578844 0.00367526 -0.9993526
vn -0.03578844 0.003675252 -0.9993526
vn 0 0.05968049 -0.9982175
vn 0 0.0596805 -0.9982175
vn 0 0.05968049 -0.9982175
vn -0.6066018 -0.7935888 -0.04744633
vn -0.6066018 -0.7935887 -0.04744633
vn -0.6066018 -0.7935887 -0.04744633
vn 0.5903936 -0.8056768 -0.04816904
vn 0.5903936 -0.8056768 -0.04816904
vn 0.5903936 -0.8056768 -0.04816904
vn -0.8619859 0.5060287 0.03025396
vn -0.8619859 0.5060287 0.03025396
vn -0.8619859 0.5060286 0.03025396
vn 0.1061167 0.1477682 -0.9833127
vn 0.1061167 0.1477682 -0.9833127
vn 0.1061167 0.1477682 -0.9833127
vn 0.1061167 0.1477682 -0.9833127
vn 0.05746673 0.208114 -0.9764149
vn 0.05746673 0.208114 -0.9764149
vn 0.05746673 0.208114 -0.9764149
vn 0.05746673 0.208114 -0.9764149
vn -0.02640804 0.2890659 -0.9569449
vn -0.02505271 0.1399739 -0.9898382
vn -0.02505271 0.1399739 -0.9898382
vn -0.02505271 0.1399739 -0.9898382
vn -0.02505271 0.1399739 -0.9898382
vn 0.006817394 0.07971627 -0.9967943
vn 0.006817394 0.07971627 -0.9967943
vn 0.006817394 0.07971627 -0.9967943
vn 0.008609172 -0.006181948 0.9999439
vn 0.008609172 -0.006181948 0.9999439
vn 0.008609172 -0.006181956 0.9999439
vn 0.008609172 -0.006181956 0.9999439
vn 0.04371602 0.04810889 0.9978849
vn 0.04371601 0.0481089 0.9978849
vn 0.04371602 0.04810889 0.9978849
vn 0.04371602 0.04810888 0.9978849
vn -0.05032295 -0.09568221 0.9941391
vn -0.03770645 -0.02089985 0.9990703
vn -0.03770645 -0.02089984 0.9990703
vn -0.03770645 -0.02089985 0.9990703
vn -0.03770645 -0.02089984 0.9990703
vn -0.00681739 -0.07971628 0.9967943
vn -0.00681739 -0.07971629 0.9967943
vn -0.00681739 -0.07971628 0.9967943
vn -0.5368706 0.8412635 0.06360624
vn -0.5368706 0.8412635 0.06360623
vn -0.5368706 0.8412635 0.06360624
vn 0.6567999 0.7512949 0.0645751
vn 0.6567999 0.7512949 0.0645751
vn 0.6567999 0.7512949 0.0645751
vn -0.9019079 -0.4300199 -0.04055826
vn -0.9019079 -0.4300199 -0.04055826
vn -0.9735535 -0.2214538 -0.05614069
vn -0.9340792 -0.3564557 -0.02086684
vn -0.901908 -0.4300199 -0.04055826
vn 0.007700876 -0.9856181 0.1688132
vn 0.007700884 -0.9856181 0.1688131
vn 0.00770089 -0.9856181 0.1688132
vn 0.007700875 -0.9856181 0.1688131
vn -0.04169138 -0.9931505 0.1091501
vn -0.04169137 -0.9931505 0.1091501
vn -0.04169138 -0.9931505 0.1091501
vn -0.04169137 -0.9931505 0.1091501
vn -0.1232317 -0.9763357 0.1777151
vn -0.1232317 -0.9763357 0.1777151
vn -0.1232317 -0.9763357 0.1777151
vn -0.1232317 -0.9763357 0.1777151
vn -0.09054437 -0.9672216 0.2372428
vn -0.09054437 -0.9672216 0.2372428
vn -0.09054437 -0.9672216 0.2372428
vn 0.1041957 0.9456687 -0.3079839
vn 0.1041957 0.9456687 -0.3079839
vn 0.1041957 0.9456687 -0.3079839
vn 0.1041957 0.9456687 -0.3079839
vn 0.1374562 0.9232623 -0.3587374
vn 0.1374562 0.9232623 -0.3587374
vn 0.1374562 0.9232623 -0.3587375
vn 0.1374562 0.9232623 -0.3587374
vn 0.05842567 0.9540399 -0.2939289
vn 0.05842567 0.9540399 -0.2939289
vn 0.05842567 0.9540399 -0.2939289
vn 0.05842567 0.9540399 -0.2939289
vn 0.09054438 0.9672217 -0.2372428
vn 0.09054439 0.9672217 -0.2372428
vn 0.09054438 0.9672217 -0.2372428
vn -0.5510247 -0.1497788 -0.8209375
vn -0.5510247 -0.1497788 -0.8209373
vn -0.5510247 -0.1497788 -0.8209373
vn 0.6392896 -0.2391096 -0.7308456
vn 0.6392896 -0.2391096 -0.7308456
vn 0.6392896 -0.2391096 -0.7308456
vn -0.8896313 0.1856257 0.4172522
vn -0.8896313 0.1856257 0.4172522
vn -0.8896313 0.1856257 0.4172521
vn 0.08730981 0.7966222 0.5981387
vn 0.08730981 0.7966223 0.5981387
vn 0.08730981 0.7966223 0.5981387
vn 0.08730981 0.7966223 0.5981387
vn 0.0355608 0.7629325 0.6454995
vn 0.03556081 0.7629324 0.6454995
vn 0.03556081 0.7629325 0.6454995
vn 0.03556081 0.7629324 0.6454995
vn -0.04331327 0.8081073 0.5874407
vn -0.04331326 0.8081073 0.5874407
vn -0.04331328 0.8081073 0.5874407
vn -0.04331327 0.8081073 0.5874407
vn -0.008324172 0.8420711 0.5393023
vn -0.008324172 0.8420711 0.5393023
vn -0.008324172 0.8420711 0.5393023
vn 0.01980454 -0.8796604 -0.4751897
vn 0.01980454 -0.8796604 -0.4751897
vn 0.01980454 -0.8796604 -0.4751897
vn 0.01980454 -0.8796604 -0.4751897
vn 0.05191444 -0.9039169 -0.4245459
vn 0.05191443 -0.9039169 -0.4245459
vn 0.05191443 -0.9039169 -0.4245458
vn 0.05191443 -0.9039169 -0.4245459
vn -0.02565869 -0.8712427 -0.4901814
vn -0.02565869 -0.8712427 -0.4901814
vn -0.02565869 -0.8712427 -0.4901814
vn -0.02565869 -0.8712427 -0.4901814
vn 0.008324179 -0.8420711 -0.5393023
vn 0.008324179 -0.8420711 -0.5393023
vn 0.008324179 -0.8420711 -0.5393023
vn -0.5806409 -0.4431561 0.6829851
vn -0.580641 -0.443156 0.6829851
vn -0.580641 -0.4431561 0.6829851
vn 0.6160813 -0.420486 0.6660596
vn 0.6160813 -0.420486 0.6660596
vn 0.6160813 -0.420486 0.6660596
vn -0.8778476 0.2521187 -0.4072098
vn -0.8778476 0.2521187 -0.4072098
vn -0.8778476 0.2521187 -0.4072098
g arrowGolbin_0
f 3/3/3 2/2/2 1/1/1
f 4/4/4 3/3/3 1/1/1
f 7/7/7 6/6/6 5/5/5
f 8/8/8 7/7/7 5/5/5
f 11/11/11 10/10/10 9/9/9
f 12/12/12 11/11/11 9/9/9
f 15/15/15 14/14/14 13/13/13
f 16/16/16 15/15/15 13/13/13
f 19/19/19 18/18/18 17/17/17
f 20/20/20 19/19/19 17/17/17
f 23/23/23 22/22/22 21/21/21
f 24/24/24 23/23/23 21/21/21
f 27/27/27 26/26/26 25/25/25
f 28/28/28 27/27/27 25/25/25
f 31/31/31 30/30/30 29/29/29
f 32/32/32 31/31/31 29/29/29
f 35/35/35 34/34/34 33/33/33
f 36/36/36 35/35/35 33/33/33
f 39/39/39 38/38/38 37/37/37
f 40/40/40 39/39/39 37/37/37
f 39/39/39 41/41/41 38/38/38
f 44/44/44 43/43/43 42/42/42
f 45/45/45 44/44/44 42/42/42
f 44/44/44 46/46/46 43/43/43
f 49/49/49 48/48/48 47/47/47
f 50/50/50 49/49/49 47/47/47
f 49/49/49 51/51/51 48/48/48
f 54/54/54 53/53/53 52/52/52
f 55/55/55 54/54/54 52/52/52
f 54/54/54 56/56/56 53/53/53
f 59/59/59 58/58/58 57/57/57
f 60/60/60 59/59/59 57/57/57
f 63/63/63 62/62/62 61/61/61
f 64/64/64 63/63/63 61/61/61
f 67/67/67 66/66/66 65/65/65
f 68/68/68 67/67/67 65/65/65
f 71/71/71 70/70/70 69/69/69
f 74/74/74 73/73/73 72/72/72
f 75/75/75 74/74/74 72/72/72
f 78/78/78 77/77/77 76/76/76
f 79/79/79 78/78/78 76/76/76
f 82/82/82 81/81/81 80/80/80
f 83/83/83 82/82/82 80/80/80
f 86/86/86 85/85/85 84/84/84
f 89/89/89 88/88/88 87/87/87
f 92/92/92 91/91/91 90/90/90
f 95/95/95 94/94/94 93/93/93
f 98/98/98 97/97/97 96/96/96
f 99/99/99 98/98/98 96/96/96
f 102/102/102 101/101/101 100/100/100
f 103/103/103 102/102/102 100/100/100
f 106/106/106 105/105/105 104/104/104
f 106/106/106 104/104/104 107/107/107
f 108/108/108 106/106/106 107/107/107
f 111/111/111 110/110/110 109/109/109
f 114/114/114 113/113/113 112/112/112
f 115/115/115 114/114/114 112/112/112
f 118/118/118 117/117/117 116/116/116
f 119/119/119 118/118/118 116/116/116
f 122/122/122 121/121/121 120/120/120
f 120/120/120 121/121/121 123/123/123
f 121/121/121 124/124/124 123/123/123
f 127/127/127 126/126/126 125/125/125
f 130/130/130 129/129/129 128/128/128
f 133/133/133 132/132/132 131/131/131
f 136/136/136 135/135/135 134/134/134
f 137/137/137 136/136/136 134/134/134
f 137/137/137 138/138/138 136/136/136
f 141/141/141 140/140/140 139/139/139
f 142/142/142 141/141/141 139/139/139
f 145/145/145 144/144/144 143/143/143
f 146/146/146 145/145/145 143/143/143
f 149/149/149 148/148/148 147/147/147
f 150/150/150 149/149/149 147/147/147
f 153/153/153 152/152/152 151/151/151
f 156/156/156 155/155/155 154/154/154
f 157/157/157 156/156/156 154/154/154
f 160/160/160 159/159/159 158/158/158
f 161/161/161 160/160/160 158/158/158
f 164/164/164 163/163/163 162/162/162
f 165/165/165 164/164/164 162/162/162
f 168/168/168 167/167/167 166/166/166
f 171/171/171 170/170/170 169/169/169
f 174/174/174 173/173/173 172/172/172
f 177/177/177 176/176/176 175/175/175
f 180/180/180 179/179/179 178/178/178
f 181/181/181 180/180/180 178/178/178
f 184/184/184 183/183/183 182/182/182
f 185/185/185 184/184/184 182/182/182
f 188/188/188 187/187/187 186/186/186
f 189/189/189 188/188/188 186/186/186
f 192/192/192 191/191/191 190/190/190
f 195/195/195 194/194/194 193/193/193
f 196/196/196 195/195/195 193/193/193
f 199/199/199 198/198/198 197/197/197
f 200/200/200 199/199/199 197/197/197
f 203/203/203 202/202/202 201/201/201
f 204/204/204 203/203/203 201/201/201
f 207/207/207 206/206/206 205/205/205
f 210/210/210 209/209/209 208/208/208
f 213/213/213 212/212/212 211/211/211
f 216/216/216 215/215/215 214/214/214
