g arrowSilver
v 0.1080649 -0.01889545 -0.01559891
v 0.0003146524 -0.02262409 -0.02247391
v 0.0003146524 -0.02262409 0.02247391
v 0.1080649 -0.01889545 0.01559891
v 0.0003146524 -0.02262409 -0.02247391
v 0.001830766 0.0222984 -0.02247391
v 0.001830766 0.0222984 0.02247391
v 0.0003146524 -0.02262409 0.02247391
v 0.001830766 0.0222984 -0.02247391
v 0.1091171 0.01228436 -0.01559891
v 0.1091171 0.01228436 0.01559891
v 0.001830766 0.0222984 0.02247391
v 0.1080649 -0.01889545 0.01559891
v 0.0003146524 -0.02262409 0.02247391
v 0.001830766 0.0222984 0.02247391
v 0.1091171 0.01228436 0.01559891
v 0.1091171 0.01228436 -0.01559891
v 0.001830766 0.0222984 -0.02247391
v 0.0003146524 -0.02262409 -0.02247391
v 0.1080649 -0.01889545 -0.01559891
v 1.177116 -0.05546894 -0.01559891
v 0.1080649 -0.01889545 -0.01559891
v 0.1080649 -0.01889545 0.01559891
v 1.177116 -0.05546894 0.01559891
v 1.248446 -0.08316974 -0.04087764
v 1.248446 -0.08316974 0.04087764
v 1.177116 -0.05546894 0.01559891
v 0.1080649 -0.01889545 0.01559891
v 0.1091171 0.01228436 0.01559891
v 1.178169 -0.02428913 0.01559891
v 1.248446 -0.08316974 0.04087764
v 1.251204 -0.00146137 0.04087763
v 0.1091171 0.01228436 -0.01559891
v 1.178169 -0.02428913 -0.01559891
v 1.178169 -0.02428913 0.01559891
v 0.1091171 0.01228436 0.01559891
v 1.251204 -0.00146137 0.04087763
v 1.251204 -0.00146137 -0.04087763
v 1.178169 -0.02428913 -0.01559891
v 0.1091171 0.01228436 -0.01559891
v 0.1080649 -0.01889545 -0.01559891
v 1.177116 -0.05546894 -0.01559891
v 1.251204 -0.00146137 -0.04087763
v 1.248446 -0.08316974 -0.04087764
v 0.3006442 -0.01099994 0.05520966
v 0.3004672 -0.01621845 5.960464E-10
v 0.1708762 -0.01118183 5.960464E-10
v 0.1079929 -0.009059026 5.960464E-10
v 0.05471162 -0.002466008 0.1049928
v 0.3004672 -0.01621845 5.960464E-10
v 0.3006442 -0.01099994 0.05520966
v 0.3777035 -0.01300312 0.01291704
v 0.3777035 -0.01300312 -0.002001374
v 0.1515451 -0.005734441 -0.09082411
v 0.1708762 -0.01118183 5.960464E-10
v 0.2003964 -0.007383001 -0.08367573
v 0.3004672 -0.01621845 5.960464E-10
v 0.3006442 -0.01099994 -0.05520966
v 0.2003964 -0.007383001 -0.08367573
v 0.3006442 -0.01099994 -0.05520966
v 0.3004672 -0.01621845 5.960464E-10
v 0.3777035 -0.01300312 -0.002001374
v 0.3777035 -0.01300312 -0.01691979
v 0.1083457 0.001377986 8.940697E-10
v 0.30082 -0.005780828 8.940697E-10
v 0.3006442 -0.01099994 0.05520966
v 0.05471162 -0.002466008 0.1049928
v 0.30082 -0.005780828 8.940697E-10
v 0.3777035 -0.01300312 -0.002001374
v 0.3777035 -0.01300312 0.01291704
v 0.3006442 -0.01099994 0.05520966
v 0.1083457 0.001377986 8.940697E-10
v 0.05471162 -0.002466008 -0.1049928
v 0.1515451 -0.005734441 -0.09082411
v 0.2003964 -0.007383001 -0.08367573
v 0.3006442 -0.01099994 -0.05520966
v 0.30082 -0.005780828 8.940697E-10
v 0.3006442 -0.01099994 -0.05520966
v 0.3777035 -0.01300312 -0.01691979
v 0.3777035 -0.01300312 -0.002001374
v 0.30082 -0.005780828 8.940697E-10
v 0.05471162 -0.002466008 0.1049928
v 0.1079929 -0.009059026 5.960464E-10
v 0.1083457 0.001377986 8.940697E-10
v 0.1083457 0.001377986 8.940697E-10
v 0.1079929 -0.009059026 5.960464E-10
v 0.05471162 -0.002466008 -0.1049928
v 0.05471162 -0.002466008 -0.1049928
v 0.1079929 -0.009059026 5.960464E-10
v 0.1708762 -0.01118183 5.960464E-10
v 0.1515451 -0.005734441 -0.09082411
v 0.1081528 -0.004331243 0.00497723
v 0.05798799 0.09461651 -0.0003238041
v 0.3024899 0.04368817 -0.0002444023
v 0.3006271 -0.01149067 0.00497723
v 0.3006271 -0.01149067 0.00497723
v 0.3024899 0.04368817 -0.0002444023
v 0.3781931 0.001534846 -0.003510633
v 0.3776901 -0.01337482 -0.003510633
v 0.2987643 -0.06666888 -0.0002444023
v 0.3006271 -0.01149067 0.00497723
v 0.3776901 -0.01337482 -0.003510633
v 0.3771872 -0.0282851 -0.003510633
v 0.1718759 -0.08895832 -0.0003238041
v 0.1497324 -0.07206073 0.00497723
v 0.3006271 -0.01149067 0.00497723
v 0.2987643 -0.06666888 -0.0002444023
v 0.05139131 -0.100848 -0.0003238041
v 0.1081528 -0.004331243 0.00497723
v 0.1497324 -0.07206073 0.00497723
v 0.1128806 -0.0990163 -0.0003238041
v 0.3006271 -0.01149067 0.00497723
v 0.1497324 -0.07206073 0.00497723
v 0.1081528 -0.004331243 0.00497723
v 0.1081528 -0.004331243 -0.005466038
v 0.3006271 -0.01149067 -0.005466038
v 0.3024899 0.04368817 -0.0002444023
v 0.05798799 0.09461651 -0.0003238041
v 0.3781931 0.001534846 -0.003510633
v 0.3776901 -0.01337482 -0.003510633
v 0.2987643 -0.06666888 -0.0002444023
v 0.3771872 -0.0282851 -0.003510633
v 0.3776901 -0.01337482 -0.003510633
v 0.3006271 -0.01149067 -0.005466038
v 0.1718759 -0.08895832 -0.0003238041
v 0.2987643 -0.06666888 -0.0002444023
v 0.3006271 -0.01149067 -0.005466038
v 0.1497324 -0.07206073 -0.005466038
v 0.05139131 -0.100848 -0.0003238041
v 0.1128806 -0.0990163 -0.0003238041
v 0.1497324 -0.07206073 -0.005466038
v 0.1081528 -0.004331243 -0.005466038
v 0.3006271 -0.01149067 -0.005466038
v 0.1081528 -0.004331243 -0.005466038
v 0.1497324 -0.07206073 -0.005466038
v 0.05798799 0.09461651 -0.0003238041
v 0.1081528 -0.004331243 0.00497723
v 0.1081528 -0.004331243 -0.005466038
v 0.1497324 -0.07206073 -0.005466038
v 0.1497324 -0.07206073 0.00497723
v 0.1718759 -0.08895832 -0.0003238041
v 0.1128806 -0.0990163 -0.0003238041
v 0.1497324 -0.07206073 0.00497723
v 0.1497324 -0.07206073 -0.005466038
v 0.1081528 -0.004331243 -0.005466038
v 0.1081528 -0.004331243 0.00497723
v 0.05139131 -0.100848 -0.0003238041
v 1.248446 -0.08316974 0.04087764
v 1.481844 -0.05014667 0
v 1.248446 -0.08316974 -0.04087764
v 1.248446 -0.08316974 -0.04087764
v 1.481844 -0.05014667 0
v 1.251204 -0.00146137 -0.04087763
v 1.251204 -0.00146137 -0.04087763
v 1.481844 -0.05014667 0
v 1.251204 -0.00146137 0.04087763
v 1.251204 -0.00146137 0.04087763
v 1.481844 -0.05014667 0
v 1.248446 -0.08316974 0.04087764
vt 0.3385586 0.1982151
vt 0.3333554 0.1971638
vt 0.3333554 0.1971638
vt 0.3385586 0.1982151
vt 0.3333554 0.1971638
vt 0.3333554 0.2040372
vt 0.3333554 0.2040372
vt 0.3333554 0.1971638
vt 0.3333554 0.2040372
vt 0.3385586 0.2029859
vt 0.3385586 0.2029859
vt 0.3333554 0.2040372
vt 0.3385586 0.1982151
vt 0.3333554 0.1971638
vt 0.3333554 0.2040372
vt 0.3385586 0.2029859
vt 0.3385586 0.2029859
vt 0.3333554 0.2040372
vt 0.3333554 0.1971638
vt 0.3385586 0.1982151
vt 0.381014 0.1982151
vt 0.3385586 0.1982151
vt 0.3385586 0.1982151
vt 0.381014 0.1982151
vt 0.381014 0.1982151
vt 0.381014 0.1982151
vt 0.381014 0.1982151
vt 0.3385586 0.1982151
vt 0.3385586 0.2029859
vt 0.381014 0.2029859
vt 0.381014 0.1982151
vt 0.381014 0.2029859
vt 0.3385586 0.2029859
vt 0.381014 0.2029859
vt 0.381014 0.2029859
vt 0.3385586 0.2029859
vt 0.381014 0.2029859
vt 0.381014 0.2029859
vt 0.381014 0.2029859
vt 0.3385586 0.2029859
vt 0.3385586 0.1982151
vt 0.381014 0.1982151
vt 0.381014 0.2029859
vt 0.381014 0.1982151
vt 0.8393989 0.6886185
vt 0.8393363 0.686764
vt 0.8160977 0.6875484
vt 0.7937509 0.6883029
vt 0.7810197 0.6905892
vt 0.8393363 0.686764
vt 0.8393989 0.6886185
vt 0.8592403 0.6879489
vt 0.8592403 0.6879489
vt 0.8069928 0.6897124
vt 0.8160977 0.6875484
vt 0.8200963 0.6892701
vt 0.8393363 0.686764
vt 0.8393989 0.6886185
vt 0.8200963 0.6892701
vt 0.8393989 0.6886185
vt 0.8393363 0.686764
vt 0.8592403 0.6879489
vt 0.8592403 0.6879489
vt 0.7938762 0.6920119
vt 0.8394616 0.6904731
vt 0.8393989 0.6886185
vt 0.7810197 0.6905892
vt 0.8394616 0.6904731
vt 0.8592403 0.6879489
vt 0.8592403 0.6879489
vt 0.8393989 0.6886185
vt 0.7938762 0.6920119
vt 0.7810197 0.6905892
vt 0.8069928 0.6897124
vt 0.8200963 0.6892701
vt 0.8393989 0.6886185
vt 0.8394616 0.6904731
vt 0.8393989 0.6886185
vt 0.8592403 0.6879489
vt 0.8592403 0.6879489
vt 0.8394616 0.6904731
vt 0.7810197 0.6905892
vt 0.7937509 0.6883029
vt 0.7938762 0.6920119
vt 0.7938762 0.6920119
vt 0.7937509 0.6883029
vt 0.7810197 0.6905892
vt 0.7810197 0.6905892
vt 0.7937509 0.6883029
vt 0.8160977 0.6875484
vt 0.8069928 0.6897124
vt 0.7938079 0.689983
vt 0.7818987 0.7166292
vt 0.8400555 0.7080528
vt 0.8393931 0.6884442
vt 0.8393931 0.6884442
vt 0.8400555 0.7080528
vt 0.85947 0.6947667
vt 0.8592346 0.6877744
vt 0.8387316 0.6688356
vt 0.8393931 0.6884442
vt 0.8592346 0.6877744
vt 0.8589985 0.6807822
vt 0.8124458 0.6673896
vt 0.8085839 0.6816074
vt 0.8393931 0.6884442
vt 0.8387316 0.6688356
vt 0.7801287 0.6642005
vt 0.7938079 0.689983
vt 0.8085839 0.6816074
vt 0.796622 0.6646919
vt 0.8393931 0.6884442
vt 0.8085839 0.6816074
vt 0.7938079 0.689983
vt 0.7938079 0.689983
vt 0.8393931 0.6884442
vt 0.8400555 0.7080528
vt 0.7818987 0.7166292
vt 0.85947 0.6947667
vt 0.8592346 0.6877744
vt 0.8387316 0.6688356
vt 0.8589985 0.6807822
vt 0.8592346 0.6877744
vt 0.8393931 0.6884442
vt 0.8124458 0.6673896
vt 0.8387316 0.6688356
vt 0.8393931 0.6884442
vt 0.8085839 0.6816074
vt 0.7801287 0.6642005
vt 0.796622 0.6646919
vt 0.8085839 0.6816074
vt 0.7938079 0.689983
vt 0.8393931 0.6884442
vt 0.7938079 0.689983
vt 0.8085839 0.6816074
vt 0.7818987 0.7166292
vt 0.7938079 0.689983
vt 0.7938079 0.689983
vt 0.8085839 0.6816074
vt 0.8085839 0.6816074
vt 0.8124458 0.6673896
vt 0.796622 0.6646919
vt 0.8085839 0.6816074
vt 0.8085839 0.6816074
vt 0.7938079 0.689983
vt 0.7938079 0.689983
vt 0.7801287 0.6642005
vt 0.2928858 0.8477808
vt 0.472373 0.8731759
vt 0.2928858 0.8477808
vt 0.2928858 0.8477808
vt 0.472373 0.8731759
vt 0.295007 0.9106157
vt 0.295007 0.9106157
vt 0.472373 0.8731759
vt 0.295007 0.9106157
vt 0.295007 0.9106157
vt 0.472373 0.8731759
vt 0.2928858 0.8477808
vn 0.03458394 -0.9994018 0
vn 0.03458394 -0.9994018 0
vn 0.03458394 -0.9994018 0
vn 0.03458394 -0.9994018 0
vn -0.9994306 0.03373927 0
vn -0.9994306 0.03373927 0
vn -0.9994306 0.03373927 0
vn -0.9994306 0.03373927 0
vn 0.09293487 0.9956722 0
vn 0.09293487 0.9956722 0
vn 0.09293487 0.9956722 0
vn 0.09293487 0.9956722 0
vn 0.06375051 -0.002150758 0.9979635
vn 0.06375051 -0.002150758 0.9979635
vn 0.06375051 -0.002150758 0.9979635
vn 0.0637505 -0.002150758 0.9979635
vn 0.0637505 -0.002150758 -0.9979635
vn 0.06375051 -0.002150758 -0.9979635
vn 0.06375051 -0.002150758 -0.9979635
vn 0.06375051 -0.002150758 -0.9979635
vn -0.07889845 -0.9968827 0
vn -0.03419112 -0.9994153 0
vn -0.03419112 -0.9994153 0
vn -0.07889845 -0.9968827 0
vn -0.003786594 -0.9999928 0
vn -0.003786594 -0.9999928 0
vn -0.04481297 0.001513654 0.9989943
vn 0 0 1
vn 0 0 1
vn -0.04478963 0.001512866 0.9989952
vn 0.02993205 -0.001006455 0.9995514
vn 0.02993485 -0.001006549 0.9995514
vn 0.03419117 0.9994153 0
vn -0.01070189 0.9999428 0
vn -0.01070189 0.9999428 0
vn 0.03419117 0.9994153 0
vn 0.06365373 0.9979721 0
vn 0.06365373 0.9979721 0
vn -0.04478964 0.001514399 -0.9989952
vn 0 0 -1
vn 0 0 -1
vn -0.04481298 0.001515188 -0.9989943
vn 0.02993487 -0.0009995113 -0.9995514
vn 0.02993205 -0.000999417 -0.9995514
vn -0.02842893 -0.9976153 0.06289221
vn -0.02842894 -0.9976153 0.06289221
vn -0.02842894 -0.9976153 0.06289221
vn -0.02842893 -0.9976153 0.06289221
vn -0.02842893 -0.9976153 0.06289219
vn 0.0291038 -0.996825 0.07411508
vn 0.0291038 -0.996825 0.07411507
vn 0.0291038 -0.996825 0.07411507
vn 0.0291038 -0.996825 0.07411507
vn -0.0257252 -0.9981884 -0.05438789
vn -0.0257252 -0.9981884 -0.05438789
vn -0.0257252 -0.9981884 -0.0543879
vn -0.02876104 -0.9970697 -0.07088561
vn -0.02876104 -0.9970697 -0.0708856
vn -0.02876104 -0.9970697 -0.0708856
vn 0.02526519 -0.996928 -0.07413612
vn 0.02526519 -0.996928 -0.07413612
vn 0.02526519 -0.996928 -0.07413612
vn 0.02526519 -0.996928 -0.07413611
vn 0.04373983 0.9965119 0.07106995
vn 0.04373983 0.9965119 0.07106993
vn 0.04373983 0.9965119 0.07106995
vn 0.04373983 0.9965119 0.07106993
vn 0.08090474 0.9939594 0.07415546
vn 0.08090475 0.9939594 0.07415546
vn 0.08090475 0.9939594 0.07415547
vn 0.08090474 0.9939594 0.07415546
vn 0.04304944 0.9968802 -0.066156
vn 0.04304944 0.9968802 -0.066156
vn 0.04304944 0.9968802 -0.06615601
vn 0.04304944 0.9968802 -0.06615599
vn 0.04304944 0.9968802 -0.066156
vn 0.04304944 0.9968802 -0.066156
vn 0.0770729 0.9942626 -0.07417238
vn 0.07707291 0.9942626 -0.07417239
vn 0.0770729 0.9942626 -0.07417237
vn 0.0770729 0.9942626 -0.07417237
vn -0.8905918 0.02984219 -0.4538235
vn -0.8905917 0.02984219 -0.4538235
vn -0.8905917 0.02984219 -0.4538236
vn -0.8905849 0.02983416 0.4538374
vn -0.8905849 0.02983416 0.4538374
vn -0.8905849 0.02983416 0.4538374
vn -0.02921331 -0.9982942 -0.05054969
vn -0.0292133 -0.9982942 -0.05054969
vn -0.02921331 -0.9982942 -0.05054969
vn -0.0292133 -0.9982942 -0.05054969
vn 0.009256655 0.07099823 0.9974335
vn 0.009256656 0.07099824 0.9974335
vn 0.009256655 0.07099823 0.9974335
vn 0.009256655 0.07099823 0.9974335
vn 0.09676705 0.07069892 0.992793
vn 0.09676703 0.07069892 0.992793
vn 0.09676705 0.07069892 0.992793
vn 0.09676705 0.07069892 0.992793
vn 0.09313976 -0.07710011 0.9926634
vn 0.09313974 -0.07710011 0.9926634
vn 0.09313975 -0.07710011 0.9926634
vn 0.09313975 -0.07710011 0.9926634
vn 0.03952353 -0.1334502 0.9902671
vn 0.03952353 -0.1334502 0.9902671
vn 0.03952353 -0.1334502 0.9902671
vn 0.03952353 -0.1334502 0.9902671
vn -0.03688873 -0.0576956 0.9976525
vn -0.03688872 -0.0576956 0.9976525
vn -0.03688872 -0.05769559 0.9976525
vn -0.03688873 -0.0576956 0.9976525
vn 0 0 1
vn 0 0 1
vn 0 0 1
vn 0.009492964 0.07004865 -0.9974983
vn 0.009492965 0.07004865 -0.9974983
vn 0.009492966 0.07004865 -0.9974983
vn 0.009492965 0.07004865 -0.9974983
vn 0.0127353 0.07386151 -0.9971872
vn 0.01273529 0.07386151 -0.9971872
vn 0.009104785 -0.07459561 -0.9971723
vn 0.009104786 -0.07459561 -0.9971723
vn 0.009104786 -0.07459562 -0.9971723
vn 0.009104786 -0.07459562 -0.9971723
vn 0.03945699 -0.1313291 -0.9905533
vn 0.03945699 -0.131329 -0.9905533
vn 0.03945699 -0.1313291 -0.9905533
vn 0.03945699 -0.1313291 -0.9905533
vn -0.03578863 -0.05597343 -0.9977907
vn -0.03578863 -0.05597344 -0.9977907
vn -0.03578863 -0.05597343 -0.9977907
vn -0.03578863 -0.05597343 -0.9977907
vn 0 0 -1
vn 0 0 -1
vn 0 0 -1
vn -0.8919247 -0.4521839 0
vn -0.8919247 -0.4521839 0
vn -0.8919247 -0.4521839 0
vn -0.6066018 -0.7950058 0
vn -0.6066019 -0.7950058 0
vn -0.6066018 -0.7950058 0
vn 0.5903936 -0.8071155 0
vn 0.5903936 -0.8071155 0
vn 0.5903936 -0.8071155 0
vn -0.8619859 0.5069323 0
vn -0.8619859 0.5069323 0
vn -0.8619859 0.5069323 0
vn -0.003786594 -0.9999928 0
vn 0.1400921 -0.9901385 0
vn -0.003786594 -0.9999928 0
vn 0.02993205 -0.000999417 -0.9995514
vn 0.1733173 -0.00584277 -0.9848488
vn 0.02993487 -0.0009995113 -0.9995514
vn 0.06365373 0.9979721 0
vn 0.2065363 0.9784389 0
vn 0.06365373 0.9979721 0
vn 0.02993485 -0.001006549 0.9995514
vn 0.1733172 -0.005847838 0.9848487
vn 0.02993205 -0.001006455 0.9995514
g arrowSilver_0
f 3/3/3 2/2/2 1/1/1
f 4/4/4 3/3/3 1/1/1
f 7/7/7 6/6/6 5/5/5
f 8/8/8 7/7/7 5/5/5
f 11/11/11 10/10/10 9/9/9
f 12/12/12 11/11/11 9/9/9
f 15/15/15 14/14/14 13/13/13
f 16/16/16 15/15/15 13/13/13
f 19/19/19 18/18/18 17/17/17
f 20/20/20 19/19/19 17/17/17
f 23/23/23 22/22/22 21/21/21
f 24/24/24 23/23/23 21/21/21
f 21/21/21 25/25/25 24/24/24
f 25/25/25 26/26/26 24/24/24
f 29/29/29 28/28/28 27/27/27
f 30/30/30 29/29/29 27/27/27
f 27/27/27 31/31/31 30/30/30
f 31/31/31 32/32/32 30/30/30
f 35/35/35 34/34/34 33/33/33
f 36/36/36 35/35/35 33/33/33
f 35/35/35 37/37/37 34/34/34
f 37/37/37 38/38/38 34/34/34
f 41/41/41 40/40/40 39/39/39
f 42/42/42 41/41/41 39/39/39
f 39/39/39 43/43/43 42/42/42
f 43/43/43 44/44/44 42/42/42
f 47/47/47 46/46/46 45/45/45
f 45/45/45 48/48/48 47/47/47
f 45/45/45 49/49/49 48/48/48
f 52/52/52 51/51/51 50/50/50
f 53/53/53 52/52/52 50/50/50
f 56/56/56 55/55/55 54/54/54
f 58/58/58 57/57/57 55/55/55
f 59/59/59 58/58/58 55/55/55
f 62/62/62 61/61/61 60/60/60
f 63/63/63 62/62/62 60/60/60
f 66/66/66 65/65/65 64/64/64
f 67/67/67 66/66/66 64/64/64
f 70/70/70 69/69/69 68/68/68
f 71/71/71 70/70/70 68/68/68
f 74/74/74 73/73/73 72/72/72
f 72/72/72 75/75/75 74/74/74
f 72/72/72 76/76/76 75/75/75
f 72/72/72 77/77/77 76/76/76
f 80/80/80 79/79/79 78/78/78
f 81/81/81 80/80/80 78/78/78
f 84/84/84 83/83/83 82/82/82
f 87/87/87 86/86/86 85/85/85
f 90/90/90 89/89/89 88/88/88
f 91/91/91 90/90/90 88/88/88
f 94/94/94 93/93/93 92/92/92
f 95/95/95 94/94/94 92/92/92
f 98/98/98 97/97/97 96/96/96
f 99/99/99 98/98/98 96/96/96
f 102/102/102 101/101/101 100/100/100
f 103/103/103 102/102/102 100/100/100
f 106/106/106 105/105/105 104/104/104
f 107/107/107 106/106/106 104/104/104
f 110/110/110 109/109/109 108/108/108
f 111/111/111 110/110/110 108/108/108
f 114/114/114 113/113/113 112/112/112
f 117/117/117 116/116/116 115/115/115
f 118/118/118 117/117/117 115/115/115
f 117/117/117 119/119/119 116/116/116
f 119/119/119 120/120/120 116/116/116
f 123/123/123 122/122/122 121/121/121
f 124/124/124 123/123/123 121/121/121
f 127/127/127 126/126/126 125/125/125
f 128/128/128 127/127/127 125/125/125
f 131/131/131 130/130/130 129/129/129
f 132/132/132 131/131/131 129/129/129
f 135/135/135 134/134/134 133/133/133
f 138/138/138 137/137/137 136/136/136
f 141/141/141 140/140/140 139/139/139
f 144/144/144 143/143/143 142/142/142
f 147/147/147 146/146/146 145/145/145
f 150/150/150 149/149/149 148/148/148
f 153/153/153 152/152/152 151/151/151
f 156/156/156 155/155/155 154/154/154
f 159/159/159 158/158/158 157/157/157
