g bastardWood
v 0.02607384 -0.03256866 -0.4719816
v -0.2121857 -0.341366 0.254601
v 0.2576768 -0.1071118 -0.3356798
v -0.2121857 -0.341366 0.254601
v 0.003426437 -0.215415 0.4297348
v 0.2576768 -0.1071118 -0.3356798
v 0.2576768 -0.1071118 -0.3356798
v 0.003426437 -0.215415 0.4297348
v 0.3633188 0.07219788 -0.2116295
v 0.003426437 -0.215415 0.4297348
v 0.01092316 0.008272095 0.5062768
v 0.3633188 0.07219788 -0.2116295
v 0.3525388 0.2938173 -0.1523697
v 0.3633188 0.07219788 -0.2116295
v -0.0967955 0.1878091 0.4969589
v 0.3633188 0.07219788 -0.2116295
v 0.01092316 0.008272095 0.5062768
v -0.0967955 0.1878091 0.4969589
v 0.3525388 0.2938173 -0.1523697
v -0.0967955 0.1878091 0.4969589
v 0.1932494 0.4558823 -0.1966598
v -0.0967955 0.1878091 0.4969589
v -0.3140573 0.2523297 0.3840527
v 0.1932494 0.4558823 -0.1966598
v 0.02743896 0.4845369 -0.3004353
v 0.1932494 0.4558823 -0.1966598
v -0.4850234 0.2171991 0.2670816
v 0.1932494 0.4558823 -0.1966598
v -0.3140573 0.2523297 0.3840527
v -0.4850234 0.2171991 0.2670816
v 0.02743896 0.4845369 -0.3004353
v -0.4850234 0.2171991 0.2670816
v -0.09444229 0.3572853 -0.4172697
v -0.4850234 0.2171991 0.2670816
v -0.5271243 -0.05045593 0.1544432
v -0.09444229 0.3572853 -0.4172697
v -0.09444229 0.3572853 -0.4172697
v -0.5271243 -0.05045593 0.1544432
v -0.08875404 0.09846939 -0.4862654
v -0.5271243 -0.05045593 0.1544432
v -0.3987531 -0.2524826 0.1695908
v -0.08875404 0.09846939 -0.4862654
v 0.02607384 -0.03256866 -0.4719816
v -0.08875404 0.09846939 -0.4862654
v -0.2121857 -0.341366 0.254601
v -0.08875404 0.09846939 -0.4862654
v -0.3987531 -0.2524826 0.1695908
v -0.2121857 -0.341366 0.254601
v -0.4495852 -0.03654175 0.1792688
v -0.4183535 0.1498007 0.2592929
v -0.2362444 0.01559265 0.3295663
v -0.3027115 0.1884186 0.3430185
v -0.1194277 0.1339856 0.4382992
v -0.04128059 0.003775635 0.4450738
v -0.04678329 -0.1610217 0.3887393
v -0.3509581 -0.1920108 0.1909993
v -0.2125262 -0.257764 0.253817
v 0.2906207 0.2674788 -0.1762121
v 0.1654049 0.3940575 -0.2100363
v 0.1228105 0.1887054 -0.3060876
v 0.2987404 0.0916098 -0.2225198
v 0.1228105 0.1887054 -0.3060876
v 0.2189194 -0.04373718 -0.3159396
v 0.03951561 0.01490875 -0.4238846
v 0.1654049 0.3940575 -0.2100363
v 0.04131866 0.4159741 -0.2892329
v 0.1228105 0.1887054 -0.3060876
v -0.05046974 0.3202572 -0.3766809
v -0.04668358 0.1100723 -0.4313164
v -0.4850234 0.2171991 0.2670816
v -0.4430479 0.1611368 0.2755493
v -0.476909 -0.04448059 0.1877634
v -0.5271243 -0.05045593 0.1544432
v -0.3140573 0.2523297 0.3840527
v -0.3142648 0.1989981 0.3671884
v -0.0967955 0.1878091 0.4969589
v -0.122934 0.1421683 0.466644
v 0.01092316 0.008272095 0.5062768
v -0.03778007 0.0002365112 0.4740134
v 0.003426437 -0.215415 0.4297348
v -0.04378746 -0.1785879 0.4128488
v -0.3711668 -0.2110068 0.2003328
v -0.3987531 -0.2524826 0.1695908
v -0.2213132 -0.2822958 0.2684027
v -0.2121857 -0.341366 0.254601
v 0.02607384 -0.03256866 -0.4719816
v 0.0441819 0.007603759 -0.4475078
v -0.0487894 0.1112518 -0.4565588
v -0.08875404 0.09846939 -0.4862654
v -0.08875404 0.09846939 -0.4862654
v -0.0487894 0.1112518 -0.4565588
v -0.05302593 0.332939 -0.3985261
v -0.09444229 0.3572853 -0.4172697
v 0.04588066 0.4361148 -0.3041284
v 0.02743896 0.4845369 -0.3004353
v 0.1798363 0.4126048 -0.2191199
v 0.1932494 0.4558823 -0.1966598
v 0.1932494 0.4558823 -0.1966598
v 0.1798363 0.4126048 -0.2191199
v 0.313112 0.2776335 -0.1828215
v 0.3525388 0.2938173 -0.1523697
v 0.3218616 0.0909433 -0.2321934
v 0.3633188 0.07219788 -0.2116295
v 0.235933 -0.05480164 -0.3328575
v 0.2576768 -0.1071118 -0.3356798
v 0.0441819 0.007603759 -0.4475078
v 0.02607384 -0.03256866 -0.4719816
v -0.4430479 0.1611368 0.2755493
v -0.4183535 0.1498007 0.2592929
v -0.4495852 -0.03654175 0.1792688
v -0.476909 -0.04448059 0.1877634
v -0.04378746 -0.1785879 0.4128488
v -0.04678329 -0.1610217 0.3887393
v -0.04128059 0.003775635 0.4450738
v -0.03778007 0.0002365112 0.4740134
v -0.03778007 0.0002365112 0.4740134
v -0.04128059 0.003775635 0.4450738
v -0.1194277 0.1339856 0.4382992
v -0.122934 0.1421683 0.466644
v -0.122934 0.1421683 0.466644
v -0.1194277 0.1339856 0.4382992
v -0.3027115 0.1884186 0.3430185
v -0.3142648 0.1989981 0.3671884
v -0.3142648 0.1989981 0.3671884
v -0.3027115 0.1884186 0.3430185
v -0.4183535 0.1498007 0.2592929
v -0.4430479 0.1611368 0.2755493
v -0.476909 -0.04448059 0.1877634
v -0.4495852 -0.03654175 0.1792688
v -0.3509581 -0.1920108 0.1909993
v -0.3711668 -0.2110068 0.2003328
v -0.3711668 -0.2110068 0.2003328
v -0.3509581 -0.1920108 0.1909993
v -0.2125262 -0.257764 0.253817
v -0.2213132 -0.2822958 0.2684027
v -0.2213132 -0.2822958 0.2684027
v -0.2125262 -0.257764 0.253817
v -0.04678329 -0.1610217 0.3887393
v -0.04378746 -0.1785879 0.4128488
v 0.0441819 0.007603759 -0.4475078
v 0.03951561 0.01490875 -0.4238846
v -0.04668358 0.1100723 -0.4313164
v -0.0487894 0.1112518 -0.4565588
v -0.0487894 0.1112518 -0.4565588
v -0.04668358 0.1100723 -0.4313164
v -0.05046974 0.3202572 -0.3766809
v -0.05302593 0.332939 -0.3985261
v -0.05302593 0.332939 -0.3985261
v -0.05046974 0.3202572 -0.3766809
v 0.04131866 0.4159741 -0.2892329
v 0.04588066 0.4361148 -0.3041284
v 0.04588066 0.4361148 -0.3041284
v 0.04131866 0.4159741 -0.2892329
v 0.1654049 0.3940575 -0.2100363
v 0.1798363 0.4126048 -0.2191199
v 0.1798363 0.4126048 -0.2191199
v 0.1654049 0.3940575 -0.2100363
v 0.2906207 0.2674788 -0.1762121
v 0.313112 0.2776335 -0.1828215
v 0.313112 0.2776335 -0.1828215
v 0.2906207 0.2674788 -0.1762121
v 0.2987404 0.0916098 -0.2225198
v 0.3218616 0.0909433 -0.2321934
v 0.3218616 0.0909433 -0.2321934
v 0.2987404 0.0916098 -0.2225198
v 0.2189194 -0.04373718 -0.3159396
v 0.235933 -0.05480164 -0.3328575
v 0.235933 -0.05480164 -0.3328575
v 0.2189194 -0.04373718 -0.3159396
v 0.03951561 0.01490875 -0.4238846
v 0.0441819 0.007603759 -0.4475078
v 0.03951561 0.01490875 -0.4238846
v 0.1228105 0.1887054 -0.3060876
v -0.04668358 0.1100723 -0.4313164
vt 0.05611047 0.5237539
vt 0.0743224 0.521803
vt 0.08378154 0.5210248
vt 0.0743224 0.521803
vt 0.09570605 0.536804
vt 0.08378154 0.5210248
vt 0.08378154 0.5210248
vt 0.09570605 0.536804
vt 0.09593731 0.5419421
vt 0.09570605 0.536804
vt 0.09631819 0.5570521
vt 0.09593731 0.5419421
vt 0.09428358 0.5648071
vt 0.09593731 0.5419421
vt 0.08550149 0.5713745
vt 0.09593731 0.5419421
vt 0.09631819 0.5570521
vt 0.08550149 0.5713745
vt 0.09428358 0.5648071
vt 0.08550149 0.5713745
vt 0.07583565 0.5787397
vt 0.08550149 0.5713745
vt 0.06392413 0.573534
vt 0.07583565 0.5787397
vt 0.0561257 0.5781567
vt 0.07583565 0.5787397
vt 0.04684666 0.5716251
vt 0.07583565 0.5787397
vt 0.06392413 0.573534
vt 0.04684666 0.5716251
vt 0.0561257 0.5781567
vt 0.04684666 0.5716251
vt 0.04207939 0.5623964
vt 0.04684666 0.5716251
vt 0.0429301 0.5426903
vt 0.04207939 0.5623964
vt 0.04207939 0.5623964
vt 0.0429301 0.5426903
vt 0.04342544 0.5356988
vt 0.0429301 0.5426903
vt 0.05582204 0.5267007
vt 0.04342544 0.5356988
vt 0.05611047 0.5237539
vt 0.04342544 0.5356988
vt 0.0743224 0.521803
vt 0.04342544 0.5356988
vt 0.05582204 0.5267007
vt 0.0743224 0.521803
vt 0.01244047 0.296672
vt 0.02035161 0.3419669
vt 0.0679478 0.3184694
vt 0.05030873 0.3561446
vt 0.09794098 0.3513796
vt 0.1184739 0.3242013
vt 0.1173038 0.2851731
vt 0.03837606 0.264481
vt 0.07425904 0.2549961
vt 0.1137964 0.3412635
vt 0.07600969 0.3697991
vt 0.0630182 0.3109486
vt 0.1172217 0.2938451
vt 0.0630182 0.3109486
vt 0.09322238 0.2525503
vt 0.03680509 0.2581117
vt 0.07600969 0.3697991
vt 0.03720379 0.3686484
vt 0.0630182 0.3109486
vt 0.009587625 0.3376656
vt 0.0124339 0.2810498
vt 0.04684666 0.5716251
vt 0.05106854 0.5673042
vt 0.04792574 0.5440838
vt 0.0429301 0.5426903
vt 0.06392413 0.573534
vt 0.0639517 0.5687441
vt 0.08550149 0.5713745
vt 0.08295488 0.5668423
vt 0.09631819 0.5570521
vt 0.09150589 0.5555198
vt 0.09570605 0.536804
vt 0.09101653 0.5393333
vt 0.05855045 0.5309063
vt 0.05582204 0.5267007
vt 0.07340008 0.526975
vt 0.0743224 0.521803
vt 0.05611047 0.5237539
vt 0.05819604 0.5283347
vt 0.04808453 0.537853
vt 0.04342544 0.5356988
vt 0.04342544 0.5356988
vt 0.04808453 0.537853
vt 0.04693568 0.5606873
vt 0.04207939 0.5623964
vt 0.05831596 0.5734553
vt 0.0561257 0.5781567
vt 0.07430089 0.573929
vt 0.07583565 0.5787397
vt 0.07583565 0.5787397
vt 0.07430089 0.573929
vt 0.08968985 0.5623073
vt 0.09428358 0.5648071
vt 0.09108049 0.5430633
vt 0.09593731 0.5419421
vt 0.08120269 0.5260665
vt 0.08378154 0.5210248
vt 0.05819604 0.5283347
vt 0.05611047 0.5237539
vt 0.05106854 0.5673042
vt 0.05238661 0.5659493
vt 0.04949099 0.5445055
vt 0.04792574 0.5440838
vt 0.09101653 0.5393333
vt 0.08956784 0.5401108
vt 0.09001499 0.5550267
vt 0.09150589 0.5555198
vt 0.09150589 0.5555198
vt 0.09001499 0.5550267
vt 0.08216769 0.5654138
vt 0.08295488 0.5668423
vt 0.08295488 0.5668423
vt 0.08216769 0.5654138
vt 0.06396356 0.5672348
vt 0.0639517 0.5687441
vt 0.0639517 0.5687441
vt 0.06396356 0.5672348
vt 0.05238661 0.5659493
vt 0.05106854 0.5673042
vt 0.04792574 0.5440838
vt 0.04949099 0.5445055
vt 0.05940309 0.5322027
vt 0.05855045 0.5309063
vt 0.05855045 0.5309063
vt 0.05940309 0.5322027
vt 0.0731169 0.5285777
vt 0.07340008 0.526975
vt 0.07340008 0.526975
vt 0.0731169 0.5285777
vt 0.08956784 0.5401108
vt 0.09101653 0.5393333
vt 0.05819604 0.5283347
vt 0.05880269 0.5297685
vt 0.04948848 0.5385349
vt 0.04808453 0.537853
vt 0.04808453 0.537853
vt 0.04948848 0.5385349
vt 0.0484007 0.5601724
vt 0.04693568 0.5606873
vt 0.04693568 0.5606873
vt 0.0484007 0.5601724
vt 0.05895507 0.5720135
vt 0.05831596 0.5734553
vt 0.05831596 0.5734553
vt 0.05895507 0.5720135
vt 0.07378602 0.5724533
vt 0.07430089 0.573929
vt 0.07430089 0.573929
vt 0.07378602 0.5724533
vt 0.08822733 0.5615475
vt 0.08968985 0.5623073
vt 0.08968985 0.5623073
vt 0.08822733 0.5615475
vt 0.08953643 0.5434252
vt 0.09108049 0.5430633
vt 0.09108049 0.5430633
vt 0.08953643 0.5434252
vt 0.08036435 0.527643
vt 0.08120269 0.5260665
vt 0.08120269 0.5260665
vt 0.08036435 0.527643
vt 0.05880269 0.5297685
vt 0.05819604 0.5283347
vt 0.03680509 0.2581117
vt 0.0630182 0.3109486
vt 0.0124339 0.2810498
vn -0.05486263 -0.9123424 -0.4057356
vn -0.05486263 -0.9123424 -0.4057356
vn -0.05486264 -0.9123424 -0.4057356
vn 0.4819679 -0.8754398 0.03622551
vn 0.4819679 -0.8754398 0.03622551
vn 0.4819678 -0.8754398 0.03622551
vn 0.7886518 -0.5882894 0.1787285
vn 0.7886517 -0.5882896 0.1787285
vn 0.7886517 -0.5882896 0.1787285
vn 0.8900273 -0.1740208 0.4213883
vn 0.8900273 -0.1740208 0.4213883
vn 0.8900273 -0.1740208 0.4213883
vn 0.8256662 -0.107906 0.5537432
vn 0.8256662 -0.107906 0.5537432
vn 0.8256663 -0.107906 0.5537431
vn 0.768357 0.4828046 0.4201514
vn 0.768357 0.4828046 0.4201514
vn 0.768357 0.4828046 0.4201514
vn 0.5503997 0.6751859 0.4911052
vn 0.5503997 0.6751859 0.4911052
vn 0.5503997 0.6751859 0.4911051
vn 0.07262412 0.9197101 0.3858226
vn 0.07262413 0.91971 0.3858226
vn 0.07262414 0.91971 0.3858226
vn -0.07217265 0.92584 0.3709602
vn -0.07217265 0.92584 0.3709602
vn -0.07217265 0.92584 0.3709602
vn -0.2670666 0.9582045 0.1025642
vn -0.2670666 0.9582045 0.1025642
vn -0.2670666 0.9582045 0.1025642
vn -0.6136684 0.7654739 -0.1935483
vn -0.6136684 0.7654738 -0.1935483
vn -0.6136684 0.7654739 -0.1935482
vn -0.8513302 0.3115477 -0.4221077
vn -0.8513302 0.3115477 -0.4221077
vn -0.8513302 0.3115477 -0.4221077
vn -0.8321412 0.1257002 -0.5401301
vn -0.8321412 0.1257002 -0.5401301
vn -0.8321411 0.1257002 -0.5401301
vn -0.6733942 -0.4706331 -0.5701269
vn -0.6733942 -0.4706332 -0.5701269
vn -0.6733942 -0.4706332 -0.570127
vn -0.638371 -0.6105018 -0.4687963
vn -0.638371 -0.6105018 -0.4687964
vn -0.6383709 -0.6105018 -0.4687964
vn -0.1601505 -0.8368419 -0.5234956
vn -0.1601505 -0.8368418 -0.5234955
vn -0.1601505 -0.8368418 -0.5234955
vn -0.5110803 -0.2654242 0.817525
vn -0.5110803 -0.2654242 0.817525
vn -0.5110803 -0.2654242 0.817525
vn -0.5048801 -0.258281 0.8236426
vn -0.5038459 -0.259524 0.8238851
vn -0.5033885 -0.2643951 0.8226148
vn -0.5033885 -0.2643951 0.8226149
vn -0.5118694 -0.263016 0.8178095
vn -0.5015863 -0.2711681 0.8215103
vn 0.5026398 0.2785376 -0.8183948
vn 0.5026398 0.2785376 -0.8183948
vn 0.5026399 0.2785376 -0.8183948
vn 0.5213276 0.2397173 -0.8189952
vn 0.5517817 0.2567001 -0.7934998
vn 0.5250367 0.2515498 -0.8130555
vn 0.559211 0.2645202 -0.7856922
vn 0.5517817 0.2567001 -0.7934998
vn 0.5206515 0.2472933 -0.8171707
vn 0.5092835 0.2250908 -0.830641
vn 0.5092835 0.2250908 -0.830641
vn 0.5092835 0.2250908 -0.830641
vn -0.5133516 -0.2634792 0.8167305
vn -0.5133516 -0.2634792 0.8167305
vn -0.5133516 -0.2634793 0.8167306
vn -0.5133516 -0.2634793 0.8167306
vn -0.5048089 -0.2582676 0.8236904
vn -0.5048089 -0.2582676 0.8236904
vn -0.5033354 -0.2591985 0.8242995
vn -0.5033354 -0.2591985 0.8242995
vn -0.5015363 -0.2649329 0.8235726
vn -0.5015363 -0.2649329 0.8235726
vn -0.5015364 -0.2649329 0.8235726
vn -0.5015363 -0.2649329 0.8235726
vn -0.5121223 -0.2638406 0.8173854
vn -0.5121222 -0.2638406 0.8173854
vn -0.502669 -0.271343 0.8207905
vn -0.502669 -0.271343 0.8207905
vn 0.4651686 0.3302115 -0.8213273
vn 0.4651686 0.3302115 -0.8213273
vn 0.4651687 0.3302115 -0.8213273
vn 0.4651687 0.3302115 -0.8213273
vn 0.521796 0.2280892 -0.8220122
vn 0.521796 0.2280892 -0.8220122
vn 0.521796 0.2280892 -0.8220122
vn 0.521796 0.2280892 -0.8220122
vn 0.5159222 0.255262 -0.8177198
vn 0.5159223 0.255262 -0.8177197
vn 0.5466217 0.2572505 -0.7968857
vn 0.5466217 0.2572505 -0.7968857
vn 0.5061791 0.2769701 -0.8167437
vn 0.5061791 0.2769701 -0.8167437
vn 0.5061791 0.2769701 -0.8167437
vn 0.5061791 0.2769701 -0.8167437
vn 0.5230471 0.2424099 -0.8171041
vn 0.5230471 0.2424099 -0.8171041
vn 0.5187005 0.2578298 -0.8151525
vn 0.5187005 0.2578298 -0.8151526
vn 0.5528451 0.2558021 -0.7930496
vn 0.5528451 0.2558021 -0.7930496
vn 0.3681853 -0.416933 0.8310274
vn 0.3681853 -0.416933 0.8310274
vn 0.3681853 -0.416933 0.8310274
vn 0.3681853 -0.416933 0.8310274
vn -0.9929059 -0.007322269 0.1186777
vn -0.9929059 -0.007322269 0.1186777
vn -0.9929059 -0.007322269 0.1186777
vn -0.9929059 -0.007322269 0.1186777
vn -0.8576827 -0.5125053 0.04145768
vn -0.8576827 -0.5125053 0.04145769
vn -0.8576827 -0.5125053 0.04145769
vn -0.8576827 -0.5125052 0.04145769
vn -0.3784006 -0.9007319 0.2132957
vn -0.3784006 -0.9007319 0.2132957
vn -0.3784007 -0.9007319 0.2132957
vn -0.3784006 -0.9007319 0.2132957
vn -0.04134648 -0.8934415 0.4472727
vn -0.04134648 -0.8934414 0.4472727
vn -0.04134647 -0.8934414 0.4472727
vn -0.04134648 -0.8934415 0.4472726
vn 0.2316761 0.2185803 0.9479181
vn 0.2316762 0.2185803 0.9479182
vn 0.2316762 0.2185803 0.9479182
vn 0.2316762 0.2185803 0.9479182
vn -0.1220188 0.5391912 0.8332972
vn -0.1220188 0.5391912 0.8332972
vn -0.1220188 0.5391912 0.8332972
vn -0.1220188 0.5391912 0.8332972
vn -0.6990187 0.5336743 0.4759881
vn -0.6990187 0.5336743 0.4759881
vn -0.6990187 0.5336742 0.4759881
vn -0.6990187 0.5336743 0.4759881
vn 0.7439449 0.666751 -0.04459843
vn 0.7439449 0.666751 -0.04459843
vn 0.7439449 0.666751 -0.04459842
vn 0.7439449 0.666751 -0.04459842
vn 0.9954085 0.04104954 -0.08646878
vn 0.9954085 0.04104954 -0.08646878
vn 0.9954085 0.04104954 -0.08646877
vn 0.9954085 0.04104953 -0.08646876
vn 0.8156549 -0.4528601 -0.3600345
vn 0.8156549 -0.4528601 -0.3600345
vn 0.8156549 -0.4528601 -0.3600345
vn 0.8156549 -0.4528601 -0.3600345
vn 0.3456038 -0.6110641 -0.7121507
vn 0.3456038 -0.6110641 -0.7121507
vn 0.3456038 -0.6110641 -0.7121508
vn 0.3456038 -0.6110641 -0.7121508
vn -0.1134206 -0.3603327 -0.9259029
vn -0.1134206 -0.3603327 -0.9259029
vn -0.1134206 -0.3603327 -0.9259029
vn -0.1134206 -0.3603327 -0.9259029
vn -0.3683601 0.2211616 -0.9029942
vn -0.3683601 0.2211616 -0.9029942
vn -0.3683601 0.2211616 -0.9029942
vn -0.3683602 0.2211616 -0.9029942
vn -0.277556 0.6512976 -0.7062393
vn -0.277556 0.6512976 -0.7062393
vn -0.277556 0.6512976 -0.7062393
vn -0.277556 0.6512975 -0.7062394
vn 0.404996 0.8946173 -0.1887804
vn 0.404996 0.8946173 -0.1887804
vn 0.4049961 0.8946174 -0.1887804
vn 0.404996 0.8946173 -0.1887804
vn 0.4499506 0.3431774 -0.8244839
vn 0.4499506 0.3431774 -0.8244839
vn 0.4499506 0.3431774 -0.8244839
g bastardWood_0
f 3/3/3 2/2/2 1/1/1
f 6/6/6 5/5/5 4/4/4
f 9/9/9 8/8/8 7/7/7
f 12/12/12 11/11/11 10/10/10
f 15/15/15 14/14/14 13/13/13
f 18/18/18 17/17/17 16/16/16
f 21/21/21 20/20/20 19/19/19
f 24/24/24 23/23/23 22/22/22
f 27/27/27 26/26/26 25/25/25
f 30/30/30 29/29/29 28/28/28
f 33/33/33 32/32/32 31/31/31
f 36/36/36 35/35/35 34/34/34
f 39/39/39 38/38/38 37/37/37
f 42/42/42 41/41/41 40/40/40
f 45/45/45 44/44/44 43/43/43
f 48/48/48 47/47/47 46/46/46
f 51/51/51 50/50/50 49/49/49
f 52/52/52 50/50/50 51/51/51
f 53/53/53 52/52/52 51/51/51
f 54/54/54 53/53/53 51/51/51
f 54/54/54 51/51/51 55/55/55
f 51/51/51 49/49/49 56/56/56
f 51/51/51 56/56/56 57/57/57
f 51/51/51 57/57/57 55/55/55
f 60/60/60 59/59/59 58/58/58
f 62/62/62 58/58/58 61/61/61
f 62/62/62 61/61/61 63/63/63
f 62/62/62 63/63/63 64/64/64
f 66/66/66 65/65/65 62/62/62
f 68/68/68 66/66/66 67/67/67
f 69/69/69 68/68/68 67/67/67
f 72/72/72 71/71/71 70/70/70
f 73/73/73 72/72/72 70/70/70
f 70/70/70 71/71/71 74/74/74
f 71/71/71 75/75/75 74/74/74
f 74/74/74 75/75/75 76/76/76
f 75/75/75 77/77/77 76/76/76
f 76/76/76 77/77/77 78/78/78
f 77/77/77 79/79/79 78/78/78
f 78/78/78 79/79/79 80/80/80
f 79/79/79 81/81/81 80/80/80
f 82/82/82 72/72/72 73/73/73
f 83/83/83 82/82/82 73/73/73
f 84/84/84 82/82/82 83/83/83
f 85/85/85 84/84/84 83/83/83
f 81/81/81 84/84/84 85/85/85
f 80/80/80 81/81/81 85/85/85
f 88/88/88 87/87/87 86/86/86
f 89/89/89 88/88/88 86/86/86
f 92/92/92 91/91/91 90/90/90
f 93/93/93 92/92/92 90/90/90
f 94/94/94 92/92/92 93/93/93
f 95/95/95 94/94/94 93/93/93
f 96/96/96 94/94/94 95/95/95
f 97/97/97 96/96/96 95/95/95
f 100/100/100 99/99/99 98/98/98
f 101/101/101 100/100/100 98/98/98
f 102/102/102 100/100/100 101/101/101
f 103/103/103 102/102/102 101/101/101
f 104/104/104 102/102/102 103/103/103
f 105/105/105 104/104/104 103/103/103
f 106/106/106 104/104/104 105/105/105
f 107/107/107 106/106/106 105/105/105
f 110/110/110 109/109/109 108/108/108
f 111/111/111 110/110/110 108/108/108
f 114/114/114 113/113/113 112/112/112
f 115/115/115 114/114/114 112/112/112
f 118/118/118 117/117/117 116/116/116
f 119/119/119 118/118/118 116/116/116
f 122/122/122 121/121/121 120/120/120
f 123/123/123 122/122/122 120/120/120
f 126/126/126 125/125/125 124/124/124
f 127/127/127 126/126/126 124/124/124
f 130/130/130 129/129/129 128/128/128
f 131/131/131 130/130/130 128/128/128
f 134/134/134 133/133/133 132/132/132
f 135/135/135 134/134/134 132/132/132
f 138/138/138 137/137/137 136/136/136
f 139/139/139 138/138/138 136/136/136
f 142/142/142 141/141/141 140/140/140
f 143/143/143 142/142/142 140/140/140
f 146/146/146 145/145/145 144/144/144
f 147/147/147 146/146/146 144/144/144
f 150/150/150 149/149/149 148/148/148
f 151/151/151 150/150/150 148/148/148
f 154/154/154 153/153/153 152/152/152
f 155/155/155 154/154/154 152/152/152
f 158/158/158 157/157/157 156/156/156
f 159/159/159 158/158/158 156/156/156
f 162/162/162 161/161/161 160/160/160
f 163/163/163 162/162/162 160/160/160
f 166/166/166 165/165/165 164/164/164
f 167/167/167 166/166/166 164/164/164
f 170/170/170 169/169/169 168/168/168
f 171/171/171 170/170/170 168/168/168
f 174/174/174 173/173/173 172/172/172
