g beastmanStaff_break03
v -0.05074951 0.07886755 -0.03286764
v -0.04591553 0.1571292 -0.03266853
v -0.05074951 0.07880595 0.03611592
v -0.04591553 0.1570728 0.03614747
v -0.01985107 0.1570682 0.04183408
v -0.02461182 0.07880076 0.04181649
v -0.04591553 0.1570728 0.03614747
v -0.05074951 0.07880595 0.03611592
v 0.007651368 0.07886755 -0.03286764
v 0.007651368 0.07880595 0.03611592
v 0.01232422 0.1571292 -0.03266853
v 0.01232422 0.1570728 0.03614747
v -0.05074951 0.07886755 -0.03286764
v -0.02461182 0.07887263 -0.03856822
v -0.04591553 0.1571292 -0.03266853
v -0.01985107 0.1571339 -0.03835515
v -0.04107178 -0.1718996 -0.03915744
v -0.01212402 -0.1718939 -0.0456498
v -0.04615967 -0.3138817 -0.04852076
v -0.04107178 -0.1718996 -0.03915744
v -0.04615967 -0.3139428 0.04848566
v -0.04107178 -0.1719678 0.03940904
v -0.01627441 -0.2947417 0.05651943
v -0.04615967 -0.3139428 0.04848566
v -0.01212402 -0.1719735 0.04590141
v -0.04107178 -0.1719678 0.03940904
v 0.02308838 -0.3181754 -0.03258034
v 0.02308838 -0.3182365 0.03260952
v 0.02361328 -0.1718996 -0.03915744
v 0.02361328 -0.1719678 0.03940904
v -0.04107178 -0.1718996 -0.03915744
v -0.04615967 -0.3138817 -0.04852076
v -0.01212402 -0.1718939 -0.0456498
v -0.01627441 -0.2946705 -0.05651943
v -0.05118408 0.1686953 -0.03583672
v -0.05073975 0.4344732 -0.03248265
v -0.05118408 0.1686339 0.03931569
v -0.05073975 0.4623016 0.03607103
v -0.02005127 0.1686705 0.0482091
v -0.05118408 0.1686339 0.03931569
v -0.02118897 0.4338194 0.04924921
v -0.05073975 0.4623016 0.03607103
v 0.01739502 0.168716 -0.03587529
v 0.01739502 0.1686544 0.03935425
v 0.02354248 0.4328883 -0.03630929
v 0.02351318 0.4606894 0.04195452
v -0.05118408 0.1686953 -0.03583672
v -0.02005127 0.1687465 -0.0447301
v -0.05073975 0.4344732 -0.03248265
v -0.02114502 0.4617745 -0.04360315
v -0.04107178 -0.1718996 -0.03915744
v -0.05074951 0.07886755 -0.03286764
v -0.04107178 -0.1719678 0.03940904
v -0.05074951 0.07880595 0.03611592
v -0.01212402 -0.1719735 0.04590141
v -0.04107178 -0.1719678 0.03940904
v -0.02461182 0.07880076 0.04181649
v -0.05074951 0.07880595 0.03611592
v 0.02361328 -0.1718996 -0.03915744
v 0.02361328 -0.1719678 0.03940904
v 0.007651368 0.07886755 -0.03286764
v 0.007651368 0.07880595 0.03611592
v -0.02114502 0.4617745 -0.04360315
v -0.02005127 0.1687465 -0.0447301
v 0.02354248 0.4328883 -0.03630929
v 0.01739502 0.168716 -0.03587529
v -0.02461182 0.07887263 -0.03856822
v 0.007651368 0.07886755 -0.03286764
v -0.01985107 0.1571339 -0.03835515
v 0.01232422 0.1571292 -0.03266853
v -0.02461182 0.07887263 -0.03856822
v -0.01212402 -0.1718939 -0.0456498
v 0.007651368 0.07886755 -0.03286764
v 0.02361328 -0.1718996 -0.03915744
v -0.01212402 -0.1718939 -0.0456498
v -0.01627441 -0.2946705 -0.05651943
v 0.02361328 -0.1718996 -0.03915744
v 0.02308838 -0.3181754 -0.03258034
v 0.02308838 -0.3182365 0.03260952
v -0.01627441 -0.2947417 0.05651943
v 0.02361328 -0.1719678 0.03940904
v -0.01212402 -0.1719735 0.04590141
v 0.02361328 -0.1719678 0.03940904
v -0.01212402 -0.1719735 0.04590141
v 0.007651368 0.07880595 0.03611592
v -0.02461182 0.07880076 0.04181649
v -0.01985107 0.1570682 0.04183408
v 0.01232422 0.1570728 0.03614747
v 0.02351318 0.4606894 0.04195452
v 0.01739502 0.1686544 0.03935425
v -0.02118897 0.4338194 0.04924921
v -0.02005127 0.1686705 0.0482091
v -0.04591553 0.1571292 -0.03266853
v -0.05118408 0.1686953 -0.03583672
v -0.04591553 0.1570728 0.03614747
v -0.05118408 0.1686339 0.03931569
v -0.02005127 0.1686705 0.0482091
v -0.01985107 0.1570682 0.04183408
v -0.02005127 0.1687465 -0.0447301
v -0.01985107 0.1571339 -0.03835515
v 0.01232422 0.1571292 -0.03266853
v 0.01739502 0.168716 -0.03587529
v 0.01739502 0.1686544 0.03935425
v 0.01232422 0.1570728 0.03614747
v -0.01985107 0.1570682 0.04183408
v -0.02005127 0.1686705 0.0482091
v 0.01232422 0.1570728 0.03614747
v 0.01739502 0.1686544 0.03935425
v 0.02354248 0.4328883 -0.03630929
v 0.02351318 0.4606894 0.04195452
v -0.02114502 0.4617745 -0.04360315
v 0.02351318 0.4606894 0.04195452
v -0.02118897 0.4338194 0.04924921
v -0.02114502 0.4617745 -0.04360315
v -0.02118897 0.4338194 0.04924921
v -0.05073975 0.4623016 0.03607103
v -0.02114502 0.4617745 -0.04360315
v -0.02114502 0.4617745 -0.04360315
v -0.05073975 0.4623016 0.03607103
v -0.05073975 0.4344732 -0.03248265
v -0.04615967 -0.3139428 0.04848566
v -0.01627441 -0.2947417 0.05651943
v -0.04615967 -0.3138817 -0.04852076
v -0.01627441 -0.2947417 0.05651943
v 0.02308838 -0.3182365 0.03260952
v -0.04615967 -0.3138817 -0.04852076
v -0.04615967 -0.3138817 -0.04852076
v 0.02308838 -0.3182365 0.03260952
v -0.01627441 -0.2946705 -0.05651943
v -0.01627441 -0.2946705 -0.05651943
v 0.02308838 -0.3182365 0.03260952
v 0.02308838 -0.3181754 -0.03258034
vt 0.4329739 0.6708132
vt 0.4335591 0.6799201
vt 0.4311777 0.6702378
vt 0.431918 0.6793945
vt 0.4353566 0.6793296
vt 0.4346133 0.6701688
vt 0.431918 0.6793945
vt 0.4311777 0.6702378
vt 0.4409826 0.6707651
vt 0.4391863 0.6701897
vt 0.4415458 0.6798722
vt 0.4399047 0.6793464
vt 0.4329739 0.6708132
vt 0.4367064 0.6708392
vt 0.4335591 0.6799201
vt 0.437269 0.6799421
vt 0.4343976 0.6628265
vt 0.4385318 0.6628554
vt 0.4348443 0.6549672
vt 0.4343976 0.6628265
vt 0.4330645 0.6543971
vt 0.432408 0.6621893
vt 0.4380465 0.6556507
vt 0.4330645 0.6543971
vt 0.4362135 0.6621128
vt 0.432408 0.6621893
vt 0.4463052 0.6578735
vt 0.4445255 0.6573035
vt 0.4432682 0.6627733
vt 0.4412786 0.662136
vt 0.4343976 0.6628265
vt 0.4348443 0.6549672
vt 0.4385318 0.6628554
vt 0.4401204 0.6563149
vt 0.04701126 0.6469931
vt 0.04701956 0.6892359
vt 0.04325712 0.6460115
vt 0.04359508 0.6883405
vt 0.05487395 0.6458799
vt 0.04325712 0.6460115
vt 0.05438382 0.6879091
vt 0.04359508 0.6883405
vt 0.0735798 0.64693
vt 0.0698218 0.6459474
vt 0.07598517 0.6885901
vt 0.07206456 0.6875604
vt 0.04701126 0.6469931
vt 0.05951659 0.6470938
vt 0.04701956 0.6892359
vt 0.05903936 0.6891196
vt 0.4343976 0.6628265
vt 0.4329739 0.6708132
vt 0.432408 0.6621893
vt 0.4311777 0.6702378
vt 0.4362135 0.6621128
vt 0.432408 0.6621893
vt 0.4346133 0.6701688
vt 0.4311777 0.6702378
vt 0.4432682 0.6627733
vt 0.4412786 0.662136
vt 0.4409826 0.6707651
vt 0.4391863 0.6701897
vt 0.05903936 0.6891196
vt 0.05951659 0.6470938
vt 0.07598517 0.6885901
vt 0.0735798 0.64693
vt 0.4367064 0.6708392
vt 0.4409826 0.6707651
vt 0.437269 0.6799421
vt 0.4415458 0.6798722
vt 0.4367064 0.6708392
vt 0.4385318 0.6628554
vt 0.4409826 0.6707651
vt 0.4432682 0.6627733
vt 0.4385318 0.6628554
vt 0.4401204 0.6563149
vt 0.4432682 0.6627733
vt 0.4463052 0.6578735
vt 0.4445255 0.6573035
vt 0.4380465 0.6556507
vt 0.4412786 0.662136
vt 0.4362135 0.6621128
vt 0.4412786 0.662136
vt 0.4362135 0.6621128
vt 0.4391863 0.6701897
vt 0.4346133 0.6701688
vt 0.4353566 0.6793296
vt 0.4399047 0.6793464
vt 0.07206456 0.6875604
vt 0.0698218 0.6459474
vt 0.05438382 0.6879091
vt 0.05487395 0.6458799
vt 0.04889458 0.6469513
vt 0.04701126 0.6469931
vt 0.04545698 0.6460525
vt 0.04325712 0.6460115
vt 0.05487395 0.6458799
vt 0.05526922 0.645951
vt 0.05951659 0.6470938
vt 0.05927495 0.6469983
vt 0.07145513 0.6468905
vt 0.0735798 0.64693
vt 0.0698218 0.6459474
vt 0.06801758 0.6459916
vt 0.05526922 0.645951
vt 0.05487395 0.6458799
vt 0.06801758 0.6459916
vt 0.0698218 0.6459474
vt 0.07598517 0.6885901
vt 0.07206456 0.6875604
vt 0.05903936 0.6891196
vt 0.07206456 0.6875604
vt 0.05438382 0.6879091
vt 0.05903936 0.6891196
vt 0.05438382 0.6879091
vt 0.04359508 0.6883405
vt 0.05903936 0.6891196
vt 0.05903936 0.6891196
vt 0.04359508 0.6883405
vt 0.04701956 0.6892359
vt 0.4330645 0.6543971
vt 0.4380465 0.6556507
vt 0.4348443 0.6549672
vt 0.4380465 0.6556507
vt 0.4445255 0.6573035
vt 0.4348443 0.6549672
vt 0.4348443 0.6549672
vt 0.4445255 0.6573035
vt 0.4401204 0.6563149
vt 0.4401204 0.6563149
vt 0.4445255 0.6573035
vt 0.4463052 0.6578735
vn -0.99965 0.02645498 1.706016E-05
vn -0.99965 0.02645498 1.706016E-05
vn -0.99965 0.02645498 1.706016E-05
vn -0.99965 0.02645498 1.706016E-05
vn -0.2781096 0.0301856 0.960075
vn -0.2781096 0.0301856 0.960075
vn -0.2781096 0.0301856 0.960075
vn -0.2781096 0.0301856 0.960075
vn 0.9996728 -0.02558202 -1.649775E-05
vn 0.9996728 -0.02558202 -1.649775E-05
vn 0.9996728 -0.02558202 -1.649775E-05
vn 0.9996728 -0.02558202 -1.649775E-05
vn -0.2781097 0.03142389 -0.9600352
vn -0.2781097 0.03142389 -0.9600352
vn -0.2781097 0.03142389 -0.9600352
vn -0.2781097 0.03142389 -0.9600352
vn -0.2893758 0.01388553 -0.9571148
vn -0.2893758 0.01388553 -0.9571148
vn -0.9996696 -0.02570673 -1.657848E-05
vn -0.9996696 -0.02570673 -1.657803E-05
vn -0.9996696 -0.02570673 -1.657848E-05
vn -0.9996696 -0.02570673 -1.657848E-05
vn -0.2216856 -0.05455097 0.9735911
vn -0.2216856 -0.05455097 0.9735911
vn -0.2216856 -0.05455097 0.9735911
vn -0.2216856 -0.05455097 0.9735911
vn 0.9731658 0.2301055 0.0001483929
vn 0.9731658 0.2301055 0.0001483928
vn 0.9731658 0.2301055 0.0001483928
vn 0.9731658 0.2301055 0.0001483929
vn -0.2216862 -0.05329356 -0.9736606
vn -0.2216862 -0.05329354 -0.9736606
vn -0.2216863 -0.05329356 -0.9736606
vn -0.2216863 -0.05329356 -0.9736606
vn -0.9999917 0.004100472 2.642309E-06
vn -0.9999917 0.004100471 2.642309E-06
vn -0.9999917 0.004100472 2.642309E-06
vn -0.9999917 0.004100472 2.642309E-06
vn -0.4190999 0.01038834 0.9078807
vn -0.4190999 0.01038834 0.9078807
vn -0.4190999 0.01038834 0.9078807
vn -0.4190999 0.01038836 0.9078807
vn 0.9983624 -0.05720568 9.877716E-05
vn 0.9983624 -0.05720568 9.877716E-05
vn 0.9983624 -0.05720568 9.877716E-05
vn 0.9983624 -0.05720568 9.877716E-05
vn -0.3856848 0.02306484 -0.9223423
vn -0.3856848 0.02306484 -0.9223423
vn -0.3856848 0.02306484 -0.9223422
vn -0.3856848 0.02306484 -0.9223423
vn -0.9981785 -0.06033023 -3.890607E-05
vn -0.9981785 -0.06033022 -3.890606E-05
vn -0.9981785 -0.06033023 -3.890607E-05
vn -0.9981785 -0.06033022 -3.890606E-05
vn -0.2893759 0.01264871 0.957132
vn -0.2893758 0.01264871 0.957132
vn -0.2893759 0.01264871 0.957132
vn -0.2893758 0.01264871 0.957132
vn 0.9950674 0.09920148 6.397559E-05
vn 0.9950674 0.09920148 6.397559E-05
vn 0.9950674 0.09920148 6.397559E-05
vn 0.9950674 0.09920148 6.397559E-05
vn 0.2421613 -0.00171903 -0.9702345
vn 0.2421613 -0.00171903 -0.9702345
vn 0.2421613 -0.00171903 -0.9702345
vn 0.2421613 -0.00171903 -0.9702345
vn 0.2284087 0.01855361 -0.9733886
vn 0.2284087 0.01855361 -0.9733886
vn 0.2284087 0.01855361 -0.9733886
vn 0.2284087 0.01855361 -0.9733886
vn 0.2375166 0.05547095 -0.9697983
vn 0.2375166 0.05547092 -0.9697983
vn 0.2375166 0.05547092 -0.9697983
vn 0.2375166 0.05547092 -0.9697983
vn 0.2060754 -0.01938185 -0.9783442
vn 0.2060753 -0.01938185 -0.9783442
vn 0.2060754 -0.01938187 -0.9783442
vn 0.2060754 -0.01938185 -0.9783442
vn 0.2060764 -0.02064633 0.9783181
vn 0.2060764 -0.02064633 0.9783181
vn 0.2060764 -0.02064633 0.9783181
vn 0.2060764 -0.02064633 0.9783181
vn 0.2375166 0.05421866 0.9698692
vn 0.2375166 0.05421866 0.9698692
vn 0.2375166 0.05421866 0.9698692
vn 0.2375166 0.05421866 0.9698692
vn 0.2284086 0.0172981 0.9734117
vn 0.2284085 0.0172981 0.9734117
vn 0.2417506 -0.02644665 0.969978
vn 0.2417506 -0.02644665 0.969978
vn 0.2417506 -0.02644662 0.969978
vn 0.2417506 -0.02644665 0.969978
vn 0.002479127 -0.9999968 -0.0006448793
vn 0.002479127 -0.9999968 -0.0006448794
vn 0.002479127 -0.9999968 -0.0006448794
vn 0.002479127 -0.9999968 -0.0006448794
vn 0.0002549196 -0.9999995 0.0009349729
vn 0.0002549196 -0.9999995 0.0009349727
vn 0.0002568598 -0.9999975 -0.002212724
vn 0.0002568598 -0.9999975 -0.002212724
vn 0.001475482 -0.9999987 -0.0006448935
vn 0.001475482 -0.9999987 -0.0006448935
vn 0.001475482 -0.9999987 -0.0006448792
vn 0.001475482 -0.9999987 -0.0006448935
vn 0.0004522908 -0.9999973 0.002325092
vn 0.0004522907 -0.9999973 0.002325091
vn 0.0004522908 -0.9999973 0.002325092
vn 0.0004522907 -0.9999973 0.002325091
vn 0.5530251 0.7851676 -0.2787023
vn 0.5530251 0.7851678 -0.2787023
vn 0.5530251 0.7851678 -0.2787023
vn -0.4673306 0.8466087 0.254668
vn -0.4673306 0.8466087 0.2546681
vn -0.4673306 0.8466087 0.2546681
vn 0.6218747 0.7497872 0.2260333
vn 0.6218746 0.7497873 0.2260333
vn 0.6218747 0.7497872 0.2260333
vn -0.7057228 0.6564624 -0.2664815
vn -0.7057229 0.6564624 -0.2664815
vn -0.7057228 0.6564624 -0.2664815
vn 0.5406418 -0.8412526 -0.0005286805
vn 0.5406418 -0.8412527 -0.0005286807
vn 0.5406418 -0.8412526 -0.0005286806
vn -0.3690273 -0.8901817 0.2671993
vn -0.3690273 -0.8901817 0.2671993
vn -0.3690273 -0.8901817 0.2671993
vn 0.4174142 -0.8159074 -0.4000755
vn 0.4174142 -0.8159074 -0.4000755
vn 0.4174142 -0.8159074 -0.4000755
vn -0.5123259 -0.8587907 -0.0008037966
vn -0.5123259 -0.8587907 -0.0008037966
vn -0.5123259 -0.8587908 -0.0008037967
g beastmanStaff_break03_0
f 3/3/3 2/2/2 1/1/1
f 3/3/3 4/4/4 2/2/2
f 7/7/7 6/6/6 5/5/5
f 7/7/7 8/8/8 6/6/6
f 11/11/11 10/10/10 9/9/9
f 11/11/11 12/12/12 10/10/10
f 15/15/15 14/14/14 13/13/13
f 15/15/15 16/16/16 14/14/14
f 14/14/14 17/17/17 13/13/13
f 14/14/14 18/18/18 17/17/17
f 21/21/21 20/20/20 19/19/19
f 21/21/21 22/22/22 20/20/20
f 25/25/25 24/24/24 23/23/23
f 25/25/25 26/26/26 24/24/24
f 29/29/29 28/28/28 27/27/27
f 29/29/29 30/30/30 28/28/28
f 33/33/33 32/32/32 31/31/31
f 33/33/33 34/34/34 32/32/32
f 37/37/37 36/36/36 35/35/35
f 37/37/37 38/38/38 36/36/36
f 41/41/41 40/40/40 39/39/39
f 41/41/41 42/42/42 40/40/40
f 45/45/45 44/44/44 43/43/43
f 45/45/45 46/46/46 44/44/44
f 49/49/49 48/48/48 47/47/47
f 49/49/49 50/50/50 48/48/48
f 53/53/53 52/52/52 51/51/51
f 53/53/53 54/54/54 52/52/52
f 57/57/57 56/56/56 55/55/55
f 57/57/57 58/58/58 56/56/56
f 61/61/61 60/60/60 59/59/59
f 61/61/61 62/62/62 60/60/60
f 65/65/65 64/64/64 63/63/63
f 65/65/65 66/66/66 64/64/64
f 69/69/69 68/68/68 67/67/67
f 69/69/69 70/70/70 68/68/68
f 73/73/73 72/72/72 71/71/71
f 73/73/73 74/74/74 72/72/72
f 77/77/77 76/76/76 75/75/75
f 77/77/77 78/78/78 76/76/76
f 81/81/81 80/80/80 79/79/79
f 81/81/81 82/82/82 80/80/80
f 85/85/85 84/84/84 83/83/83
f 85/85/85 86/86/86 84/84/84
f 87/87/87 86/86/86 85/85/85
f 87/87/87 85/85/85 88/88/88
f 91/91/91 90/90/90 89/89/89
f 91/91/91 92/92/92 90/90/90
f 95/95/95 94/94/94 93/93/93
f 95/95/95 96/96/96 94/94/94
f 97/97/97 96/96/96 95/95/95
f 97/97/97 95/95/95 98/98/98
f 93/93/93 94/94/94 99/99/99
f 93/93/93 99/99/99 100/100/100
f 99/99/99 101/101/101 100/100/100
f 99/99/99 102/102/102 101/101/101
f 101/101/101 102/102/102 103/103/103
f 101/101/101 103/103/103 104/104/104
f 107/107/107 106/106/106 105/105/105
f 107/107/107 108/108/108 106/106/106
f 111/111/111 110/110/110 109/109/109
f 114/114/114 113/113/113 112/112/112
f 117/117/117 116/116/116 115/115/115
f 120/120/120 119/119/119 118/118/118
f 123/123/123 122/122/122 121/121/121
f 126/126/126 125/125/125 124/124/124
f 129/129/129 128/128/128 127/127/127
f 132/132/132 131/131/131 130/130/130
