g bladeStick_break02
v -0.04488037 -0.07622783 9.909272E-09
v -0.02243652 -0.07392894 0.03886224
v -0.01994751 -0.1615336 0.04558492
v -0.05223145 -0.1571099 1.140404E-08
v -0.04488037 -0.07622783 9.909272E-09
v -0.05223145 -0.1571099 1.140404E-08
v -0.02611572 -0.1443847 -0.04558492
v -0.02241211 -0.0567805 -0.03881942
v 0.0223999 -0.04886256 -0.03879793
v -0.02241211 -0.0567805 -0.03881942
v -0.02611572 -0.1443847 -0.04558492
v 0.03228271 -0.1364665 -0.04558492
v 0.04481934 -0.05516185 9.909272E-09
v 0.0223999 -0.04886256 -0.03879793
v 0.03228271 -0.1364665 -0.04558492
v 0.05223145 -0.1363601 1.140404E-08
v 0.02241943 -0.06078105 0.03882985
v 0.04481934 -0.05516185 9.909272E-09
v 0.05223145 -0.1363601 1.140404E-08
v 0.02611694 -0.1419795 0.04558492
v -0.02243652 -0.07392894 0.03886224
v 0.02241943 -0.06078105 0.03882985
v 0.02611694 -0.1419795 0.04558492
v -0.01994751 -0.1615336 0.04558492
v 0.02611694 -0.1419795 0.04558492
v 0.05223145 -0.1363601 1.140404E-08
v 0.01043213 -0.160429 -0.0001025896
v 0.01893921 0.1615336 -0.03280261
v -0.01893799 0.1607133 -0.03280262
v -0.02241211 -0.0567805 -0.03881942
v 0.0223999 -0.04886256 -0.03879793
v 0.03787719 0.1530568 8.912757E-09
v 0.01893921 0.1615336 -0.03280261
v 0.0223999 -0.04886256 -0.03879793
v 0.04481934 -0.05516185 9.909272E-09
v 0.01893921 0.1268367 0.03280264
v 0.03787719 0.1530568 8.912757E-09
v 0.04481934 -0.05516185 9.909272E-09
v 0.02241943 -0.06078105 0.03882985
v -0.01893799 0.13308 0.03280262
v 0.01893921 0.1268367 0.03280264
v 0.02241943 -0.06078105 0.03882985
v -0.02243652 -0.07392894 0.03886224
v -0.03787719 0.1530568 8.912757E-09
v -0.01893799 0.13308 0.03280262
v -0.02243652 -0.07392894 0.03886224
v -0.04488037 -0.07622783 9.909272E-09
v -0.01893799 0.1607133 -0.03280262
v -0.03787719 0.1530568 8.912757E-09
v -0.04488037 -0.07622783 9.909272E-09
v -0.02241211 -0.0567805 -0.03881942
v -0.05223145 -0.1571099 1.140404E-08
v 0.01043213 -0.160429 -0.0001025896
v -0.02611572 -0.1443847 -0.04558492
v 0.01043213 -0.160429 -0.0001025896
v 0.03228271 -0.1364665 -0.04558492
v -0.02611572 -0.1443847 -0.04558492
v 0.01043213 -0.160429 -0.0001025896
v 0.05223145 -0.1363601 1.140404E-08
v 0.03228271 -0.1364665 -0.04558492
v -0.01994751 -0.1615336 0.04558492
v 0.02611694 -0.1419795 0.04558492
v 0.01043213 -0.160429 -0.0001025896
v -0.05223145 -0.1571099 1.140404E-08
v -0.01994751 -0.1615336 0.04558492
v 0.01043213 -0.160429 -0.0001025896
v -0.03787719 0.1530568 8.912757E-09
v -0.01893799 0.1607133 -0.03280262
v 0.01893921 0.1615336 -0.03280261
v 0.03787719 0.1530568 8.912757E-09
v -0.01893799 0.13308 0.03280262
v 0.01893921 0.1268367 0.03280264
vt 0.1461568 0.5511971
vt 0.1506025 0.5516524
vt 0.1498739 0.5342996
vt 0.1447006 0.5338442
vt 0.1461568 0.5511971
vt 0.1447006 0.5338442
vt 0.1498739 0.5376965
vt 0.1506074 0.5550492
vt 0.1594838 0.5566176
vt 0.1506074 0.5550492
vt 0.1498739 0.5376965
vt 0.1602199 0.5392649
vt 0.1639246 0.5553698
vt 0.1594838 0.5566176
vt 0.1602199 0.5392649
vt 0.1653928 0.538017
vt 0.1594875 0.5542567
vt 0.1639246 0.5553698
vt 0.1653928 0.538017
vt 0.1602199 0.536904
vt 0.1506025 0.5516524
vt 0.1594875 0.5542567
vt 0.1602199 0.536904
vt 0.1498739 0.5342996
vt 0.1602199 0.536904
vt 0.1653928 0.538017
vt 0.1550467 0.5359306
vt 0.1587982 0.5966141
vt 0.1512954 0.5966141
vt 0.1506074 0.5550492
vt 0.1594838 0.5566176
vt 0.1625494 0.5966141
vt 0.1587982 0.5966141
vt 0.1594838 0.5566176
vt 0.1639246 0.5553698
vt 0.1587982 0.5966141
vt 0.1625494 0.5966141
vt 0.1639246 0.5553698
vt 0.1594875 0.5542567
vt 0.1512954 0.5966141
vt 0.1587982 0.5966141
vt 0.1594875 0.5542567
vt 0.1506025 0.5516524
vt 0.1475441 0.5966141
vt 0.1512954 0.5966141
vt 0.1506025 0.5516524
vt 0.1461568 0.5511971
vt 0.1512954 0.5966141
vt 0.1475441 0.5966141
vt 0.1461568 0.5511971
vt 0.1506074 0.5550492
vt 0.1447006 0.5338442
vt 0.1550467 0.5359306
vt 0.1498739 0.5376965
vt 0.1550467 0.5359306
vt 0.1602199 0.5392649
vt 0.1498739 0.5376965
vt 0.1550467 0.5359306
vt 0.1653928 0.538017
vt 0.1602199 0.5392649
vt 0.1498739 0.5342996
vt 0.1602199 0.536904
vt 0.1550467 0.5359306
vt 0.1447006 0.5338442
vt 0.1498739 0.5342996
vt 0.1550467 0.5359306
vt 0.07686654 0.3407744
vt 0.1115721 0.311204
vt 0.1671166 0.3165709
vt 0.1879565 0.3515082
vt 0.09770852 0.3757119
vt 0.153253 0.3810788
vn -0.8377714 0.04588004 0.5440903
vn -0.8377714 0.04588004 0.5440903
vn -0.8377714 0.04588004 0.5440903
vn -0.8377714 0.04588004 0.5440903
vn -0.876476 0.07659889 -0.475313
vn -0.876476 0.07659889 -0.4753131
vn -0.8764759 0.07659889 -0.4753131
vn -0.876476 0.07659888 -0.4753131
vn -0.0115623 0.0767097 -0.9969864
vn -0.0115623 0.07670971 -0.9969864
vn -0.0115623 0.07670971 -0.9969864
vn -0.0115623 0.07670971 -0.9969864
vn 0.8915364 0.1090157 -0.4396343
vn 0.8915364 0.1090157 -0.4396343
vn 0.8915364 0.1090157 -0.4396343
vn 0.8915365 0.1090157 -0.4396343
vn 0.8596221 0.07979243 0.5046614
vn 0.8596221 0.07979243 0.5046614
vn 0.8596221 0.07979244 0.5046614
vn 0.8596221 0.07979243 0.5046614
vn -0.02789512 0.07854339 0.9965204
vn -0.02789512 0.07854338 0.9965204
vn -0.02789512 0.07854339 0.9965204
vn -0.02789512 0.07854337 0.9965204
vn 0.4908869 -0.8532537 0.1760349
vn 0.4908869 -0.8532537 0.1760349
vn 0.4908869 -0.8532537 0.1760349
vn -0.002705398 0.02806206 -0.9996025
vn -0.002705398 0.02806206 -0.9996025
vn -0.002705398 0.02806206 -0.9996025
vn -0.002705398 0.02806205 -0.9996025
vn 0.868122 0.02866938 -0.4955222
vn 0.868122 0.02866938 -0.4955221
vn 0.868122 0.02866938 -0.4955221
vn 0.868122 0.02866938 -0.4955222
vn 0.8598163 0.03039899 0.5096977
vn 0.8598163 0.03039899 0.5096977
vn 0.8598163 0.03039899 0.5096977
vn 0.8598163 0.03039899 0.5096977
vn -0.002163754 0.0306142 0.9995289
vn -0.002163754 0.03061421 0.9995289
vn -0.002163754 0.03061421 0.9995289
vn -0.002163754 0.03061421 0.9995289
vn -0.8626701 0.02777728 0.5050035
vn -0.8626701 0.02777728 0.5050035
vn -0.8626701 0.02777728 0.5050035
vn -0.8626701 0.02777728 0.5050035
vn -0.8698121 0.02703128 -0.4926421
vn -0.8698121 0.02703128 -0.4926421
vn -0.8698121 0.02703128 -0.4926421
vn -0.8698121 0.02703129 -0.4926421
vn -0.05101145 -0.9539725 -0.2955238
vn -0.05101146 -0.9539725 -0.2955238
vn -0.05101146 -0.9539725 -0.2955238
vn 0.1221813 -0.9010941 -0.4160542
vn 0.1221813 -0.9010941 -0.4160542
vn 0.1221813 -0.9010941 -0.4160541
vn 0.4880997 -0.8467429 -0.2116251
vn 0.4880997 -0.8467429 -0.2116251
vn 0.4880997 -0.8467429 -0.2116251
vn 0.3801631 -0.8955737 0.2311359
vn 0.3801632 -0.8955737 0.2311359
vn 0.3801632 -0.8955736 0.2311358
vn -0.05289759 -0.9968392 -0.05927445
vn -0.05289759 -0.9968392 -0.05927445
vn -0.05289759 -0.9968392 -0.05927445
vn 0.02154886 0.9030542 0.4289857
vn 0.02154886 0.9030542 0.4289857
vn 0.02154886 0.9030542 0.4289857
vn 0.02154886 0.9030542 0.4289857
vn 0.02154886 0.9030542 0.4289857
vn 0.02154886 0.9030542 0.4289857
g bladeStick_break02_0
f 3/3/3 2/2/2 1/1/1
f 4/4/4 3/3/3 1/1/1
f 7/7/7 6/6/6 5/5/5
f 8/8/8 7/7/7 5/5/5
f 11/11/11 10/10/10 9/9/9
f 12/12/12 11/11/11 9/9/9
f 15/15/15 14/14/14 13/13/13
f 16/16/16 15/15/15 13/13/13
f 19/19/19 18/18/18 17/17/17
f 20/20/20 19/19/19 17/17/17
f 23/23/23 22/22/22 21/21/21
f 24/24/24 23/23/23 21/21/21
f 27/27/27 26/26/26 25/25/25
f 30/30/30 29/29/29 28/28/28
f 31/31/31 30/30/30 28/28/28
f 34/34/34 33/33/33 32/32/32
f 35/35/35 34/34/34 32/32/32
f 38/38/38 37/37/37 36/36/36
f 39/39/39 38/38/38 36/36/36
f 42/42/42 41/41/41 40/40/40
f 43/43/43 42/42/42 40/40/40
f 46/46/46 45/45/45 44/44/44
f 47/47/47 46/46/46 44/44/44
f 50/50/50 49/49/49 48/48/48
f 51/51/51 50/50/50 48/48/48
f 54/54/54 53/53/53 52/52/52
f 57/57/57 56/56/56 55/55/55
f 60/60/60 59/59/59 58/58/58
f 63/63/63 62/62/62 61/61/61
f 66/66/66 65/65/65 64/64/64
f 69/69/69 68/68/68 67/67/67
f 67/67/67 70/70/70 69/69/69
f 67/67/67 71/71/71 70/70/70
f 71/71/71 72/72/72 70/70/70
