g bladGoblinBreak03
v -0.02628647 0.1851209 0.01671577
v -0.05793167 0.3117902 0.001790469
v 0.08913742 0.254265 0.001708439
v 0.117065 0.4224638 0.0007562746
v 0.07529099 -0.02882592 0.001511152
v 0.08913742 0.254265 0.001708439
v 0.117065 0.4224638 0.0007562746
v 0.08913742 0.254265 -0.001708439
v 0.117065 0.4224638 -0.0007562746
v 0.07529099 -0.02882592 -0.001511152
v 0.07529099 -0.02882592 0.001511152
v 0.129185 -0.1688613 -0.001970874
v 0.129185 -0.1688613 0.001970874
v 0.117065 0.4224638 -0.0007562746
v -0.05793167 0.3117902 -0.001790469
v 0.08913742 0.254265 -0.001708439
v -0.02628647 0.1851209 -0.01671577
v 0.07529099 -0.02882592 -0.001511152
v 0.04962753 -0.3503876 0.01754637
v 0.04050919 -0.1812645 0.01726951
v 0.1286385 -0.4024813 0.01227347
v 0.04050919 -0.1812645 0.01726951
v 0.129185 -0.1688613 0.001970874
v 0.1286385 -0.4024813 0.01227347
v 0.01486923 -0.05124222 0.01699264
v 0.1286385 -0.4024813 0.01227347
v 0.129185 -0.1688613 0.001970874
v 0.1286385 -0.4024813 -0.00776873
v 0.129185 -0.1688613 -0.001970874
v 0.04962753 -0.4224638 -0.01754637
v 0.1286385 -0.4024813 -0.00776873
v 0.04050919 -0.1812646 -0.01726951
v 0.1286385 -0.4024813 -0.00776873
v 0.129185 -0.1688613 -0.001970874
v 0.04050919 -0.1812646 -0.01726951
v 0.01486923 -0.05124222 -0.01699264
v -0.01208847 -0.3519303 0.0098887
v -0.01208847 -0.3519303 -0.0098887
v -0.02114548 -0.1920324 0.008069369
v -0.02114548 -0.1920324 -0.00806937
v -0.01208847 -0.3519303 0.0098887
v -0.02114548 -0.1920324 0.008069369
v 0.04962753 -0.3503876 0.01754637
v -0.02114548 -0.1920324 0.008069369
v 0.04050919 -0.1812645 0.01726951
v 0.04962753 -0.3503876 0.01754637
v -0.04313888 -0.05726342 0.006250036
v -0.01208847 -0.3519303 -0.0098887
v 0.04962753 -0.4224638 -0.01754637
v -0.02114548 -0.1920324 -0.00806937
v 0.04962753 -0.4224638 -0.01754637
v 0.04050919 -0.1812646 -0.01726951
v -0.02114548 -0.1920324 -0.00806937
v -0.04313888 -0.05726342 -0.006250036
v -0.05793167 0.3117902 -0.001790469
v -0.129185 0.2669206 -0.001249169
v -0.02628647 0.1851209 -0.01671577
v -0.08787155 0.165444 -0.004430703
v 0.01486923 -0.05124222 -0.01699264
v -0.129185 0.2669206 0.001249169
v -0.08787155 0.165444 0.004430703
v -0.129185 0.2669206 -0.001249169
v -0.08787155 0.165444 -0.004430703
v -0.04313888 -0.05726342 0.006250036
v -0.04313888 -0.05726342 -0.006250036
v -0.05793167 0.3117902 0.001790469
v -0.02628647 0.1851209 0.01671577
v -0.129185 0.2669206 0.001249169
v -0.08787155 0.165444 0.004430703
v 0.01486923 -0.05124222 0.01699264
v 0.01486923 -0.05124222 0.01699264
v 0.07529099 -0.02882592 0.001511152
v 0.129185 -0.1688613 0.001970874
v -0.02628647 0.1851209 0.01671577
v -0.04313888 -0.05726342 0.006250036
v 0.01486923 -0.05124222 0.01699264
v 0.04050919 -0.1812645 0.01726951
v -0.08787155 0.165444 0.004430703
v -0.02114548 -0.1920324 -0.00806937
v -0.04313888 -0.05726342 -0.006250036
v -0.02114548 -0.1920324 0.008069369
v -0.04313888 -0.05726342 0.006250036
v 0.04050919 -0.1812646 -0.01726951
v 0.01486923 -0.05124222 -0.01699264
v -0.04313888 -0.05726342 -0.006250036
v -0.08787155 0.165444 -0.004430703
v 0.129185 -0.1688613 -0.001970874
v 0.07529099 -0.02882592 -0.001511152
v 0.01486923 -0.05124222 -0.01699264
v -0.02628647 0.1851209 -0.01671577
v 0.117065 0.4224638 0.0007562746
v -0.05793167 0.3117902 0.001790469
v 0.117065 0.4224638 -0.0007562746
v -0.05793167 0.3117902 -0.001790469
v -0.129185 0.2669206 0.001249169
v -0.129185 0.2669206 -0.001249169
v 0.1286385 -0.4024813 0.01227347
v 0.1286385 -0.4024813 -0.00776873
v 0.04962753 -0.3503876 0.01754637
v 0.1286385 -0.4024813 -0.00776873
v 0.04962753 -0.4224638 -0.01754637
v 0.04962753 -0.3503876 0.01754637
v -0.01208847 -0.3519303 0.0098887
v 0.04962753 -0.3503876 0.01754637
v -0.01208847 -0.3519303 -0.0098887
v 0.04962753 -0.3503876 0.01754637
v 0.04962753 -0.4224638 -0.01754637
v -0.01208847 -0.3519303 -0.0098887
vt 0.9387906 0.6556435
vt 0.9387906 0.7285788
vt 0.9479088 0.6556488
vt 0.9573417 0.7285788
vt 0.9473104 0.6510224
vt 0.9479088 0.6556488
vt 0.9573417 0.7285788
vt 0.9479088 0.6556488
vt 0.9573417 0.7285788
vt 0.9473104 0.6510224
vt 0.9473104 0.6510224
vt 0.9467121 0.646396
vt 0.9467121 0.646396
vt 0.9573417 0.7285788
vt 0.9387906 0.7285788
vt 0.9479088 0.6556488
vt 0.9387906 0.6556435
vt 0.9473104 0.6510224
vt 0.9387906 0.6417865
vt 0.9387906 0.6464055
vt 0.9461137 0.6417698
vt 0.9387906 0.6464055
vt 0.9467121 0.646396
vt 0.9461137 0.6417698
vt 0.9387906 0.6510245
vt 0.9461137 0.6417698
vt 0.9467121 0.646396
vt 0.9461137 0.6417698
vt 0.9467121 0.646396
vt 0.9387906 0.6417865
vt 0.9461137 0.6417698
vt 0.9387906 0.6464055
vt 0.9461137 0.6417698
vt 0.9467121 0.646396
vt 0.9387906 0.6464055
vt 0.9387906 0.6510245
vt 0.9461137 0.6417698
vt 0.9461137 0.6417698
vt 0.9467121 0.646396
vt 0.9467121 0.646396
vt 0.9461137 0.6417698
vt 0.9467121 0.646396
vt 0.9387906 0.6417865
vt 0.9467121 0.646396
vt 0.9387906 0.6464055
vt 0.9387906 0.6417865
vt 0.9473104 0.6510224
vt 0.9461137 0.6417698
vt 0.9387906 0.6417865
vt 0.9467121 0.646396
vt 0.9387906 0.6417865
vt 0.9387906 0.6464055
vt 0.9467121 0.646396
vt 0.9473104 0.6510224
vt 0.9387906 0.7285788
vt 0.9573417 0.7285788
vt 0.9387906 0.6556435
vt 0.9479088 0.6556488
vt 0.9387906 0.6510245
vt 0.9573417 0.7285788
vt 0.9479088 0.6556488
vt 0.9573417 0.7285788
vt 0.9479088 0.6556488
vt 0.9473104 0.6510224
vt 0.9473104 0.6510224
vt 0.9387906 0.7285788
vt 0.9387906 0.6556435
vt 0.9573417 0.7285788
vt 0.9479088 0.6556488
vt 0.9387906 0.6510245
vt 0.9387906 0.6510245
vt 0.9473104 0.6510224
vt 0.9467121 0.646396
vt 0.9387906 0.6556435
vt 0.9473104 0.6510224
vt 0.9387906 0.6510245
vt 0.9387906 0.6464055
vt 0.9479088 0.6556488
vt 0.9467121 0.646396
vt 0.9473104 0.6510224
vt 0.9467121 0.646396
vt 0.9473104 0.6510224
vt 0.9387906 0.6464055
vt 0.9387906 0.6510245
vt 0.9473104 0.6510224
vt 0.9479088 0.6556488
vt 0.9467121 0.646396
vt 0.9473104 0.6510224
vt 0.9387906 0.6510245
vt 0.9387906 0.6556435
vt 0.9573417 0.7285788
vt 0.9387906 0.7285788
vt 0.9573417 0.7285788
vt 0.9387906 0.7285788
vt 0.9573417 0.7285788
vt 0.9573417 0.7285788
vt 0.9461137 0.6417698
vt 0.9461137 0.6417698
vt 0.9387906 0.6417865
vt 0.9461137 0.6417698
vt 0.9387906 0.6417865
vt 0.9387906 0.6417865
vt 0.9461137 0.6417698
vt 0.9387906 0.6417865
vt 0.9461137 0.6417698
vt 0.9387906 0.6417865
vt 0.9387906 0.6417865
vt 0.9461137 0.6417698
vn 0.1909592 0.03072898 0.9811168
vn 0.2164105 0.03926498 0.9755126
vn 0.1909592 0.03072898 0.9811168
vn 0.2164105 0.03926498 0.9755126
vn 0.12238 0.01110779 0.9924212
vn 0.9913572 0.1311901 0
vn 0.9875238 0.1574693 0
vn 0.9913572 0.1311901 0
vn 0.9875238 0.1574693 0
vn 0.9986332 0.05226572 0
vn 0.9986332 0.0522649 0
vn 0.9986332 0.0522649 0
vn 0.9986332 0.05226489 0
vn 0.2164105 0.03926481 -0.9755126
vn 0.2164105 0.03926481 -0.9755126
vn 0.1909592 0.0307289 -0.9811168
vn 0.1909592 0.0307289 -0.9811168
vn 0.12238 0.01110773 -0.9924212
vn 0.1653643 0.02216988 0.9859833
vn 0.1840217 0.008044489 0.9828892
vn 0.1653643 0.02216988 0.9859833
vn 0.1697118 0.002203198 0.9854913
vn 0.1697118 0.002203198 0.9854913
vn 0.1653643 0.02216988 0.9859833
vn 0.167326 0.01952817 0.9857082
vn 0.9944913 0.1048184 0
vn 0.9999973 -0.002329429 0
vn 0.9944913 0.1048184 0
vn 0.9999974 -0.002325958 0
vn 0.1653643 0.02216987 -0.9859833
vn 0.1653643 0.02216987 -0.9859833
vn 0.1840216 0.008044587 -0.9828892
vn 0.1653643 0.02216987 -0.9859833
vn 0.1697118 0.00220356 -0.9854913
vn 0.1697118 0.00220356 -0.9854913
vn 0.167326 0.01952781 -0.9857082
vn -0.9947985 -0.1018619 0
vn -0.9947985 -0.1018619 0
vn -0.9992466 -0.03881161 0
vn -0.9992467 -0.03880832 0
vn -0.1663899 -0.01229855 0.9859833
vn -0.1232072 0.002956969 0.9923766
vn -0.1663899 -0.01229855 0.9859833
vn -0.1468343 -0.004393565 0.9891514
vn -0.1468343 -0.004393565 0.9891514
vn -0.1663899 -0.01229855 0.9859833
vn -0.1465634 -0.005972034 0.9891832
vn -0.1663899 -0.01229856 -0.9859833
vn -0.1663899 -0.01229856 -0.9859833
vn -0.1232072 0.002956758 -0.9923766
vn -0.1663899 -0.01229856 -0.9859833
vn -0.1468343 -0.004393379 -0.9891514
vn -0.1468343 -0.004393379 -0.9891514
vn -0.1465634 -0.00597153 -0.9891833
vn -0.21986 -0.006063811 -0.9755126
vn -0.21986 -0.006063811 -0.9755126
vn -0.1931976 -0.009184638 -0.9811168
vn -0.1931976 -0.009184638 -0.9811168
vn -0.1859279 -0.03122327 -0.9820672
vn -0.9988034 -0.04890708 0
vn -0.9971526 -0.07541108 0
vn -0.9988034 -0.04890708 0
vn -0.9971526 -0.07541108 0
vn -0.9804184 -0.1969255 0
vn -0.9804184 -0.1969255 0
vn -0.2198601 -0.006062966 0.9755126
vn -0.1931976 -0.00918421 0.9811168
vn -0.2198601 -0.006062966 0.9755126
vn -0.1931976 -0.00918421 0.9811168
vn -0.1859279 -0.03122314 0.9820672
vn 0.1486054 0.00964336 0.9888495
vn 0.1486054 0.009643361 0.9888495
vn 0.1486054 0.009643361 0.9888495
vn 0.1909592 0.03072898 0.9811168
vn -0.1801958 -0.01860698 0.9834547
vn -0.1801958 -0.01860698 0.9834547
vn -0.1801959 -0.01860699 0.9834548
vn -0.1931976 -0.00918421 0.9811168
vn -0.9957719 -0.09186 0
vn -0.9957719 -0.09185999 0
vn -0.9957719 -0.09186 0
vn -0.9957721 -0.09185904 0
vn -0.1801959 -0.0186076 -0.9834547
vn -0.1801959 -0.0186076 -0.9834547
vn -0.1801958 -0.01860759 -0.9834547
vn -0.1931976 -0.009184638 -0.9811168
vn 0.1486054 0.009643459 -0.9888495
vn 0.1486054 0.009643459 -0.9888495
vn 0.1486055 0.00964346 -0.9888495
vn 0.1909592 0.0307289 -0.9811168
vn -0.5345071 0.8451641 0
vn -0.5345071 0.8451641 0
vn -0.5345071 0.8451641 0
vn -0.5345086 0.845163 0
vn -0.5328686 0.8461981 0
vn -0.5328665 0.8461994 0
vn -0.5504466 -0.8348704 0
vn -0.5504467 -0.8348704 0
vn -0.5504467 -0.8348704 0
vn -0.0005514107 -0.4377518 0.8990956
vn -0.0005514108 -0.4377518 0.8990956
vn -0.0005514107 -0.4377518 0.8990956
vn 0.02498832 -0.9996878 0
vn 0.02498832 -0.9996878 0
vn 0.02498832 -0.9996878 0
vn -0.3623245 -0.408012 0.8380019
vn -0.3623244 -0.408012 0.8380019
vn -0.3623245 -0.408012 0.8380019
g bladGoblinBreak03_0
f 3/3/3 2/2/2 1/1/1
f 3/3/3 4/4/4 2/2/2
f 5/5/5 3/3/3 1/1/1
f 8/8/8 7/7/7 6/6/6
f 8/8/8 9/9/9 7/7/7
f 10/10/10 8/8/8 6/6/6
f 10/10/10 6/6/6 11/11/11
f 12/12/12 10/10/10 11/11/11
f 12/12/12 11/11/11 13/13/13
f 16/16/16 15/15/15 14/14/14
f 16/16/16 17/17/17 15/15/15
f 17/17/17 16/16/16 18/18/18
f 21/21/21 20/20/20 19/19/19
f 24/24/24 23/23/23 22/22/22
f 23/23/23 25/25/25 22/22/22
f 28/28/28 27/27/27 26/26/26
f 28/28/28 29/29/29 27/27/27
f 32/32/32 31/31/31 30/30/30
f 35/35/35 34/34/34 33/33/33
f 36/36/36 34/34/34 35/35/35
f 39/39/39 38/38/38 37/37/37
f 39/39/39 40/40/40 38/38/38
f 43/43/43 42/42/42 41/41/41
f 46/46/46 45/45/45 44/44/44
f 45/45/45 47/47/47 44/44/44
f 50/50/50 49/49/49 48/48/48
f 53/53/53 52/52/52 51/51/51
f 54/54/54 52/52/52 53/53/53
f 57/57/57 56/56/56 55/55/55
f 57/57/57 58/58/58 56/56/56
f 58/58/58 57/57/57 59/59/59
f 62/62/62 61/61/61 60/60/60
f 62/62/62 63/63/63 61/61/61
f 64/64/64 61/61/61 63/63/63
f 64/64/64 63/63/63 65/65/65
f 68/68/68 67/67/67 66/66/66
f 68/68/68 69/69/69 67/67/67
f 70/70/70 67/67/67 69/69/69
f 73/73/73 72/72/72 71/71/71
f 72/72/72 74/74/74 71/71/71
f 77/77/77 76/76/76 75/75/75
f 76/76/76 78/78/78 75/75/75
f 81/81/81 80/80/80 79/79/79
f 81/81/81 82/82/82 80/80/80
f 85/85/85 84/84/84 83/83/83
f 86/86/86 84/84/84 85/85/85
f 89/89/89 88/88/88 87/87/87
f 90/90/90 88/88/88 89/89/89
f 93/93/93 92/92/92 91/91/91
f 93/93/93 94/94/94 92/92/92
f 94/94/94 95/95/95 92/92/92
f 94/94/94 96/96/96 95/95/95
f 99/99/99 98/98/98 97/97/97
f 102/102/102 101/101/101 100/100/100
f 105/105/105 104/104/104 103/103/103
f 108/108/108 107/107/107 106/106/106
