g bladeStick_break01
v 0.0151062 0.05271248 -0.02616302
v -0.01510498 0.04017006 -0.02616302
v 0.01893921 -0.2972536 -0.03280262
v -0.01510498 0.04017006 -0.02616302
v -0.01893799 -0.3016434 -0.03280263
v 0.01893921 -0.2972536 -0.03280262
v -0.01893799 -0.3016434 -0.03280263
v -0.01510498 0.04017006 -0.02616302
v -0.03787719 -0.2876558 1.7602E-09
v -0.01510498 0.04017006 -0.02616302
v -0.03020996 0.04621315 1.913868E-09
v -0.03787719 -0.2876558 1.7602E-09
v -0.03787719 -0.2876558 1.7602E-09
v -0.03020996 0.04621315 1.913868E-09
v -0.01893799 -0.2928066 0.03280262
v -0.03020996 0.04621315 1.913868E-09
v -0.01510498 0.02323555 0.02616303
v -0.01893799 -0.2928066 0.03280262
v -0.01893799 -0.2928066 0.03280262
v -0.01510498 0.02323555 0.02616303
v 0.01893921 -0.2779162 0.03280263
v -0.01510498 0.02323555 0.02616303
v 0.0151062 0.06447838 0.02616303
v 0.01893921 -0.2779162 0.03280263
v 0.01893921 -0.2779162 0.03280263
v 0.0151062 0.06447838 0.02616303
v 0.03787719 -0.2972536 1.7602E-09
v 0.0151062 0.06447838 0.02616303
v 0.03020996 0.04171486 1.913868E-09
v 0.03787719 -0.2972536 1.7602E-09
v 0.03787719 -0.2972536 1.7602E-09
v 0.03020996 0.04171486 1.913868E-09
v 0.01893921 -0.2972536 -0.03280262
v 0.03020996 0.04171486 1.913868E-09
v 0.0151062 0.05271248 -0.02616302
v 0.01893921 -0.2972536 -0.03280262
v -0.001251221 0.3016434 -3.740829E-06
v -0.01510498 0.04017006 -0.02616302
v 0.0151062 0.05271248 -0.02616302
v -0.001251221 0.3016434 -3.740829E-06
v 0.0151062 0.05271248 -0.02616302
v 0.03020996 0.04171486 1.913868E-09
v -0.001251221 0.3016434 -3.740829E-06
v 0.03020996 0.04171486 1.913868E-09
v 0.0151062 0.06447838 0.02616303
v -0.001251221 0.3016434 -3.740829E-06
v 0.0151062 0.06447838 0.02616303
v -0.01510498 0.02323555 0.02616303
v -0.001251221 0.3016434 -3.740829E-06
v -0.01510498 0.02323555 0.02616303
v -0.03020996 0.04621315 1.913868E-09
v -0.001251221 0.3016434 -3.740829E-06
v -0.03020996 0.04621315 1.913868E-09
v -0.01510498 0.04017006 -0.02616302
v 0.01893921 -0.2972536 -0.03280262
v -0.01893799 -0.3016434 -0.03280263
v -0.03787719 -0.2876558 1.7602E-09
v 0.03787719 -0.2972536 1.7602E-09
v 0.01893921 -0.2779162 0.03280263
v -0.01893799 -0.2928066 0.03280262
vt 0.1580389 0.6715716
vt 0.1520547 0.6715716
vt 0.1587982 0.5966141
vt 0.1520547 0.6715716
vt 0.1512954 0.5966141
vt 0.1587982 0.5966141
vt 0.1512954 0.5966141
vt 0.1520547 0.6715716
vt 0.1475441 0.5966141
vt 0.1520547 0.6715716
vt 0.1490628 0.6715716
vt 0.1475441 0.5966141
vt 0.1475441 0.5966141
vt 0.1490628 0.6715716
vt 0.1512954 0.5966141
vt 0.1490628 0.6715716
vt 0.1520547 0.6715716
vt 0.1512954 0.5966141
vt 0.1512954 0.5966141
vt 0.1520547 0.6715716
vt 0.1587982 0.5966141
vt 0.1520547 0.6715716
vt 0.1580389 0.6715716
vt 0.1587982 0.5966141
vt 0.1587982 0.5966141
vt 0.1580389 0.6715716
vt 0.1625494 0.5966141
vt 0.1580389 0.6715716
vt 0.1610309 0.6715716
vt 0.1625494 0.5966141
vt 0.1625494 0.5966141
vt 0.1610309 0.6715716
vt 0.1587982 0.5966141
vt 0.1610309 0.6715716
vt 0.1580389 0.6715716
vt 0.1587982 0.5966141
vt 0.1296431 0.4130229
vt 0.1226244 0.2996164
vt 0.1356114 0.3048842
vt 0.1296431 0.4130229
vt 0.1356114 0.3048842
vt 0.1431676 0.3012108
vt 0.1296431 0.4130229
vt 0.1431676 0.3012108
vt 0.1377377 0.3121653
vt 0.1296431 0.4130229
vt 0.1377377 0.3121653
vt 0.1247507 0.2945656
vt 0.1296431 0.4130229
vt 0.1247507 0.2945656
vt 0.1171945 0.3033865
vt 0.1296431 0.4130229
vt 0.1171945 0.3033865
vt 0.1226244 0.2996164
vt 0.1671166 0.3945381
vt 0.1115721 0.3891712
vt 0.07686654 0.4187417
vt 0.1879565 0.4294755
vt 0.153253 0.4590461
vt 0.09770852 0.4536791
vn -0.007839044 0.01888305 -0.999791
vn -0.007839043 0.01888305 -0.999791
vn -0.007839043 0.01888305 -0.999791
vn -0.002253554 0.01944616 -0.9998084
vn -0.002253554 0.01944616 -0.9998084
vn -0.002253554 0.01944616 -0.9998084
vn -0.8622306 0.01949912 -0.5061404
vn -0.8622306 0.01949912 -0.5061404
vn -0.8622306 0.01949912 -0.5061403
vn -0.8638675 0.01983735 -0.5033283
vn -0.8638676 0.01983735 -0.5033282
vn -0.8638676 0.01983735 -0.5033282
vn -0.8644947 0.01985336 0.5022497
vn -0.8644946 0.01985336 0.5022498
vn -0.8644946 0.01985336 0.5022498
vn -0.8576614 0.02119684 0.5137778
vn -0.8576614 0.02119684 0.5137779
vn -0.8576614 0.02119684 0.5137779
vn -0.008296901 0.02110379 0.9997428
vn -0.008296901 0.02110379 0.9997428
vn -0.008296902 0.02110379 0.9997428
vn -0.0260603 0.01909057 0.9994782
vn -0.0260603 0.01909057 0.9994782
vn -0.0260603 0.01909057 0.9994782
vn 0.87075 0.01927613 0.4913481
vn 0.87075 0.01927613 0.491348
vn 0.87075 0.01927613 0.4913481
vn 0.8732226 0.0197505 0.486921
vn 0.8732227 0.0197505 0.486921
vn 0.8732227 0.0197505 0.486921
vn 0.8658663 0.01958571 -0.499892
vn 0.8658663 0.01958571 -0.499892
vn 0.8658663 0.01958571 -0.499892
vn 0.86931 0.01888886 -0.4939064
vn 0.86931 0.01888886 -0.4939064
vn 0.86931 0.01888886 -0.4939063
vn -0.04221082 0.1016716 -0.9939221
vn -0.04221082 0.1016716 -0.9939221
vn -0.04221082 0.1016716 -0.9939221
vn 0.8798493 0.1064862 -0.4631695
vn 0.8798493 0.1064862 -0.4631695
vn 0.8798493 0.1064862 -0.4631695
vn 0.8989643 0.1088149 0.4242905
vn 0.8989643 0.1088148 0.4242905
vn 0.8989643 0.1088148 0.4242905
vn -0.1356965 0.09940011 0.9857515
vn -0.1356965 0.0994001 0.9857515
vn -0.1356965 0.0994001 0.9857515
vn -0.8244848 0.09348322 0.5581089
vn -0.8244848 0.09348322 0.5581089
vn -0.8244848 0.09348322 0.5581089
vn -0.8521539 0.09660664 -0.5142965
vn -0.8521539 0.09660664 -0.5142965
vn -0.8521539 0.09660664 -0.5142964
vn 0.0003641932 -0.9777143 0.2099395
vn 0.0003641932 -0.9777143 0.2099395
vn 0.0003641932 -0.9777143 0.2099395
vn 0.0003641932 -0.9777143 0.2099395
vn 0.0003641932 -0.9777143 0.2099395
vn 0.0003641933 -0.9777143 0.2099395
g bladeStick_break01_0
f 3/3/3 2/2/2 1/1/1
f 6/6/6 5/5/5 4/4/4
f 9/9/9 8/8/8 7/7/7
f 12/12/12 11/11/11 10/10/10
f 15/15/15 14/14/14 13/13/13
f 18/18/18 17/17/17 16/16/16
f 21/21/21 20/20/20 19/19/19
f 24/24/24 23/23/23 22/22/22
f 27/27/27 26/26/26 25/25/25
f 30/30/30 29/29/29 28/28/28
f 33/33/33 32/32/32 31/31/31
f 36/36/36 35/35/35 34/34/34
f 39/39/39 38/38/38 37/37/37
f 42/42/42 41/41/41 40/40/40
f 45/45/45 44/44/44 43/43/43
f 48/48/48 47/47/47 46/46/46
f 51/51/51 50/50/50 49/49/49
f 54/54/54 53/53/53 52/52/52
f 57/57/57 56/56/56 55/55/55
f 55/55/55 58/58/58 57/57/57
f 58/58/58 59/59/59 57/57/57
f 59/59/59 60/60/60 57/57/57
