g bladeStick
v 0.0126025 0.4552611 -0.02616302
v -0.01760807 0.4427187 -0.02616302
v 0.01643551 0.0476899 -0.03280261
v -0.01760807 0.4427187 -0.02616302
v -0.02144108 0.0476899 -0.03280262
v 0.01643551 0.0476899 -0.03280261
v -0.0249152 -0.1621474 -0.03881942
v 0.01989681 -0.1542295 -0.03879793
v -0.02144108 0.0476899 -0.03280262
v -0.01760807 0.4427187 -0.02616302
v -0.04038029 0.0476899 8.912757E-09
v -0.04738407 -0.1815948 9.909272E-09
v -0.0249152 -0.1621474 -0.03881942
v -0.01760807 0.4427187 -0.02616302
v -0.03271305 0.4487618 9.066425E-09
v -0.04038029 0.0476899 8.912757E-09
v -0.04038029 0.0476899 8.912757E-09
v -0.03271305 0.4487618 9.066425E-09
v -0.02144108 0.0476899 0.03280262
v -0.02494023 -0.1792959 0.03886224
v -0.04738407 -0.1815948 9.909272E-09
v -0.03271305 0.4487618 9.066425E-09
v -0.01760807 0.4257842 0.02616303
v -0.02144108 0.0476899 0.03280262
v -0.02144108 0.0476899 0.03280262
v -0.01760807 0.4257842 0.02616303
v 0.01643551 0.0476899 0.03280264
v 0.01991573 -0.166148 0.03882985
v -0.02494023 -0.1792959 0.03886224
v -0.01760807 0.4257842 0.02616303
v 0.0126025 0.467027 0.02616303
v 0.01643551 0.0476899 0.03280264
v 0.01643551 0.0476899 0.03280264
v 0.0126025 0.467027 0.02616303
v 0.03537349 0.0476899 8.912757E-09
v 0.04231625 -0.1605288 9.909272E-09
v 0.01991573 -0.166148 0.03882985
v 0.0126025 0.467027 0.02616303
v 0.02770687 0.4442635 9.066425E-09
v 0.03537349 0.0476899 8.912757E-09
v 0.03537349 0.0476899 8.912757E-09
v 0.02770687 0.4442635 9.066425E-09
v 0.01643551 0.0476899 -0.03280261
v 0.01989681 -0.1542295 -0.03879793
v 0.04231625 -0.1605288 9.909272E-09
v 0.02770687 0.4442635 9.066425E-09
v 0.0126025 0.4552611 -0.02616302
v 0.01643551 0.0476899 -0.03280261
v -0.003754313 0.7041921 -3.733677E-06
v -0.01760807 0.4427187 -0.02616302
v 0.0126025 0.4552611 -0.02616302
v -0.003754313 0.7041921 -3.733677E-06
v 0.0126025 0.4552611 -0.02616302
v 0.02770687 0.4442635 9.066425E-09
v -0.003754313 0.7041921 -3.733677E-06
v 0.02770687 0.4442635 9.066425E-09
v 0.0126025 0.467027 0.02616303
v -0.003754313 0.7041921 -3.733677E-06
v 0.0126025 0.467027 0.02616303
v -0.01760807 0.4257842 0.02616303
v -0.003754313 0.7041921 -3.733677E-06
v -0.01760807 0.4257842 0.02616303
v -0.03271305 0.4487618 9.066425E-09
v -0.003754313 0.7041921 -3.733677E-06
v -0.03271305 0.4487618 9.066425E-09
v -0.01760807 0.4427187 -0.02616302
v -0.04738407 -0.1815948 9.909272E-09
v -0.02494023 -0.1792959 0.03886224
v -0.02245121 -0.2669005 0.04558492
v -0.05473514 -0.2624769 1.140404E-08
v -0.04738407 -0.1815948 9.909272E-09
v -0.05473514 -0.2624769 1.140404E-08
v -0.02861881 -0.2497517 -0.04558492
v -0.0249152 -0.1621474 -0.03881942
v 0.01989681 -0.1542295 -0.03879793
v -0.0249152 -0.1621474 -0.03881942
v -0.02861881 -0.2497517 -0.04558492
v 0.02977962 -0.2418334 -0.04558492
v 0.04231625 -0.1605288 9.909272E-09
v 0.01989681 -0.1542295 -0.03879793
v 0.02977962 -0.2418334 -0.04558492
v 0.04972835 -0.2417271 1.140404E-08
v 0.01991573 -0.166148 0.03882985
v 0.04231625 -0.1605288 9.909272E-09
v 0.04972835 -0.2417271 1.140404E-08
v 0.02361324 -0.2473464 0.04558492
v -0.02494023 -0.1792959 0.03886224
v 0.01991573 -0.166148 0.03882985
v 0.02361324 -0.2473464 0.04558492
v -0.02245121 -0.2669005 0.04558492
v 0.02361324 -0.2473464 0.04558492
v 0.04972835 -0.2417271 1.140404E-08
v 0.007929037 -0.265796 -0.0001025896
v -0.05473514 -0.2624769 1.140404E-08
v 0.007929037 -0.265796 -0.0001025896
v -0.02861881 -0.2497517 -0.04558492
v 0.007929037 -0.265796 -0.0001025896
v 0.02977962 -0.2418334 -0.04558492
v -0.02861881 -0.2497517 -0.04558492
v 0.007929037 -0.265796 -0.0001025896
v 0.04972835 -0.2417271 1.140404E-08
v 0.02977962 -0.2418334 -0.04558492
v -0.02245121 -0.2669005 0.04558492
v 0.02361324 -0.2473464 0.04558492
v 0.007929037 -0.265796 -0.0001025896
v -0.05473514 -0.2624769 1.140404E-08
v -0.02245121 -0.2669005 0.04558492
v 0.007929037 -0.265796 -0.0001025896
vt 0.1580389 0.6715716
vt 0.1520547 0.6715716
vt 0.1587982 0.5966141
vt 0.1520547 0.6715716
vt 0.1512954 0.5966141
vt 0.1587982 0.5966141
vt 0.1506074 0.5550492
vt 0.1594838 0.5566176
vt 0.1512954 0.5966141
vt 0.1520547 0.6715716
vt 0.1475441 0.5966141
vt 0.1461568 0.5511971
vt 0.1506074 0.5550492
vt 0.1520547 0.6715716
vt 0.1490628 0.6715716
vt 0.1475441 0.5966141
vt 0.1475441 0.5966141
vt 0.1490628 0.6715716
vt 0.1512954 0.5966141
vt 0.1506025 0.5516524
vt 0.1461568 0.5511971
vt 0.1490628 0.6715716
vt 0.1520547 0.6715716
vt 0.1512954 0.5966141
vt 0.1512954 0.5966141
vt 0.1520547 0.6715716
vt 0.1587982 0.5966141
vt 0.1594875 0.5542567
vt 0.1506025 0.5516524
vt 0.1520547 0.6715716
vt 0.1580389 0.6715716
vt 0.1587982 0.5966141
vt 0.1587982 0.5966141
vt 0.1580389 0.6715716
vt 0.1625494 0.5966141
vt 0.1639246 0.5553698
vt 0.1594875 0.5542567
vt 0.1580389 0.6715716
vt 0.1610309 0.6715716
vt 0.1625494 0.5966141
vt 0.1625494 0.5966141
vt 0.1610309 0.6715716
vt 0.1587982 0.5966141
vt 0.1594838 0.5566176
vt 0.1639246 0.5553698
vt 0.1610309 0.6715716
vt 0.1580389 0.6715716
vt 0.1587982 0.5966141
vt 0.1296431 0.4130229
vt 0.1226244 0.2996164
vt 0.1356114 0.3048842
vt 0.1296431 0.4130229
vt 0.1356114 0.3048842
vt 0.1431676 0.3012108
vt 0.1296431 0.4130229
vt 0.1431676 0.3012108
vt 0.1377377 0.3121653
vt 0.1296431 0.4130229
vt 0.1377377 0.3121653
vt 0.1247507 0.2945656
vt 0.1296431 0.4130229
vt 0.1247507 0.2945656
vt 0.1171945 0.3033865
vt 0.1296431 0.4130229
vt 0.1171945 0.3033865
vt 0.1226244 0.2996164
vt 0.1461568 0.5511971
vt 0.1506025 0.5516524
vt 0.1498739 0.5342996
vt 0.1447006 0.5338442
vt 0.1461568 0.5511971
vt 0.1447006 0.5338442
vt 0.1498739 0.5376965
vt 0.1506074 0.5550492
vt 0.1594838 0.5566176
vt 0.1506074 0.5550492
vt 0.1498739 0.5376965
vt 0.1602199 0.5392649
vt 0.1639246 0.5553698
vt 0.1594838 0.5566176
vt 0.1602199 0.5392649
vt 0.1653928 0.538017
vt 0.1594875 0.5542567
vt 0.1639246 0.5553698
vt 0.1653928 0.538017
vt 0.1602199 0.536904
vt 0.1506025 0.5516524
vt 0.1594875 0.5542567
vt 0.1602199 0.536904
vt 0.1498739 0.5342996
vt 0.1602199 0.536904
vt 0.1653928 0.538017
vt 0.1550467 0.5359306
vt 0.1447006 0.5338442
vt 0.1550467 0.5359306
vt 0.1498739 0.5376965
vt 0.1550467 0.5359306
vt 0.1602199 0.5392649
vt 0.1498739 0.5376965
vt 0.1550467 0.5359306
vt 0.1653928 0.538017
vt 0.1602199 0.5392649
vt 0.1498739 0.5342996
vt 0.1602199 0.536904
vt 0.1550467 0.5359306
vt 0.1447006 0.5338442
vt 0.1498739 0.5342996
vt 0.1550467 0.5359306
vn -0.006736027 0.01622477 -0.9998456
vn -0.006736027 0.01622477 -0.9998456
vn -0.006736028 0.01622477 -0.9998456
vn 2.039337E-07 0.01680577 -0.9998587
vn 2.039337E-07 0.01680577 -0.9998587
vn 2.039337E-07 0.01680577 -0.9998587
vn -0.002532284 0.02916087 -0.9995715
vn -0.002532285 0.02916087 -0.9995715
vn -0.8658962 0.01680373 -0.4999413
vn -0.8658962 0.01680373 -0.4999413
vn -0.8658962 0.01680373 -0.4999413
vn -0.868617 0.02750514 -0.4947201
vn -0.868617 0.02750514 -0.4947201
vn -0.8642536 0.01652081 -0.5027851
vn -0.8642536 0.01652082 -0.502785
vn -0.8642536 0.01652082 -0.5027851
vn -0.8658997 0.01655363 0.4999436
vn -0.8658997 0.01655363 0.4999436
vn -0.8658997 0.01655363 0.4999436
vn -0.8660501 0.0265651 0.4992509
vn -0.8660502 0.0265651 0.4992508
vn -0.859087 0.01769293 0.5115238
vn -0.859087 0.01769293 0.5115238
vn -0.859087 0.01769293 0.5115238
vn -4.261301E-07 0.01755826 0.9998459
vn -4.2613E-07 0.01755826 0.9998459
vn -4.2613E-07 0.01755826 0.9998459
vn -0.003964652 0.02740861 0.9996164
vn -0.003964652 0.02740861 0.9996164
vn -0.02134186 0.01563293 0.99965
vn -0.02134185 0.01563293 0.99965
vn -0.02134185 0.01563293 0.99965
vn 0.8659239 0.01583168 0.4999251
vn 0.8659239 0.01583168 0.4999251
vn 0.8659239 0.01583168 0.4999251
vn 0.8648002 0.02851359 0.5013059
vn 0.8648002 0.02851359 0.5013059
vn 0.8721972 0.01685767 0.488864
vn 0.8721972 0.01685767 0.488864
vn 0.8721972 0.01685767 0.488864
vn 0.8659111 0.01673836 -0.4999178
vn 0.8659111 0.01673836 -0.4999178
vn 0.8659111 0.01673836 -0.4999178
vn 0.8666689 0.02926453 -0.4980248
vn 0.8666689 0.02926453 -0.4980248
vn 0.8688629 0.01623291 -0.4947866
vn 0.8688629 0.01623291 -0.4947866
vn 0.8688629 0.01623291 -0.4947866
vn -0.0422117 0.1016674 -0.9939224
vn -0.0422117 0.1016674 -0.9939224
vn -0.0422117 0.1016674 -0.9939224
vn 0.8798403 0.1064915 -0.4631852
vn 0.8798403 0.1064915 -0.4631851
vn 0.8798403 0.1064915 -0.4631852
vn 0.8989557 0.1088203 0.4243074
vn 0.8989557 0.1088203 0.4243075
vn 0.8989557 0.1088203 0.4243075
vn -0.1356994 0.09939613 0.9857515
vn -0.1356994 0.09939614 0.9857515
vn -0.1356994 0.09939613 0.9857515
vn -0.8244848 0.09348322 0.5581089
vn -0.8244848 0.09348322 0.5581089
vn -0.8244848 0.09348322 0.5581089
vn -0.8521539 0.09660664 -0.5142965
vn -0.8521539 0.09660664 -0.5142965
vn -0.8521539 0.09660664 -0.5142964
vn -0.8377711 0.04588578 0.5440901
vn -0.8377711 0.04588578 0.5440902
vn -0.8377711 0.04588578 0.5440902
vn -0.8377711 0.04588578 0.5440902
vn -0.8764716 0.07658664 -0.4753232
vn -0.8764716 0.07658664 -0.4753232
vn -0.8764716 0.07658664 -0.4753232
vn -0.8764716 0.07658664 -0.4753232
vn -0.0115623 0.0767097 -0.9969864
vn -0.0115623 0.07670971 -0.9969864
vn -0.0115623 0.07670971 -0.9969864
vn -0.0115623 0.07670971 -0.9969864
vn 0.8915364 0.1090157 -0.4396343
vn 0.8915364 0.1090157 -0.4396343
vn 0.8915364 0.1090157 -0.4396343
vn 0.8915365 0.1090157 -0.4396343
vn 0.8596162 0.07979804 0.5046706
vn 0.8596162 0.07979805 0.5046706
vn 0.8596162 0.07979804 0.5046705
vn 0.8596162 0.07979804 0.5046706
vn -0.02789512 0.07854182 0.9965205
vn -0.02789512 0.07854182 0.9965205
vn -0.02789512 0.07854182 0.9965205
vn -0.02789512 0.07854182 0.9965205
vn 0.4908864 -0.8532527 0.1760408
vn 0.4908863 -0.8532528 0.1760408
vn 0.4908864 -0.8532527 0.1760408
vn -0.05101142 -0.9539716 -0.2955267
vn -0.05101142 -0.9539716 -0.2955267
vn -0.05101142 -0.9539716 -0.2955266
vn 0.1221813 -0.9010941 -0.4160542
vn 0.1221813 -0.9010941 -0.4160542
vn 0.1221813 -0.9010941 -0.4160541
vn 0.4880997 -0.8467429 -0.2116251
vn 0.4880997 -0.8467429 -0.2116251
vn 0.4880997 -0.8467429 -0.2116251
vn 0.3801627 -0.8955726 0.2311408
vn 0.3801627 -0.8955726 0.2311408
vn 0.3801628 -0.8955726 0.2311408
vn -0.05289579 -0.9968394 -0.0592735
vn -0.0528958 -0.9968394 -0.05927351
vn -0.0528958 -0.9968394 -0.05927351
g bladeStick_0
f 3/3/3 2/2/2 1/1/1
f 6/6/6 5/5/5 4/4/4
f 7/7/7 5/5/5 6/6/6
f 8/8/8 7/7/7 6/6/6
f 11/11/11 10/10/10 9/9/9
f 12/12/12 11/11/11 9/9/9
f 13/13/13 12/12/12 9/9/9
f 16/16/16 15/15/15 14/14/14
f 19/19/19 18/18/18 17/17/17
f 20/20/20 19/19/19 17/17/17
f 21/21/21 20/20/20 17/17/17
f 24/24/24 23/23/23 22/22/22
f 27/27/27 26/26/26 25/25/25
f 28/28/28 27/27/27 25/25/25
f 29/29/29 28/28/28 25/25/25
f 32/32/32 31/31/31 30/30/30
f 35/35/35 34/34/34 33/33/33
f 36/36/36 35/35/35 33/33/33
f 37/37/37 36/36/36 33/33/33
f 40/40/40 39/39/39 38/38/38
f 43/43/43 42/42/42 41/41/41
f 44/44/44 43/43/43 41/41/41
f 45/45/45 44/44/44 41/41/41
f 48/48/48 47/47/47 46/46/46
f 51/51/51 50/50/50 49/49/49
f 54/54/54 53/53/53 52/52/52
f 57/57/57 56/56/56 55/55/55
f 60/60/60 59/59/59 58/58/58
f 63/63/63 62/62/62 61/61/61
f 66/66/66 65/65/65 64/64/64
f 69/69/69 68/68/68 67/67/67
f 70/70/70 69/69/69 67/67/67
f 73/73/73 72/72/72 71/71/71
f 74/74/74 73/73/73 71/71/71
f 77/77/77 76/76/76 75/75/75
f 78/78/78 77/77/77 75/75/75
f 81/81/81 80/80/80 79/79/79
f 82/82/82 81/81/81 79/79/79
f 85/85/85 84/84/84 83/83/83
f 86/86/86 85/85/85 83/83/83
f 89/89/89 88/88/88 87/87/87
f 90/90/90 89/89/89 87/87/87
f 93/93/93 92/92/92 91/91/91
f 96/96/96 95/95/95 94/94/94
f 99/99/99 98/98/98 97/97/97
f 102/102/102 101/101/101 100/100/100
f 105/105/105 104/104/104 103/103/103
f 108/108/108 107/107/107 106/106/106
