g boatD_COL
v -6.828209 0.0478267 4.740516
v -6.467068 0.0478267 -4.118759
v -1.555986 0.0478267 -3.89134
v -1.595681 0.0478267 4.814295
v 2.417949 0.04782671 -3.89134
v 6.982117 0.04782671 -4.152984
v 7.963331 0.04782671 4.229767
v 2.457645 0.04782671 4.770968
v -1.57856 0.6734866 4.817503
v -6.828209 0.7351647 4.740516
v -6.828209 0.0478267 4.740516
v -1.595681 0.0478267 4.814295
v 2.457645 0.04782671 4.770968
v 2.440524 0.67257 4.774177
v 7.963331 0.04782671 4.229767
v 7.963331 0.7472023 4.229767
v 2.440524 0.67257 4.774177
v 2.457645 0.04782671 4.770968
v -1.555986 0.6734866 5.10778
v -6.828209 0.7351647 5.026561
v -6.828209 0.7351647 4.740516
v -1.57856 0.6734866 4.817503
v 2.440524 0.67257 4.774177
v 2.417949 0.67257 5.064458
v 7.963331 0.7472023 4.229767
v 7.963331 0.7472023 4.515811
v 2.417949 0.67257 5.064458
v 2.440524 0.67257 4.774177
v -1.595681 0.0478267 4.814295
v -1.555986 0.0478267 -3.89134
v 2.417949 0.04782671 -3.89134
v 2.457645 0.04782671 4.770968
v -6.828209 0.0478267 4.740516
v -8.659626 0.02 4.32357
v -8.582659 0.02 -4.045038
v -6.467068 0.0478267 -4.118759
v -6.828209 0.7351647 5.026561
v -8.607018 2.607723 4.864323
v -8.607018 2.607723 4.32357
v -6.828209 0.7351647 4.740516
v -8.582659 2.607723 -4.396338
v -6.68923 0.7911396 -4.118759
v -6.467068 0.0478267 -4.118759
v -8.582659 0.02 -4.045038
v -8.582659 2.607723 -4.396338
v -8.704775 2.607723 -4.730345
v -6.546087 0.7911396 -4.51558
v -6.68923 0.7911396 -4.118759
v 6.982117 0.04782671 -4.152984
v 10.47012 0.02 -3.024116
v 10.65991 0.02 2.819982
v 7.963331 0.04782671 4.229767
v 7.963331 0.04782671 4.229767
v 10.65991 0.02 2.819982
v 10.65991 0.9897435 2.819982
v 7.963331 0.7472023 4.229767
v 7.963331 0.7472023 4.229767
v 10.65991 0.9897435 2.819982
v 10.62162 0.9897435 3.221716
v 7.963331 0.7472023 4.515811
v 6.982117 0.04782671 -4.152984
v 7.551652 0.8802657 -4.093428
v 10.47012 1.083564 -3.024116
v 10.47012 0.02 -3.024116
v 7.551652 0.8802657 -4.093428
v 7.78054 0.8802657 -4.453035
v 10.65512 1.068886 -3.293308
v 10.47012 1.083564 -3.024116
v 6.982117 0.04782671 -4.152984
v 7.209344 2.552888E-16 -4.516349
v 7.78054 0.8802657 -4.453035
v 7.551652 0.8802657 -4.093428
v -6.68923 0.7911396 -4.118759
v -6.546087 0.7911396 -4.51558
v -6.324343 -0.006147091 -4.516813
v -6.467068 0.0478267 -4.118759
v -8.607019 4.325958 4.864322
v -13.60863 4.325954 2.798026
v -13.60863 4.325954 -2.597113
v -8.704776 4.325957 -4.730345
v -1.555986 0.6734866 5.10778
v -1.555986 -1.084158 5.10778
v -6.828209 -1.084157 5.026561
v -6.828209 0.7351647 5.026561
v 7.963331 0.7472023 4.515811
v 7.963331 -1.084157 4.515811
v 2.417949 -1.084158 5.064458
v 2.417949 0.67257 5.064458
v 2.417949 0.67257 5.064458
v 2.417949 -1.084158 5.064458
v -1.555986 -1.084158 5.10778
v -1.555986 0.6734866 5.10778
v -6.828209 0.7351647 5.026561
v -6.828209 -1.084157 5.026561
v -8.555112 -1.084157 4.864323
v -8.607018 2.607723 4.864323
v 10.62162 0.9897435 3.221716
v 10.62162 -1.084157 3.221716
v 7.963331 -1.084157 4.515811
v 7.963331 0.7472023 4.515811
v -8.607018 2.607723 4.864323
v -8.555112 -1.084157 4.864323
v -12.90374 -1.08416 3.529872
v -13.60863 2.607719 2.798026
v 12.73966 3.041158 2.045201
v 12.48019 -1.084154 2.045604
v 10.62162 -1.084157 3.221716
v 10.62162 0.9897435 3.221716
v -6.467068 0.0478267 -4.118759
v -6.324343 -0.006147091 -4.516813
v -1.555986 9.516047E-16 -4.484728
v -1.555986 0.0478267 -3.89134
v 2.417949 0.04782671 -3.89134
v 2.417949 9.516047E-16 -4.484728
v 7.209344 2.552888E-16 -4.516349
v 6.982117 0.04782671 -4.152984
v -1.555986 0.0478267 -3.89134
v -1.555986 9.516047E-16 -4.484728
v 2.417949 9.516047E-16 -4.484728
v 2.417949 0.04782671 -3.89134
v 12.70163 3.020291 -1.995827
v 16.37659 3.253451 -0.186552
v 16.38927 3.211689 0.3510039
v 12.73966 3.041158 2.045201
v 7.78054 0.8802657 -4.453035
v 7.209344 2.552888E-16 -4.516349
v 10.65512 -1.084157 -3.293308
v 10.65512 1.068886 -3.293308
v 10.65512 1.068886 -3.293308
v 10.65512 -1.084157 -3.293308
v 12.43339 -1.084154 -1.99357
v 12.70163 3.020291 -1.995827
v 16.38927 3.211689 0.3510039
v 13.81144 -1.084154 0.4465111
v 12.48019 -1.084154 2.045604
v 12.73966 3.041158 2.045201
v 12.70163 3.020291 -1.995827
v 12.43339 -1.084154 -1.99357
v 13.79876 -1.084154 -0.3690058
v 16.37659 3.253451 -0.186552
v 16.37659 3.253451 -0.186552
v 13.79876 -1.084154 -0.3690058
v 13.81144 -1.084154 0.4465111
v 16.38927 3.211689 0.3510039
v -13.60863 2.607719 2.798026
v -12.90374 -1.08416 3.529872
v -12.95184 -1.084158 -3.405455
v -13.60863 2.607719 -2.597113
v -8.704775 2.607723 -4.730345
v -8.652868 -1.084159 -4.730345
v -6.324343 -0.006147091 -4.516813
v -6.546087 0.7911396 -4.51558
v -13.60863 2.607719 -2.597113
v -12.95184 -1.084158 -3.405455
v -8.652868 -1.084159 -4.730345
v -8.704775 2.607723 -4.730345
v -6.324343 -0.006147091 -4.516813
v -8.652868 -1.084159 -4.730345
v -1.555986 -1.084158 -4.484728
v -1.555986 9.516047E-16 -4.484728
v 2.417949 9.516047E-16 -4.484728
v 2.417949 -1.084158 -4.484728
v 10.65512 -1.084157 -3.293308
v 7.209344 2.552888E-16 -4.516349
v -1.555986 9.516047E-16 -4.484728
v -1.555986 -1.084158 -4.484728
v 2.417949 -1.084158 -4.484728
v 2.417949 9.516047E-16 -4.484728
v 10.47012 0.02 -3.024116
v 10.47012 1.083564 -3.024116
v 10.65991 0.9897435 2.819982
v 10.65991 0.02 2.819982
v 10.64419 3.041151 -3.303002
v 12.70163 3.020291 -1.995827
v 12.73966 3.041158 2.045201
v 10.60619 3.04115 3.220245
v 10.65991 0.9897435 2.819982
v 10.60619 3.04115 3.220245
v 10.62162 0.9897435 3.221716
v 10.62162 0.9897435 3.221716
v 10.60619 3.04115 3.220245
v 12.73966 3.041158 2.045201
v 10.65512 1.068886 -3.293308
v 10.64419 3.041151 -3.303002
v 10.47012 1.083564 -3.024116
v 12.70163 3.020291 -1.995827
v 10.64419 3.041151 -3.303002
v 10.65512 1.068886 -3.293308
v 10.47012 1.083564 -3.024116
v 10.64419 3.041151 -3.303002
v 10.60619 3.04115 3.220245
v 10.65991 0.9897435 2.819982
v -8.607018 2.607723 4.864323
v -8.607019 4.325958 4.864322
v -8.607018 2.607723 4.32357
v -8.607019 4.325958 4.864322
v -8.704776 4.325957 -4.730345
v -8.582659 2.607723 -4.396338
v -8.607018 2.607723 4.32357
v -13.60863 2.607719 2.798026
v -13.60863 4.325954 2.798026
v -8.607019 4.325958 4.864322
v -8.607018 2.607723 4.864323
v -8.582659 2.607723 -4.396338
v -8.704776 4.325957 -4.730345
v -8.704775 2.607723 -4.730345
v -8.704775 2.607723 -4.730345
v -8.704776 4.325957 -4.730345
v -13.60863 4.325954 -2.597113
v -13.60863 2.607719 -2.597113
v -13.60863 2.607719 -2.597113
v -13.60863 4.325954 -2.597113
v -13.60863 4.325954 2.798026
v -13.60863 2.607719 2.798026
v -8.659626 0.02 4.32357
v -8.607018 2.607723 4.32357
v -8.582659 2.607723 -4.396338
v -8.582659 0.02 -4.045038
v -6.828209 0.7351647 4.740516
v -8.607018 2.607723 4.32357
v -8.659626 0.02 4.32357
v -6.828209 0.0478267 4.740516
vt 0 0
vt 0 1
vt 0.1926624 1
vt 0.1880311 4.172325E-07
vt 0.8073376 1
vt 1 1
vt 1 0
vt 0.8119687 5.960464E-08
vt 0.6199425 1
vt 1 1
vt 1 0
vt 0.6239376 0
vt 0 0
vt 0 1
vt 0 0
vt 0 1
vt 0.3800575 1
vt 0.3760624 0
vt 0.6146745 1
vt 1 1
vt 1 0
vt 0.6199419 1.60421E-06
vt 0 0
vt 0 0.2377888
vt 0 4.768372E-07
vt 0 1
vt 0.3853255 1
vt 0.3800575 2.682209E-07
vt 0.1880311 4.172325E-07
vt 0.1926624 1
vt 0.5 0.9408981
vt 0.4670221 0.06595588
vt 0 0
vt 0.123334 0.246668
vt 0.8456295 0.308741
vt 1 0
vt 0 0
vt 0 1
vt 1 1
vt 1 0
vt 0 1
vt 1 1
vt 1 0
vt 0.691259 0
vt 0 0
vt 0 1
vt 1 1
vt 1 0
vt 0 0
vt 0 1
vt 1 1
vt 1 0
vt 0 0
vt 0 1
vt 1.058919 0.9999996
vt 1 0
vt 0 0
vt -0.000255106 1.000011
vt 1 1
vt 1 0
vt 0 0
vt 0 1
vt 1 1
vt 1 0
vt 0 0
vt 0 1
vt 1 1
vt 1 0
vt 0 0
vt 0 1
vt 1 1
vt 1 0
vt 0 0
vt 0 1
vt 1 1
vt 1 0
vt 0.4706357 0.03716055
vt 0 1
vt 1 0
vt 0.5362802 -0.04623799
vt 0 0
vt 0 1
vt 1 1
vt 1 0
vt 0 0
vt 0 1
vt 1 1
vt 1 0
vt 0 0
vt 0 1
vt 1 1
vt 1 0
vt 0 0
vt 0 1
vt 1 1
vt 1 0
vt 0 0
vt 0 1
vt 1 1
vt 1 0
vt 0 0
vt 0 1
vt 1 1
vt 1 0
vt -0.0002992742 -0.6099449
vt 0 1
vt 1 1
vt 1 0
vt 0 0
vt 0 1
vt 1 1
vt 1 0
vt 0 0
vt 0 1
vt 1 1
vt 1 0
vt 0 0
vt 0 1
vt 1 1
vt 1 0
vt -0.1338912 0.01681521
vt 0 1
vt 1 1
vt -27.33438 -0.0132701
vt 0 0
vt 0 1
vt 1 1
vt 1 0
vt 0 0
vt 0 1
vt 1 1
vt 1 -3.111913E-07
vt 0 0
vt 0 1
vt 1 1
vt 0.9941902 -0.4176241
vt -1.107144E-08 2.283143E-09
vt 0 1
vt 1 1
vt 1 0
vt 0 0
vt 0 1
vt 1 1
vt 1 0
vt 0 0
vt 0 1
vt 1 1
vt 1 0
vt 0 0
vt 0 1
vt 1 1
vt 1 0
vt 0 0
vt 0 1
vt 1 1
vt 1 0
vt 0 0
vt 0 1
vt 1 1
vt 1 0
vt 0 0
vt 0 1
vt 1 1
vt 1 0
vt 0 0
vt 0 1
vt 1 1
vt 1 0
vt 0 0
vt 0 1
vt 1.000002 0.9048165
vt 1 0
vt -0.04605566 0.08985189
vt 0.1652518 1.03208
vt 0.8418866 1.057873
vt 1.067139 -0.03418192
vt 3.71042E-06 1.348169E-07
vt 0.9995227 -1.912351E-05
vt 1 0
vt 1 0
vt 0.9995227 -1.912351E-05
vt 0.9989721 0.9996483
vt 0 0
vt -0.002531173 -7.182546E-05
vt 1 0
vt -2.743335E-07 0.9999998
vt -0.002531173 -7.182546E-05
vt 0 0
vt 0 0
vt -0.04605566 0.08985189
vt 1.067139 -0.03418192
vt 0.9999335 -0.01623595
vt 0 0
vt 0.4706357 0.03716055
vt 1 0
vt 0.4706357 0.03716055
vt 0.5362802 -0.04623799
vt 0 0
vt 1 0
vt 0 1
vt 0 1
vt 0.4706357 0.03716055
vt 0 0
vt 0 0
vt 0.5362802 -0.04623799
vt 1 0
vt 1 0
vt 0.5362802 -0.04623799
vt 1 1
vt 1 1
vt 1 0
vt 1 0
vt 0 0
vt 0 0
vt 1 0.246668
vt 0 1
vt 1 0
vt 0.691259 0
vt 0 0
vt 0 1
vt 1 0.246668
vt 1 0
vn 0 1 0
vn 0 1 0
vn 0 1 0
vn 0 1 0
vn 0 1 0
vn 0 1 0
vn 0 1 0
vn 0 1 0
vn 0.01439475 0.002255297 -0.9998939
vn 0.01439475 0.002255297 -0.9998939
vn 0.01439475 0.002255297 -0.9998939
vn 0.01439475 0.002255297 -0.9998939
vn -0.01073297 0.005131283 -0.9999293
vn -0.01073297 0.005131283 -0.9999293
vn -0.09797113 0.00114481 -0.9951886
vn -0.09797114 0.00114481 -0.9951886
vn -0.09797115 0.00114481 -0.9951886
vn -0.09797113 0.00114481 -0.9951886
vn 0.01172989 0.9999311 -0.0004591473
vn 0.01172989 0.9999311 -0.0004591473
vn 0.0117299 0.9999311 -0.0004591473
vn 0.01172989 0.9999311 -0.0004591473
vn 0.0002293489 1 0
vn 0.0002293489 1 0
vn -0.01353705 0.9999082 -0.0005298661
vn -0.01353705 0.9999082 -0.0005298661
vn -0.01353705 0.9999082 -0.0005298661
vn -0.01353705 0.9999082 -0.0005298661
vn 0 1 0
vn 0 1 0
vn 0 1 0
vn 0 1 0
vn -0.01406765 0.9999011 -0.0003577437
vn -0.01406765 0.9999011 -0.0003577437
vn -0.01406765 0.9999011 -0.0003577436
vn -0.01406765 0.9999011 -0.0003577437
vn 0.7250229 0.6887248 0
vn 0.7250229 0.6887248 0
vn 0.7250229 0.6887248 0
vn 0.7250229 0.6887248 0
vn -0.003888864 0.1046238 0.9945043
vn -0.003888864 0.1046237 0.9945043
vn -0.003888863 0.1046237 0.9945043
vn -0.003888864 0.1046237 0.9945043
vn 0.6661543 0.7455676 0.01916646
vn 0.6661543 0.7455676 0.01916646
vn 0.6661543 0.7455676 0.01916646
vn 0.6661543 0.7455676 0.01916646
vn 0.008964862 0.9999596 -0.0007378932
vn 0.008964862 0.9999596 -0.0007378932
vn 0.008964861 0.9999596 -0.0007378932
vn 0.008964861 0.9999596 -0.0007378932
vn -0.4633085 0 -0.8861971
vn -0.4633085 0 -0.886197
vn -0.4633085 0 -0.886197
vn -0.4633085 0 -0.886197
vn -0.09280321 0.995671 -0.005165567
vn -0.09280321 0.995671 -0.005165567
vn -0.09280321 0.995671 -0.005165567
vn -0.09280321 0.995671 -0.005165568
vn -0.3254611 0.06814021 0.9430971
vn -0.3254611 0.06814022 0.943097
vn -0.3254611 0.06814021 0.943097
vn -0.3254611 0.06814021 0.943097
vn -0.04669546 0.9974475 -0.05401864
vn -0.04669546 0.9974475 -0.05401864
vn -0.04669546 0.9974475 -0.05401863
vn -0.04669546 0.9974475 -0.05401863
vn -0.7123443 0.5091068 -0.4830898
vn -0.7123443 0.5091068 -0.4830898
vn -0.7123443 0.5091068 -0.4830898
vn -0.7123443 0.5091068 -0.4830897
vn 0.9134306 0.262946 0.3106509
vn 0.9134305 0.262946 0.3106509
vn 0.9134305 0.262946 0.3106509
vn 0.9134305 0.262946 0.3106509
vn -6.470945E-07 1 0
vn -6.470945E-07 1 0
vn -6.470944E-07 1 0
vn -6.470946E-07 1 0
vn -0.01540322 0 0.9998814
vn -0.01540322 0 0.9998814
vn -0.01540322 0 0.9998814
vn -0.01540322 0 0.9998814
vn 0.09845687 0 0.9951413
vn 0.09845687 0 0.9951413
vn 0.09845687 0 0.9951413
vn 0.09845687 0 0.9951413
vn 0.01090069 0 0.9999406
vn 0.01090069 0 0.9999406
vn 0.01090069 0 0.9999406
vn 0.01090069 0 0.9999406
vn -0.0926243 -0.0008723791 0.9957008
vn -0.09262429 -0.0008723792 0.9957008
vn -0.09262429 -0.0008723793 0.9957008
vn -0.0926243 -0.0008723791 0.9957008
vn 0.437704 0 0.8991191
vn 0.437704 0 0.8991191
vn 0.437704 0 0.8991191
vn 0.437704 0 0.8991191
vn -0.3412261 0.05801544 0.9381893
vn -0.3412261 0.05801544 0.9381893
vn -0.3412261 0.05801544 0.9381893
vn -0.3412261 0.05801544 0.9381893
vn 0.5172917 -0.02159606 0.8555366
vn 0.5172917 -0.02159606 0.8555366
vn 0.5172917 -0.02159606 0.8555366
vn 0.5172917 -0.02159606 0.8555366
vn 0.002098639 0.9947983 -0.101843
vn 0.002098639 0.9947983 -0.1018431
vn 0.002098639 0.9947983 -0.1018431
vn 0.002098639 0.9947983 -0.1018431
vn -0.003141543 0.9949604 -0.1002194
vn -0.003141543 0.9949604 -0.1002194
vn -0.003141543 0.9949604 -0.1002194
vn -0.003141543 0.9949604 -0.1002194
vn 0 0.9967676 -0.08033885
vn 0 0.9967676 -0.08033885
vn 0 0.9967676 -0.08033885
vn 0 0.9967676 -0.08033885
vn -0.05511129 0.9984668 0.005166952
vn -0.05511127 0.9984668 0.005166951
vn -0.05511127 0.9984668 0.00516695
vn -0.05511128 0.9984668 0.00516695
vn 0.3467137 -0.04573423 -0.9368554
vn 0.3467137 -0.04573422 -0.9368554
vn 0.3467137 -0.04573423 -0.9368554
vn 0.3467137 -0.04573423 -0.9368554
vn 0.5702079 -0.02473892 -0.8211278
vn 0.5702079 -0.02473892 -0.8211278
vn 0.5702078 -0.02473892 -0.8211279
vn 0.5702079 -0.02473892 -0.8211278
vn 0.547181 -0.1750371 0.8185078
vn 0.547181 -0.1750371 0.8185079
vn 0.547181 -0.1750371 0.8185078
vn 0.547181 -0.1750371 0.8185079
vn 0.560092 -0.1715243 -0.8104791
vn 0.5600921 -0.1715243 -0.810479
vn 0.5600921 -0.1715243 -0.810479
vn 0.5600921 -0.1715243 -0.810479
vn 0.8582665 -0.5122122 -0.03189452
vn 0.8582665 -0.5122122 -0.03189452
vn 0.8582665 -0.5122123 -0.03189452
vn 0.8582665 -0.5122122 -0.03189452
vn -0.9834031 -0.1813934 0.003836284
vn -0.9834031 -0.1813934 0.003836284
vn -0.9834031 -0.1813934 0.003836285
vn -0.9834031 -0.1813934 0.003836285
vn 0.09601414 0.006126174 -0.9953611
vn 0.09601415 0.006126175 -0.9953611
vn 0.09601413 0.006126175 -0.9953611
vn 0.09601415 0.006126175 -0.9953611
vn -0.3509255 0.06855659 -0.9338904
vn -0.3509255 0.06855659 -0.9338904
vn -0.3509255 0.06855658 -0.9338904
vn -0.3509255 0.06855659 -0.9338904
vn 0.02329726 0.07337573 -0.9970322
vn 0.02329726 0.07337574 -0.9970322
vn 0.02329726 0.07337572 -0.9970322
vn 0.02329726 0.07337572 -0.9970322
vn 0.08172441 -0.387954 -0.9180483
vn 0.08172442 -0.387954 -0.9180483
vn 0.08172441 -0.387954 -0.9180483
vn 0.08172441 -0.3879539 -0.9180483
vn 0 0 -1
vn 0 0 -1
vn 0 0 -1
vn 0 0 -1
vn -0.9994732 0 0.03245861
vn -0.9994732 0 0.03245861
vn -0.9994732 0 0.03245861
vn -0.9994732 0 0.03245861
vn 0.005037515 0.9999853 -0.001975206
vn 0.005037515 0.9999853 -0.001975206
vn 0.005037516 0.9999853 -0.001975206
vn 0.005037516 0.9999853 -0.001975206
vn -0.9954619 -0.007558879 -0.09486074
vn -0.9954619 -0.007558879 -0.09486075
vn -0.9954619 -0.007558879 -0.09486075
vn 0.4824294 0.004257923 0.8759245
vn 0.4824295 0.004257923 0.8759245
vn 0.4824294 0.004257922 0.8759245
vn -0.8243046 -0.007351732 -0.5660987
vn -0.8243046 -0.007351732 -0.5660987
vn -0.8243048 -0.007351732 -0.5660987
vn 0.5362509 -0.001175958 -0.8440579
vn 0.5362509 -0.001175958 -0.8440577
vn 0.5362509 -0.001175958 -0.8440577
vn -0.999483 0.02962611 0.01249221
vn -0.999483 0.02962611 0.01249221
vn -0.999483 0.02962611 0.01249221
vn -0.999483 0.02962611 0.01249221
vn 1 1.452122E-07 0
vn 1 1.452122E-07 0
vn 1 1.452122E-07 0
vn 0.9993526 0.03575401 -0.004004958
vn 0.9993526 0.03575401 -0.004004957
vn 0.9993526 0.03575401 -0.004004957
vn 0.9993526 0.03575401 -0.004004958
vn -0.3818254 0 0.9242344
vn -0.3818254 0 0.9242344
vn -0.3818254 0 0.9242344
vn -0.3818254 0 0.9242344
vn 0.939197 0 -0.343379
vn 0.939197 0 -0.343379
vn 0.939197 0 -0.343379
vn -0.3989025 0 -0.9169933
vn -0.3989025 0 -0.9169933
vn -0.3989025 0 -0.9169933
vn -0.3989025 0 -0.9169933
vn -1 -4.480013E-07 0
vn -1 -4.480013E-07 0
vn -1 -4.480013E-07 0
vn -1 -4.480013E-07 0
vn 0.9999348 -0.00976184 0.005929182
vn 0.9999348 -0.00976184 0.005929182
vn 0.9999348 -0.00976184 0.005929182
vn 0.9999348 -0.00976184 0.005929182
vn 0.223313 -0.0035872 -0.9747401
vn 0.2233131 -0.003587201 -0.9747401
vn 0.223313 -0.0035872 -0.9747401
vn 0.223313 -0.003587201 -0.9747401
g boatD_COL_0
f 3/3/3 2/2/2 1/1/1
f 4/4/4 3/3/3 1/1/1
f 7/7/7 6/6/6 5/5/5
f 8/8/8 7/7/7 5/5/5
f 11/11/11 10/10/10 9/9/9
f 12/12/12 11/11/11 9/9/9
f 12/12/12 9/9/9 13/13/13
f 9/9/9 14/14/14 13/13/13
f 17/17/17 16/16/16 15/15/15
f 18/18/18 17/17/17 15/15/15
f 21/21/21 20/20/20 19/19/19
f 22/22/22 21/21/21 19/19/19
f 22/22/22 19/19/19 23/23/23
f 19/19/19 24/24/24 23/23/23
f 27/27/27 26/26/26 25/25/25
f 28/28/28 27/27/27 25/25/25
f 31/31/31 30/30/30 29/29/29
f 32/32/32 31/31/31 29/29/29
f 35/35/35 34/34/34 33/33/33
f 36/36/36 35/35/35 33/33/33
f 39/39/39 38/38/38 37/37/37
f 40/40/40 39/39/39 37/37/37
f 43/43/43 42/42/42 41/41/41
f 44/44/44 43/43/43 41/41/41
f 47/47/47 46/46/46 45/45/45
f 48/48/48 47/47/47 45/45/45
f 51/51/51 50/50/50 49/49/49
f 52/52/52 51/51/51 49/49/49
f 55/55/55 54/54/54 53/53/53
f 56/56/56 55/55/55 53/53/53
f 59/59/59 58/58/58 57/57/57
f 60/60/60 59/59/59 57/57/57
f 63/63/63 62/62/62 61/61/61
f 64/64/64 63/63/63 61/61/61
f 67/67/67 66/66/66 65/65/65
f 68/68/68 67/67/67 65/65/65
f 71/71/71 70/70/70 69/69/69
f 72/72/72 71/71/71 69/69/69
f 75/75/75 74/74/74 73/73/73
f 76/76/76 75/75/75 73/73/73
f 79/79/79 78/78/78 77/77/77
f 80/80/80 79/79/79 77/77/77
f 83/83/83 82/82/82 81/81/81
f 84/84/84 83/83/83 81/81/81
f 87/87/87 86/86/86 85/85/85
f 88/88/88 87/87/87 85/85/85
f 91/91/91 90/90/90 89/89/89
f 92/92/92 91/91/91 89/89/89
f 95/95/95 94/94/94 93/93/93
f 96/96/96 95/95/95 93/93/93
f 99/99/99 98/98/98 97/97/97
f 100/100/100 99/99/99 97/97/97
f 103/103/103 102/102/102 101/101/101
f 104/104/104 103/103/103 101/101/101
f 107/107/107 106/106/106 105/105/105
f 108/108/108 107/107/107 105/105/105
f 111/111/111 110/110/110 109/109/109
f 112/112/112 111/111/111 109/109/109
f 115/115/115 114/114/114 113/113/113
f 116/116/116 115/115/115 113/113/113
f 119/119/119 118/118/118 117/117/117
f 120/120/120 119/119/119 117/117/117
f 123/123/123 122/122/122 121/121/121
f 124/124/124 123/123/123 121/121/121
f 127/127/127 126/126/126 125/125/125
f 128/128/128 127/127/127 125/125/125
f 131/131/131 130/130/130 129/129/129
f 132/132/132 131/131/131 129/129/129
f 135/135/135 134/134/134 133/133/133
f 136/136/136 135/135/135 133/133/133
f 139/139/139 138/138/138 137/137/137
f 140/140/140 139/139/139 137/137/137
f 143/143/143 142/142/142 141/141/141
f 144/144/144 143/143/143 141/141/141
f 147/147/147 146/146/146 145/145/145
f 148/148/148 147/147/147 145/145/145
f 151/151/151 150/150/150 149/149/149
f 152/152/152 151/151/151 149/149/149
f 155/155/155 154/154/154 153/153/153
f 156/156/156 155/155/155 153/153/153
f 159/159/159 158/158/158 157/157/157
f 160/160/160 159/159/159 157/157/157
f 163/163/163 162/162/162 161/161/161
f 164/164/164 163/163/163 161/161/161
f 167/167/167 166/166/166 165/165/165
f 168/168/168 167/167/167 165/165/165
f 171/171/171 170/170/170 169/169/169
f 172/172/172 171/171/171 169/169/169
f 175/175/175 174/174/174 173/173/173
f 176/176/176 175/175/175 173/173/173
f 179/179/179 178/178/178 177/177/177
f 182/182/182 181/181/181 180/180/180
f 185/185/185 184/184/184 183/183/183
f 188/188/188 187/187/187 186/186/186
f 191/191/191 190/190/190 189/189/189
f 192/192/192 191/191/191 189/189/189
f 195/195/195 194/194/194 193/193/193
f 198/198/198 197/197/197 196/196/196
f 199/199/199 198/198/198 196/196/196
f 202/202/202 201/201/201 200/200/200
f 203/203/203 202/202/202 200/200/200
f 206/206/206 205/205/205 204/204/204
f 209/209/209 208/208/208 207/207/207
f 210/210/210 209/209/209 207/207/207
f 213/213/213 212/212/212 211/211/211
f 214/214/214 213/213/213 211/211/211
f 217/217/217 216/216/216 215/215/215
f 218/218/218 217/217/217 215/215/215
f 221/221/221 220/220/220 219/219/219
f 222/222/222 221/221/221 219/219/219
