g boatDio_COL
v -4.285646 0.015 4.95801
v -4.720196 0.015 -2.767223
v -2.63428 0.015 -2.755077
v -2.673976 0.015 5.444752
v 2.63428 0.015 -2.755077
v 2.673976 0.015 5.444752
v 2.63428 0.015 -2.755077
v 4.782666 0.015 -2.794257
v 4.285646 0.015 4.95801
v 2.673976 0.015 5.444752
v -2.656854 0.6734866 5.447742
v -4.285646 0.7351647 4.95801
v -4.285646 0.015 4.95801
v -2.673976 0.015 5.444752
v 2.673976 0.015 5.444752
v 2.656854 0.67257 5.447742
v 4.285646 0.015 4.95801
v 4.285646 0.7472023 4.95801
v 2.656854 0.67257 5.447742
v 2.673976 0.015 5.444752
v -2.63428 0.6734866 5.718307
v -4.285646 0.7351647 5.224628
v -4.285646 0.7351647 4.95801
v -2.656854 0.6734866 5.447742
v 2.656854 0.67257 5.447742
v 2.63428 0.67257 5.718307
v 4.285646 0.7472023 4.95801
v 4.285646 0.7472023 5.224628
v 2.63428 0.67257 5.718307
v 2.656854 0.67257 5.447742
v -4.285646 0.015 4.95801
v -5.713575 0.015 4.309397
v -5.713575 0.015 -2.617139
v -4.720196 0.015 -2.767223
v -4.285646 0.7351647 4.95801
v -5.713575 0.8157201 4.309397
v -5.713575 0.015 4.309397
v -4.285646 0.015 4.95801
v -4.285646 0.7351647 5.224628
v -5.713575 0.8157201 4.762388
v -5.713575 0.8157201 4.309397
v -4.285646 0.7351647 4.95801
v -5.713575 0.015 -2.617139
v -5.713575 0.9736614 -2.617139
v -4.720196 0.9736614 -2.767223
v -4.720196 0.015 -2.767223
v -5.713575 0.9736614 -2.617139
v -6.026073 0.9736614 -3.397507
v -5.01511 0.9736614 -3.601921
v -4.720196 0.9736614 -2.767223
v 4.782666 0.015 -2.794257
v 5.84831 0.015 -2.573847
v 5.886593 0.015 4.235933
v 4.285646 0.015 4.95801
v 4.285646 0.015 4.95801
v 5.886593 0.015 4.235933
v 5.886593 0.8011233 4.235933
v 4.285646 0.7472023 4.95801
v 4.285646 0.7472023 4.95801
v 5.886593 0.8011233 4.235933
v 5.84831 0.8011233 4.67296
v 4.285646 0.7472023 5.224628
v 4.782666 0.015 -2.794257
v 4.782666 0.8802657 -2.794257
v 5.84831 0.8846458 -2.573847
v 5.84831 0.015 -2.573847
v 4.782666 0.8802657 -2.794257
v 5.137672 0.8802657 -3.670041
v 6.220732 0.8802657 -3.367573
v 5.84831 0.8846458 -2.573847
v 4.782666 0.015 -2.794257
v 5.136011 2.552888E-16 -3.673543
v 5.137672 0.8802657 -3.670041
v 4.782666 0.8802657 -2.794257
v -4.720196 0.9736614 -2.767223
v -5.01511 0.9736614 -3.601921
v -5.015529 -0.006147091 -3.60307
v -4.720196 0.015 -2.767223
v -5.713575 0.015 4.309397
v -7.902411 1.133314 2.449155
v -7.902411 1.212285 -0.8337702
v -5.713575 0.015 -2.617139
v -5.713575 0.8157201 4.309397
v -7.902411 1.133314 2.449155
v -5.713575 0.015 4.309397
v -5.713575 0.8157201 4.762388
v -8.288562 1.097681 3.107627
v -7.902411 1.133314 2.449155
v -5.713575 0.8157201 4.309397
v -5.713575 0.015 -2.617139
v -7.902411 1.212285 -0.8337702
v -5.713575 0.9736614 -2.617139
v -5.713575 0.9736614 -2.617139
v -7.902411 1.212285 -0.8337702
v -8.601056 1.255623 -1.703359
v -6.026073 0.9736614 -3.397507
v 5.84831 0.015 -2.573847
v 8.823646 0.3215671 -0.5293525
v 8.907659 0.3215671 2.157423
v 5.886593 0.015 4.235933
v 5.886593 0.015 4.235933
v 8.907659 0.3215671 2.157423
v 8.907659 1.155403 2.157423
v 5.886593 0.8011233 4.235933
v 5.886593 0.8011233 4.235933
v 8.907659 1.155403 2.157423
v 8.919139 1.12269 2.587828
v 5.84831 0.8011233 4.67296
v 5.84831 0.8846458 -2.573847
v 8.823646 1.197164 -0.5293525
v 8.823646 0.3215671 -0.5293525
v 5.84831 0.015 -2.573847
v 6.220732 0.8802657 -3.367573
v 8.896939 1.201833 -1.223621
v 8.823646 1.197164 -0.5293525
v 5.84831 0.8846458 -2.573847
v 8.823646 0.3215671 -0.5293525
v 8.823646 1.197164 -0.5293525
v 8.907659 1.155403 2.157423
v 8.907659 0.3215671 2.157423
v -2.63428 0.6734866 5.718307
v -2.63428 -0.836243 5.718307
v -4.285646 -0.7745643 5.224628
v -4.285646 0.7351647 5.224628
v 4.285646 0.7472023 5.224628
v 4.285646 -0.7625272 5.224628
v 2.63428 -0.8371591 5.718307
v 2.63428 0.67257 5.718307
v 2.63428 0.67257 5.718307
v 2.63428 -0.8371591 5.718307
v -2.63428 -0.836243 5.718307
v -2.63428 0.6734866 5.718307
v -4.285646 0.7351647 5.224628
v -4.285646 -0.7745643 5.224628
v -5.713575 -0.6940094 4.762388
v -5.713575 0.8157201 4.762388
v 5.84831 0.8011233 4.67296
v 5.84831 -0.7086058 4.67296
v 4.285646 -0.7625272 5.224628
v 4.285646 0.7472023 5.224628
v -5.713575 0.8157201 4.762388
v -5.713575 -0.6940094 4.762388
v -8.288562 -0.3630342 3.107627
v -8.288562 1.097681 3.107627
v 8.919139 1.12269 2.587828
v 8.919139 -0.4292218 2.587828
v 5.84831 -0.7086058 4.67296
v 5.84831 0.8011233 4.67296
v -4.720196 0.015 -2.767223
v -5.015529 -0.006147091 -3.60307
v -2.63428 9.516047E-16 -3.621347
v -2.63428 0.015 -2.755077
v 2.63428 0.015 -2.755077
v 2.63428 9.516047E-16 -3.621347
v 5.136011 2.552888E-16 -3.673543
v 4.782666 0.015 -2.794257
v -2.63428 0.015 -2.755077
v -2.63428 9.516047E-16 -3.621347
v 2.63428 9.516047E-16 -3.621347
v 2.63428 0.015 -2.755077
v 8.907659 1.155403 2.157423
v 10.21271 2.617617 1.518124
v 8.919139 1.12269 2.587828
v 8.896939 1.201833 -1.223621
v 10.1287 2.659379 -0.004393339
v 8.823646 1.197164 -0.5293525
v 8.823646 1.197164 -0.5293525
v 10.1287 2.659379 -0.004393339
v 10.21271 2.617617 1.518124
v 8.907659 1.155403 2.157423
v 5.137672 0.8802657 -3.670041
v 5.136011 2.552888E-16 -3.673543
v 6.220732 -0.7138296 -3.367573
v 6.220732 0.8802657 -3.367573
v 6.220732 0.8802657 -3.367573
v 6.220732 -0.7138296 -3.367573
v 8.896939 -0.392262 -1.223621
v 8.896939 1.201833 -1.223621
v 10.21271 2.617617 1.518124
v 10.21271 -0.467421 1.518124
v 8.919139 -0.4292218 2.587828
v 8.919139 1.12269 2.587828
v 8.896939 1.201833 -1.223621
v 8.896939 -0.392262 -1.223621
v 10.1287 -0.4256597 -0.004393339
v 10.1287 2.659379 -0.004393339
v 10.1287 2.659379 -0.004393339
v 10.1287 -0.4256597 -0.004393339
v 10.21271 -0.467421 1.518124
v 10.21271 2.617617 1.518124
v -8.288562 1.097681 3.107627
v -9.711718 3.85901 1.741427
v -7.902411 1.133314 2.449155
v -7.902411 1.212285 -0.8337702
v -10.02421 4.016953 -0.3371585
v -8.601056 1.255623 -1.703359
v -7.902411 1.133314 2.449155
v -9.711718 3.85901 1.741427
v -10.02421 4.016953 -0.3371585
v -7.902411 1.212285 -0.8337702
v -8.288562 1.097681 3.107627
v -8.288562 -0.3630342 3.107627
v -9.711718 -0.3823466 1.741427
v -9.711718 3.85901 1.741427
v -10.02421 4.016953 -0.3371585
v -10.02421 -0.224404 -0.3371585
v -8.601056 -0.8594955 -1.703359
v -8.601056 1.255623 -1.703359
v -9.711718 3.85901 1.741427
v -9.711718 -0.3823466 1.741427
v -10.02421 -0.224404 -0.3371585
v -10.02421 4.016953 -0.3371585
v -6.026073 0.9736614 -3.397507
v -6.026073 -0.9285849 -3.397507
v -5.015529 -0.006147091 -3.60307
v -5.01511 0.9736614 -3.601921
v -8.601056 1.255623 -1.703359
v -8.601056 -0.8594955 -1.703359
v -6.026073 -0.9285849 -3.397507
v -6.026073 0.9736614 -3.397507
v -5.015529 -0.006147091 -3.60307
v -6.026073 -0.9285849 -3.397507
v -2.63428 -0.8557026 -3.621347
v -2.63428 9.516047E-16 -3.621347
v 2.63428 9.516047E-16 -3.621347
v 2.63428 -0.8557026 -3.621347
v 6.220732 -0.7138296 -3.367573
v 5.136011 2.552888E-16 -3.673543
v -2.63428 9.516047E-16 -3.621347
v -2.63428 -0.8557026 -3.621347
v 2.63428 -0.8557026 -3.621347
v 2.63428 9.516047E-16 -3.621347
vt 0 0
vt 0 1
vt 0.1926624 1
vt 0.1880311 4.172325E-07
vt 0.5 0.9408981
vt 0.4670221 0.06595588
vt 0.8073376 1
vt 1 1
vt 1 0
vt 0.8119687 5.960464E-08
vt 0.6199425 1
vt 1 1
vt 1 0
vt 0.6239376 0
vt 0 0
vt 0 1
vt 0 0
vt 0 1
vt 0.3800575 1
vt 0.3760624 0
vt 0.6146745 1
vt 1 1
vt 1 0
vt 0.6199419 1.60421E-06
vt 0 0
vt 0 0.2377888
vt 0 4.768372E-07
vt 0 1
vt 0.3853255 1
vt 0.3800575 2.682209E-07
vt 0 0
vt 0 1
vt 1 1
vt 1 0
vt 0 0
vt 0 1
vt 1 1
vt 1 0
vt 0 0
vt 0 1
vt 1 1
vt 1 0
vt 0 0
vt 0 1
vt 1 1
vt 1 0
vt 0 0
vt 0 1
vt 1 1
vt 1 0
vt 0 0
vt 0 1
vt 1 1
vt 1 0
vt 0 0
vt 0 1
vt 1 1
vt 1 0
vt 0 0
vt 0 1
vt 1 1
vt 1 0
vt 0 0
vt 0 1
vt 1 1
vt 1 0
vt 0 0
vt 0 1
vt 1 1
vt 1 0
vt 0 0
vt 0 1
vt 1 1
vt 1 0
vt 0 0
vt 0 1
vt 1 1
vt 1 0
vt 0 0
vt 0 1
vt 1 1
vt 1 0
vt 0 0
vt 0.5 1
vt 1 0
vt 0 0
vt 0 1
vt 1 1
vt 1 0
vt 0 0
vt 0.5 1
vt 1 0
vt 0 0
vt 0 1
vt 1 1
vt 1 0
vt 0 0
vt 0 1
vt 1 1
vt 1 0
vt 0 0
vt 0 1
vt 1 1
vt 1 0
vt 0 0
vt 0 1
vt 1 1
vt 1 0
vt 0 0
vt 0 1
vt 1 1
vt 1 0
vt 0 0
vt 0 1
vt 1 1
vt 1 0
vt 0 0
vt 0 1
vt 1 1
vt 1 0
vt 0 0
vt 0 1
vt 1 1
vt 1 0
vt 0 0
vt 0 1
vt 1 1
vt 1 0
vt 0 0
vt 0 1
vt 1 1
vt 1 0
vt 0 0
vt 0 1
vt 1 1
vt 1 0
vt 0 0
vt 0 1
vt 1 1
vt 1 0
vt 0 0
vt 0 1
vt 1 1
vt 1 0
vt 0 0
vt 0 1
vt 1 1
vt 1 0
vt 0 0
vt 0 1
vt 1 1
vt 1 0
vt 0 0
vt 0 1
vt 1 1
vt 1 0
vt 0 0
vt 0 1
vt 1 1
vt 1 0
vt 0 0
vt 0.5 1
vt 1 0
vt 0 0
vt 0.5 1
vt 1 0
vt 0 0
vt 0 1
vt 1 1
vt 1 0
vt 0 0
vt 0 1
vt 1 1
vt 1 0
vt 0 0
vt 0 1
vt 1 1
vt 1 0
vt 0 0
vt 0 1
vt 1 1
vt 1 0
vt 0 0
vt 0 1
vt 1 1
vt 1 0
vt 0 0
vt 0 1
vt 1 1
vt 1 0
vt 0 0
vt 0.5 1
vt 1 0
vt 0 0
vt 0.5 1
vt 1 0
vt 0 0
vt 0 1
vt 1 1
vt 1 0
vt 0 0
vt 0 1
vt 1 1
vt 1 0
vt 0 0
vt 0 1
vt 1 1
vt 1 0
vt 0 0
vt 0 1
vt 1 1
vt 1 0
vt 0 0
vt 0 1
vt 1 1
vt 1 0
vt 0 0
vt 0 1
vt 1 1
vt 1 0
vt 0 0
vt 0 1
vt 1 1
vt 1 0
vt 0 0
vt 0 1
vt 1 1
vt 1 0
vt 0 0
vt 0 1
vt 1 1
vt 1 0
vn 0 1 0
vn 0 1 0
vn 0 1 0
vn 0 1 0
vn 0 1 0
vn 0 1 0
vn 0 1 0
vn 0 1 0
vn 0 1 0
vn 0 1 0
vn 0.07202914 0.003001133 -0.997398
vn 0.2884972 -0.00147403 -0.9574796
vn 0.2884972 -0.00147403 -0.9574796
vn 0.07432427 0.002954818 -0.9972298
vn -0.07476565 0.002948879 -0.9971968
vn -0.07270748 0.002990335 -0.9973488
vn -0.2884919 -0.001462419 -0.9574813
vn -0.288492 -0.001462419 -0.9574813
vn -0.07270748 0.002990335 -0.9973488
vn -0.07476565 0.002948879 -0.9971968
vn 0.007008222 0.9999754 -0.0002884478
vn 0.03805898 0.9992742 -0.001599194
vn 0.03805899 0.9992742 -0.001599194
vn 0.01095528 0.9999399 -0.0004550646
vn -0.01298136 0.9999156 -0.0005506734
vn -0.008166925 0.9999666 -0.0003491051
vn -0.04603699 0.9989379 -0.001934625
vn -0.04603699 0.9989379 -0.001934625
vn -0.008166925 0.9999666 -0.0003491051
vn -0.01298136 0.9999156 -0.0005506734
vn 0 1 0
vn 0 1 0
vn 0 1 0
vn 0 1 0
vn 0.4135677 0 -0.9104735
vn 0.4135677 0 -0.9104735
vn 0.4135677 0 -0.9104735
vn 0.4135677 0 -0.9104735
vn 0.05632465 0.9984125 0
vn 0.05632465 0.9984125 0
vn 0.05632465 0.9984125 0
vn 0.05632464 0.9984125 0
vn 0.1493893 0 0.9887785
vn 0.1493893 0 0.9887785
vn 0.1493893 0 0.9887785
vn 0.1493893 0 0.9887785
vn 0 1 0
vn 0 1 0
vn 0 1 0
vn 0 1 0
vn 0 1 0
vn 0 1 0
vn 0 1 0
vn 0 1 0
vn -0.4111458 0 -0.9115696
vn -0.4111458 0 -0.9115696
vn -0.4111459 0 -0.9115696
vn -0.4111458 0 -0.9115696
vn -0.0348304 0.9993914 -0.001895009
vn -0.03483041 0.9993914 -0.001895009
vn -0.0348304 0.9993914 -0.001895009
vn -0.03483041 0.9993914 -0.001895009
vn -0.2025459 0 0.9792727
vn -0.2025459 0 0.9792727
vn -0.2025459 0 0.9792727
vn -0.2025459 0 0.9792727
vn -0.001265806 0.9999942 -0.003175006
vn -0.001265806 0.9999942 -0.003175006
vn -0.001265806 0.9999942 -0.003175007
vn -0.001265806 0.9999942 -0.003175006
vn -0.927319 0.001619695 -0.3742686
vn -0.9273189 0.001619695 -0.3742686
vn -0.927319 0.001619695 -0.3742686
vn -0.927319 0.001619695 -0.3742686
vn 0.9428765 -6.320316E-06 -0.3331423
vn 0.9428765 -6.320316E-06 -0.3331423
vn 0.9428765 -6.320316E-06 -0.3331423
vn 0.9428765 -6.320316E-06 -0.3331423
vn 0.4721826 0.8814744 0.006818247
vn 0.4721825 0.8814744 0.006818248
vn 0.4721826 0.8814744 0.006818248
vn 0.4721826 0.8814744 0.006818247
vn 0.647594 0 -0.7619856
vn 0.6475939 0 -0.7619856
vn 0.6475939 0 -0.7619856
vn 0.08093309 0.9949111 0.06001475
vn 0.0809331 0.9949111 0.06001475
vn 0.08093308 0.9949111 0.06001474
vn 0.08093309 0.9949111 0.06001475
vn 0.6316457 0 0.7752572
vn 0.6316458 0 0.7752571
vn 0.6316457 0 0.7752572
vn 0.08836807 0.9956942 -0.02800117
vn 0.08836807 0.9956942 -0.02800117
vn 0.08836807 0.9956942 -0.02800117
vn 0.08836807 0.9956942 -0.02800117
vn -0.106634 0.9942973 0.001373226
vn -0.106634 0.9942973 0.001373225
vn -0.106634 0.9942973 0.001373225
vn -0.106634 0.9942973 0.001373226
vn -0.5668116 0 -0.8238474
vn -0.5668116 0 -0.8238474
vn -0.5668116 0 -0.8238474
vn -0.5668116 0 -0.8238474
vn -0.0866243 0.9956306 0.03487023
vn -0.08662432 0.9956306 0.03487023
vn -0.08662433 0.9956306 0.03487024
vn -0.08662432 0.9956306 0.03487024
vn -0.5663315 0 0.8241775
vn -0.5663316 0 0.8241775
vn -0.5663316 0 0.8241775
vn -0.5663316 0 0.8241775
vn -0.09151241 0.9954319 -0.02721858
vn -0.09151241 0.9954319 -0.02721859
vn -0.09151241 0.9954319 -0.02721859
vn -0.09151241 0.9954319 -0.02721859
vn -0.9995115 0 0.03125382
vn -0.9995115 0 0.03125383
vn -0.9995115 0 0.03125383
vn -0.9995115 0 0.03125382
vn -0.2864268 0 0.958102
vn -0.2864268 0 0.958102
vn -0.2864268 0 0.958102
vn -0.2864268 0 0.958102
vn 0.2864265 0 0.9581022
vn 0.2864265 0 0.9581022
vn 0.2864265 0 0.9581022
vn 0.2864265 0 0.9581022
vn 0 0 1
vn 0 0 1
vn 0 0 1
vn 0 0 1
vn -0.3079786 0 0.9513933
vn -0.3079786 0 0.9513933
vn -0.3079786 0 0.9513933
vn -0.3079786 0 0.9513933
vn 0.332895 0 0.9429639
vn 0.332895 0 0.9429639
vn 0.332895 0 0.9429639
vn 0.332895 0 0.9429639
vn -0.5406218 0 0.8412657
vn -0.5406218 0 0.8412657
vn -0.5406218 0 0.8412657
vn -0.5406218 0 0.8412657
vn 0.5617515 0 0.827306
vn 0.5617515 0 0.827306
vn 0.5617515 0 0.827306
vn 0.5617515 0 0.827306
vn -0.001380679 0.9999934 -0.003371854
vn -0.001380679 0.9999934 -0.003371853
vn -0.00138068 0.9999934 -0.003371853
vn -0.00138068 0.9999934 -0.003371854
vn 0 1 0
vn 0 1 0
vn 0 1 0
vn 0 1 0
vn 0 1 0
vn 0 1 0
vn 0 1 0
vn 0 1 0
vn -0.7284996 0.6813346 0.07121474
vn -0.7284996 0.6813346 0.07121474
vn -0.7284996 0.6813346 0.07121474
vn -0.7310022 0.6785011 -0.07260948
vn -0.7310022 0.678501 -0.07260948
vn -0.7310022 0.678501 -0.07260948
vn -0.7445402 0.6661952 0.04293954
vn -0.7445402 0.6661952 0.04293954
vn -0.7445402 0.6661952 0.04293954
vn -0.7445402 0.6661952 0.04293954
vn 0.2705909 0.001180784 -0.9626938
vn 0.2705909 0.001180784 -0.9626938
vn 0.2705909 0.001180784 -0.9626938
vn 0.2705909 0.001180784 -0.9626938
vn 0.6252258 0 -0.7804438
vn 0.6252258 0 -0.7804438
vn 0.6252258 0 -0.7804438
vn 0.6252258 0 -0.7804438
vn 0.6372705 0 0.7706402
vn 0.6372705 0 0.7706402
vn 0.6372706 0 0.7706402
vn 0.6372705 0 0.7706402
vn 0.7034822 0 -0.7107128
vn 0.7034823 0 -0.7107128
vn 0.7034822 0 -0.7107128
vn 0.7034822 0 -0.7107129
vn 0.9984811 0 -0.05509654
vn 0.9984811 0 -0.05509654
vn 0.9984811 0 -0.05509654
vn 0.9984811 0 -0.05509654
vn 0.6927887 0.5734175 0.4373057
vn 0.6927887 0.5734174 0.4373057
vn 0.6927886 0.5734175 0.4373057
vn 0.6495906 0.5787339 -0.4930509
vn 0.6495906 0.5787339 -0.4930509
vn 0.6495906 0.5787339 -0.4930509
vn 0.8152657 0.578671 -0.02194723
vn 0.8152658 0.5786709 -0.02194723
vn 0.8152658 0.5786709 -0.02194723
vn 0.8152658 0.5786709 -0.02194723
vn -0.692524 0 0.7213948
vn -0.692524 0 0.7213949
vn -0.692524 0 0.7213949
vn -0.692524 0 0.7213948
vn -0.6925241 0 -0.7213947
vn -0.6925241 0 -0.7213947
vn -0.6925241 0 -0.7213947
vn -0.6925241 0 -0.7213947
vn -0.988887 0 0.1486689
vn -0.988887 0 0.1486689
vn -0.988887 0 0.1486689
vn -0.988887 0 0.1486689
vn -0.1989448 0.0004196343 -0.9800106
vn -0.1989448 0.0004196343 -0.9800106
vn -0.1989448 0.0004196343 -0.9800106
vn -0.1989448 0.0004196343 -0.9800106
vn -0.5496349 0 -0.835405
vn -0.5496349 0 -0.835405
vn -0.5496348 0 -0.835405
vn -0.5496349 0 -0.835405
vn -0.0404671 -0.09202185 -0.9949344
vn -0.04046709 -0.09202184 -0.9949344
vn -0.04046709 -0.09202185 -0.9949344
vn -0.0404671 -0.09202185 -0.9949344
vn 0.03651125 -0.1668457 -0.9853067
vn 0.03651125 -0.1668457 -0.9853067
vn 0.03651125 -0.1668457 -0.9853067
vn 0.03651125 -0.1668457 -0.9853067
vn 0 0 -1
vn 0 0 -1
vn 0 0 -1
vn 0 0 -1
g boatDio_COL_0
f 3/3/3 2/2/2 1/1/1
f 4/4/4 3/3/3 1/1/1
f 5/5/5 3/3/3 4/4/4
f 6/6/6 5/5/5 4/4/4
f 9/9/9 8/8/8 7/7/7
f 10/10/10 9/9/9 7/7/7
f 13/13/13 12/12/12 11/11/11
f 14/14/14 13/13/13 11/11/11
f 14/14/14 11/11/11 15/15/15
f 11/11/11 16/16/16 15/15/15
f 19/19/19 18/18/18 17/17/17
f 20/20/20 19/19/19 17/17/17
f 23/23/23 22/22/22 21/21/21
f 24/24/24 23/23/23 21/21/21
f 24/24/24 21/21/21 25/25/25
f 21/21/21 26/26/26 25/25/25
f 29/29/29 28/28/28 27/27/27
f 30/30/30 29/29/29 27/27/27
f 33/33/33 32/32/32 31/31/31
f 34/34/34 33/33/33 31/31/31
f 37/37/37 36/36/36 35/35/35
f 38/38/38 37/37/37 35/35/35
f 41/41/41 40/40/40 39/39/39
f 42/42/42 41/41/41 39/39/39
f 45/45/45 44/44/44 43/43/43
f 46/46/46 45/45/45 43/43/43
f 49/49/49 48/48/48 47/47/47
f 50/50/50 49/49/49 47/47/47
f 53/53/53 52/52/52 51/51/51
f 54/54/54 53/53/53 51/51/51
f 57/57/57 56/56/56 55/55/55
f 58/58/58 57/57/57 55/55/55
f 61/61/61 60/60/60 59/59/59
f 62/62/62 61/61/61 59/59/59
f 65/65/65 64/64/64 63/63/63
f 66/66/66 65/65/65 63/63/63
f 69/69/69 68/68/68 67/67/67
f 70/70/70 69/69/69 67/67/67
f 73/73/73 72/72/72 71/71/71
f 74/74/74 73/73/73 71/71/71
f 77/77/77 76/76/76 75/75/75
f 78/78/78 77/77/77 75/75/75
f 81/81/81 80/80/80 79/79/79
f 82/82/82 81/81/81 79/79/79
f 85/85/85 84/84/84 83/83/83
f 88/88/88 87/87/87 86/86/86
f 89/89/89 88/88/88 86/86/86
f 92/92/92 91/91/91 90/90/90
f 95/95/95 94/94/94 93/93/93
f 96/96/96 95/95/95 93/93/93
f 99/99/99 98/98/98 97/97/97
f 100/100/100 99/99/99 97/97/97
f 103/103/103 102/102/102 101/101/101
f 104/104/104 103/103/103 101/101/101
f 107/107/107 106/106/106 105/105/105
f 108/108/108 107/107/107 105/105/105
f 111/111/111 110/110/110 109/109/109
f 112/112/112 111/111/111 109/109/109
f 115/115/115 114/114/114 113/113/113
f 116/116/116 115/115/115 113/113/113
f 119/119/119 118/118/118 117/117/117
f 120/120/120 119/119/119 117/117/117
f 123/123/123 122/122/122 121/121/121
f 124/124/124 123/123/123 121/121/121
f 127/127/127 126/126/126 125/125/125
f 128/128/128 127/127/127 125/125/125
f 131/131/131 130/130/130 129/129/129
f 132/132/132 131/131/131 129/129/129
f 135/135/135 134/134/134 133/133/133
f 136/136/136 135/135/135 133/133/133
f 139/139/139 138/138/138 137/137/137
f 140/140/140 139/139/139 137/137/137
f 143/143/143 142/142/142 141/141/141
f 144/144/144 143/143/143 141/141/141
f 147/147/147 146/146/146 145/145/145
f 148/148/148 147/147/147 145/145/145
f 151/151/151 150/150/150 149/149/149
f 152/152/152 151/151/151 149/149/149
f 155/155/155 154/154/154 153/153/153
f 156/156/156 155/155/155 153/153/153
f 159/159/159 158/158/158 157/157/157
f 160/160/160 159/159/159 157/157/157
f 163/163/163 162/162/162 161/161/161
f 166/166/166 165/165/165 164/164/164
f 169/169/169 168/168/168 167/167/167
f 170/170/170 169/169/169 167/167/167
f 173/173/173 172/172/172 171/171/171
f 174/174/174 173/173/173 171/171/171
f 177/177/177 176/176/176 175/175/175
f 178/178/178 177/177/177 175/175/175
f 181/181/181 180/180/180 179/179/179
f 182/182/182 181/181/181 179/179/179
f 185/185/185 184/184/184 183/183/183
f 186/186/186 185/185/185 183/183/183
f 189/189/189 188/188/188 187/187/187
f 190/190/190 189/189/189 187/187/187
f 193/193/193 192/192/192 191/191/191
f 196/196/196 195/195/195 194/194/194
f 199/199/199 198/198/198 197/197/197
f 200/200/200 199/199/199 197/197/197
f 203/203/203 202/202/202 201/201/201
f 204/204/204 203/203/203 201/201/201
f 207/207/207 206/206/206 205/205/205
f 208/208/208 207/207/207 205/205/205
f 211/211/211 210/210/210 209/209/209
f 212/212/212 211/211/211 209/209/209
f 215/215/215 214/214/214 213/213/213
f 216/216/216 215/215/215 213/213/213
f 219/219/219 218/218/218 217/217/217
f 220/220/220 219/219/219 217/217/217
f 223/223/223 222/222/222 221/221/221
f 224/224/224 223/223/223 221/221/221
f 227/227/227 226/226/226 225/225/225
f 228/228/228 227/227/227 225/225/225
f 231/231/231 230/230/230 229/229/229
f 232/232/232 231/231/231 229/229/229
