g boatB_COL
v -4.285646 0.01850537 5.150142
v -4.720196 0.01850537 -2.859302
v -2.63428 0.01850537 -2.755077
v -2.673976 0.01850537 5.359325
v 2.63428 0.02149463 -2.755077
v 2.673976 0.02149463 5.318944
v 2.63428 0.02149463 -2.755077
v 5.756133 0.01850537 -3.021673
v 5.622271 0.01850537 4.95801
v 2.673976 0.02149463 5.318944
v -2.656854 0.6734866 5.362316
v -4.285646 0.7351647 5.150142
v -4.285646 0.01850537 5.150142
v -2.673976 0.01850537 5.359325
v 2.673976 0.02149463 5.318944
v 2.656854 0.67257 5.321933
v 5.622271 0.01850537 4.95801
v 5.622271 0.7472023 4.95801
v 2.656854 0.67257 5.321933
v 2.673976 0.02149463 5.318944
v -2.63428 0.6734866 5.632881
v -4.285646 0.7351647 5.41676
v -4.285646 0.7351647 5.150142
v -2.656854 0.6734866 5.362316
v 2.656854 0.67257 5.321933
v 2.63428 0.67257 5.592499
v 5.622271 0.7472023 4.95801
v 5.622271 0.7472023 5.224629
v 2.63428 0.67257 5.592499
v 2.656854 0.67257 5.321933
v -4.285646 0.01850537 5.150142
v -5.928317 0.01850537 4.500188
v -5.903957 0.01850537 -2.804524
v -4.720196 0.01850537 -2.859302
v -4.285646 0.7351647 5.150142
v -5.928317 0.8157201 4.500188
v -5.928317 0.01850537 4.500188
v -4.285646 0.01850537 5.150142
v -4.285646 0.7351647 5.41676
v -5.928317 0.8157201 4.953179
v -5.928317 0.8157201 4.500188
v -4.285646 0.7351647 5.150142
v -5.903957 0.01850537 -2.804524
v -5.903957 0.7911396 -2.804524
v -4.720196 0.7911396 -2.859302
v -4.720196 0.01850537 -2.859302
v -5.903957 0.7911396 -2.804524
v -6.026073 0.7911396 -3.084325
v -5.01511 0.7911396 -3.288738
v -4.720196 0.7911396 -2.859302
v 5.756133 0.01850537 -3.021673
v 6.648992 0.01850537 -2.511443
v 7.223217 0.01850537 4.077979
v 5.622271 0.01850537 4.95801
v 5.622271 0.01850537 4.95801
v 7.223217 0.01850537 4.077979
v 7.223217 0.8011233 4.077979
v 5.622271 0.7472023 4.95801
v 5.622271 0.7472023 4.95801
v 7.223217 0.8011233 4.077979
v 7.184935 0.8011233 4.515006
v 5.622271 0.7472023 5.224629
v 5.756133 0.01850537 -3.021673
v 5.756133 0.8802657 -3.021673
v 6.648992 0.8846458 -2.511443
v 6.648992 0.01850537 -2.511443
v 5.756133 0.8802657 -3.021673
v 5.985021 0.8802657 -3.356858
v 6.833993 0.8802657 -2.804286
v 6.648992 0.8846458 -2.511443
v 5.756133 0.01850537 -3.021673
v 5.98336 2.552888E-16 -3.36036
v 5.985021 0.8802657 -3.356858
v 5.756133 0.8802657 -3.021673
v -4.720196 0.7911396 -2.859302
v -5.01511 0.7911396 -3.288738
v -5.015529 -0.006147091 -3.289887
v -4.720196 0.01850537 -2.859302
v -7.564713 1.324384 -0.7459262
v -5.903957 0.01850537 -2.804524
v -5.928317 0.01850537 4.500188
v -7.731528 1.426671 0.9656218
v -7.564713 1.324384 2.67717
v -5.928317 0.8157201 4.500188
v -7.564713 1.324384 2.67717
v -5.928317 0.01850537 4.500188
v -5.928317 0.8157201 4.953179
v -7.216388 1.075167 4.199199
v -7.564713 1.324384 2.67717
v -5.928317 0.8157201 4.500188
v -5.903957 0.01850537 -2.804524
v -7.564713 1.324384 -0.7459262
v -5.903957 0.7911396 -2.804524
v -5.903957 0.7911396 -2.804524
v -7.564713 1.324384 -0.7459262
v -7.216388 1.075167 -2.267955
v -6.026073 0.7911396 -3.084325
v 6.648992 0.01850537 -2.511443
v 8.918164 0.3215671 -0.2637079
v 9.002177 0.3215671 2.253207
v 7.223217 0.01850537 4.077979
v 7.223217 0.01850537 4.077979
v 9.002177 0.3215671 2.253207
v 9.4079 1.115843 2.096803
v 7.223217 0.8011233 4.077979
v 7.223217 0.8011233 4.077979
v 9.4079 1.115843 2.096803
v 9.41938 1.083131 2.644819
v 7.184935 0.8011233 4.515006
v 6.648992 0.8846458 -2.511443
v 9.339213 1.157605 -0.2637079
v 8.918164 0.3215671 -0.2637079
v 6.648992 0.01850537 -2.511443
v 6.833993 0.8802657 -2.804286
v 9.372588 1.162273 -0.7613757
v 9.339213 1.157605 -0.2637079
v 6.648992 0.8846458 -2.511443
v 8.918164 0.3215671 -0.2637079
v 9.339213 1.157605 -0.2637079
v 9.4079 1.115843 2.096803
v 9.002177 0.3215671 2.253207
v -2.63428 0.6734866 5.632881
v -2.63428 -1.084158 5.632881
v -4.285646 -1.084157 5.41676
v -4.285646 0.7351647 5.41676
v 5.622271 0.7472023 5.224629
v 5.622271 -1.084157 5.224629
v 2.63428 -1.084158 5.592499
v 2.63428 0.67257 5.592499
v 2.63428 0.67257 5.592499
v 2.63428 -1.084158 5.592499
v -2.63428 -1.084158 5.632881
v -2.63428 0.6734866 5.632881
v -4.285646 0.7351647 5.41676
v -4.285646 -1.084157 5.41676
v -5.928317 -1.084157 4.953179
v -5.928317 0.8157201 4.953179
v 7.184935 0.8011233 4.515006
v 7.184935 -1.084157 4.515006
v 5.622271 -1.084157 5.224629
v 5.622271 0.7472023 5.224629
v -5.928317 0.8157201 4.953179
v -5.928317 -1.084157 4.953179
v -7.188702 -1.08416 4.162132
v -7.216388 1.075167 4.199199
v 9.41938 1.083131 2.644819
v 9.41938 -1.084154 2.644819
v 7.184935 -1.084157 4.515006
v 7.184935 0.8011233 4.515006
v -4.720196 0.01850537 -2.859302
v -5.015529 -0.006147091 -3.289887
v -2.63428 9.516047E-16 -3.308164
v -2.63428 0.01850537 -2.755077
v 2.63428 0.02149463 -2.755077
v 2.63428 9.516047E-16 -3.308164
v 5.98336 2.552888E-16 -3.36036
v 5.756133 0.01850537 -3.021673
v -2.63428 0.01850537 -2.755077
v -2.63428 9.516047E-16 -3.308164
v 2.63428 9.516047E-16 -3.308164
v 2.63428 0.02149463 -2.755077
v 9.4079 1.115843 2.096803
v 11.16866 1.328944 1.313102
v 9.41938 1.083131 2.644819
v 9.372588 1.162273 -0.7613757
v 11.15598 1.370706 0.5841583
v 9.339213 1.157605 -0.2637079
v 9.339213 1.157605 -0.2637079
v 11.15598 1.370706 0.5841583
v 11.16866 1.328944 1.313102
v 9.4079 1.115843 2.096803
v 5.985021 0.8802657 -3.356858
v 5.98336 2.552888E-16 -3.36036
v 6.833993 -1.084157 -2.804286
v 6.833993 0.8802657 -2.804286
v 6.833993 0.8802657 -2.804286
v 6.833993 -1.084157 -2.804286
v 9.372588 -1.084154 -0.7613757
v 9.372588 1.162273 -0.7613757
v 11.16866 1.328944 1.313102
v 10.65695 -1.084154 1.688259
v 9.41938 -1.084154 2.644819
v 9.41938 1.083131 2.644819
v 9.372588 1.162273 -0.7613757
v 9.372588 -1.084154 -0.7613757
v 10.64427 -1.084154 0.2090018
v 11.15598 1.370706 0.5841583
v 11.15598 1.370706 0.5841583
v 10.64427 -1.084154 0.2090018
v 10.65695 -1.084154 1.688259
v 11.16866 1.328944 1.313102
v -7.216388 1.075167 4.199199
v -7.968347 1.324384 2.702558
v -7.564713 1.324384 2.67717
v -7.564713 1.324384 -0.7459262
v -7.968347 1.324384 -0.7713141
v -7.216388 1.075167 -2.267955
v -7.564713 1.324384 2.67717
v -7.968347 1.324384 2.702558
v -8.135161 1.426672 0.9656219
v -7.731528 1.426671 0.9656218
v -7.564713 1.324384 -0.7459262
v -7.968347 1.324384 -0.7713141
v -7.216388 1.075167 4.199199
v -7.188702 -1.08416 4.162132
v -7.993984 -1.084159 2.584997
v -7.968347 1.324384 2.702558
v -7.968347 1.324384 -0.7713141
v -7.986444 -1.084158 -0.729562
v -7.236804 -1.084158 -2.30219
v -7.216388 1.075167 -2.267955
v -7.968347 1.324384 2.702558
v -7.993984 -1.084159 2.584997
v -8.157028 -1.084159 0.9277176
v -8.135161 1.426672 0.9656219
v -7.968347 1.324384 -0.7713141
v -7.986444 -1.084158 -0.729562
v -6.026073 0.7911396 -3.084325
v -6.026073 -1.084159 -3.084325
v -5.015529 -0.006147091 -3.289887
v -5.01511 0.7911396 -3.288738
v -7.216388 1.075167 -2.267955
v -7.236804 -1.084158 -2.30219
v -6.026073 -1.084159 -3.084325
v -6.026073 0.7911396 -3.084325
v -5.015529 -0.006147091 -3.289887
v -6.026073 -1.084159 -3.084325
v -2.63428 -1.084158 -3.308164
v -2.63428 9.516047E-16 -3.308164
v 2.63428 9.516047E-16 -3.308164
v 2.63428 -1.084158 -3.308164
v 6.833993 -1.084157 -2.804286
v 5.98336 2.552888E-16 -3.36036
v -2.63428 9.516047E-16 -3.308164
v -2.63428 -1.084158 -3.308164
v 2.63428 -1.084158 -3.308164
v 2.63428 9.516047E-16 -3.308164
vt 0 0
vt 0 1
vt 0.1926624 1
vt 0.1880311 4.172325E-07
vt 0.5 0.9408981
vt 0.4670221 0.06595588
vt 0.8073376 1
vt 1 1
vt 1 0
vt 0.8119687 5.960464E-08
vt 0.6199425 1
vt 1 1
vt 1 0
vt 0.6239376 0
vt 0 0
vt 0 1
vt 0 0
vt 0 1
vt 0.3800575 1
vt 0.3760624 0
vt 0.6146745 1
vt 1 1
vt 1 0
vt 0.6199419 1.60421E-06
vt 0 0
vt 0 0.2377888
vt 0 4.768372E-07
vt 0 1
vt 0.3853255 1
vt 0.3800575 2.682209E-07
vt 0 0
vt 0 1
vt 1 1
vt 1 0
vt 0 0
vt 0 1
vt 1 1
vt 1 0
vt 0 0
vt 0 1
vt 1 1
vt 1 0
vt 0 0
vt 0 1
vt 1 1
vt 1 0
vt 0 0
vt 0 1
vt 1 1
vt 1 0
vt 0 0
vt 0 1
vt 1 1
vt 1 0
vt 0 0
vt 0 1
vt 1 1
vt 1 0
vt 0 0
vt 0 1
vt 1 1
vt 1 0
vt 0 0
vt 0 1
vt 1 1
vt 1 0
vt 0 0
vt 0 1
vt 1 1
vt 1 0
vt 0 0
vt 0 1
vt 1 1
vt 1 0
vt 0 0
vt 0 1
vt 1 1
vt 1 0
vt 1 1
vt 1 0
vt 0 0
vt 0.5 1
vt 0 1
vt 0 0
vt 0.5 1
vt 1 0
vt 0 0
vt 0 1
vt 1 1
vt 1 0
vt 0 0
vt 0.5 1
vt 1 0
vt 0 0
vt 0 1
vt 1 1
vt 1 0
vt 0 0
vt 0 1
vt 1 1
vt 1 0
vt 0 0
vt 0 1
vt 1 1
vt 1 0
vt 0 0
vt 0 1
vt 1 1
vt 1 0
vt 0 0
vt 0 1
vt 1 1
vt 1 0
vt 0 0
vt 0 1
vt 1 1
vt 1 0
vt 0 0
vt 0 1
vt 1 1
vt 1 0
vt 0 0
vt 0 1
vt 1 1
vt 1 0
vt 0 0
vt 0 1
vt 1 1
vt 1 0
vt 0 0
vt 0 1
vt 1 1
vt 1 0
vt 0 0
vt 0 1
vt 1 1
vt 1 0
vt 0 0
vt 0 1
vt 1 1
vt 1 0
vt 0 0
vt 0 1
vt 1 1
vt 1 0
vt 0 0
vt 0 1
vt 1 1
vt 1 0
vt 0 0
vt 0 1
vt 1 1
vt 1 0
vt 0 0
vt 0 1
vt 1 1
vt 1 0
vt 0 0
vt 0 1
vt 1 1
vt 1 0
vt 0 0
vt 0.5 1
vt 1 0
vt 0 0
vt 0.5 1
vt 1 0
vt 0 0
vt 0 1
vt 1 1
vt 1 0
vt 0 0
vt 0 1
vt 1 1
vt 1 0
vt 0 0
vt 0 1
vt 1 1
vt 1 0
vt 0 0
vt 0 1
vt 1 1
vt 1 0
vt 0 0
vt 0 1
vt 1 1
vt 1 0
vt 0 0
vt 0 1
vt 1 1
vt 1 0
vt 0 0
vt 0.5 1
vt 1 0
vt 0 0
vt 0.5 1
vt 1 0
vt 0 0
vt 0 1
vt 0.5 1
vt 0.5 0
vt 1 0
vt 1 1
vt 0 0
vt 0 1
vt 1 1
vt 1 0
vt 0 0
vt 0 1
vt 1 1
vt 1 0
vt 0 0
vt 0 1
vt 0.5 1
vt 0.5 0
vt 1 0
vt 1 1
vt 0 0
vt 0 1
vt 1 1
vt 1 0
vt 0 0
vt 0 1
vt 1 1
vt 1 0
vt 0 0
vt 0 1
vt 1 1
vt 1 0
vt 0 0
vt 0 1
vt 1 1
vt 1 0
vt 0 0
vt 0 1
vt 1 1
vt 1 0
vn 0 1 0
vn 0 1 0
vn 0 1 0
vn 0 1 0
vn 0 1 0
vn 0 1 0
vn 0 1 0
vn 0 1 0
vn 0 1 0
vn 0 1 0
vn 0.07202914 0.003001133 -0.997398
vn 0.2884972 -0.00147403 -0.9574796
vn 0.2884972 -0.00147403 -0.9574796
vn 0.07432427 0.002954818 -0.9972298
vn -0.07476565 0.002948879 -0.9971968
vn -0.07270748 0.002990335 -0.9973488
vn -0.2884919 -0.001462419 -0.9574813
vn -0.288492 -0.001462419 -0.9574813
vn -0.07270748 0.002990335 -0.9973488
vn -0.07476565 0.002948879 -0.9971968
vn 0.007008222 0.9999754 -0.0002884478
vn 0.03805898 0.9992742 -0.001599194
vn 0.03805899 0.9992742 -0.001599194
vn 0.01095528 0.9999399 -0.0004550646
vn -0.01298137 0.9999156 -0.0005506734
vn -0.008166925 0.9999666 -0.0003491051
vn -0.04603699 0.9989379 -0.001934625
vn -0.04603699 0.9989379 -0.001934625
vn -0.008166925 0.9999666 -0.0003491051
vn -0.01298137 0.9999156 -0.0005506734
vn 0 1 0
vn 0 1 0
vn 0 1 0
vn 0 1 0
vn 0.4135677 0 -0.9104735
vn 0.4135677 0 -0.9104735
vn 0.4135677 0 -0.9104735
vn 0.4135677 0 -0.9104735
vn 0.05632465 0.9984125 0
vn 0.05632465 0.9984125 0
vn 0.05632465 0.9984125 0
vn 0.05632464 0.9984125 0
vn 0.1493893 0 0.9887785
vn 0.1493893 0 0.9887785
vn 0.1493893 0 0.9887785
vn 0.1493893 0 0.9887785
vn 0 1 0
vn 0 1 0
vn 0 1 0
vn 0 1 0
vn 0 1 0
vn 0 1 0
vn 0 1 0
vn 0 1 0
vn -0.4111458 0 -0.9115696
vn -0.4111458 0 -0.9115696
vn -0.4111459 0 -0.9115696
vn -0.4111458 0 -0.9115696
vn -0.0348304 0.9993914 -0.001895009
vn -0.03483041 0.9993914 -0.001895009
vn -0.0348304 0.9993914 -0.001895009
vn -0.03483041 0.9993914 -0.001895009
vn -0.2025459 0 0.9792727
vn -0.2025459 0 0.9792727
vn -0.2025459 0 0.9792727
vn -0.2025459 0 0.9792727
vn -0.001265806 0.9999942 -0.003175006
vn -0.001265806 0.9999942 -0.003175006
vn -0.001265806 0.9999942 -0.003175007
vn -0.001265806 0.9999942 -0.003175006
vn -0.927319 0.001619695 -0.3742686
vn -0.9273189 0.001619695 -0.3742686
vn -0.927319 0.001619695 -0.3742686
vn -0.927319 0.001619695 -0.3742686
vn 0.9428765 -6.320316E-06 -0.3331423
vn 0.9428765 -6.320316E-06 -0.3331423
vn 0.9428765 -6.320316E-06 -0.3331423
vn 0.9428765 -6.320316E-06 -0.3331423
vn 0.4721826 0.8814744 0.006818248
vn 0.4721826 0.8814744 0.006818247
vn 0.4721826 0.8814744 0.006818247
vn 0.618276 0.7859598 0.001369695
vn 0.4721825 0.8814744 0.006818248
vn 0.647594 0 -0.7619856
vn 0.6475939 0 -0.7619856
vn 0.6475939 0 -0.7619856
vn 0.08093309 0.9949111 0.06001475
vn 0.0809331 0.9949111 0.06001475
vn 0.08093308 0.9949111 0.06001474
vn 0.08093309 0.9949111 0.06001475
vn 0.6316457 0 0.7752572
vn 0.6316458 0 0.7752571
vn 0.6316457 0 0.7752572
vn 0.08836807 0.9956942 -0.02800117
vn 0.08836807 0.9956942 -0.02800117
vn 0.08836807 0.9956942 -0.02800117
vn 0.08836807 0.9956942 -0.02800117
vn -0.106634 0.9942973 0.001373226
vn -0.106634 0.9942973 0.001373225
vn -0.106634 0.9942973 0.001373225
vn -0.106634 0.9942973 0.001373226
vn -0.5668116 0 -0.8238474
vn -0.5668116 0 -0.8238474
vn -0.5668116 0 -0.8238474
vn -0.5668116 0 -0.8238474
vn -0.0866243 0.9956306 0.03487023
vn -0.08662432 0.9956306 0.03487023
vn -0.08662433 0.9956306 0.03487024
vn -0.08662432 0.9956306 0.03487024
vn -0.5663315 0 0.8241775
vn -0.5663316 0 0.8241775
vn -0.5663316 0 0.8241775
vn -0.5663316 0 0.8241775
vn -0.09151241 0.9954319 -0.02721858
vn -0.09151241 0.9954319 -0.02721859
vn -0.09151241 0.9954319 -0.02721859
vn -0.09151241 0.9954319 -0.02721859
vn -0.9995115 0 0.03125382
vn -0.9995115 0 0.03125383
vn -0.9995115 0 0.03125383
vn -0.9995115 0 0.03125382
vn -0.2864268 0 0.958102
vn -0.2864268 0 0.958102
vn -0.2864268 0 0.958102
vn -0.2864268 0 0.958102
vn 0.2864265 0 0.9581022
vn 0.2864265 0 0.9581022
vn 0.2864265 0 0.9581022
vn 0.2864265 0 0.9581022
vn 0 0 1
vn 0 0 1
vn 0 0 1
vn 0 0 1
vn -0.3079786 0 0.9513933
vn -0.3079786 0 0.9513933
vn -0.3079786 0 0.9513933
vn -0.3079786 0 0.9513933
vn 0.332895 0 0.9429639
vn 0.332895 0 0.9429639
vn 0.332895 0 0.9429639
vn 0.332895 0 0.9429639
vn -0.5406218 0 0.8412657
vn -0.5406218 0 0.8412657
vn -0.5406218 0 0.8412657
vn -0.5406218 0 0.8412657
vn 0.5617515 0 0.827306
vn 0.5617515 0 0.827306
vn 0.5617515 0 0.827306
vn 0.5617515 0 0.827306
vn -0.001380679 0.9999934 -0.003371854
vn -0.001380679 0.9999934 -0.003371853
vn -0.00138068 0.9999934 -0.003371853
vn -0.00138068 0.9999934 -0.003371854
vn 0 1 0
vn 0 1 0
vn 0 1 0
vn 0 1 0
vn 0 1 0
vn 0 1 0
vn 0 1 0
vn 0 1 0
vn -0.7284996 0.6813346 0.07121474
vn -0.7284996 0.6813346 0.07121474
vn -0.7284996 0.6813346 0.07121474
vn -0.7310022 0.6785011 -0.07260948
vn -0.7310022 0.678501 -0.07260948
vn -0.7310022 0.678501 -0.07260948
vn -0.7445402 0.6661952 0.04293954
vn -0.7445402 0.6661952 0.04293954
vn -0.7445402 0.6661952 0.04293954
vn -0.7445402 0.6661952 0.04293954
vn 0.2705909 0.001180784 -0.9626938
vn 0.2705909 0.001180784 -0.9626938
vn 0.2705909 0.001180784 -0.9626938
vn 0.2705909 0.001180784 -0.9626938
vn 0.6252258 0 -0.7804438
vn 0.6252258 0 -0.7804438
vn 0.6252258 0 -0.7804438
vn 0.6252258 0 -0.7804438
vn 0.6372705 0 0.7706402
vn 0.6372705 0 0.7706402
vn 0.6372706 0 0.7706402
vn 0.6372705 0 0.7706402
vn 0.7034822 0 -0.7107128
vn 0.7034823 0 -0.7107128
vn 0.7034822 0 -0.7107128
vn 0.7034822 0 -0.7107129
vn 0.9984811 0 -0.05509654
vn 0.9984811 0 -0.05509654
vn 0.9984811 0 -0.05509654
vn 0.9984811 0 -0.05509654
vn 0.6927887 0.5734175 0.4373057
vn 0.6927887 0.5734174 0.4373057
vn 0.6927886 0.5734175 0.4373057
vn 0.6495906 0.5787339 -0.4930509
vn 0.6495906 0.5787339 -0.4930509
vn 0.6495906 0.5787339 -0.4930509
vn 0.8152657 0.578671 -0.02194723
vn 0.8152658 0.5786709 -0.02194723
vn 0.001860289 0.9999983 1.155726E-07
vn 0.001860289 0.9999983 0
vn 0.8152658 0.5786709 -0.02194723
vn 0.8152658 0.5786709 -0.02194723
vn -0.692524 0 0.7213948
vn -0.692524 0 0.7213949
vn -0.692524 0 0.7213949
vn -0.692524 0 0.7213948
vn -0.6925241 0 -0.7213947
vn -0.6925241 0 -0.7213947
vn -0.6925241 0 -0.7213947
vn -0.6925241 0 -0.7213947
vn -0.988887 0 0.1486689
vn -0.988887 0 0.1486689
vn -0.9999712 0.007319269 -0.00202824
vn -0.9999733 0.007304999 -0.0001088847
vn -0.988887 0 0.1486689
vn -0.988887 0 0.1486689
vn -0.1989448 0.0004196343 -0.9800106
vn -0.1989448 0.0004196343 -0.9800106
vn -0.1989448 0.0004196343 -0.9800106
vn -0.1989448 0.0004196343 -0.9800106
vn -0.5496349 0 -0.835405
vn -0.5496349 0 -0.835405
vn -0.5496348 0 -0.835405
vn -0.5496349 0 -0.835405
vn -0.0404671 -0.09202185 -0.9949344
vn -0.04046709 -0.09202184 -0.9949344
vn -0.04046709 -0.09202185 -0.9949344
vn -0.0404671 -0.09202185 -0.9949344
vn 0.03651125 -0.1668457 -0.9853067
vn 0.03651125 -0.1668457 -0.9853067
vn 0.03651125 -0.1668457 -0.9853067
vn 0.03651125 -0.1668457 -0.9853067
vn 0 0 -1
vn 0 0 -1
vn 0 0 -1
vn 0 0 -1
g boatB_COL_0
f 3/3/3 2/2/2 1/1/1
f 4/4/4 3/3/3 1/1/1
f 5/5/5 3/3/3 4/4/4
f 6/6/6 5/5/5 4/4/4
f 9/9/9 8/8/8 7/7/7
f 10/10/10 9/9/9 7/7/7
f 13/13/13 12/12/12 11/11/11
f 14/14/14 13/13/13 11/11/11
f 14/14/14 11/11/11 15/15/15
f 11/11/11 16/16/16 15/15/15
f 19/19/19 18/18/18 17/17/17
f 20/20/20 19/19/19 17/17/17
f 23/23/23 22/22/22 21/21/21
f 24/24/24 23/23/23 21/21/21
f 24/24/24 21/21/21 25/25/25
f 21/21/21 26/26/26 25/25/25
f 29/29/29 28/28/28 27/27/27
f 30/30/30 29/29/29 27/27/27
f 33/33/33 32/32/32 31/31/31
f 34/34/34 33/33/33 31/31/31
f 37/37/37 36/36/36 35/35/35
f 38/38/38 37/37/37 35/35/35
f 41/41/41 40/40/40 39/39/39
f 42/42/42 41/41/41 39/39/39
f 45/45/45 44/44/44 43/43/43
f 46/46/46 45/45/45 43/43/43
f 49/49/49 48/48/48 47/47/47
f 50/50/50 49/49/49 47/47/47
f 53/53/53 52/52/52 51/51/51
f 54/54/54 53/53/53 51/51/51
f 57/57/57 56/56/56 55/55/55
f 58/58/58 57/57/57 55/55/55
f 61/61/61 60/60/60 59/59/59
f 62/62/62 61/61/61 59/59/59
f 65/65/65 64/64/64 63/63/63
f 66/66/66 65/65/65 63/63/63
f 69/69/69 68/68/68 67/67/67
f 70/70/70 69/69/69 67/67/67
f 73/73/73 72/72/72 71/71/71
f 74/74/74 73/73/73 71/71/71
f 77/77/77 76/76/76 75/75/75
f 78/78/78 77/77/77 75/75/75
f 81/81/81 80/80/80 79/79/79
f 79/79/79 82/82/82 81/81/81
f 82/82/82 83/83/83 81/81/81
f 86/86/86 85/85/85 84/84/84
f 89/89/89 88/88/88 87/87/87
f 90/90/90 89/89/89 87/87/87
f 93/93/93 92/92/92 91/91/91
f 96/96/96 95/95/95 94/94/94
f 97/97/97 96/96/96 94/94/94
f 100/100/100 99/99/99 98/98/98
f 101/101/101 100/100/100 98/98/98
f 104/104/104 103/103/103 102/102/102
f 105/105/105 104/104/104 102/102/102
f 108/108/108 107/107/107 106/106/106
f 109/109/109 108/108/108 106/106/106
f 112/112/112 111/111/111 110/110/110
f 113/113/113 112/112/112 110/110/110
f 116/116/116 115/115/115 114/114/114
f 117/117/117 116/116/116 114/114/114
f 120/120/120 119/119/119 118/118/118
f 121/121/121 120/120/120 118/118/118
f 124/124/124 123/123/123 122/122/122
f 125/125/125 124/124/124 122/122/122
f 128/128/128 127/127/127 126/126/126
f 129/129/129 128/128/128 126/126/126
f 132/132/132 131/131/131 130/130/130
f 133/133/133 132/132/132 130/130/130
f 136/136/136 135/135/135 134/134/134
f 137/137/137 136/136/136 134/134/134
f 140/140/140 139/139/139 138/138/138
f 141/141/141 140/140/140 138/138/138
f 144/144/144 143/143/143 142/142/142
f 145/145/145 144/144/144 142/142/142
f 148/148/148 147/147/147 146/146/146
f 149/149/149 148/148/148 146/146/146
f 152/152/152 151/151/151 150/150/150
f 153/153/153 152/152/152 150/150/150
f 156/156/156 155/155/155 154/154/154
f 157/157/157 156/156/156 154/154/154
f 160/160/160 159/159/159 158/158/158
f 161/161/161 160/160/160 158/158/158
f 164/164/164 163/163/163 162/162/162
f 167/167/167 166/166/166 165/165/165
f 170/170/170 169/169/169 168/168/168
f 171/171/171 170/170/170 168/168/168
f 174/174/174 173/173/173 172/172/172
f 175/175/175 174/174/174 172/172/172
f 178/178/178 177/177/177 176/176/176
f 179/179/179 178/178/178 176/176/176
f 182/182/182 181/181/181 180/180/180
f 183/183/183 182/182/182 180/180/180
f 186/186/186 185/185/185 184/184/184
f 187/187/187 186/186/186 184/184/184
f 190/190/190 189/189/189 188/188/188
f 191/191/191 190/190/190 188/188/188
f 194/194/194 193/193/193 192/192/192
f 197/197/197 196/196/196 195/195/195
f 200/200/200 199/199/199 198/198/198
f 201/201/201 200/200/200 198/198/198
f 201/201/201 202/202/202 200/200/200
f 202/202/202 203/203/203 200/200/200
f 206/206/206 205/205/205 204/204/204
f 207/207/207 206/206/206 204/204/204
f 210/210/210 209/209/209 208/208/208
f 211/211/211 210/210/210 208/208/208
f 214/214/214 213/213/213 212/212/212
f 215/215/215 214/214/214 212/212/212
f 215/215/215 216/216/216 214/214/214
f 216/216/216 217/217/217 214/214/214
f 220/220/220 219/219/219 218/218/218
f 221/221/221 220/220/220 218/218/218
f 224/224/224 223/223/223 222/222/222
f 225/225/225 224/224/224 222/222/222
f 228/228/228 227/227/227 226/226/226
f 229/229/229 228/228/228 226/226/226
f 232/232/232 231/231/231 230/230/230
f 233/233/233 232/232/232 230/230/230
f 236/236/236 235/235/235 234/234/234
f 237/237/237 236/236/236 234/234/234
