g bookCOL
v -0.118937 -0.4517096 0.02736507
v -0.4430263 -0.1160351 0.02736507
v 0.0977598 0.4385461 0.02736507
v 0.431024 0.1051582 0.02736507
v -0.4430263 -0.1160351 0.02736507
v -0.4430263 -0.1160351 -0.08959768
v 0.0977598 0.4385461 -0.08959768
v 0.0977598 0.4385461 0.02736507
v -0.4430263 -0.1160351 -0.08959768
v -0.118937 -0.4517096 -0.08959768
v 0.431024 0.1051582 -0.08959768
v 0.0977598 0.4385461 -0.08959768
v -0.118937 -0.4517096 -0.08959768
v -0.118937 -0.4517096 0.02736507
v 0.431024 0.1051582 0.02736507
v 0.431024 0.1051582 -0.08959768
v 0.431024 0.1051582 0.02736507
v 0.0977598 0.4385461 0.02736507
v 0.0977598 0.4385461 -0.08959768
v 0.431024 0.1051582 -0.08959768
v -0.118937 -0.4517096 -0.08959768
v -0.4430263 -0.1160351 -0.08959768
v -0.4430263 -0.1160351 0.02736507
v -0.118937 -0.4517096 0.02736507
vt 0.375 0
vt 0.375 0.25
vt 0.625 0.25
vt 0.625 0
vt 0.375 0.25
vt 0.375 0.5
vt 0.625 0.5
vt 0.625 0.25
vt 0.375 0.5
vt 0.375 0.75
vt 0.625 0.75
vt 0.625 0.5
vt 0.375 0.75
vt 0.375 1
vt 0.625 1
vt 0.625 0.75
vt 0.625 0
vt 0.625 0.25
vt 0.875 0.25
vt 0.875 0
vt 0.125 0
vt 0.125 0.25
vt 0.375 0.25
vt 0.375 0
vn 0 0 1
vn 0 0 1
vn 0 0 1
vn 0 0 1
vn -0.7159547 0.6981467 0
vn -0.7159547 0.6981467 0
vn -0.7159547 0.6981467 0
vn -0.7159547 0.6981467 0
vn 0 0 -1
vn 0 0 -1
vn 0 0 -1
vn 0 0 -1
vn 0.7115052 -0.7026808 0
vn 0.7115052 -0.7026808 0
vn 0.7115052 -0.7026808 0
vn 0.7115052 -0.7026808 0
vn 0.7072381 0.7069754 0
vn 0.7072381 0.7069754 0
vn 0.7072381 0.7069754 0
vn 0.7072381 0.7069754 0
vn -0.7194118 -0.6945838 0
vn -0.7194118 -0.6945838 0
vn -0.7194118 -0.6945838 0
vn -0.7194118 -0.6945838 0
g bookCOL_0
f 3/3/3 2/2/2 1/1/1
f 4/4/4 3/3/3 1/1/1
f 7/7/7 6/6/6 5/5/5
f 8/8/8 7/7/7 5/5/5
f 11/11/11 10/10/10 9/9/9
f 12/12/12 11/11/11 9/9/9
f 15/15/15 14/14/14 13/13/13
f 16/16/16 15/15/15 13/13/13
f 19/19/19 18/18/18 17/17/17
f 20/20/20 19/19/19 17/17/17
f 23/23/23 22/22/22 21/21/21
f 24/24/24 23/23/23 21/21/21
