g brokenGrandSanctumPieces
v 0.1566737 0.1754294 -0.307851
v -0.1177623 -0.06240651 -0.3550317
v 0.1194194 -0.2234111 -0.2913844
v -0.1799638 0.07616618 -0.3160331
v -0.1177623 -0.06240651 -0.3550317
v 0.1566737 0.1754294 -0.307851
v 0.1814788 -0.1161442 0.305351
v 0.214166 0.269126 -0.0608737
v 0.1889384 -0.2691259 -0.06702442
v 0.214166 0.269126 -0.0608737
v 0.1566737 0.1754294 -0.307851
v 0.1889384 -0.2691259 -0.06702442
v 0.1566737 0.1754294 -0.307851
v 0.1194194 -0.2234111 -0.2913844
v 0.1889384 -0.2691259 -0.06702442
v 0.100633 -0.1447916 0.355032
v 0.1271546 0.2463856 0.3533998
v 0.1814788 -0.1161442 0.305351
v 0.1271546 0.2463856 0.3533998
v 0.1840289 0.2533751 0.2673531
v 0.1814788 -0.1161442 0.305351
v 0.1814788 -0.1161442 0.305351
v 0.1840289 0.2533751 0.2673531
v 0.214166 0.269126 -0.0608737
v 0.100633 -0.1447916 0.355032
v -0.2141645 0.09772876 0.3420966
v 0.1271546 0.2463856 0.3533998
v 0.1271546 0.2463856 0.3533998
v -0.02994032 0.2215414 -0.03351994
v 0.1840289 0.2533751 0.2673531
v 0.214166 0.269126 -0.0608737
v 0.1271546 0.2463856 0.3533998
v -0.2141645 0.09772876 0.3420966
v -0.02994032 0.2215414 -0.03351994
v -0.2141645 0.137662 -0.04645534
v 0.100633 -0.1447916 0.355032
v 0.1814788 -0.1161442 0.305351
v -0.005485253 -0.2194252 -0.03351994
v 0.1889384 -0.2691259 -0.06702442
v 0.100633 -0.1447916 0.355032
v -0.005485253 -0.2194252 -0.03351994
v -0.2141645 0.09772876 0.3420966
v -0.005485253 -0.2194252 -0.03351994
v -0.2141645 0.137662 -0.04645534
v -0.2141645 0.09772876 0.3420966
v -0.02994032 0.2215414 -0.03351994
v 0.1566737 0.1754294 -0.307851
v 0.214166 0.269126 -0.0608737
v -0.2141645 0.137662 -0.04645534
v -0.1799638 0.07616618 -0.3160331
v -0.02994032 0.2215414 -0.03351994
v 0.1566737 0.1754294 -0.307851
v 0.1889384 -0.2691259 -0.06702442
v 0.1194194 -0.2234111 -0.2913844
v -0.005485253 -0.2194252 -0.03351994
v -0.1177623 -0.06240651 -0.3550317
v -0.005485253 -0.2194252 -0.03351994
v -0.1177623 -0.06240651 -0.3550317
v -0.2141645 0.137662 -0.04645534
v -0.1177623 -0.06240651 -0.3550317
v -0.1799638 0.07616618 -0.3160331
v -0.2141645 0.137662 -0.04645534
vt 0.167342 0.497827
vt 0.1855359 0.4816545
vt 0.1698812 0.4713111
vt 0.1898103 0.4910848
vt 0.1855359 0.4816545
vt 0.167342 0.497827
vt 0.1675452 0.4816217
vt 0.1642499 0.5053893
vt 0.1659169 0.4694614
vt 0.1642499 0.5053893
vt 0.167342 0.497827
vt 0.1659169 0.4694614
vt 0.167342 0.497827
vt 0.1698812 0.4713111
vt 0.1659169 0.4694614
vt 0.1730978 0.479954
vt 0.1713208 0.5060345
vt 0.1675452 0.4816217
vt 0.1713208 0.5060345
vt 0.1672595 0.5060608
vt 0.1675452 0.4816217
vt 0.1675452 0.4816217
vt 0.1672595 0.5060608
vt 0.1642499 0.5053893
vt 0.1730978 0.479954
vt 0.1940923 0.4959813
vt 0.1713208 0.5060345
vt 0.1713208 0.5060345
vt 0.1806434 0.5023022
vt 0.1672595 0.5060608
vt 0.1642499 0.5053893
vt 0.1713208 0.5060345
vt 0.1940923 0.4959813
vt 0.1806434 0.5023022
vt 0.1929134 0.496597
vt 0.1730978 0.479954
vt 0.1675452 0.4816217
vt 0.1790094 0.4729054
vt 0.1659169 0.4694614
vt 0.1730978 0.479954
vt 0.1790094 0.4729054
vt 0.1940923 0.4959813
vt 0.1790094 0.4729054
vt 0.1929134 0.496597
vt 0.1940923 0.4959813
vt 0.1806434 0.5023022
vt 0.167342 0.497827
vt 0.1642499 0.5053893
vt 0.1929134 0.496597
vt 0.1898103 0.4910848
vt 0.1806434 0.5023022
vt 0.167342 0.497827
vt 0.1659169 0.4694614
vt 0.1698812 0.4713111
vt 0.1790094 0.4729054
vt 0.1855359 0.4816545
vt 0.1790094 0.4729054
vt 0.1855359 0.4816545
vt 0.1929134 0.496597
vt 0.1855359 0.4816545
vt 0.1898103 0.4910848
vt 0.1929134 0.496597
vn 0.2200262 -0.06074817 -0.9736006
vn 0.2200262 -0.06074816 -0.9736006
vn 0.2200262 -0.06074817 -0.9736006
vn -0.05011242 0.2496585 -0.9670364
vn -0.05011242 0.2496585 -0.9670364
vn -0.05011242 0.2496585 -0.9670364
vn 0.9981067 -0.04723094 0.03939845
vn 0.9981067 -0.04723094 0.03939845
vn 0.9981067 -0.04723094 0.03939846
vn 0.9765509 -0.04336044 -0.2108748
vn 0.9765509 -0.04336044 -0.2108749
vn 0.9765509 -0.04336044 -0.2108749
vn 0.9442875 -0.1011334 -0.3131984
vn 0.9442875 -0.1011334 -0.3131984
vn 0.9442875 -0.1011334 -0.3131984
vn 0.5316203 -0.03251221 0.8463586
vn 0.5316203 -0.03251222 0.8463586
vn 0.5316203 -0.03251221 0.8463585
vn 0.8312261 0.05118773 0.553573
vn 0.8312261 0.05118773 0.553573
vn 0.8312261 0.05118772 0.553573
vn 0.9957969 0.002542301 0.09155393
vn 0.9957969 0.002542301 0.09155394
vn 0.9957969 0.002542301 0.09155393
vn -0.03597225 0.006608608 0.999331
vn -0.03597225 0.006608609 0.999331
vn -0.03597225 0.006608608 0.999331
vn -0.17182 0.9849643 0.01797846
vn -0.17182 0.9849643 0.01797846
vn -0.17182 0.9849643 0.01797846
vn -0.17182 0.9849643 0.01797846
vn -0.4064535 0.9081815 0.1000093
vn -0.4064534 0.9081815 0.1000093
vn -0.4064535 0.9081815 0.1000093
vn -0.4064535 0.9081815 0.1000093
vn 0.01283456 -0.9584322 0.2850316
vn 0.01283456 -0.9584322 0.2850316
vn 0.01283456 -0.9584322 0.2850316
vn 0.01283456 -0.9584322 0.2850316
vn -0.7495869 -0.6487464 0.1313298
vn -0.7495869 -0.6487464 0.1313298
vn -0.7495869 -0.6487464 0.1313298
vn -0.7495869 -0.6487464 0.1313298
vn -0.7495869 -0.6487464 0.1313298
vn -0.7495869 -0.6487464 0.1313298
vn -0.2149034 0.9286758 -0.3022875
vn -0.2149034 0.9286758 -0.3022875
vn -0.2149034 0.9286758 -0.3022875
vn -0.3052213 0.9029416 -0.3025495
vn -0.3052213 0.9029416 -0.3025495
vn -0.3052213 0.9029416 -0.3025495
vn -0.3052213 0.9029416 -0.3025496
vn -0.4200025 -0.8874696 -0.189725
vn -0.4200025 -0.8874696 -0.189725
vn -0.4200025 -0.8874696 -0.189725
vn -0.4200025 -0.8874696 -0.189725
vn -0.8760307 -0.4807541 0.03802143
vn -0.8760307 -0.4807541 0.03802143
vn -0.8760307 -0.4807541 0.03802143
vn -0.8760307 -0.4807541 0.03802143
vn -0.8760307 -0.4807541 0.03802143
vn -0.8760307 -0.4807541 0.03802143
g brokenGrandSanctumPieces_0
f 3/3/3 2/2/2 1/1/1
f 6/6/6 5/5/5 4/4/4
f 9/9/9 8/8/8 7/7/7
f 12/12/12 11/11/11 10/10/10
f 15/15/15 14/14/14 13/13/13
f 18/18/18 17/17/17 16/16/16
f 21/21/21 20/20/20 19/19/19
f 24/24/24 23/23/23 22/22/22
f 27/27/27 26/26/26 25/25/25
f 30/30/30 29/29/29 28/28/28
f 30/30/30 31/31/31 29/29/29
f 34/34/34 33/33/33 32/32/32
f 34/34/34 35/35/35 33/33/33
f 38/38/38 37/37/37 36/36/36
f 38/38/38 39/39/39 37/37/37
f 42/42/42 41/41/41 40/40/40
f 45/45/45 44/44/44 43/43/43
f 48/48/48 47/47/47 46/46/46
f 51/51/51 50/50/50 49/49/49
f 51/51/51 52/52/52 50/50/50
f 55/55/55 54/54/54 53/53/53
f 55/55/55 56/56/56 54/54/54
f 59/59/59 58/58/58 57/57/57
f 62/62/62 61/61/61 60/60/60
