g brokenSanctumCOL
v -1.493687 -0.06380463 1.206928
v -0.484663 1.19524 0.5417118
v 0.5987616 1.19524 0.5417118
v 1.149457 -0.06380463 1.237175
v -0.484663 1.668663 0.5417118
v -0.484663 2.086285 -0.5417118
v 0.5987616 2.086285 -0.5417118
v 0.5987616 1.668663 0.5417118
v -0.484663 1.138885 -0.5417118
v -1.630474 -0.06380463 -1.162281
v 1.238809 -0.06380463 -1.109234
v 0.5987616 1.138885 -0.5417118
v -1.630474 -0.06380463 -1.162281
v -1.493687 -0.06380463 1.206928
v 1.149457 -0.06380463 1.237175
v 1.238809 -0.06380463 -1.109234
v 1.149457 -0.06380463 1.237175
v 0.5987616 1.19524 0.5417118
v 0.5987616 1.138885 -0.5417118
v 1.238809 -0.06380463 -1.109234
v -1.630474 -0.06380463 -1.162281
v -0.484663 1.138885 -0.5417118
v -0.484663 1.19524 0.5417118
v -1.493687 -0.06380463 1.206928
v -0.484663 1.138885 -0.5417118
v -0.484663 2.086285 -0.5417118
v -0.484663 1.668663 0.5417118
v -0.484663 1.19524 0.5417118
v -0.484663 2.086285 -0.5417118
v -0.484663 1.138885 -0.5417118
v 0.5987616 1.138885 -0.5417118
v 0.5987616 2.086285 -0.5417118
v 0.5987616 1.19524 0.5417118
v 0.5987616 1.668663 0.5417118
v 0.5987616 2.086285 -0.5417118
v 0.5987616 1.138885 -0.5417118
v -0.484663 1.19524 0.5417118
v -0.484663 1.668663 0.5417118
v 0.5987616 1.668663 0.5417118
v 0.5987616 1.19524 0.5417118
vt 0.375 0
vt 0.375 0.197887
vt 0.625 0.197887
vt 0.625 0
vt 0.375 0.25
vt 0.375 0.5
vt 0.625 0.5
vt 0.625 0.25
vt 0.375 0.5440187
vt 0.375 0.75
vt 0.625 0.75
vt 0.625 0.5440187
vt 0.375 0.75
vt 0.375 1
vt 0.625 1
vt 0.625 0.75
vt 0.625 0
vt 0.625 0.197887
vt 0.875 0.2059813
vt 0.875 0
vt 0.125 0
vt 0.125 0.2059813
vt 0.375 0.197887
vt 0.375 0
vt 0.125 0.2059813
vt 0.125 0.25
vt 0.375 0.25
vt 0.375 0.197887
vt 0.375 0.5
vt 0.375 0.5440187
vt 0.625 0.5440187
vt 0.625 0.5
vt 0.625 0.197887
vt 0.625 0.25
vt 0.875 0.25
vt 0.875 0.2059813
vt 0.375 0.197887
vt 0.375 0.25
vt 0.625 0.25
vt 0.625 0.197887
vn -0.007136111 0.4763884 0.879206
vn -0.007136112 0.4763884 0.879206
vn -0.007136112 0.4763884 0.879206
vn -0.007136111 0.4763884 0.879206
vn 0 0.9330797 0.3596694
vn 0 0.9330797 0.3596694
vn 0 0.9330797 0.3596694
vn 0 0.9330797 0.3596694
vn 0.01204528 0.4407857 -0.8975315
vn 0.01204528 0.4407857 -0.8975315
vn 0.01204528 0.4407857 -0.8975315
vn 0.01204528 0.4407858 -0.8975315
vn 0 -1 0
vn 0 -1 0
vn 0 -1 0
vn 0 -1 0
vn 0.8997684 0.4360642 0.01627531
vn 0.8997684 0.4360643 0.01627531
vn 0.8997684 0.4360642 0.01627531
vn 0.8997684 0.4360643 0.01627531
vn -0.7521452 0.658722 0.01904692
vn -0.7521452 0.6587221 0.01904692
vn -0.7521452 0.6587221 0.01904692
vn -0.7521452 0.6587221 0.01904692
vn -1 0 0
vn -1 0 0
vn -1 0 0
vn -1 0 0
vn 0 0 -1
vn 0 0 -1
vn 0 0 -1
vn 0 0 -1
vn 1 0 0
vn 1 0 0
vn 1 0 0
vn 1 0 0
vn 0 0 1
vn 0 0 1
vn 0 0 1
vn 0 0 1
g brokenSanctumCOL_0
f 3/3/3 2/2/2 1/1/1
f 4/4/4 3/3/3 1/1/1
f 7/7/7 6/6/6 5/5/5
f 8/8/8 7/7/7 5/5/5
f 11/11/11 10/10/10 9/9/9
f 12/12/12 11/11/11 9/9/9
f 15/15/15 14/14/14 13/13/13
f 16/16/16 15/15/15 13/13/13
f 19/19/19 18/18/18 17/17/17
f 20/20/20 19/19/19 17/17/17
f 23/23/23 22/22/22 21/21/21
f 24/24/24 23/23/23 21/21/21
f 27/27/27 26/26/26 25/25/25
f 28/28/28 27/27/27 25/25/25
f 31/31/31 30/30/30 29/29/29
f 32/32/32 31/31/31 29/29/29
f 35/35/35 34/34/34 33/33/33
f 36/36/36 35/35/35 33/33/33
f 39/39/39 38/38/38 37/37/37
f 40/40/40 39/39/39 37/37/37
