g BrokenPlank
v 0.1124678 1.427636 -0.02357575
v -0.03592667 1.427636 -0.02357575
v 0.1124678 0.3969784 -0.02357575
v -0.03592667 -0.1773466 -0.02357575
v 0.02948883 -0.1773466 -0.02357575
v 0.03376175 0.1872893 -0.02357575
v 0.0559317 0.1884146 -0.02357575
v 0.02948883 -0.1773466 -0.02357575
v 0.03376175 0.1872893 -0.02357575
v -0.03592667 1.427636 -0.02357575
v 0.0559317 0.1884146 -0.02357575
v 0.06255524 0.3183378 -0.02357575
v -0.03592667 1.427636 -0.02357575
v 0.1124678 0.3969784 -0.02357575
v -0.03592667 1.427636 -0.02357575
v 0.06255524 0.3183378 -0.02357575
v 0.1124678 1.427636 0.02468923
v 0.1124678 0.3969784 0.02468923
v -0.03592667 1.427636 0.02468923
v 0.06255524 0.3183378 0.02468923
v 0.0559317 0.1884146 0.02468923
v 0.03376175 0.1872893 0.02468923
v -0.03592667 -0.1773466 0.02468923
v 0.02948883 -0.1773466 0.02468923
v 0.02948883 -0.1773466 0.02468923
v -0.03592667 1.427636 0.02468923
v 0.03376175 0.1872893 0.02468923
v 0.1124678 1.427636 0.02468923
v -0.03592667 1.427636 0.02468923
v 0.1124678 1.427636 -0.02357575
v -0.03592667 1.427636 -0.02357575
v -0.03592667 1.427636 0.02468923
v -0.03592667 -0.1773466 0.02468923
v -0.03592667 1.427636 -0.02357575
v -0.03592667 -0.1773466 -0.02357575
v -0.03592667 -0.1773466 0.02468923
v 0.02948883 -0.1773466 0.02468923
v -0.03592667 -0.1773466 -0.02357575
v 0.02948883 -0.1773466 -0.02357575
v 0.02948883 -0.1773466 0.02468923
v 0.03376175 0.1872893 0.02468923
v 0.02948883 -0.1773466 -0.02357575
v 0.03376175 0.1872893 -0.02357575
v 0.03376175 0.1872893 0.02468923
v 0.0559317 0.1884146 0.02468923
v 0.03376175 0.1872893 -0.02357575
v 0.0559317 0.1884146 -0.02357575
v 0.0559317 0.1884146 0.02468923
v 0.06255524 0.3183378 0.02468923
v 0.0559317 0.1884146 -0.02357575
v 0.06255524 0.3183378 -0.02357575
v 0.06255524 0.3183378 0.02468923
v 0.1124678 0.3969784 0.02468923
v 0.06255524 0.3183378 -0.02357575
v 0.1124678 0.3969784 -0.02357575
v 0.1124678 0.3969784 0.02468923
v 0.1124678 1.427636 0.02468923
v 0.1124678 0.3969784 -0.02357575
v 0.1124678 1.427636 0.02468923
v 0.1124678 1.427636 -0.02357575
v 0.1124678 0.3969784 -0.02357575
v 0.2833835 1.320366 -0.03744955
v 0.2883783 1.337052 -0.04358726
v -0.04487564 1.319914 -0.03744955
v -0.05428909 1.337027 -0.04358726
v 0.275347 1.355688 -0.03744955
v 0.275347 1.355688 0.03725006
v -0.04249786 1.35614 -0.03744955
v -0.04249786 1.35614 0.03725006
v 0.2883783 1.337052 0.04358726
v 0.2833835 1.320366 0.03725006
v -0.04912979 1.337027 0.04358726
v -0.04487564 1.319914 0.03725006
v 0.2833835 1.320366 0.03725006
v 0.2833835 1.320366 -0.03744955
v -0.04487564 1.319914 0.03725006
v -0.04487564 1.319914 -0.03744955
v -0.04487564 1.319914 0.03725006
v -0.04487564 1.319914 -0.03744955
v -0.04912979 1.337027 0.04358726
v -0.04487564 1.319914 -0.03744955
v -0.05428909 1.337027 -0.04358726
v -0.04912979 1.337027 0.04358726
v 0.2833835 1.320366 -0.03744955
v 0.2833835 1.320366 0.03725006
v 0.2883783 1.337052 -0.04358726
v 0.2883783 1.337052 0.04358726
v 0.2883783 1.337052 0.04358726
v 0.275347 1.355688 0.03725006
v 0.2883783 1.337052 -0.04358726
v 0.275347 1.355688 -0.03744955
v -0.04249786 1.35614 0.03725006
v 0.275347 1.355688 0.03725006
v -0.04912979 1.337027 0.04358726
v 0.2883783 1.337052 0.04358726
v -0.05428909 1.337027 -0.04358726
v -0.04249786 1.35614 -0.03744955
v -0.04912979 1.337027 0.04358726
v -0.04249786 1.35614 -0.03744955
v -0.04249786 1.35614 0.03725006
v -0.04912979 1.337027 0.04358726
v 0.2883783 1.337052 -0.04358726
v 0.275347 1.355688 -0.03744955
v -0.05428909 1.337027 -0.04358726
v -0.04249786 1.35614 -0.03744955
v 0.2347722 0.8582137 -0.02357576
v 0.2743635 1.257459 -0.02357576
v 0.1990507 0.9340571 -0.02357576
v 0.2588989 1.427636 -0.02357576
v 0.1259691 1.427636 -0.02357576
v 0.2743635 1.257459 -0.02357576
v 0.1990507 0.9340571 -0.02357576
v 0.1259691 0.4222522 -0.02357576
v 0.1817317 0.496368 -0.02357576
v 0.1259691 1.427636 -0.02357576
v 0.1817317 0.496368 -0.02357576
v 0.2032051 0.6140974 -0.02357576
v 0.1259691 1.427636 -0.02357576
v 0.2743635 0.6352138 -0.02357576
v 0.2497214 0.7403148 -0.02357576
v 0.2032051 0.6140974 -0.02357576
v 0.1973401 0.7719732 -0.02357576
v 0.2032051 0.6140974 -0.02357576
v 0.1973401 0.7719732 -0.02357576
v 0.1259691 1.427636 -0.02357576
v 0.1973401 0.7719732 -0.02357576
v 0.1990507 0.9340571 -0.02357576
v 0.1259691 1.427636 -0.02357576
v 0.2347722 0.8582137 0.02468923
v 0.1990507 0.9340571 0.02468923
v 0.2743635 1.257459 0.02468923
v 0.1259691 0.4222522 0.02468923
v 0.1259691 1.427636 0.02468923
v 0.1817317 0.496368 0.02468923
v 0.1817317 0.496368 0.02468923
v 0.1259691 1.427636 0.02468923
v 0.2032051 0.6140974 0.02468923
v 0.2743635 0.6352138 0.02468923
v 0.2032051 0.6140974 0.02468923
v 0.2497214 0.7403148 0.02468923
v 0.1973401 0.7719732 0.02468923
v 0.2588989 1.427636 0.02468923
v 0.2743635 1.257459 0.02468923
v 0.1259691 1.427636 0.02468923
v 0.1990507 0.9340571 0.02468923
v 0.2032051 0.6140974 0.02468923
v 0.1259691 1.427636 0.02468923
v 0.1973401 0.7719732 0.02468923
v 0.1973401 0.7719732 0.02468923
v 0.1259691 1.427636 0.02468923
v 0.1990507 0.9340571 0.02468923
v 0.2588989 1.427636 0.02468923
v 0.1259691 1.427636 0.02468923
v 0.2588989 1.427636 -0.02357576
v 0.1259691 1.427636 -0.02357576
v 0.1259691 1.427636 0.02468923
v 0.1259691 0.4222522 0.02468923
v 0.1259691 1.427636 -0.02357576
v 0.1259691 0.4222522 -0.02357576
v 0.1259691 0.4222522 0.02468923
v 0.1817317 0.496368 0.02468923
v 0.1259691 0.4222522 -0.02357576
v 0.1817317 0.496368 -0.02357576
v 0.1817317 0.496368 0.02468923
v 0.2032051 0.6140974 0.02468923
v 0.1817317 0.496368 -0.02357576
v 0.2032051 0.6140974 -0.02357576
v 0.2032051 0.6140974 0.02468923
v 0.2743635 0.6352138 0.02468923
v 0.2032051 0.6140974 -0.02357576
v 0.2743635 0.6352138 -0.02357576
v 0.2743635 0.6352138 0.02468923
v 0.2497214 0.7403148 0.02468923
v 0.2743635 0.6352138 -0.02357576
v 0.2497214 0.7403148 -0.02357576
v 0.2497214 0.7403148 0.02468923
v 0.1973401 0.7719732 0.02468923
v 0.2497214 0.7403148 -0.02357576
v 0.1973401 0.7719732 -0.02357576
v 0.1973401 0.7719732 0.02468923
v 0.1990507 0.9340571 0.02468923
v 0.1973401 0.7719732 -0.02357576
v 0.1990507 0.9340571 -0.02357576
v 0.1990507 0.9340571 0.02468923
v 0.2347722 0.8582137 0.02468923
v 0.1990507 0.9340571 -0.02357576
v 0.2347722 0.8582137 -0.02357576
v 0.2347722 0.8582137 0.02468923
v 0.2743635 1.257459 0.02468923
v 0.2347722 0.8582137 -0.02357576
v 0.2743635 1.257459 0.02468923
v 0.2743635 1.257459 -0.02357576
v 0.2347722 0.8582137 -0.02357576
v 0.2743635 1.257459 0.02468923
v 0.2588989 1.427636 0.02468923
v 0.2743635 1.257459 -0.02357576
v 0.2588989 1.427636 -0.02357576
v 0.2734871 0.6696445 -0.03423306
v 0.278482 0.6863307 -0.04037076
v -0.04487564 0.6691931 -0.03423306
v -0.05428909 0.6863058 -0.04037076
v 0.2654504 0.7049671 -0.03423306
v 0.2654504 0.7049671 0.0360408
v -0.04249786 0.7054184 -0.03423306
v -0.04249786 0.7054184 0.0360408
v 0.278482 0.6863307 0.042378
v 0.2734871 0.6696445 0.0360408
v -0.04912979 0.6863058 0.042378
v -0.04487564 0.6691931 0.0360408
v 0.2734871 0.6696445 0.0360408
v 0.2734871 0.6696445 -0.03423306
v -0.04487564 0.6691931 0.0360408
v -0.04487564 0.6691931 -0.03423306
v -0.04487564 0.6691931 0.0360408
v -0.04487564 0.6691931 -0.03423306
v -0.04912979 0.6863058 0.042378
v -0.04487564 0.6691931 -0.03423306
v -0.05428909 0.6863058 -0.04037076
v -0.04912979 0.6863058 0.042378
v 0.2734871 0.6696445 -0.03423306
v 0.2734871 0.6696445 0.0360408
v 0.278482 0.6863307 -0.04037076
v 0.278482 0.6863307 0.042378
v 0.278482 0.6863307 0.042378
v 0.2654504 0.7049671 0.0360408
v 0.278482 0.6863307 -0.04037076
v 0.2654504 0.7049671 -0.03423306
v -0.04249786 0.7054184 0.0360408
v 0.2654504 0.7049671 0.0360408
v -0.04912979 0.6863058 0.042378
v 0.278482 0.6863307 0.042378
v -0.05428909 0.6863058 -0.04037076
v -0.04249786 0.7054184 -0.03423306
v -0.04912979 0.6863058 0.042378
v -0.04249786 0.7054184 -0.03423306
v -0.04249786 0.7054184 0.0360408
v -0.04912979 0.6863058 0.042378
v 0.278482 0.6863307 -0.04037076
v 0.2654504 0.7049671 -0.03423306
v -0.05428909 0.6863058 -0.04037076
v -0.04249786 0.7054184 -0.03423306
vt 0.2843895 0.8576515
vt 0.2755084 0.8576452
vt 0.2844747 0.7989769
vt 0.2764178 0.7691159
vt 0.2799893 0.7691329
vt 0.2801078 0.7878497
vt 0.2813424 0.7879134
vt 0.2799893 0.7691329
vt 0.2801078 0.7878497
vt 0.2755084 0.8576452
vt 0.2813424 0.7879134
vt 0.281681 0.7947694
vt 0.2755084 0.8576452
vt 0.2844747 0.7989769
vt 0.2755084 0.8576452
vt 0.281681 0.7947694
vt 0.2843967 0.8575323
vt 0.2844821 0.79844
vt 0.2754472 0.8575259
vt 0.2816682 0.7942046
vt 0.2813272 0.7873036
vt 0.2800839 0.7872394
vt 0.2763685 0.7683865
vt 0.279965 0.7684038
vt 0.279965 0.7684038
vt 0.2754472 0.8575259
vt 0.2800839 0.7872394
vt 0.2843967 0.8575323
vt 0.2754472 0.8575259
vt 0.2843895 0.8576515
vt 0.2755084 0.8576452
vt 0.2754472 0.8575259
vt 0.2763685 0.7683865
vt 0.2755084 0.8576452
vt 0.2764178 0.7691159
vt 0.2763685 0.7683865
vt 0.279965 0.7684038
vt 0.2764178 0.7691159
vt 0.2799893 0.7691329
vt 0.279965 0.7684038
vt 0.2800839 0.7872394
vt 0.2799893 0.7691329
vt 0.2801078 0.7878497
vt 0.2800839 0.7872394
vt 0.2813272 0.7873036
vt 0.2801078 0.7878497
vt 0.2813424 0.7879134
vt 0.2813272 0.7873036
vt 0.2816682 0.7942046
vt 0.2813424 0.7879134
vt 0.281681 0.7947694
vt 0.2816682 0.7942046
vt 0.2844821 0.79844
vt 0.281681 0.7947694
vt 0.2844747 0.7989769
vt 0.2844821 0.79844
vt 0.2843967 0.8575323
vt 0.2844747 0.7989769
vt 0.2843967 0.8575323
vt 0.2843895 0.8576515
vt 0.2844747 0.7989769
vt 0.6009052 0.9667668
vt 0.6021301 0.9709948
vt 0.5197791 0.9665735
vt 0.5174382 0.9709078
vt 0.5989928 0.9755453
vt 0.5995178 0.9745677
vt 0.5202712 0.9755867
vt 0.5198616 0.9746085
vt 0.6027862 0.9697911
vt 0.6014518 0.9656874
vt 0.5182149 0.969703
vt 0.5193644 0.9654908
vt 0.6014518 0.9656874
vt 0.6009052 0.9667668
vt 0.5193644 0.9654908
vt 0.5197791 0.9665735
vt 0.5193644 0.9654908
vt 0.5197791 0.9665735
vt 0.5182149 0.969703
vt 0.5197791 0.9665735
vt 0.5174382 0.9709078
vt 0.5182149 0.969703
vt 0.6009052 0.9667668
vt 0.6014518 0.9656874
vt 0.6021301 0.9709948
vt 0.6027862 0.9697911
vt 0.6027862 0.9697911
vt 0.5995178 0.9745677
vt 0.6021301 0.9709948
vt 0.5989928 0.9755453
vt 0.5198616 0.9746085
vt 0.5995178 0.9745677
vt 0.5182149 0.969703
vt 0.6027862 0.9697911
vt 0.5174382 0.9709078
vt 0.5202712 0.9755867
vt 0.5182149 0.969703
vt 0.5202712 0.9755867
vt 0.5198616 0.9746085
vt 0.5182149 0.969703
vt 0.6021301 0.9709948
vt 0.5989928 0.9755453
vt 0.5174382 0.9709078
vt 0.5202712 0.9755867
vt 0.2915104 0.8243825
vt 0.2939873 0.8474793
vt 0.2894611 0.8286827
vt 0.2931461 0.8576577
vt 0.2851972 0.857652
vt 0.2939873 0.8474793
vt 0.2894611 0.8286827
vt 0.2852345 0.8003364
vt 0.2883905 0.8043479
vt 0.2851972 0.857652
vt 0.2883905 0.8043479
vt 0.2896318 0.8107765
vt 0.2851972 0.857652
vt 0.2936974 0.8119494
vt 0.2923303 0.8177682
vt 0.2896318 0.8107765
vt 0.2893289 0.8195285
vt 0.2896318 0.8107765
vt 0.2893289 0.8195285
vt 0.2851972 0.857652
vt 0.2893289 0.8195285
vt 0.2894611 0.8286827
vt 0.2851972 0.857652
vt 0.2915703 0.8240201
vt 0.2895059 0.8283508
vt 0.2940675 0.847284
vt 0.2852474 0.7998086
vt 0.2852105 0.8575329
vt 0.2884264 0.8038471
vt 0.2884264 0.8038471
vt 0.2852105 0.8575329
vt 0.2896771 0.8103195
vt 0.2937725 0.8115005
vt 0.2896771 0.8103195
vt 0.2923958 0.8173595
vt 0.2893723 0.8191321
vt 0.2932205 0.8575386
vt 0.2940675 0.847284
vt 0.2852105 0.8575329
vt 0.2895059 0.8283508
vt 0.2896771 0.8103195
vt 0.2852105 0.8575329
vt 0.2893723 0.8191321
vt 0.2893723 0.8191321
vt 0.2852105 0.8575329
vt 0.2895059 0.8283508
vt 0.2932205 0.8575386
vt 0.2852105 0.8575329
vt 0.2931461 0.8576577
vt 0.2851972 0.857652
vt 0.2852105 0.8575329
vt 0.2852474 0.7998086
vt 0.2851972 0.857652
vt 0.2852345 0.8003364
vt 0.2852474 0.7998086
vt 0.2884264 0.8038471
vt 0.2852345 0.8003364
vt 0.2883905 0.8043479
vt 0.2884264 0.8038471
vt 0.2896771 0.8103195
vt 0.2883905 0.8043479
vt 0.2896318 0.8107765
vt 0.2896771 0.8103195
vt 0.2937725 0.8115005
vt 0.2896318 0.8107765
vt 0.2936974 0.8119494
vt 0.2937725 0.8115005
vt 0.2923958 0.8173595
vt 0.2936974 0.8119494
vt 0.2923303 0.8177682
vt 0.2923958 0.8173595
vt 0.2893723 0.8191321
vt 0.2923303 0.8177682
vt 0.2893289 0.8195285
vt 0.2893723 0.8191321
vt 0.2895059 0.8283508
vt 0.2893289 0.8195285
vt 0.2894611 0.8286827
vt 0.2895059 0.8283508
vt 0.2915703 0.8240201
vt 0.2894611 0.8286827
vt 0.2915104 0.8243825
vt 0.2915703 0.8240201
vt 0.2940675 0.847284
vt 0.2915104 0.8243825
vt 0.2940675 0.847284
vt 0.2939873 0.8474793
vt 0.2915104 0.8243825
vt 0.2940675 0.847284
vt 0.2932205 0.8575386
vt 0.2939873 0.8474793
vt 0.2931461 0.8576577
vt 0.5972257 0.9552593
vt 0.5984054 0.9593291
vt 0.5214403 0.95495
vt 0.5191858 0.9591123
vt 0.5953761 0.9633954
vt 0.5958124 0.9608331
vt 0.5219178 0.9633073
vt 0.5215647 0.9607418
vt 0.5989575 0.9562609
vt 0.5976809 0.952615
vt 0.5199804 0.9560421
vt 0.5210828 0.9523003
vt 0.5976809 0.952615
vt 0.5972257 0.9552593
vt 0.5210828 0.9523003
vt 0.5214403 0.95495
vt 0.5210828 0.9523003
vt 0.5214403 0.95495
vt 0.5199804 0.9560421
vt 0.5214403 0.95495
vt 0.5191858 0.9591123
vt 0.5199804 0.9560421
vt 0.5972257 0.9552593
vt 0.5976809 0.952615
vt 0.5984054 0.9593291
vt 0.5989575 0.9562609
vt 0.5989575 0.9562609
vt 0.5958124 0.9608331
vt 0.5984054 0.9593291
vt 0.5953761 0.9633954
vt 0.5215647 0.9607418
vt 0.5958124 0.9608331
vt 0.5199804 0.9560421
vt 0.5989575 0.9562609
vt 0.5191858 0.9591123
vt 0.5219178 0.9633073
vt 0.5199804 0.9560421
vt 0.5219178 0.9633073
vt 0.5215647 0.9607418
vt 0.5199804 0.9560421
vt 0.5984054 0.9593291
vt 0.5953761 0.9633954
vt 0.5191858 0.9591123
vt 0.5219178 0.9633073
vn 0 0 -1
vn 0 0 -1
vn 0 0 -1
vn 0 0 -1
vn 0 0 -1
vn 0 0 -1
vn 0 0 -1
vn 1.987417E-07 0 -1
vn 1.987417E-07 0 -1
vn 1.987417E-07 0 -1
vn 0 0 -1
vn 0 0 -1
vn 0 0 -1
vn 0 0 -1
vn 0 0 -1
vn 0 0 -1
vn 0 0 1
vn 0 0 1
vn 0 0 1
vn 0 0 1
vn 0 0 1
vn 0 0 1
vn 0 0 1
vn 0 0 1
vn 1.987417E-07 0 1
vn 1.987417E-07 0 1
vn 1.987417E-07 0 1
vn 0 1 0
vn 0 1 0
vn 0 1 0
vn 0 1 0
vn -1 0 0
vn -1 0 0
vn -1 0 0
vn -1 0 0
vn 0 -1 0
vn 0 -1 0
vn 0 -1 0
vn 0 -1 0
vn 0.9999313 -0.0117175 0
vn 0.9999313 -0.0117175 0
vn 0.9999313 -0.0117175 0
vn 0.9999313 -0.01171752 0
vn 0.05068995 -0.9987144 0
vn 0.05068995 -0.9987144 0
vn 0.05068995 -0.9987144 0
vn 0.05068995 -0.9987144 0
vn 0.998703 -0.05091429 0
vn 0.998703 -0.05091428 0
vn 0.998703 -0.05091428 0
vn 0.998703 -0.05091423 0
vn 0.8443003 -0.5358703 0
vn 0.8443003 -0.5358704 0
vn 0.8443003 -0.5358703 0
vn 0.8443003 -0.5358703 0
vn 1 0 0
vn 1 0 0
vn 1 0 0
vn 1 0 0
vn 1 0 0
vn 1 0 0
vn 0.0004750169 -0.3453434 -0.9384763
vn 0.0004750169 -0.3453434 -0.9384763
vn 0.0004750169 -0.3453434 -0.9384763
vn 2.449452E-05 -0.3375957 -0.9412912
vn 0.001420527 0.999999 0
vn 0.001420527 0.999999 0
vn 0.001420527 0.999999 0
vn 0.001420527 0.999999 0
vn 2.616914E-05 -0.3550573 0.9348446
vn 2.616914E-05 -0.3550573 0.9348446
vn 2.616913E-05 -0.3550573 0.9348446
vn 0.000477514 -0.347169 0.9378024
vn 0.00137546 -0.999999 0
vn 0.001375459 -0.999999 0
vn 0.001375459 -0.999999 0
vn 0.00137546 -0.999999 0
vn -0.9704625 -0.2412521 0
vn -0.9704625 -0.2412521 0
vn -0.9704625 -0.2412521 0
vn -0.8827831 -0.4668665 0.05224666
vn -0.8827831 -0.4668666 0.05224666
vn -0.8827831 -0.4668666 0.05224667
vn 0.9580001 -0.2867679 0
vn 0.9580001 -0.2867679 0
vn 0.9580001 -0.2867678 0
vn 0.9580003 -0.2867672 0
vn 0.8195236 0.5730456 0
vn 0.8195235 0.5730456 0
vn 0.8195236 0.5730456 0
vn 0.819524 0.5730447 0
vn 0.0004468926 0.3145879 0.9492282
vn 0.0004468926 0.3145879 0.9492282
vn 0.0004468927 0.3145879 0.9492282
vn -2.372699E-05 0.3219228 0.9467659
vn -0.8571723 0.5125253 0.05073065
vn -0.8571723 0.5125253 0.05073065
vn -0.8571723 0.5125251 0.05073065
vn -0.9447415 0.3278165 0
vn -0.9447414 0.3278165 0
vn -0.9447414 0.3278165 0
vn -2.270782E-05 0.3127971 -0.94982
vn -2.270782E-05 0.3127972 -0.9498199
vn -2.270782E-05 0.3127972 -0.9498199
vn 0.0004339931 0.3055117 -0.9521883
vn 0 0 -1
vn 0 0 -1
vn 0 0 -1
vn 0 0 -1
vn 0 0 -1
vn 0 0 -1
vn 0 0 -1
vn 0 0 -1
vn 0 0 -1
vn 0 0 -1
vn 1.436127E-07 0 -1
vn 1.436127E-07 0 -1
vn 1.436127E-07 0 -1
vn 0 0 -1
vn 0 0 -1
vn 0 0 -1
vn 0 0 -1
vn -2.05581E-07 0 -1
vn -2.05581E-07 0 -1
vn -2.05581E-07 0 -1
vn 0 0 -1
vn 0 0 -1
vn 0 0 -1
vn 0 0 1
vn 0 0 1
vn 0 0 1
vn 0 0 1
vn 0 0 1
vn 0 0 1
vn 1.148902E-07 0 1
vn 1.148902E-07 0 1
vn 1.148902E-07 0 1
vn 0 0 1
vn 0 0 1
vn 0 0 1
vn 0 0 1
vn 0 0 1
vn 0 0 1
vn 0 0 1
vn 0 0 1
vn 0 0 1
vn 0 0 1
vn 0 0 1
vn -2.404907E-07 0 1
vn -2.404907E-07 0 1
vn -2.404907E-07 0 1
vn 0 1 0
vn 0 1 0
vn 0 1 0
vn 0 1 0
vn -1 0 0
vn -1 0 0
vn -1 0 0
vn -1 0 0
vn 0.7990892 -0.6012126 0
vn 0.7990892 -0.6012126 0
vn 0.7990892 -0.6012126 0
vn 0.7990892 -0.6012126 0
vn 0.9837698 -0.1794356 0
vn 0.9837698 -0.1794356 0
vn 0.9837698 -0.1794356 0
vn 0.9837697 -0.1794358 0
vn 0.2844894 -0.9586792 0
vn 0.2844894 -0.9586792 0
vn 0.2844894 -0.9586792 0
vn 0.2844896 -0.9586791 0
vn 0.9735975 0.2282714 0
vn 0.9735975 0.2282714 0
vn 0.9735975 0.2282714 0
vn 0.9735975 0.2282714 0
vn 0.5172517 0.8558334 0
vn 0.5172517 0.8558334 0
vn 0.5172517 0.8558334 0
vn 0.5172517 0.8558334 0
vn 0.9999443 -0.01055361 0
vn 0.9999443 -0.01055361 0
vn 0.9999443 -0.01055361 0
vn 0.9999443 -0.01055361 0
vn -0.9046788 -0.4260941 0
vn -0.9046788 -0.4260941 0
vn -0.9046788 -0.4260941 0
vn -0.9046789 -0.4260941 0
vn 0.9951191 -0.0986814 0
vn 0.9951191 -0.0986814 0
vn 0.9951191 -0.09868139 0
vn 0.9951191 -0.09868139 0
vn 0.9951191 -0.0986814 0
vn 0.9951191 -0.0986814 0
vn 0.9958963 0.090501 0
vn 0.9958963 0.090501 0
vn 0.9958963 0.09050101 0
vn 0.9958963 0.09050119 0
vn 0.0004896195 -0.3453471 -0.938475
vn 0.0004896195 -0.3453472 -0.9384748
vn 0.0004896195 -0.3453472 -0.9384748
vn 2.522706E-05 -0.3375922 -0.9412924
vn 0.001465435 0.9999989 0
vn 0.001465435 0.9999989 0
vn 0.001465435 0.9999989 0
vn 0.001465435 0.9999989 0
vn 2.695903E-05 -0.3550488 0.9348478
vn 2.695903E-05 -0.3550487 0.9348478
vn 2.695903E-05 -0.3550487 0.9348478
vn 0.0004921837 -0.3471669 0.9378031
vn 0.001417737 -0.999999 0
vn 0.001417737 -0.999999 0
vn 0.001417737 -0.999999 0
vn 0.001417737 -0.999999 0
vn -0.9704624 -0.2412527 0
vn -0.9704624 -0.2412527 0
vn -0.9704624 -0.2412527 0
vn -0.8830634 -0.4660125 0.05505852
vn -0.8830634 -0.4660125 0.05505852
vn -0.8830634 -0.4660125 0.05505852
vn 0.9579983 -0.2867738 0
vn 0.9579983 -0.2867738 0
vn 0.9579983 -0.2867738 0
vn 0.9579989 -0.2867719 0
vn 0.8195187 0.5730525 0
vn 0.8195187 0.5730524 0
vn 0.8195187 0.5730524 0
vn 0.8195177 0.5730538 0
vn 0.0004609991 0.3145788 0.9492313
vn 0.0004609991 0.3145788 0.9492313
vn 0.0004609991 0.3145788 0.9492313
vn -2.444397E-05 0.3219255 0.946765
vn -0.8574318 0.5118132 0.05345972
vn -0.8574318 0.5118132 0.05345971
vn -0.8574318 0.5118132 0.05345972
vn -0.9447407 0.3278185 0
vn -0.9447407 0.3278184 0
vn -0.9447407 0.3278185 0
vn -2.33832E-05 0.3127983 -0.9498196
vn -2.33832E-05 0.3127983 -0.9498196
vn -2.33832E-05 0.3127983 -0.9498196
vn 0.0004477085 0.3055046 -0.9521905
g BrokenPlank_0
f 3/3/3 2/2/2 1/1/1
f 2/2/2 5/5/5 4/4/4
f 2/2/2 7/7/7 6/6/6
f 10/10/10 9/9/9 8/8/8
f 13/13/13 12/12/12 11/11/11
f 16/16/16 15/15/15 14/14/14
f 19/19/19 18/18/18 17/17/17
f 20/20/20 18/18/18 19/19/19
f 20/20/20 19/19/19 21/21/21
f 21/21/21 19/19/19 22/22/22
f 24/24/24 19/19/19 23/23/23
f 27/27/27 26/26/26 25/25/25
f 30/30/30 29/29/29 28/28/28
f 30/30/30 31/31/31 29/29/29
f 34/34/34 33/33/33 32/32/32
f 34/34/34 35/35/35 33/33/33
f 38/38/38 37/37/37 36/36/36
f 38/38/38 39/39/39 37/37/37
f 42/42/42 41/41/41 40/40/40
f 42/42/42 43/43/43 41/41/41
f 46/46/46 45/45/45 44/44/44
f 46/46/46 47/47/47 45/45/45
f 50/50/50 49/49/49 48/48/48
f 50/50/50 51/51/51 49/49/49
f 54/54/54 53/53/53 52/52/52
f 54/54/54 55/55/55 53/53/53
f 58/58/58 57/57/57 56/56/56
f 61/61/61 60/60/60 59/59/59
f 64/64/64 63/63/63 62/62/62
f 64/64/64 65/65/65 63/63/63
f 68/68/68 67/67/67 66/66/66
f 68/68/68 69/69/69 67/67/67
f 72/72/72 71/71/71 70/70/70
f 72/72/72 73/73/73 71/71/71
f 76/76/76 75/75/75 74/74/74
f 76/76/76 77/77/77 75/75/75
f 80/80/80 79/79/79 78/78/78
f 83/83/83 82/82/82 81/81/81
f 86/86/86 85/85/85 84/84/84
f 86/86/86 87/87/87 85/85/85
f 90/90/90 89/89/89 88/88/88
f 90/90/90 91/91/91 89/89/89
f 94/94/94 93/93/93 92/92/92
f 94/94/94 95/95/95 93/93/93
f 98/98/98 97/97/97 96/96/96
f 101/101/101 100/100/100 99/99/99
f 104/104/104 103/103/103 102/102/102
f 104/104/104 105/105/105 103/103/103
f 108/108/108 107/107/107 106/106/106
f 107/107/107 110/110/110 109/109/109
f 112/112/112 110/110/110 111/111/111
f 115/115/115 114/114/114 113/113/113
f 118/118/118 117/117/117 116/116/116
f 121/121/121 120/120/120 119/119/119
f 121/121/121 122/122/122 120/120/120
f 125/125/125 124/124/124 123/123/123
f 128/128/128 127/127/127 126/126/126
f 131/131/131 130/130/130 129/129/129
f 134/134/134 133/133/133 132/132/132
f 137/137/137 136/136/136 135/135/135
f 140/140/140 139/139/139 138/138/138
f 141/141/141 139/139/139 140/140/140
f 144/144/144 143/143/143 142/142/142
f 145/145/145 143/143/143 144/144/144
f 148/148/148 147/147/147 146/146/146
f 151/151/151 150/150/150 149/149/149
f 154/154/154 153/153/153 152/152/152
f 154/154/154 155/155/155 153/153/153
f 158/158/158 157/157/157 156/156/156
f 158/158/158 159/159/159 157/157/157
f 162/162/162 161/161/161 160/160/160
f 162/162/162 163/163/163 161/161/161
f 166/166/166 165/165/165 164/164/164
f 166/166/166 167/167/167 165/165/165
f 170/170/170 169/169/169 168/168/168
f 170/170/170 171/171/171 169/169/169
f 174/174/174 173/173/173 172/172/172
f 174/174/174 175/175/175 173/173/173
f 178/178/178 177/177/177 176/176/176
f 178/178/178 179/179/179 177/177/177
f 182/182/182 181/181/181 180/180/180
f 182/182/182 183/183/183 181/181/181
f 186/186/186 185/185/185 184/184/184
f 186/186/186 187/187/187 185/185/185
f 190/190/190 189/189/189 188/188/188
f 193/193/193 192/192/192 191/191/191
f 196/196/196 195/195/195 194/194/194
f 196/196/196 197/197/197 195/195/195
f 200/200/200 199/199/199 198/198/198
f 200/200/200 201/201/201 199/199/199
f 204/204/204 203/203/203 202/202/202
f 204/204/204 205/205/205 203/203/203
f 208/208/208 207/207/207 206/206/206
f 208/208/208 209/209/209 207/207/207
f 212/212/212 211/211/211 210/210/210
f 212/212/212 213/213/213 211/211/211
f 216/216/216 215/215/215 214/214/214
f 219/219/219 218/218/218 217/217/217
f 222/222/222 221/221/221 220/220/220
f 222/222/222 223/223/223 221/221/221
f 226/226/226 225/225/225 224/224/224
f 226/226/226 227/227/227 225/225/225
f 230/230/230 229/229/229 228/228/228
f 230/230/230 231/231/231 229/229/229
f 234/234/234 233/233/233 232/232/232
f 237/237/237 236/236/236 235/235/235
f 240/240/240 239/239/239 238/238/238
f 240/240/240 241/241/241 239/239/239
