g cellarFloor
v -8.236012 -7.739262E-09 11.58339
v -8.236012 6.03879 11.58339
v -8.236012 6.03879 -9.104327
v -8.236012 -7.739263E-09 -9.104327
v -8.236012 6.03879 -9.104327
v 12.51457 6.03879 -9.104327
v 12.51458 -7.739263E-09 -9.104327
v -8.236012 -7.739263E-09 -9.104327
v 12.51458 -7.739263E-09 -9.104327
v 12.51458 -1.547852E-08 11.58339
v -8.236012 -7.739262E-09 11.58339
v -8.236012 -7.739263E-09 -9.104327
vt -1.883063 0.04270649
vt -1.883063 1.248312
vt 2.247105 1.248312
vt 2.247105 0.04270649
vt -1.214781 1.248312
vt 2.927938 1.248312
vt 2.927938 0.04270649
vt -1.214781 0.04270649
vt 0.0003575981 -1.150332
vt -1.150332 0.9996424
vt 0.9996424 2.150331
vt 2.150331 0.0003575981
vn 1 0 0
vn 1 0 0
vn 1 0 0
vn 1 0 0
vn 0 0 1
vn 0 0 1
vn 0 0 1
vn 0 0 1
vn 0 1 0
vn 0 1 0
vn 0 1 0
vn 0 1 0
g cellarFloor_0
f 3/3/3 2/2/2 1/1/1
f 4/4/4 3/3/3 1/1/1
f 7/7/7 6/6/6 5/5/5
f 8/8/8 7/7/7 5/5/5
g cellarFloor_1
f 11/11/11 10/10/10 9/9/9
f 12/12/12 11/11/11 9/9/9
