g cellarWebs
v -1.594807 4.635714 -8.746065
v -0.975274 3.190202 -8.509708
v -2.335207 2.601031 -8.431898
v -2.954745 4.046541 -8.668256
v -7.84129 3.568741 -2.586999
v -7.84129 5.154268 -2.463332
v -7.823833 5.286912 -3.941404
v -7.823833 3.701385 -4.065075
v -7.307149 1.921057 -7.188995
v -7.307149 1.921057 -8.163501
v -7.307149 0.9465528 -8.163501
v -7.307149 0.9465528 -7.188995
v -5.583883 4.097588 6.762138
v -6.303818 4.097588 6.910939
v -6.303818 3.362435 6.910939
v -5.583883 3.362435 6.762138
v -7.500775 2.76308 -1.316946
v -7.500775 1.393801 -2.010065
v -7.500775 0.7006817 -0.6407861
v -7.500775 2.069962 0.05233337
v -7.408638 4.833838 3.347939
v -7.408638 6.284731 2.781334
v -7.408638 5.674456 1.434265
v -7.408638 4.223561 2.00087
v -7.487563 3.918335 4.252098
v -7.487563 5.154116 4.077048
v -7.487563 4.895098 2.891568
v -7.487563 3.659318 3.066621
v -6.818003 1.37931 1.727171
v -6.795244 1.37931 1.20535
v -6.795244 0.6315787 1.20535
v -6.818003 0.6315786 1.727171
v -7.16572 1.690295 -8.247403
v -7.26735 2.738916 -8.37429
v -6.378569 2.784183 -8.808628
v -6.276937 1.735562 -8.681743
vt 0 0
vt 0 1
vt 1 1
vt 1 0
vt 0 0
vt 0 1
vt 1 1
vt 1 0
vt 0 0
vt 0 1
vt 1 1
vt 1 0
vt 0 0
vt 0 1
vt 1 1
vt 1 0
vt 0 0
vt 0 1
vt 1 1
vt 1 0
vt 0 0
vt 0 1
vt 1 1
vt 1 0
vt 0 0
vt 0 1
vt 1 1
vt 1 0
vt 0 0
vt 0 1
vt 1 1
vt 1 0
vt 0 0
vt 0 1
vt 1 1
vt 1 0
vn -0.1646878 0.1026984 0.9809847
vn -0.1646878 0.1026984 0.9809847
vn -0.1646878 0.1026984 0.9809847
vn -0.1646878 0.1026984 0.9809847
vn 0.9886017 0 -0.1505541
vn 0.9886017 0 -0.1505541
vn 0.9886017 0 -0.1505541
vn 0.9886017 0 -0.1505541
vn 1 0 0
vn 1 0 0
vn 1 0 0
vn 1 0 0
vn -0.202408 0 -0.9793013
vn -0.202408 0 -0.9793013
vn -0.202408 0 -0.9793013
vn -0.202408 0 -0.9793013
vn 1 0 0
vn 1 0 0
vn 1 0 0
vn 1 0 0
vn 1 1.031692E-07 0
vn 1 1.031692E-07 0
vn 1 1.031692E-07 0
vn 1 1.031692E-07 0
vn 1 2.842633E-07 4.31628E-07
vn 1 2.842633E-07 4.31628E-07
vn 1 2.842633E-07 4.31628E-07
vn 1 2.842633E-07 4.31628E-07
vn 0.9151754 0 -0.4030558
vn 0.9151754 0 -0.4030558
vn 0.9151754 0 -0.4030558
vn 0.9151754 0 -0.4030558
vn 0.5687847 0.141321 0.8102545
vn 0.5687847 0.141321 0.8102545
vn 0.5687847 0.141321 0.8102545
vn 0.5687847 0.141321 0.8102545
g cellarWebs_0
f 3/3/3 2/2/2 1/1/1
f 4/4/4 3/3/3 1/1/1
f 7/7/7 6/6/6 5/5/5
f 8/8/8 7/7/7 5/5/5
f 11/11/11 10/10/10 9/9/9
f 12/12/12 11/11/11 9/9/9
f 15/15/15 14/14/14 13/13/13
f 16/16/16 15/15/15 13/13/13
f 19/19/19 18/18/18 17/17/17
f 20/20/20 19/19/19 17/17/17
f 23/23/23 22/22/22 21/21/21
f 24/24/24 23/23/23 21/21/21
f 27/27/27 26/26/26 25/25/25
f 28/28/28 27/27/27 25/25/25
f 31/31/31 30/30/30 29/29/29
f 32/32/32 31/31/31 29/29/29
f 35/35/35 34/34/34 33/33/33
f 36/36/36 35/35/35 33/33/33
