g cryptdiorama_blocker
v 6.683228 -0.2143915 19.18038
v 6.683228 6.683229 19.18038
v 6.683228 6.683229 -14.8196
v 6.683228 -0.2143915 -14.8196
v 6.683228 6.683229 19.18038
v -6.683229 6.683229 19.18038
v -6.68323 6.683229 -14.8196
v 6.683228 6.683229 -14.8196
v -6.683229 6.683229 19.18038
v -6.683229 -0.2143915 19.18038
v -6.68323 -0.2143915 -14.8196
v -6.68323 6.683229 -14.8196
v -6.683229 -0.2143915 19.18038
v 6.683228 -0.2143915 19.18038
v 6.683228 -0.2143915 -14.8196
v -6.68323 -0.2143915 -14.8196
vt 0.375 0
vt 0.375 0.25
vt 0.625 0.25
vt 0.625 0
vt 0.375 0.25
vt 0.375 0.5
vt 0.625 0.5
vt 0.625 0.25
vt 0.375 0.5
vt 0.375 0.75
vt 0.625 0.75
vt 0.625 0.5
vt 0.375 0.75
vt 0.375 1
vt 0.625 1
vt 0.625 0.75
vn 1 0 0
vn 1 0 0
vn 1 0 0
vn 1 0 0
vn 0 1 0
vn 0 1 0
vn 0 1 0
vn 0 1 0
vn -1 0 0
vn -1 0 0
vn -1 0 0
vn -1 0 0
vn 0 -1 0
vn 0 -1 0
vn 0 -1 0
vn 0 -1 0
g cryptdiorama_blocker_0
f 3/3/3 2/2/2 1/1/1
f 4/4/4 3/3/3 1/1/1
f 7/7/7 6/6/6 5/5/5
f 8/8/8 7/7/7 5/5/5
f 11/11/11 10/10/10 9/9/9
f 12/12/12 11/11/11 9/9/9
f 15/15/15 14/14/14 13/13/13
f 16/16/16 15/15/15 13/13/13
