g cryptdiorama_webs2
v -2.970402 4.195881 -13.69496
v -2.970402 5.553185 -13.69496
v -1.628571 5.553185 -13.89931
v -1.628571 4.195881 -13.89931
v 2.037821 5.440737 -13.85688
v 3.093486 5.440737 -13.85688
v 3.093486 4.385071 -13.85688
v 2.037821 4.385071 -13.85688
v 0.4470447 4.106024 -13.98095
v 1.324996 4.328066 -13.98096
v 1.485184 3.111114 -13.98095
v 0.6072339 2.889073 -13.98095
v -1.620463 3.248841 -13.98095
v -1.083707 4.524946 -13.98095
v 0.1923975 3.988189 -13.98096
v -0.3443591 2.712085 -13.98095
v -2.799824 1.277972 -12.1971
v -2.799824 2.001259 -12.1971
v -2.298386 2.001259 -12.5385
v -2.298386 1.277972 -12.5385
v 2.371688 1.892091 -12.08298
v 2.742051 1.892091 -12.2461
v 2.742051 1.312748 -12.2461
v 2.371688 1.312748 -12.08298
vt 0 0
vt 0 1
vt 1 1
vt 1 0
vt 0 0
vt 0 1
vt 1 1
vt 1 0
vt 0 0
vt 0 1
vt 1 1
vt 1 0
vt 0 0
vt 0 1
vt 1 1
vt 1 0
vt 0 0
vt 0 1
vt 1 1
vt 1 0
vt 0 0
vt 0 1
vt 1 1
vt 1 0
vn 0.1505547 0 0.9886017
vn 0.1505547 0 0.9886017
vn 0.1505547 0 0.9886017
vn 0.1505547 0 0.9886017
vn 1.402063E-06 0 1
vn 1.402063E-06 0 1
vn 1.402063E-06 0 1
vn 1.402063E-06 0 1
vn 3.538295E-07 1.147889E-06 1
vn 3.538295E-07 1.147889E-06 1
vn 3.538295E-07 1.147889E-06 1
vn 3.538295E-07 1.147889E-06 1
vn 0 2.354556E-07 1
vn 0 2.354556E-07 1
vn 0 2.354556E-07 1
vn 0 2.354556E-07 1
vn 0.5627826 0 0.8266049
vn 0.5627826 0 0.8266049
vn 0.5627826 0 0.8266049
vn 0.5627826 0 0.8266049
vn 0.4030654 0 0.9151711
vn 0.4030654 0 0.9151711
vn 0.4030654 0 0.9151711
vn 0.4030654 0 0.9151711
g cryptdiorama_webs2_0
f 3/3/3 2/2/2 1/1/1
f 4/4/4 3/3/3 1/1/1
f 7/7/7 6/6/6 5/5/5
f 8/8/8 7/7/7 5/5/5
f 11/11/11 10/10/10 9/9/9
f 12/12/12 11/11/11 9/9/9
f 15/15/15 14/14/14 13/13/13
f 16/16/16 15/15/15 13/13/13
f 19/19/19 18/18/18 17/17/17
f 20/20/20 19/19/19 17/17/17
f 23/23/23 22/22/22 21/21/21
f 24/24/24 23/23/23 21/21/21
