g deathCertificate
v 0.6115843 0.3087317 -0.3660726
v 0.6310505 0.0003283691 -0.2515056
v 0.2715599 0.3022729 -0.2633796
v 0.2706851 -0.0108667 -0.141086
v 0.2699437 0.6861523 -0.4239838
v 0.5686933 0.6861523 -0.5121443
v -0.3280643 0.2908813 -0.08228312
v -0.3998235 0.6861523 -0.2263367
v -0.6959646 0.2838904 0.02882891
v -0.2727746 -0.02774902 0.02543565
v 0.2706851 -0.0108667 -0.141086
v 0.2664843 -0.2755444 -0.05146972
v 0.6636958 -0.2602942 -0.1742396
v 0.6310505 0.0003283691 -0.2515056
v -0.2305707 -0.2946289 0.1021597
v -0.6873697 -0.04062744 0.1524718
v -0.7556328 0.6861523 -0.121338
v -0.6372336 -0.3102417 0.2278508
v 0.6636958 -0.2602942 -0.1742396
v 0.7028071 -0.7321106 -0.05767246
v 0.2664843 -0.2755444 -0.05146972
v 0.2522345 -0.7321094 0.07529072
v -0.2305707 -0.2946289 0.1021597
v -0.1699222 -0.7321094 0.1998684
v -0.6372336 -0.3102417 0.2278508
v -0.621519 -0.7321106 0.3331338
v 0.6115843 0.3087317 -0.3660726
v 0.2715599 0.3022729 -0.2633796
v 0.6310505 0.0003283691 -0.2515056
v 0.2706851 -0.0108667 -0.141086
v 0.2699437 0.6861523 -0.4239838
v 0.5686933 0.6861523 -0.5121443
v -0.3280643 0.2908813 -0.08228312
v -0.3998235 0.6861523 -0.2263367
v -0.6959646 0.2838904 0.02882891
v -0.2727746 -0.02774902 0.02543565
v 0.2706851 -0.0108667 -0.141086
v 0.2664843 -0.2755444 -0.05146972
v 0.6636958 -0.2602942 -0.1742396
v 0.6310505 0.0003283691 -0.2515056
v -0.2305707 -0.2946289 0.1021597
v -0.6873697 -0.04062744 0.1524718
v -0.7556328 0.6861523 -0.121338
v -0.6372336 -0.3102417 0.2278508
v 0.6636958 -0.2602942 -0.1742396
v 0.2664843 -0.2755444 -0.05146972
v 0.7028071 -0.7321106 -0.05767246
v 0.2522345 -0.7321094 0.07529072
v -0.2305707 -0.2946289 0.1021597
v -0.1699222 -0.7321094 0.1998684
v -0.6372336 -0.3102417 0.2278508
v -0.621519 -0.7321106 0.3331338
v 0.5886394 0.8138074 -0.4445532
v 0.5686933 0.6861523 -0.5121443
v 0.2991714 0.8138074 -0.3591317
v 0.2699437 0.6861523 -0.4239838
v -0.387599 0.8138074 -0.156467
v -0.3998235 0.6861523 -0.2263367
v -0.7556328 0.6861523 -0.121338
v -0.7356868 0.8138074 -0.05374687
v 0.2968589 0.6169531 -0.2892549
v 0.5850653 0.6169531 -0.3743041
v 0.3204237 0.7357971 -0.2433638
v 0.6105872 0.7357971 -0.3289905
v -0.3484776 0.7357959 -0.04597221
v -0.3555156 0.6169531 -0.09674039
v -0.694546 0.6169531 0.003306847
v -0.6913773 0.7357971 0.0552169
v 0.5705348 0.6796338 -0.4640244
v 0.5850653 0.6169531 -0.3743041
v 0.2807318 0.6796338 -0.378504
v 0.2968589 0.6169531 -0.2892549
v -0.3858191 0.6796338 -0.181806
v -0.3555156 0.6169531 -0.09674039
v -0.694546 0.6169531 0.003306847
v -0.7310541 0.6796338 -0.07992779
v 0.3204237 0.7357971 -0.2433638
v 0.6105872 0.7357971 -0.3289905
v 0.2991714 0.8138074 -0.3591317
v 0.5886394 0.8138074 -0.4445532
v -0.387599 0.8138074 -0.156467
v -0.3484776 0.7357959 -0.04597221
v -0.6913773 0.7357971 0.0552169
v -0.7356868 0.8138074 -0.05374687
v 0.7028071 -0.7321106 -0.05767246
v 0.7421483 -0.7899536 0.07564285
v 0.2522345 -0.7321094 0.07529072
v 0.2807462 -0.7899536 0.2118018
v -0.1699222 -0.7321094 0.1998684
v -0.1257223 -0.7899536 0.3317499
v -0.5821779 -0.7899536 0.4664491
v -0.621519 -0.7321106 0.3331338
v 0.7435425 -0.6516821 0.1215552
v 0.6991528 -0.5882373 0.0123045
v 0.3046114 -0.6516821 0.251083
v 0.2819158 -0.5882373 0.1354304
v -0.1600278 -0.5882373 0.2658472
v -0.1217648 -0.6516821 0.3769059
v -0.5804585 -0.5882373 0.3899155
v -0.5584221 -0.6516821 0.5057626
v 0.7009264 -0.696842 -0.02216656
v 0.2637421 -0.6968433 0.1068458
v 0.6991528 -0.5882373 0.0123045
v 0.2819158 -0.5882373 0.1354304
v -0.1600278 -0.5882373 0.2658472
v -0.1624559 -0.6968433 0.232616
v -0.5804585 -0.5882373 0.3899155
v -0.6006626 -0.696842 0.3619301
v 0.7435425 -0.6516821 0.1215552
v 0.3046114 -0.6516821 0.251083
v 0.7421483 -0.7899536 0.07564285
v 0.2807462 -0.7899536 0.2118018
v -0.1217648 -0.6516821 0.3769059
v -0.1257223 -0.7899536 0.3317499
v -0.5584221 -0.6516821 0.5057626
v -0.5821779 -0.7899536 0.4664491
v 0.5886394 0.8138074 -0.4445532
v 0.2991714 0.8138074 -0.3591317
v 0.5686933 0.6861523 -0.5121443
v 0.2699437 0.6861523 -0.4239838
v -0.387599 0.8138074 -0.156467
v -0.3998235 0.6861523 -0.2263367
v -0.7556328 0.6861523 -0.121338
v -0.7356868 0.8138074 -0.05374687
v 0.2968589 0.6169531 -0.2892549
v 0.3204237 0.7357971 -0.2433638
v 0.5850653 0.6169531 -0.3743041
v 0.6105872 0.7357971 -0.3289905
v -0.3484776 0.7357959 -0.04597221
v -0.3555156 0.6169531 -0.09674039
v -0.694546 0.6169531 0.003306847
v -0.6913773 0.7357971 0.0552169
v 0.5705348 0.6796338 -0.4640244
v 0.2807318 0.6796338 -0.378504
v 0.5850653 0.6169531 -0.3743041
v 0.2968589 0.6169531 -0.2892549
v -0.3858191 0.6796338 -0.181806
v -0.3555156 0.6169531 -0.09674039
v -0.694546 0.6169531 0.003306847
v -0.7310541 0.6796338 -0.07992779
v 0.3204237 0.7357971 -0.2433638
v 0.2991714 0.8138074 -0.3591317
v 0.6105872 0.7357971 -0.3289905
v 0.5886394 0.8138074 -0.4445532
v -0.387599 0.8138074 -0.156467
v -0.3484776 0.7357959 -0.04597221
v -0.6913773 0.7357971 0.0552169
v -0.7356868 0.8138074 -0.05374687
v 0.7028071 -0.7321106 -0.05767246
v 0.2522345 -0.7321094 0.07529072
v 0.7421483 -0.7899536 0.07564285
v 0.2807462 -0.7899536 0.2118018
v -0.1699222 -0.7321094 0.1998684
v -0.1257223 -0.7899536 0.3317499
v -0.5821779 -0.7899536 0.4664491
v -0.621519 -0.7321106 0.3331338
v 0.7435425 -0.6516821 0.1215552
v 0.3046114 -0.6516821 0.251083
v 0.6991528 -0.5882373 0.0123045
v 0.2819158 -0.5882373 0.1354304
v -0.1600278 -0.5882373 0.2658472
v -0.1217648 -0.6516821 0.3769059
v -0.5804585 -0.5882373 0.3899155
v -0.5584221 -0.6516821 0.5057626
v 0.7009264 -0.696842 -0.02216656
v 0.6991528 -0.5882373 0.0123045
v 0.2637421 -0.6968433 0.1068458
v 0.2819158 -0.5882373 0.1354304
v -0.1600278 -0.5882373 0.2658472
v -0.1624559 -0.6968433 0.232616
v -0.5804585 -0.5882373 0.3899155
v -0.6006626 -0.696842 0.3619301
v 0.7435425 -0.6516821 0.1215552
v 0.7421483 -0.7899536 0.07564285
v 0.3046114 -0.6516821 0.251083
v 0.2807462 -0.7899536 0.2118018
v -0.1217648 -0.6516821 0.3769059
v -0.1257223 -0.7899536 0.3317499
v -0.5584221 -0.6516821 0.5057626
v -0.5821779 -0.7899536 0.4664491
vt 0.9656266 0.7281208
vt 0.9564266 0.5079449
vt 0.7280738 0.7235444
vt 0.704363 0.5000145
vt 0.7574386 1
vt 0.9657643 1
vt 0.3091556 0.7154739
vt 0.2903931 1
vt 0.0521276 0.7105223
vt 0.3242312 0.4880548
vt 0.704363 0.5000145
vt 0.6847045 0.3142015
vt 0.9627413 0.3250053
vt 0.9564266 0.5079449
vt 0.3367801 0.3006819
vt 0.03423584 0.4789309
vt 0.04227829 1
vt 0.0521276 0.289621
vt 0.9627413 0.3250053
vt 0.9657643 -2.980232E-08
vt 0.6847045 0.3142015
vt 0.6515687 -2.980232E-08
vt 0.3367801 0.3006819
vt 0.3571881 -2.980232E-08
vt 0.0521276 0.289621
vt 0.04227829 -2.980232E-08
vt 0.9656266 0.7281208
vt 0.7280738 0.7235444
vt 0.9564266 0.5079449
vt 0.704363 0.5000145
vt 0.7574386 1
vt 0.9657643 1
vt 0.3091556 0.7154739
vt 0.2903931 1
vt 0.0521276 0.7105223
vt 0.3242312 0.4880548
vt 0.704363 0.5000145
vt 0.6847045 0.3142015
vt 0.9627413 0.3250053
vt 0.9564266 0.5079449
vt 0.3367801 0.3006819
vt 0.03423584 0.4789309
vt 0.04227829 1
vt 0.0521276 0.289621
vt 0.9627413 0.3250053
vt 0.6847045 0.3142015
vt 0.9657643 -2.980232E-08
vt 0.6515687 -2.980232E-08
vt 0.3367801 0.3006819
vt 0.3571881 -2.980232E-08
vt 0.0521276 0.289621
vt 0.04227829 -2.980232E-08
vt 0.09779945 0.7245954
vt 0.09779945 0.7199934
vt 0.08081044 0.7245954
vt 0.08026569 0.7199934
vt 0.04050357 0.7245954
vt 0.04095675 0.7199934
vt 0.02007413 0.7199934
vt 0.02007413 0.7245954
vt 0.07957234 0.7147683
vt 0.09648731 0.7147683
vt 0.08011343 0.7192855
vt 0.09714326 0.7192855
vt 0.0408553 0.7192855
vt 0.04128416 0.7147683
vt 0.0213863 0.7147683
vt 0.02073035 0.7192855
vt 0.09713224 0.7189742
vt 0.09648731 0.7147683
vt 0.08012357 0.7189742
vt 0.07957234 0.7147683
vt 0.04100338 0.7189742
vt 0.04128416 0.7147683
vt 0.0213863 0.7147683
vt 0.02074137 0.7189742
vt 0.08011343 0.7192855
vt 0.09714326 0.7192855
vt 0.08081044 0.7245954
vt 0.09779945 0.7245954
vt 0.04050357 0.7245954
vt 0.0408553 0.7192855
vt 0.02073035 0.7192855
vt 0.02007413 0.7245954
vt 0.09779945 0.6492592
vt 0.09779945 0.6445076
vt 0.07135513 0.6492592
vt 0.07071954 0.6445076
vt 0.04657856 0.6492592
vt 0.04686371 0.6445075
vt 0.02007413 0.6445076
vt 0.02007413 0.6492592
vt 0.09714326 0.64999
vt 0.09648731 0.6546541
vt 0.07138219 0.64999
vt 0.07199947 0.6546541
vt 0.04606158 0.6546541
vt 0.04635797 0.64999
vt 0.0213863 0.6546541
vt 0.02073035 0.64999
vt 0.09713224 0.6503115
vt 0.07147369 0.6503115
vt 0.09648731 0.6546541
vt 0.07199947 0.6546541
vt 0.04606158 0.6546541
vt 0.04645993 0.6503115
vt 0.0213863 0.6546541
vt 0.02074137 0.6503115
vt 0.09714326 0.64999
vt 0.07138219 0.64999
vt 0.09779945 0.6445076
vt 0.07071954 0.6445076
vt 0.04635797 0.64999
vt 0.04686371 0.6445075
vt 0.02073035 0.64999
vt 0.02007413 0.6445076
vt 0.09779945 0.7245954
vt 0.08081044 0.7245954
vt 0.09779945 0.7199934
vt 0.08026569 0.7199934
vt 0.04050357 0.7245954
vt 0.04095675 0.7199934
vt 0.02007413 0.7199934
vt 0.02007413 0.7245954
vt 0.07957234 0.7147683
vt 0.08011343 0.7192855
vt 0.09648731 0.7147683
vt 0.09714326 0.7192855
vt 0.0408553 0.7192855
vt 0.04128416 0.7147683
vt 0.0213863 0.7147683
vt 0.02073035 0.7192855
vt 0.09713224 0.7189742
vt 0.08012357 0.7189742
vt 0.09648731 0.7147683
vt 0.07957234 0.7147683
vt 0.04100338 0.7189742
vt 0.04128416 0.7147683
vt 0.0213863 0.7147683
vt 0.02074137 0.7189742
vt 0.08011343 0.7192855
vt 0.08081044 0.7245954
vt 0.09714326 0.7192855
vt 0.09779945 0.7245954
vt 0.04050357 0.7245954
vt 0.0408553 0.7192855
vt 0.02073035 0.7192855
vt 0.02007413 0.7245954
vt 0.09779945 0.6492592
vt 0.07135513 0.6492592
vt 0.09779945 0.6445076
vt 0.07071954 0.6445076
vt 0.04657856 0.6492592
vt 0.04686371 0.6445075
vt 0.02007413 0.6445076
vt 0.02007413 0.6492592
vt 0.09714326 0.64999
vt 0.07138219 0.64999
vt 0.09648731 0.6546541
vt 0.07199947 0.6546541
vt 0.04606158 0.6546541
vt 0.04635797 0.64999
vt 0.0213863 0.6546541
vt 0.02073035 0.64999
vt 0.09713224 0.6503115
vt 0.09648731 0.6546541
vt 0.07147369 0.6503115
vt 0.07199947 0.6546541
vt 0.04606158 0.6546541
vt 0.04645993 0.6503115
vt 0.0213863 0.6546541
vt 0.02074137 0.6503115
vt 0.09714326 0.64999
vt 0.09779945 0.6445076
vt 0.07138219 0.64999
vt 0.07071954 0.6445076
vt 0.04635797 0.64999
vt 0.04686371 0.6445075
vt 0.02073035 0.64999
vt 0.02007413 0.6445076
vn 0.2646765 0.3504496 0.898405
vn 0.2646765 0.3504495 0.898405
vn 0.2646765 0.3504496 0.898405
vn 0.2644528 0.3501898 0.8985721
vn 0.2624827 0.3740797 0.8894758
vn 0.2624827 0.3740798 0.8894757
vn 0.2647114 0.3501633 0.8985062
vn 0.2625654 0.373354 0.8897563
vn 0.2647621 0.3497482 0.898653
vn 0.2645163 0.3497322 0.8987316
vn 0.2703777 0.3046277 0.9132896
vn 0.2705322 0.3048887 0.9131568
vn 0.2703777 0.3046277 0.9132896
vn 0.2703777 0.3046277 0.9132896
vn 0.2704832 0.3052613 0.9130468
vn 0.2645539 0.3494636 0.8988251
vn 0.2627862 0.3714105 0.8905042
vn 0.270484 0.3052614 0.9130465
vn 0.276917 0.2520417 0.9272497
vn 0.276917 0.2520417 0.9272497
vn 0.276917 0.2520417 0.9272497
vn 0.2740944 0.2493228 0.928822
vn 0.2772572 0.2489883 0.9279726
vn 0.2743571 0.2456808 0.9297146
vn 0.277599 0.2459021 0.9286931
vn 0.2745869 0.2424459 0.9304956
vn -0.2646765 -0.3504496 -0.898405
vn -0.2646765 -0.3504496 -0.898405
vn -0.2646765 -0.3504496 -0.898405
vn -0.2644528 -0.3501898 -0.8985721
vn -0.2624827 -0.3740798 -0.8894758
vn -0.2624827 -0.3740798 -0.8894757
vn -0.2647114 -0.3501633 -0.8985062
vn -0.2625654 -0.3733541 -0.8897562
vn -0.2647621 -0.3497482 -0.898653
vn -0.2645163 -0.3497322 -0.8987316
vn -0.2703777 -0.3046277 -0.9132896
vn -0.2705322 -0.3048887 -0.9131568
vn -0.2703777 -0.3046277 -0.9132896
vn -0.2703777 -0.3046277 -0.9132896
vn -0.2704832 -0.3052613 -0.9130468
vn -0.2645538 -0.3494636 -0.898825
vn -0.2627862 -0.3714105 -0.8905042
vn -0.270484 -0.3052614 -0.9130465
vn -0.276917 -0.2520417 -0.9272497
vn -0.276917 -0.2520417 -0.9272497
vn -0.276917 -0.2520417 -0.9272497
vn -0.2740944 -0.2493228 -0.928822
vn -0.2772572 -0.2489884 -0.9279726
vn -0.2743571 -0.2456808 -0.9297146
vn -0.2775991 -0.2459021 -0.9286931
vn -0.2745869 -0.2424459 -0.9304956
vn 0.2477815 -0.4832999 0.8396581
vn 0.2477815 -0.4832999 0.8396581
vn 0.2477815 -0.4832999 0.8396581
vn 0.2477816 -0.4832999 0.839658
vn 0.2477815 -0.4832997 0.8396581
vn 0.2477815 -0.4833002 0.8396578
vn 0.2477814 -0.4832997 0.8396581
vn 0.2477815 -0.4833002 0.8396578
vn -0.2603443 0.3922913 -0.8822293
vn -0.2603443 0.3922913 -0.8822293
vn -0.2603443 0.3922913 -0.8822293
vn -0.2603443 0.3922912 -0.8822291
vn -0.2603449 0.3922911 -0.8822291
vn -0.2603438 0.392295 -0.8822277
vn -0.2603438 0.3922951 -0.8822277
vn -0.2603428 0.3922915 -0.8822295
vn 0.161556 0.8210854 0.5474655
vn 0.1615561 0.8210854 0.5474656
vn 0.161556 0.8210854 0.5474654
vn 0.1615561 0.8210856 0.5474651
vn 0.161556 0.8210859 0.5474646
vn 0.161556 0.8210853 0.5474656
vn 0.1615559 0.8210852 0.5474659
vn 0.161556 0.8210852 0.5474658
vn -0.1569662 -0.8321244 -0.5319122
vn -0.1569662 -0.8321244 -0.5319123
vn -0.1569662 -0.8321244 -0.5319122
vn -0.1569664 -0.8321241 -0.5319127
vn -0.1569662 -0.8321238 -0.5319131
vn -0.1569667 -0.8321209 -0.5319177
vn -0.1569708 -0.8321205 -0.5319168
vn -0.1569662 -0.8321245 -0.531912
vn 0.1087434 0.9232497 0.3684902
vn 0.1087434 0.9232496 0.3684901
vn 0.1087434 0.9232496 0.3684902
vn 0.1087431 0.9232466 0.3684979
vn 0.1087431 0.9232467 0.3684976
vn 0.108743 0.9232463 0.3684986
vn 0.1087431 0.9232466 0.368498
vn 0.1087389 0.9232495 0.3684919
vn -0.1346093 -0.8796628 -0.456151
vn -0.1346093 -0.8796628 -0.4561509
vn -0.1346093 -0.8796628 -0.4561509
vn -0.1346093 -0.8796628 -0.456151
vn -0.1346093 -0.8796628 -0.4561512
vn -0.1346093 -0.879663 -0.4561507
vn -0.1346094 -0.879663 -0.4561505
vn -0.1346093 -0.8796628 -0.4561508
vn 0.2711109 -0.2871709 0.918712
vn 0.2711109 -0.2871709 0.918712
vn 0.2711109 -0.2871709 0.918712
vn 0.2711107 -0.2871684 0.9187129
vn 0.2711106 -0.2871684 0.9187129
vn 0.2711103 -0.2871679 0.918713
vn 0.2711104 -0.2871681 0.9187129
vn 0.2711096 -0.2871712 0.9187123
vn -0.2694629 0.3059166 -0.9131292
vn -0.2694629 0.3059166 -0.9131292
vn -0.2694628 0.3059165 -0.9131292
vn -0.2694629 0.305917 -0.913129
vn -0.2694629 0.3059168 -0.913129
vn -0.2694625 0.3059169 -0.9131292
vn -0.2694626 0.3059169 -0.9131292
vn -0.2694627 0.305917 -0.913129
vn -0.2477815 0.4832999 -0.8396581
vn -0.2477815 0.4832999 -0.8396581
vn -0.2477815 0.4832999 -0.8396581
vn -0.2477816 0.4832997 -0.8396581
vn -0.2477816 0.4832997 -0.8396581
vn -0.2477815 0.4833002 -0.8396578
vn -0.2477815 0.4832999 -0.8396581
vn -0.2477816 0.4833003 -0.8396578
vn 0.2603442 -0.3922911 0.8822293
vn 0.2603442 -0.3922911 0.8822293
vn 0.2603442 -0.3922912 0.8822293
vn 0.2603444 -0.3922915 0.8822291
vn 0.260345 -0.3922912 0.8822291
vn 0.2603438 -0.392295 0.8822277
vn 0.2603438 -0.3922951 0.8822277
vn 0.2603428 -0.3922914 0.8822296
vn -0.161556 -0.8210854 -0.5474655
vn -0.161556 -0.8210854 -0.5474654
vn -0.1615561 -0.8210854 -0.5474656
vn -0.1615561 -0.8210856 -0.5474651
vn -0.161556 -0.821086 -0.5474645
vn -0.161556 -0.8210853 -0.5474656
vn -0.161556 -0.8210854 -0.5474656
vn -0.161556 -0.8210853 -0.5474656
vn 0.1569662 0.8321244 0.5319122
vn 0.1569662 0.8321244 0.5319122
vn 0.1569662 0.8321244 0.5319122
vn 0.1569664 0.8321242 0.5319124
vn 0.1569662 0.8321238 0.5319131
vn 0.1569667 0.8321209 0.5319176
vn 0.1569708 0.8321205 0.5319169
vn 0.1569661 0.8321246 0.5319119
vn -0.1087434 -0.9232497 -0.3684902
vn -0.1087434 -0.9232496 -0.3684902
vn -0.1087434 -0.9232496 -0.3684901
vn -0.108743 -0.9232463 -0.3684985
vn -0.108743 -0.9232466 -0.3684978
vn -0.108743 -0.9232463 -0.3684986
vn -0.108743 -0.9232464 -0.3684981
vn -0.1087389 -0.9232494 -0.368492
vn 0.1346093 0.8796629 0.4561508
vn 0.1346093 0.8796629 0.4561508
vn 0.1346093 0.8796629 0.4561507
vn 0.1346093 0.8796628 0.456151
vn 0.1346093 0.8796628 0.4561509
vn 0.1346093 0.8796628 0.4561509
vn 0.1346094 0.879663 0.4561507
vn 0.1346093 0.879663 0.4561505
vn -0.271111 0.287171 -0.918712
vn -0.271111 0.2871711 -0.918712
vn -0.271111 0.287171 -0.918712
vn -0.2711107 0.2871684 -0.9187129
vn -0.2711106 0.2871684 -0.9187129
vn -0.2711103 0.2871679 -0.918713
vn -0.2711105 0.2871682 -0.9187129
vn -0.2711096 0.2871712 -0.9187123
vn 0.2694629 -0.3059166 0.9131292
vn 0.2694628 -0.3059165 0.9131292
vn 0.2694629 -0.3059166 0.9131292
vn 0.2694629 -0.305917 0.913129
vn 0.2694628 -0.3059168 0.913129
vn 0.2694625 -0.305917 0.913129
vn 0.2694626 -0.3059169 0.9131292
vn 0.2694627 -0.305917 0.913129
g deathCertificate_0
f 3/3/3 2/2/2 1/1/1
f 3/3/3 4/4/4 2/2/2
f 5/5/5 3/3/3 1/1/1
f 5/5/5 1/1/1 6/6/6
f 7/7/7 4/4/4 3/3/3
f 8/8/8 3/3/3 5/5/5
f 8/8/8 7/7/7 3/3/3
f 8/8/8 9/9/9 7/7/7
f 9/9/9 10/10/10 7/7/7
f 7/7/7 10/10/10 11/11/11
f 10/10/10 12/12/12 11/11/11
f 11/11/11 12/12/12 13/13/13
f 11/11/11 13/13/13 14/14/14
f 10/10/10 15/15/15 12/12/12
f 9/9/9 16/16/16 10/10/10
f 8/8/8 17/17/17 9/9/9
f 10/10/10 18/18/18 15/15/15
f 10/10/10 16/16/16 18/18/18
f 21/21/21 20/20/20 19/19/19
f 21/21/21 22/22/22 20/20/20
f 23/23/23 22/22/22 21/21/21
f 23/23/23 24/24/24 22/22/22
f 25/25/25 24/24/24 23/23/23
f 25/25/25 26/26/26 24/24/24
f 29/29/29 28/28/28 27/27/27
f 30/30/30 28/28/28 29/29/29
f 28/28/28 31/31/31 27/27/27
f 27/27/27 31/31/31 32/32/32
f 30/30/30 33/33/33 28/28/28
f 28/28/28 34/34/34 31/31/31
f 33/33/33 34/34/34 28/28/28
f 35/35/35 34/34/34 33/33/33
f 36/36/36 35/35/35 33/33/33
f 36/36/36 33/33/33 37/37/37
f 38/38/38 36/36/36 37/37/37
f 38/38/38 37/37/37 39/39/39
f 39/39/39 37/37/37 40/40/40
f 41/41/41 36/36/36 38/38/38
f 42/42/42 35/35/35 36/36/36
f 43/43/43 34/34/34 35/35/35
f 44/44/44 36/36/36 41/41/41
f 42/42/42 36/36/36 44/44/44
f 47/47/47 46/46/46 45/45/45
f 48/48/48 46/46/46 47/47/47
f 48/48/48 49/49/49 46/46/46
f 50/50/50 49/49/49 48/48/48
f 50/50/50 51/51/51 49/49/49
f 52/52/52 51/51/51 50/50/50
g deathCertificate_1
f 55/55/55 54/54/54 53/53/53
f 55/55/55 56/56/56 54/54/54
f 57/57/57 56/56/56 55/55/55
f 57/57/57 58/58/58 56/56/56
f 57/57/57 59/59/59 58/58/58
f 57/57/57 60/60/60 59/59/59
f 63/63/63 62/62/62 61/61/61
f 63/63/63 64/64/64 62/62/62
f 61/61/61 65/65/65 63/63/63
f 61/61/61 66/66/66 65/65/65
f 67/67/67 65/65/65 66/66/66
f 67/67/67 68/68/68 65/65/65
f 71/71/71 70/70/70 69/69/69
f 71/71/71 72/72/72 70/70/70
f 73/73/73 72/72/72 71/71/71
f 73/73/73 74/74/74 72/72/72
f 73/73/73 75/75/75 74/74/74
f 73/73/73 76/76/76 75/75/75
f 79/79/79 78/78/78 77/77/77
f 79/79/79 80/80/80 78/78/78
f 77/77/77 81/81/81 79/79/79
f 77/77/77 82/82/82 81/81/81
f 83/83/83 81/81/81 82/82/82
f 83/83/83 84/84/84 81/81/81
f 87/87/87 86/86/86 85/85/85
f 87/87/87 88/88/88 86/86/86
f 89/89/89 88/88/88 87/87/87
f 89/89/89 90/90/90 88/88/88
f 89/89/89 91/91/91 90/90/90
f 89/89/89 92/92/92 91/91/91
f 95/95/95 94/94/94 93/93/93
f 95/95/95 96/96/96 94/94/94
f 95/95/95 97/97/97 96/96/96
f 95/95/95 98/98/98 97/97/97
f 98/98/98 99/99/99 97/97/97
f 98/98/98 100/100/100 99/99/99
f 103/103/103 102/102/102 101/101/101
f 103/103/103 104/104/104 102/102/102
f 105/105/105 102/102/102 104/104/104
f 105/105/105 106/106/106 102/102/102
f 107/107/107 106/106/106 105/105/105
f 107/107/107 108/108/108 106/106/106
f 111/111/111 110/110/110 109/109/109
f 111/111/111 112/112/112 110/110/110
f 112/112/112 113/113/113 110/110/110
f 112/112/112 114/114/114 113/113/113
f 114/114/114 115/115/115 113/113/113
f 114/114/114 116/116/116 115/115/115
f 119/119/119 118/118/118 117/117/117
f 120/120/120 118/118/118 119/119/119
f 120/120/120 121/121/121 118/118/118
f 122/122/122 121/121/121 120/120/120
f 123/123/123 121/121/121 122/122/122
f 124/124/124 121/121/121 123/123/123
f 127/127/127 126/126/126 125/125/125
f 128/128/128 126/126/126 127/127/127
f 129/129/129 125/125/125 126/126/126
f 130/130/130 125/125/125 129/129/129
f 129/129/129 131/131/131 130/130/130
f 132/132/132 131/131/131 129/129/129
f 135/135/135 134/134/134 133/133/133
f 136/136/136 134/134/134 135/135/135
f 136/136/136 137/137/137 134/134/134
f 138/138/138 137/137/137 136/136/136
f 139/139/139 137/137/137 138/138/138
f 140/140/140 137/137/137 139/139/139
f 143/143/143 142/142/142 141/141/141
f 144/144/144 142/142/142 143/143/143
f 145/145/145 141/141/141 142/142/142
f 146/146/146 141/141/141 145/145/145
f 145/145/145 147/147/147 146/146/146
f 148/148/148 147/147/147 145/145/145
f 151/151/151 150/150/150 149/149/149
f 152/152/152 150/150/150 151/151/151
f 152/152/152 153/153/153 150/150/150
f 154/154/154 153/153/153 152/152/152
f 155/155/155 153/153/153 154/154/154
f 156/156/156 153/153/153 155/155/155
f 159/159/159 158/158/158 157/157/157
f 160/160/160 158/158/158 159/159/159
f 161/161/161 158/158/158 160/160/160
f 162/162/162 158/158/158 161/161/161
f 163/163/163 162/162/162 161/161/161
f 164/164/164 162/162/162 163/163/163
f 167/167/167 166/166/166 165/165/165
f 168/168/168 166/166/166 167/167/167
f 167/167/167 169/169/169 168/168/168
f 170/170/170 169/169/169 167/167/167
f 170/170/170 171/171/171 169/169/169
f 172/172/172 171/171/171 170/170/170
f 175/175/175 174/174/174 173/173/173
f 176/176/176 174/174/174 175/175/175
f 177/177/177 176/176/176 175/175/175
f 178/178/178 176/176/176 177/177/177
f 179/179/179 178/178/178 177/177/177
f 180/180/180 178/178/178 179/179/179
