g distressFlag
v -0.3637046 1.53886 -0.5828148
v -0.4289377 1.540865 -0.59284
v -0.3696735 1.621078 -0.5892302
v -0.4642898 1.622311 -0.6021159
v -0.4232092 1.458962 -0.5869625
v -0.4272005 1.377061 -0.5970645
v -0.4232092 1.458962 -0.5869625
v -0.3742397 1.37538 -0.5796722
v -0.4232092 1.458962 -0.5869625
v -0.3638107 1.457123 -0.5816903
v -0.3742397 1.37538 -0.5796722
v -0.3637046 1.53886 -0.5828148
v -0.1352534 1.410622 -0.5844281
v -0.06036158 1.381672 -0.5739928
v -0.1614003 1.332961 -0.5814878
v -0.06036158 1.381672 -0.5739928
v -0.09268419 1.306559 -0.5839932
v -0.1614003 1.332961 -0.5814878
v -0.09100948 1.568393 -0.5716497
v -0.002100095 1.534975 -0.5751013
v -0.1097773 1.488249 -0.5657163
v -0.002100095 1.534975 -0.5751013
v -0.02795568 1.456741 -0.5635208
v -0.1097773 1.488249 -0.5657163
v -0.0274267 1.274334 -0.5623902
v 0.01214097 1.346333 -0.576234
v 0.03341042 1.238258 -0.5766802
v 0.01214097 1.346333 -0.576234
v 0.07851209 1.306767 -0.5818309
v 0.03341042 1.238258 -0.5766802
v 0.08359765 1.494013 -0.5804961
v 0.1648998 1.445823 -0.5725831
v 0.0513365 1.41828 -0.5769955
v 0.1648998 1.445823 -0.5725831
v 0.1232424 1.375218 -0.5740505
v 0.0513365 1.41828 -0.5769955
v 0.01214097 1.346333 -0.576234
v -0.2924278 1.448499 -0.5735192
v -0.2128517 1.432957 -0.5828887
v -0.3044642 1.367511 -0.5788866
v -0.2128517 1.432957 -0.5828887
v -0.2322053 1.353332 -0.5788023
v -0.3044642 1.367511 -0.5788866
v -0.256923 1.274998 -0.5762764
v -0.2753375 1.611616 -0.5829811
v -0.1821979 1.594007 -0.5776146
v -0.2794924 1.529472 -0.5902907
v -0.1821979 1.594007 -0.5776146
v -0.193223 1.512556 -0.5917161
v -0.2794924 1.529472 -0.5902907
v -0.193223 1.512556 -0.5917161
v -0.2128517 1.432957 -0.5828887
v -0.2794924 1.529472 -0.5902907
v -0.2128517 1.432957 -0.5828887
v -0.2924278 1.448499 -0.5735192
v -0.2794924 1.529472 -0.5902907
v -0.02795568 1.456741 -0.5635208
v -0.06036158 1.381672 -0.5739928
v -0.1097773 1.488249 -0.5657163
v -0.06036158 1.381672 -0.5739928
v -0.1352534 1.410622 -0.5844281
v -0.1097773 1.488249 -0.5657163
v 0.07851209 1.306767 -0.5818309
v 0.01214097 1.346333 -0.576234
v 0.1232424 1.375218 -0.5740505
v -0.4548533 1.294842 -0.5859927
v -0.4272005 1.377061 -0.5970645
v -0.3883868 1.293973 -0.5810378
v -0.4272005 1.377061 -0.5970645
v -0.3742397 1.37538 -0.5796722
v -0.3883868 1.293973 -0.5810378
v -0.256923 1.274998 -0.5762764
v -0.3217998 1.287338 -0.5903203
v -0.3044642 1.367511 -0.5788866
v -0.09268419 1.306559 -0.5839932
v -0.130943 1.23365 -0.5708178
v -0.1614003 1.332961 -0.5814878
v -0.1931099 1.257054 -0.570735
v 0.03341042 1.238258 -0.5766802
v -0.01410444 1.17124 -0.567818
v -0.0274267 1.274334 -0.5623902
v -0.01410444 1.17124 -0.567818
v -0.07071264 1.204971 -0.5814003
v -0.0274267 1.274334 -0.5623902
v -0.0274267 1.274334 -0.5623902
v -0.07071264 1.204971 -0.5814003
v -0.09268419 1.306559 -0.5839932
v -0.07071264 1.204971 -0.5814003
v -0.130943 1.23365 -0.5708178
v -0.09268419 1.306559 -0.5839932
v -0.06036158 1.381672 -0.5739928
v 0.01214097 1.346333 -0.576234
v -0.09268419 1.306559 -0.5839932
v 0.01214097 1.346333 -0.576234
v -0.0274267 1.274334 -0.5623902
v -0.09268419 1.306559 -0.5839932
v -0.02795568 1.456741 -0.5635208
v 0.0513365 1.41828 -0.5769955
v -0.06036158 1.381672 -0.5739928
v 0.0513365 1.41828 -0.5769955
v 0.01214097 1.346333 -0.576234
v -0.06036158 1.381672 -0.5739928
v -0.002100095 1.534975 -0.5751013
v 0.08359765 1.494013 -0.5804961
v -0.02795568 1.456741 -0.5635208
v 0.08359765 1.494013 -0.5804961
v 0.0513365 1.41828 -0.5769955
v -0.02795568 1.456741 -0.5635208
v -0.1614003 1.332961 -0.5814878
v -0.1931099 1.257054 -0.570735
v -0.2322053 1.353332 -0.5788023
v -0.1931099 1.257054 -0.570735
v -0.256923 1.274998 -0.5762764
v -0.2322053 1.353332 -0.5788023
v -0.2322053 1.353332 -0.5788023
v -0.2128517 1.432957 -0.5828887
v -0.1614003 1.332961 -0.5814878
v -0.1352534 1.410622 -0.5844281
v -0.1097773 1.488249 -0.5657163
v -0.1352534 1.410622 -0.5844281
v -0.193223 1.512556 -0.5917161
v -0.1352534 1.410622 -0.5844281
v -0.2128517 1.432957 -0.5828887
v -0.193223 1.512556 -0.5917161
v -0.1821979 1.594007 -0.5776146
v -0.09100948 1.568393 -0.5716497
v -0.193223 1.512556 -0.5917161
v -0.09100948 1.568393 -0.5716497
v -0.1097773 1.488249 -0.5657163
v -0.193223 1.512556 -0.5917161
v 0.09313873 1.195369 -0.5807713
v 0.04027057 1.132721 -0.5808504
v 0.03341042 1.238258 -0.5766802
v 0.1436813 1.259758 -0.5776342
v 0.04027057 1.132721 -0.5808504
v -0.01410444 1.17124 -0.567818
v 0.03341042 1.238258 -0.5766802
v 0.07851209 1.306767 -0.5818309
v 0.1436813 1.259758 -0.5776342
v 0.03341042 1.238258 -0.5766802
v 0.1935223 1.324147 -0.5548741
v 0.1436813 1.259758 -0.5776342
v 0.1232424 1.375218 -0.5740505
v 0.1436813 1.259758 -0.5776342
v 0.07851209 1.306767 -0.5818309
v 0.1232424 1.375218 -0.5740505
v 0.1648998 1.445823 -0.5725831
v 0.2415309 1.390777 -0.5607623
v 0.1232424 1.375218 -0.5740505
v 0.2415309 1.390777 -0.5607623
v 0.1935223 1.324147 -0.5548741
v 0.1232424 1.375218 -0.5740505
v -0.3883868 1.293973 -0.5810378
v -0.3742397 1.37538 -0.5796722
v -0.3217998 1.287338 -0.5903203
v -0.3742397 1.37538 -0.5796722
v -0.3044642 1.367511 -0.5788866
v -0.3217998 1.287338 -0.5903203
v -0.3638107 1.457123 -0.5816903
v -0.2924278 1.448499 -0.5735192
v -0.3742397 1.37538 -0.5796722
v -0.3637046 1.53886 -0.5828148
v -0.2924278 1.448499 -0.5735192
v -0.3044642 1.367511 -0.5788866
v -0.3742397 1.37538 -0.5796722
v -0.3637046 1.53886 -0.5828148
v -0.2794924 1.529472 -0.5902907
v -0.2924278 1.448499 -0.5735192
v -0.3696735 1.621078 -0.5892302
v -0.2753375 1.611616 -0.5829811
v -0.3637046 1.53886 -0.5828148
v -0.2753375 1.611616 -0.5829811
v -0.2794924 1.529472 -0.5902907
v -0.3637046 1.53886 -0.5828148
vt 0.125 0.75
vt 0 0.75
vt 0.125 1
vt 0 1
vt 0 0.5
vt 0 0.25
vt 0 0.5
vt 0.125 0.25
vt 0 0.5
vt 0.125 0.5
vt 0.125 0.25
vt 0.125 0.75
vt 0.5 0.5
vt 0.625 0.5
vt 0.5 0.25
vt 0.625 0.5
vt 0.625 0.25
vt 0.5 0.25
vt 0.5 1
vt 0.625 1
vt 0.5 0.75
vt 0.625 1
vt 0.625 0.75
vt 0.5 0.75
vt 0.75 0.25
vt 0.75 0.5
vt 0.875 0.25
vt 0.75 0.5
vt 0.875 0.5
vt 0.875 0.25
vt 0.75 1
vt 0.875 1
vt 0.75 0.75
vt 0.875 1
vt 0.875 0.75
vt 0.75 0.75
vt 0.75 0.5
vt 0.25 0.5
vt 0.375 0.5
vt 0.25 0.25
vt 0.375 0.5
vt 0.375 0.25
vt 0.25 0.25
vt 0.375 0
vt 0.25 1
vt 0.375 1
vt 0.25 0.75
vt 0.375 1
vt 0.375 0.75
vt 0.25 0.75
vt 0.375 0.75
vt 0.375 0.5
vt 0.25 0.75
vt 0.375 0.5
vt 0.25 0.5
vt 0.25 0.75
vt 0.625 0.75
vt 0.625 0.5
vt 0.5 0.75
vt 0.625 0.5
vt 0.5 0.5
vt 0.5 0.75
vt 0.875 0.5
vt 0.75 0.5
vt 0.875 0.75
vt 0 0
vt 0 0.25
vt 0.125 0
vt 0 0.25
vt 0.125 0.25
vt 0.125 0
vt 0.375 0
vt 0.25 0
vt 0.25 0.25
vt 0.625 0.25
vt 0.625 0
vt 0.5 0.25
vt 0.5 0
vt 0.875 0.25
vt 0.875 0
vt 0.75 0.25
vt 0.875 0
vt 0.75 0
vt 0.75 0.25
vt 0.75 0.25
vt 0.75 0
vt 0.625 0.25
vt 0.75 0
vt 0.625 0
vt 0.625 0.25
vt 0.625 0.5
vt 0.75 0.5
vt 0.625 0.25
vt 0.75 0.5
vt 0.75 0.25
vt 0.625 0.25
vt 0.625 0.75
vt 0.75 0.75
vt 0.625 0.5
vt 0.75 0.75
vt 0.75 0.5
vt 0.625 0.5
vt 0.625 1
vt 0.75 1
vt 0.625 0.75
vt 0.75 1
vt 0.75 0.75
vt 0.625 0.75
vt 0.5 0.25
vt 0.5 0
vt 0.375 0.25
vt 0.5 0
vt 0.375 0
vt 0.375 0.25
vt 0.375 0.25
vt 0.375 0.5
vt 0.5 0.25
vt 0.5 0.5
vt 0.5 0.75
vt 0.5 0.5
vt 0.375 0.75
vt 0.5 0.5
vt 0.375 0.5
vt 0.375 0.75
vt 0.375 1
vt 0.5 1
vt 0.375 0.75
vt 0.5 1
vt 0.5 0.75
vt 0.375 0.75
vt 1 0.25
vt 1 0
vt 0.875 0.25
vt 1 0.5
vt 1 0
vt 0.875 0
vt 0.875 0.25
vt 0.875 0.5
vt 1 0.5
vt 0.875 0.25
vt 1 0.75
vt 1 0.5
vt 0.875 0.75
vt 1 0.5
vt 0.875 0.5
vt 0.875 0.75
vt 0.875 1
vt 1 1
vt 0.875 0.75
vt 1 1
vt 1 0.75
vt 0.875 0.75
vt 0.125 0
vt 0.125 0.25
vt 0.25 0
vt 0.125 0.25
vt 0.25 0.25
vt 0.25 0
vt 0.125 0.5
vt 0.25 0.5
vt 0.125 0.25
vt 0.125 0.75
vt 0.25 0.5
vt 0.25 0.25
vt 0.125 0.25
vt 0.125 0.75
vt 0.25 0.75
vt 0.25 0.5
vt 0.125 1
vt 0.25 1
vt 0.125 0.75
vt 0.25 1
vt 0.25 0.75
vt 0.125 0.75
vn -0.1495807 0.06611944 0.9865363
vn -0.1495807 0.06611945 0.9865363
vn -0.1495807 0.06611945 0.9865363
vn -0.134044 0.05450838 0.9894751
vn -0.1498085 0.06034097 0.9868721
vn -0.3132989 -0.1011983 0.9442472
vn -0.3132989 -0.1011983 0.9442472
vn -0.3132989 -0.1011983 0.9442472
vn -0.08726089 0.03571042 0.9955451
vn -0.08726087 0.03571041 0.9955451
vn -0.08726088 0.03571042 0.9955451
vn -0.08798245 0.01381781 0.9960262
vn -0.109373 0.07435268 0.9912161
vn -0.109373 0.07435267 0.9912161
vn -0.109373 0.07435267 0.9912161
vn -0.01250622 -0.1266737 0.9918656
vn -0.01250622 -0.1266737 0.9918656
vn -0.01250622 -0.1266737 0.9918656
vn 0.06103289 0.05947305 0.9963624
vn 0.06103289 0.05947306 0.9963624
vn 0.06103289 0.05947306 0.9963624
vn 0.0264975 0.1378032 0.9901051
vn 0.02649749 0.1378031 0.9901051
vn 0.0264975 0.1378032 0.9901051
vn 0.2542189 0.04604264 0.9660501
vn 0.2542189 0.04604264 0.9660501
vn 0.2542189 0.04604264 0.9660501
vn 0.09234012 0.01406232 0.9956282
vn 0.09234012 0.01406232 0.9956282
vn 0.09234011 0.01406232 0.9956282
vn -0.0556107 0.069728 0.9960148
vn -0.0556107 0.06972802 0.9960148
vn -0.0556107 0.06972801 0.9960148
vn -0.0394287 0.002495462 0.9992193
vn -0.03942869 0.002495462 0.9992193
vn -0.0394287 0.002495462 0.9992193
vn -0.02608459 0.02478711 0.9993524
vn 0.1009886 -0.08072476 0.9916072
vn 0.1009886 -0.08072478 0.9916072
vn 0.1009886 -0.08072477 0.9916072
vn 0.008488161 0.04919347 0.9987532
vn 0.008488161 0.04919346 0.9987532
vn 0.008488161 0.04919346 0.9987532
vn 0.004856607 0.03069684 0.999517
vn -0.07327074 -0.08471964 0.9937072
vn -0.07327074 -0.08471964 0.9937072
vn -0.07327075 -0.08471964 0.9937072
vn -0.01673105 -0.1683674 0.9855824
vn -0.01673105 -0.1683674 0.9855824
vn -0.01673105 -0.1683674 0.9855824
vn 0.0362904 0.1013039 0.9941934
vn 0.0362904 0.1013039 0.9941934
vn 0.0362904 0.1013039 0.9941934
vn 0.1492247 0.1776341 0.9727169
vn 0.1492247 0.1776341 0.9727169
vn 0.1492247 0.1776341 0.9727169
vn -0.06849567 -0.1087726 0.991704
vn -0.06849567 -0.1087726 0.991704
vn -0.06849567 -0.1087726 0.991704
vn -0.1992341 -0.1673603 0.965555
vn -0.1992341 -0.1673603 0.965555
vn -0.1992341 -0.1673603 0.965555
vn 0.01183653 -0.1205613 0.9926353
vn 0.01183653 -0.1205613 0.9926353
vn 0.01183653 -0.1205613 0.9926353
vn -0.07138576 0.1566612 0.9850692
vn -0.07138576 0.1566612 0.9850692
vn -0.07138576 0.1566612 0.9850692
vn -0.310689 0.03806066 0.9497494
vn -0.3106891 0.03806066 0.9497494
vn -0.3106891 0.03806066 0.9497494
vn -0.2269116 -0.08924565 0.9698176
vn -0.2269116 -0.08924566 0.9698176
vn -0.2269116 -0.08924565 0.9698176
vn 0.08700745 0.1327607 0.9873218
vn 0.08700744 0.1327607 0.9873218
vn 0.08700744 0.1327607 0.9873218
vn 0.04683405 0.1208957 0.9915597
vn 0.215334 -0.0235722 0.976256
vn 0.215334 -0.0235722 0.976256
vn 0.2153339 -0.02357219 0.976256
vn -0.2809485 -0.08662736 0.9558052
vn -0.2809485 -0.08662736 0.9558052
vn -0.2809485 -0.08662735 0.9558052
vn -0.3354157 -0.04853035 0.9408194
vn -0.3354157 -0.04853035 0.9408194
vn -0.3354157 -0.04853035 0.9408194
vn 0.2044827 0.06914747 0.9764248
vn 0.2044827 0.06914747 0.9764248
vn 0.2044827 0.06914748 0.9764248
vn -0.02787582 -0.1201264 0.9923672
vn -0.02787582 -0.1201264 0.9923672
vn -0.02787582 -0.1201264 0.9923672
vn -0.1753804 0.2779794 0.9444412
vn -0.1753804 0.2779794 0.9444412
vn -0.1753804 0.2779794 0.9444412
vn 0.08299816 -0.1727406 0.9814642
vn 0.08299815 -0.1727407 0.9814642
vn 0.08299816 -0.1727407 0.9814642
vn 0.02849028 -0.004941931 0.9995819
vn 0.02849028 -0.004941931 0.9995819
vn 0.02849028 -0.004941931 0.9995819
vn 0.1140258 0.1084951 0.9875358
vn 0.1140258 0.1084951 0.9875358
vn 0.1140258 0.1084951 0.9875358
vn 0.1573936 -0.02141166 0.9873038
vn 0.1573936 -0.02141166 0.9873038
vn 0.1573936 -0.02141166 0.9873038
vn 0.06963322 0.111341 0.9913397
vn 0.06963322 0.111341 0.9913397
vn 0.06963322 0.111341 0.9913397
vn -0.07114613 0.05456459 0.9959723
vn -0.07114612 0.0545646 0.9959723
vn -0.07114615 0.05456461 0.9959723
vn 0.04915217 0.03927237 0.998019
vn 0.04915217 0.03927237 0.998019
vn 0.04915216 0.03927237 0.998019
vn 0.02799875 0.02840494 0.9992043
vn -0.3267418 -0.1187806 0.9376198
vn -0.3267419 -0.1187806 0.9376198
vn -0.3267419 -0.1187806 0.9376198
vn 0.04803504 0.09838493 0.9939884
vn 0.04803504 0.09838494 0.9939884
vn 0.04803504 0.09838493 0.9939884
vn -0.1078815 -0.1553994 0.9819433
vn -0.1078814 -0.1553994 0.9819433
vn -0.1078815 -0.1553994 0.9819433
vn -0.2597269 0.1316489 0.9566663
vn -0.2597269 0.131649 0.9566663
vn -0.2597269 0.1316489 0.9566663
vn 0.04202046 -0.03672074 0.9984418
vn 0.04202046 -0.03672074 0.9984418
vn 0.04202046 -0.03672074 0.9984418
vn 0.02137953 -0.06538839 0.9976308
vn 0.2165697 -0.02448637 0.9759601
vn 0.2165697 -0.02448637 0.9759601
vn 0.2165697 -0.02448637 0.9759601
vn -0.006870359 0.07946475 0.996814
vn -0.006870359 0.07946475 0.996814
vn -0.006870359 0.07946476 0.996814
vn -0.3198874 -0.0859127 0.9435524
vn -0.3198874 -0.0859127 0.9435524
vn -0.3198874 -0.08591268 0.9435524
vn -0.09888539 -0.04835417 0.9939232
vn -0.09888541 -0.04835417 0.9939232
vn -0.09888541 -0.04835417 0.9939232
vn -0.1178543 0.04892025 0.9918251
vn -0.1178543 0.04892025 0.9918251
vn -0.1178543 0.04892025 0.9918251
vn -0.1334037 0.1822082 0.9741682
vn -0.1334037 0.1822082 0.9741682
vn -0.1334037 0.1822082 0.9741682
vn 0.1340575 -0.03990604 0.9901697
vn 0.1340575 -0.03990603 0.9901697
vn 0.1340575 -0.03990603 0.9901697
vn -0.02643761 -0.1355322 0.9904202
vn -0.02643761 -0.1355322 0.9904202
vn -0.02643761 -0.1355322 0.9904202
vn -0.1090563 0.03843569 0.9932922
vn -0.1090563 0.0384357 0.9932922
vn -0.1090563 0.0384357 0.9932922
vn -0.1120666 0.01381588 0.9936047
vn -0.01838604 -0.06339569 0.9978191
vn -0.01838604 -0.06339568 0.9978191
vn -0.01838603 -0.06339568 0.9978191
vn 0.1073598 0.1851724 0.976824
vn 0.1073599 0.1851724 0.976824
vn 0.1073599 0.1851724 0.976824
vn -0.05858628 0.07343079 0.9955781
vn -0.05858628 0.07343079 0.9955781
vn -0.05858628 0.07343079 0.9955781
vn 0.07783852 -0.09227236 0.9926867
vn 0.07783852 -0.09227237 0.9926867
vn 0.07783852 -0.09227236 0.9926867
g distressFlag_0
f 3/3/3 2/2/2 1/1/1
f 3/3/3 4/4/4 2/2/2
f 1/1/1 2/2/2 5/5/5
f 8/8/8 7/7/7 6/6/6
f 11/11/11 10/10/10 9/9/9
f 12/12/12 9/9/9 10/10/10
f 15/15/15 14/14/14 13/13/13
f 18/18/18 17/17/17 16/16/16
f 21/21/21 20/20/20 19/19/19
f 24/24/24 23/23/23 22/22/22
f 27/27/27 26/26/26 25/25/25
f 30/30/30 29/29/29 28/28/28
f 33/33/33 32/32/32 31/31/31
f 36/36/36 35/35/35 34/34/34
f 35/35/35 36/36/36 37/37/37
f 40/40/40 39/39/39 38/38/38
f 43/43/43 42/42/42 41/41/41
f 43/43/43 44/44/44 42/42/42
f 47/47/47 46/46/46 45/45/45
f 50/50/50 49/49/49 48/48/48
f 53/53/53 52/52/52 51/51/51
f 56/56/56 55/55/55 54/54/54
f 59/59/59 58/58/58 57/57/57
f 62/62/62 61/61/61 60/60/60
f 65/65/65 64/64/64 63/63/63
f 68/68/68 67/67/67 66/66/66
f 71/71/71 70/70/70 69/69/69
f 74/74/74 73/73/73 72/72/72
f 77/77/77 76/76/76 75/75/75
f 77/77/77 78/78/78 76/76/76
f 81/81/81 80/80/80 79/79/79
f 84/84/84 83/83/83 82/82/82
f 87/87/87 86/86/86 85/85/85
f 90/90/90 89/89/89 88/88/88
f 93/93/93 92/92/92 91/91/91
f 96/96/96 95/95/95 94/94/94
f 99/99/99 98/98/98 97/97/97
f 102/102/102 101/101/101 100/100/100
f 105/105/105 104/104/104 103/103/103
f 108/108/108 107/107/107 106/106/106
f 111/111/111 110/110/110 109/109/109
f 114/114/114 113/113/113 112/112/112
f 117/117/117 116/116/116 115/115/115
f 117/117/117 118/118/118 116/116/116
f 121/121/121 120/120/120 119/119/119
f 124/124/124 123/123/123 122/122/122
f 127/127/127 126/126/126 125/125/125
f 130/130/130 129/129/129 128/128/128
f 133/133/133 132/132/132 131/131/131
f 133/133/133 131/131/131 134/134/134
f 137/137/137 136/136/136 135/135/135
f 140/140/140 139/139/139 138/138/138
f 143/143/143 142/142/142 141/141/141
f 146/146/146 145/145/145 144/144/144
f 149/149/149 148/148/148 147/147/147
f 152/152/152 151/151/151 150/150/150
f 155/155/155 154/154/154 153/153/153
f 158/158/158 157/157/157 156/156/156
f 161/161/161 160/160/160 159/159/159
f 160/160/160 162/162/162 159/159/159
f 165/165/165 164/164/164 163/163/163
f 168/168/168 167/167/167 166/166/166
f 171/171/171 170/170/170 169/169/169
f 174/174/174 173/173/173 172/172/172
