g dragonTempleEnd
v 1.682792 0.6275573 -8.278941
v -1.682792 0.6275573 -8.278941
v -1.682792 0.8474773 -8.278939
v 1.682792 0.8474773 -8.278939
v 1.682792 0.8474773 -8.278939
v -1.682792 0.8474773 -8.278939
v -1.682792 0.8474773 -8.745731
v 1.682792 0.8474773 -8.745731
v 1.682792 0.4005841 -8.232353
v -1.682792 0.4005841 -8.232353
v -1.682792 0.6060508 -8.232354
v 1.682792 0.6060508 -8.232354
v 1.682792 0.6060508 -8.232354
v -1.682792 0.6060508 -8.232354
v -1.682792 0.6275573 -8.278941
v 1.682792 0.6275573 -8.278941
v 1.682792 -5E-06 -8.232354
v -1.682792 -5.050669E-06 -8.232354
v -1.682792 0.2269684 -8.232353
v 1.682792 0.2269685 -8.232353
v 1.682792 0.2519685 -8.251561
v -1.682792 0.2519685 -8.251561
v -1.682792 0.3755841 -8.251561
v 1.682792 0.3755841 -8.251561
v 1.682792 0.2269685 -8.232353
v -1.682792 0.2269684 -8.232353
v -1.682792 0.2519685 -8.251561
v 1.682792 0.2519685 -8.251561
v 1.682792 0.3755841 -8.251561
v -1.682792 0.3755841 -8.251561
v -1.682792 0.4005841 -8.232353
v 1.682792 0.4005841 -8.232353
v 1.682792 0.8474773 -8.745731
v -1.682792 0.8474773 -8.745731
v -1.682792 3.839187 -8.745731
v 1.682792 3.839187 -8.745731
vt 0.4000375 0.5138798
vt 0.4000375 0.5138798
vt 0.4000375 0.5288568
vt 0.4000375 0.5288568
vt 0.4000375 0.5288568
vt 0.4000375 0.5288568
vt 0.3845732 0.5288568
vt 0.3845732 0.5288568
vt 0.3945424 0.4984234
vt 0.3945424 0.4984234
vt 0.3945424 0.5138798
vt 0.3945424 0.5138798
vt 0.3945424 0.5138798
vt 0.3945424 0.5138798
vt 0.4000375 0.5138798
vt 0.4000375 0.5138798
vt 0.3945424 0.4711433
vt 0.3945424 0.4711433
vt 0.3945424 0.4865997
vt 0.3945424 0.4865997
vt 0.09470861 0.3907898
vt 0.09470861 0.3907898
vt 0.09470861 0.4006603
vt 0.09470861 0.4006603
vt 0.3945424 0.4865997
vt 0.3945424 0.4865997
vt 0.3967894 0.4883022
vt 0.3967894 0.4883022
vt 0.3967894 0.4967209
vt 0.3967894 0.4967209
vt 0.3945424 0.4984234
vt 0.3945424 0.4984234
vt 0.9100443 0.10837
vt 0.103157 0.10837
vt 0.103157 0.8256221
vt 0.9100443 0.8256221
vn 1.628083E-07 -5.550669E-06 1
vn 1.628083E-07 -5.550669E-06 1
vn 1.628083E-07 -5.550669E-06 1
vn 1.628083E-07 -5.550669E-06 1
vn 0 1 0
vn 0 1 0
vn 0 1 0
vn 0 1 0
vn 0 2.970562E-06 1
vn 0 2.970562E-06 1
vn 0 2.970562E-06 1
vn 0 2.970562E-06 1
vn 0 0.9079241 0.4191348
vn 0 0.9079241 0.4191348
vn 0 0.9079241 0.4191348
vn 0 0.9079241 0.4191348
vn 0 -2.689088E-06 1
vn 0 -2.689088E-06 1
vn 0 -2.689088E-06 1
vn 0 -2.689088E-06 1
vn 0 0 1
vn 0 0 1
vn 0 0 1
vn 0 0 1
vn 0 0.6092512 0.7929772
vn 0 0.6092512 0.7929772
vn 0 0.6092512 0.7929772
vn 0 0.6092512 0.7929772
vn 0 -0.6092515 0.7929771
vn 0 -0.6092515 0.7929771
vn 0 -0.6092515 0.7929771
vn 0 -0.6092515 0.7929771
vn 0 0 1
vn 0 0 1
vn 0 0 1
vn 0 0 1
g dragonTempleEnd_0
f 3/3/3 2/2/2 1/1/1
f 4/4/4 3/3/3 1/1/1
f 7/7/7 6/6/6 5/5/5
f 8/8/8 7/7/7 5/5/5
f 11/11/11 10/10/10 9/9/9
f 12/12/12 11/11/11 9/9/9
f 15/15/15 14/14/14 13/13/13
f 16/16/16 15/15/15 13/13/13
f 19/19/19 18/18/18 17/17/17
f 20/20/20 19/19/19 17/17/17
f 23/23/23 22/22/22 21/21/21
f 24/24/24 23/23/23 21/21/21
f 27/27/27 26/26/26 25/25/25
f 28/28/28 27/27/27 25/25/25
f 31/31/31 30/30/30 29/29/29
f 32/32/32 31/31/31 29/29/29
g dragonTempleEnd_1
f 35/35/35 34/34/34 33/33/33
f 36/36/36 35/35/35 33/33/33
