g dropstoneDio_lava
v 3.320518 -0.5681069 -35.84096
v 6.374989 -0.5681069 -39.43705
v 12.45001 -0.5681069 -38.20586
v 10.15202 -0.5681069 -33.37693
v 1.037703 -0.5681069 -31.99514
v 10.15202 -0.5681069 -33.37693
v 9.627954 -0.5681069 -28.97085
v -0.3333915 -0.5681069 -27.51334
v 6.183578 -0.5681069 -25.56422
v -0.4287742 -0.5681069 -23.29223
v -0.3333915 -0.5681069 -27.51334
v 4.660591 -0.5681069 -22.68821
v -0.1783588 -0.5681069 -18.65073
v 4.660591 -0.5681069 -22.68821
v 5.366247 -0.5681069 -18.23767
v -1.368483 -0.5681069 -14.84764
v 2.308336 -0.5681069 -14.30343
v -1.719753 -0.5681069 -10.77965
v 2.308336 -0.5681069 -14.30343
v 2.181949 -0.5681069 -9.374278
v -0.9533226 -0.5681069 -6.459735
v -1.719753 -0.5681069 -10.77965
v 2.181949 -0.5681069 -9.374278
v 0.8645077 -0.5681069 -6.250179
v 5.366247 -0.5681069 -18.23767
v 7.205938 -0.5681069 -13.45405
v 5.202284 -0.5681068 -11.78878
v 2.308336 -0.5681069 -14.30343
v 8.95278 -0.5681069 -9.723062
v 7.057559 -0.5681069 -8.330956
v 5.202284 -0.5681068 -11.78878
v 8.95278 -0.5681069 -9.723062
v 8.572279 -0.5681068 -3.331869
v 10.48516 -0.5681069 -5.3312
v 10.48516 -0.5681069 -5.3312
v 12.60106 -0.5681069 -2.396288
v 10.34703 -0.5681069 -0.4463367
v 8.572279 -0.5681068 -3.331869
v -28.38511 3.339809 -33.88649
v -29.66995 3.191481 -32.2887
v -29.9665 3.37202 -33.86911
v -29.9665 3.37202 -33.86911
v -29.66995 3.191481 -32.2887
v -31.27028 3.154649 -33.81245
v -31.27028 3.154649 -33.81245
v -29.66995 3.191481 -32.2887
v -31.52289 3.441083 -32.28109
v -31.04983 3.581183 -31.05879
v -31.04983 3.581183 -31.05879
v -29.66995 3.191481 -32.2887
v -30.08195 3.418963 -30.61766
v -29.54745 3.339746 -30.07685
v -27.71537 3.297539 -31.10517
v -29.54745 3.339746 -30.07685
v -29.66995 3.191481 -32.2887
v -27.71537 3.297539 -31.10517
v -29.66995 3.191481 -32.2887
v -27.72513 3.632346 -32.06842
v -27.72513 3.632346 -32.06842
v -29.66995 3.191481 -32.2887
v -28.38511 3.339809 -33.88649
v -28.80634 2.983154 -29.06847
v -26.95715 3.159842 -30.17572
v -26.88586 2.643822 -29.69089
v -28.44318 2.444431 -28.78465
v -28.97543 3.279579 -29.47089
v -27.36024 3.383466 -30.61495
v -26.95715 3.159842 -30.17572
v -28.80634 2.983154 -29.06847
v -27.71537 3.297539 -31.10517
v -27.36024 3.383466 -30.61495
v -28.97543 3.279579 -29.47089
v -29.54745 3.339746 -30.07685
v -24.58336 2.410056 -28.06126
v -26.46862 2.551902 -24.87728
v -28.44318 2.444431 -28.78465
v -26.88586 2.643822 -29.69089
v -26.46862 2.551902 -24.87728
v -24.58336 2.410056 -28.06126
v -23.175 2.234644 -26.7278
v -23.30416 2.053342 -24.74569
v -25.55891 2.450946 -23.49878
v -21.34038 2.020995 -25.92845
v -19.8222 1.835598 -25.43598
v -21.07407 1.775134 -23.40197
v -23.30416 2.053342 -24.74569
v -23.30416 2.053342 -24.74569
v -23.175 2.234644 -26.7278
v -16.41275 1.254435 -12.15837
v -16.36122 1.241991 -12.56908
v -14.88379 1.156834 -11.00783
v -14.97174 1.152846 -10.71805
v -13.87266 1.038564 -9.983163
v -16.36122 1.241991 -12.56908
v -16.41275 1.254435 -12.15837
v -17.92498 1.40343 -13.92775
v -17.77922 1.274779 -14.76345
v -18.76584 1.527439 -15.29183
v -18.34247 1.495456 -16.09119
v -17.77922 1.274779 -14.76345
v -17.92498 1.40343 -13.92775
v -12.49368 0.4131076 -19.35758
v -13.34188 0.7151282 -18.44791
v -14.47364 1.106801 -18.53603
v -14.14737 0.9979379 -19.83279
v -10.4836 -0.5236226 -18.28877
v -10.03469 -0.3138067 -18.41918
v -8.546121 -0.1200176 -17.16389
v -14.47364 1.106801 -18.53603
v -17.03329 0.8793311 -19.69691
v -15.37945 0.8389509 -21.59774
v -14.14737 0.9979379 -19.83279
v -25.55891 2.450946 -23.49878
v -23.30416 2.053342 -24.74569
v -21.07407 1.775134 -23.40197
v -23.72411 2.210587 -21.98235
v -22.77624 2.003122 -21.33271
v -19.8222 1.835598 -25.43598
v -17.06913 1.294218 -23.96794
v -19.3016 1.458248 -21.43271
v -21.07407 1.775134 -23.40197
v -17.03329 0.8793311 -19.69691
v -15.37945 0.8389509 -21.59774
v -18.76584 1.527439 -15.29183
v -19.95318 1.779662 -16.52664
v -18.60152 1.616026 -18.27373
v -18.34247 1.495456 -16.09119
v -21.07407 1.775134 -23.40197
v -19.87153 1.774098 -20.75197
v -21.51312 1.895818 -19.3254
v -22.77624 2.003122 -21.33271
v -19.95318 1.779662 -16.52664
v -18.60152 1.616026 -18.27373
v -10.03469 -0.3138067 -18.41918
v -10.4836 -0.5236226 -18.28877
v -11.91417 -0.07718803 -18.70278
v -11.20829 0.01879782 -19.02443
v -11.20829 0.01879782 -19.02443
v -11.91417 -0.07718803 -18.70278
v -13.34188 0.7151282 -18.44791
v -12.49368 0.4131076 -19.35758
v 15.86987 0.658913 -5.425593
v 14.21402 0.5509714 -4.138291
v 13.96154 0.5308086 -5.105731
v 15.64323 0.658913 -6.575318
v 19.27295 1.121033 -8.056042
v 17.52651 0.9131762 -6.704181
v 16.89842 0.9243041 -7.223657
v 17.99194 1.121033 -8.38426
v 15.64323 0.658913 -6.575318
v 15.86987 0.658913 -5.425593
v 18.6601 1.382702 -9.631905
v 19.93673 1.382702 -9.730877
v 19.27295 1.121033 -8.056042
v 17.99194 1.121033 -8.38426
v 18.55173 1.955177 -11.73934
v 19.76737 1.955177 -11.69556
v 19.93673 1.382702 -9.730877
v 18.6601 1.382702 -9.631905
v 18.70571 2.573049 -14.07731
v 19.57336 2.573049 -13.9947
v 16.32677 2.284833 -22.72716
v 17.18802 2.306 -22.73464
v 18.10366 2.432414 -20.82435
v 17.27687 2.432414 -20.86137
v 17.27687 2.432414 -20.86137
v 18.10366 2.432414 -20.82435
v 18.24205 2.673848 -18.24138
v 17.33137 2.733802 -18.23532
v 17.33137 2.733802 -18.23532
v 18.24205 2.673848 -18.24138
v 18.81514 2.666811 -16.05606
v 17.90547 2.666811 -16.13291
v 17.90547 2.666811 -16.13291
v 18.81514 2.666811 -16.05606
v 19.57336 2.573049 -13.9947
v 18.70571 2.573049 -14.07731
v 14.21402 0.5509714 -4.138291
v 12.99477 0.5509714 -3.901813
v 13.08575 0.5308086 -4.899718
v 13.96154 0.5308086 -5.105731
vt 0.003986955 0.8728375
vt 0.003986955 1
vt 0.9953419 1
vt 0.9953419 0.8728375
vt 0.003986955 0.7485743
vt 0.9953419 0.8728375
vt 0.9953419 0.7485743
vt 0.003986955 0.624311
vt 0.9953419 0.624311
vt 0.003986955 0.5000477
vt 0.003986955 0.624311
vt 0.9953419 0.5000477
vt 0.003986955 0.3757844
vt 0.9953419 0.5000477
vt 0.9953419 0.3757844
vt 0.003986955 0.2515211
vt 0.9953419 0.2515211
vt 0.003986955 0.1272578
vt 0.9953419 0.2515211
vt 0.9953419 0.1272578
vt 0.003986955 0
vt 0.003986955 0.1272578
vt 0.9953419 0.1272578
vt 0.9953419 0
vt 0.9953419 0.3724362
vt 0.9953419 0.2793271
vt 0.003986955 0.2807404
vt 0.003986955 0.3743206
vt 0.9953419 0.1862181
vt 0.003986955 0.1871603
vt 0.003986955 0.2807404
vt 0.9953419 0.1862181
vt 0.003986955 0.09358015
vt 0.9953419 0.09310904
vt 0.9953419 0.09310904
vt 0.9953419 0
vt 0.003986955 0
vt 0.003986955 0.09358015
vt 0.9955218 0.9286902
vt 0.9955218 0.9243445
vt 0.9955218 0.9689078
vt 0.9955218 0.9689078
vt 0.9955218 0.9243445
vt 0.9955218 1
vt 0.9955218 1
vt 0.9955218 0.9243445
vt 0.006818116 0.9727126
vt 0.006818116 0.9332681
vt 0.006818116 0.9332681
vt 0.9955218 0.9243445
vt 0.006818116 0.8976753
vt 0.006818116 0.8712658
vt 0.9955218 0.8477193
vt 0.006818116 0.8712658
vt 0.9955218 0.9243445
vt 0.9955218 0.8477193
vt 0.9955218 0.9243445
vt 0.9955218 0.8715152
vt 0.9955218 0.8715152
vt 0.9955218 0.9243445
vt 0.9955218 0.9286902
vt 0.006818116 0.8276229
vt 0.9955218 0.8064291
vt 0.9955218 0.7911909
vt 0.006818116 0.8094125
vt 0.006818116 0.842491
vt 0.9955218 0.8278004
vt 0.9955218 0.8064291
vt 0.006818116 0.8276229
vt 0.9955218 0.8477193
vt 0.9955218 0.8278004
vt 0.006818116 0.842491
vt 0.006818116 0.8712658
vt 0.9955218 0.6939263
vt 0.006818116 0.6699567
vt 0.006818116 0.8094125
vt 0.9955218 0.7911909
vt 0.006818116 0.6699567
vt 0.9955218 0.6939263
vt 0.9955218 0.6265838
vt 0.9994331 0.5837202
vt 0.006818116 0.6146796
vt 0.9809247 0.5603818
vt 0.9809247 0.5094268
vt 0.01611727 0.4946512
vt 0.01611739 0.5837202
vt 0.01611739 0.5837202
vt 0.9809247 0.6265838
vt 0.005503774 0.1157477
vt 0.9937329 0.1237707
vt 0.9937328 0.04985392
vt 0.005503774 0.04545617
vt 0.9937329 -5.960464E-08
vt 0.9937329 0.1237707
vt 0.005503774 0.1157477
vt 0.005503774 0.1956043
vt 0.9937329 0.2104177
vt 0.005503774 0.2488931
vt 0.9937329 0.2562053
vt 0.9937329 0.2104177
vt 0.005503774 0.1956043
vt 0.9809247 0.176399
vt 0.01611739 0.1786488
vt 0.01611727 0.21139
vt 0.9809247 0.2322227
vt 0.01611739 0.09628981
vt 0.9809247 0.08872885
vt 0.9809247 0.02278197
vt 0.01611727 0.21139
vt 0.01611727 0.3024355
vt 0.9809247 0.3034235
vt 0.9809247 0.2322227
vt 0.006818116 0.6146796
vt 0.9994331 0.5837202
vt 0.999433 0.4946512
vt 0.006818116 0.5319448
vt 0.006818116 0.4918896
vt 0.9809247 0.5094268
vt 0.9809247 0.4029461
vt 0.01611727 0.4028062
vt 0.01611727 0.4946512
vt 0.01611727 0.3024355
vt 0.9809247 0.3034235
vt 0.005503774 0.2488931
vt 0.005503774 0.3086675
vt 0.9937329 0.313317
vt 0.9937329 0.2562053
vt 0.9937328 0.4946512
vt 0.9937329 0.4032354
vt 0.005503774 0.4131514
vt 0.005503774 0.4918896
vt 0.005503774 0.3086675
vt 0.9937329 0.313317
vt 0.9809247 0.08872885
vt 0.01611739 0.09628981
vt 0.01611739 0.1443808
vt 0.9809247 0.1341076
vt 0.9809247 0.1341076
vt 0.01611739 0.1443808
vt 0.01611739 0.1786488
vt 0.9809247 0.176399
vt 0.993414 0.1646543
vt 0.993414 0.05983827
vt 0.03106052 0.06743985
vt 0.03106052 0.1657102
vt 0.993414 0.3038022
vt 0.993414 0.2507789
vt 0.03106052 0.2428252
vt 0.03106052 0.3007216
vt 0.03106052 0.1657102
vt 0.993414 0.1646543
vt 0.03106052 0.3691922
vt 0.993414 0.3738363
vt 0.993414 0.3038022
vt 0.03106052 0.3007216
vt 0.03106052 0.4680797
vt 0.993414 0.4660256
vt 0.993414 0.3738363
vt 0.03106052 0.3691922
vt 0.03106052 0.5777848
vt 0.993414 0.5739083
vt 0.03106052 0.9836634
vt 0.993414 0.9840146
vt 0.993414 0.8943775
vt 0.03106052 0.8961145
vt 0.03106052 0.8961145
vt 0.993414 0.8943775
vt 0.993414 0.7731766
vt 0.03106052 0.7728918
vt 0.03106052 0.7728918
vt 0.993414 0.7731766
vt 0.993414 0.6706343
vt 0.03106052 0.6742401
vt 0.03106052 0.6742401
vt 0.993414 0.6706343
vt 0.993414 0.5739083
vt 0.03106052 0.5777848
vt 0.993414 0.05983827
vt 0.993414 0.0132319
vt 0.03106052 0.02411017
vt 0.03106052 0.06743985
vn 0 1 0
vn 0 1 0
vn 0 1 0
vn 0 1 0
vn 0 1 0
vn 0 1 0
vn 0 1 0
vn 0 1 0
vn 0 1 0
vn 0 1 0
vn 0 1 0
vn 0 1 0
vn 0 1 0
vn 0 1 0
vn 0 1 0
vn 0 1 0
vn 0 1 0
vn 0 1 0
vn 0 1 0
vn 0 1 0
vn 0 1 0
vn 0 1 0
vn 0 1 0
vn 0 1 0
vn 0 1 0
vn 0 1 0
vn 0 1 0
vn 0 1 0
vn 0 1 0
vn 0 1 0
vn 0 1 0
vn 0 1 0
vn 0 1 0
vn 0 1 0
vn 0 1 0
vn 0 1 0
vn 0 1 0
vn 0 1 0
vn 0.02144508 0.9937556 0.1094986
vn 0.02144508 0.9937556 0.1094986
vn 0.02144508 0.9937556 0.1094986
vn -0.1568395 0.9774938 0.1410936
vn -0.1568395 0.9774938 0.1410936
vn -0.1568395 0.9774938 0.1410935
vn 0.1311015 0.9781533 -0.1613329
vn 0.1311015 0.9781533 -0.1613329
vn 0.1311015 0.9781533 -0.1613329
vn 0.131062 0.9779137 -0.1628115
vn 0.2014858 0.9759529 -0.08318215
vn 0.2014858 0.9759529 -0.08318215
vn 0.2014858 0.9759529 -0.08318214
vn 0.2224128 0.9718703 -0.07746496
vn -0.0141144 0.9977133 -0.06609813
vn -0.0141144 0.9977133 -0.06609812
vn -0.0141144 0.9977133 -0.06609814
vn -0.2437999 0.9152984 0.3206096
vn -0.2437998 0.9152984 0.3206096
vn -0.2437998 0.9152984 0.3206096
vn -0.2117592 0.9740537 -0.07985893
vn -0.2117592 0.9740537 -0.07985894
vn -0.2117592 0.9740537 -0.07985894
vn 0.3367656 0.6412105 0.6895202
vn 0.3367657 0.6412104 0.6895202
vn 0.3367656 0.6412105 0.6895201
vn 0.3367656 0.6412104 0.6895202
vn 0.1974954 0.8883056 0.4146187
vn 0.1974954 0.8883056 0.4146187
vn 0.1974954 0.8883056 0.4146187
vn 0.1974954 0.8883057 0.4146187
vn -0.02132657 0.9997577 -0.005456158
vn -0.02132657 0.9997577 -0.005456158
vn -0.02132657 0.9997577 -0.005456157
vn -0.02132657 0.9997577 -0.005456158
vn 0.005413799 0.9998119 0.01862294
vn 0.005413799 0.9998119 0.01862293
vn 0.005413799 0.9998119 0.01862293
vn 0.005413799 0.9998119 0.01862294
vn 0.1347788 0.9902263 0.03586804
vn 0.1347788 0.9902263 0.03586804
vn 0.1285802 0.9908087 0.04201196
vn 0.1294158 0.9907348 0.0411845
vn 0.1347788 0.9902263 0.03586804
vn 0.07958412 0.9929154 0.08823554
vn 0.07958413 0.9929154 0.08823555
vn 0.07958414 0.9929154 0.08823555
vn 0.07958411 0.9929154 0.08823553
vn 0.1294158 0.9907348 0.0411845
vn 0.1285802 0.9908087 0.04201196
vn 0.06328955 0.997995 0.0005544918
vn 0.06328957 0.997995 0.0005544918
vn 0.06328956 0.997995 0.0005544919
vn 0.06328955 0.997995 0.0005544918
vn 0.07848926 0.9962082 0.0375336
vn 0.1738927 0.9812137 -0.08355171
vn 0.1738928 0.9812137 -0.08355173
vn 0.1738928 0.9812137 -0.08355172
vn 0.1738927 0.9812137 -0.08355173
vn 0.2518052 0.9677494 -0.007427799
vn 0.2518052 0.9677494 -0.007427798
vn 0.2518052 0.9677494 -0.007427798
vn 0.2518052 0.9677494 -0.007427799
vn 0.3307731 0.9437102 0.0003283191
vn 0.3307731 0.9437102 0.0003283191
vn 0.3307731 0.9437102 0.0003283191
vn 0.3307731 0.9437102 0.0003283191
vn -0.3430276 0.9003474 0.267781
vn -0.3430275 0.9003474 0.267781
vn -0.3430275 0.9003474 0.267781
vn -0.04442994 0.9962671 -0.0740127
vn -0.04442994 0.9962671 -0.07401269
vn -0.04442994 0.9962671 -0.0740127
vn -0.04442994 0.9962671 -0.0740127
vn 0.1567207 0.9874769 -0.018116
vn 0.1567207 0.9874769 -0.018116
vn 0.1567207 0.9874769 -0.018116
vn 0.1567207 0.9874769 -0.01811599
vn 0.1567207 0.9874769 -0.018116
vn 0.1295054 0.9886351 0.07634823
vn 0.1295054 0.9886351 0.07634823
vn 0.1295054 0.9886351 0.07634824
vn 0.1295054 0.9886351 0.07634822
vn 0.1591353 0.9827591 0.09412976
vn 0.1591353 0.9827591 0.09412975
vn 0.1635855 0.9857854 0.0383003
vn 0.1635855 0.9857854 0.0383003
vn 0.1635855 0.9857854 0.0383003
vn 0.1635855 0.9857854 0.0383003
vn 0.08267596 0.9963637 -0.02059231
vn 0.08267598 0.9963637 -0.02059231
vn 0.08267596 0.9963637 -0.02059231
vn 0.08267597 0.9963637 -0.02059231
vn 0.09546383 0.9954327 0.0005339663
vn 0.09546383 0.9954327 0.0005339663
vn 0.01394928 0.8113053 0.5844562
vn 0.01394928 0.8113053 0.5844562
vn 0.01394928 0.8113053 0.5844562
vn 0.01394928 0.8113053 0.5844562
vn 0.3713856 0.8704544 0.3230818
vn 0.3713856 0.8704544 0.3230817
vn 0.3713856 0.8704544 0.3230817
vn 0.3713856 0.8704544 0.3230818
vn -0.06606799 0.9978002 0.005448621
vn -0.06606799 0.9978002 0.005448622
vn -0.066068 0.9978002 0.005448621
vn -0.066068 0.9978002 0.005448621
vn -0.0434161 0.9928926 0.1108115
vn -0.0781175 0.9923778 0.0953104
vn -0.0896197 0.9918895 0.09013075
vn -0.04341609 0.9928926 0.1108115
vn -0.1285765 0.9890509 0.07243252
vn -0.1285765 0.9890509 0.0724325
vn -0.01519571 0.985407 0.169535
vn -0.01519571 0.985407 0.169535
vn -0.01519571 0.985407 0.169535
vn -0.01519571 0.985407 0.169535
vn 0.005986071 0.9627607 0.2702889
vn 0.005986071 0.9627607 0.270289
vn 0.005986071 0.9627607 0.2702889
vn 0.005986071 0.9627607 0.270289
vn -0.01562795 0.9661257 0.2575984
vn -0.01562795 0.9661257 0.2575984
vn -0.01134189 0.9977027 -0.06678958
vn -0.0113419 0.9977027 -0.06678959
vn -0.0113419 0.9977027 -0.06678959
vn -0.01134189 0.9977027 -0.06678958
vn 0.03616216 0.9938246 -0.1049039
vn 0.03616216 0.9938246 -0.1049039
vn 0.03616216 0.9938246 -0.1049039
vn 0.03616216 0.9938246 -0.1049039
vn 0.03258525 0.9994325 0.008537159
vn 0.03258524 0.9994325 0.008537158
vn 0.03258524 0.9994325 0.008537157
vn 0.03258524 0.9994325 0.008537159
vn -0.004225434 0.9988814 0.04709779
vn -0.004225434 0.9988814 0.04709779
vn -0.004225434 0.9988814 0.04709779
vn -0.004225434 0.9988814 0.04709779
vn -0.004258829 0.9997876 -0.02016404
vn -0.00425883 0.9997876 -0.02016404
vn -0.00425883 0.9997876 -0.02016403
vn -0.00425883 0.9997876 -0.02016403
g dropstoneDio_lava_0
f 3/3/3 2/2/2 1/1/1
f 4/4/4 3/3/3 1/1/1
f 6/6/6 1/1/1 5/5/5
f 7/7/7 6/6/6 5/5/5
f 7/7/7 5/5/5 8/8/8
f 9/9/9 7/7/7 8/8/8
f 9/9/9 11/11/11 10/10/10
f 12/12/12 9/9/9 10/10/10
f 14/14/14 10/10/10 13/13/13
f 15/15/15 14/14/14 13/13/13
f 15/15/15 13/13/13 16/16/16
f 17/17/17 15/15/15 16/16/16
f 19/19/19 16/16/16 18/18/18
f 20/20/20 19/19/19 18/18/18
f 23/23/23 22/22/22 21/21/21
f 24/24/24 23/23/23 21/21/21
f 27/27/27 26/26/26 25/25/25
f 28/28/28 27/27/27 25/25/25
f 30/30/30 29/29/29 26/26/26
f 31/31/31 30/30/30 26/26/26
f 30/30/30 33/33/33 32/32/32
f 33/33/33 34/34/34 32/32/32
f 37/37/37 36/36/36 35/35/35
f 38/38/38 37/37/37 35/35/35
f 41/41/41 40/40/40 39/39/39
f 44/44/44 43/43/43 42/42/42
f 47/47/47 46/46/46 45/45/45
f 48/48/48 46/46/46 47/47/47
f 51/51/51 50/50/50 49/49/49
f 52/52/52 50/50/50 51/51/51
f 55/55/55 54/54/54 53/53/53
f 58/58/58 57/57/57 56/56/56
f 61/61/61 60/60/60 59/59/59
f 64/64/64 63/63/63 62/62/62
f 65/65/65 64/64/64 62/62/62
f 68/68/68 67/67/67 66/66/66
f 69/69/69 68/68/68 66/66/66
f 72/72/72 71/71/71 70/70/70
f 73/73/73 72/72/72 70/70/70
f 76/76/76 75/75/75 74/74/74
f 77/77/77 76/76/76 74/74/74
f 80/80/80 79/79/79 78/78/78
f 78/78/78 81/81/81 80/80/80
f 78/78/78 82/82/82 81/81/81
f 85/85/85 84/84/84 83/83/83
f 86/86/86 85/85/85 83/83/83
f 88/88/88 87/87/87 83/83/83
f 91/91/91 90/90/90 89/89/89
f 92/92/92 91/91/91 89/89/89
f 93/93/93 91/91/91 92/92/92
f 96/96/96 95/95/95 94/94/94
f 97/97/97 96/96/96 94/94/94
f 100/100/100 99/99/99 98/98/98
f 101/101/101 100/100/100 98/98/98
f 104/104/104 103/103/103 102/102/102
f 105/105/105 104/104/104 102/102/102
f 108/108/108 107/107/107 106/106/106
f 111/111/111 110/110/110 109/109/109
f 112/112/112 111/111/111 109/109/109
f 115/115/115 114/114/114 113/113/113
f 113/113/113 116/116/116 115/115/115
f 116/116/116 117/117/117 115/115/115
f 120/120/120 119/119/119 118/118/118
f 121/121/121 120/120/120 118/118/118
f 120/120/120 122/122/122 119/119/119
f 122/122/122 123/123/123 119/119/119
f 126/126/126 125/125/125 124/124/124
f 127/127/127 126/126/126 124/124/124
f 130/130/130 129/129/129 128/128/128
f 131/131/131 130/130/130 128/128/128
f 130/130/130 132/132/132 129/129/129
f 132/132/132 133/133/133 129/129/129
f 136/136/136 135/135/135 134/134/134
f 137/137/137 136/136/136 134/134/134
f 140/140/140 139/139/139 138/138/138
f 141/141/141 140/140/140 138/138/138
f 144/144/144 143/143/143 142/142/142
f 145/145/145 144/144/144 142/142/142
f 148/148/148 147/147/147 146/146/146
f 149/149/149 148/148/148 146/146/146
f 148/148/148 150/150/150 147/147/147
f 150/150/150 151/151/151 147/147/147
f 154/154/154 153/153/153 152/152/152
f 155/155/155 154/154/154 152/152/152
f 158/158/158 157/157/157 156/156/156
f 159/159/159 158/158/158 156/156/156
f 156/156/156 157/157/157 160/160/160
f 157/157/157 161/161/161 160/160/160
f 164/164/164 163/163/163 162/162/162
f 165/165/165 164/164/164 162/162/162
f 168/168/168 167/167/167 166/166/166
f 169/169/169 168/168/168 166/166/166
f 172/172/172 171/171/171 170/170/170
f 173/173/173 172/172/172 170/170/170
f 176/176/176 175/175/175 174/174/174
f 177/177/177 176/176/176 174/174/174
f 180/180/180 179/179/179 178/178/178
f 181/181/181 180/180/180 178/178/178
