g exclamationMark01
v 0.03542873 0.5262839 -0.2330095
v 0.3313871 0.5288897 -0.2281271
v 0.3281184 0.6787152 -0.26109
v 0.03683146 0.67748 -0.2747858
v -0.2615702 0.5312834 -0.2288905
v 0.03429898 0.238724 -0.1627418
v 0.3320797 0.2370808 -0.160394
v -0.2612467 0.2391979 -0.162811
v -0.2628538 0.6781657 -0.2700711
v 0.3916789 2.1073 -0.566119
v 0.4079922 2.335274 -0.6245462
v 0.0338678 2.338768 -0.6187566
v 0.03712412 2.097783 -0.5759357
v 0.3840649 1.875494 -0.5183895
v -0.3219915 2.111107 -0.5654597
v 0.03565332 1.874979 -0.5234117
v 0.3690036 1.65104 -0.4687139
v -0.3152042 1.872878 -0.5235317
v 0.03364107 1.653907 -0.4695415
v 0.3632773 1.417371 -0.4214774
v -0.3020467 1.647833 -0.4730699
v 0.03628572 1.41794 -0.4272499
v 0.3517624 1.189416 -0.3727286
v -0.2874672 1.425732 -0.4207037
v 0.03576514 1.192097 -0.3770885
v 0.3367549 0.9649096 -0.3230671
v -0.2796654 1.189602 -0.3774166
v 0.03579625 0.9644887 -0.3282988
v 0.3226182 0.889113 -0.3021891
v -0.263721 0.9703252 -0.323222
v 0.03718063 0.8716381 -0.2991135
v -0.259385 0.88068 -0.3006406
v -0.3353807 2.338368 -0.6207811
v 0.0371693 0.6345251 0.2477794
v 0.3368778 0.7785446 0.1996331
v 0.3315342 0.6264952 0.2386148
v 0.03312859 0.7669407 0.2051388
v -0.2607186 0.6222494 0.2381089
v 0.03589448 0.3321399 0.3124406
v 0.3253195 0.3302302 0.2992713
v -0.2618528 0.3314346 0.3076518
v -0.2617362 0.7728321 0.2040786
v 0.3872919 2.197445 -0.101968
v 0.03640779 2.439094 -0.1535412
v 0.4001368 2.425978 -0.1515897
v 0.03470608 2.204385 -0.08373617
v 0.3879853 1.982102 -0.04856635
v -0.323309 2.20049 -0.09940313
v 0.03394839 1.973636 -0.05007244
v 0.3666899 1.74563 -0.003040548
v -0.3166015 1.983224 -0.04243923
v 0.03303167 1.743196 -0.003484335
v 0.3611774 1.524324 0.04813825
v -0.3043138 1.755091 0.005934078
v 0.03458747 1.534574 0.0736222
v 0.3522808 1.30218 0.1249067
v -0.2923036 1.527499 0.05473495
v 0.0358549 1.29721 0.1012688
v 0.3345333 1.066703 0.1449016
v -0.2751519 1.289896 0.09562126
v 0.03438314 1.074193 0.1756372
v 0.3234245 0.9745852 0.1616154
v -0.2625512 1.061154 0.1435135
v 0.03671822 0.9767807 0.1775514
v -0.2602462 0.9760502 0.1734138
v -0.3368377 2.436224 -0.1529892
v 0.3315342 0.6264952 0.2386148
v 0.3368778 0.7785446 0.1996331
v 0.3455984 0.5778229 0.005867545
v 0.3466466 0.728211 -0.03266179
v 0.3253195 0.3302302 0.2992713
v 0.3427553 0.2829993 0.06620064
v 0.03589448 0.3321399 0.3124406
v 0.3253195 0.3302302 0.2992713
v 0.03511199 0.2862546 0.07903382
v 0.3427553 0.2829993 0.06620064
v -0.2618528 0.3314346 0.3076518
v -0.2757023 0.2856684 0.07421662
v -0.2612467 0.2391979 -0.162811
v 0.03429898 0.238724 -0.1627418
v 0.3320797 0.2370808 -0.160394
v 0.3466466 0.728211 -0.03266179
v 0.3368778 0.7785446 0.1996331
v 0.0349259 0.7233381 -0.02877365
v 0.03312859 0.7669407 0.2051388
v -0.2617362 0.7728321 0.2040786
v 0.0349259 0.7233381 -0.02877365
v -0.276471 0.7262627 -0.02917043
v 0.3281184 0.6787152 -0.26109
v 0.03683146 0.67748 -0.2747858
v -0.2628538 0.6781657 -0.2700711
v -0.2752753 0.5767664 0.004609186
v -0.2607186 0.6222494 0.2381089
v -0.2757023 0.2856684 0.07421662
v -0.2618528 0.3314346 0.3076518
v -0.276471 0.7262627 -0.02917043
v -0.2617362 0.7728321 0.2040786
v 0.404399 2.152213 -0.3348654
v 0.3872919 2.197445 -0.101968
v 0.4195212 2.381293 -0.3845903
v 0.4001368 2.425978 -0.1515897
v 0.3879853 1.982102 -0.04856635
v 0.4008186 1.929657 -0.2796916
v 0.404399 2.152213 -0.3348654
v 0.3666899 1.74563 -0.003040548
v 0.4008186 1.929657 -0.2796916
v 0.3611774 1.524324 0.04813825
v 0.3818431 1.698415 -0.2354846
v 0.3759728 1.471696 -0.1829438
v 0.3653757 1.249802 -0.1062436
v 0.3522808 1.30218 0.1249067
v 0.3345333 1.066703 0.1449016
v 0.3653757 1.249802 -0.1062436
v 0.348281 1.016311 -0.08676188
v 0.3234245 0.9745852 0.1616154
v 0.348281 1.016311 -0.08676188
v 0.3351379 0.9315735 -0.07178245
v 0.3818431 1.698415 -0.2354846
v 0.4008186 1.929657 -0.2796916
v 0.4195212 2.381293 -0.3845903
v 0.4001368 2.425978 -0.1515897
v 0.03519258 2.389112 -0.3853077
v 0.03640779 2.439094 -0.1535412
v -0.3368377 2.436224 -0.1529892
v -0.351629 2.387667 -0.3851117
v 0.4079922 2.335274 -0.6245462
v 0.0338678 2.338768 -0.6187566
v -0.3353807 2.338368 -0.6207811
v -0.2721397 0.9292662 -0.05913446
v -0.2602462 0.9760502 0.1734138
v 0.03706845 0.9257178 -0.05394266
v 0.03671822 0.9767807 0.1775514
v 0.3234245 0.9745852 0.1616154
v 0.3351379 0.9315735 -0.07178245
v -0.259385 0.88068 -0.3006406
v 0.03718063 0.8716381 -0.2991135
v 0.03706845 0.9257178 -0.05394266
v 0.3226182 0.889113 -0.3021891
v -0.2755896 1.015833 -0.08937277
v -0.2625512 1.061154 0.1435135
v -0.2721397 0.9292662 -0.05913446
v -0.2602462 0.9760502 0.1734138
v -0.2904165 1.240716 -0.136339
v -0.2751519 1.289896 0.09562126
v -0.3035238 1.477872 -0.1771128
v -0.2923036 1.527499 0.05473495
v -0.3035238 1.477872 -0.1771128
v -0.3173544 1.703298 -0.2253681
v -0.3043138 1.755091 0.005934078
v -0.3305987 1.930243 -0.2734282
v -0.3166015 1.983224 -0.04243923
v -0.323309 2.20049 -0.09940313
v -0.3376001 2.155799 -0.3324314
v -0.351629 2.387667 -0.3851117
v -0.3368377 2.436224 -0.1529892
v -0.3376001 2.155799 -0.3324314
v -0.3305987 1.930243 -0.2734282
v -0.3219915 2.111107 -0.5654597
v -0.3152042 1.872878 -0.5235317
v -0.3305987 1.930243 -0.2734282
v -0.3173544 1.703298 -0.2253681
v -0.3020467 1.647833 -0.4730699
v -0.3035238 1.477872 -0.1771128
v -0.2874672 1.425732 -0.4207037
v -0.2904165 1.240716 -0.136339
v -0.2796654 1.189602 -0.3774166
v -0.2755896 1.015833 -0.08937277
v -0.263721 0.9703252 -0.323222
v -0.259385 0.88068 -0.3006406
v -0.2721397 0.9292662 -0.05913446
v -0.3376001 2.155799 -0.3324314
v -0.3353807 2.338368 -0.6207811
v -0.351629 2.387667 -0.3851117
v 0.348281 1.016311 -0.08676188
v 0.3367549 0.9649096 -0.3230671
v 0.3351379 0.9315735 -0.07178245
v 0.3226182 0.889113 -0.3021891
v 0.3517624 1.189416 -0.3727286
v 0.348281 1.016311 -0.08676188
v 0.3653757 1.249802 -0.1062436
v 0.3759728 1.471696 -0.1829438
v 0.3632773 1.417371 -0.4214774
v 0.3690036 1.65104 -0.4687139
v 0.3759728 1.471696 -0.1829438
v 0.3818431 1.698415 -0.2354846
v 0.3840649 1.875494 -0.5183895
v 0.3818431 1.698415 -0.2354846
v 0.4008186 1.929657 -0.2796916
v 0.3916789 2.1073 -0.566119
v 0.4008186 1.929657 -0.2796916
v 0.404399 2.152213 -0.3348654
v 0.404399 2.152213 -0.3348654
v 0.4195212 2.381293 -0.3845903
v 0.4079922 2.335274 -0.6245462
v -0.2615702 0.5312834 -0.2288905
v -0.2752753 0.5767664 0.004609186
v -0.2612467 0.2391979 -0.162811
v -0.2757023 0.2856684 0.07421662
v -0.276471 0.7262627 -0.02917043
v -0.2628538 0.6781657 -0.2700711
v 0.3455984 0.5778229 0.005867545
v 0.3313871 0.5288897 -0.2281271
v 0.3427553 0.2829993 0.06620064
v 0.3320797 0.2370808 -0.160394
v 0.3281184 0.6787152 -0.26109
v 0.3466466 0.728211 -0.03266179
vt 0.5 0.6666667
vt 1 0.6666667
vt 1 1
vt 0.5 1
vt 0 0.6666667
vt 0.5 0
vt 1 0
vt 0 0
vt 0 1
vt 0.9836603 5.333333
vt 1 6
vt 0.5 6
vt 0.5 5.333333
vt 0.9673206 4.666667
vt 0.01634012 5.333333
vt 0.5 4.666667
vt 0.9509808 4
vt 0.03268024 4.666667
vt 0.5 4
vt 0.9346411 3.333333
vt 0.04902036 4
vt 0.5 3.333333
vt 0.9183014 2.666667
vt 0.06536047 3.333333
vt 0.5 2.666667
vt 0.9019617 2
vt 0.08170059 2.666667
vt 0.5 2
vt 0.8958343 1.75
vt 0.09804071 2
vt 0.5 1.75
vt 0.1041683 1.75
vt 0 6
vt 0.5 0.6666667
vt 1 1
vt 1 0.6666667
vt 0.5 1
vt 0 0.6666667
vt 0.5 0
vt 1 0
vt 0 0
vt 0 1
vt 0.9836603 5.333333
vt 0.5 6
vt 1 6
vt 0.5 5.333333
vt 0.9673206 4.666667
vt 0.01634012 5.333333
vt 0.5 4.666667
vt 0.9509808 4
vt 0.03268024 4.666667
vt 0.5 4
vt 0.9346411 3.333333
vt 0.04902036 4
vt 0.5 3.333333
vt 0.9183014 2.666667
vt 0.06536047 3.333333
vt 0.5 2.666667
vt 0.9019617 2
vt 0.08170059 2.666667
vt 0.5 2
vt 0.8958343 1.75
vt 0.09804071 2
vt 0.5 1.75
vt 0.1041683 1.75
vt 0 6
vt 1 0.6666667
vt 1 1
vt 1 0.6666667
vt 1 1
vt 1 0
vt 1 0
vt 0.5 0
vt 1 0
vt 0.5 0
vt 1 0
vt 0 0
vt 0 0
vt 0 0
vt 0.5 0
vt 1 0
vt 1 1
vt 1 1
vt 0.5 1
vt 0.5 1
vt 0 1
vt 0.5 1
vt 0 1
vt 1 1
vt 0.5 1
vt 0 1
vt 0 0.6666667
vt 0 0.6666667
vt 0 0
vt 0 0
vt 0 1
vt 0 1
vt 0.9836603 5.333333
vt 0.9836603 5.333333
vt 1 6
vt 1 6
vt 0.9673206 4.666667
vt 0.9673206 4.666667
vt 0.9836603 5.333333
vt 0.9509808 4
vt 0.9673206 4.666667
vt 0.9346411 3.333333
vt 0.9509808 4
vt 0.9346411 3.333333
vt 0.9183014 2.666667
vt 0.9183014 2.666667
vt 0.9019617 2
vt 0.9183014 2.666667
vt 0.9019617 2
vt 0.8958343 1.75
vt 0.9019617 2
vt 0.8958343 1.75
vt 0.9509808 4
vt 0.9673206 4.666667
vt 1 6
vt 1 6
vt 0.5 6
vt 0.5 6
vt 0 6
vt 0 6
vt 1 6
vt 0.5 6
vt 0 6
vt 0.1041683 1.75
vt 0.1041683 1.75
vt 0.5 1.75
vt 0.5 1.75
vt 0.8958343 1.75
vt 0.8958343 1.75
vt 0.1041683 1.75
vt 0.5 1.75
vt 0.5 1.75
vt 0.8958343 1.75
vt 0.09804071 2
vt 0.09804071 2
vt 0.1041683 1.75
vt 0.1041683 1.75
vt 0.08170059 2.666667
vt 0.08170059 2.666667
vt 0.06536047 3.333333
vt 0.06536047 3.333333
vt 0.06536047 3.333333
vt 0.04902036 4
vt 0.04902036 4
vt 0.03268024 4.666667
vt 0.03268024 4.666667
vt 0.01634012 5.333333
vt 0.01634012 5.333333
vt 0 6
vt 0 6
vt 0.01634012 5.333333
vt 0.03268024 4.666667
vt 0.01634012 5.333333
vt 0.03268024 4.666667
vt 0.03268024 4.666667
vt 0.04902036 4
vt 0.04902036 4
vt 0.06536047 3.333333
vt 0.06536047 3.333333
vt 0.08170059 2.666667
vt 0.08170059 2.666667
vt 0.09804071 2
vt 0.09804071 2
vt 0.1041683 1.75
vt 0.1041683 1.75
vt 0.01634012 5.333333
vt 0 6
vt 0 6
vt 0.9019617 2
vt 0.9019617 2
vt 0.8958343 1.75
vt 0.8958343 1.75
vt 0.9183014 2.666667
vt 0.9019617 2
vt 0.9183014 2.666667
vt 0.9346411 3.333333
vt 0.9346411 3.333333
vt 0.9509808 4
vt 0.9346411 3.333333
vt 0.9509808 4
vt 0.9673206 4.666667
vt 0.9509808 4
vt 0.9673206 4.666667
vt 0.9836603 5.333333
vt 0.9673206 4.666667
vt 0.9836603 5.333333
vt 0.9836603 5.333333
vt 1 6
vt 1 6
vt 0 0.6666667
vt 0 0.6666667
vt 0 0
vt 0 0
vt 0 1
vt 0 1
vt 1 0.6666667
vt 1 0.6666667
vt 1 0
vt 1 0
vt 1 1
vt 1 1
vn 0 0 -1
vn 0 0 -1
vn 0 0 -1
vn 0 0 -1
vn 0 0 -1
vn 0 0 -1
vn 0 0 -1
vn 0 0 -1
vn 0 0 -1
vn 0 0 -1
vn 0 0 -1
vn 0 0 -1
vn 0 0 -1
vn 0 0 -1
vn 0 0 -1
vn 0 0 -1
vn 0 0 -1
vn 0 0 -1
vn 0 0 -1
vn 0 0 -1
vn 0 0 -1
vn 0 0 -1
vn 0 0 -1
vn 0 0 -1
vn 0 0 -1
vn 0 0 -1
vn 0 0 -1
vn 0 0 -1
vn 0 0 -1
vn 0 0 -1
vn 0 0 -1
vn 0 0 -1
vn 0 0 -1
vn 0 0 1
vn 0 0 1
vn 0 0 1
vn 0 0 1
vn 0 0 1
vn 0 0 1
vn 0 0 1
vn 0 0 1
vn 0 0 1
vn 0 0 1
vn 0 0 1
vn 0 0 1
vn 0 0 1
vn 0 0 1
vn 0 0 1
vn 0 0 1
vn 0 0 1
vn 0 0 1
vn 0 0 1
vn 0 0 1
vn 0 0 1
vn 0 0 1
vn 0 0 1
vn 0 0 1
vn 0 0 1
vn 0 0 1
vn 0 0 1
vn 0 0 1
vn 0 0 1
vn 0 0 1
vn 0 0 1
vn 0 0 1
vn 0 0 1
vn 1 0 0
vn 1 0 0
vn 0.9977646 -0.01861002 0.0641835
vn 0.9991429 0.003600996 0.04123734
vn 1 0 0
vn 0.99728 0.005425279 0.07350615
vn 0 -1 0
vn 0 -1 0
vn 0.002302456 -0.9812179 0.1928894
vn -0.002092159 -0.9801071 0.1984586
vn 0 -1 0
vn -0.001132097 -0.9813046 0.1924573
vn 0 -1 0
vn 0 -1 0
vn 0 -1 0
vn -0.01792283 0.9770073 -0.2124513
vn 0 1 0
vn -0.01792283 0.9770073 -0.2124513
vn 0 1 0
vn 0 1 0
vn 0.02029632 0.982892 -0.1830613
vn 0.009459051 0.9804869 -0.1963565
vn 0 1 0
vn 0 1 0
vn 0 1 0
vn -0.998125 0.01561582 0.05918251
vn -1 0 0
vn -0.998125 0.01561582 0.05918251
vn -1 0 0
vn -0.9980741 0.007180568 0.06161703
vn -1 0 0
vn 0.9954506 -0.04782448 0.08240768
vn 0.9991529 -0.04115272 0
vn 0.9954506 -0.04782448 0.08240769
vn 0.9991529 -0.04115272 0
vn 0.9991529 -0.04115243 0
vn 0.9985284 0.01606078 0.05179899
vn 0.9973397 0.002019075 0.07286601
vn 0.9991529 -0.04115213 0
vn 0.9945058 -0.07562523 0.07238027
vn 0.9991529 -0.04115213 0
vn 0.9977468 -0.01047658 0.06626849
vn 0.9977468 -0.01047658 0.06626849
vn 0.9979684 -0.01894614 0.06082915
vn 0.9991529 -0.04115271 0
vn 0.9991529 -0.04115271 0
vn 0.9950567 -0.06671397 0.07356177
vn 0.9950567 -0.06671397 0.07356177
vn 0.9991529 -0.04115242 0
vn 0.9873083 -0.1398204 0.07531613
vn 0.9873083 -0.1398204 0.07531614
vn 0.9946937 -0.06663928 0.07838083
vn 0.9946937 -0.06663928 0.07838083
vn 0.02033276 0.9822105 -0.1866789
vn 0 1 0
vn 0.02033276 0.9822105 -0.1866789
vn 0 1 0
vn 0 1 0
vn -0.003759764 0.9788547 -0.2045226
vn 0 1 0
vn 0 1 0
vn 0 1 0
vn -0.0145709 -0.9801092 0.1979236
vn 0 -1 0
vn -0.0145709 -0.9801092 0.1979236
vn 0 -1 0
vn 0 -1 0
vn 0.03023594 -0.9827189 0.1826172
vn 0 -1 0
vn 0 -1 0
vn 0.0320607 -0.9760203 0.2153053
vn 0 -1 0
vn -0.998044 -0.01896755 0.0595676
vn -0.9991529 -0.04115222 0
vn -0.998044 -0.01896755 0.05956759
vn -0.9991529 -0.04115222 0
vn -0.9964842 -0.03941398 0.07393218
vn -0.9991529 -0.04115363 0
vn -0.9963237 -0.04225275 0.07452356
vn -0.9991529 -0.04115327 0
vn -0.9962289 -0.06135775 0.06134586
vn -0.9971418 -0.03870693 0.06488494
vn -0.9991529 -0.04115368 0
vn -0.9968304 -0.03898721 0.06934696
vn -0.9991529 -0.04115324 0
vn -0.9991529 -0.04115366 0
vn -0.9978527 -0.01425046 0.06392939
vn -0.9965661 -0.04081656 0.07204183
vn -0.9991529 -0.04115324 0
vn -0.9972536 -0.04611556 -0.05795375
vn -0.9972536 -0.04611556 -0.05795375
vn -0.9991529 -0.04115366 0
vn -0.9991529 -0.04115366 0
vn -0.996644 -0.06785887 -0.04578163
vn -0.996644 -0.06785887 -0.04578162
vn -0.9991529 -0.04115324 0
vn -0.9964349 -0.07091658 -0.04569886
vn -0.9991529 -0.04115368 0
vn -0.9965937 -0.06401853 -0.05198887
vn -0.9991529 -0.04115327 0
vn -0.9969879 -0.07183803 -0.02923069
vn -0.9991529 -0.04115363 0
vn -0.9991529 -0.04115222 0
vn -0.9976489 -0.05434359 -0.04175593
vn -0.9959376 -0.07241673 -0.05351667
vn -0.9991529 -0.04115324 0
vn -0.9959376 -0.07241673 -0.05351667
vn 0.9876972 -0.1557232 -0.01430296
vn 0.9991529 -0.04115242 0
vn 0.9876972 -0.1557232 -0.01430296
vn 0.9991529 -0.04115242 0
vn 0.9991529 -0.04115271 0
vn 0.9965539 -0.07577652 -0.03373787
vn 0.9965539 -0.07577653 -0.03373787
vn 0.9974725 -0.0605104 -0.03724404
vn 0.9991529 -0.04115272 0
vn 0.9991529 -0.04115213 0
vn 0.9981931 -0.03684536 -0.04746698
vn 0.9981931 -0.03684536 -0.04746698
vn 0.9991529 -0.04115243 0
vn 0.9946353 -0.09101661 -0.04915837
vn 0.9946353 -0.09101661 -0.04915838
vn 0.9991529 -0.04115241 0
vn 0.9983768 -0.02831254 -0.04941706
vn 0.9983768 -0.02831254 -0.04941706
vn 0.9964029 -0.07452996 -0.04033235
vn 0.9964029 -0.07452998 -0.04033234
vn 0.9991529 -0.04115272 0
vn -1 0 0
vn -0.9983406 -0.01375614 -0.05591699
vn -1 0 0
vn -0.9982134 -0.01250657 -0.05842588
vn -0.9982995 -0.0203297 -0.05463411
vn -1 0 0
vn 0.9981957 -0.021128 -0.05620552
vn 1 0 0
vn 0.9981957 -0.02112799 -0.05620551
vn 1 0 0
vn 1 0 0
vn 0.9968259 -0.02620835 -0.07517561
g exclamationMark01_0
f 3/3/3 2/2/2 1/1/1
f 1/1/1 4/4/4 3/3/3
f 4/4/4 1/1/1 5/5/5
f 6/6/6 1/1/1 2/2/2
f 2/2/2 7/7/7 6/6/6
f 1/1/1 6/6/6 8/8/8
f 8/8/8 5/5/5 1/1/1
f 5/5/5 9/9/9 4/4/4
f 12/12/12 11/11/11 10/10/10
f 10/10/10 13/13/13 12/12/12
f 13/13/13 10/10/10 14/14/14
f 12/12/12 13/13/13 15/15/15
f 14/14/14 16/16/16 13/13/13
f 16/16/16 14/14/14 17/17/17
f 13/13/13 16/16/16 18/18/18
f 18/18/18 15/15/15 13/13/13
f 17/17/17 19/19/19 16/16/16
f 19/19/19 17/17/17 20/20/20
f 16/16/16 19/19/19 21/21/21
f 21/21/21 18/18/18 16/16/16
f 20/20/20 22/22/22 19/19/19
f 22/22/22 20/20/20 23/23/23
f 19/19/19 22/22/22 24/24/24
f 24/24/24 21/21/21 19/19/19
f 23/23/23 25/25/25 22/22/22
f 25/25/25 23/23/23 26/26/26
f 22/22/22 25/25/25 27/27/27
f 27/27/27 24/24/24 22/22/22
f 26/26/26 28/28/28 25/25/25
f 28/28/28 26/26/26 29/29/29
f 25/25/25 28/28/28 30/30/30
f 30/30/30 27/27/27 25/25/25
f 29/29/29 31/31/31 28/28/28
f 28/28/28 31/31/31 32/32/32
f 32/32/32 30/30/30 28/28/28
f 15/15/15 33/33/33 12/12/12
f 36/36/36 35/35/35 34/34/34
f 37/37/37 34/34/34 35/35/35
f 34/34/34 37/37/37 38/38/38
f 34/34/34 39/39/39 36/36/36
f 40/40/40 36/36/36 39/39/39
f 39/39/39 34/34/34 41/41/41
f 38/38/38 41/41/41 34/34/34
f 42/42/42 38/38/38 37/37/37
f 45/45/45 44/44/44 43/43/43
f 46/46/46 43/43/43 44/44/44
f 43/43/43 46/46/46 47/47/47
f 46/46/46 44/44/44 48/48/48
f 49/49/49 47/47/47 46/46/46
f 47/47/47 49/49/49 50/50/50
f 49/49/49 46/46/46 51/51/51
f 48/48/48 51/51/51 46/46/46
f 52/52/52 50/50/50 49/49/49
f 50/50/50 52/52/52 53/53/53
f 52/52/52 49/49/49 54/54/54
f 51/51/51 54/54/54 49/49/49
f 55/55/55 53/53/53 52/52/52
f 53/53/53 55/55/55 56/56/56
f 55/55/55 52/52/52 57/57/57
f 54/54/54 57/57/57 52/52/52
f 58/58/58 56/56/56 55/55/55
f 56/56/56 58/58/58 59/59/59
f 58/58/58 55/55/55 60/60/60
f 57/57/57 60/60/60 55/55/55
f 61/61/61 59/59/59 58/58/58
f 59/59/59 61/61/61 62/62/62
f 61/61/61 58/58/58 63/63/63
f 60/60/60 63/63/63 58/58/58
f 64/64/64 62/62/62 61/61/61
f 64/64/64 61/61/61 65/65/65
f 63/63/63 65/65/65 61/61/61
f 66/66/66 48/48/48 44/44/44
f 69/69/69 68/68/68 67/67/67
f 69/69/69 70/70/70 68/68/68
f 69/69/69 67/67/67 71/71/71
f 69/69/69 71/71/71 72/72/72
f 75/75/75 74/74/74 73/73/73
f 75/75/75 76/76/76 74/74/74
f 75/75/75 73/73/73 77/77/77
f 75/75/75 77/77/77 78/78/78
f 79/79/79 75/75/75 78/78/78
f 79/79/79 80/80/80 75/75/75
f 75/75/75 81/81/81 76/76/76
f 75/75/75 80/80/80 81/81/81
f 84/84/84 83/83/83 82/82/82
f 84/84/84 85/85/85 83/83/83
f 87/87/87 86/86/86 85/85/85
f 87/87/87 88/88/88 86/86/86
f 89/89/89 87/87/87 82/82/82
f 89/89/89 90/90/90 87/87/87
f 87/87/87 91/91/91 88/88/88
f 87/87/87 90/90/90 91/91/91
f 94/94/94 93/93/93 92/92/92
f 94/94/94 95/95/95 93/93/93
f 96/96/96 92/92/92 93/93/93
f 96/96/96 93/93/93 97/97/97
f 100/100/100 99/99/99 98/98/98
f 100/100/100 101/101/101 99/99/99
f 103/103/103 99/99/99 102/102/102
f 103/103/103 104/104/104 99/99/99
f 106/106/106 102/102/102 105/105/105
f 108/108/108 105/105/105 107/107/107
f 108/108/108 107/107/107 109/109/109
f 110/110/110 109/109/109 107/107/107
f 110/110/110 107/107/107 111/111/111
f 113/113/113 111/111/111 112/112/112
f 113/113/113 112/112/112 114/114/114
f 116/116/116 112/112/112 115/115/115
f 116/116/116 115/115/115 117/117/117
f 119/119/119 105/105/105 118/118/118
f 122/122/122 121/121/121 120/120/120
f 122/122/122 123/123/123 121/121/121
f 122/122/122 124/124/124 123/123/123
f 122/122/122 125/125/125 124/124/124
f 126/126/126 122/122/122 120/120/120
f 126/126/126 127/127/127 122/122/122
f 122/122/122 128/128/128 125/125/125
f 122/122/122 127/127/127 128/128/128
f 131/131/131 130/130/130 129/129/129
f 131/131/131 132/132/132 130/130/130
f 131/131/131 133/133/133 132/132/132
f 131/131/131 134/134/134 133/133/133
f 135/135/135 131/131/131 129/129/129
f 135/135/135 136/136/136 131/131/131
f 136/136/136 134/134/134 137/137/137
f 136/136/136 138/138/138 134/134/134
f 141/141/141 140/140/140 139/139/139
f 141/141/141 142/142/142 140/140/140
f 143/143/143 139/139/139 140/140/140
f 143/143/143 140/140/140 144/144/144
f 145/145/145 143/143/143 144/144/144
f 147/147/147 144/144/144 146/146/146
f 148/148/148 145/145/145 146/146/146
f 148/148/148 146/146/146 149/149/149
f 150/150/150 148/148/148 149/149/149
f 150/150/150 149/149/149 151/151/151
f 150/150/150 151/151/151 152/152/152
f 150/150/150 152/152/152 153/153/153
f 154/154/154 153/153/153 152/152/152
f 154/154/154 152/152/152 155/155/155
f 158/158/158 157/157/157 156/156/156
f 158/158/158 159/159/159 157/157/157
f 159/159/159 161/161/161 160/160/160
f 159/159/159 162/162/162 161/161/161
f 162/162/162 163/163/163 161/161/161
f 162/162/162 164/164/164 163/163/163
f 164/164/164 165/165/165 163/163/163
f 164/164/164 166/166/166 165/165/165
f 166/166/166 167/167/167 165/165/165
f 166/166/166 168/168/168 167/167/167
f 167/167/167 168/168/168 169/169/169
f 167/167/167 169/169/169 170/170/170
f 172/172/172 158/158/158 171/171/171
f 172/172/172 171/171/171 173/173/173
f 176/176/176 175/175/175 174/174/174
f 176/176/176 177/177/177 175/175/175
f 179/179/179 175/175/175 178/178/178
f 179/179/179 178/178/178 180/180/180
f 178/178/178 181/181/181 180/180/180
f 178/178/178 182/182/182 181/181/181
f 184/184/184 182/182/182 183/183/183
f 184/184/184 183/183/183 185/185/185
f 187/187/187 183/183/183 186/186/186
f 187/187/187 186/186/186 188/188/188
f 190/190/190 186/186/186 189/189/189
f 190/190/190 189/189/189 191/191/191
f 189/189/189 193/193/193 192/192/192
f 189/189/189 194/194/194 193/193/193
f 197/197/197 196/196/196 195/195/195
f 197/197/197 198/198/198 196/196/196
f 199/199/199 195/195/195 196/196/196
f 199/199/199 200/200/200 195/195/195
f 203/203/203 202/202/202 201/201/201
f 203/203/203 204/204/204 202/202/202
f 201/201/201 202/202/202 205/205/205
f 201/201/201 205/205/205 206/206/206
