g eyes
v -0.05665747 0.07795969 0.0600518
v -0.0347423 0.06446086 0.07752855
v -0.05665747 0.06446088 0.08808238
v -0.02932969 0.06446086 0.05381443
v -0.04449549 0.06446088 0.03479711
v -0.06881949 0.0644609 0.03479717
v -0.08398525 0.06446088 0.05381443
v -0.07857265 0.0644609 0.07752855
v -0.05665747 0.06446088 0.08808238
v -0.02932973 0.03412931 0.08184496
v -0.05665751 0.03412935 0.09500535
v -0.0347423 0.06446086 0.07752855
v -0.0347423 0.06446086 0.07752855
v -0.02258033 0.03412931 0.05227391
v -0.02932973 0.03412931 0.08184496
v -0.02932969 0.06446086 0.05381443
v -0.04149176 0.03412931 0.02855974
v -0.04449549 0.06446088 0.03479711
v -0.04449549 0.06446088 0.03479711
v -0.07182329 0.03412935 0.02855974
v -0.04149176 0.03412931 0.02855974
v -0.06881949 0.0644609 0.03479717
v -0.06881949 0.0644609 0.03479717
v -0.09073469 0.03412935 0.05227391
v -0.07182329 0.03412935 0.02855974
v -0.08398525 0.06446088 0.05381443
v -0.08398529 0.03412935 0.08184496
v -0.07857265 0.0644609 0.07752855
v -0.07857265 0.0644609 0.07752855
v -0.05665751 0.03412935 0.09500535
v -0.08398529 0.03412935 0.08184496
v -0.05665747 0.06446088 0.08808238
v -0.05665751 0.006254819 0.0600518
v -0.05665751 0.03412935 0.09500535
v -0.02932973 0.03412931 0.08184496
v -0.08398529 0.03412935 0.08184496
v -0.02932973 0.03412931 0.08184496
v -0.02258033 0.03412931 0.05227391
v -0.04149176 0.03412931 0.02855974
v -0.04149176 0.03412931 0.02855974
v -0.07182329 0.03412935 0.02855974
v -0.07182329 0.03412935 0.02855974
v -0.09073469 0.03412935 0.05227391
v -0.08398529 0.03412935 0.08184496
v 0.0564523 0.07795969 0.0600518
v 0.0564523 0.06446088 0.08808238
v 0.03453713 0.06446086 0.07752855
v 0.02912452 0.06446086 0.05381443
v 0.04429032 0.06446088 0.03479711
v 0.06861432 0.0644609 0.03479717
v 0.08378008 0.0644609 0.05381443
v 0.07836747 0.0644609 0.07752855
v 0.0564523 0.06446088 0.08808238
v 0.02912457 0.03412931 0.08184496
v 0.03453713 0.06446086 0.07752855
v 0.05645234 0.03412935 0.09500535
v 0.03453713 0.06446086 0.07752855
v 0.02237517 0.03412931 0.05227391
v 0.02912452 0.06446086 0.05381443
v 0.02912457 0.03412931 0.08184496
v 0.0412866 0.03412931 0.02855974
v 0.04429032 0.06446088 0.03479711
v 0.04429032 0.06446088 0.03479711
v 0.07161812 0.03412937 0.02855974
v 0.06861432 0.0644609 0.03479717
v 0.0412866 0.03412931 0.02855974
v 0.06861432 0.0644609 0.03479717
v 0.09052952 0.03412937 0.05227391
v 0.08378008 0.0644609 0.05381443
v 0.07161812 0.03412937 0.02855974
v 0.08378012 0.03412937 0.08184496
v 0.07836747 0.0644609 0.07752855
v 0.07836747 0.0644609 0.07752855
v 0.05645234 0.03412935 0.09500535
v 0.0564523 0.06446088 0.08808238
v 0.08378012 0.03412937 0.08184496
v 0.05645235 0.006254812 0.0600518
v 0.02912457 0.03412931 0.08184496
v 0.05645234 0.03412935 0.09500535
v 0.08378012 0.03412937 0.08184496
v 0.02237517 0.03412931 0.05227391
v 0.02912457 0.03412931 0.08184496
v 0.0412866 0.03412931 0.02855974
v 0.07161812 0.03412937 0.02855974
v 0.0412866 0.03412931 0.02855974
v 0.09052952 0.03412937 0.05227391
v 0.07161812 0.03412937 0.02855974
v 0.08378012 0.03412937 0.08184496
vt 0.5000008 0.4739784
vt 0.8212316 0.736739
vt 0.5000008 0.8954145
vt 0.9005692 0.3802004
vt 0.6782702 0.0942775
vt 0.321731 0.09427834
vt 0.09943235 0.3802004
vt 0.1787699 0.736739
vt 0.5000008 0.8954145
vt 0.9005685 0.8016356
vt 0.5 0.9995004
vt 0.8212316 0.736739
vt 0.8212316 0.736739
vt 0.9995005 0.3570389
vt 0.9005685 0.8016356
vt 0.9005692 0.3802004
vt 0.7222984 0.0004995167
vt 0.6782702 0.0942775
vt 0.6782702 0.0942775
vt 0.2777013 0.0004995167
vt 0.7222984 0.0004995167
vt 0.321731 0.09427834
vt 0.321731 0.09427834
vt 0.0004996061 0.3570389
vt 0.2777013 0.0004995167
vt 0.09943235 0.3802004
vt 0.09943163 0.8016356
vt 0.1787699 0.736739
vt 0.1787699 0.736739
vt 0.5 0.9995004
vt 0.09943163 0.8016356
vt 0.5000008 0.8954145
vt 0.4999999 0.4739785
vt 0.5 0.9995004
vt 0.9005685 0.8016356
vt 0.09943163 0.8016356
vt 0.9005685 0.8016356
vt 0.9995005 0.3570389
vt 0.7222984 0.0004995167
vt 0.7222984 0.0004995167
vt 0.2777013 0.0004995167
vt 0.2777013 0.0004995167
vt 0.0004996061 0.3570389
vt 0.09943163 0.8016356
vt 0.4999996 0.4739785
vt 0.4999996 0.8954146
vt 0.1787687 0.736739
vt 0.0994311 0.3802004
vt 0.3217301 0.09427744
vt 0.6782694 0.09427828
vt 0.900568 0.3802004
vt 0.8212304 0.736739
vt 0.4999996 0.8954146
vt 0.0994316 0.8016357
vt 0.1787687 0.736739
vt 0.5000001 0.9995005
vt 0.1787687 0.736739
vt 0.0004995167 0.3570389
vt 0.0994311 0.3802004
vt 0.0994316 0.8016357
vt 0.2777017 0.0004994571
vt 0.3217301 0.09427744
vt 0.3217301 0.09427744
vt 0.7222989 0.0004994571
vt 0.6782694 0.09427828
vt 0.2777017 0.0004994571
vt 0.6782694 0.09427828
vt 0.9995006 0.3570389
vt 0.900568 0.3802004
vt 0.7222989 0.0004994571
vt 0.9005685 0.8016357
vt 0.8212304 0.736739
vt 0.8212304 0.736739
vt 0.5000001 0.9995005
vt 0.4999996 0.8954146
vt 0.9005685 0.8016357
vt 0.5000001 0.4739785
vt 0.0994316 0.8016357
vt 0.5000001 0.9995005
vt 0.9005685 0.8016357
vt 0.0004995167 0.3570389
vt 0.0994316 0.8016357
vt 0.2777017 0.0004994571
vt 0.7222989 0.0004994571
vt 0.2777017 0.0004994571
vt 0.9995006 0.3570389
vt 0.7222989 0.0004994571
vt 0.9005685 0.8016357
vn 0 1 0
vn 0.6421375 0.5704619 0.5120866
vn 0 0.5704626 0.8213236
vn 0.800732 0.5704618 -0.1827613
vn 0.356359 0.5704624 -0.7399871
vn -0.3563591 0.5704634 -0.7399864
vn -0.8007309 0.5704631 -0.1827613
vn -0.6421363 0.5704634 0.5120865
vn 0 0.5704626 0.8213236
vn 0.7477894 -0.2918689 0.5963419
vn 0 -0.2918677 0.9564586
vn 0.6421375 0.5704619 0.5120866
vn 0.6421375 0.5704619 0.5120866
vn 0.932478 -0.2918689 -0.2128321
vn 0.7477894 -0.2918689 0.5963419
vn 0.800732 0.5704618 -0.1827613
vn 0.4149912 -0.2918687 -0.8617396
vn 0.356359 0.5704624 -0.7399871
vn 0.356359 0.5704624 -0.7399871
vn -0.4149925 -0.2918674 -0.8617393
vn 0.4149912 -0.2918687 -0.8617396
vn -0.3563591 0.5704634 -0.7399864
vn -0.3563591 0.5704634 -0.7399864
vn -0.9324785 -0.2918674 -0.2128319
vn -0.4149925 -0.2918674 -0.8617393
vn -0.8007309 0.5704631 -0.1827613
vn -0.7477899 -0.2918676 0.5963418
vn -0.6421363 0.5704634 0.5120865
vn -0.6421363 0.5704634 0.5120865
vn 0 -0.2918677 0.9564586
vn -0.7477899 -0.2918676 0.5963418
vn 0 0.5704626 0.8213236
vn 0 -1 0
vn 0 -0.2918677 0.9564586
vn 0.7477894 -0.2918689 0.5963419
vn -0.7477899 -0.2918676 0.5963418
vn 0.7477894 -0.2918689 0.5963419
vn 0.932478 -0.2918689 -0.2128321
vn 0.4149912 -0.2918687 -0.8617396
vn 0.4149912 -0.2918687 -0.8617396
vn -0.4149925 -0.2918674 -0.8617393
vn -0.4149925 -0.2918674 -0.8617393
vn -0.9324785 -0.2918674 -0.2128319
vn -0.7477899 -0.2918676 0.5963418
vn 0 1 0
vn 0 0.5704626 0.8213236
vn -0.6421375 0.5704619 0.5120866
vn -0.800732 0.5704618 -0.1827613
vn -0.3563591 0.5704623 -0.7399871
vn 0.3563591 0.5704634 -0.7399864
vn 0.8007308 0.5704634 -0.1827612
vn 0.6421363 0.5704633 0.5120865
vn 0 0.5704626 0.8213236
vn -0.7477893 -0.2918689 0.5963419
vn -0.6421375 0.5704619 0.5120866
vn 0 -0.2918677 0.9564586
vn -0.6421375 0.5704619 0.5120866
vn -0.932478 -0.2918689 -0.2128321
vn -0.800732 0.5704618 -0.1827613
vn -0.7477893 -0.2918689 0.5963419
vn -0.4149912 -0.2918687 -0.8617396
vn -0.3563591 0.5704623 -0.7399871
vn -0.3563591 0.5704623 -0.7399871
vn 0.4149926 -0.2918672 -0.8617393
vn 0.3563591 0.5704634 -0.7399864
vn -0.4149912 -0.2918687 -0.8617396
vn 0.3563591 0.5704634 -0.7399864
vn 0.9324785 -0.2918671 -0.2128319
vn 0.8007308 0.5704634 -0.1827612
vn 0.4149926 -0.2918672 -0.8617393
vn 0.74779 -0.2918672 0.5963418
vn 0.6421363 0.5704633 0.5120865
vn 0.6421363 0.5704633 0.5120865
vn 0 -0.2918677 0.9564586
vn 0 0.5704626 0.8213236
vn 0.74779 -0.2918672 0.5963418
vn 0 -1 0
vn -0.7477893 -0.2918689 0.5963419
vn 0 -0.2918677 0.9564586
vn 0.74779 -0.2918672 0.5963418
vn -0.932478 -0.2918689 -0.2128321
vn -0.7477893 -0.2918689 0.5963419
vn -0.4149912 -0.2918687 -0.8617396
vn 0.4149926 -0.2918672 -0.8617393
vn -0.4149912 -0.2918687 -0.8617396
vn 0.9324785 -0.2918671 -0.2128319
vn 0.4149926 -0.2918672 -0.8617393
vn 0.74779 -0.2918672 0.5963418
g eyes_0
f 3/3/3 2/2/2 1/1/1
f 2/2/2 4/4/4 1/1/1
f 4/4/4 5/5/5 1/1/1
f 5/5/5 6/6/6 1/1/1
f 6/6/6 7/7/7 1/1/1
f 7/7/7 8/8/8 1/1/1
f 8/8/8 3/3/3 1/1/1
f 11/11/11 10/10/10 9/9/9
f 10/10/10 12/12/12 9/9/9
f 15/15/15 14/14/14 13/13/13
f 14/14/14 16/16/16 13/13/13
f 14/14/14 17/17/17 16/16/16
f 17/17/17 18/18/18 16/16/16
f 21/21/21 20/20/20 19/19/19
f 20/20/20 22/22/22 19/19/19
f 25/25/25 24/24/24 23/23/23
f 24/24/24 26/26/26 23/23/23
f 24/24/24 27/27/27 26/26/26
f 27/27/27 28/28/28 26/26/26
f 31/31/31 30/30/30 29/29/29
f 30/30/30 32/32/32 29/29/29
f 35/35/35 34/34/34 33/33/33
f 34/34/34 36/36/36 33/33/33
f 38/38/38 37/37/37 33/33/33
f 39/39/39 38/38/38 33/33/33
f 41/41/41 40/40/40 33/33/33
f 43/43/43 42/42/42 33/33/33
f 44/44/44 43/43/43 33/33/33
f 47/47/47 46/46/46 45/45/45
f 48/48/48 47/47/47 45/45/45
f 49/49/49 48/48/48 45/45/45
f 50/50/50 49/49/49 45/45/45
f 51/51/51 50/50/50 45/45/45
f 52/52/52 51/51/51 45/45/45
f 46/46/46 52/52/52 45/45/45
f 55/55/55 54/54/54 53/53/53
f 54/54/54 56/56/56 53/53/53
f 59/59/59 58/58/58 57/57/57
f 58/58/58 60/60/60 57/57/57
f 61/61/61 58/58/58 59/59/59
f 62/62/62 61/61/61 59/59/59
f 65/65/65 64/64/64 63/63/63
f 64/64/64 66/66/66 63/63/63
f 69/69/69 68/68/68 67/67/67
f 68/68/68 70/70/70 67/67/67
f 71/71/71 68/68/68 69/69/69
f 72/72/72 71/71/71 69/69/69
f 75/75/75 74/74/74 73/73/73
f 74/74/74 76/76/76 73/73/73
f 79/79/79 78/78/78 77/77/77
f 80/80/80 79/79/79 77/77/77
f 82/82/82 81/81/81 77/77/77
f 81/81/81 83/83/83 77/77/77
f 85/85/85 84/84/84 77/77/77
f 87/87/87 86/86/86 77/77/77
f 86/86/86 88/88/88 77/77/77
