g fairyFountainWater2
v -0.1022825 -0.0255693 0.1771493
v 1.250505E-06 -0.02242194 -1.2815E-08
v 0.1022819 -0.0255693 0.1771493
v -0.2045657 -0.0255693 -2.026558E-08
v 1.250505E-06 -0.02242194 -1.2815E-08
v -0.1022825 -0.0255693 0.1771493
v -0.1022825 -0.0255693 -0.1771498
v 1.250505E-06 -0.02242194 -1.2815E-08
v -0.2045657 -0.0255693 -2.026558E-08
v 0.1022819 -0.0255693 -0.1771498
v 1.250505E-06 -0.02242194 -1.2815E-08
v -0.1022825 -0.0255693 -0.1771498
v 0.2045652 -0.0255693 -5.364416E-09
v 1.250505E-06 -0.02242194 -1.2815E-08
v 0.1022819 -0.0255693 -0.1771498
v 0.1022819 -0.0255693 0.1771493
v 1.250505E-06 -0.02242194 -1.2815E-08
v 0.2045652 -0.0255693 -5.364416E-09
v -0.3068466 0.01704396 0.5314802
v -0.2045657 0.00206651 0.3543276
v 0.2045652 0.00206651 0.3543276
v 0.3068466 0.01704396 0.5314803
v -0.4091299 0.02556934 0.7086271
v 0.4091294 0.02556934 0.7086272
v 0.3068466 0.01704396 0.5314803
v 0.2045652 0.00206651 0.3543276
v 0.4091295 0.00206651 9.536745E-09
v 0.6136941 0.01704396 1.698733E-08
v 0.4091294 0.02556934 0.7086272
v 0.8182577 0.02556934 2.443791E-08
v 0.6136941 0.01704396 1.698733E-08
v 0.4091295 0.00206651 9.536745E-09
v 0.2045652 0.00206651 -0.3543281
v 0.3068466 0.01704396 -0.5314807
v 0.8182577 0.02556934 2.443791E-08
v 0.4091295 0.02556934 -0.7086276
v 0.3068466 0.01704396 -0.5314807
v 0.2045652 0.00206651 -0.3543281
v -0.2045657 0.00206651 -0.3543281
v -0.3068466 0.01704396 -0.5314807
v 0.4091295 0.02556934 -0.7086276
v -0.4091299 0.02556934 -0.7086276
v -0.3068466 0.01704396 -0.5314807
v -0.2045657 0.00206651 -0.3543281
v -0.4091299 0.00206651 -2.026558E-08
v -0.6136941 0.01704396 -2.771616E-08
v -0.4091299 0.02556934 -0.7086276
v -0.8182577 0.02556934 -3.516674E-08
v -0.6136941 0.01704396 -2.771616E-08
v -0.4091299 0.00206651 -2.026558E-08
v -0.2045657 0.00206651 0.3543276
v -0.3068466 0.01704396 0.5314802
v -0.8182577 0.02556934 -3.516674E-08
v -0.4091299 0.02556934 0.7086271
v -0.2045657 0.00206651 0.3543276
v -0.1022825 -0.0255693 0.1771493
v 0.1022819 -0.0255693 0.1771493
v 0.2045652 0.00206651 0.3543276
v 0.2045652 0.00206651 0.3543276
v 0.1022819 -0.0255693 0.1771493
v 0.2045652 -0.0255693 -5.364416E-09
v 0.4091295 0.00206651 9.536745E-09
v 0.4091295 0.00206651 9.536745E-09
v 0.2045652 -0.0255693 -5.364416E-09
v 0.1022819 -0.0255693 -0.1771498
v 0.2045652 0.00206651 -0.3543281
v 0.2045652 0.00206651 -0.3543281
v 0.1022819 -0.0255693 -0.1771498
v -0.1022825 -0.0255693 -0.1771498
v -0.2045657 0.00206651 -0.3543281
v -0.2045657 0.00206651 -0.3543281
v -0.1022825 -0.0255693 -0.1771498
v -0.2045657 -0.0255693 -2.026558E-08
v -0.4091299 0.00206651 -2.026558E-08
v -0.4091299 0.00206651 -2.026558E-08
v -0.2045657 -0.0255693 -2.026558E-08
v -0.1022825 -0.0255693 0.1771493
v -0.2045657 0.00206651 0.3543276
vt 0.5612549 0.3774902
vt 0.4999999 0.2549802
vt 0.438745 0.3774902
vt 0.5612549 0.3774902
vt 0.4999999 0.2549802
vt 0.438745 0.3774902
vt 0.5612549 0.3774902
vt 0.4999999 0.2549802
vt 0.438745 0.3774902
vt 0.5612549 0.3774902
vt 0.4999999 0.2549802
vt 0.438745 0.3774902
vt 0.5612549 0.3774902
vt 0.4999999 0.2549802
vt 0.438745 0.3774902
vt 0.5612549 0.3774902
vt 0.4999999 0.2549802
vt 0.438745 0.3774902
vt 0.6837649 0.6225101
vt 0.6225099 0.5000002
vt 0.37749 0.5000002
vt 0.316235 0.6225102
vt 0.7450199 0.74502
vt 0.2549801 0.7450202
vt 0.6837649 0.6225101
vt 0.6225099 0.5000002
vt 0.37749 0.5000002
vt 0.316235 0.6225102
vt 0.7450199 0.74502
vt 0.2549801 0.7450202
vt 0.6837649 0.6225101
vt 0.6225099 0.5000002
vt 0.37749 0.5000002
vt 0.316235 0.6225102
vt 0.7450199 0.74502
vt 0.2549801 0.7450202
vt 0.6837649 0.6225101
vt 0.6225099 0.5000002
vt 0.37749 0.5000002
vt 0.316235 0.6225102
vt 0.7450199 0.74502
vt 0.2549801 0.7450202
vt 0.6837649 0.6225101
vt 0.6225099 0.5000002
vt 0.37749 0.5000002
vt 0.316235 0.6225102
vt 0.7450199 0.74502
vt 0.2549801 0.7450202
vt 0.6837649 0.6225101
vt 0.6225099 0.5000002
vt 0.37749 0.5000002
vt 0.316235 0.6225102
vt 0.7450199 0.74502
vt 0.2549801 0.7450202
vt 0.6225099 0.5000002
vt 0.5612549 0.3774902
vt 0.438745 0.3774902
vt 0.37749 0.5000002
vt 0.6225099 0.5000002
vt 0.5612549 0.3774902
vt 0.438745 0.3774902
vt 0.37749 0.5000002
vt 0.6225099 0.5000002
vt 0.5612549 0.3774902
vt 0.438745 0.3774902
vt 0.37749 0.5000002
vt 0.6225099 0.5000002
vt 0.5612549 0.3774902
vt 0.438745 0.3774902
vt 0.37749 0.5000002
vt 0.6225099 0.5000002
vt 0.5612549 0.3774902
vt 0.438745 0.3774902
vt 0.37749 0.5000002
vt 0.6225099 0.5000002
vt 0.5612549 0.3774902
vt 0.438745 0.3774902
vt 0.37749 0.5000002
vn 0 0.9998422 0.01776382
vn 0 0.9998422 0.01776382
vn 0 0.9998422 0.01776382
vn -0.01538306 0.9998422 0.008882002
vn -0.01538306 0.9998422 0.008882003
vn -0.01538306 0.9998422 0.008882002
vn -0.01538307 0.9998422 -0.008881876
vn -0.01538307 0.9998422 -0.008881875
vn -0.01538307 0.9998422 -0.008881876
vn 0 0.9998422 -0.01776388
vn 0 0.9998422 -0.01776388
vn 0 0.9998422 -0.01776388
vn 0.01538329 0.9998422 -0.008881902
vn 0.01538329 0.9998422 -0.008881902
vn 0.01538329 0.9998422 -0.008881902
vn 0.01538329 0.9998422 0.008882029
vn 0.01538329 0.9998422 0.008882029
vn 0.01538329 0.9998422 0.008882028
vn 0 0.9964451 -0.08424497
vn 0 0.9964451 -0.08424499
vn 0 0.9964451 -0.08424499
vn 0 0.9964451 -0.08424497
vn 0 0.9988439 -0.04807032
vn 0 0.9988439 -0.04807032
vn -0.07295708 0.9964452 -0.042121
vn -0.07295708 0.9964452 -0.042121
vn -0.07295709 0.9964452 -0.042121
vn -0.07295708 0.9964452 -0.042121
vn -0.04162825 0.998844 -0.02403402
vn -0.04162825 0.998844 -0.02403403
vn -0.07295706 0.9964452 0.04212097
vn -0.07295708 0.9964452 0.04212098
vn -0.07295708 0.9964452 0.04212098
vn -0.07295708 0.9964452 0.04212098
vn -0.04162824 0.998844 0.02403402
vn -0.04162824 0.998844 0.02403402
vn 0 0.9964451 0.08424505
vn 0 0.9964451 0.08424504
vn 0 0.9964451 0.08424504
vn 0 0.9964451 0.08424504
vn 0 0.9988439 0.04807036
vn 0 0.9988439 0.04807036
vn 0.07295726 0.9964452 0.04212102
vn 0.07295725 0.9964452 0.04212103
vn 0.07295726 0.9964452 0.04212102
vn 0.07295726 0.9964452 0.04212102
vn 0.04162819 0.998844 0.02403398
vn 0.0416282 0.998844 0.02403398
vn 0.07295724 0.9964452 -0.04212107
vn 0.07295723 0.9964452 -0.04212108
vn 0.07295724 0.9964452 -0.04212107
vn 0.07295723 0.9964452 -0.04212107
vn 0.0416282 0.998844 -0.02403396
vn 0.04162821 0.998844 -0.02403396
vn 0 0.9880531 -0.1541138
vn 0 0.9880531 -0.1541138
vn 0 0.9880531 -0.1541138
vn 0 0.9880531 -0.1541138
vn -0.1334775 0.9880511 -0.07706313
vn -0.1334775 0.9880511 -0.07706314
vn -0.1334775 0.9880511 -0.07706313
vn -0.1334775 0.9880511 -0.07706313
vn -0.1334776 0.9880511 0.07706295
vn -0.1334777 0.9880511 0.07706296
vn -0.1334776 0.9880511 0.07706294
vn -0.1334776 0.9880511 0.07706295
vn 0 0.9880531 0.1541138
vn 0 0.9880531 0.1541138
vn 0 0.9880531 0.1541138
vn 0 0.9880531 0.1541138
vn 0.1334777 0.9880511 0.07706306
vn 0.1334777 0.9880511 0.07706306
vn 0.1334777 0.9880511 0.07706305
vn 0.1334777 0.9880511 0.07706307
vn 0.1334777 0.9880511 -0.07706311
vn 0.1334777 0.9880511 -0.07706311
vn 0.1334776 0.9880511 -0.07706311
vn 0.1334776 0.9880511 -0.07706311
g fairyFountainWater2_0
f 3/3/3 2/2/2 1/1/1
f 6/6/6 5/5/5 4/4/4
f 9/9/9 8/8/8 7/7/7
f 12/12/12 11/11/11 10/10/10
f 15/15/15 14/14/14 13/13/13
f 18/18/18 17/17/17 16/16/16
f 21/21/21 20/20/20 19/19/19
f 22/22/22 21/21/21 19/19/19
f 22/22/22 19/19/19 23/23/23
f 24/24/24 22/22/22 23/23/23
f 27/27/27 26/26/26 25/25/25
f 28/28/28 27/27/27 25/25/25
f 28/28/28 25/25/25 29/29/29
f 30/30/30 28/28/28 29/29/29
f 33/33/33 32/32/32 31/31/31
f 34/34/34 33/33/33 31/31/31
f 34/34/34 31/31/31 35/35/35
f 36/36/36 34/34/34 35/35/35
f 39/39/39 38/38/38 37/37/37
f 40/40/40 39/39/39 37/37/37
f 40/40/40 37/37/37 41/41/41
f 42/42/42 40/40/40 41/41/41
f 45/45/45 44/44/44 43/43/43
f 46/46/46 45/45/45 43/43/43
f 46/46/46 43/43/43 47/47/47
f 48/48/48 46/46/46 47/47/47
f 51/51/51 50/50/50 49/49/49
f 52/52/52 51/51/51 49/49/49
f 52/52/52 49/49/49 53/53/53
f 54/54/54 52/52/52 53/53/53
f 57/57/57 56/56/56 55/55/55
f 58/58/58 57/57/57 55/55/55
f 61/61/61 60/60/60 59/59/59
f 62/62/62 61/61/61 59/59/59
f 65/65/65 64/64/64 63/63/63
f 66/66/66 65/65/65 63/63/63
f 69/69/69 68/68/68 67/67/67
f 70/70/70 69/69/69 67/67/67
f 73/73/73 72/72/72 71/71/71
f 74/74/74 73/73/73 71/71/71
f 77/77/77 76/76/76 75/75/75
f 78/78/78 77/77/77 75/75/75
