g fairyFountainWater1
v -0.0502569 -0.01256353 0.08704299
v 6.165602E-07 -0.01101714 2.162696E-07
v 0.05025661 -0.01256353 0.08704302
v -0.1005142 -0.01256353 2.08819E-07
v 6.165602E-07 -0.01101714 2.162696E-07
v -0.0502569 -0.01256353 0.08704299
v -0.0502569 -0.01256353 -0.08704305
v 6.165602E-07 -0.01101714 2.162696E-07
v -0.1005142 -0.01256353 2.08819E-07
v 0.0502566 -0.01256353 -0.08704305
v 6.165602E-07 -0.01101714 2.162696E-07
v -0.0502569 -0.01256353 -0.08704305
v 0.1005139 -0.01256353 2.237201E-07
v 6.165602E-07 -0.01101714 2.162696E-07
v 0.0502566 -0.01256353 -0.08704305
v 0.05025661 -0.01256353 0.08704302
v 6.165602E-07 -0.01101714 2.162696E-07
v 0.1005139 -0.01256353 2.237201E-07
v -0.1507703 0.008374632 0.2611452
v -0.1005142 0.001015366 0.1741005
v 0.1005139 0.001015366 0.1741006
v 0.1507703 0.008374632 0.2611453
v -0.2010276 0.01256365 0.3481866
v 0.2010273 0.01256365 0.3481867
v 0.1507703 0.008374632 0.2611453
v 0.1005139 0.001015366 0.1741006
v 0.2010274 0.001015366 2.386213E-07
v 0.301541 0.008374632 2.460719E-07
v 0.2010273 0.01256365 0.3481867
v 0.4020542 0.01256365 2.535225E-07
v 0.301541 0.008374632 2.460719E-07
v 0.2010274 0.001015366 2.386213E-07
v 0.1005139 0.001015366 -0.1741006
v 0.1507703 0.008374632 -0.2611453
v 0.4020542 0.01256365 2.535225E-07
v 0.2010274 0.01256365 -0.3481871
v 0.1507703 0.008374632 -0.2611453
v 0.1005139 0.001015366 -0.1741006
v -0.1005142 0.001015366 -0.1741006
v -0.1507703 0.008374632 -0.2611453
v 0.2010274 0.01256365 -0.3481871
v -0.2010276 0.01256365 -0.3481871
v -0.1507703 0.008374632 -0.2611453
v -0.1005142 0.001015366 -0.1741006
v -0.2010276 0.001015366 2.08819E-07
v -0.3015411 0.008374632 2.013684E-07
v -0.2010276 0.01256365 -0.3481871
v -0.4020542 0.01256365 1.939178E-07
v -0.3015411 0.008374632 2.013684E-07
v -0.2010276 0.001015366 2.08819E-07
v -0.1005142 0.001015366 0.1741005
v -0.1507703 0.008374632 0.2611452
v -0.4020542 0.01256365 1.939178E-07
v -0.2010276 0.01256365 0.3481866
v -0.1005142 0.001015366 0.1741005
v -0.0502569 -0.01256353 0.08704299
v 0.05025661 -0.01256353 0.08704302
v 0.1005139 0.001015366 0.1741006
v 0.1005139 0.001015366 0.1741006
v 0.05025661 -0.01256353 0.08704302
v 0.1005139 -0.01256353 2.237201E-07
v 0.2010274 0.001015366 2.386213E-07
v 0.2010274 0.001015366 2.386213E-07
v 0.1005139 -0.01256353 2.237201E-07
v 0.0502566 -0.01256353 -0.08704305
v 0.1005139 0.001015366 -0.1741006
v 0.1005139 0.001015366 -0.1741006
v 0.0502566 -0.01256353 -0.08704305
v -0.0502569 -0.01256353 -0.08704305
v -0.1005142 0.001015366 -0.1741006
v -0.1005142 0.001015366 -0.1741006
v -0.0502569 -0.01256353 -0.08704305
v -0.1005142 -0.01256353 2.08819E-07
v -0.2010276 0.001015366 2.08819E-07
v -0.2010276 0.001015366 2.08819E-07
v -0.1005142 -0.01256353 2.08819E-07
v -0.0502569 -0.01256353 0.08704299
v -0.1005142 0.001015366 0.1741005
vt 0.5612549 0.3774902
vt 0.4999999 0.2549802
vt 0.438745 0.3774902
vt 0.5612549 0.3774902
vt 0.4999999 0.2549802
vt 0.438745 0.3774902
vt 0.5612549 0.3774902
vt 0.4999999 0.2549802
vt 0.438745 0.3774902
vt 0.5612549 0.3774902
vt 0.4999999 0.2549802
vt 0.438745 0.3774902
vt 0.5612549 0.3774902
vt 0.4999999 0.2549802
vt 0.438745 0.3774902
vt 0.5612549 0.3774902
vt 0.4999999 0.2549802
vt 0.438745 0.3774902
vt 0.6837649 0.6225101
vt 0.6225099 0.5000002
vt 0.37749 0.5000002
vt 0.316235 0.6225102
vt 0.7450199 0.74502
vt 0.2549801 0.7450202
vt 0.6837649 0.6225101
vt 0.6225099 0.5000002
vt 0.37749 0.5000002
vt 0.316235 0.6225102
vt 0.7450199 0.74502
vt 0.2549801 0.7450202
vt 0.6837649 0.6225101
vt 0.6225099 0.5000002
vt 0.37749 0.5000002
vt 0.316235 0.6225102
vt 0.7450199 0.74502
vt 0.2549801 0.7450202
vt 0.6837649 0.6225101
vt 0.6225099 0.5000002
vt 0.37749 0.5000002
vt 0.316235 0.6225102
vt 0.7450199 0.74502
vt 0.2549801 0.7450202
vt 0.6837649 0.6225101
vt 0.6225099 0.5000002
vt 0.37749 0.5000002
vt 0.316235 0.6225102
vt 0.7450199 0.74502
vt 0.2549801 0.7450202
vt 0.6837649 0.6225101
vt 0.6225099 0.5000002
vt 0.37749 0.5000002
vt 0.316235 0.6225102
vt 0.7450199 0.74502
vt 0.2549801 0.7450202
vt 0.6225099 0.5000002
vt 0.5612549 0.3774902
vt 0.438745 0.3774902
vt 0.37749 0.5000002
vt 0.6225099 0.5000002
vt 0.5612549 0.3774902
vt 0.438745 0.3774902
vt 0.37749 0.5000002
vt 0.6225099 0.5000002
vt 0.5612549 0.3774902
vt 0.438745 0.3774902
vt 0.37749 0.5000002
vt 0.6225099 0.5000002
vt 0.5612549 0.3774902
vt 0.438745 0.3774902
vt 0.37749 0.5000002
vt 0.6225099 0.5000002
vt 0.5612549 0.3774902
vt 0.438745 0.3774902
vt 0.37749 0.5000002
vt 0.6225099 0.5000002
vt 0.5612549 0.3774902
vt 0.438745 0.3774902
vt 0.37749 0.5000002
vn 0 0.9998423 0.01776231
vn 0 0.9998423 0.01776231
vn 0 0.9998423 0.01776231
vn -0.0153822 0.9998422 0.00888232
vn -0.01538221 0.9998422 0.00888232
vn -0.0153822 0.9998422 0.00888232
vn -0.0153822 0.9998422 -0.008883122
vn -0.0153822 0.9998422 -0.00888312
vn -0.0153822 0.9998422 -0.008883121
vn 0 0.9998423 -0.01776222
vn 0 0.9998423 -0.01776222
vn 0 0.9998423 -0.01776221
vn 0.01538243 0.9998423 -0.008880699
vn 0.01538243 0.9998423 -0.008880699
vn 0.01538243 0.9998423 -0.008880699
vn 0.01538242 0.9998423 0.008880747
vn 0.01538242 0.9998423 0.008880747
vn 0.01538242 0.9998423 0.008880745
vn 0 0.996445 -0.08424558
vn 0 0.996445 -0.08424558
vn 0 0.996445 -0.08424558
vn 0 0.996445 -0.08424559
vn 0 0.9988439 -0.04807002
vn 0 0.9988439 -0.04807002
vn -0.0729574 0.9964452 -0.04212125
vn -0.0729574 0.9964452 -0.04212125
vn -0.07295739 0.9964452 -0.04212125
vn -0.0729574 0.9964452 -0.04212125
vn -0.04162868 0.998844 -0.02403436
vn -0.04162868 0.998844 -0.02403436
vn -0.07295747 0.9964452 0.04212103
vn -0.07295746 0.9964452 0.04212103
vn -0.07295747 0.9964452 0.04212103
vn -0.07295747 0.9964452 0.04212103
vn -0.04162864 0.998844 0.02403392
vn -0.04162864 0.998844 0.02403392
vn 0 0.996445 0.0842456
vn 0 0.996445 0.0842456
vn 0 0.996445 0.0842456
vn 0 0.996445 0.08424559
vn 0 0.9988439 0.04807024
vn 0 0.9988439 0.04807024
vn 0.07295758 0.9964451 0.04212127
vn 0.07295759 0.9964451 0.04212128
vn 0.0729576 0.9964451 0.04212127
vn 0.07295758 0.9964451 0.04212127
vn 0.0416286 0.998844 0.02403426
vn 0.0416286 0.998844 0.02403427
vn 0.07295752 0.9964452 -0.04212116
vn 0.07295753 0.9964452 -0.04212117
vn 0.07295753 0.9964452 -0.04212117
vn 0.07295752 0.9964452 -0.04212116
vn 0.04162866 0.998844 -0.02403399
vn 0.04162867 0.998844 -0.02403399
vn 0 0.9880533 -0.1541123
vn 0 0.9880533 -0.1541123
vn 0 0.9880533 -0.1541123
vn 0 0.9880533 -0.1541123
vn -0.1334767 0.9880512 -0.07706323
vn -0.1334767 0.9880512 -0.07706325
vn -0.1334767 0.9880512 -0.07706324
vn -0.1334767 0.9880512 -0.07706324
vn -0.1334769 0.9880512 0.07706249
vn -0.1334768 0.9880512 0.07706248
vn -0.1334769 0.9880512 0.07706248
vn -0.1334769 0.9880512 0.07706248
vn 0 0.9880534 0.1541118
vn 0 0.9880534 0.1541118
vn 0 0.9880534 0.1541118
vn 0 0.9880534 0.1541118
vn 0.1334769 0.9880512 0.07706308
vn 0.1334769 0.9880512 0.07706308
vn 0.1334769 0.9880512 0.07706309
vn 0.1334769 0.9880512 0.0770631
vn 0.1334768 0.9880512 -0.07706274
vn 0.1334768 0.9880512 -0.07706274
vn 0.1334768 0.9880512 -0.07706274
vn 0.1334768 0.9880512 -0.07706274
g fairyFountainWater1_0
f 3/3/3 2/2/2 1/1/1
f 6/6/6 5/5/5 4/4/4
f 9/9/9 8/8/8 7/7/7
f 12/12/12 11/11/11 10/10/10
f 15/15/15 14/14/14 13/13/13
f 18/18/18 17/17/17 16/16/16
f 21/21/21 20/20/20 19/19/19
f 22/22/22 21/21/21 19/19/19
f 22/22/22 19/19/19 23/23/23
f 24/24/24 22/22/22 23/23/23
f 27/27/27 26/26/26 25/25/25
f 28/28/28 27/27/27 25/25/25
f 28/28/28 25/25/25 29/29/29
f 30/30/30 28/28/28 29/29/29
f 33/33/33 32/32/32 31/31/31
f 34/34/34 33/33/33 31/31/31
f 34/34/34 31/31/31 35/35/35
f 36/36/36 34/34/34 35/35/35
f 39/39/39 38/38/38 37/37/37
f 40/40/40 39/39/39 37/37/37
f 40/40/40 37/37/37 41/41/41
f 42/42/42 40/40/40 41/41/41
f 45/45/45 44/44/44 43/43/43
f 46/46/46 45/45/45 43/43/43
f 46/46/46 43/43/43 47/47/47
f 48/48/48 46/46/46 47/47/47
f 51/51/51 50/50/50 49/49/49
f 52/52/52 51/51/51 49/49/49
f 52/52/52 49/49/49 53/53/53
f 54/54/54 52/52/52 53/53/53
f 57/57/57 56/56/56 55/55/55
f 58/58/58 57/57/57 55/55/55
f 61/61/61 60/60/60 59/59/59
f 62/62/62 61/61/61 59/59/59
f 65/65/65 64/64/64 63/63/63
f 66/66/66 65/65/65 63/63/63
f 69/69/69 68/68/68 67/67/67
f 70/70/70 69/69/69 67/67/67
f 73/73/73 72/72/72 71/71/71
f 74/74/74 73/73/73 71/71/71
f 77/77/77 76/76/76 75/75/75
f 78/78/78 77/77/77 75/75/75
