g floodedCrypt_roof
v 5.212348 6.363947 18.87044
v 5.212348 6.363947 -3.796968
v -5.186427 6.363947 -3.796969
v -5.186427 6.363947 18.87045
v 5.535748 6.178254 19.28875
v 5.212348 6.178254 18.87044
v -5.186426 6.178254 18.87044
v -5.509828 6.178254 19.28875
v -5.509828 6.178254 19.28875
v -5.186426 6.178254 18.87044
v -5.186426 6.178254 -3.796969
v -5.509828 6.178254 -4.120369
v -5.509828 6.178254 -4.120369
v -5.186426 6.178254 -3.796969
v 5.212348 6.178254 -3.796969
v 5.535748 6.178254 -4.120369
v 5.535748 6.178254 -4.120369
v 5.212348 6.178254 -3.796969
v 5.212348 6.178254 18.87044
v 5.535748 6.178254 19.28875
v -5.186427 6.363947 18.87045
v -5.186426 6.178254 18.87044
v 5.212348 6.178254 18.87044
v 5.212348 6.363947 18.87044
v -5.186427 6.363947 -3.796969
v -5.186426 6.178254 -3.796969
v -5.186426 6.178254 18.87044
v -5.186427 6.363947 18.87045
v 5.212348 6.363947 -3.796968
v 5.212348 6.178254 -3.796969
v -5.186426 6.178254 -3.796969
v -5.186427 6.363947 -3.796969
v 5.212348 6.363947 18.87044
v 5.212348 6.178254 18.87044
v 5.212348 6.178254 -3.796969
v 5.212348 6.363947 -3.796968
vt 0.9968668 -1.039332
vt 0.9968668 1.126824
vt 0.003133237 1.126824
vt 0.003133237 -1.039333
vt 0.06316018 0.9726956
vt 0.06222123 0.9713418
vt 0.03202948 0.9713418
vt 0.03109053 0.9726956
vt 0.03109053 0.9726956
vt 0.03202948 0.9713418
vt 0.03202948 0.9070148
vt 0.03109053 0.905661
vt 0.03109053 0.905661
vt 0.03202948 0.9070148
vt 0.06222123 0.9070148
vt 0.06316018 0.905661
vt 0.06316018 0.905661
vt 0.06222123 0.9070148
vt 0.06222123 0.9713418
vt 0.06316018 0.9726956
vt 0.09812498 0.905661
vt 0.09758586 0.905661
vt 0.09758586 0.9491891
vt 0.09812498 0.9491891
vt 0.0959273 0.905661
vt 0.09538811 0.905661
vt 0.09538811 0.9699881
vt 0.0959273 0.9699881
vt 0.09702611 0.905661
vt 0.09648699 0.905661
vt 0.09648699 0.9491891
vt 0.09702611 0.9491891
vt 0.06365827 0.9699881
vt 0.06419742 0.9699881
vt 0.06419742 0.905661
vt 0.06365827 0.905661
vn 0 -1 0
vn 0 -1 0
vn 0 -1 0
vn 0 -1 0
vn 0 -1 0
vn 0 -1 0
vn 0 -1 0
vn 0 -1 0
vn 6.789454E-07 -1 0
vn 6.789454E-07 -1 0
vn 6.789454E-07 -1 0
vn 6.789454E-07 -1 0
vn 0 -1 0
vn 0 -1 0
vn 0 -1 0
vn 0 -1 0
vn -1.58421E-06 -1 0
vn -1.58421E-06 -1 0
vn -1.58421E-06 -1 0
vn -1.58421E-06 -1 0
vn 0 7.146943E-06 -1
vn 0 7.146942E-06 -1
vn 0 7.146942E-06 -1
vn 0 7.146942E-06 -1
vn 1 4.601653E-06 0
vn 1 4.601653E-06 0
vn 1 4.601653E-06 0
vn 1 4.601653E-06 0
vn 0 -6.297612E-07 1
vn 0 -6.297614E-07 1
vn 0 -6.297614E-07 1
vn 0 -6.297614E-07 1
vn -1 2.300826E-06 0
vn -1 2.300826E-06 0
vn -1 2.300826E-06 0
vn -1 2.300826E-06 0
g floodedCrypt_roof_0
f 3/3/3 2/2/2 1/1/1
f 4/4/4 3/3/3 1/1/1
g floodedCrypt_roof_1
f 7/7/7 6/6/6 5/5/5
f 8/8/8 7/7/7 5/5/5
f 11/11/11 10/10/10 9/9/9
f 12/12/12 11/11/11 9/9/9
f 15/15/15 14/14/14 13/13/13
f 16/16/16 15/15/15 13/13/13
f 19/19/19 18/18/18 17/17/17
f 20/20/20 19/19/19 17/17/17
f 23/23/23 22/22/22 21/21/21
f 24/24/24 23/23/23 21/21/21
f 27/27/27 26/26/26 25/25/25
f 28/28/28 27/27/27 25/25/25
f 31/31/31 30/30/30 29/29/29
f 32/32/32 31/31/31 29/29/29
f 35/35/35 34/34/34 33/33/33
f 36/36/36 35/35/35 33/33/33
