g floodedCrypt_moss
v -4.870861 4.838313 -3.835555
v -4.870861 6.195616 -3.835555
v -3.529028 6.195616 -4.039903
v -3.529028 4.838313 -4.039903
v 3.472237 4.809017 -3.937728
v 3.440977 6.301291 -3.937728
v 4.933251 6.332549 -3.937729
v 4.96451 4.840274 -3.937729
v 5.489385 5.409601 -2.19558
v 5.29294 5.409601 -3.146033
v 5.29294 4.439059 -3.146033
v 5.489385 4.439059 -2.19558
v 0.2549644 3.145193 -3.930697
v 0.2548099 4.302699 -3.930697
v 1.412317 4.302854 -3.930697
v 1.412471 3.145347 -3.930697
v -1.232341 3.198414 -4.375477
v -1.155816 4.158505 -4.375477
v -0.1957246 4.081981 -4.375477
v -0.2722496 3.121889 -4.375477
v -1.264987 3.627141 -4.628953
v -1.12321 4.307388 -4.628953
v -0.1630786 4.164809 -4.628952
v -0.3048553 3.484562 -4.628952
v -5.391315 5.247884 -2.275397
v -5.352363 6.193816 -2.257872
v -5.355266 6.211474 -3.204598
v -5.394216 5.265543 -3.222123
v -5.763454 2.363362 -0.272821
v -5.436698 2.363362 -1.20347
v -5.436698 1.377016 -1.20347
v -5.763454 1.377016 -0.2728207
v -4.62527 1.360013 -2.063509
v -4.62527 1.919217 -2.063509
v -4.237588 1.919217 -2.327455
v -4.237588 1.360013 -2.327455
v 4.251861 1.903363 2.748977
v 4.622224 1.903363 2.585864
v 4.622224 1.32402 2.585864
v 4.251861 1.32402 2.748977
v -3.378789 -0.02480254 1.478802
v -4.158026 -0.02480254 -1.935931
v -0.7432928 -0.02480254 -2.715167
v 0.03594375 -0.02480254 0.6995654
v 0.9658063 0.00451049 -2.091717
v 3.06484 0.00451049 -4.895585
v 5.868706 0.00451049 -2.79655
v 3.769674 0.00451049 0.007315674
v -5.596061 -0.01981744 8.208465
v -3.497028 -0.01981744 5.404596
v -0.6931622 -0.01981744 7.503632
v -2.792194 -0.01981744 10.3075
v 3.228101 0.007662605 1.696891
v 6.48483 0.007662605 2.985815
v 5.195904 0.007662605 6.242545
v 1.939177 0.007662605 4.95362
v -2.27069 0.01720605 -4.150749
v -2.382122 0.01720605 -0.6500075
v -5.882864 0.01720605 -0.7614401
v -5.771433 0.01720605 -4.262182
v 6.520558 0.01720605 5.396124
v 6.409127 0.01720605 8.896865
v 2.908385 0.01720605 8.785431
v 3.019816 0.01720605 5.284694
v -2.914856 0.01720605 2.478232
v -3.026288 0.01720605 5.978975
v -6.527029 0.01720605 5.867542
v -6.415598 0.01720605 2.366801
v 5.046053 -0.02458438 9.654198
v 1.64486 -0.02458438 10.49056
v 0.8085015 -0.02458438 7.089367
v 4.209693 -0.02458438 6.253006
v -0.5339868 0.01720605 9.12461
v -0.6454187 0.01720605 12.62535
v -4.14616 0.01720605 12.51392
v -4.034729 0.01720605 9.013181
v 0.4197299 6.230246 -4.092169
v 0.4231462 4.478992 -4.092169
v -3.079361 4.472159 -4.09217
v -3.082777 6.223412 -4.09217
v -5.48834 4.44001 -4.098596
v -5.491756 6.191264 -4.098596
v -1.98925 6.198098 -4.098596
v -1.985834 4.446844 -4.098596
v 5.679108 6.203513 -4.09217
v 5.682524 4.452258 -4.09217
v 2.180016 4.445425 -4.09217
v 2.176601 6.196677 -4.09217
v -0.4058392 5.399172 -4.098596
v -0.4092557 7.150427 -4.098596
v 3.093251 7.15726 -4.098596
v 3.096668 5.406006 -4.098596
v 3.832772 1.80203 -4.099676
v 3.836188 0.05077478 -4.099676
v 2.084935 0.04735852 -4.099676
v 2.081519 1.798612 -4.099676
v -2.121089 1.870852 -4.098596
v -2.117672 0.1195981 -4.098596
v -3.868925 0.1161802 -4.098596
v -3.872342 1.867435 -4.098596
v 5.253129 2.314306 -4.098596
v 5.256545 0.5630522 -4.098596
v 3.505293 0.5596343 -4.098596
v 3.501876 2.310889 -4.098596
v -3.286514 2.192936 -4.099676
v -3.283098 0.4416819 -4.099676
v -5.034351 0.4382656 -4.099676
v -5.037767 2.18952 -4.099676
v -5.48833 2.00651 -3.531079
v -5.48833 0.2552547 -3.534495
v -5.48833 0.2518368 -1.783242
v -5.48833 2.003092 -1.779826
v 7.57374 0.00451049 0.3321832
v 4.13818 0.00451049 1.013762
v 3.456603 0.00451049 -2.421797
v 6.89216 0.00451049 -3.103374
v -4.270841 0.00451049 2.144346
v -7.745031 0.00451049 1.69981
v -7.300495 0.00451049 -1.774379
v -3.826305 0.00451049 -1.329843
v -5.42816 5.047968 2.085235
v -5.42816 6.799222 2.088651
v -5.428161 6.806056 -1.413855
v -5.428161 5.054802 -1.417272
v -5.421734 6.230246 -3.822836
v -5.421734 4.478992 -3.826252
v -5.421734 4.472159 -0.3237436
v -5.421734 6.223412 -0.3203284
v -5.42816 4.641685 9.572692
v -5.42816 6.392939 9.576109
v -5.428161 6.399775 6.073603
v -5.428161 4.64852 6.070187
v -5.421734 6.230246 2.038007
v -5.421734 4.478992 2.034591
v -5.421735 4.472159 5.537098
v -5.421735 6.223412 5.540514
v 5.511902 4.590901 -3.822836
v 5.511902 6.342155 -3.826252
v 5.511902 6.348991 -0.3237454
v 5.511902 4.597736 -0.320329
v 5.505476 6.805768 2.71863
v 5.505476 5.054513 2.722046
v 5.505476 5.047681 -0.780462
v 5.505476 6.798933 -0.7838776
v 5.30413 -0.0002469783 3.685541
v 5.35837 0.532308 3.685541
v 5.358371 0.532308 5.75393
v 5.30413 -0.0002469783 5.989645
v 5.35837 0.532308 9.458388
v 5.304129 -0.0002469783 9.067183
v 5.35837 0.532308 11.89408
v 5.30413 -0.0002469783 11.89408
v 5.30413 -0.23514 3.685541
v 5.30413 -0.0002469783 3.685541
v 5.30413 -0.0002469783 5.989645
v 5.30413 -0.23514 5.989645
v 5.304129 -0.0002469783 9.067183
v 5.304129 -0.23514 9.067183
v 5.30413 -0.0002469783 11.89408
v 5.30413 -0.23514 11.89408
v 5.304129 -0.23514 -4.120369
v 5.304129 -0.01404741 -4.120369
v 5.304129 -0.0140474 -1.454167
v 5.304129 -0.23514 -1.454167
v 5.304129 -0.0140474 1.623372
v 5.304129 -0.23514 1.623372
v 5.30413 -0.0140474 3.685541
v 5.30413 -0.23514 3.685541
v 5.30413 -0.0140474 3.685541
v 5.304129 -0.0140474 1.623372
v 5.358371 0.532308 2.150743
v 5.35837 0.532308 3.685541
v 5.304129 -0.0140474 -1.454167
v 5.358371 0.532308 -1.784435
v 5.358371 0.532308 -4.120369
v 5.304129 -0.01404741 -4.120369
v -1.644198 0.532308 -3.9224
v -1.644198 -0.23514 -3.753924
v -2.550143 -0.23514 -3.753924
v -2.550143 0.532308 -3.922401
v -3.431359 0.532308 -3.922401
v -3.431359 -0.23514 -3.753924
v -5.509827 0.532308 -3.922401
v -5.509828 -0.23514 -3.753924
v 2.697364 0.532308 -3.910367
v 2.697364 -0.23514 -3.74189
v 1.774543 -0.23514 -3.74189
v 1.774543 0.532308 -3.910367
v 3.273876 0.532308 -3.910367
v 3.273876 -0.23514 -3.74189
v 5.535748 0.532308 -3.910367
v 5.535748 -0.23514 -3.74189
v -5.350423 0.532308 9.427889
v -5.350423 0.532308 5.603891
v -5.296182 -0.0002469783 5.989645
v -5.296182 -0.0002469783 9.067184
v -5.350423 0.532308 11.89408
v -5.296182 -0.0002469783 11.89408
v -5.296182 -0.0002469783 3.685541
v -5.350423 0.532308 3.685541
v -5.296182 -0.23514 5.989645
v -5.296182 -0.0002469783 5.989645
v -5.296182 -0.0002469783 3.685541
v -5.296182 -0.23514 3.685541
v -5.296182 -0.0002469783 9.067184
v -5.296182 -0.23514 9.067184
v -5.296182 -0.23514 11.89408
v -5.296182 -0.0002469783 11.89408
v -5.284984 -0.0140474 1.623372
v -5.284984 -0.0140474 -1.454167
v -5.284984 -0.23514 -1.454167
v -5.284984 -0.23514 1.623372
v -5.284984 -0.23514 3.685541
v -5.284984 -0.0140474 3.685541
v -5.284984 -0.01404741 -4.120369
v -5.284984 -0.23514 -4.120369
v -5.284984 -0.0140474 3.685541
v -5.339225 0.532308 3.685541
v -5.339225 0.532308 2.126118
v -5.284984 -0.0140474 1.623372
v -5.284984 -0.0140474 -1.454167
v -5.339226 0.532308 -1.731783
v -5.339226 0.532308 -4.120369
v -5.284984 -0.01404741 -4.120369
v -4.621231 -0.02480254 16.57351
v -5.400468 -0.02480254 13.15878
v -1.985735 -0.02480254 12.37954
v -1.206498 -0.02480254 15.79427
v -1.814681 0.00451049 13.78077
v 0.2843532 0.00451049 10.97691
v 3.088219 0.00451049 13.07594
v 0.9891862 0.00451049 15.87981
v 5.943015 0.00451049 14.37133
v 2.507456 0.00451049 15.05291
v 1.825878 0.00451049 11.61734
v 5.261436 0.00451049 10.93577
v -5.42816 4.726367 14.86211
v -5.42816 6.477621 14.86553
v -5.428161 6.484455 11.36302
v -5.428161 4.7332 11.3596
v 5.511902 4.590901 2.181533
v 5.511902 6.342155 2.178118
v 5.511902 6.348991 5.680625
v 5.511902 4.597736 5.684041
v 5.505476 6.469369 8.897605
v 5.505476 4.718114 8.901018
v 5.505476 4.711282 5.39851
v 5.505476 6.462534 5.395098
vt 0 0
vt 0 1
vt 1 1
vt 1 0
vt 1 0
vt 1 1
vt 0 1
vt 0 0
vt 0 0
vt 0 1
vt 1 1
vt 1 0
vt 1 0
vt 1 1
vt 0 1
vt 0 0
vt 0 0
vt 0 1
vt 1 1
vt 1 0
vt 0 0
vt 0 1
vt 1 1
vt 1 0
vt 1 0
vt 1 1
vt 0 1
vt 0 0
vt 0 0
vt 0 1
vt 1 1
vt 1 0
vt 0 0
vt 0 1
vt 1 1
vt 1 0
vt 0 0
vt 0 1
vt 1 1
vt 1 0
vt 0 0
vt 0 1
vt 1 1
vt 1 0
vt 0 0
vt 0 1
vt 1 1
vt 1 0
vt 0 0
vt 0 1
vt 1 1
vt 1 0
vt 0 0
vt 0 1
vt 1 1
vt 1 0
vt 0 0
vt 0 1
vt 1 1
vt 1 0
vt 0 0
vt 0 1
vt 1 1
vt 1 0
vt 0 0
vt 0 1
vt 1 1
vt 1 0
vt 0 0
vt 0 1
vt 1 1
vt 1 0
vt 0 0
vt 0 1
vt 1 1
vt 1 0
vt 0 0.5
vt 0 1
vt 1 1
vt 1 0.5
vt 0 0
vt 0 0.5
vt 1 0.5
vt 1 0
vt 0 0.5
vt 0 1
vt 1 1
vt 1 0.5
vt 0 0
vt 0 0.5
vt 1 0.5
vt 1 0
vt 0 0
vt 0 0.5
vt 0.5 0.5
vt 0.5 0
vt 0.5 0
vt 0.5 0.5
vt 1 0.5
vt 1 0
vt 0.5 0
vt 0.5 0.5
vt 1 0.5
vt 1 0
vt 0 0
vt 0 0.5
vt 0.5 0.5
vt 0.5 0
vt 0.5 0
vt 0.5 0.5
vt 1 0.5
vt 1 0
vt 0 0
vt 0 1
vt 1 1
vt 1 0
vt 0 0
vt 0 1
vt 1 1
vt 1 0
vt 0 0
vt 0 0.5
vt 1 0.5
vt 1 0
vt 0 0.5
vt 0 1
vt 1 1
vt 1 0.5
vt 0 0
vt 0 0.5
vt 1 0.5
vt 1 0
vt 0 0.5
vt 0 1
vt 1 1
vt 1 0.5
vt 0 0
vt 0 0.5
vt 1 0.5
vt 1 0
vt 0 0.5
vt 0 1
vt 1 1
vt 1 0.5
vt 0.5604049 0.8196614
vt 0.5604049 0.9794583
vt -0.06022918 0.9794583
vt -0.1309571 0.8196614
vt -1.171777 0.9794583
vt -1.054394 0.8196614
vt -1.902622 0.9794583
vt -1.902622 0.8196614
vt 0.5604049 0.7491802
vt 0.5604049 0.8196614
vt -0.1309571 0.8196614
vt -0.1309571 0.7491802
vt -1.054394 0.8196614
vt -1.054394 0.7491802
vt -1.902622 0.8196614
vt -1.902622 0.7491802
vt 2.902622 0.7491802
vt 2.902622 0.8155207
vt 2.10261 0.8155207
vt 2.10261 0.7491802
vt 1.179173 0.8155207
vt 1.179173 0.7491802
vt 0.5604049 0.8155207
vt 0.5604049 0.7491802
vt 0.5604049 0.8155207
vt 1.179173 0.8155207
vt 1.020932 0.9794583
vt 0.5604049 0.9794583
vt 2.10261 0.8155207
vt 2.201709 0.9794583
vt 2.902622 0.9794583
vt 2.902622 0.8155207
vt 0.04330307 0.9851832
vt 0.04330307 0.8161886
vt 0.2427951 0.8161886
vt 0.2427951 0.9851832
vt 0.4368418 0.9851832
vt 0.4368418 0.8161886
vt 0.8945276 0.9851832
vt 0.8945276 0.8161886
vt 0.6090739 0.9851832
vt 0.6090739 0.8161886
vt 0.8122823 0.8161886
vt 0.8122823 0.9851832
vt 0.4821241 0.9851832
vt 0.4821241 0.8161886
vt -0.01594782 0.9851832
vt -0.01594782 0.8161886
vt -1.162626 0.9794583
vt -0.01520908 0.9794583
vt -0.1309571 0.8196614
vt -1.054394 0.8196614
vt -1.902622 0.9794583
vt -1.902622 0.8196614
vt 0.5604049 0.8196614
vt 0.5604049 0.9794583
vt -0.1309571 0.7491802
vt -0.1309571 0.8196614
vt 0.5604049 0.8196614
vt 0.5604049 0.7491802
vt -1.054394 0.8196614
vt -1.054394 0.7491802
vt -1.902622 0.7491802
vt -1.902622 0.8196614
vt 1.179173 0.8155207
vt 2.10261 0.8155207
vt 2.10261 0.7491802
vt 1.179173 0.7491802
vt 0.5604049 0.7491802
vt 0.5604049 0.8155207
vt 2.902622 0.8155207
vt 2.902622 0.7491802
vt 0.5604049 0.8155207
vt 0.5604049 0.9794583
vt 1.028321 0.9794583
vt 1.179173 0.8155207
vt 2.10261 0.8155207
vt 2.18591 0.9794583
vt 2.902622 0.9794583
vt 2.902622 0.8155207
vt 0 0
vt 0 1
vt 1 1
vt 1 0
vt 0 0
vt 0 1
vt 1 1
vt 1 0
vt 0 0
vt 0 1
vt 1 1
vt 1 0
vt 0 0
vt 0 0.5
vt 1 0.5
vt 1 0
vt 0 0
vt 0 0.5
vt 1 0.5
vt 1 0
vt 0 0.5
vt 0 1
vt 1 1
vt 1 0.5
vn 0.1505541 0 0.9886019
vn 0.1505541 0 0.9886019
vn 0.1505541 0 0.9886017
vn 0.1505541 0 0.9886019
vn 0 0 1
vn 0 0 1
vn 0 0 1
vn 0 0 1
vn 0.9793013 0 -0.202408
vn 0.9793013 0 -0.202408
vn 0.9793013 0 -0.202408
vn 0.9793013 0 -0.202408
vn 0 0 1
vn 0 0 1
vn 0 0 1
vn 0 0 1
vn 0 1.031692E-07 1
vn 0 1.031692E-07 1
vn 0 1.031692E-07 1
vn 0 1.031692E-07 1
vn -4.31628E-07 2.842633E-07 1
vn -4.31628E-07 2.842633E-07 1
vn -4.31628E-07 2.842633E-07 1
vn -4.31628E-07 2.842633E-07 1
vn 0.9792607 1.867928E-07 0.2026038
vn 0.9792607 1.867928E-07 0.2026038
vn 0.9792607 1.867928E-07 0.2026038
vn 0.9792607 1.867928E-07 0.2026038
vn 0.9435328 0 0.3312793
vn 0.9435328 0 0.3312793
vn 0.9435328 0 0.3312793
vn 0.9435328 0 0.3312793
vn 0.5627809 0 0.8266061
vn 0.5627809 0 0.8266061
vn 0.5627809 0 0.8266061
vn 0.5627809 0 0.8266061
vn 0.4030558 0 0.9151754
vn 0.4030558 0 0.9151754
vn 0.4030558 0 0.9151754
vn 0.4030558 0 0.9151754
vn 0 1 0
vn 0 1 0
vn 0 1 0
vn 0 1 0
vn 0 1 0
vn 0 1 0
vn 0 1 0
vn 0 1 0
vn 0 1 0
vn 0 1 0
vn 0 1 0
vn 0 1 0
vn 0 1 0
vn 0 1 0
vn 0 1 0
vn 0 1 0
vn 0 1 0
vn 0 1 0
vn 0 1 0
vn 0 1 0
vn 0 1 0
vn 0 1 0
vn 0 1 0
vn 0 1 0
vn 0 1 0
vn 0 1 0
vn 0 1 0
vn 0 1 0
vn 0 1 0
vn 0 1 0
vn 0 1 0
vn 0 1 0
vn 0 1 0
vn 0 1 0
vn 0 1 0
vn 0 1 0
vn 0 0 1
vn 0 0 1
vn 0 0 1
vn 0 0 1
vn 1.273679E-07 0 1
vn 1.273679E-07 0 1
vn 1.273679E-07 0 1
vn 1.273679E-07 0 1
vn 1.27368E-07 0 1
vn 1.27368E-07 0 1
vn 1.27368E-07 0 1
vn 1.27368E-07 0 1
vn -1.273679E-07 0 1
vn -1.273679E-07 0 1
vn -1.273679E-07 0 1
vn -1.273679E-07 0 1
vn 0 0 1
vn 0 0 1
vn 0 0 1
vn 0 0 1
vn 0 0 1
vn 0 0 1
vn 0 0 1
vn 0 0 1
vn 0 0 1
vn 0 0 1
vn 0 0 1
vn 0 0 1
vn 0 0 1
vn 0 0 1
vn 0 0 1
vn 0 0 1
vn 1 0 0
vn 1 0 0
vn 1 0 0
vn 1 0 0
vn 0 1 0
vn 0 1 0
vn 0 1 0
vn 0 1 0
vn 0 1 0
vn 0 1 0
vn 0 1 0
vn 0 1 0
vn 1 0 -1.742607E-07
vn 1 0 -1.742607E-07
vn 1 0 -1.742607E-07
vn 1 0 -1.742607E-07
vn 1 0 0
vn 1 0 0
vn 1 0 0
vn 1 0 0
vn 1 2.903095E-07 -1.742608E-07
vn 1 2.903095E-07 -1.742607E-07
vn 1 2.903095E-07 -1.742607E-07
vn 1 2.903095E-07 -1.742607E-07
vn 1 0 1.742606E-07
vn 1 0 1.742606E-07
vn 1 0 1.742606E-07
vn 1 0 1.742606E-07
vn -1 0 0
vn -1 0 0
vn -1 0 0
vn -1 0 0
vn -1 0 0
vn -1 0 0
vn -1 0 0
vn -1 0 0
vn -0.9948531 0.1013279 0
vn -0.9948531 0.1013279 0
vn -0.9948531 0.1013279 0
vn -0.9948531 0.1013279 0
vn -0.9948531 0.101328 0
vn -0.9948531 0.101328 0
vn -0.9948531 0.1013279 0
vn -0.9948531 0.1013279 0
vn -1 0 0
vn -1 0 0
vn -1 0 0
vn -1 0 0
vn -1 0 0
vn -1 0 0
vn -1 0 0
vn -1 0 0
vn -1 0 0
vn -1 0 0
vn -1 0 0
vn -1 0 0
vn -1 0 0
vn -1 0 0
vn -1 0 0
vn -1 0 0
vn -0.9951079 0.09879379 0
vn -0.9951079 0.09879379 0
vn -0.9951079 0.09879379 0
vn -0.9951079 0.09879379 0
vn -0.9951079 0.09879377 0
vn -0.9951079 0.09879379 0
vn -0.9951079 0.09879378 0
vn -0.9951079 0.09879378 0
vn 0 0.2144224 0.976741
vn 0 0.2144224 0.976741
vn 0 0.2144224 0.976741
vn 0 0.2144224 0.976741
vn 0 0.2144224 0.976741
vn 0 0.2144224 0.976741
vn 0 0.2144224 0.976741
vn 0 0.2144224 0.976741
vn 0 0.2144223 0.976741
vn 0 0.2144223 0.976741
vn 0 0.2144223 0.976741
vn 0 0.2144223 0.976741
vn 0 0.2144226 0.976741
vn 0 0.2144226 0.976741
vn 0 0.2144226 0.976741
vn 0 0.2144226 0.976741
vn 0.9948532 0.1013272 0
vn 0.9948532 0.1013271 0
vn 0.9948532 0.1013272 0
vn 0.9948532 0.1013271 0
vn 0.9948532 0.1013271 0
vn 0.9948532 0.1013271 0
vn 0.9948532 0.1013272 0
vn 0.9948532 0.1013272 0
vn 1 0 0
vn 1 0 0
vn 1 0 0
vn 1 0 0
vn 1 0 0
vn 1 0 0
vn 1 0 0
vn 1 0 0
vn 1 0 0
vn 1 0 0
vn 1 0 0
vn 1 0 0
vn 1 0 0
vn 1 0 0
vn 1 0 0
vn 1 0 0
vn 0.9951079 0.09879301 0
vn 0.9951079 0.09879301 0
vn 0.9951079 0.09879302 0
vn 0.9951079 0.09879302 0
vn 0.9951079 0.09879302 0
vn 0.9951079 0.09879301 0
vn 0.9951079 0.09879304 0
vn 0.9951079 0.09879304 0
vn 0 1 0
vn 0 1 0
vn 0 1 0
vn 0 1 0
vn 0 1 0
vn 0 1 0
vn 0 1 0
vn 0 1 0
vn 0 1 0
vn 0 1 0
vn 0 1 0
vn 0 1 0
vn 1 0 -1.742606E-07
vn 1 0 -1.742606E-07
vn 1 0 -1.742606E-07
vn 1 0 -1.742606E-07
vn -1 0 0
vn -1 0 0
vn -1 0 0
vn -1 0 0
vn -1 0 0
vn -1 0 0
vn -1 0 0
vn -1 0 0
g floodedCrypt_moss_0
f 3/3/3 2/2/2 1/1/1
f 4/4/4 3/3/3 1/1/1
f 7/7/7 6/6/6 5/5/5
f 8/8/8 7/7/7 5/5/5
f 11/11/11 10/10/10 9/9/9
f 12/12/12 11/11/11 9/9/9
f 15/15/15 14/14/14 13/13/13
f 16/16/16 15/15/15 13/13/13
f 19/19/19 18/18/18 17/17/17
f 20/20/20 19/19/19 17/17/17
f 23/23/23 22/22/22 21/21/21
f 24/24/24 23/23/23 21/21/21
f 27/27/27 26/26/26 25/25/25
f 28/28/28 27/27/27 25/25/25
f 31/31/31 30/30/30 29/29/29
f 32/32/32 31/31/31 29/29/29
f 35/35/35 34/34/34 33/33/33
f 36/36/36 35/35/35 33/33/33
f 39/39/39 38/38/38 37/37/37
f 40/40/40 39/39/39 37/37/37
g floodedCrypt_moss_1
f 43/43/43 42/42/42 41/41/41
f 44/44/44 43/43/43 41/41/41
f 47/47/47 46/46/46 45/45/45
f 48/48/48 47/47/47 45/45/45
f 51/51/51 50/50/50 49/49/49
f 52/52/52 51/51/51 49/49/49
f 55/55/55 54/54/54 53/53/53
f 56/56/56 55/55/55 53/53/53
f 59/59/59 58/58/58 57/57/57
f 60/60/60 59/59/59 57/57/57
f 63/63/63 62/62/62 61/61/61
f 64/64/64 63/63/63 61/61/61
f 67/67/67 66/66/66 65/65/65
f 68/68/68 67/67/67 65/65/65
f 71/71/71 70/70/70 69/69/69
f 72/72/72 71/71/71 69/69/69
f 75/75/75 74/74/74 73/73/73
f 76/76/76 75/75/75 73/73/73
f 79/79/79 78/78/78 77/77/77
f 80/80/80 79/79/79 77/77/77
f 83/83/83 82/82/82 81/81/81
f 84/84/84 83/83/83 81/81/81
f 87/87/87 86/86/86 85/85/85
f 88/88/88 87/87/87 85/85/85
f 91/91/91 90/90/90 89/89/89
f 92/92/92 91/91/91 89/89/89
f 95/95/95 94/94/94 93/93/93
f 96/96/96 95/95/95 93/93/93
f 99/99/99 98/98/98 97/97/97
f 100/100/100 99/99/99 97/97/97
f 103/103/103 102/102/102 101/101/101
f 104/104/104 103/103/103 101/101/101
f 107/107/107 106/106/106 105/105/105
f 108/108/108 107/107/107 105/105/105
f 111/111/111 110/110/110 109/109/109
f 112/112/112 111/111/111 109/109/109
f 115/115/115 114/114/114 113/113/113
f 116/116/116 115/115/115 113/113/113
f 119/119/119 118/118/118 117/117/117
f 120/120/120 119/119/119 117/117/117
f 123/123/123 122/122/122 121/121/121
f 124/124/124 123/123/123 121/121/121
f 127/127/127 126/126/126 125/125/125
f 128/128/128 127/127/127 125/125/125
f 131/131/131 130/130/130 129/129/129
f 132/132/132 131/131/131 129/129/129
f 135/135/135 134/134/134 133/133/133
f 136/136/136 135/135/135 133/133/133
f 139/139/139 138/138/138 137/137/137
f 140/140/140 139/139/139 137/137/137
f 143/143/143 142/142/142 141/141/141
f 144/144/144 143/143/143 141/141/141
f 147/147/147 146/146/146 145/145/145
f 148/148/148 147/147/147 145/145/145
f 147/147/147 148/148/148 149/149/149
f 148/148/148 150/150/150 149/149/149
f 151/151/151 149/149/149 150/150/150
f 152/152/152 151/151/151 150/150/150
f 155/155/155 154/154/154 153/153/153
f 156/156/156 155/155/155 153/153/153
f 155/155/155 156/156/156 157/157/157
f 156/156/156 158/158/158 157/157/157
f 159/159/159 157/157/157 158/158/158
f 160/160/160 159/159/159 158/158/158
f 163/163/163 162/162/162 161/161/161
f 164/164/164 163/163/163 161/161/161
f 163/163/163 164/164/164 165/165/165
f 164/164/164 166/166/166 165/165/165
f 167/167/167 165/165/165 166/166/166
f 168/168/168 167/167/167 166/166/166
f 171/171/171 170/170/170 169/169/169
f 172/172/172 171/171/171 169/169/169
f 173/173/173 170/170/170 171/171/171
f 174/174/174 173/173/173 171/171/171
f 174/174/174 175/175/175 173/173/173
f 175/175/175 176/176/176 173/173/173
f 179/179/179 178/178/178 177/177/177
f 180/180/180 179/179/179 177/177/177
f 180/180/180 181/181/181 179/179/179
f 181/181/181 182/182/182 179/179/179
f 181/181/181 183/183/183 182/182/182
f 183/183/183 184/184/184 182/182/182
f 187/187/187 186/186/186 185/185/185
f 188/188/188 187/187/187 185/185/185
f 185/185/185 186/186/186 189/189/189
f 186/186/186 190/190/190 189/189/189
f 189/189/189 190/190/190 191/191/191
f 190/190/190 192/192/192 191/191/191
f 195/195/195 194/194/194 193/193/193
f 196/196/196 195/195/195 193/193/193
f 193/193/193 197/197/197 196/196/196
f 197/197/197 198/198/198 196/196/196
f 194/194/194 195/195/195 199/199/199
f 200/200/200 194/194/194 199/199/199
f 203/203/203 202/202/202 201/201/201
f 204/204/204 203/203/203 201/201/201
f 201/201/201 202/202/202 205/205/205
f 206/206/206 201/201/201 205/205/205
f 206/206/206 205/205/205 207/207/207
f 205/205/205 208/208/208 207/207/207
f 211/211/211 210/210/210 209/209/209
f 212/212/212 211/211/211 209/209/209
f 212/212/212 209/209/209 213/213/213
f 209/209/209 214/214/214 213/213/213
f 215/215/215 210/210/210 211/211/211
f 216/216/216 215/215/215 211/211/211
f 219/219/219 218/218/218 217/217/217
f 220/220/220 219/219/219 217/217/217
f 220/220/220 221/221/221 219/219/219
f 221/221/221 222/222/222 219/219/219
f 223/223/223 222/222/222 221/221/221
f 224/224/224 223/223/223 221/221/221
f 227/227/227 226/226/226 225/225/225
f 228/228/228 227/227/227 225/225/225
f 231/231/231 230/230/230 229/229/229
f 232/232/232 231/231/231 229/229/229
f 235/235/235 234/234/234 233/233/233
f 236/236/236 235/235/235 233/233/233
f 239/239/239 238/238/238 237/237/237
f 240/240/240 239/239/239 237/237/237
f 243/243/243 242/242/242 241/241/241
f 244/244/244 243/243/243 241/241/241
f 247/247/247 246/246/246 245/245/245
f 248/248/248 247/247/247 245/245/245
