g fxMeshWhirl01
v -0.4954737 -0.2498626 0.5372462
v -0.3170789 -0.07199575 0.5589714
v -0.332181 -1.282976 0.8915279
v -0.5346258 -1.208552 0.7737711
v -0.06058563 -1.287374 0.991628
v -0.1012791 0.04067697 0.5891616
v 0.2558484 -1.262479 1.037967
v 0.131494 0.09252054 0.598985
v 0.3567233 0.08583292 0.5609879
v 0.5911078 -1.251171 0.9972145
v 0.9187098 -1.299401 0.8378169
v 0.5498341 0.02350565 0.4469295
v 1.202504 -1.374253 0.5849365
v 0.6974652 -0.06194296 0.2765709
v 1.408761 -1.445461 0.2645932
v 0.7869073 -0.1386385 0.06966379
v 0.8170339 -0.1733301 -0.1575242
v 1.493331 -1.485284 -0.09535795
v 1.410966 -1.464185 -0.4661252
v 0.7879885 -0.1313 -0.3877415
v 1.205226 -1.400358 -0.8180832
v 0.704434 -0.03775579 -0.6042576
v 0.9181005 -1.310493 -1.122387
v 0.5723104 0.08381616 -0.7907202
v 0.3905746 0.2116326 -0.92757
v 0.578907 -1.209757 -1.344417
v 0.22146 -1.113901 -1.449531
v 0.1601759 0.3230492 -0.9946247
v -0.1656968 -1.035656 -1.469297
v -0.1281571 0.4085305 -1.01303
v -0.5948964 -0.9872987 -1.437093
v -0.4864213 0.4593206 -1.006295
v -0.8397706 0.4602833 -0.9410695
v -1.004246 -0.9849396 -1.320175
v -1.332413 -1.04504 -1.090375
v -1.113521 0.399932 -0.7917473
v -1.598993 -1.129398 -0.7679716
v -1.328834 0.3155047 -0.5662245
v -1.82519 -1.202096 -0.3716086
v -1.50725 0.2428944 -0.2719716
v -1.597804 0.2189121 0.05732397
v -1.945844 -1.226081 0.0560787
v -1.902064 -1.163107 0.4710246
v -1.555079 0.2817008 0.3870712
v -1.678708 -1.044172 0.8552264
v -1.360176 0.4005326 0.6977763
v -1.255516 -0.8976733 1.19402
v -0.9898877 0.5471508 0.9728597
v -0.5528544 0.6931027 1.154805
v -0.7406741 -0.7520679 1.408411
v -0.2504787 -0.638023 1.427761
v -0.1668846 0.8078625 1.196701
v 0.2220868 -0.5365773 1.308289
v 0.1871637 0.9073278 1.129513
v 0.6788046 -0.431009 1.104036
v 0.5226153 1.005185 0.9833826
v 0.8192943 1.117049 0.7749025
v 1.092046 -0.3062133 0.8367133
v 1.436305 -0.1469202 0.5313998
v 1.058836 1.261296 0.5225868
v 1.703194 0.04507013 0.2164026
v 1.253403 1.392327 0.2532281
v 1.88525 0.2679557 -0.0807035
v 1.419659 1.468979 -0.004393089
v 1.974355 0.5217609 -0.3122404
v 1.573927 1.45555 -0.2227295
vt 0 1
vt 0.03125 1
vt 0.03125 0
vt 0 0
vt 0.0625 0
vt 0.0625 1
vt 0.09375 0
vt 0.09375 1
vt 0.125 1
vt 0.125 0
vt 0.15625 0
vt 0.15625 1
vt 0.1875 0
vt 0.1875 1
vt 0.21875 0
vt 0.21875 1
vt 0.25 1
vt 0.25 0
vt 0.28125 0
vt 0.28125 1
vt 0.3125 0
vt 0.3125 1
vt 0.34375 0
vt 0.34375 1
vt 0.375 1
vt 0.375 0
vt 0.40625 0
vt 0.40625 1
vt 0.4375 0
vt 0.4375 1
vt 0.46875 0
vt 0.46875 1
vt 0.5 1
vt 0.5 0
vt 0.53125 0
vt 0.53125 1
vt 0.5625 0
vt 0.5625 1
vt 0.59375 0
vt 0.59375 1
vt 0.625 1
vt 0.625 0
vt 0.65625 0
vt 0.65625 1
vt 0.6875 0
vt 0.6875 1
vt 0.71875 0
vt 0.71875 1
vt 0.75 1
vt 0.75 0
vt 0.78125 0
vt 0.78125 1
vt 0.8125 0
vt 0.8125 1
vt 0.84375 0
vt 0.84375 1
vt 0.875 1
vt 0.875 0
vt 0.90625 0
vt 0.90625 1
vt 0.9375 0
vt 0.9375 1
vt 0.96875 0
vt 0.96875 1
vt 1 0
vt 1 1
vn -0.3910624 0.2426404 0.8878039
vn -0.3230376 0.2580042 0.9105386
vn -0.3316272 0.2561615 0.9079673
vn -0.3910623 0.2426403 0.8878039
vn -0.211034 0.2780324 0.9371033
vn -0.1993052 0.2798483 0.9391286
vn 0.0008923738 0.3088311 0.9511165
vn -0.0002320253 0.3086916 0.9511622
vn 0.2967463 0.3448874 0.8905024
vn 0.333401 0.3485646 0.8759831
vn 0.6279494 0.3816031 0.6782762
vn 0.5900833 0.3760076 0.7144368
vn 0.7912359 0.414952 0.4491779
vn 0.7698814 0.4086829 0.4901643
vn 0.8693458 0.4428267 0.2194138
vn 0.8633711 0.4399816 0.246995
vn 0.89442 0.4471861 -0.006116539
vn 0.8943143 0.4474378 -0.001228486
vn 0.88187 0.4211557 -0.2119747
vn 0.8766729 0.4140121 -0.2450278
vn 0.8312044 0.3744926 -0.4109191
vn 0.8142763 0.3633963 -0.4526558
vn 0.723079 0.3313774 -0.6060905
vn 0.6873671 0.3234085 -0.6503333
vn 0.466089 0.3072022 -0.8296915
vn 0.5236046 0.3091918 -0.7938757
vn 0.2564573 0.3026704 -0.9179435
vn 0.2150198 0.3024208 -0.9286055
vn 0.05827706 0.2976505 -0.9528946
vn 0.0451238 0.2970225 -0.9538037
vn -0.1135156 0.2898834 -0.9503062
vn -0.1177198 0.2896562 -0.9498639
vn -0.3723288 0.2765522 -0.8859402
vn -0.3906006 0.275339 -0.8784188
vn -0.6757525 0.2475178 -0.6943294
vn -0.6512157 0.2504513 -0.7163744
vn -0.8229312 0.2282017 -0.5202963
vn -0.8108351 0.2295384 -0.5383852
vn -0.9101157 0.2258384 -0.3473998
vn -0.9028212 0.2255754 -0.3661003
vn -0.9683054 0.2335391 -0.08856669
vn -0.9676868 0.2333269 -0.09560777
vn -0.9407164 0.2400279 0.239665
vn -0.9241647 0.2400941 0.2971101
vn -0.7811305 0.2356332 0.5781972
vn -0.7321551 0.2330728 0.6400203
vn -0.5652657 0.2222683 0.7944002
vn -0.5159421 0.2189263 0.8281758
vn -0.2518416 0.1930345 0.9483213
vn -0.3215615 0.2010542 0.9252974
vn 0.006538816 0.1605118 0.9870122
vn 0.06689706 0.1525302 0.9860321
vn 0.2705666 0.129185 0.9539942
vn 0.3006044 0.126877 0.9452721
vn 0.4417497 0.1260026 0.8882458
vn 0.4601297 0.1274548 0.8786559
vn 0.5868341 0.1507735 0.7955457
vn 0.5726966 0.1467192 0.806531
vn 0.6671439 0.1822261 0.7222968
vn 0.6771535 0.1878112 0.7114702
vn 0.7270939 0.2203785 0.6502059
vn 0.7329755 0.2251943 0.6418991
vn 0.7622097 0.251902 0.5963067
vn 0.7641056 0.2541949 0.5928977
vn 0.778211 0.2717149 0.566179
vn 0.7782109 0.2717149 0.5661791
g fxMeshWhirl01_0
f 3/3/3 2/2/2 1/1/1
f 4/4/4 3/3/3 1/1/1
f 2/2/2 3/3/3 5/5/5
f 6/6/6 2/2/2 5/5/5
f 6/6/6 5/5/5 7/7/7
f 8/8/8 6/6/6 7/7/7
f 8/8/8 7/7/7 9/9/9
f 7/7/7 10/10/10 9/9/9
f 10/10/10 11/11/11 9/9/9
f 11/11/11 12/12/12 9/9/9
f 12/12/12 11/11/11 13/13/13
f 14/14/14 12/12/12 13/13/13
f 14/14/14 13/13/13 15/15/15
f 16/16/16 14/14/14 15/15/15
f 16/16/16 15/15/15 17/17/17
f 15/15/15 18/18/18 17/17/17
f 18/18/18 19/19/19 17/17/17
f 19/19/19 20/20/20 17/17/17
f 20/20/20 19/19/19 21/21/21
f 22/22/22 20/20/20 21/21/21
f 22/22/22 21/21/21 23/23/23
f 24/24/24 22/22/22 23/23/23
f 24/24/24 23/23/23 25/25/25
f 23/23/23 26/26/26 25/25/25
f 26/26/26 27/27/27 25/25/25
f 27/27/27 28/28/28 25/25/25
f 28/28/28 27/27/27 29/29/29
f 30/30/30 28/28/28 29/29/29
f 30/30/30 29/29/29 31/31/31
f 32/32/32 30/30/30 31/31/31
f 32/32/32 31/31/31 33/33/33
f 31/31/31 34/34/34 33/33/33
f 34/34/34 35/35/35 33/33/33
f 35/35/35 36/36/36 33/33/33
f 36/36/36 35/35/35 37/37/37
f 38/38/38 36/36/36 37/37/37
f 38/38/38 37/37/37 39/39/39
f 40/40/40 38/38/38 39/39/39
f 40/40/40 39/39/39 41/41/41
f 39/39/39 42/42/42 41/41/41
f 42/42/42 43/43/43 41/41/41
f 43/43/43 44/44/44 41/41/41
f 44/44/44 43/43/43 45/45/45
f 46/46/46 44/44/44 45/45/45
f 46/46/46 45/45/45 47/47/47
f 48/48/48 46/46/46 47/47/47
f 48/48/48 47/47/47 49/49/49
f 47/47/47 50/50/50 49/49/49
f 50/50/50 51/51/51 49/49/49
f 51/51/51 52/52/52 49/49/49
f 52/52/52 51/51/51 53/53/53
f 54/54/54 52/52/52 53/53/53
f 54/54/54 53/53/53 55/55/55
f 56/56/56 54/54/54 55/55/55
f 56/56/56 55/55/55 57/57/57
f 55/55/55 58/58/58 57/57/57
f 58/58/58 59/59/59 57/57/57
f 59/59/59 60/60/60 57/57/57
f 60/60/60 59/59/59 61/61/61
f 62/62/62 60/60/60 61/61/61
f 62/62/62 61/61/61 63/63/63
f 64/64/64 62/62/62 63/63/63
f 64/64/64 63/63/63 65/65/65
f 66/66/66 64/64/64 65/65/65
