g fxmesh_bone01
v 0.06844421 0.2266786 0.02747863
v 0.06094299 0.2085558 -0.02539127
v 0.06177215 0.209375 0.03375506
v -0.04470032 0.2495715 -0.02710183
v -0.06844421 0.2353044 0.007863767
v -0.06310577 0.2165028 -0.02560647
v -0.002205811 -0.08493821 -0.02383473
v 0.01614288 -0.05739336 -0.02519516
v -0.002261658 -0.06190246 -0.02405463
v -0.002871704 0.1901371 -0.02646058
v 0.02648285 0.1892311 -0.01953973
v 0.03507461 0.1867388 0.00672879
v 0.02508133 -0.04340957 0.006842507
v 0.01800293 -0.05041431 0.02816392
v 0.02590347 0.1959101 0.03370909
v 0.01800293 -0.05041431 0.02816392
v -0.001960449 -0.07128602 0.03393799
v -0.0246817 -0.06857712 0.03955781
v -0.0246817 -0.06857712 0.03955781
v -0.02509003 -0.0494699 0.03916562
v -0.03033691 0.1960512 0.03412601
v 0.02590347 0.1959101 0.03370909
v -0.02509003 -0.0494699 0.03916562
v -0.0246817 -0.06857712 0.03955781
v -0.02893478 -0.04364632 0.006831844
v -0.03033691 0.1960512 0.03412601
v -0.04017242 0.1859264 0.006705025
v -0.0246817 -0.06857712 0.03955781
v -0.04989319 -0.08149022 0.0305215
v -0.02893478 -0.04364632 0.006831844
v -0.00306488 -0.09518708 0.01160258
v -0.02985702 -0.1001231 0.009707229
v -0.0246817 -0.06857712 0.03955781
v -0.04989319 -0.08149022 0.0305215
v -0.0246817 -0.06857712 0.03955781
v -0.00306488 -0.09518708 0.01160258
v 0.03531814 -0.09128173 0.03114168
v 0.03627929 -0.09146615 -0.01434946
v 0.01614288 -0.05739336 -0.02519516
v 0.04495117 -0.06592451 -0.01394034
v 0.02508133 -0.04340957 0.006842507
v 0.03507461 0.1867388 0.00672879
v 0.02590347 0.1959101 0.03370909
v 0.06177215 0.209375 0.03375506
v -0.0005967712 0.2475456 -0.02129935
v 0.0285437 0.2543228 0.005149153
v 0.0001455688 0.2515089 0.005428694
v -0.04470032 0.2495715 -0.02710183
v -0.06310577 0.2165028 -0.02560647
v -0.04302307 0.2329361 -0.04311426
v -0.002516022 0.2474784 0.03241651
v -0.02693359 0.2595941 0.007435806
v 0.0001455688 0.2515089 0.005428694
v -0.0005967712 0.2475456 -0.02129935
v -0.002368469 0.2344715 -0.03486019
v 0.04866241 0.2428207 -0.02748697
v 0.06094299 0.2085558 -0.02539127
v 0.04866241 0.2428207 -0.02748697
v 0.02627777 0.2219488 -0.04383549
v -0.002516022 0.2474784 0.03241651
v 0.0285437 0.2543228 0.005149153
v 0.03047134 0.2411823 0.05232346
v 0.03047134 0.2411823 0.05232346
v 0.02099335 0.2190207 0.05652324
v -0.002516022 0.2474784 0.03241651
v -0.02693359 0.2595941 0.007435806
v -0.06844421 0.2353044 0.007863767
v -0.04470032 0.2495715 -0.02710183
v -0.0005967712 0.2475456 -0.02129935
v -0.02693359 0.2595941 0.007435806
v -0.04470032 0.2495715 -0.02710183
v 0.04495117 -0.06592451 -0.01394034
v 0.01614288 -0.05739336 -0.02519516
v 0.03627929 -0.09146615 -0.01434946
v 0.0449002 -0.06523047 0.03041768
v 0.02508133 -0.04340957 0.006842507
v 0.05320801 -0.07759067 0.008298424
v 0.01800293 -0.05041431 0.02816392
v 0.0449002 -0.06523047 0.03041768
v -0.001960449 -0.07128602 0.03393799
v -0.04989319 -0.08149022 0.0305215
v -0.04930954 -0.0688872 -0.01278356
v -0.02893478 -0.04364632 0.006831844
v -0.02210205 -0.05144062 -0.01436063
v -0.04930954 -0.0688872 -0.01278356
v -0.03346268 -0.08225442 -0.02450682
v -0.03346268 -0.08225442 -0.02450682
v -0.002205811 -0.08493821 -0.02383473
v -0.02210205 -0.05144062 -0.01436063
v 0.0449002 -0.06523047 0.03041768
v 0.03531814 -0.09128173 0.03114168
v -0.001960449 -0.07128602 0.03393799
v 0.05320801 -0.07759067 0.008298424
v 0.03531814 -0.09128173 0.03114168
v 0.0449002 -0.06523047 0.03041768
v 0.02508133 -0.04340957 0.006842507
v 0.04495117 -0.06592451 -0.01394034
v 0.05320801 -0.07759067 0.008298424
v 0.01614288 -0.05739336 -0.02519516
v -0.002205811 -0.08493821 -0.02383473
v 0.03627929 -0.09146615 -0.01434946
v -0.04302307 0.2329361 -0.04311426
v -0.002368469 0.2344715 -0.03486019
v -0.04470032 0.2495715 -0.02710183
v -0.0005967712 0.2475456 -0.02129935
v -0.02693359 0.2595941 0.007435806
v -0.0304245 0.2289696 0.05417894
v -0.06844421 0.2353044 0.007863767
v -0.0626184 0.2181436 0.03941336
v -0.02693359 0.2595941 0.007435806
v -0.002516022 0.2474784 0.03241651
v -0.0304245 0.2289696 0.05417894
v 0.0285437 0.2543228 0.005149153
v 0.06844421 0.2266786 0.02747863
v 0.03047134 0.2411823 0.05232346
v 0.04866241 0.2428207 -0.02748697
v 0.06094299 0.2085558 -0.02539127
v 0.06844421 0.2266786 0.02747863
v 0.0285437 0.2543228 0.005149153
v 0.04866241 0.2428207 -0.02748697
v 0.06844421 0.2266786 0.02747863
v 0.0285437 0.2543228 0.005149153
v -0.0005967712 0.2475456 -0.02129935
v 0.04866241 0.2428207 -0.02748697
v 0.04866241 0.2428207 -0.02748697
v -0.002368469 0.2344715 -0.03486019
v 0.02627777 0.2219488 -0.04383549
v -0.02693359 0.2595941 0.007435806
v -0.0005967712 0.2475456 -0.02129935
v 0.0001455688 0.2515089 0.005428694
v -0.03033691 0.1960512 0.03412601
v -0.0626184 0.2181436 0.03941336
v -0.0304245 0.2289696 0.05417894
v -0.04017242 0.1859264 0.006705025
v -0.0626184 0.2181436 0.03941336
v -0.03033691 0.1960512 0.03412601
v -0.03020187 0.1949246 -0.02066556
v -0.06310577 0.2165028 -0.02560647
v -0.04017242 0.1859264 0.006705025
v -0.03020187 0.1949246 -0.02066556
v -0.002368469 0.2344715 -0.03486019
v -0.04302307 0.2329361 -0.04311426
v -0.06310577 0.2165028 -0.02560647
v -0.03020187 0.1949246 -0.02066556
v -0.04302307 0.2329361 -0.04311426
v 0.0285437 0.2543228 0.005149153
v -0.002516022 0.2474784 0.03241651
v 0.0001455688 0.2515089 0.005428694
v 0.02648285 0.1892311 -0.01953973
v 0.06094299 0.2085558 -0.02539127
v 0.02627777 0.2219488 -0.04383549
v -0.002871704 0.1901371 -0.02646058
v 0.06177215 0.209375 0.03375506
v 0.06094299 0.2085558 -0.02539127
v 0.02648285 0.1892311 -0.01953973
v 0.02648285 0.1892311 -0.01953973
v 0.03507461 0.1867388 0.00672879
v 0.06177215 0.209375 0.03375506
v 0.06177215 0.209375 0.03375506
v 0.02590347 0.1959101 0.03370909
v 0.02099335 0.2190207 0.05652324
v 0.03047134 0.2411823 0.05232346
v 0.06844421 0.2266786 0.02747863
v 0.02099335 0.2190207 0.05652324
v 0.06844421 0.2266786 0.02747863
v 0.06177215 0.209375 0.03375506
v 0.02099335 0.2190207 0.05652324
v 0.0449002 -0.06523047 0.03041768
v 0.01800293 -0.05041431 0.02816392
v 0.02508133 -0.04340957 0.006842507
v 0.03531814 -0.09128173 0.03114168
v -0.00306488 -0.09518708 0.01160258
v -0.001960449 -0.07128602 0.03393799
v -0.02985702 -0.1001231 0.009707229
v -0.00306488 -0.09518708 0.01160258
v -0.03346268 -0.08225442 -0.02450682
v -0.00306488 -0.09518708 0.01160258
v -0.002205811 -0.08493821 -0.02383473
v -0.03346268 -0.08225442 -0.02450682
v -0.04930954 -0.0688872 -0.01278356
v -0.02210205 -0.05144062 -0.01436063
v -0.02893478 -0.04364632 0.006831844
v -0.02210205 -0.05144062 -0.01436063
v -0.03020187 0.1949246 -0.02066556
v -0.04017242 0.1859264 0.006705025
v -0.02893478 -0.04364632 0.006831844
v 0.02648285 0.1892311 -0.01953973
v 0.01614288 -0.05739336 -0.02519516
v 0.02508133 -0.04340957 0.006842507
v 0.03507461 0.1867388 0.00672879
v -0.002261658 -0.06190246 -0.02405463
v -0.02210205 -0.05144062 -0.01436063
v -0.002205811 -0.08493821 -0.02383473
v -0.002871704 0.1901371 -0.02646058
v -0.03020187 0.1949246 -0.02066556
v -0.0626184 0.2181436 0.03941336
v -0.04017242 0.1859264 0.006705025
v -0.06844421 0.2353044 0.007863767
v -0.04017242 0.1859264 0.006705025
v -0.06310577 0.2165028 -0.02560647
v -0.06844421 0.2353044 0.007863767
v 0.02590347 0.1959101 0.03370909
v -0.03033691 0.1960512 0.03412601
v 0.02099335 0.2190207 0.05652324
v -0.03033691 0.1960512 0.03412601
v -0.0304245 0.2289696 0.05417894
v 0.02099335 0.2190207 0.05652324
v -0.03020187 0.1949246 -0.02066556
v -0.002871704 0.1901371 -0.02646058
v -0.002368469 0.2344715 -0.03486019
v -0.002368469 0.2344715 -0.03486019
v -0.002871704 0.1901371 -0.02646058
v 0.02627777 0.2219488 -0.04383549
v -0.002205811 -0.08493821 -0.02383473
v -0.00306488 -0.09518708 0.01160258
v 0.03627929 -0.09146615 -0.01434946
v 0.03627929 -0.09146615 -0.01434946
v 0.03531814 -0.09128173 0.03114168
v 0.05320801 -0.07759067 0.008298424
v 0.05320801 -0.07759067 0.008298424
v 0.04495117 -0.06592451 -0.01394034
v 0.03627929 -0.09146615 -0.01434946
v -0.02985702 -0.1001231 0.009707229
v -0.03346268 -0.08225442 -0.02450682
v -0.04930954 -0.0688872 -0.01278356
v -0.04989319 -0.08149022 0.0305215
v -0.02985702 -0.1001231 0.009707229
v -0.04930954 -0.0688872 -0.01278356
v 0.02099335 0.2190207 0.05652324
v -0.0304245 0.2289696 0.05417894
v -0.002516022 0.2474784 0.03241651
v -0.00306488 -0.09518708 0.01160258
v -0.0246817 -0.06857712 0.03955781
v -0.001960449 -0.07128602 0.03393799
vt 0.3966666 0.5625
vt 0.4074999 0.75
vt 0.4074999 0.5
vt 0.3858333 0
vt 0.3966666 0.125
vt 0.4074999 0
vt 0.6033334 0.90625
vt 0.5925 0.78125
vt 0.5878408 0.903633
vt 0.4183332 0.875
vt 0.4183332 0.75
vt 0.4183332 0.625
vt 0.5816667 0.625
vt 0.5816667 0.5
vt 0.4183332 0.5
vt 0.5816667 0.5
vt 0.6658334 0.34375
vt 0.6610417 0.2734375
vt 0.6610417 0.2734375
vt 0.6435171 0.2717452
vt 0.4183332 0.25
vt 0.4183332 0.5
vt 0.6435171 0.2717452
vt 0.6610417 0.2734375
vt 0.5816667 0.125
vt 0.4183332 0.25
vt 0.4183332 0.125
vt 0.6610417 0.2734375
vt 0.6033334 0.25
vt 0.5816667 0.125
vt 0.75 0.15625
vt 0.625 0.125
vt 0.6610417 0.2734375
vt 0.6033334 0.25
vt 0.6610417 0.2734375
vt 0.75 0.15625
vt 0.6141667 0.5
vt 0.6141667 0.75
vt 0.5925 0.78125
vt 0.5925 0.75
vt 0.5816667 0.625
vt 0.4183332 0.625
vt 0.4183332 0.5
vt 0.4074999 0.5
vt 0.3804167 0.890625
vt 0.375 0.625
vt 0.34375 0.625
vt 0.3858333 0
vt 0.4074999 0
vt 0.3654166 0
vt 0.3125 0.375
vt 0.375 0.125
vt 0.28125 0.1875
vt 0.3804167 0.890625
vt 0.3966666 0.90625
vt 0.3858333 0.75
vt 0.4074999 0.75
vt 0.3858333 0.75
vt 0.3966666 0.78125
vt 0.3125 0.375
vt 0.375 0.625
vt 0.3623958 0.453125
vt 0.3623958 0.453125
vt 0.3918749 0.46875
vt 0.3125 0.375
vt 0.375 0.125
vt 0.3966666 0.125
vt 0.3858333 0
vt 0.2710417 0
vt 0.375 0.125
vt 0.3858333 0
vt 0.5925 0.75
vt 0.5925 0.78125
vt 0.6141667 0.75
vt 0.5925 0.5
vt 0.5816667 0.625
vt 0.6033334 0.625
vt 0.5816667 0.5
vt 0.5925 0.5
vt 0.6658334 0.34375
vt 0.6033334 0.25
vt 0.5925 0
vt 0.5816667 0.125
vt 0.6027083 0
vt 0.5925 0
vt 0.6345834 0
vt 0.6345834 0
vt 0.6658334 0
vt 0.6027083 0
vt 0.5925 0.5
vt 0.6141667 0.5
vt 0.6658334 0.34375
vt 0.6033334 0.625
vt 0.6141667 0.5
vt 0.5925 0.5
vt 0.5816667 0.625
vt 0.5925 0.75
vt 0.6033334 0.625
vt 0.5925 0.78125
vt 0.6033334 0.90625
vt 0.6141667 0.75
vt 0.3654166 0
vt 0.3341666 0
vt 0.3858333 0
vt 0.2710417 0
vt 0.375 0.125
vt 0.3741146 0.2734375
vt 0.3966666 0.125
vt 0.4074999 0.25
vt 0.375 0.125
vt 0.3125 0.375
vt 0.3741146 0.2734375
vt 0.375 0.625
vt 0.3966666 0.5625
vt 0.3623958 0.453125
vt 0.3858333 0.75
vt 0.4074999 0.75
vt 0.3966666 0.5625
vt 0.375 0.625
vt 0.3858333 0.75
vt 0.3966666 0.5625
vt 0.375 0.625
vt 0.3804167 0.890625
vt 0.3858333 0.75
vt 0.3858333 0.75
vt 0.3966666 0.90625
vt 0.3966666 0.78125
vt 0.375 0.125
vt 0.2710417 0
vt 0.28125 0.1875
vt 0.4183332 0.25
vt 0.4074999 0.25
vt 0.3741146 0.2734375
vt 0.4183332 0.125
vt 0.4074999 0.25
vt 0.4183332 0.25
vt 0.3972916 0
vt 0.4074999 0
vt 0.4183332 0.125
vt 0.3972916 0
vt 0.3341666 0
vt 0.3654166 0
vt 0.4074999 0
vt 0.3972916 0
vt 0.3654166 0
vt 0.375 0.625
vt 0.3125 0.375
vt 0.34375 0.625
vt 0.4183332 0.75
vt 0.4074999 0.75
vt 0.3966666 0.78125
vt 0.4183332 0.875
vt 0.4074999 0.5
vt 0.4074999 0.75
vt 0.4183332 0.75
vt 0.4183332 0.75
vt 0.4183332 0.625
vt 0.4074999 0.5
vt 0.4074999 0.5
vt 0.4183332 0.5
vt 0.3918749 0.46875
vt 0.3623958 0.453125
vt 0.3966666 0.5625
vt 0.3918749 0.46875
vt 0.3966666 0.5625
vt 0.4074999 0.5
vt 0.3918749 0.46875
vt 0.5925 0.5
vt 0.5816667 0.5
vt 0.5816667 0.625
vt 0.6141667 0.5
vt 0.75 0.15625
vt 0.6658334 0.34375
vt 0.625 0.125
vt 0.75 0.15625
vt 0.6345834 0
vt 0.75 0.15625
vt 0.6658334 0
vt 0.6345834 0
vt 0.5925 0
vt 0.6027083 0
vt 0.5816667 0.125
vt 0.6027083 0
vt 0.3972916 0
vt 0.4183332 0.125
vt 0.5816667 0.125
vt 0.4183332 0.75
vt 0.5925 0.78125
vt 0.5816667 0.625
vt 0.4183332 0.625
vt 0.5878408 0.903633
vt 0.5870833 0.984375
vt 0.6033334 0.90625
vt 0.4183332 0.875
vt 0.4129166 0.984375
vt 0.4074999 0.25
vt 0.4183332 0.125
vt 0.3966666 0.125
vt 0.4183332 0.125
vt 0.4074999 0
vt 0.3966666 0.125
vt 0.4183332 0.5
vt 0.4183332 0.25
vt 0.3918749 0.46875
vt 0.4183332 0.25
vt 0.3741146 0.2734375
vt 0.3918749 0.46875
vt 0.4129166 0.984375
vt 0.4183332 0.875
vt 0.3966666 0.90625
vt 0.3966666 0.90625
vt 0.4183332 0.875
vt 0.3966666 0.78125
vt 0.6033334 0.90625
vt 0.75 0.15625
vt 0.6141667 0.75
vt 0.6141667 0.75
vt 0.6141667 0.5
vt 0.6033334 0.625
vt 0.6033334 0.625
vt 0.5925 0.75
vt 0.6141667 0.75
vt 0.625 0.125
vt 0.6345834 0
vt 0.5925 0
vt 0.6033334 0.25
vt 0.625 0.125
vt 0.5925 0
vt 0.3918749 0.46875
vt 0.3741146 0.2734375
vt 0.3125 0.375
vt 0.75 0.15625
vt 0.6610417 0.2734375
vt 0.6658334 0.34375
vn 0.9320282 -0.3622964 -0.008047667
vn 0.9320282 -0.3622964 -0.008047667
vn 0.9320282 -0.3622964 -0.008047667
vn -0.8167483 0.4375941 -0.3760768
vn -0.8167483 0.4375941 -0.3760769
vn -0.8167483 0.4375942 -0.3760768
vn -0.05948785 -0.009672588 -0.9981822
vn 0.1173566 0.003938172 -0.9930821
vn 0.1116859 0.003499221 -0.9937375
vn 0.1198459 0.004130922 -0.9927839
vn 0.1198459 0.004130922 -0.9927839
vn 0.9465417 -0.03919795 0.3201914
vn 0.9465417 -0.03919795 0.3201914
vn 0.9465417 -0.03919795 0.3201914
vn 0.9465417 -0.03919795 0.3201914
vn 0.1179543 -0.0007709726 0.9930187
vn 0.2462718 0.02895598 0.9687682
vn 0.2462718 0.02895598 0.9687682
vn 0.2462718 0.02895598 0.9687682
vn 0.1210208 -6.63945E-05 0.99265
vn 0.1141827 -0.00163716 0.9934584
vn 0.1141827 -0.001637159 0.9934584
vn -0.9751245 -0.0307019 0.2195213
vn -0.9932202 -0.01888401 0.1147034
vn -0.9740961 -0.03120213 0.2239716
vn -0.9738085 -0.03134015 0.2251997
vn -0.9738085 -0.03134015 0.2251997
vn -0.5279882 0.6410859 0.5569896
vn -0.5279882 0.6410859 0.5569896
vn -0.5279882 0.6410859 0.5569896
vn 0.07668594 -0.6919007 0.7179086
vn 0.07668593 -0.6919007 0.7179086
vn 0.07668593 -0.6919007 0.7179086
vn 0.09850352 -0.6924602 0.7146999
vn 0.09850352 -0.6924602 0.7146999
vn 0.09814543 -0.9951533 0.006108437
vn 0.09814543 -0.9951533 0.006108437
vn 0.09814542 -0.9951533 0.006108436
vn 0.4122954 0.7871932 -0.4586276
vn 0.4122954 0.7871932 -0.4586277
vn 0.4122955 0.7871932 -0.4586276
vn 0.3215217 -0.8578504 0.4008945
vn 0.3215217 -0.8578504 0.4008945
vn 0.3215217 -0.8578504 0.4008945
vn -0.09898373 0.9847211 -0.1432707
vn -0.09898371 0.9847211 -0.1432707
vn -0.09898371 0.9847211 -0.1432707
vn -0.7662069 0.4038571 -0.4998264
vn -0.7662069 0.4038571 -0.4998264
vn -0.7662069 0.4038571 -0.4998264
vn 0.2934693 0.9408305 0.169452
vn 0.2934693 0.9408305 0.169452
vn 0.2934693 0.9408305 0.169452
vn -0.01786484 0.7209598 -0.6927466
vn -0.01786484 0.7209598 -0.6927466
vn -0.01786485 0.7209598 -0.6927466
vn 0.5040414 0.1284108 -0.8540801
vn 0.5040415 0.1284108 -0.8540801
vn 0.5040415 0.1284108 -0.8540801
vn 0.02248473 0.9633178 0.2674198
vn 0.02248473 0.9633178 0.2674198
vn 0.02248473 0.9633178 0.2674198
vn -0.4361157 0.3440932 0.8315064
vn -0.4361157 0.3440932 0.8315064
vn -0.4361157 0.3440932 0.8315064
vn -0.5049456 0.8631012 0.00928569
vn -0.5049458 0.8631011 0.009285692
vn -0.5049457 0.8631012 0.009285692
vn 0.08519543 0.9443034 -0.3178566
vn 0.08519544 0.9443034 -0.3178566
vn 0.08519546 0.9443034 -0.3178566
vn 0.3364657 -0.09923785 -0.9364522
vn 0.3364657 -0.09923785 -0.9364522
vn 0.3364657 -0.09923787 -0.9364522
vn 0.7719439 0.6325105 -0.06350731
vn 0.7719439 0.6325105 -0.0635073
vn 0.7719439 0.6325105 -0.0635073
vn 0.04370619 0.227328 0.972837
vn 0.04370619 0.227328 0.972837
vn 0.04370619 0.227328 0.972837
vn -0.8227402 0.5486535 0.1485865
vn -0.8227401 0.5486536 0.1485865
vn -0.8227402 0.5486535 0.1485865
vn -0.305013 0.3974254 -0.8654595
vn -0.305013 0.3974254 -0.8654595
vn -0.305013 0.3974254 -0.8654594
vn 0.04601536 0.2970797 -0.9537433
vn 0.04601536 0.2970797 -0.9537433
vn 0.04601536 0.2970797 -0.9537433
vn 0.07489046 0.0001675021 0.9971917
vn 0.07489047 0.0001675021 0.9971917
vn 0.07489046 0.0001675021 0.9971917
vn 0.8300829 -0.2921157 0.4750061
vn 0.8300829 -0.2921156 0.475006
vn 0.8300829 -0.2921156 0.475006
vn 0.7703088 0.6358936 0.0475787
vn 0.7703088 0.6358936 0.04757869
vn 0.7703088 0.6358936 0.0475787
vn 0.2055963 -0.184423 -0.9611027
vn 0.2055962 -0.184423 -0.9611027
vn 0.2055962 -0.184423 -0.9611027
vn 0.1178069 0.6947994 -0.7094895
vn 0.1178069 0.6947994 -0.7094895
vn 0.1178069 0.6947994 -0.7094895
vn 0.1241475 0.7061839 -0.6970595
vn -0.4427122 0.764823 0.4680295
vn -0.4427123 0.764823 0.4680295
vn -0.4427123 0.764823 0.4680295
vn -0.4707606 0.7356358 0.4870569
vn -0.1347891 0.8334138 0.5359601
vn -0.1347891 0.833414 0.5359601
vn -0.1347891 0.8334138 0.5359601
vn 0.4698963 0.8551252 0.2189942
vn 0.4698963 0.8551252 0.2189942
vn 0.4698963 0.8551252 0.2189942
vn 0.9187971 0.3147262 -0.2382419
vn 0.9187971 0.3147262 -0.2382418
vn 0.9187971 0.3147262 -0.2382419
vn 0.5512741 0.8330416 0.04624452
vn 0.5512741 0.8330416 0.04624452
vn 0.5512741 0.8330416 0.04624453
vn 0.05327629 0.9516441 -0.3025479
vn 0.05327629 0.9516441 -0.3025479
vn 0.0532763 0.9516441 -0.302548
vn 0.01575243 0.6060369 -0.7952805
vn 0.01575243 0.6060368 -0.7952805
vn 0.01575243 0.6060368 -0.7952805
vn 0.2727968 0.950538 -0.1485246
vn 0.2727968 0.950538 -0.1485246
vn 0.2727968 0.950538 -0.1485246
vn -0.2115877 -0.5088766 0.8344311
vn -0.2115877 -0.5088766 0.8344311
vn -0.2115877 -0.5088765 0.8344311
vn -0.4540477 -0.7705228 0.4473649
vn -0.4540477 -0.7705228 0.4473649
vn -0.4540477 -0.7705228 0.4473649
vn -0.4517069 -0.7856112 -0.4228189
vn -0.4517069 -0.7856112 -0.422819
vn -0.451707 -0.7856112 -0.422819
vn 0.1940084 -0.4495162 -0.8719496
vn 0.1940083 -0.4495162 -0.8719496
vn 0.1940084 -0.4495162 -0.8719496
vn -0.2427496 -0.5527074 -0.7972372
vn -0.2427495 -0.5527074 -0.7972372
vn -0.2427496 -0.5527074 -0.7972373
vn -0.09631981 0.9857767 0.1377202
vn -0.09631982 0.9857767 0.1377202
vn -0.09631979 0.9857767 0.1377202
vn 0.1937139 -0.5841091 -0.7882205
vn 0.1937139 -0.5841091 -0.7882205
vn 0.1937139 -0.5841091 -0.7882205
vn 0.1685788 -0.5869694 -0.7918637
vn 0.4897899 -0.8718249 0.005209255
vn 0.4897899 -0.8718249 0.005209255
vn 0.4897899 -0.8718249 0.005209255
vn 0.776706 -0.5503924 -0.3062612
vn 0.776706 -0.5503924 -0.3062612
vn 0.776706 -0.5503924 -0.3062612
vn 0.2447182 -0.6543396 0.7155088
vn 0.2447182 -0.6543396 0.7155088
vn 0.2447182 -0.6543396 0.7155088
vn 0.5286272 -0.06569966 0.8463078
vn 0.5286272 -0.06569965 0.8463078
vn 0.5286271 -0.06569966 0.8463078
vn 0.5049287 0.1155782 0.8553881
vn 0.5049287 0.1155782 0.8553881
vn 0.5049286 0.1155782 0.855388
vn 0.4147805 0.8146514 0.4053396
vn 0.4147806 0.8146514 0.4053397
vn 0.4147806 0.8146514 0.4053396
vn -0.2933205 -0.6454701 0.7052172
vn -0.2933205 -0.6454703 0.7052172
vn -0.2933205 -0.6454703 0.7052172
vn 0.1919698 -0.8614619 -0.4701394
vn 0.1919699 -0.8614619 -0.4701394
vn 0.1919698 -0.8614618 -0.4701394
vn -0.07620617 -0.9573438 -0.2787212
vn -0.07620617 -0.9573438 -0.2787213
vn -0.07620617 -0.9573438 -0.2787213
vn -0.5034389 0.7456362 -0.4365502
vn -0.5034389 0.7456361 -0.4365503
vn -0.5034389 0.7456362 -0.4365502
vn -0.9438351 -0.04277513 -0.3276365
vn -0.9438351 -0.04277513 -0.3276365
vn -0.9438351 -0.04277514 -0.3276365
vn -0.9438351 -0.04277513 -0.3276365
vn 0.9589953 -0.03763323 -0.2809123
vn 0.9589953 -0.03763322 -0.2809123
vn 0.9589953 -0.03763322 -0.2809123
vn 0.9589953 -0.03763322 -0.2809123
vn -0.3270732 -0.02128448 -0.9447594
vn -0.319749 -0.021992 -0.947247
vn -0.4430747 -0.009631338 -0.8964329
vn -0.3183468 -0.0221271 -0.9477161
vn -0.3183468 -0.0221271 -0.9477161
vn -0.8638258 -0.4920494 -0.1081316
vn -0.8638258 -0.4920494 -0.1081316
vn -0.8638258 -0.4920494 -0.1081316
vn -0.8577257 -0.494417 0.1409204
vn -0.8577256 -0.494417 0.1409204
vn -0.8577257 -0.4944168 0.1409203
vn 0.003516056 -0.7021438 0.7120265
vn 0.003516055 -0.7021438 0.7120265
vn 0.003516056 -0.7021439 0.7120265
vn -0.1383017 -0.5155104 0.8456486
vn -0.1383017 -0.5155104 0.8456486
vn -0.1383017 -0.5155105 0.8456486
vn -0.2339084 -0.1784175 -0.9557479
vn -0.2339084 -0.1784175 -0.9557479
vn -0.2339084 -0.1784175 -0.9557479
vn -0.3614061 -0.1696061 -0.916853
vn -0.361406 -0.1696061 -0.916853
vn -0.3614061 -0.1696061 -0.916853
vn -0.0934394 -0.9558213 -0.2787018
vn -0.09343939 -0.9558213 -0.2787017
vn -0.09343942 -0.9558213 -0.2787018
vn 0.6206925 -0.7838848 0.01629202
vn 0.6206926 -0.7838848 0.01629202
vn 0.6206925 -0.7838848 0.01629202
vn 0.8432792 -0.278938 -0.4594276
vn 0.8432793 -0.278938 -0.4594275
vn 0.8432792 -0.278938 -0.4594275
vn -0.7269422 -0.637137 -0.2561476
vn -0.7269422 -0.637137 -0.2561476
vn -0.7269421 -0.637137 -0.2561477
vn -0.7667595 -0.6135171 -0.1888826
vn -0.7667595 -0.6135171 -0.1888826
vn -0.7667594 -0.613517 -0.1888826
vn 0.1008962 0.690284 0.7164692
vn 0.1008962 0.6902839 0.7164692
vn 0.1008962 0.6902839 0.7164692
vn 0.09798565 -0.6818915 0.7248606
vn 0.09798564 -0.6818914 0.7248606
vn 0.09798564 -0.6818915 0.7248606
g fxmesh_bone01_0
f 3/3/3 2/2/2 1/1/1
f 6/6/6 5/5/5 4/4/4
f 9/9/9 8/8/8 7/7/7
f 9/9/9 10/10/10 8/8/8
f 10/10/10 11/11/11 8/8/8
f 14/14/14 13/13/13 12/12/12
f 15/15/15 14/14/14 12/12/12
f 18/18/18 17/17/17 16/16/16
f 20/20/20 19/19/19 16/16/16
f 21/21/21 20/20/20 16/16/16
f 22/22/22 21/21/21 16/16/16
f 25/25/25 24/24/24 23/23/23
f 25/25/25 23/23/23 26/26/26
f 27/27/27 25/25/25 26/26/26
f 30/30/30 29/29/29 28/28/28
f 33/33/33 32/32/32 31/31/31
f 35/35/35 34/34/34 32/32/32
f 38/38/38 37/37/37 36/36/36
f 41/41/41 40/40/40 39/39/39
f 44/44/44 43/43/43 42/42/42
f 47/47/47 46/46/46 45/45/45
f 50/50/50 49/49/49 48/48/48
f 53/53/53 52/52/52 51/51/51
f 56/56/56 55/55/55 54/54/54
f 59/59/59 58/58/58 57/57/57
f 62/62/62 61/61/61 60/60/60
f 65/65/65 64/64/64 63/63/63
f 68/68/68 67/67/67 66/66/66
f 71/71/71 70/70/70 69/69/69
f 74/74/74 73/73/73 72/72/72
f 77/77/77 76/76/76 75/75/75
f 80/80/80 79/79/79 78/78/78
f 83/83/83 82/82/82 81/81/81
f 86/86/86 85/85/85 84/84/84
f 89/89/89 88/88/88 87/87/87
f 92/92/92 91/91/91 90/90/90
f 95/95/95 94/94/94 93/93/93
f 98/98/98 97/97/97 96/96/96
f 101/101/101 100/100/100 99/99/99
f 104/104/104 103/103/103 102/102/102
f 104/104/104 105/105/105 103/103/103
f 108/108/108 107/107/107 106/106/106
f 109/109/109 107/107/107 108/108/108
f 112/112/112 111/111/111 110/110/110
f 115/115/115 114/114/114 113/113/113
f 118/118/118 117/117/117 116/116/116
f 121/121/121 120/120/120 119/119/119
f 124/124/124 123/123/123 122/122/122
f 127/127/127 126/126/126 125/125/125
f 130/130/130 129/129/129 128/128/128
f 133/133/133 132/132/132 131/131/131
f 136/136/136 135/135/135 134/134/134
f 139/139/139 138/138/138 137/137/137
f 142/142/142 141/141/141 140/140/140
f 145/145/145 144/144/144 143/143/143
f 148/148/148 147/147/147 146/146/146
f 151/151/151 150/150/150 149/149/149
f 151/151/151 149/149/149 152/152/152
f 155/155/155 154/154/154 153/153/153
f 158/158/158 157/157/157 156/156/156
f 161/161/161 160/160/160 159/159/159
f 164/164/164 163/163/163 162/162/162
f 167/167/167 166/166/166 165/165/165
f 170/170/170 169/169/169 168/168/168
f 173/173/173 172/172/172 171/171/171
f 176/176/176 175/175/175 174/174/174
f 179/179/179 178/178/178 177/177/177
f 182/182/182 181/181/181 180/180/180
f 185/185/185 184/184/184 183/183/183
f 186/186/186 185/185/185 183/183/183
f 189/189/189 188/188/188 187/187/187
f 190/190/190 189/189/189 187/187/187
f 193/193/193 192/192/192 191/191/191
f 191/191/191 192/192/192 194/194/194
f 192/192/192 195/195/195 194/194/194
f 198/198/198 197/197/197 196/196/196
f 201/201/201 200/200/200 199/199/199
f 204/204/204 203/203/203 202/202/202
f 207/207/207 206/206/206 205/205/205
f 210/210/210 209/209/209 208/208/208
f 213/213/213 212/212/212 211/211/211
f 216/216/216 215/215/215 214/214/214
f 219/219/219 218/218/218 217/217/217
f 222/222/222 221/221/221 220/220/220
f 225/225/225 224/224/224 223/223/223
f 228/228/228 227/227/227 226/226/226
f 231/231/231 230/230/230 229/229/229
f 234/234/234 233/233/233 232/232/232
