g fxmesh_curvedPLane
v -0.1475146 -0.03770224 -0.2386835
v -0.0001741409 -0.03772932 -0.2806199
v -0.08667038 0.006400169 -0.2270009
v -0.1475146 -0.03770224 -0.2386835
v -0.08667038 0.006400169 -0.2270009
v -0.2270469 -0.01047578 -0.1402762
v 0.1475153 -0.03770227 -0.2386845
v 0.2270478 -0.01047569 -0.1402768
v 0.08667072 0.006400317 -0.2270017
v 0.1475151 -0.03770229 0.2386841
v 0.0001721573 -0.03767521 0.2806192
v 0.08667057 0.006400241 0.2270014
v 0.2387069 0.008666185 5.722046E-08
v 0.2270476 -0.0104757 0.1402766
v 0.1403781 0.03363398 0.08672943
v -0.2387064 0.008666066 -9.536743E-08
v -0.2270472 -0.01047577 0.1402764
v -0.2806188 -0.03767521 0.0001721382
v -0.1475149 -0.03770226 0.238684
v -0.2270472 -0.01047577 0.1402764
v -0.08667055 0.006400202 0.2270013
v 0.2387069 0.008666185 5.722046E-08
v 0.1403781 0.03363398 0.08672943
v 0.1403782 0.033634 -0.08672944
v -0.2387064 0.008666066 -9.536743E-08
v -0.140378 0.03363389 -0.08672933
v -0.1403781 0.03363393 0.08672934
v -0.140378 0.03363389 -0.08672933
v 0 0.03732352 -0.1475291
v -1.367731E-06 0.05049762 -8.611096E-05
v -1.367731E-06 0.05049762 -8.611096E-05
v -4.768371E-08 0.03732346 0.147529
v -0.1403781 0.03363393 0.08672934
v -0.140378 0.03363389 -0.08672933
v -1.367731E-06 0.05049762 -8.611096E-05
v -0.1403781 0.03363393 0.08672934
v 0.1403781 0.03363398 0.08672943
v -4.768371E-08 0.03732346 0.147529
v -1.367731E-06 0.05049762 -8.611096E-05
v -1.367731E-06 0.05049762 -8.611096E-05
v 0 0.03732352 -0.1475291
v 0.1403782 0.033634 -0.08672944
v 0.1403781 0.03363398 0.08672943
v -1.367731E-06 0.05049762 -8.611096E-05
v 0.1403782 0.033634 -0.08672944
v -0.2270472 -0.01047577 0.1402764
v -0.2387064 0.008666066 -9.536743E-08
v -0.1403781 0.03363393 0.08672934
v -0.1403781 0.03363393 0.08672934
v -4.768371E-08 0.03732346 0.147529
v -0.08667055 0.006400202 0.2270013
v -0.2270472 -0.01047577 0.1402764
v -0.1403781 0.03363393 0.08672934
v -0.08667055 0.006400202 0.2270013
v 0.2270476 -0.0104757 0.1402766
v 0.1475151 -0.03770229 0.2386841
v 0.08667057 0.006400241 0.2270014
v 0.08667057 0.006400241 0.2270014
v -4.768371E-08 0.03732346 0.147529
v 0.1403781 0.03363398 0.08672943
v 0.2270476 -0.0104757 0.1402766
v 0.08667057 0.006400241 0.2270014
v 0.1403781 0.03363398 0.08672943
v 0.2270476 -0.0104757 0.1402766
v 0.2387069 0.008666185 5.722046E-08
v 0.2806196 -0.03767521 -0.0001721573
v 0.0001721573 -0.03767521 0.2806192
v -0.1475149 -0.03770226 0.238684
v -0.08667055 0.006400202 0.2270013
v -0.08667055 0.006400202 0.2270013
v -4.768371E-08 0.03732346 0.147529
v 0.08667057 0.006400241 0.2270014
v 0.0001721573 -0.03767521 0.2806192
v -0.08667055 0.006400202 0.2270013
v 0.08667057 0.006400241 0.2270014
v 0.2270478 -0.01047569 -0.1402768
v 0.2387069 0.008666185 5.722046E-08
v 0.1403782 0.033634 -0.08672944
v 0.1403782 0.033634 -0.08672944
v 0 0.03732352 -0.1475291
v 0.08667072 0.006400317 -0.2270017
v 0.2270478 -0.01047569 -0.1402768
v 0.1403782 0.033634 -0.08672944
v 0.08667072 0.006400317 -0.2270017
v 0.2806196 -0.03767521 -0.0001721573
v 0.2387069 0.008666185 5.722046E-08
v 0.2270478 -0.01047569 -0.1402768
v -0.08667038 0.006400169 -0.2270009
v 0 0.03732352 -0.1475291
v -0.140378 0.03363389 -0.08672933
v -0.140378 0.03363389 -0.08672933
v -0.2387064 0.008666066 -9.536743E-08
v -0.2270469 -0.01047578 -0.1402762
v -0.08667038 0.006400169 -0.2270009
v -0.140378 0.03363389 -0.08672933
v -0.2270469 -0.01047578 -0.1402762
v -0.2270469 -0.01047578 -0.1402762
v -0.2387064 0.008666066 -9.536743E-08
v -0.2806188 -0.03767521 0.0001721382
v -0.0001741409 -0.03772932 -0.2806199
v 0.1475153 -0.03770227 -0.2386845
v 0.08667072 0.006400317 -0.2270017
v 0.08667072 0.006400317 -0.2270017
v 0 0.03732352 -0.1475291
v -0.08667038 0.006400169 -0.2270009
v -0.0001741409 -0.03772932 -0.2806199
v 0.08667072 0.006400317 -0.2270017
v -0.08667038 0.006400169 -0.2270009
v 0.2270478 -0.01047569 -0.1402768
v 0.1475153 -0.03770227 -0.2386845
v 0.2415895 -0.03860045 -0.149261
v 0.2806196 -0.03767521 -0.0001721573
v 0.2270478 -0.01047569 -0.1402768
v 0.2415895 -0.03860045 -0.149261
v 0.2415892 -0.03787934 0.1492609
v 0.2270476 -0.0104757 0.1402766
v 0.2806196 -0.03767521 -0.0001721573
v 0.1475151 -0.03770229 0.2386841
v 0.2270476 -0.0104757 0.1402766
v 0.2415892 -0.03787934 0.1492609
v -0.2270472 -0.01047577 0.1402764
v -0.1475149 -0.03770226 0.238684
v -0.2415889 -0.03750001 0.1492606
v -0.2270472 -0.01047577 0.1402764
v -0.2415889 -0.03750001 0.1492606
v -0.2806188 -0.03767521 0.0001721382
v -0.2270469 -0.01047578 -0.1402762
v -0.2806188 -0.03767521 0.0001721382
v -0.2415886 -0.03793411 -0.1492605
v -0.1475146 -0.03770224 -0.2386835
v -0.2270469 -0.01047578 -0.1402762
v -0.2415886 -0.03793411 -0.1492605
vt 0.9252788 0.7628381
vt 1 0.500311
vt 0.9044631 0.6544275
vt 0.9252788 0.7628381
vt 0.9044631 0.6544275
vt 0.7499396 0.9045465
vt 0.9252807 0.2371621
vt 0.7499405 0.09545332
vt 0.9044645 0.3455733
vt 0.07471865 0.2371625
vt -2.980232E-08 0.499694
vt 0.09553468 0.3455735
vt 0.4999992 0.07467949
vt 0.2500584 0.0954538
vt 0.3454673 0.249879
vt 0.4999995 0.925321
vt 0.2500589 0.904547
vt 0.4996926 0.9999993
vt 0.07471919 0.7628386
vt 0.2500589 0.904547
vt 0.09553492 0.6544279
vt 0.4999992 0.07467949
vt 0.3454673 0.249879
vt 0.6545314 0.2498788
vt 0.4999995 0.925321
vt 0.6545312 0.7501223
vt 0.3454674 0.7501224
vt 0.6545312 0.7501223
vt 0.7628624 0.5000007
vt 0.5001528 0.5000031
vt 0.5001528 0.5000031
vt 0.2371365 0.5000008
vt 0.3454674 0.7501224
vt 0.6545312 0.7501223
vt 0.5001528 0.5000031
vt 0.3454674 0.7501224
vt 0.3454673 0.249879
vt 0.2371365 0.5000008
vt 0.5001528 0.5000031
vt 0.5001528 0.5000031
vt 0.7628624 0.5000007
vt 0.6545314 0.2498788
vt 0.3454673 0.249879
vt 0.5001528 0.5000031
vt 0.6545314 0.2498788
vt 0.2500589 0.904547
vt 0.4999995 0.925321
vt 0.3454674 0.7501224
vt 0.3454674 0.7501224
vt 0.2371365 0.5000008
vt 0.09553492 0.6544279
vt 0.2500589 0.904547
vt 0.3454674 0.7501224
vt 0.09553492 0.6544279
vt 0.2500584 0.0954538
vt 0.07471865 0.2371625
vt 0.09553468 0.3455735
vt 0.09553468 0.3455735
vt 0.2371365 0.5000008
vt 0.3454673 0.249879
vt 0.2500584 0.0954538
vt 0.09553468 0.3455735
vt 0.3454673 0.249879
vt 0.2500584 0.0954538
vt 0.4999992 0.07467949
vt 0.5003061 6.556511E-07
vt -2.980232E-08 0.499694
vt 0.07471919 0.7628386
vt 0.09553492 0.6544279
vt 0.09553492 0.6544279
vt 0.2371365 0.5000008
vt 0.09553468 0.3455735
vt -2.980232E-08 0.499694
vt 0.09553492 0.6544279
vt 0.09553468 0.3455735
vt 0.7499405 0.09545332
vt 0.4999992 0.07467949
vt 0.6545314 0.2498788
vt 0.6545314 0.2498788
vt 0.7628624 0.5000007
vt 0.9044645 0.3455733
vt 0.7499405 0.09545332
vt 0.6545314 0.2498788
vt 0.9044645 0.3455733
vt 0.5003061 6.556511E-07
vt 0.4999992 0.07467949
vt 0.7499405 0.09545332
vt 0.9044631 0.6544275
vt 0.7628624 0.5000007
vt 0.6545312 0.7501223
vt 0.6545312 0.7501223
vt 0.4999995 0.925321
vt 0.7499396 0.9045465
vt 0.9044631 0.6544275
vt 0.6545312 0.7501223
vt 0.7499396 0.9045465
vt 0.7499396 0.9045465
vt 0.4999995 0.925321
vt 0.4996926 0.9999993
vt 1 0.500311
vt 0.9252807 0.2371621
vt 0.9044645 0.3455733
vt 0.9044645 0.3455733
vt 0.7628624 0.5000007
vt 0.9044631 0.6544275
vt 1 0.500311
vt 0.9044645 0.3455733
vt 0.9044631 0.6544275
vt 0.7499405 0.09545332
vt 0.9252807 0.2371621
vt 0.7659484 0.06954348
vt 0.5003061 6.556511E-07
vt 0.7499405 0.09545332
vt 0.7659484 0.06954348
vt 0.2340505 0.06954396
vt 0.2500584 0.0954538
vt 0.5003061 6.556511E-07
vt 0.07471865 0.2371625
vt 0.2500584 0.0954538
vt 0.2340505 0.06954396
vt 0.2500589 0.904547
vt 0.07471919 0.7628386
vt 0.234051 0.9304569
vt 0.2500589 0.904547
vt 0.234051 0.9304569
vt 0.4996926 0.9999993
vt 0.7499396 0.9045465
vt 0.4996926 0.9999993
vt 0.7659473 0.9304564
vt 0.9252788 0.7628381
vt 0.7499396 0.9045465
vt 0.7659473 0.9304564
vn -0.2312859 0.5344327 -0.8129506
vn -0.2312859 0.5344327 -0.8129504
vn -0.2312859 0.5344327 -0.8129504
vn -0.422345 0.7263238 -0.5422902
vn -0.422345 0.7263238 -0.5422901
vn -0.422345 0.7263238 -0.5422901
vn 0.4223441 0.7263252 -0.5422889
vn 0.4223441 0.7263252 -0.5422889
vn 0.4223441 0.7263252 -0.5422888
vn 0.2314289 0.5345945 0.8128034
vn 0.2314289 0.5345944 0.8128034
vn 0.2314289 0.5345945 0.8128034
vn 0.369931 0.9159142 0.1557316
vn 0.369931 0.9159142 0.1557316
vn 0.369931 0.9159142 0.1557316
vn -0.7328259 0.6633517 0.1514288
vn -0.7328259 0.6633517 0.1514288
vn -0.7328259 0.6633517 0.1514288
vn -0.422345 0.7263243 0.5422893
vn -0.422345 0.7263243 0.5422893
vn -0.422345 0.7263243 0.5422893
vn 0.2461116 0.9692415 2.167779E-07
vn 0.2461116 0.9692415 2.167779E-07
vn 0.2461116 0.9692415 2.167779E-07
vn -0.2461127 0.9692412 -2.601348E-07
vn -0.2461127 0.9692412 -2.601348E-07
vn -0.2461127 0.9692412 -2.601348E-07
vn -0.06458966 0.9939521 -0.08881062
vn -0.06458966 0.9939521 -0.0888106
vn -0.06458966 0.9939521 -0.08881063
vn -0.06454524 0.9939641 0.0887085
vn -0.06454523 0.9939641 0.08870849
vn -0.06454524 0.9939641 0.0887085
vn -0.1192743 0.9928613 -2.099865E-07
vn -0.1192743 0.9928613 -2.099865E-07
vn -0.1192743 0.9928613 -2.099865E-07
vn 0.06454425 0.9939644 0.08870735
vn 0.06454425 0.9939644 0.08870737
vn 0.06454425 0.9939644 0.08870736
vn 0.06458832 0.9939523 -0.08880944
vn 0.06458829 0.9939523 -0.08880943
vn 0.06458829 0.9939523 -0.08880942
vn 0.1192714 0.9928617 1.633194E-07
vn 0.1192714 0.9928617 1.633194E-07
vn 0.1192714 0.9928617 1.633194E-07
vn -0.3699325 0.9159137 0.1557306
vn -0.3699325 0.9159137 0.1557307
vn -0.3699326 0.9159137 0.1557307
vn -0.1274697 0.9633936 0.2358481
vn -0.1274697 0.9633936 0.2358481
vn -0.1274697 0.9633936 0.2358481
vn -0.2874159 0.9136599 0.2874328
vn -0.2874158 0.9136599 0.2874328
vn -0.2874159 0.9136599 0.2874328
vn 0.422344 0.7263248 0.5422896
vn 0.4223439 0.7263249 0.5422896
vn 0.422344 0.7263248 0.5422896
vn 0.1274691 0.9633937 0.235848
vn 0.1274691 0.9633937 0.235848
vn 0.1274691 0.9633937 0.235848
vn 0.2874146 0.9136605 0.2874325
vn 0.2874146 0.9136605 0.2874325
vn 0.2874146 0.9136605 0.2874325
vn 0.7333881 0.6627383 0.1513925
vn 0.7333881 0.6627384 0.1513926
vn 0.7333881 0.6627384 0.1513926
vn -0.2310118 0.5341285 0.8132283
vn -0.2310118 0.5341285 0.8132283
vn -0.2310118 0.5341285 0.8132283
vn -4.645163E-07 0.931936 0.3626228
vn -4.645163E-07 0.931936 0.3626228
vn -4.645163E-07 0.931936 0.3626228
vn -6.18274E-07 0.7724991 0.6350158
vn -6.182741E-07 0.7724991 0.6350158
vn -6.182741E-07 0.7724992 0.6350158
vn 0.3699307 0.9159145 -0.1557303
vn 0.3699307 0.9159145 -0.1557303
vn 0.3699307 0.9159145 -0.1557303
vn 0.1274692 0.9633939 -0.2358471
vn 0.1274692 0.9633939 -0.2358471
vn 0.1274692 0.9633939 -0.2358471
vn 0.2874144 0.9136608 -0.2874314
vn 0.2874144 0.9136608 -0.2874314
vn 0.2874144 0.9136608 -0.2874314
vn 0.7328242 0.6633538 -0.151428
vn 0.7328241 0.6633539 -0.151428
vn 0.7328241 0.6633539 -0.151428
vn -0.1274712 0.9633929 -0.2358496
vn -0.1274712 0.963393 -0.2358496
vn -0.1274712 0.9633929 -0.2358496
vn -0.3699329 0.9159133 -0.155732
vn -0.3699329 0.9159133 -0.155732
vn -0.3699329 0.9159133 -0.155732
vn -0.287416 0.9136596 -0.287434
vn -0.287416 0.9136596 -0.287434
vn -0.2874161 0.9136596 -0.287434
vn -0.7333899 0.6627362 -0.1513938
vn -0.7333898 0.6627362 -0.1513938
vn -0.7333899 0.6627362 -0.1513938
vn 0.2308565 0.5339596 -0.8133833
vn 0.2308566 0.5339596 -0.8133833
vn 0.2308566 0.5339596 -0.8133833
vn -2.580649E-06 0.9319356 -0.3626238
vn -2.580649E-06 0.9319356 -0.3626238
vn -2.580649E-06 0.9319356 -0.3626238
vn -3.707779E-06 0.7721208 -0.6354758
vn -3.707779E-06 0.7721208 -0.6354758
vn -3.707779E-06 0.7721208 -0.6354758
vn 0.5963438 0.507111 -0.6222641
vn 0.5963437 0.5071111 -0.6222641
vn 0.5963438 0.5071111 -0.622264
vn 0.8354419 0.5028193 -0.221832
vn 0.835442 0.5028194 -0.221832
vn 0.835442 0.5028193 -0.221832
vn 0.830799 0.5122316 0.2176964
vn 0.830799 0.5122317 0.2176965
vn 0.830799 0.5122317 0.2176965
vn 0.5904184 0.5166035 0.6201023
vn 0.5904184 0.5166035 0.6201023
vn 0.5904184 0.5166035 0.6201023
vn -0.5871807 0.5217121 0.6188985
vn -0.5871807 0.5217121 0.6188985
vn -0.5871807 0.5217121 0.6188984
vn -0.8279946 0.5174001 0.2161529
vn -0.8279945 0.5174001 0.2161529
vn -0.8279945 0.5174001 0.2161528
vn -0.831174 0.5115022 -0.2179799
vn -0.831174 0.5115021 -0.2179799
vn -0.8311741 0.5115021 -0.2179799
vn -0.5908788 0.5158722 -0.6202725
vn -0.5908788 0.5158723 -0.6202725
vn -0.5908788 0.5158723 -0.6202725
g fxmesh_curvedPLane_0
f 3/3/3 2/2/2 1/1/1
f 6/6/6 5/5/5 4/4/4
f 9/9/9 8/8/8 7/7/7
f 12/12/12 11/11/11 10/10/10
f 15/15/15 14/14/14 13/13/13
f 18/18/18 17/17/17 16/16/16
f 21/21/21 20/20/20 19/19/19
f 24/24/24 23/23/23 22/22/22
f 27/27/27 26/26/26 25/25/25
f 30/30/30 29/29/29 28/28/28
f 33/33/33 32/32/32 31/31/31
f 36/36/36 35/35/35 34/34/34
f 39/39/39 38/38/38 37/37/37
f 42/42/42 41/41/41 40/40/40
f 45/45/45 44/44/44 43/43/43
f 48/48/48 47/47/47 46/46/46
f 51/51/51 50/50/50 49/49/49
f 54/54/54 53/53/53 52/52/52
f 57/57/57 56/56/56 55/55/55
f 60/60/60 59/59/59 58/58/58
f 63/63/63 62/62/62 61/61/61
f 66/66/66 65/65/65 64/64/64
f 69/69/69 68/68/68 67/67/67
f 72/72/72 71/71/71 70/70/70
f 75/75/75 74/74/74 73/73/73
f 78/78/78 77/77/77 76/76/76
f 81/81/81 80/80/80 79/79/79
f 84/84/84 83/83/83 82/82/82
f 87/87/87 86/86/86 85/85/85
f 90/90/90 89/89/89 88/88/88
f 93/93/93 92/92/92 91/91/91
f 96/96/96 95/95/95 94/94/94
f 99/99/99 98/98/98 97/97/97
f 102/102/102 101/101/101 100/100/100
f 105/105/105 104/104/104 103/103/103
f 108/108/108 107/107/107 106/106/106
f 111/111/111 110/110/110 109/109/109
f 114/114/114 113/113/113 112/112/112
f 117/117/117 116/116/116 115/115/115
f 120/120/120 119/119/119 118/118/118
f 123/123/123 122/122/122 121/121/121
f 126/126/126 125/125/125 124/124/124
f 129/129/129 128/128/128 127/127/127
f 132/132/132 131/131/131 130/130/130
