g fxmeshWebStrands
v 0.4504465 0.3901236 -1.057289
v 0.3645866 0.8206463 -0.6220438
v -0.04527628 0.4788679 -1.058582
v 0.3645866 0.8206463 -0.6220438
v -0.04613615 0.979704 -0.6248972
v -0.04527628 0.4788679 -1.058582
v 1.091069 0.4522884 0.4858756
v 0.6868635 0.9578401 0.3329858
v 1.172001 0.4522884 -0.4113466
v 0.7553177 0.9578401 -0.4259011
v -0.5073141 0.8206463 0.612047
v 0.4741366 0.8206463 0.6179802
v -0.5362161 0.3901236 1.061659
v 0.5762243 0.3901235 1.064347
v 0.2656403 0.4671093 1.123072
v 0.04105605 0.990549 0.6269504
v 1.034249 0.4671093 0.5711351
v 0.660282 0.990549 0.1852128
v -1.08638 0.4429808 0.2510257
v -0.5987102 0.9372987 -0.04257295
v -0.2686065 0.4429808 1.031119
v -0.5987102 0.9372987 -0.04257295
v 0.02892536 0.9372987 0.5019066
v -0.2686065 0.4429808 1.031119
v -0.4144283 0.3885777 -1.026285
v -0.1149225 0.8926768 -0.570435
v -0.7552997 0.4526549 -0.7331065
v -0.3983057 0.958649 -0.3213956
v 0.65066 0.9411865 -0.0904617
v 0.05018408 0.9411865 -0.5851533
v 1.028625 0.4447424 -0.5067076
v 0.3549982 0.4447424 -1.062783
v -0.7038627 0.7749744 -0.4680138
v -0.6418657 0.7749744 0.456304
v -1.152002 0.3690368 -0.4701457
v -0.6418657 0.7749744 0.456304
v -1.01754 0.3690368 0.5902079
v -1.152002 0.3690368 -0.4701457
v -0.3983057 0.958649 -0.3213956
v -0.6495116 0.8299641 -0.05027521
v -0.7552997 0.4526549 -0.7331065
v -0.6495116 0.8299641 -0.05027521
v -1.059299 0.3276664 -0.4190919
v -0.7552997 0.4526549 -0.7331065
v -0.04613615 0.979704 -0.6248972
v -0.4666792 0.8206463 -0.6266838
v -0.04527628 0.4788679 -1.058582
v -0.4666792 0.8206463 -0.6266838
v -0.5454488 0.3452222 -1.059392
v -0.04527628 0.4788679 -1.058582
v -0.04527628 0.4788679 -1.058582
v -0.04333936 0.05353527 -1.688921
v 0.4504465 0.3901236 -1.057289
v -0.04333936 0.05353527 -1.688921
v 0.6399659 0.01673987 -1.688921
v 0.4504465 0.3901236 -1.057289
v -0.04527628 0.4788679 -1.058582
v -0.5454488 0.3452222 -1.059392
v -0.04333936 0.05353527 -1.688921
v -0.5454488 0.3452222 -1.059392
v -0.7266446 -0.08235448 -1.688921
v -0.04333936 0.05353527 -1.688921
v 1.091069 0.4522884 0.4858756
v 1.172001 0.4522884 -0.4113466
v 1.775899 0.01673987 0.7230076
v 1.886057 0.01673987 -0.4982165
v -0.5362161 0.3901236 1.061659
v 0.5762243 0.3901235 1.064347
v -0.6745666 0.01673987 1.690288
v 0.7990662 0.01673987 1.690288
v 0.2656403 0.4671093 1.123072
v 1.034249 0.4671093 0.5711351
v 0.5609007 0.01673987 1.845823
v 1.637945 0.01673987 1.069471
v -1.08638 0.4429808 0.2510257
v -0.2686065 0.4429808 1.031119
v -1.802241 0.01673987 0.6058049
v -0.6251036 0.01673987 1.782941
v -0.7552997 0.4526549 -0.7331065
v -1.253259 0.01673987 -1.299205
v -0.4144283 0.3885777 -1.026285
v -0.7843611 -0.05870216 -1.697191
v -0.7552997 0.4526549 -0.7331065
v -1.059299 0.3276664 -0.4190919
v -1.253259 0.01673987 -1.299205
v -1.67296 -0.1304167 -0.8773153
v 1.028625 0.4447424 -0.5067076
v 0.3549982 0.4447424 -1.062783
v 1.634781 0.01673987 -1.030491
v 0.7486066 0.01673987 -1.763021
v -1.01754 0.3690368 0.5902079
v -1.588447 0.01587461 0.8435645
v -1.152002 0.3690368 -0.4701457
v -1.823197 0.01587461 -0.5722495
vt 0 0.5
vt 0 1
vt 0.5 0.5
vt 0 1
vt 0.5 1
vt 0.5 0.5
vt 0 0.5
vt 0 1
vt 1 0.5
vt 1 1
vt 0 1
vt 1 1
vt 0 0.5
vt 1 0.5
vt 0 0.5
vt 0 1
vt 1 0.5
vt 1 1
vt 0 0.5
vt 0 1
vt 1 0.5
vt 0 1
vt 1 1
vt 1 0.5
vt 0 0.5
vt 0 1
vt 0.5 0.5
vt 0.5 1
vt 0 1
vt 1 1
vt 0 0.5
vt 1 0.5
vt 0 1
vt 1 1
vt 0 0.5
vt 1 1
vt 1 0.5
vt 0 0.5
vt 0.5 1
vt 1 1
vt 0.5 0.5
vt 1 1
vt 1 0.5
vt 0.5 0.5
vt 0.5 1
vt 1 1
vt 0.5 0.5
vt 1 1
vt 1 0.5
vt 0.5 0.5
vt 0.5 0.5
vt 0.5 0
vt 0 0.5
vt 0.5 0
vt 0 0
vt 0 0.5
vt 0.5 0.5
vt 1 0.5
vt 0.5 0
vt 1 0.5
vt 1 0
vt 0.5 0
vt 0 0.5
vt 1 0.5
vt 0 0
vt 1 0
vt 0 0.5
vt 1 0.5
vt 0 0
vt 1 0
vt 0 0.5
vt 1 0.5
vt 0 0
vt 1 0
vt 0 0.5
vt 1 0.5
vt 0 0
vt 1 0
vt 0.5 0.5
vt 0.5 0
vt 0 0.5
vt 0 0
vt 0.5 0.5
vt 1 0.5
vt 0.5 0
vt 1 0
vt 0 0.5
vt 1 0.5
vt 0 0
vt 1 0
vt 1 0.5
vt 1 0
vt 0 0.5
vt 0 0
vn 0.1302534 0.7176236 -0.6841421
vn 0.1302533 0.7176236 -0.6841421
vn 0.1302533 0.7176235 -0.6841422
vn 0.2505953 0.6339676 -0.7316332
vn 0.2505953 0.6339676 -0.7316332
vn 0.2505953 0.6339676 -0.7316332
vn 0.7855195 0.6147671 0.07085645
vn 0.7855195 0.6147671 0.07085645
vn 0.7855195 0.6147671 0.07085646
vn 0.7855196 0.6147668 0.07085652
vn -0.004180032 0.722401 0.6914617
vn -0.004180032 0.722401 0.6914618
vn -0.004180032 0.722401 0.6914618
vn -0.001678256 0.719573 0.6944149
vn 0.4083148 0.7141197 0.5686054
vn 0.4083148 0.7141196 0.5686055
vn 0.4083148 0.7141197 0.5686055
vn 0.4075561 0.7123919 0.5713107
vn -0.4618351 0.7431786 0.4841423
vn -0.4618351 0.7431786 0.4841423
vn -0.4618351 0.7431787 0.4841423
vn -0.4188656 0.7690383 0.4828371
vn -0.4188657 0.7690383 0.4828371
vn -0.4188657 0.7690383 0.4828371
vn -0.3580323 0.7342767 -0.5767587
vn -0.3580323 0.7342767 -0.5767587
vn -0.3580323 0.7342766 -0.5767587
vn -0.3497026 0.7272664 -0.5905859
vn 0.4211291 0.7492278 -0.5111831
vn 0.4211291 0.7492277 -0.511183
vn 0.4211291 0.7492278 -0.511183
vn 0.4212993 0.7496933 -0.5103596
vn -0.6707863 0.7402848 0.04499174
vn -0.6707863 0.7402848 0.04499174
vn -0.6707863 0.7402848 0.04499174
vn -0.7158015 0.6923793 0.09076926
vn -0.7158015 0.6923793 0.09076926
vn -0.7158014 0.6923794 0.09076928
vn -0.6607271 0.6956327 -0.2820193
vn -0.6607272 0.6956327 -0.2820193
vn -0.660727 0.6956328 -0.2820192
vn -0.6150423 0.7266064 -0.3062123
vn -0.6150424 0.7266065 -0.3062123
vn -0.6150423 0.7266064 -0.3062123
vn -0.2373054 0.6356773 -0.734575
vn -0.2373054 0.6356774 -0.734575
vn -0.2373054 0.6356774 -0.734575
vn -0.180075 0.6782501 -0.7124253
vn -0.180075 0.6782501 -0.7124254
vn -0.180075 0.6782501 -0.7124253
vn 0.1482369 0.8199906 -0.5528483
vn 0.1482369 0.8199907 -0.5528482
vn 0.1482369 0.8199906 -0.5528483
vn 0.04663169 0.8659692 -0.4979186
vn 0.04663169 0.8659692 -0.4979186
vn 0.04663169 0.8659692 -0.4979186
vn -0.215329 0.8091852 -0.5466741
vn -0.2153289 0.8091852 -0.5466743
vn -0.215329 0.8091852 -0.5466743
vn -0.1665152 0.8373013 -0.5207679
vn -0.1665152 0.8373013 -0.5207679
vn -0.1665152 0.8373013 -0.5207679
vn 0.5865042 0.8082166 0.05290458
vn 0.5865042 0.8082166 0.05290457
vn 0.5865042 0.8082166 0.05290457
vn 0.586504 0.8082167 0.05290456
vn -0.00123361 0.8598923 0.510474
vn -0.00123361 0.8598923 0.5104741
vn -0.00123361 0.8598923 0.510474
vn 0 0.8588102 0.5122939
vn 0.3068252 0.8504674 0.4272744
vn 0.3068252 0.8504674 0.4272745
vn 0.3068252 0.8504674 0.4272744
vn 0.3082095 0.8498112 0.4275836
vn -0.3407644 0.8696383 0.3572238
vn -0.3407644 0.8696383 0.3572238
vn -0.3407645 0.8696383 0.3572238
vn -0.3378469 0.8784754 0.337847
vn -0.2318444 0.8586043 -0.4572165
vn -0.2318444 0.8586041 -0.4572166
vn -0.2318444 0.8586043 -0.4572166
vn -0.2382295 0.8635836 -0.444376
vn -0.5258138 0.8317733 -0.1779699
vn -0.5258138 0.8317733 -0.1779699
vn -0.5258138 0.8317733 -0.1779699
vn -0.4909541 0.8497629 -0.1920078
vn 0.3033072 0.8792064 -0.3674248
vn 0.3033072 0.8792064 -0.3674248
vn 0.3033072 0.8792064 -0.3674248
vn 0.3033529 0.8793766 -0.3669793
vn -0.5043221 0.8611442 0.06395196
vn -0.504322 0.8611443 0.06395198
vn -0.5043221 0.8611442 0.06395197
vn -0.4735353 0.8772683 0.07851484
g fxmeshWebStrands_0
f 3/3/3 2/2/2 1/1/1
f 6/6/6 5/5/5 4/4/4
f 9/9/9 8/8/8 7/7/7
f 9/9/9 10/10/10 8/8/8
f 13/13/13 12/12/12 11/11/11
f 13/13/13 14/14/14 12/12/12
f 17/17/17 16/16/16 15/15/15
f 17/17/17 18/18/18 16/16/16
f 21/21/21 20/20/20 19/19/19
f 24/24/24 23/23/23 22/22/22
f 27/27/27 26/26/26 25/25/25
f 27/27/27 28/28/28 26/26/26
f 31/31/31 30/30/30 29/29/29
f 31/31/31 32/32/32 30/30/30
f 35/35/35 34/34/34 33/33/33
f 38/38/38 37/37/37 36/36/36
f 41/41/41 40/40/40 39/39/39
f 44/44/44 43/43/43 42/42/42
f 47/47/47 46/46/46 45/45/45
f 50/50/50 49/49/49 48/48/48
f 53/53/53 52/52/52 51/51/51
f 56/56/56 55/55/55 54/54/54
f 59/59/59 58/58/58 57/57/57
f 62/62/62 61/61/61 60/60/60
f 65/65/65 64/64/64 63/63/63
f 65/65/65 66/66/66 64/64/64
f 69/69/69 68/68/68 67/67/67
f 69/69/69 70/70/70 68/68/68
f 73/73/73 72/72/72 71/71/71
f 73/73/73 74/74/74 72/72/72
f 77/77/77 76/76/76 75/75/75
f 77/77/77 78/78/78 76/76/76
f 81/81/81 80/80/80 79/79/79
f 81/81/81 82/82/82 80/80/80
f 85/85/85 84/84/84 83/83/83
f 85/85/85 86/86/86 84/84/84
f 89/89/89 88/88/88 87/87/87
f 89/89/89 90/90/90 88/88/88
f 93/93/93 92/92/92 91/91/91
f 93/93/93 94/94/94 92/92/92
