g fxmeshIcicle
v -0.005475549 -0.2537647 0.1385936
v 0.04358827 -0.5182934 0.08375429
v -0.02589743 -0.5363328 0.06227364
v 0.04358827 -0.5182934 0.08375429
v 0.0543668 -0.8359263 0.005549716
v 0.00726835 -0.8122275 0.0431694
v 0.03435237 -1.167343 -0.02969939
v 0.06841205 -0.8417876 -0.05127243
v -0.01211692 -0.8207529 -0.0629597
v 0.01132157 -1.166494 -0.03304164
v 0.07408703 -0.5269102 -0.08743445
v 0.001682181 -0.2493445 -0.1761413
v 0.1215583 -0.2409611 -0.09841651
v 0.1177568 0.01652528 -0.1149359
v -0.1042985 -0.270057 -0.03332209
v -0.07866163 -0.5102988 0.0011372
v 0.001682181 -0.2493445 -0.1761413
v 0.1493388 -0.2414388 0.04300746
v -0.005475549 -0.2537647 0.1385936
v -0.01003416 -0.02389525 0.138546
v 0.1465269 0.01987947 0.05163951
v 0.1493388 -0.2414388 0.04300746
v -0.01003416 -0.02389525 0.138546
v -0.07866163 -0.5102988 0.0011372
v -0.03358793 -0.5202903 -0.09122004
v 0.001682181 -0.2493445 -0.1761413
v -0.01211692 -0.8207529 -0.0629597
v 0.04358827 -0.5182934 0.08375429
v -0.005475549 -0.2537647 0.1385936
v 0.1493388 -0.2414388 0.04300746
v 0.04358827 -0.5182934 0.08375429
v 0.1493388 -0.2414388 0.04300746
v 0.104914 -0.5155378 0.03227735
v 0.1215583 -0.2409611 -0.09841651
v 0.1493388 -0.2414388 0.04300746
v 0.1465269 0.01987947 0.05163951
v 0.1215583 -0.2409611 -0.09841651
v 0.1465269 0.01987947 0.05163951
v 0.1177568 0.01652528 -0.1149359
v 0.1177568 0.01652528 -0.1149359
v -0.03493558 -0.0293537 -0.1394384
v 0.001682181 -0.2493445 -0.1761413
v 0.07408703 -0.5269102 -0.08743445
v -0.03358793 -0.5202903 -0.09122004
v -0.01211692 -0.8207529 -0.0629597
v 0.0543668 -0.8359263 0.005549716
v 0.04358827 -0.5182934 0.08375429
v 0.104914 -0.5155378 0.03227735
v 0.104914 -0.5155378 0.03227735
v 0.1493388 -0.2414388 0.04300746
v 0.07408703 -0.5269102 -0.08743445
v 0.0543668 -0.8359263 0.005549716
v 0.0543668 -0.8359263 0.005549716
v 0.07408703 -0.5269102 -0.08743445
v 0.06841205 -0.8417876 -0.05127243
v 0.06841205 -0.8417876 -0.05127243
v 0.03435237 -1.167343 -0.02969939
v 0.02831082 -1.167107 -0.01384588
v 0.0543668 -0.8359263 0.005549716
v 0.001682181 -0.2493445 -0.1761413
v -0.03358793 -0.5202903 -0.09122004
v 0.07408703 -0.5269102 -0.08743445
v 0.1215583 -0.2409611 -0.09841651
v 0.001682181 -0.2493445 -0.1761413
v 0.07408703 -0.5269102 -0.08743445
v 0.07408703 -0.5269102 -0.08743445
v 0.1493388 -0.2414388 0.04300746
v 0.1215583 -0.2409611 -0.09841651
v -0.03221045 -0.8132213 0.008701502
v 0.005575347 -1.166189 -0.01254727
v 0.01132157 -1.166494 -0.03304164
v -0.01211692 -0.8207529 -0.0629597
v -0.01211692 -0.8207529 -0.0629597
v -0.07866163 -0.5102988 0.0011372
v -0.02589743 -0.5363328 0.06227364
v -0.03221045 -0.8132213 0.008701502
v -0.01211692 -0.8207529 -0.0629597
v -0.02589743 -0.5363328 0.06227364
v 0.04358827 -0.5182934 0.08375429
v 0.00726835 -0.8122275 0.0431694
v -0.02589743 -0.5363328 0.06227364
v 0.00726835 -0.8122275 0.0431694
v 0.01686572 -1.166149 -0.00269046
v 0.005575347 -1.166189 -0.01254727
v -0.03221045 -0.8132213 0.008701502
v -0.03221045 -0.8132213 0.008701502
v -0.02589743 -0.5363328 0.06227364
v 0.00726835 -0.8122275 0.0431694
v -0.005475549 -0.2537647 0.1385936
v -0.07866163 -0.5102988 0.0011372
v -0.1042985 -0.270057 -0.03332209
v -0.02589743 -0.5363328 0.06227364
v -0.07866163 -0.5102988 0.0011372
v -0.005475549 -0.2537647 0.1385936
v 0.01686572 -1.166149 -0.00269046
v 0.00726835 -0.8122275 0.0431694
v 0.0543668 -0.8359263 0.005549716
v 0.02831082 -1.167107 -0.01384588
v 0.01753834 -1.17555 -0.01935471
v 0.01686572 -1.166149 -0.00269046
v 0.02831082 -1.167107 -0.01384588
v 0.03435237 -1.167343 -0.02969939
v 0.01753834 -1.17555 -0.01935471
v 0.02831082 -1.167107 -0.01384588
v 0.01753834 -1.17555 -0.01935471
v 0.03435237 -1.167343 -0.02969939
v 0.01132157 -1.166494 -0.03304164
v 0.005575347 -1.166189 -0.01254727
v 0.01753834 -1.17555 -0.01935471
v 0.01132157 -1.166494 -0.03304164
v 0.01686572 -1.166149 -0.00269046
v 0.01753834 -1.17555 -0.01935471
v 0.005575347 -1.166189 -0.01254727
v -0.01003416 -0.02389525 0.138546
v -0.005475549 -0.2537647 0.1385936
v -0.1042985 -0.270057 -0.03332209
v -0.1228 0.0232245 -0.0005281796
v -0.1228 0.0232245 -0.0005281796
v -0.1042985 -0.270057 -0.03332209
v 0.001682181 -0.2493445 -0.1761413
v -0.03493558 -0.0293537 -0.1394384
v -0.03493558 -0.0293537 -0.1394384
v 0.1177568 0.01652528 -0.1149359
v 0.02062975 0.083537 0.00156901
v -0.01003416 -0.02389525 0.138546
v 0.02062975 0.083537 0.00156901
v 0.1465269 0.01987947 0.05163951
v 0.02062975 0.083537 0.00156901
v 0.1177568 0.01652528 -0.1149359
v 0.1465269 0.01987947 0.05163951
v -0.1228 0.0232245 -0.0005281796
v -0.03493558 -0.0293537 -0.1394384
v 0.02062975 0.083537 0.00156901
v -0.01003416 -0.02389525 0.138546
v -0.1228 0.0232245 -0.0005281796
v 0.02062975 0.083537 0.00156901
vt 0.4843573 0.906168
vt 0.4874184 0.8693935
vt 0.4960894 0.8660886
vt 0.4874184 0.8693935
vt 0.492171 0.8209696
vt 0.4928278 0.8246042
vt 0.4972176 0.774651
vt 0.495481 0.8200707
vt 0.5024469 0.8232967
vt 0.4997567 0.7748946
vt 0.4970368 0.8678357
vt 0.509496 0.9076289
vt 0.492626 0.9101334
vt 0.496663 0.9322096
vt 0.506029 0.9043387
vt 0.5011988 0.8708388
vt 0.509496 0.9076289
vt 0.4825426 0.9085088
vt 0.4843573 0.906168
vt 0.4816306 0.9334615
vt 0.4782903 0.9330931
vt 0.4825426 0.9085088
vt 0.4816306 0.9334615
vt 0.5011988 0.8708388
vt 0.5044785 0.8690325
vt 0.509496 0.9076289
vt 0.5024469 0.8232967
vt 0.4874184 0.8693935
vt 0.4843573 0.906168
vt 0.4825426 0.9085088
vt 0.4874184 0.8693935
vt 0.4825426 0.9085088
vt 0.4868309 0.8698917
vt 0.492626 0.9101334
vt 0.4825426 0.9085088
vt 0.4782903 0.9330931
vt 0.492626 0.9101334
vt 0.4782903 0.9330931
vt 0.496663 0.9322096
vt 0.496663 0.9322096
vt 0.5153707 0.932574
vt 0.509496 0.9076289
vt 0.4970368 0.8678357
vt 0.5044785 0.8690325
vt 0.5024469 0.8232967
vt 0.492171 0.8209696
vt 0.4874184 0.8693935
vt 0.4868309 0.8698917
vt 0.4868309 0.8698917
vt 0.4825426 0.9085088
vt 0.4970368 0.8678357
vt 0.492171 0.8209696
vt 0.492171 0.8209696
vt 0.4970368 0.8678357
vt 0.495481 0.8200707
vt 0.495481 0.8200707
vt 0.4972176 0.774651
vt 0.4962444 0.774719
vt 0.492171 0.8209696
vt 0.509496 0.9076289
vt 0.5044785 0.8690325
vt 0.4970368 0.8678357
vt 0.492626 0.9101334
vt 0.509496 0.9076289
vt 0.4970368 0.8678357
vt 0.4970368 0.8678357
vt 0.4825426 0.9085088
vt 0.492626 0.9101334
vt 0.498452 0.8244517
vt 0.4983005 0.774982
vt 0.4997567 0.7748946
vt 0.5024469 0.8232967
vt 0.5024469 0.8232967
vt 0.5011988 0.8708388
vt 0.4960894 0.8660886
vt 0.498452 0.8244517
vt 0.5024469 0.8232967
vt 0.4960894 0.8660886
vt 0.4874184 0.8693935
vt 0.4928278 0.8246042
vt 0.4960894 0.8660886
vt 0.4928278 0.8246042
vt 0.4962504 0.7749933
vt 0.4983005 0.774982
vt 0.498452 0.8244517
vt 0.498452 0.8244517
vt 0.4960894 0.8660886
vt 0.4928278 0.8246042
vt 0.4843573 0.906168
vt 0.5011988 0.8708388
vt 0.506029 0.9043387
vt 0.4960894 0.8660886
vt 0.5011988 0.8708388
vt 0.4843573 0.906168
vt 0.4962504 0.7749933
vt 0.4928278 0.8246042
vt 0.492171 0.8209696
vt 0.4962444 0.774719
vt 0.4978186 0.7722983
vt 0.4962504 0.7749933
vt 0.4962444 0.774719
vt 0.4972176 0.774651
vt 0.4978186 0.7722983
vt 0.4962444 0.774719
vt 0.4978186 0.7722983
vt 0.4972176 0.774651
vt 0.4997567 0.7748946
vt 0.4983005 0.774982
vt 0.4978186 0.7722983
vt 0.4997567 0.7748946
vt 0.4962504 0.7749933
vt 0.4978186 0.7722983
vt 0.4983005 0.774982
vt 0.4816306 0.9334615
vt 0.4843573 0.906168
vt 0.506029 0.9043387
vt 0.5100648 0.9339742
vt 0.5100648 0.9339742
vt 0.506029 0.9043387
vt 0.509496 0.9076289
vt 0.5153707 0.932574
vt 0.5153707 0.932574
vt 0.496663 0.9322096
vt 0.4891468 0.9328356
vt 0.4816306 0.9334615
vt 0.4891468 0.9328356
vt 0.4782903 0.9330931
vt 0.4891468 0.9328356
vt 0.496663 0.9322096
vt 0.4782903 0.9330931
vt 0.5100648 0.9339742
vt 0.5153707 0.932574
vt 0.4891468 0.9328356
vt 0.4816306 0.9334615
vt 0.5100648 0.9339742
vt 0.4891468 0.9328356
vn 0.2730258 -0.0842519 0.9583102
vn 0.2730258 -0.08425193 0.9583102
vn 0.2730258 -0.08425192 0.9583102
vn 0.5685055 -0.2004914 0.7978752
vn 0.5685054 -0.2004914 0.7978752
vn 0.5685053 -0.2004914 0.7978752
vn 0.1356293 -0.05651195 -0.9891466
vn 0.1356293 -0.05651195 -0.9891466
vn 0.1356293 -0.05651195 -0.9891466
vn 0.1356294 -0.05651196 -0.9891466
vn 0.1257105 -0.09861316 -0.9871536
vn 0.5421492 -0.2107545 -0.8134228
vn 0.5421493 -0.2107545 -0.8134228
vn 0.5421493 -0.2107545 -0.8134228
vn -0.8989133 -0.04814995 -0.4354726
vn -0.8989133 -0.04814994 -0.4354726
vn -0.8989133 -0.04814994 -0.4354726
vn 0.5487447 -0.08096761 0.8320598
vn 0.5487448 -0.08096761 0.8320598
vn 0.5487448 -0.0809676 0.8320597
vn 0.6099135 -0.03670869 0.7916173
vn 0.6099135 -0.03670868 0.7916173
vn 0.6099135 -0.03670868 0.7916173
vn -0.8996848 -0.04723163 -0.4339776
vn -0.8996847 -0.04723164 -0.4339776
vn -0.8996847 -0.04723164 -0.4339776
vn -0.8996802 -0.04231422 -0.434494
vn 0.5447777 -0.02914423 0.8380739
vn 0.5447778 -0.02914422 0.8380738
vn 0.5447778 -0.02914423 0.8380738
vn 0.6434128 -0.05095174 0.7638218
vn 0.643413 -0.05095173 0.7638217
vn 0.6434129 -0.05095174 0.7638217
vn 0.9522268 0.06791925 -0.2977432
vn 0.9522268 0.06791925 -0.2977433
vn 0.9522268 0.06791926 -0.2977433
vn 0.9954334 -0.06042092 -0.07390203
vn 0.9954334 -0.06042093 -0.07390203
vn 0.9954334 -0.06042093 -0.07390203
vn 0.1230611 0.01406914 -0.9922994
vn 0.123061 0.01406913 -0.9922994
vn 0.123061 0.01406913 -0.9922994
vn 0.03141264 -0.05962908 -0.9977263
vn 0.03141264 -0.05962908 -0.9977263
vn 0.03141264 -0.05962908 -0.9977263
vn 0.6367581 -0.1842592 0.7487241
vn 0.636758 -0.1842592 0.7487241
vn 0.6367581 -0.1842592 0.7487241
vn 0.9538953 -0.1963777 -0.2269789
vn 0.9538953 -0.1963777 -0.2269789
vn 0.9538953 -0.1963777 -0.2269789
vn 0.9592206 -0.162013 -0.2316195
vn 0.9709129 0.01266711 0.2390976
vn 0.9709129 0.01266711 0.2390976
vn 0.9709129 0.01266712 0.2390976
vn 0.9503738 -0.1430345 0.2762803
vn 0.9503738 -0.1430345 0.2762803
vn 0.9503738 -0.1430345 0.2762803
vn 0.9503738 -0.1430345 0.2762803
vn 0.01760292 -0.2650836 -0.9640648
vn 0.01760292 -0.2650836 -0.9640648
vn 0.01760292 -0.2650836 -0.9640648
vn 0.5462108 -0.1009506 -0.8315423
vn 0.5462108 -0.1009506 -0.8315425
vn 0.5462108 -0.1009506 -0.8315423
vn 0.9400613 -0.1707714 -0.2951639
vn 0.9400613 -0.1707714 -0.2951639
vn 0.9400613 -0.1707714 -0.2951639
vn -0.9587226 -0.1088802 -0.2626708
vn -0.9587226 -0.1088802 -0.2626708
vn -0.9587226 -0.1088802 -0.2626708
vn -0.9587226 -0.1088802 -0.2626708
vn -0.9075187 -0.2663741 0.3247376
vn -0.9075187 -0.2663741 0.3247376
vn -0.9075187 -0.2663741 0.3247376
vn -0.9608298 0.04840447 -0.2728794
vn -0.9608298 0.04840447 -0.2728794
vn -0.9608298 0.04840447 -0.2728794
vn 0.2685077 -0.158734 0.9501089
vn 0.2685077 -0.158734 0.9501091
vn 0.2685077 -0.158734 0.9501091
vn -0.6428736 -0.1999405 0.7394168
vn -0.6428736 -0.1999405 0.7394168
vn -0.6428736 -0.1999405 0.7394168
vn -0.6428736 -0.1999405 0.7394168
vn -0.6517301 -0.1202895 0.7488514
vn -0.65173 -0.1202895 0.7488514
vn -0.65173 -0.1202895 0.7488514
vn -0.9987704 0.03318427 0.03683063
vn -0.9987704 0.03318427 0.03683063
vn -0.9987704 0.03318427 0.03683063
vn -0.9060241 -0.09852978 0.4115973
vn -0.9060241 -0.09852977 0.4115973
vn -0.9060241 -0.09852976 0.4115972
vn 0.6049381 -0.1719047 0.7774951
vn 0.6049381 -0.1719047 0.7774951
vn 0.6049381 -0.1719047 0.7774951
vn 0.6049381 -0.1719047 0.7774951
vn 0.3865539 -0.796482 0.464965
vn 0.3865539 -0.796482 0.464965
vn 0.3865539 -0.796482 0.4649651
vn 0.5320435 -0.8189719 0.2149762
vn 0.5320434 -0.818972 0.2149762
vn 0.5320435 -0.8189719 0.2149762
vn 0.05202762 -0.8217773 -0.5674287
vn 0.05202762 -0.8217773 -0.5674287
vn 0.05202761 -0.8217773 -0.5674287
vn -0.6668583 -0.7240423 -0.1762463
vn -0.6668583 -0.7240422 -0.1762463
vn -0.6668583 -0.7240423 -0.1762463
vn -0.3831117 -0.8110444 0.4420773
vn -0.3831117 -0.8110445 0.4420773
vn -0.3831117 -0.8110444 0.4420773
vn -0.9226401 -0.07830353 0.377629
vn -0.9226401 -0.07830353 0.377629
vn -0.9226401 -0.07830352 0.377629
vn -0.9226402 -0.07830354 0.377629
vn -0.8564934 -0.1402882 -0.4967276
vn -0.8564934 -0.1402882 -0.4967276
vn -0.8564934 -0.1402882 -0.4967276
vn -0.8564934 -0.1402882 -0.4967276
vn -0.1468106 0.7996016 -0.5823091
vn -0.1468106 0.7996016 -0.5823091
vn -0.1468106 0.7996016 -0.5823092
vn 0.1359866 0.7645355 0.630074
vn 0.1359866 0.7645355 0.630074
vn 0.1359866 0.7645355 0.630074
vn 0.4804962 0.8712156 -0.1005317
vn 0.4804962 0.8712156 -0.1005317
vn 0.4804961 0.8712156 -0.1005317
vn -0.3274332 0.7963549 -0.5085335
vn -0.3274332 0.7963549 -0.5085335
vn -0.3274333 0.7963549 -0.5085335
vn -0.3343189 0.7764733 0.5341535
vn -0.334319 0.7764733 0.5341535
vn -0.334319 0.7764733 0.5341534
g fxmeshIcicle_0
f 3/3/3 2/2/2 1/1/1
f 6/6/6 5/5/5 4/4/4
f 9/9/9 8/8/8 7/7/7
f 10/10/10 9/9/9 7/7/7
f 9/9/9 11/11/11 8/8/8
f 14/14/14 13/13/13 12/12/12
f 17/17/17 16/16/16 15/15/15
f 20/20/20 19/19/19 18/18/18
f 23/23/23 22/22/22 21/21/21
f 26/26/26 25/25/25 24/24/24
f 27/27/27 24/24/24 25/25/25
f 30/30/30 29/29/29 28/28/28
f 33/33/33 32/32/32 31/31/31
f 36/36/36 35/35/35 34/34/34
f 39/39/39 38/38/38 37/37/37
f 42/42/42 41/41/41 40/40/40
f 45/45/45 44/44/44 43/43/43
f 48/48/48 47/47/47 46/46/46
f 51/51/51 50/50/50 49/49/49
f 51/51/51 49/49/49 52/52/52
f 55/55/55 54/54/54 53/53/53
f 58/58/58 57/57/57 56/56/56
f 59/59/59 58/58/58 56/56/56
f 62/62/62 61/61/61 60/60/60
f 65/65/65 64/64/64 63/63/63
f 68/68/68 67/67/67 66/66/66
f 71/71/71 70/70/70 69/69/69
f 72/72/72 71/71/71 69/69/69
f 75/75/75 74/74/74 73/73/73
f 78/78/78 77/77/77 76/76/76
f 81/81/81 80/80/80 79/79/79
f 84/84/84 83/83/83 82/82/82
f 85/85/85 84/84/84 82/82/82
f 88/88/88 87/87/87 86/86/86
f 91/91/91 90/90/90 89/89/89
f 94/94/94 93/93/93 92/92/92
f 97/97/97 96/96/96 95/95/95
f 98/98/98 97/97/97 95/95/95
f 101/101/101 100/100/100 99/99/99
f 104/104/104 103/103/103 102/102/102
f 107/107/107 106/106/106 105/105/105
f 110/110/110 109/109/109 108/108/108
f 113/113/113 112/112/112 111/111/111
f 116/116/116 115/115/115 114/114/114
f 117/117/117 116/116/116 114/114/114
f 120/120/120 119/119/119 118/118/118
f 121/121/121 120/120/120 118/118/118
f 124/124/124 123/123/123 122/122/122
f 127/127/127 126/126/126 125/125/125
f 130/130/130 129/129/129 128/128/128
f 133/133/133 132/132/132 131/131/131
f 136/136/136 135/135/135 134/134/134
