g fxmeshOpenCone
v 0.5537633 -0.009812431 -0.2293759
v 0.5537633 1.359613 -0.2293759
v 0.4238321 1.359613 -0.4238317
v 0.4238321 -0.009812431 -0.4238317
v 0.2293765 1.359613 -0.553763
v 0.2293765 -0.009812431 -0.553763
v 3.036741E-07 1.359613 -0.5993889
v 3.036741E-07 -0.009812431 -0.5993889
v -0.2293759 1.359613 -0.5537633
v -0.2293759 -0.009812431 -0.5537633
v -0.4238318 1.359613 -0.4238321
v -0.4238318 -0.009812431 -0.4238321
v -0.5537631 1.359613 -0.2293764
v -0.5537631 -0.009812431 -0.2293764
v -0.5993889 1.359613 -2.143582E-07
v -0.5993889 -0.009812431 -2.143582E-07
v -0.5537632 1.359613 0.229376
v -0.5537632 -0.009812431 0.229376
v -0.4238321 1.359613 0.4238319
v -0.4238321 -0.009812431 0.4238319
v -0.2293763 1.359613 0.5537631
v -0.2293763 -0.009812431 0.5537631
v -8.93159E-08 1.359613 0.5993889
v -8.93159E-08 -0.009812431 0.5993889
v 0.2293761 1.359613 0.5537632
v 0.2293761 -0.009812431 0.5537632
v 0.4238319 1.359613 0.423832
v 0.4238319 -0.009812431 0.423832
v 0.5537632 1.359613 0.2293762
v 0.5537632 -0.009812431 0.2293762
v 0.5993889 1.359613 0
v 0.5993889 -0.009812431 0
v 0.5537633 1.359613 -0.2293759
v 0.5537633 -0.009812431 -0.2293759
vt 0.000387609 0.002537847
vt 0.000387609 0.998402
vt 0.06283915 0.998402
vt 0.06283915 0.002537847
vt 0.1252907 0.998402
vt 0.1252907 0.002537847
vt 0.1877423 0.998402
vt 0.1877423 0.002537847
vt 0.2501938 0.998402
vt 0.2501938 0.002537847
vt 0.3126453 0.998402
vt 0.3126453 0.002537847
vt 0.3750969 0.998402
vt 0.3750969 0.002537847
vt 0.4375485 0.998402
vt 0.4375485 0.002537847
vt 0.5 0.998402
vt 0.5 0.002537847
vt 0.5624515 0.998402
vt 0.5624515 0.002537847
vt 0.6249031 0.998402
vt 0.6249031 0.002537847
vt 0.6873546 0.998402
vt 0.6873546 0.002537847
vt 0.7498062 0.998402
vt 0.7498062 0.002537847
vt 0.8122578 0.998402
vt 0.8122578 0.002537847
vt 0.8747093 0.998402
vt 0.8747093 0.002537847
vt 0.9371608 0.998402
vt 0.9371608 0.002537847
vt 0.9996124 0.998402
vt 0.9996124 0.002537847
vn 0.9238796 0 -0.3826832
vn 0.9238796 0 -0.3826832
vn 0.7071071 0 -0.7071064
vn 0.7071071 0 -0.7071064
vn 0.382684 0 -0.9238793
vn 0.382684 0 -0.9238793
vn 6.1232E-07 0 -1
vn 6.1232E-07 0 -1
vn -0.382683 0 -0.9238797
vn -0.382683 0 -0.9238797
vn -0.7071064 0 -0.7071071
vn -0.7071064 0 -0.7071071
vn -0.9238794 0 -0.3826838
vn -0.9238794 0 -0.3826838
vn -1 0 -1.546262E-07
vn -1 0 -1.546262E-07
vn -0.9238797 0 0.3826831
vn -0.9238797 0 0.3826831
vn -0.707107 0 0.7071065
vn -0.707107 0 0.7071065
vn -0.3826837 0 0.9238794
vn -0.3826837 0 0.9238794
vn 0 0 1
vn 0 0 1
vn 0.3826834 0 0.9238795
vn 0.3826834 0 0.9238795
vn 0.7071066 0 0.7071068
vn 0.7071066 0 0.7071068
vn 0.9238794 0 0.3826835
vn 0.9238794 0 0.3826835
vn 1 0 2.535873E-07
vn 1 0 2.535873E-07
vn 0.9238796 0 -0.3826832
vn 0.9238796 0 -0.3826832
g fxmeshOpenCone_0
f 3/3/3 2/2/2 1/1/1
f 4/4/4 3/3/3 1/1/1
f 5/5/5 3/3/3 4/4/4
f 6/6/6 5/5/5 4/4/4
f 7/7/7 5/5/5 6/6/6
f 8/8/8 7/7/7 6/6/6
f 9/9/9 7/7/7 8/8/8
f 10/10/10 9/9/9 8/8/8
f 11/11/11 9/9/9 10/10/10
f 12/12/12 11/11/11 10/10/10
f 13/13/13 11/11/11 12/12/12
f 14/14/14 13/13/13 12/12/12
f 15/15/15 13/13/13 14/14/14
f 16/16/16 15/15/15 14/14/14
f 17/17/17 15/15/15 16/16/16
f 18/18/18 17/17/17 16/16/16
f 19/19/19 17/17/17 18/18/18
f 20/20/20 19/19/19 18/18/18
f 21/21/21 19/19/19 20/20/20
f 22/22/22 21/21/21 20/20/20
f 23/23/23 21/21/21 22/22/22
f 24/24/24 23/23/23 22/22/22
f 25/25/25 23/23/23 24/24/24
f 26/26/26 25/25/25 24/24/24
f 27/27/27 25/25/25 26/26/26
f 28/28/28 27/27/27 26/26/26
f 29/29/29 27/27/27 28/28/28
f 30/30/30 29/29/29 28/28/28
f 31/31/31 29/29/29 30/30/30
f 32/32/32 31/31/31 30/30/30
f 33/33/33 31/31/31 32/32/32
f 34/34/34 33/33/33 32/32/32
