g fxMeshWhirl02
v -0.4954737 -0.03849611 0.5372462
v -0.3170789 -0.01109224 0.5589714
v -0.332181 -0.1976668 0.8915279
v -0.5346258 -0.1862004 0.7737711
v -0.06058563 -0.1983444 0.991628
v -0.1012791 0.006267076 0.5891616
v 0.2558484 -0.1945088 1.037967
v 0.131494 0.01425444 0.598985
v 0.3567233 0.01322417 0.5609879
v 0.5911078 -0.1927667 0.9972145
v 0.9187098 -0.2001974 0.8378169
v 0.5498341 0.003621508 0.4469295
v 1.202504 -0.2117298 0.5849365
v 0.6974652 -0.00954347 0.2765709
v 1.408761 -0.2227007 0.2645932
v 0.7869073 -0.02135988 0.06966379
v 0.8170339 -0.02670472 -0.1575242
v 1.493331 -0.2288362 -0.09535795
v 1.410966 -0.2255855 -0.4661252
v 0.7879885 -0.0202292 -0.3877415
v 1.205226 -0.2157517 -0.8180832
v 0.704434 -0.005816969 -0.6042576
v 0.9181005 -0.2019063 -1.122387
v 0.5723104 0.0129135 -0.7907202
v 0.3905746 0.03260603 -0.92757
v 0.578907 -0.1863861 -1.344417
v 0.22146 -0.1716176 -1.449531
v 0.1601759 0.04977186 -0.9946247
v -0.1656968 -0.1595625 -1.469297
v -0.1281571 0.06294188 -1.01303
v -0.5948964 -0.1521121 -1.437093
v -0.4864213 0.07076705 -1.006295
v -0.8397706 0.07091536 -0.9410695
v -1.004246 -0.1517487 -1.320175
v -1.332413 -0.1610082 -1.090375
v -1.113521 0.06161711 -0.7917473
v -1.598993 -0.1740052 -0.7679716
v -1.328834 0.04860945 -0.5662245
v -1.82519 -0.1852056 -0.3716086
v -1.50725 0.03742247 -0.2719716
v -1.597804 0.03372755 0.05732397
v -1.945844 -0.1889011 0.0560787
v -1.902064 -0.1791988 0.4710246
v -1.555079 0.04340132 0.3870712
v -1.678708 -0.1608745 0.8552264
v -1.360176 0.06170958 0.6977763
v -1.255516 -0.1383036 1.19402
v -0.9898877 0.084299 0.9728597
v -0.5528544 0.1067856 1.154805
v -0.7406741 -0.1158703 1.408411
v -0.2504787 -0.09829957 1.427761
v -0.1668846 0.1244665 1.196701
v 0.2220868 -0.08266999 1.308289
v 0.1871637 0.1397911 1.129513
v 0.6788046 -0.06640504 1.104036
v 0.5226153 0.1548678 0.9833826
v 0.8192943 0.1721025 0.7749025
v 1.092046 -0.04717805 0.8367133
v 1.436305 -0.02263582 0.5313998
v 1.058836 0.1943265 0.5225868
v 1.703194 0.006943956 0.2164026
v 1.253403 0.2145143 0.2532281
v 1.88525 0.04128356 -0.0807035
v 1.419659 0.2263241 -0.004393089
v 1.974355 0.08038726 -0.3122404
v 1.573927 0.224255 -0.2227295
vt 0 1
vt 0.03125 1
vt 0.03125 0
vt 0 0
vt 0.0625 0
vt 0.0625 1
vt 0.09375 0
vt 0.09375 1
vt 0.125 1
vt 0.125 0
vt 0.15625 0
vt 0.15625 1
vt 0.1875 0
vt 0.1875 1
vt 0.21875 0
vt 0.21875 1
vt 0.25 1
vt 0.25 0
vt 0.28125 0
vt 0.28125 1
vt 0.3125 0
vt 0.3125 1
vt 0.34375 0
vt 0.34375 1
vt 0.375 1
vt 0.375 0
vt 0.40625 0
vt 0.40625 1
vt 0.4375 0
vt 0.4375 1
vt 0.46875 0
vt 0.46875 1
vt 0.5 1
vt 0.5 0
vt 0.53125 0
vt 0.53125 1
vt 0.5625 0
vt 0.5625 1
vt 0.59375 0
vt 0.59375 1
vt 0.625 1
vt 0.625 0
vt 0.65625 0
vt 0.65625 1
vt 0.6875 0
vt 0.6875 1
vt 0.71875 0
vt 0.71875 1
vt 0.75 1
vt 0.75 0
vt 0.78125 0
vt 0.78125 1
vt 0.8125 0
vt 0.8125 1
vt 0.84375 0
vt 0.84375 1
vt 0.875 1
vt 0.875 0
vt 0.90625 0
vt 0.90625 1
vt 0.9375 0
vt 0.9375 1
vt 0.96875 0
vt 0.96875 1
vt 1 0
vt 1 1
vn -0.2114203 0.8514269 0.4799725
vn -0.1774917 0.8629048 0.4731722
vn -0.171056 0.8649443 0.471817
vn -0.2114203 0.8514269 0.4799725
vn -0.09620933 0.8842772 0.4569438
vn -0.109314 0.8813578 0.4596289
vn 0.009592881 0.9049128 0.4254887
vn -0.00794399 0.9020566 0.4315447
vn 0.1253405 0.9225962 0.3648371
vn 0.140455 0.9243141 0.3548461
vn 0.2367284 0.9367589 0.2577643
vn 0.2313981 0.9358646 0.2657301
vn 0.2778275 0.9471815 0.1601848
vn 0.2764186 0.9465424 0.1662837
vn 0.2886751 0.9544982 0.07483348
vn 0.2885925 0.9543319 0.07723349
vn 0.2945774 0.9556236 -0.002798553
vn 0.2940913 0.9557762 0.00148197
vn 0.3059054 0.9493132 -0.07229349
vn 0.3080933 0.9477958 -0.08222818
vn 0.3195527 0.9342122 -0.1585363
vn 0.3203776 0.9320846 -0.1690463
vn 0.3061266 0.9150408 -0.2626538
vn 0.3040651 0.9141573 -0.2680688
vn 0.227023 0.9033468 -0.3639027
vn 0.227357 0.903361 -0.3636586
vn 0.1096585 0.8996831 -0.4225463
vn 0.1105678 0.8996887 -0.4222973
vn 0.02344614 0.8962751 -0.4428782
vn 0.02608062 0.8964506 -0.4423757
vn -0.05694418 0.8910692 -0.450281
vn -0.05101677 0.8915242 -0.4500909
vn -0.1857128 0.881335 -0.4344645
vn -0.1876087 0.8811519 -0.4340211
vn -0.3498532 0.8581992 -0.3756286
vn -0.3538145 0.8574963 -0.3735177
vn -0.4602338 0.8363761 -0.2977583
vn -0.4599493 0.836427 -0.2980544
vn -0.5166044 0.8328139 -0.1988488
vn -0.514156 0.8326112 -0.2059179
vn -0.5376793 0.8414198 -0.05397793
vn -0.5376871 0.8418236 -0.04717607
vn -0.5098897 0.8488294 0.1396464
vn -0.5062323 0.8488606 0.1521984
vn -0.428823 0.8438153 0.3226245
vn -0.4111005 0.8417644 0.3498987
vn -0.3244955 0.82851 0.4563703
vn -0.3016508 0.8247831 0.4782673
vn -0.1609392 0.7882255 0.593969
vn -0.2006693 0.8008076 0.5643039
vn -0.001246606 0.7282408 0.6853201
vn 0.04485446 0.7090266 0.7037537
vn 0.2136268 0.6442533 0.7343714
vn 0.2242494 0.641308 0.7337822
vn 0.3572537 0.6408529 0.6794684
vn 0.3421717 0.6356057 0.6920432
vn 0.4138027 0.6867308 0.5976354
vn 0.4253559 0.7108229 0.5601813
vn 0.431311 0.7875307 0.4401889
vn 0.4345325 0.761738 0.4805587
vn 0.4136477 0.8395963 0.3520989
vn 0.4218234 0.8219851 0.3826298
vn 0.3951108 0.8683751 0.2996867
vn 0.4023366 0.8590096 0.316588
vn 0.3873455 0.8778078 0.2818099
vn 0.3873455 0.8778078 0.2818099
g fxMeshWhirl02_0
f 3/3/3 2/2/2 1/1/1
f 4/4/4 3/3/3 1/1/1
f 2/2/2 3/3/3 5/5/5
f 6/6/6 2/2/2 5/5/5
f 6/6/6 5/5/5 7/7/7
f 8/8/8 6/6/6 7/7/7
f 8/8/8 7/7/7 9/9/9
f 7/7/7 10/10/10 9/9/9
f 10/10/10 11/11/11 9/9/9
f 11/11/11 12/12/12 9/9/9
f 12/12/12 11/11/11 13/13/13
f 14/14/14 12/12/12 13/13/13
f 14/14/14 13/13/13 15/15/15
f 16/16/16 14/14/14 15/15/15
f 16/16/16 15/15/15 17/17/17
f 15/15/15 18/18/18 17/17/17
f 18/18/18 19/19/19 17/17/17
f 19/19/19 20/20/20 17/17/17
f 20/20/20 19/19/19 21/21/21
f 22/22/22 20/20/20 21/21/21
f 22/22/22 21/21/21 23/23/23
f 24/24/24 22/22/22 23/23/23
f 24/24/24 23/23/23 25/25/25
f 23/23/23 26/26/26 25/25/25
f 26/26/26 27/27/27 25/25/25
f 27/27/27 28/28/28 25/25/25
f 28/28/28 27/27/27 29/29/29
f 30/30/30 28/28/28 29/29/29
f 30/30/30 29/29/29 31/31/31
f 32/32/32 30/30/30 31/31/31
f 32/32/32 31/31/31 33/33/33
f 31/31/31 34/34/34 33/33/33
f 34/34/34 35/35/35 33/33/33
f 35/35/35 36/36/36 33/33/33
f 36/36/36 35/35/35 37/37/37
f 38/38/38 36/36/36 37/37/37
f 38/38/38 37/37/37 39/39/39
f 40/40/40 38/38/38 39/39/39
f 40/40/40 39/39/39 41/41/41
f 39/39/39 42/42/42 41/41/41
f 42/42/42 43/43/43 41/41/41
f 43/43/43 44/44/44 41/41/41
f 44/44/44 43/43/43 45/45/45
f 46/46/46 44/44/44 45/45/45
f 46/46/46 45/45/45 47/47/47
f 48/48/48 46/46/46 47/47/47
f 48/48/48 47/47/47 49/49/49
f 47/47/47 50/50/50 49/49/49
f 50/50/50 51/51/51 49/49/49
f 51/51/51 52/52/52 49/49/49
f 52/52/52 51/51/51 53/53/53
f 54/54/54 52/52/52 53/53/53
f 54/54/54 53/53/53 55/55/55
f 56/56/56 54/54/54 55/55/55
f 56/56/56 55/55/55 57/57/57
f 55/55/55 58/58/58 57/57/57
f 58/58/58 59/59/59 57/57/57
f 59/59/59 60/60/60 57/57/57
f 60/60/60 59/59/59 61/61/61
f 62/62/62 60/60/60 61/61/61
f 62/62/62 61/61/61 63/63/63
f 64/64/64 62/62/62 63/63/63
f 64/64/64 63/63/63 65/65/65
f 66/66/66 64/64/64 65/65/65
