g giantClub_break02
v -0.08720947 -0.5021824 -0.1417457
v 0.09410767 -0.3693112 -0.1393427
v -0.1260669 -0.06812946 -0.1821802
v 0.09410767 -0.3693112 -0.1393427
v 0.1355139 0.02629726 -0.1778659
v -0.1260669 -0.06812946 -0.1821802
v 0.09410767 -0.3693112 -0.1393427
v 0.1826538 -0.3224515 0.04118804
v 0.1355139 0.02629726 -0.1778659
v 0.1826538 -0.3224515 0.04118804
v 0.2151428 0.03949261 0.03785553
v 0.1355139 0.02629726 -0.1778659
v 0.1826538 -0.3224515 0.04118804
v 0.1181238 -0.3042437 0.1891677
v 0.2151428 0.03949261 0.03785553
v 0.1181238 -0.3042437 0.1891677
v 0.1098987 0.049436 0.1943772
v 0.2151428 0.03949261 0.03785553
v 0.2144678 0.2527038 0.0135643
v -0.09219116 -0.3843818 0.1881672
v -0.116073 -0.01782932 0.2148838
v 0.1181238 -0.3042437 0.1891677
v -0.116073 -0.01782932 0.2148838
v 0.1098987 0.049436 0.1943772
v 0.1181238 -0.3042437 0.1891677
v -0.1936011 -0.4192778 0.02593303
v -0.2434436 -0.05721172 0.0190732
v -0.09219116 -0.3843818 0.1881672
v -0.116073 -0.01782932 0.2148838
v -0.08720947 -0.5021824 -0.1417457
v -0.1260669 -0.06812946 -0.1821802
v -0.1936011 -0.4192778 0.02593303
v -0.1260669 -0.06812946 -0.1821802
v -0.2434436 -0.05721172 0.0190732
v -0.1936011 -0.4192778 0.02593303
v -0.1260669 -0.06812946 -0.1821802
v 0.1355139 0.02629726 -0.1778659
v -0.1124792 0.252082 -0.164574
v 0.1355139 0.02629726 -0.1778659
v 0.1131152 0.2293185 -0.1599369
v -0.1124792 0.252082 -0.164574
v 0.1355139 0.02629726 -0.1778659
v 0.2151428 0.03949261 0.03785553
v 0.1131152 0.2293185 -0.1599369
v 0.2151428 0.03949261 0.03785553
v 0.2144678 0.2527038 0.0135643
v 0.1131152 0.2293185 -0.1599369
v 0.1098987 0.049436 0.1943772
v 0.1092065 0.2647386 0.1946041
v 0.2144678 0.2527038 0.0135643
v -0.116073 -0.01782932 0.2148838
v -0.110343 0.2633679 0.2006194
v 0.1098987 0.049436 0.1943772
v -0.110343 0.2633679 0.2006194
v 0.1092065 0.2647386 0.1946041
v 0.1098987 0.049436 0.1943772
v -0.2434436 -0.05721172 0.0190732
v -0.2191992 0.2828622 0.007986647
v -0.116073 -0.01782932 0.2148838
v -0.2191992 0.2828622 0.007986647
v -0.110343 0.2633679 0.2006194
v -0.116073 -0.01782932 0.2148838
v -0.1260669 -0.06812946 -0.1821802
v -0.1124792 0.252082 -0.164574
v -0.2434436 -0.05721172 0.0190732
v -0.1124792 0.252082 -0.164574
v -0.2191992 0.2828622 0.007986647
v -0.2434436 -0.05721172 0.0190732
v -0.1360962 0.4625941 0.01324362
v -0.06723755 0.4527612 -0.1319205
v 0.005976562 0.5021824 -0.0004160953
v 0.05845703 0.4626013 0.1172172
v 0.005976562 0.5021824 -0.0004160953
v 0.1211438 0.4546009 -0.003787124
v 0.005976562 0.5021824 -0.0004160953
v 0.05747436 0.4612504 -0.08150366
v 0.1211438 0.4546009 -0.003787124
v 0.005976562 0.5021824 -0.0004160953
v -0.06723755 0.4527612 -0.1319205
v 0.05747436 0.4612504 -0.08150366
v -0.06169189 0.4644964 0.1154977
v -0.1360962 0.4625941 0.01324362
v 0.005976562 0.5021824 -0.0004160953
v 0.05845703 0.4626013 0.1172172
v -0.06169189 0.4644964 0.1154977
v 0.005976562 0.5021824 -0.0004160953
v -0.1124792 0.252082 -0.164574
v 0.1131152 0.2293185 -0.1599369
v -0.06723755 0.4527612 -0.1319205
v 0.1131152 0.2293185 -0.1599369
v 0.05747436 0.4612504 -0.08150366
v -0.06723755 0.4527612 -0.1319205
v 0.2144678 0.2527038 0.0135643
v 0.1211438 0.4546009 -0.003787124
v 0.1131152 0.2293185 -0.1599369
v 0.1211438 0.4546009 -0.003787124
v 0.05747436 0.4612504 -0.08150366
v 0.1131152 0.2293185 -0.1599369
v 0.2144678 0.2527038 0.0135643
v 0.1092065 0.2647386 0.1946041
v 0.1211438 0.4546009 -0.003787124
v 0.1092065 0.2647386 0.1946041
v 0.05845703 0.4626013 0.1172172
v 0.1211438 0.4546009 -0.003787124
v 0.1092065 0.2647386 0.1946041
v -0.110343 0.2633679 0.2006194
v 0.05845703 0.4626013 0.1172172
v -0.06169189 0.4644964 0.1154977
v -0.110343 0.2633679 0.2006194
v -0.2191992 0.2828622 0.007986647
v -0.06169189 0.4644964 0.1154977
v -0.2191992 0.2828622 0.007986647
v -0.1360962 0.4625941 0.01324362
v -0.06169189 0.4644964 0.1154977
v -0.1124792 0.252082 -0.164574
v -0.06723755 0.4527612 -0.1319205
v -0.2191992 0.2828622 0.007986647
v -0.06723755 0.4527612 -0.1319205
v -0.1360962 0.4625941 0.01324362
v -0.2191992 0.2828622 0.007986647
v 0.1566833 -0.0623592 -0.03160511
v 0.3119251 0.01549145 0.1423966
v 0.1460669 0.07020687 -0.03061937
v 0.1460669 0.07020687 -0.03061937
v 0.3119251 0.01549145 0.1423966
v 0.1052881 0.1328349 0.07939145
v 0.1052881 0.1328349 0.07939145
v 0.3119251 0.01549145 0.1423966
v 0.07512818 0.062897 0.1884165
v 0.07512818 0.062897 0.1884165
v 0.3119251 0.01549145 0.1423966
v 0.08574585 -0.06966892 0.1874308
v 0.08574585 -0.06966892 0.1874308
v 0.3119251 0.01549145 0.1423966
v 0.1265234 -0.132297 0.07741995
v 0.1265234 -0.132297 0.07741995
v 0.3119251 0.01549145 0.1423966
v 0.1566833 -0.0623592 -0.03160511
v -0.08059082 0.09639217 0.2021175
v -0.3119251 0.1795153 0.198611
v -0.0712207 0.2282415 0.1874418
v -0.0712207 0.2282415 0.1874418
v -0.3119251 0.1795153 0.198611
v -0.1248523 0.2872816 0.08102081
v -0.1248523 0.2872816 0.08102081
v -0.3119251 0.1795153 0.198611
v -0.1878516 0.2144723 -0.01072443
v -0.1878516 0.2144723 -0.01072443
v -0.3119251 0.1795153 0.198611
v -0.1972217 0.08262295 0.003951277
v -0.1972217 0.08262295 0.003951277
v -0.3119251 0.1795153 0.198611
v -0.1435913 0.02358303 0.1103722
v -0.1435913 0.02358303 0.1103722
v -0.3119251 0.1795153 0.198611
v -0.08059082 0.09639217 0.2021175
v -0.2187988 -0.1148709 0.006957659
v -0.2853589 -0.07049145 -0.2148838
v -0.2098096 0.01160732 -0.00712018
v -0.2098096 0.01160732 -0.00712018
v -0.2853589 -0.07049145 -0.2148838
v -0.1307263 0.06061306 -0.09441116
v -0.1307263 0.06061306 -0.09441116
v -0.2853589 -0.07049145 -0.2148838
v -0.06062988 -0.01685917 -0.1676243
v -0.06062988 -0.01685917 -0.1676243
v -0.2853589 -0.07049145 -0.2148838
v -0.06961792 -0.1433371 -0.1535465
v -0.06961792 -0.1433371 -0.1535465
v -0.2853589 -0.07049145 -0.2148838
v -0.1487012 -0.192343 -0.06625547
v -0.1487012 -0.192343 -0.06625547
v -0.2853589 -0.07049145 -0.2148838
v -0.2187988 -0.1148709 0.006957659
v 0.01996338 0.08413036 -0.1340282
v 0.2458276 0.1692773 -0.180642
v 0.009346924 0.2166964 -0.1330425
v 0.009346924 0.2166964 -0.1330425
v 0.2458276 0.1692773 -0.180642
v 0.07880493 0.2883169 -0.04510313
v 0.07880493 0.2883169 -0.04510313
v 0.2458276 0.1692773 -0.180642
v 0.1588806 0.2273715 0.04185049
v 0.1588806 0.2273715 0.04185049
v 0.2458276 0.1692773 -0.180642
v 0.1694971 0.09480556 0.04086474
v 0.1694971 0.09480556 0.04086474
v 0.2458276 0.1692773 -0.180642
v 0.1000391 0.02318508 -0.04707463
v 0.1000391 0.02318508 -0.04707463
v 0.2458276 0.1692773 -0.180642
v 0.01996338 0.08413036 -0.1340282
v 0.1826538 -0.3224515 0.04118804
v 0.09410767 -0.3693112 -0.1393427
v -0.001064453 -0.386712 0.02263399
v -0.08720947 -0.5021824 -0.1417457
v -0.1936011 -0.4192778 0.02593303
v -0.09219116 -0.3843818 0.1881672
v 0.1181238 -0.3042437 0.1891677
vt 0.1471623 0.6920958
vt 0.1366847 0.6920958
vt 0.1471623 0.6980042
vt 0.1366847 0.6920958
vt 0.1366847 0.6980042
vt 0.1471623 0.6980042
vt 0.1366847 0.6920958
vt 0.1262071 0.6920958
vt 0.1366847 0.6980042
vt 0.1262071 0.6920958
vt 0.1262071 0.6980042
vt 0.1366847 0.6980042
vt 0.1262071 0.6920958
vt 0.1157296 0.6920958
vt 0.1262071 0.6980042
vt 0.1157296 0.6920958
vt 0.1157296 0.6980042
vt 0.1262071 0.6980042
vt 0.1262071 0.7009585
vt 0.105252 0.6920958
vt 0.105252 0.6980042
vt 0.1157296 0.6920958
vt 0.105252 0.6980042
vt 0.1157296 0.6980042
vt 0.1157296 0.6920958
vt 0.1576399 0.6920958
vt 0.1576399 0.6980042
vt 0.1681175 0.6920958
vt 0.1681175 0.6980042
vt 0.1471623 0.6920958
vt 0.1471623 0.6980042
vt 0.1576399 0.6920958
vt 0.1471623 0.6980042
vt 0.1576399 0.6980042
vt 0.1576399 0.6920958
vt 0.1471623 0.6980042
vt 0.1366847 0.6980042
vt 0.1471623 0.7009585
vt 0.1366847 0.6980042
vt 0.1366847 0.7009585
vt 0.1471623 0.7009585
vt 0.1366847 0.6980042
vt 0.1262071 0.6980042
vt 0.1366847 0.7009585
vt 0.1262071 0.6980042
vt 0.1262071 0.7009585
vt 0.1366847 0.7009585
vt 0.1157296 0.6980042
vt 0.1157296 0.7009585
vt 0.1262071 0.7009585
vt 0.105252 0.6980042
vt 0.105252 0.7009585
vt 0.1157296 0.6980042
vt 0.105252 0.7009585
vt 0.1157296 0.7009585
vt 0.1157296 0.6980042
vt 0.1576399 0.6980042
vt 0.1576399 0.7009585
vt 0.1681175 0.6980042
vt 0.1576399 0.7009585
vt 0.1681175 0.7009585
vt 0.1681175 0.6980042
vt 0.1471623 0.6980042
vt 0.1471623 0.7009585
vt 0.1576399 0.6980042
vt 0.1471623 0.7009585
vt 0.1576399 0.7009585
vt 0.1576399 0.6980042
vt 0.1576399 0.7039127
vt 0.1471623 0.7039127
vt 0.1314459 0.7039127
vt 0.1157296 0.7039127
vt 0.1314459 0.7039127
vt 0.1262071 0.7039127
vt 0.1314459 0.7039127
vt 0.1366847 0.7039127
vt 0.1262071 0.7039127
vt 0.1314459 0.7039127
vt 0.1471623 0.7039127
vt 0.1366847 0.7039127
vt 0.105252 0.7039127
vt 0.1576399 0.7039127
vt 0.1314459 0.7039127
vt 0.1157296 0.7039127
vt 0.105252 0.7039127
vt 0.1314459 0.7039127
vt 0.1471623 0.7009585
vt 0.1366847 0.7009585
vt 0.1471623 0.7039127
vt 0.1366847 0.7009585
vt 0.1366847 0.7039127
vt 0.1471623 0.7039127
vt 0.1262071 0.7009585
vt 0.1262071 0.7039127
vt 0.1366847 0.7009585
vt 0.1262071 0.7039127
vt 0.1366847 0.7039127
vt 0.1366847 0.7009585
vt 0.1262071 0.7009585
vt 0.1157296 0.7009585
vt 0.1262071 0.7039127
vt 0.1157296 0.7009585
vt 0.1157296 0.7039127
vt 0.1262071 0.7039127
vt 0.1157296 0.7009585
vt 0.105252 0.7009585
vt 0.1157296 0.7039127
vt 0.105252 0.7039127
vt 0.1681175 0.7009585
vt 0.1576399 0.7009585
vt 0.1681175 0.7039127
vt 0.1576399 0.7009585
vt 0.1576399 0.7039127
vt 0.1681175 0.7039127
vt 0.1471623 0.7009585
vt 0.1471623 0.7039127
vt 0.1576399 0.7009585
vt 0.1471623 0.7039127
vt 0.1576399 0.7039127
vt 0.1576399 0.7009585
vt 0.09308597 0.07833809
vt 0.1293257 0.1873298
vt 0.1051659 0.07833809
vt 0.1051659 0.07833809
vt 0.1293257 0.1873298
vt 0.1172458 0.07833809
vt 0.1172458 0.07833809
vt 0.1293257 0.1873298
vt 0.1293257 0.07833809
vt 0.1293257 0.07833809
vt 0.1293257 0.1873298
vt 0.1414056 0.07833809
vt 0.1414056 0.07833809
vt 0.1293257 0.1873298
vt 0.1534856 0.07833809
vt 0.1534856 0.07833809
vt 0.1293257 0.1873298
vt 0.1655655 0.07833809
vt 0.09308597 0.07833809
vt 0.1293257 0.1873298
vt 0.1051659 0.07833809
vt 0.1051659 0.07833809
vt 0.1293257 0.1873298
vt 0.1172458 0.07833809
vt 0.1172458 0.07833809
vt 0.1293257 0.1873298
vt 0.1293257 0.07833809
vt 0.1293257 0.07833809
vt 0.1293257 0.1873298
vt 0.1414056 0.07833809
vt 0.1414056 0.07833809
vt 0.1293257 0.1873298
vt 0.1534856 0.07833809
vt 0.1534856 0.07833809
vt 0.1293257 0.1873298
vt 0.1655655 0.07833809
vt 0.09308597 0.07833809
vt 0.1293257 0.1873298
vt 0.1051659 0.07833809
vt 0.1051659 0.07833809
vt 0.1293257 0.1873298
vt 0.1172458 0.07833809
vt 0.1172458 0.07833809
vt 0.1293257 0.1873298
vt 0.1293257 0.07833809
vt 0.1293257 0.07833809
vt 0.1293257 0.1873298
vt 0.1414056 0.07833809
vt 0.1414056 0.07833809
vt 0.1293257 0.1873298
vt 0.1534856 0.07833809
vt 0.1534856 0.07833809
vt 0.1293257 0.1873298
vt 0.1655655 0.07833809
vt 0.09308597 0.07833809
vt 0.1293257 0.1873298
vt 0.1051659 0.07833809
vt 0.1051659 0.07833809
vt 0.1293257 0.1873298
vt 0.1172458 0.07833809
vt 0.1172458 0.07833809
vt 0.1293257 0.1873298
vt 0.1293257 0.07833809
vt 0.1293257 0.07833809
vt 0.1293257 0.1873298
vt 0.1414056 0.07833809
vt 0.1414056 0.07833809
vt 0.1293257 0.1873298
vt 0.1534856 0.07833809
vt 0.1534856 0.07833809
vt 0.1293257 0.1873298
vt 0.1655655 0.07833809
vt 0.1262071 0.6920958
vt 0.1366847 0.6920958
vt 0.1524011 0.6920958
vt 0.1471623 0.6920958
vt 0.1576399 0.6920958
vt 0.1681175 0.6920958
vt 0.1157296 0.6920958
vn 0.07599576 -0.08573905 -0.993415
vn 0.07599578 -0.08573905 -0.993415
vn 0.07599576 -0.08573905 -0.993415
vn 0.05331453 -0.102307 -0.9933231
vn 0.05331453 -0.102307 -0.9933231
vn 0.05331453 -0.1023069 -0.9933231
vn 0.9030263 -0.134253 -0.4080683
vn 0.9030262 -0.134253 -0.4080682
vn 0.9030263 -0.134253 -0.4080683
vn 0.9362777 -0.08717436 -0.3402714
vn 0.9362777 -0.08717436 -0.3402714
vn 0.9362777 -0.08717436 -0.3402714
vn 0.9606605 -0.08379209 0.2647836
vn 0.9606605 -0.0837921 0.2647836
vn 0.9606605 -0.0837921 0.2647836
vn 0.82819 0.1074966 0.5500416
vn 0.82819 0.1074966 0.5500416
vn 0.82819 0.1074966 0.5500416
vn 0.8299838 0.06573783 0.5539002
vn -0.1514037 -0.08166365 0.9850928
vn -0.1514037 -0.08166365 0.9850928
vn -0.1514037 -0.08166365 0.9850928
vn 0.05963621 0.1023714 0.992957
vn 0.0596362 0.1023714 0.992957
vn 0.0596362 0.1023714 0.992957
vn -0.8330862 -0.1043888 0.5432037
vn -0.8330863 -0.1043888 0.5432037
vn -0.8330862 -0.1043888 0.5432037
vn -0.8257451 -0.09432954 0.5560998
vn -0.8643299 -0.1228087 -0.4877006
vn -0.8643299 -0.1228087 -0.4877006
vn -0.8643299 -0.1228087 -0.4877006
vn -0.8597441 -0.1277192 -0.4944977
vn -0.8597441 -0.1277192 -0.4944977
vn -0.8597441 -0.1277192 -0.4944976
vn -0.003401559 0.05504378 -0.9984781
vn -0.003401559 0.05504381 -0.9984781
vn -0.003401559 0.05504379 -0.9984781
vn 0.02966046 0.09117649 -0.9953929
vn 0.02966046 0.09117648 -0.9953929
vn 0.02966046 0.09117648 -0.9953929
vn 0.9270904 0.1332282 -0.3503619
vn 0.9270904 0.1332282 -0.3503619
vn 0.9270904 0.1332282 -0.3503619
vn 0.8653625 -0.05401928 -0.4982266
vn 0.8653625 -0.05401927 -0.4982266
vn 0.8653625 -0.05401928 -0.4982266
vn 0.8645607 0.002248917 0.5025234
vn 0.8645607 0.002248917 0.5025235
vn 0.8645607 0.002248917 0.5025234
vn 0.07579956 0.04897548 0.9959196
vn 0.07579955 0.04897547 0.9959196
vn 0.07579956 0.04897548 0.9959196
vn 0.02739421 -0.0009655955 0.9996243
vn 0.02739421 -0.0009655958 0.9996243
vn 0.02739421 -0.0009655958 0.9996243
vn -0.8427913 0.07744852 0.5326393
vn -0.8427913 0.07744852 0.5326393
vn -0.8427913 0.07744852 0.5326393
vn -0.8679494 0.04278829 0.4948061
vn -0.8679494 0.0427883 0.4948063
vn -0.8679494 0.0427883 0.4948063
vn -0.860509 0.0643014 -0.505361
vn -0.8605089 0.06430139 -0.505361
vn -0.860509 0.0643014 -0.5053609
vn -0.8462549 0.04301915 -0.5310385
vn -0.8462551 0.04301915 -0.5310385
vn -0.8462549 0.04301914 -0.5310385
vn -0.4827116 0.807758 -0.3384028
vn -0.4827116 0.807758 -0.3384028
vn -0.4827116 0.807758 -0.3384028
vn 0.6245964 0.7479308 0.2246752
vn 0.6245964 0.7479308 0.2246752
vn 0.6245964 0.7479308 0.2246752
vn 0.5884937 0.7248818 -0.3580804
vn 0.5884936 0.7248818 -0.3580804
vn 0.5884936 0.7248818 -0.3580804
vn 0.1609858 0.7438158 -0.6487077
vn 0.1609858 0.7438157 -0.6487077
vn 0.1609858 0.7438157 -0.6487077
vn -0.4441098 0.8471853 0.2916225
vn -0.4441097 0.8471853 0.2916225
vn -0.4441098 0.8471853 0.2916225
vn 0.01837815 0.8332677 0.5525643
vn 0.01837815 0.8332677 0.5525642
vn 0.01837815 0.8332677 0.5525643
vn 0.03768169 0.172947 -0.9842101
vn 0.03768169 0.172947 -0.98421
vn 0.03768168 0.172947 -0.9842101
vn 0.2981053 0.3931578 -0.8698047
vn 0.2981052 0.3931578 -0.8698046
vn 0.2981053 0.3931578 -0.8698046
vn 0.7838229 0.3595139 -0.5063313
vn 0.7838229 0.359514 -0.5063313
vn 0.7838229 0.359514 -0.5063313
vn 0.7440598 0.389338 -0.5429466
vn 0.7440599 0.389338 -0.5429465
vn 0.7440598 0.3893381 -0.5429465
vn 0.7845766 0.4502928 0.4262345
vn 0.7845766 0.4502929 0.4262346
vn 0.7845766 0.4502929 0.4262346
vn 0.8365768 0.3932962 0.3813888
vn 0.8365768 0.3932961 0.3813888
vn 0.8365768 0.3932961 0.3813888
vn 0.02270129 0.3947347 0.9185147
vn 0.0227013 0.3947347 0.9185147
vn 0.0227013 0.3947347 0.9185147
vn -3.584747E-05 0.4121954 0.9110954
vn -0.7728171 0.4164672 0.4788618
vn -0.7728171 0.4164672 0.4788618
vn -0.7728171 0.4164672 0.4788618
vn -0.7590779 0.3654769 0.5387275
vn -0.7590778 0.3654769 0.5387275
vn -0.7590778 0.3654769 0.5387275
vn -0.7856859 0.302171 -0.5398058
vn -0.785686 0.3021709 -0.5398058
vn -0.7856859 0.3021709 -0.5398058
vn -0.7983501 0.4163282 -0.4350952
vn -0.7983502 0.4163283 -0.4350951
vn -0.7983502 0.4163283 -0.4350951
vn 0.7303841 0.06355033 -0.6800739
vn 0.7303841 0.06355033 -0.6800739
vn 0.7303841 0.06355033 -0.6800739
vn 0.5354766 0.8038158 -0.2591234
vn 0.5354767 0.8038157 -0.2591234
vn 0.5354766 0.8038158 -0.2591234
vn 0.2664503 0.7760935 0.571562
vn 0.2664504 0.7760935 0.571562
vn 0.2664504 0.7760935 0.571562
vn 0.1923321 0.00810624 0.9812965
vn 0.192332 0.008106238 0.9812965
vn 0.1923321 0.008106239 0.9812965
vn 0.3872403 -0.7321589 0.5603467
vn 0.3872403 -0.7321589 0.5603467
vn 0.3872403 -0.7321589 0.5603467
vn 0.6562668 -0.7044371 -0.2703371
vn 0.6562668 -0.7044372 -0.2703371
vn 0.6562667 -0.7044372 -0.270337
vn 0.02406761 0.1089018 0.9937611
vn 0.0240676 0.1089018 0.9937611
vn 0.02406761 0.1089018 0.9937611
vn -0.1437915 0.8328431 0.5345057
vn -0.1437915 0.8328431 0.5345057
vn -0.1437915 0.8328432 0.5345057
vn -0.5861099 0.7806238 -0.2170296
vn -0.5861098 0.7806238 -0.2170296
vn -0.5861098 0.7806237 -0.2170296
vn -0.8605697 0.004463821 -0.5093131
vn -0.8605697 0.004463821 -0.5093131
vn -0.8605697 0.004463821 -0.5093132
vn -0.6927105 -0.7194763 -0.05006003
vn -0.6927105 -0.7194763 -0.05006003
vn -0.6927105 -0.7194763 -0.05006002
vn -0.2503919 -0.6672569 0.7014785
vn -0.2503919 -0.6672569 0.7014785
vn -0.2503919 -0.6672569 0.7014785
vn -0.9471464 0.101191 0.3044241
vn -0.9471464 0.101191 0.3044241
vn -0.9471464 0.1011911 0.304424
vn -0.598951 0.7949691 -0.09634168
vn -0.598951 0.7949691 -0.09634169
vn -0.598951 0.7949691 -0.09634168
vn -0.009159734 0.682427 -0.7308964
vn -0.009159733 0.682427 -0.7308964
vn -0.009159733 0.6824269 -0.7308964
vn 0.2324361 -0.1238938 -0.9646884
vn 0.2324361 -0.1238938 -0.9646884
vn 0.2324361 -0.1238938 -0.9646884
vn -0.1157603 -0.8176731 -0.563924
vn -0.1157603 -0.8176731 -0.563924
vn -0.1157603 -0.8176731 -0.563924
vn -0.7055507 -0.7051308 0.07063067
vn -0.7055507 -0.7051308 0.07063065
vn -0.7055507 -0.7051308 0.07063065
vn -0.1989847 -0.008649074 -0.9799644
vn -0.1989847 -0.008649074 -0.9799644
vn -0.1989847 -0.008649074 -0.9799644
vn 0.02417336 0.7657195 -0.6427202
vn 0.02417336 0.7657195 -0.6427203
vn 0.02417336 0.7657195 -0.6427203
vn 0.591279 0.806205 0.02055575
vn 0.591279 0.8062052 0.02055576
vn 0.5912789 0.806205 0.02055576
vn 0.9352266 0.07232144 0.3465847
vn 0.9352266 0.07232143 0.3465847
vn 0.9352266 0.07232144 0.3465847
vn 0.7120685 -0.7020478 0.009340274
vn 0.7120685 -0.7020478 0.009340273
vn 0.7120685 -0.7020478 0.009340273
vn 0.1449635 -0.7425319 -0.6539357
vn 0.1449635 -0.7425319 -0.6539357
vn 0.1449635 -0.7425319 -0.6539357
vn 0.3093539 -0.9348054 0.1744678
vn 0.4639055 -0.8675339 0.1793782
vn 0.3257281 -0.9130967 0.2452662
vn 0.3660054 -0.8408166 0.3988326
vn 0.1623106 -0.924744 0.3442438
vn 0.2685985 -0.9496625 0.1612324
vn 0.3237657 -0.9193491 0.2235466
g giantClub_break02_0
f 3/3/3 2/2/2 1/1/1
f 6/6/6 5/5/5 4/4/4
f 9/9/9 8/8/8 7/7/7
f 12/12/12 11/11/11 10/10/10
f 15/15/15 14/14/14 13/13/13
f 18/18/18 17/17/17 16/16/16
f 19/19/19 17/17/17 18/18/18
f 22/22/22 21/21/21 20/20/20
f 25/25/25 24/24/24 23/23/23
f 28/28/28 27/27/27 26/26/26
f 28/28/28 29/29/29 27/27/27
f 32/32/32 31/31/31 30/30/30
f 35/35/35 34/34/34 33/33/33
f 38/38/38 37/37/37 36/36/36
f 41/41/41 40/40/40 39/39/39
f 44/44/44 43/43/43 42/42/42
f 47/47/47 46/46/46 45/45/45
f 50/50/50 49/49/49 48/48/48
f 53/53/53 52/52/52 51/51/51
f 56/56/56 55/55/55 54/54/54
f 59/59/59 58/58/58 57/57/57
f 62/62/62 61/61/61 60/60/60
f 65/65/65 64/64/64 63/63/63
f 68/68/68 67/67/67 66/66/66
f 71/71/71 70/70/70 69/69/69
f 74/74/74 73/73/73 72/72/72
f 77/77/77 76/76/76 75/75/75
f 80/80/80 79/79/79 78/78/78
f 83/83/83 82/82/82 81/81/81
f 86/86/86 85/85/85 84/84/84
f 89/89/89 88/88/88 87/87/87
f 92/92/92 91/91/91 90/90/90
f 95/95/95 94/94/94 93/93/93
f 98/98/98 97/97/97 96/96/96
f 101/101/101 100/100/100 99/99/99
f 104/104/104 103/103/103 102/102/102
f 107/107/107 106/106/106 105/105/105
f 107/107/107 108/108/108 106/106/106
f 111/111/111 110/110/110 109/109/109
f 114/114/114 113/113/113 112/112/112
f 117/117/117 116/116/116 115/115/115
f 120/120/120 119/119/119 118/118/118
f 123/123/123 122/122/122 121/121/121
f 126/126/126 125/125/125 124/124/124
f 129/129/129 128/128/128 127/127/127
f 132/132/132 131/131/131 130/130/130
f 135/135/135 134/134/134 133/133/133
f 138/138/138 137/137/137 136/136/136
f 141/141/141 140/140/140 139/139/139
f 144/144/144 143/143/143 142/142/142
f 147/147/147 146/146/146 145/145/145
f 150/150/150 149/149/149 148/148/148
f 153/153/153 152/152/152 151/151/151
f 156/156/156 155/155/155 154/154/154
f 159/159/159 158/158/158 157/157/157
f 162/162/162 161/161/161 160/160/160
f 165/165/165 164/164/164 163/163/163
f 168/168/168 167/167/167 166/166/166
f 171/171/171 170/170/170 169/169/169
f 174/174/174 173/173/173 172/172/172
f 177/177/177 176/176/176 175/175/175
f 180/180/180 179/179/179 178/178/178
f 183/183/183 182/182/182 181/181/181
f 186/186/186 185/185/185 184/184/184
f 189/189/189 188/188/188 187/187/187
f 192/192/192 191/191/191 190/190/190
f 195/195/195 194/194/194 193/193/193
f 196/196/196 194/194/194 195/195/195
f 197/197/197 196/196/196 195/195/195
f 197/197/197 195/195/195 198/198/198
f 195/195/195 193/193/193 199/199/199
f 195/195/195 199/199/199 198/198/198
