g greatTorch_break02
v 0.03184975 -0.290324 -0.05516535
v 0.01708411 -0.2605734 -0.02959053
v -0.01708409 -0.2605734 -0.02959053
v -0.03184972 -0.290324 -0.05516536
v -0.03184972 -0.290324 -0.05516536
v -0.01708409 -0.2605734 -0.02959053
v -0.03416819 -0.2605734 -3.818404E-09
v -0.06369946 -0.290324 -6.810744E-09
v -0.06369946 -0.290324 -6.810744E-09
v -0.03416819 -0.2605734 -3.818404E-09
v -0.01708411 -0.2605734 0.02959053
v -0.03184974 -0.290324 0.05516535
v -0.03184974 -0.290324 0.05516535
v -0.01708411 -0.2605734 0.02959053
v 0.0170841 -0.2605734 0.02959053
v 0.03184973 -0.290324 0.05516536
v 0.03184973 -0.290324 0.05516536
v 0.0170841 -0.2605734 0.02959053
v 0.03416821 -0.2605734 1.273054E-09
v 0.06369946 -0.290324 2.681215E-09
v 0.06369946 -0.290324 2.681215E-09
v 0.03416821 -0.2605734 1.273054E-09
v 0.01708411 -0.2605734 -0.02959053
v 0.03184975 -0.290324 -0.05516535
v -0.03184972 -0.290324 -0.05516536
v 0 -0.3990402 2.681215E-09
v 0.03184975 -0.290324 -0.05516535
v -0.06369946 -0.290324 -6.810744E-09
v 0 -0.3990402 2.681215E-09
v -0.03184972 -0.290324 -0.05516536
v -0.03184974 -0.290324 0.05516535
v 0 -0.3990402 2.681215E-09
v -0.06369946 -0.290324 -6.810744E-09
v 0.03184973 -0.290324 0.05516536
v 0 -0.3990402 2.681215E-09
v -0.03184974 -0.290324 0.05516535
v 0.06369946 -0.290324 2.681215E-09
v 0 -0.3990402 2.681215E-09
v 0.03184973 -0.290324 0.05516536
v 0.03184975 -0.290324 -0.05516535
v 0 -0.3990402 2.681215E-09
v 0.06369946 -0.290324 2.681215E-09
v -0.03416819 -0.2605734 -3.818404E-09
v -0.03487134 -0.2380256 -3.889651E-09
v -0.01745046 -0.2370777 0.03022507
v -0.01708411 -0.2605734 0.02959053
v -0.01708409 -0.2605734 -0.02959053
v -0.01742469 -0.2387299 -0.03018045
v -0.03487134 -0.2380256 -3.889651E-09
v -0.03416819 -0.2605734 -3.818404E-09
v 0.01708411 -0.2605734 -0.02959053
v 0.01742847 -0.2384878 -0.03018698
v -0.01742469 -0.2387299 -0.03018045
v -0.01708409 -0.2605734 -0.02959053
v 0.03416821 -0.2605734 1.273054E-09
v 0.03488646 -0.2375407 1.307303E-09
v 0.01742847 -0.2384878 -0.03018698
v 0.01708411 -0.2605734 -0.02959053
v 0.0170841 -0.2605734 0.02959053
v 0.01745423 -0.2368349 0.03023162
v 0.03488646 -0.2375407 1.307303E-09
v 0.03416821 -0.2605734 1.273054E-09
v -0.01708411 -0.2605734 0.02959053
v -0.01745046 -0.2370777 0.03022507
v 0.01745423 -0.2368349 0.03023162
v 0.0170841 -0.2605734 0.02959053
v -0.04903121 0.2160446 -5.324443E-09
v -0.05636861 0.3431079 -6.067926E-09
v -0.02818431 0.3431079 0.04881665
v -0.02450923 0.2156356 0.04245124
v -0.02468406 0.2268481 -0.04275406
v -0.02818431 0.3431079 -0.04881666
v -0.05636861 0.3431079 -6.067926E-09
v -0.04903121 0.2160446 -5.324443E-09
v 0.0248483 0.2373806 -0.04303849
v 0.02818433 0.3738745 -0.04881665
v -0.02818431 0.3431079 -0.04881666
v -0.02468406 0.2268481 -0.04275406
v 0.04968347 0.2369604 2.01288E-09
v 0.05636861 0.3738745 2.331653E-09
v 0.02818433 0.3738745 -0.04881665
v 0.0248483 0.2373806 -0.04303849
v 0.02467112 0.2260189 0.04273166
v 0.02818431 0.3738745 0.04881666
v 0.05636861 0.3738745 2.331653E-09
v 0.04968347 0.2369604 2.01288E-09
v -0.02450923 0.2156356 0.04245124
v -0.02818431 0.3431079 0.04881665
v 0.02818431 0.3738745 0.04881666
v 0.02467112 0.2260189 0.04273166
v -0.03487134 -0.2380256 -3.889651E-09
v -0.04549378 -0.02569951 4.571896E-06
v -0.02290133 -0.01777785 0.03956372
v -0.01745046 -0.2370777 0.03022507
v -0.01742469 -0.2387299 -0.03018045
v -0.02295184 -0.01453863 -0.03964205
v -0.04549378 -0.02569951 4.571896E-06
v -0.03487134 -0.2380256 -3.889651E-09
v 0.01742847 -0.2384878 -0.03018698
v 0.02313222 0.004963322 -0.04016871
v -0.02295184 -0.01453863 -0.03964205
v -0.01742469 -0.2387299 -0.03018045
v 0.03488646 -0.2375407 1.307303E-09
v 0.04658383 0.01322287 4.578724E-06
v 0.02313222 0.004963322 -0.04016871
v 0.01742847 -0.2384878 -0.03018698
v 0.01745423 -0.2368349 0.03023162
v 0.02308035 0.001637573 0.04008806
v 0.04658383 0.01322287 4.578724E-06
v 0.03488646 -0.2375407 1.307303E-09
v -0.01745046 -0.2370777 0.03022507
v -0.02290133 -0.01777785 0.03956372
v 0.02308035 0.001637573 0.04008806
v 0.01745423 -0.2368349 0.03023162
v -0.05390107 0.2092101 1.636858E-05
v -0.04903121 0.2160446 -5.324443E-09
v -0.02450923 0.2156356 0.04245124
v -0.02698731 0.2101652 0.04668397
v -0.02716764 0.2217307 -0.04696357
v -0.02468406 0.2268481 -0.04275406
v -0.04903121 0.2160446 -5.324443E-09
v -0.05390107 0.2092101 1.636858E-05
v 0.02729353 0.2354175 -0.04733318
v 0.0248483 0.2373806 -0.04303849
v -0.02468406 0.2268481 -0.04275406
v -0.02716764 0.2217307 -0.04696357
v 0.05466149 0.2364019 1.637664E-05
v 0.04968347 0.2369604 2.01288E-09
v 0.0248483 0.2373806 -0.04303849
v 0.02729353 0.2354175 -0.04733318
v 0.02711034 0.22367 0.04704868
v 0.02467112 0.2260189 0.04273166
v 0.04968347 0.2369604 2.01288E-09
v 0.05466149 0.2364019 1.637664E-05
v -0.02698731 0.2101652 0.04668397
v -0.02450923 0.2156356 0.04245124
v 0.02467112 0.2260189 0.04273166
v 0.02711034 0.22367 0.04704868
v -0.04188456 -0.01313023 -4.600285E-09
v -0.05390107 0.2092101 1.636858E-05
v -0.02698731 0.2101652 0.04668397
v -0.02102607 -0.007756538 0.03641821
v -0.02108573 -0.003930054 -0.03652156
v -0.02716764 0.2217307 -0.04696357
v -0.05390107 0.2092101 1.636858E-05
v -0.04188456 -0.01313023 -4.600285E-09
v 0.02131728 0.01092033 -0.0369226
v 0.02729353 0.2354175 -0.04733318
v -0.02716764 0.2217307 -0.04696357
v -0.02108573 -0.003930054 -0.03652156
v 0.0428082 0.01648859 1.685041E-09
v 0.05466149 0.2364019 1.637664E-05
v 0.02729353 0.2354175 -0.04733318
v 0.02131728 0.01092033 -0.0369226
v 0.02125629 0.007009411 0.03681699
v 0.02711034 0.22367 0.04704868
v 0.05466149 0.2364019 1.637664E-05
v 0.0428082 0.01648859 1.685041E-09
v -0.02102607 -0.007756538 0.03641821
v -0.02698731 0.2101652 0.04668397
v 0.02711034 0.22367 0.04704868
v 0.02125629 0.007009411 0.03681699
v -0.04549378 -0.02569951 4.571896E-06
v -0.04188456 -0.01313023 -4.600285E-09
v -0.02102607 -0.007756538 0.03641821
v -0.02290133 -0.01777785 0.03956372
v -0.02295184 -0.01453863 -0.03964205
v -0.02108573 -0.003930054 -0.03652156
v -0.04188456 -0.01313023 -4.600285E-09
v -0.04549378 -0.02569951 4.571896E-06
v 0.02313222 0.004963322 -0.04016871
v 0.02131728 0.01092033 -0.0369226
v -0.02108573 -0.003930054 -0.03652156
v -0.02295184 -0.01453863 -0.03964205
v 0.04658383 0.01322287 4.578724E-06
v 0.0428082 0.01648859 1.685041E-09
v 0.02131728 0.01092033 -0.0369226
v 0.02313222 0.004963322 -0.04016871
v 0.02308035 0.001637573 0.04008806
v 0.02125629 0.007009411 0.03681699
v 0.0428082 0.01648859 1.685041E-09
v 0.04658383 0.01322287 4.578724E-06
v -0.02290133 -0.01777785 0.03956372
v -0.02102607 -0.007756538 0.03641821
v 0.02125629 0.007009411 0.03681699
v 0.02308035 0.001637573 0.04008806
v -0.02818431 0.3431079 -0.04881666
v 0.02818433 0.3738745 -0.04881665
v -9.536743E-09 0.3990402 -1.927287E-09
v 0.05636861 0.3738745 2.331653E-09
v 0.02818431 0.3738745 0.04881666
v -0.02818431 0.3431079 0.04881665
v -0.05636861 0.3431079 -6.067926E-09
vt 0.829901 0.6966494
vt 0.8221689 0.7122282
vt 0.8042771 0.7122282
vt 0.7965451 0.6966494
vt 0.7965451 0.6966494
vt 0.8042771 0.7122282
vt 0.795331 0.7122282
vt 0.7798672 0.6966494
vt 0.7798672 0.6966494
vt 0.795331 0.7122282
vt 0.8042771 0.7122282
vt 0.7965451 0.6966494
vt 0.7965451 0.6966494
vt 0.8042771 0.7122282
vt 0.8221689 0.7122282
vt 0.829901 0.6966494
vt 0.829901 0.6966494
vt 0.8221689 0.7122282
vt 0.8311149 0.7122282
vt 0.8465788 0.6966494
vt 0.8465788 0.6966494
vt 0.8311149 0.7122282
vt 0.8221689 0.7122282
vt 0.829901 0.6966494
vt 0.7965451 0.6966494
vt 0.813223 0.6397209
vt 0.829901 0.6966494
vt 0.7798672 0.6966494
vt 0.813223 0.6397209
vt 0.7965451 0.6966494
vt 0.7965451 0.6966494
vt 0.813223 0.6397209
vt 0.7798672 0.6966494
vt 0.829901 0.6966494
vt 0.813223 0.6397209
vt 0.7965451 0.6966494
vt 0.8465788 0.6966494
vt 0.813223 0.6397209
vt 0.829901 0.6966494
vt 0.829901 0.6966494
vt 0.813223 0.6397209
vt 0.8465788 0.6966494
vt 0.3909801 0.5394579
vt 0.3908439 0.5438265
vt 0.3942191 0.5440101
vt 0.3942901 0.5394579
vt 0.3942901 0.5394579
vt 0.3942241 0.54369
vt 0.3908439 0.5438265
vt 0.3909801 0.5394579
vt 0.4009102 0.5394579
vt 0.4009769 0.5437369
vt 0.3942241 0.54369
vt 0.3942901 0.5394579
vt 0.4042202 0.5394579
vt 0.4043593 0.5439203
vt 0.4009769 0.5437369
vt 0.4009102 0.5394579
vt 0.4009102 0.5394579
vt 0.4009819 0.5440571
vt 0.4043593 0.5439203
vt 0.4042202 0.5394579
vt 0.3942901 0.5394579
vt 0.3942191 0.5440101
vt 0.4009819 0.5440571
vt 0.4009102 0.5394579
vt 0.3881004 0.6318017
vt 0.3866788 0.6773888
vt 0.3921395 0.6773888
vt 0.3928515 0.6317224
vt 0.3928176 0.6338948
vt 0.3921395 0.6773888
vt 0.3866788 0.6773888
vt 0.3881004 0.6318017
vt 0.4024145 0.6359355
vt 0.4030608 0.6773888
vt 0.3921395 0.6773888
vt 0.3928176 0.6338948
vt 0.4072262 0.6358541
vt 0.4085214 0.6773888
vt 0.4030608 0.6773888
vt 0.4024145 0.6359355
vt 0.4023802 0.6337342
vt 0.4030608 0.6773888
vt 0.4085214 0.6773888
vt 0.4072262 0.6358541
vt 0.3928515 0.6317224
vt 0.3921395 0.6773888
vt 0.4030608 0.6773888
vt 0.4023802 0.6337342
vt 0.8197052 0.6785741
vt 0.8189359 0.693952
vt 0.8205722 0.6945257
vt 0.820967 0.6786427
vt 0.8209688 0.6785231
vt 0.8205685 0.6947603
vt 0.8189359 0.693952
vt 0.8197052 0.6785741
vt 0.8234931 0.6785406
vt 0.8239062 0.6961728
vt 0.8205685 0.6947603
vt 0.8209688 0.6785231
vt 0.8247575 0.6786092
vt 0.8256047 0.696771
vt 0.8239062 0.6961728
vt 0.8234931 0.6785406
vt 0.823495 0.6786603
vt 0.8239024 0.6959319
vt 0.8256047 0.696771
vt 0.8247575 0.6786092
vt 0.820967 0.6786427
vt 0.8205722 0.6945257
vt 0.8239024 0.6959319
vt 0.823495 0.6786603
vt 0.818327 0.7109655
vt 0.8186797 0.7114605
vt 0.8204557 0.7114309
vt 0.8202763 0.7110347
vt 0.8202632 0.7118723
vt 0.8204431 0.712243
vt 0.8186797 0.7114605
vt 0.818327 0.7109655
vt 0.8242076 0.7128636
vt 0.8240305 0.7130058
vt 0.8204431 0.712243
vt 0.8202632 0.7118723
vt 0.8261898 0.7129349
vt 0.8258292 0.7129754
vt 0.8240305 0.7130058
vt 0.8242076 0.7128636
vt 0.8241944 0.7120128
vt 0.8240177 0.7121829
vt 0.8258292 0.7129754
vt 0.8261898 0.7129349
vt 0.8202763 0.7110347
vt 0.8204557 0.7114309
vt 0.8240177 0.7121829
vt 0.8241944 0.7120128
vt 0.8191974 0.6948623
vt 0.818327 0.7109655
vt 0.8202763 0.7110347
vt 0.820708 0.6952515
vt 0.8207037 0.6955286
vt 0.8202632 0.7118723
vt 0.818327 0.7109655
vt 0.8191974 0.6948623
vt 0.8237748 0.6966042
vt 0.8242076 0.7128636
vt 0.8202632 0.7118723
vt 0.8207037 0.6955286
vt 0.8253313 0.6970075
vt 0.8261898 0.7129349
vt 0.8242076 0.7128636
vt 0.8237748 0.6966042
vt 0.8237703 0.696321
vt 0.8241944 0.7120128
vt 0.8261898 0.7129349
vt 0.8253313 0.6970075
vt 0.820708 0.6952515
vt 0.8202763 0.7110347
vt 0.8241944 0.7120128
vt 0.8237703 0.696321
vt 0.8189359 0.693952
vt 0.8191974 0.6948623
vt 0.820708 0.6952515
vt 0.8205722 0.6945257
vt 0.8205685 0.6947603
vt 0.8207037 0.6955286
vt 0.8191974 0.6948623
vt 0.8189359 0.693952
vt 0.8239062 0.6961728
vt 0.8237748 0.6966042
vt 0.8207037 0.6955286
vt 0.8205685 0.6947603
vt 0.8256047 0.696771
vt 0.8253313 0.6970075
vt 0.8237748 0.6966042
vt 0.8239062 0.6961728
vt 0.8239024 0.6959319
vt 0.8237703 0.696321
vt 0.8253313 0.6970075
vt 0.8256047 0.696771
vt 0.8205722 0.6945257
vt 0.820708 0.6952515
vt 0.8237703 0.696321
vt 0.8239024 0.6959319
vt 0.3921395 0.6773888
vt 0.4030608 0.6773888
vt 0.3976002 0.6773888
vt 0.4085214 0.6773888
vt 0.4030608 0.6773888
vt 0.3921395 0.6773888
vt 0.3866788 0.6773888
vn 1.490282E-07 0.6518822 -0.7583203
vn 1.490283E-07 0.6518821 -0.7583203
vn 1.490283E-07 0.6518821 -0.7583203
vn 1.490282E-07 0.6518822 -0.7583203
vn -0.6567245 0.6518822 -0.3791605
vn -0.6567245 0.6518822 -0.3791605
vn -0.6567245 0.6518822 -0.3791606
vn -0.6567245 0.6518822 -0.3791606
vn -0.6567247 0.6518822 0.37916
vn -0.6567246 0.6518822 0.37916
vn -0.6567246 0.6518822 0.37916
vn -0.6567246 0.6518822 0.37916
vn 0 0.6518823 0.7583202
vn 0 0.6518824 0.7583202
vn 0 0.6518822 0.7583202
vn 0 0.6518824 0.7583202
vn 0.6567246 0.6518821 0.3791605
vn 0.6567246 0.651882 0.3791605
vn 0.6567246 0.6518821 0.3791606
vn 0.6567246 0.6518821 0.3791605
vn 0.6567246 0.6518821 -0.3791601
vn 0.6567246 0.6518821 -0.3791601
vn 0.6567246 0.6518821 -0.3791601
vn 0.6567246 0.6518821 -0.3791601
vn 1.964895E-07 -0.4525029 -0.891763
vn 1.964894E-07 -0.4525029 -0.8917629
vn 1.964895E-07 -0.4525029 -0.891763
vn -0.7722892 -0.4525029 -0.4458817
vn -0.7722892 -0.4525029 -0.4458817
vn -0.7722892 -0.4525029 -0.4458817
vn -0.7722893 -0.4525028 0.4458815
vn -0.7722893 -0.4525028 0.4458815
vn -0.7722893 -0.4525029 0.4458815
vn 0 -0.4525029 0.891763
vn 0 -0.4525029 0.8917629
vn 0 -0.4525029 0.891763
vn 0.7722892 -0.4525028 0.4458816
vn 0.7722892 -0.4525028 0.4458817
vn 0.7722892 -0.4525028 0.4458816
vn 0.7722894 -0.4525029 -0.4458814
vn 0.7722894 -0.4525029 -0.4458814
vn 0.7722894 -0.4525029 -0.4458814
vn -0.86571 -0.02699668 0.4998174
vn -0.86571 -0.02699668 0.4998174
vn -0.86571 -0.02699668 0.4998174
vn -0.86571 -0.02699668 0.4998174
vn -0.8657097 -0.02699689 -0.4998178
vn -0.8657097 -0.02699689 -0.4998177
vn -0.8657097 -0.02699689 -0.4998178
vn -0.8657097 -0.02699689 -0.4998178
vn 1.257671E-07 -0.02699655 -0.9996356
vn 1.257671E-07 -0.02699655 -0.9996356
vn 1.257671E-07 -0.02699655 -0.9996356
vn 1.257671E-07 -0.02699655 -0.9996356
vn 0.86571 -0.02699669 -0.4998173
vn 0.86571 -0.02699669 -0.4998173
vn 0.86571 -0.02699669 -0.4998173
vn 0.86571 -0.02699669 -0.4998172
vn 0.8657098 -0.02699661 0.4998176
vn 0.8657098 -0.02699661 0.4998176
vn 0.8657098 -0.02699661 0.4998176
vn 0.8657098 -0.02699661 0.4998176
vn 0 -0.0269966 0.9996356
vn 0 -0.0269966 0.9996356
vn 0 -0.0269966 0.9996356
vn 0 -0.0269966 0.9996356
vn -0.8649907 -0.04991029 0.4992996
vn -0.8649907 -0.04991029 0.4992996
vn -0.8649907 -0.04991029 0.4992996
vn -0.8649907 -0.04991029 0.4992996
vn -0.86367 -0.05096272 -0.5014749
vn -0.86367 -0.05096272 -0.5014749
vn -0.86367 -0.05096272 -0.5014749
vn -0.86367 -0.05096272 -0.5014749
vn 0.01556069 -0.04678001 -0.998784
vn 0.01556068 -0.04678001 -0.998784
vn 0.01556069 -0.04678001 -0.998784
vn 0.01556068 -0.04678 -0.998784
vn 0.8652211 -0.04227139 -0.4996053
vn 0.8652211 -0.04227139 -0.4996053
vn 0.8652211 -0.0422714 -0.4996053
vn 0.8652211 -0.04227139 -0.4996053
vn 0.866031 -0.0416615 0.4982518
vn 0.866031 -0.0416615 0.4982517
vn 0.866031 -0.0416615 0.4982518
vn 0.866031 -0.0416615 0.4982517
vn 0.01495273 -0.04516035 0.9988679
vn 0.01495273 -0.04516035 0.9988679
vn 0.01495273 -0.04516035 0.9988679
vn 0.01495274 -0.04516036 0.9988679
vn -0.8643368 -0.04303346 0.5010687
vn -0.8643368 -0.04303345 0.5010687
vn -0.8643368 -0.04303346 0.5010687
vn -0.864337 -0.04303346 0.5010687
vn -0.8641987 -0.04283335 -0.5013239
vn -0.8641987 -0.04283335 -0.501324
vn -0.8641987 -0.04283335 -0.501324
vn -0.8641987 -0.04283335 -0.501324
vn 0.003551819 -0.04154255 -0.9991304
vn 0.003551819 -0.04154256 -0.9991304
vn 0.003551818 -0.04154255 -0.9991304
vn 0.003551818 -0.04154255 -0.9991304
vn 0.8660795 -0.04055313 -0.4982586
vn 0.8660795 -0.04055313 -0.4982587
vn 0.8660795 -0.04055313 -0.4982586
vn 0.8660795 -0.04055314 -0.4982586
vn 0.8662237 -0.04070989 0.4979952
vn 0.8662237 -0.04070989 0.4979951
vn 0.8662237 -0.04070989 0.4979951
vn 0.8662237 -0.04070989 0.4979951
vn 0.003624287 -0.0418958 0.9991154
vn 0.003624287 -0.04189581 0.9991154
vn 0.003624288 -0.04189581 0.9991154
vn 0.003624288 -0.04189581 0.9991154
vn -0.714434 0.5678173 0.4088615
vn -0.7144339 0.5678172 0.4088615
vn -0.714434 0.5678173 0.4088615
vn -0.7144339 0.5678172 0.4088615
vn -0.7673029 0.5730621 -0.2878299
vn -0.7673029 0.5730621 -0.2878299
vn -0.7673029 0.5730621 -0.2878299
vn -0.7673029 0.5730621 -0.2878299
vn -0.1800996 0.7563356 -0.6289044
vn -0.1800996 0.7563356 -0.6289044
vn -0.1800996 0.7563355 -0.6289044
vn -0.1800996 0.7563356 -0.6289044
vn 0.2419016 0.9592997 -0.1456966
vn 0.2419016 0.9592999 -0.1456966
vn 0.2419016 0.9592999 -0.1456966
vn 0.2419016 0.9592999 -0.1456966
vn 0.1641279 0.9258849 0.3402929
vn 0.1641278 0.9258849 0.3402928
vn 0.1641278 0.9258849 0.3402928
vn 0.1641279 0.9258849 0.3402929
vn -0.1723673 0.7272741 0.6643507
vn -0.1723673 0.7272741 0.6643507
vn -0.1723673 0.7272741 0.6643507
vn -0.1723673 0.7272741 0.6643507
vn -0.8644073 -0.0469885 0.5005918
vn -0.8644072 -0.0469885 0.5005918
vn -0.8644073 -0.04698849 0.5005918
vn -0.8644073 -0.0469885 0.5005918
vn -0.8628625 -0.04657031 -0.5032887
vn -0.8628625 -0.04657032 -0.5032887
vn -0.8628625 -0.04657031 -0.5032887
vn -0.8628625 -0.04657031 -0.5032887
vn 0.005684542 -0.04627113 -0.9989127
vn 0.005684542 -0.04627113 -0.9989127
vn 0.005684543 -0.04627113 -0.9989127
vn 0.005684542 -0.04627113 -0.9989127
vn 0.8657453 -0.04638863 -0.4983304
vn 0.8657453 -0.04638863 -0.4983304
vn 0.8657453 -0.04638863 -0.4983304
vn 0.8657453 -0.04638863 -0.4983304
vn 0.867334 -0.04681064 0.4955204
vn 0.867334 -0.04681064 0.4955204
vn 0.8673341 -0.04681064 0.4955203
vn 0.867334 -0.04681064 0.4955204
vn 0.005906027 -0.0471112 0.9988721
vn 0.005906027 -0.04711121 0.9988721
vn 0.005906027 -0.04711121 0.9988721
vn 0.005906028 -0.0471112 0.9988721
vn -0.8555431 0.2693598 0.4421439
vn -0.8555432 0.2693598 0.4421439
vn -0.8555432 0.2693598 0.4421438
vn -0.8555432 0.2693598 0.4421439
vn -0.8672457 0.2618023 -0.4234909
vn -0.8672456 0.2618023 -0.4234909
vn -0.8672456 0.2618023 -0.4234909
vn -0.8672457 0.2618023 -0.4234909
vn -0.147578 0.3552136 -0.9230624
vn -0.147578 0.3552136 -0.9230624
vn -0.147578 0.3552136 -0.9230624
vn -0.147578 0.3552135 -0.9230624
vn 0.6602055 0.5714937 -0.4873641
vn 0.6602055 0.5714936 -0.487364
vn 0.6602055 0.5714937 -0.4873641
vn 0.6602055 0.5714937 -0.4873641
vn 0.6120516 0.5945419 0.5214526
vn 0.6120516 0.5945419 0.5214526
vn 0.6120515 0.5945419 0.5214526
vn 0.6120515 0.5945418 0.5214526
vn -0.1568618 0.380438 0.9114063
vn -0.1568618 0.380438 0.9114063
vn -0.1568618 0.380438 0.9114063
vn -0.1568618 0.380438 0.9114063
vn -0.5545455 0.6880004 -0.4681184
vn -0.08940498 0.8633209 -0.4966726
vn -0.2937781 0.9558736 -1.088429E-07
vn 0.4076669 0.9131308 0
vn -0.08940513 0.863321 0.4966724
vn -0.5545456 0.6880003 0.4681183
vn -0.7043546 0.7098483 0
g greatTorch_break02_0
f 3/3/3 2/2/2 1/1/1
f 4/4/4 3/3/3 1/1/1
f 7/7/7 6/6/6 5/5/5
f 8/8/8 7/7/7 5/5/5
f 11/11/11 10/10/10 9/9/9
f 12/12/12 11/11/11 9/9/9
f 15/15/15 14/14/14 13/13/13
f 16/16/16 15/15/15 13/13/13
f 19/19/19 18/18/18 17/17/17
f 20/20/20 19/19/19 17/17/17
f 23/23/23 22/22/22 21/21/21
f 24/24/24 23/23/23 21/21/21
f 27/27/27 26/26/26 25/25/25
f 30/30/30 29/29/29 28/28/28
f 33/33/33 32/32/32 31/31/31
f 36/36/36 35/35/35 34/34/34
f 39/39/39 38/38/38 37/37/37
f 42/42/42 41/41/41 40/40/40
f 45/45/45 44/44/44 43/43/43
f 46/46/46 45/45/45 43/43/43
f 49/49/49 48/48/48 47/47/47
f 50/50/50 49/49/49 47/47/47
f 53/53/53 52/52/52 51/51/51
f 54/54/54 53/53/53 51/51/51
f 57/57/57 56/56/56 55/55/55
f 58/58/58 57/57/57 55/55/55
f 61/61/61 60/60/60 59/59/59
f 62/62/62 61/61/61 59/59/59
f 65/65/65 64/64/64 63/63/63
f 66/66/66 65/65/65 63/63/63
f 69/69/69 68/68/68 67/67/67
f 70/70/70 69/69/69 67/67/67
f 73/73/73 72/72/72 71/71/71
f 74/74/74 73/73/73 71/71/71
f 77/77/77 76/76/76 75/75/75
f 78/78/78 77/77/77 75/75/75
f 81/81/81 80/80/80 79/79/79
f 82/82/82 81/81/81 79/79/79
f 85/85/85 84/84/84 83/83/83
f 86/86/86 85/85/85 83/83/83
f 89/89/89 88/88/88 87/87/87
f 90/90/90 89/89/89 87/87/87
f 93/93/93 92/92/92 91/91/91
f 94/94/94 93/93/93 91/91/91
f 97/97/97 96/96/96 95/95/95
f 98/98/98 97/97/97 95/95/95
f 101/101/101 100/100/100 99/99/99
f 102/102/102 101/101/101 99/99/99
f 105/105/105 104/104/104 103/103/103
f 106/106/106 105/105/105 103/103/103
f 109/109/109 108/108/108 107/107/107
f 110/110/110 109/109/109 107/107/107
f 113/113/113 112/112/112 111/111/111
f 114/114/114 113/113/113 111/111/111
f 117/117/117 116/116/116 115/115/115
f 118/118/118 117/117/117 115/115/115
f 121/121/121 120/120/120 119/119/119
f 122/122/122 121/121/121 119/119/119
f 125/125/125 124/124/124 123/123/123
f 126/126/126 125/125/125 123/123/123
f 129/129/129 128/128/128 127/127/127
f 130/130/130 129/129/129 127/127/127
f 133/133/133 132/132/132 131/131/131
f 134/134/134 133/133/133 131/131/131
f 137/137/137 136/136/136 135/135/135
f 138/138/138 137/137/137 135/135/135
f 141/141/141 140/140/140 139/139/139
f 142/142/142 141/141/141 139/139/139
f 145/145/145 144/144/144 143/143/143
f 146/146/146 145/145/145 143/143/143
f 149/149/149 148/148/148 147/147/147
f 150/150/150 149/149/149 147/147/147
f 153/153/153 152/152/152 151/151/151
f 154/154/154 153/153/153 151/151/151
f 157/157/157 156/156/156 155/155/155
f 158/158/158 157/157/157 155/155/155
f 161/161/161 160/160/160 159/159/159
f 162/162/162 161/161/161 159/159/159
f 165/165/165 164/164/164 163/163/163
f 166/166/166 165/165/165 163/163/163
f 169/169/169 168/168/168 167/167/167
f 170/170/170 169/169/169 167/167/167
f 173/173/173 172/172/172 171/171/171
f 174/174/174 173/173/173 171/171/171
f 177/177/177 176/176/176 175/175/175
f 178/178/178 177/177/177 175/175/175
f 181/181/181 180/180/180 179/179/179
f 182/182/182 181/181/181 179/179/179
f 185/185/185 184/184/184 183/183/183
f 186/186/186 185/185/185 183/183/183
f 189/189/189 188/188/188 187/187/187
f 190/190/190 188/188/188 189/189/189
f 191/191/191 190/190/190 189/189/189
f 191/191/191 189/189/189 192/192/192
f 189/189/189 187/187/187 193/193/193
f 189/189/189 193/193/193 192/192/192
