g harazuelBG
v 51.67603 -47.10886 -21.40488
v 39.55113 -47.10886 -39.55109
v 39.55113 47.10886 -39.55109
v 51.67603 47.10886 -21.40488
v 21.40493 47.10886 -51.676
v 21.40493 -47.10886 -51.676
v 2.833823E-05 47.10886 -55.93371
v 2.833823E-05 -47.10886 -55.93371
v 55.93372 -47.10886 0
v 55.93372 47.10886 0
v 51.67601 -47.10886 21.40491
v 51.67601 47.10886 21.40491
v 39.55111 -47.10886 39.55111
v 39.55111 47.10886 39.55111
v 21.4049 -47.10886 51.67601
v 21.4049 47.10886 51.67601
v -8.334773E-06 -47.10886 55.93372
v -8.334773E-06 47.10886 55.93372
v -21.40492 -47.10886 51.67601
v -21.40492 47.10886 51.67601
v -39.55112 -47.10886 39.5511
v -39.55112 47.10886 39.5511
v -51.67602 -47.10886 21.40489
v -51.67602 47.10886 21.40489
v -55.93372 -47.10886 -2.000346E-05
v -55.93372 47.10886 -2.000346E-05
v -51.67601 -47.10886 -21.40493
v -51.67601 47.10886 -21.40493
v -39.55109 -47.10886 -39.55112
v -39.55109 47.10886 -39.55112
v -21.40488 -47.10886 -51.67603
v -21.40488 47.10886 -51.67603
v 2.833823E-05 -47.10886 -55.93371
v 2.833823E-05 47.10886 -55.93371
v 39.55113 -47.10886 -39.55109
v 51.67603 -47.10886 -21.40488
v 0 -47.10886 0
v 21.40493 -47.10886 -51.676
v 2.833823E-05 -47.10886 -55.93371
v 55.93372 -47.10886 0
v 51.67601 -47.10886 21.40491
v 39.55111 -47.10886 39.55111
v 21.4049 -47.10886 51.67601
v -8.334773E-06 -47.10886 55.93372
v -21.40488 -47.10886 -51.67603
v 2.833823E-05 -47.10886 -55.93371
v 0 -47.10886 0
v -39.55109 -47.10886 -39.55112
v -51.67601 -47.10886 -21.40493
v -55.93372 -47.10886 -2.000346E-05
v -51.67602 -47.10886 21.40489
v -39.55112 -47.10886 39.5511
v -21.40492 -47.10886 51.67601
v -8.334773E-06 -47.10886 55.93372
v 51.67603 47.10886 -21.40488
v 39.55113 47.10886 -39.55109
v 0 47.10886 0
v 21.40493 47.10886 -51.676
v 2.833823E-05 47.10886 -55.93371
v 55.93372 47.10886 0
v 51.67601 47.10886 21.40491
v 39.55111 47.10886 39.55111
v 21.4049 47.10886 51.67601
v -8.334773E-06 47.10886 55.93372
v -21.40492 47.10886 51.67601
v 0 47.10886 0
v -39.55112 47.10886 39.5511
v -51.67602 47.10886 21.40489
v -55.93372 47.10886 -2.000346E-05
v -51.67601 47.10886 -21.40493
v -39.55109 47.10886 -39.55112
v -21.40488 47.10886 -51.67603
v 2.833823E-05 47.10886 -55.93371
vt 0.8125159 0
vt 0.8750159 0
vt 0.8750159 1
vt 0.8125159 1
vt 0.9375159 1
vt 0.9375159 0
vt 1.000016 1
vt 1.000016 0
vt 0.7500159 0
vt 0.7500159 1
vt 0.6875159 0
vt 0.6875159 1
vt 0.6250159 0
vt 0.6250159 1
vt 0.5625159 0
vt 0.5625159 1
vt 0.5000159 0
vt 0.5000159 1
vt 0.4375159 0
vt 0.4375159 1
vt 0.3750159 0
vt 0.3750159 1
vt 0.3125159 0
vt 0.3125159 1
vt 0.2500159 0
vt 0.2500159 1
vt 0.1875159 0
vt 0.1875159 1
vt 0.1250159 0
vt 0.1250159 1
vt 0.06251583 0
vt 0.06251583 1
vt 1.582503E-05 0
vt 1.582503E-05 1
vt 0.8750159 0
vt 0.8125159 0
vt 1.000016 0
vt 0.9375159 0
vt 1.000016 0
vt 0.7500159 0
vt 0.6875159 0
vt 0.6250159 0
vt 0.5625159 0
vt 1.500016 0
vt 0.06251583 0
vt 1.582503E-05 0
vt 1.591444E-05 0
vt 0.1250159 0
vt 0.1875159 0
vt 0.2500159 0
vt 0.3125159 0
vt 0.3750159 0
vt 0.4375159 0
vt 0.5000159 0
vt 0.8125159 1
vt 0.8750159 1
vt 1.000016 1
vt 0.9375159 1
vt 1.000016 1
vt 0.7500159 1
vt 0.6875159 1
vt 0.6250159 1
vt 0.5625159 1
vt 0.5000159 1
vt 0.4375159 1
vt 1.591444E-05 1
vt 0.3750159 1
vt 0.3125159 1
vt 0.2500159 1
vt 0.1875159 1
vt 0.1250159 1
vt 0.06251583 1
vt 1.582503E-05 1
vn -0.9238796 0 0.3826832
vn -0.7071072 0 0.7071064
vn -0.7071072 0 0.7071064
vn -0.9238796 0 0.3826832
vn -0.3826839 0 0.9238793
vn -0.3826839 0 0.9238793
vn -5.839906E-07 0 1
vn -5.839906E-07 0 1
vn -1 0 -2.209696E-07
vn -1 0 -2.209696E-07
vn -0.9238795 0 -0.3826834
vn -0.9238795 0 -0.3826834
vn -0.7071066 0 -0.7071068
vn -0.7071066 0 -0.7071068
vn -0.3826833 0 -0.9238795
vn -0.3826833 0 -0.9238795
vn 1.972941E-07 0 -1
vn 1.972941E-07 0 -1
vn 0.3826837 0 -0.9238794
vn 0.3826837 0 -0.9238794
vn 0.7071069 0 -0.7071066
vn 0.7071069 0 -0.7071066
vn 0.9238796 0 -0.3826832
vn 0.9238796 0 -0.3826832
vn 1 0 2.209694E-07
vn 1 0 2.209694E-07
vn 0.9238794 0 0.3826838
vn 0.9238794 0 0.3826838
vn 0.7071065 0 0.7071071
vn 0.7071065 0 0.7071071
vn 0.3826829 0 0.9238798
vn 0.3826829 0 0.9238798
vn -5.839906E-07 0 1
vn -5.839906E-07 0 1
vn 0 1 0
vn 0 1 1.252866E-07
vn 0 1 0
vn 0 1 0
vn 0 1 0
vn 0 1 0
vn 0 1 0
vn 0 1 0
vn 0 1 0
vn 0 1 0
vn 0 1 -1.670486E-07
vn 0 1 0
vn 0 1 0
vn 0 1 -1.252865E-07
vn 0 1 0
vn 0 1 1.252865E-07
vn 0 1 -1.35727E-07
vn 0 1 0
vn 0 1 0
vn 0 1 0
vn 0 -1 1.252866E-07
vn 0 -1 0
vn 0 -1 0
vn 0 -1 0
vn 0 -1 0
vn 0 -1 0
vn 0 -1 0
vn 0 -1 0
vn 0 -1 0
vn 0 -1 0
vn 0 -1 0
vn 0 -1 0
vn 0 -1 0
vn 0 -1 -1.357271E-07
vn 0 -1 1.252865E-07
vn 0 -1 0
vn 0 -1 -1.252865E-07
vn 0 -1 -1.670486E-07
vn 0 -1 0
g harazuelBG_0
f 3/3/3 2/2/2 1/1/1
f 4/4/4 3/3/3 1/1/1
f 3/3/3 5/5/5 2/2/2
f 5/5/5 6/6/6 2/2/2
f 5/5/5 7/7/7 6/6/6
f 7/7/7 8/8/8 6/6/6
f 4/4/4 1/1/1 9/9/9
f 10/10/10 4/4/4 9/9/9
f 10/10/10 9/9/9 11/11/11
f 12/12/12 10/10/10 11/11/11
f 12/12/12 11/11/11 13/13/13
f 14/14/14 12/12/12 13/13/13
f 14/14/14 13/13/13 15/15/15
f 16/16/16 14/14/14 15/15/15
f 16/16/16 15/15/15 17/17/17
f 18/18/18 16/16/16 17/17/17
f 18/18/18 17/17/17 19/19/19
f 20/20/20 18/18/18 19/19/19
f 20/20/20 19/19/19 21/21/21
f 22/22/22 20/20/20 21/21/21
f 22/22/22 21/21/21 23/23/23
f 24/24/24 22/22/22 23/23/23
f 24/24/24 23/23/23 25/25/25
f 26/26/26 24/24/24 25/25/25
f 26/26/26 25/25/25 27/27/27
f 28/28/28 26/26/26 27/27/27
f 28/28/28 27/27/27 29/29/29
f 30/30/30 28/28/28 29/29/29
f 30/30/30 29/29/29 31/31/31
f 32/32/32 30/30/30 31/31/31
f 32/32/32 31/31/31 33/33/33
f 34/34/34 32/32/32 33/33/33
f 37/37/37 36/36/36 35/35/35
f 37/37/37 35/35/35 38/38/38
f 37/37/37 38/38/38 39/39/39
f 37/37/37 40/40/40 36/36/36
f 37/37/37 41/41/41 40/40/40
f 37/37/37 42/42/42 41/41/41
f 37/37/37 43/43/43 42/42/42
f 37/37/37 44/44/44 43/43/43
f 47/47/47 46/46/46 45/45/45
f 47/47/47 45/45/45 48/48/48
f 47/47/47 48/48/48 49/49/49
f 47/47/47 49/49/49 50/50/50
f 47/47/47 50/50/50 51/51/51
f 47/47/47 51/51/51 52/52/52
f 47/47/47 52/52/52 53/53/53
f 47/47/47 53/53/53 54/54/54
f 57/57/57 56/56/56 55/55/55
f 57/57/57 58/58/58 56/56/56
f 57/57/57 59/59/59 58/58/58
f 57/57/57 55/55/55 60/60/60
f 57/57/57 60/60/60 61/61/61
f 57/57/57 61/61/61 62/62/62
f 57/57/57 62/62/62 63/63/63
f 57/57/57 63/63/63 64/64/64
f 66/66/66 64/64/64 65/65/65
f 66/66/66 65/65/65 67/67/67
f 66/66/66 67/67/67 68/68/68
f 66/66/66 68/68/68 69/69/69
f 66/66/66 69/69/69 70/70/70
f 66/66/66 70/70/70 71/71/71
f 66/66/66 71/71/71 72/72/72
f 66/66/66 72/72/72 73/73/73
