g harazuelDioGroundCOL
v 7.332644 0 -2.38252
v 7.332644 1.301854 -2.38252
v 6.237519 1.301854 -4.531822
v 6.237519 0 -4.531822
v 5.71232 -3.814697E-08 -4.150243
v 5.71232 1.301854 -4.150243
v 6.715235 1.301854 -2.181912
v 6.715235 -3.814697E-08 -2.181912
v 6.237519 0 -4.531822
v 6.237519 1.301854 -4.531822
v 4.531822 1.301854 -6.237518
v 4.531822 0 -6.237518
v 4.150243 -3.814697E-08 -5.712319
v 4.150243 1.301854 -5.712319
v 5.71232 1.301854 -4.150243
v 5.71232 -3.814697E-08 -4.150243
v 4.531822 0 -6.237518
v 4.531822 1.301854 -6.237518
v 2.38252 1.301854 -7.332642
v 2.38252 0 -7.332642
v 1.765805 -3.814699E-08 -6.715235
v 1.765805 1.301854 -6.715235
v 4.150243 1.301854 -5.712319
v 4.150243 -3.814697E-08 -5.712319
v 7.709992 0 0
v 7.709992 1.301854 0
v 7.332644 1.301854 -2.38252
v 7.332644 0 -2.38252
v 6.715235 -3.814697E-08 -2.181912
v 6.715235 1.301854 -2.181912
v 7.060812 1.301854 0
v 7.060812 -3.814697E-08 0
v 1.765805 -1.907349E-08 -10.16144
v 1.765805 1.301854 -10.16144
v 1.765805 1.301854 -6.715235
v 1.765805 -3.814699E-08 -6.715235
v 1.765805 -2.550186E-17 -16.97415
v 1.765805 1.301854 -16.97415
v 2.38252 0 -7.332642
v 2.38252 1.301854 -7.332642
v 2.38252 1.301854 -10.16144
v 2.38252 0 -10.16144
v 2.38252 1.301854 -16.97415
v 2.38252 -2.550186E-17 -16.97415
v 5.71232 1.301854 -4.150243
v 6.237519 1.301854 -4.531822
v 7.332644 1.301854 -2.38252
v 6.715235 1.301854 -2.181912
v 4.150243 1.301854 -5.712319
v 4.531822 1.301854 -6.237518
v 7.709992 1.301854 0
v 7.060812 1.301854 0
v 1.765805 1.301854 -6.715235
v 2.38252 1.301854 -7.332642
v 4.150243 1.301854 -5.712319
v 2.38252 1.301854 -10.16144
v 2.38252 1.301854 -7.332642
v 1.765805 1.301854 -6.715235
v 1.765805 1.301854 -10.16144
v 2.38252 1.301854 -16.97415
v 1.765805 1.301854 -16.97415
v -7.332644 0 -2.38252
v -6.237519 0 -4.531822
v -6.237519 1.301854 -4.531822
v -7.332644 1.301854 -2.38252
v -5.71232 -3.814697E-08 -4.150243
v -6.715235 -3.814697E-08 -2.181912
v -6.715235 1.301854 -2.181912
v -5.71232 1.301854 -4.150243
v -6.237519 0 -4.531822
v -4.531822 0 -6.237518
v -4.531822 1.301854 -6.237518
v -6.237519 1.301854 -4.531822
v -4.150243 -3.814697E-08 -5.712319
v -5.71232 -3.814697E-08 -4.150243
v -5.71232 1.301854 -4.150243
v -4.150243 1.301854 -5.712319
v -4.531822 0 -6.237518
v -2.38252 0 -7.332642
v -2.38252 1.301854 -7.332642
v -4.531822 1.301854 -6.237518
v -1.765805 -3.814699E-08 -6.715235
v -4.150243 -3.814697E-08 -5.712319
v -4.150243 1.301854 -5.712319
v -1.765805 1.301854 -6.715235
v -7.709992 0 0
v -7.332644 0 -2.38252
v -7.332644 1.301854 -2.38252
v -7.709992 1.301854 0
v -6.715235 -3.814697E-08 -2.181912
v -7.060812 -3.814697E-08 0
v -7.060812 1.301854 0
v -6.715235 1.301854 -2.181912
v -1.765805 -1.907349E-08 -10.16144
v -1.765805 -3.814699E-08 -6.715235
v -1.765805 1.301854 -6.715235
v -1.765805 1.301854 -10.16144
v -1.765805 -2.550186E-17 -16.97415
v -1.765805 1.301854 -16.97415
v -2.38252 0 -7.332642
v -2.38252 0 -10.16144
v -2.38252 1.301854 -10.16144
v -2.38252 1.301854 -7.332642
v -2.38252 1.301854 -16.97415
v -2.38252 -2.550186E-17 -16.97415
v -5.71232 1.301854 -4.150243
v -6.715235 1.301854 -2.181912
v -7.332644 1.301854 -2.38252
v -6.237519 1.301854 -4.531822
v -4.150243 1.301854 -5.712319
v -4.531822 1.301854 -6.237518
v -1.765805 1.301854 -6.715235
v -2.38252 1.301854 -7.332642
v -7.709992 1.301854 0
v -7.060812 1.301854 0
v -1.765805 1.301854 -10.16144
v -2.38252 1.301854 -10.16144
v -1.765805 1.301854 -16.97415
v -2.38252 1.301854 -16.97415
v 7.332644 0 2.38252
v 6.237519 0 4.531822
v 6.237519 1.301854 4.531822
v 7.332644 1.301854 2.38252
v 5.71232 -3.814697E-08 4.150243
v 6.715235 -3.814697E-08 2.181912
v 6.715235 1.301854 2.181912
v 5.71232 1.301854 4.150243
v 6.237519 0 4.531822
v 4.531822 0 6.237518
v 4.531822 1.301854 6.237518
v 6.237519 1.301854 4.531822
v 4.150243 -3.814697E-08 5.712319
v 5.71232 -3.814697E-08 4.150243
v 5.71232 1.301854 4.150243
v 4.150243 1.301854 5.712319
v 4.531822 0 6.237518
v 2.38252 0 7.332642
v 2.38252 1.301854 7.332642
v 4.531822 1.301854 6.237518
v 1.765805 -3.814699E-08 6.715235
v 4.150243 -3.814697E-08 5.712319
v 4.150243 1.301854 5.712319
v 1.765805 1.301854 6.715235
v 7.709992 0 0
v 7.332644 0 2.38252
v 7.332644 1.301854 2.38252
v 7.709992 1.301854 0
v 6.715235 -3.814697E-08 2.181912
v 7.060812 -3.814697E-08 0
v 7.060812 1.301854 0
v 6.715235 1.301854 2.181912
v 1.765805 -2.558347E-17 16.9859
v 1.765805 -1.907349E-08 10.16144
v 1.765805 1.301854 10.16144
v 1.765805 1.301854 16.9859
v 1.765805 1.301854 6.715235
v 1.765805 -3.814699E-08 6.715235
v 2.38252 0 10.16144
v 2.38252 -2.558347E-17 16.9859
v 2.38252 1.301854 16.9859
v 2.38252 1.301854 10.16144
v 2.38252 0 7.332642
v 2.38252 1.301854 7.332642
v 5.71232 1.301854 4.150243
v 6.715235 1.301854 2.181912
v 7.332644 1.301854 2.38252
v 6.237519 1.301854 4.531822
v 4.150243 1.301854 5.712319
v 4.531822 1.301854 6.237518
v 1.765805 1.301854 6.715235
v 2.38252 1.301854 7.332642
v 7.709992 1.301854 0
v 7.060812 1.301854 0
v 1.765805 1.301854 10.16144
v 2.38252 1.301854 10.16144
v 1.765805 1.301854 16.9859
v 2.38252 1.301854 16.9859
v -7.332644 0 2.38252
v -7.332644 1.301854 2.38252
v -6.237519 1.301854 4.531822
v -6.237519 0 4.531822
v -5.71232 -3.814697E-08 4.150243
v -5.71232 1.301854 4.150243
v -6.715235 1.301854 2.181912
v -6.715235 -3.814697E-08 2.181912
v -6.237519 0 4.531822
v -6.237519 1.301854 4.531822
v -4.531822 1.301854 6.237518
v -4.531822 0 6.237518
v -4.150243 -3.814697E-08 5.712319
v -4.150243 1.301854 5.712319
v -5.71232 1.301854 4.150243
v -5.71232 -3.814697E-08 4.150243
v -4.531822 0 6.237518
v -4.531822 1.301854 6.237518
v -2.38252 1.301854 7.332642
v -2.38252 0 7.332642
v -1.765805 -3.814699E-08 6.715235
v -1.765805 1.301854 6.715235
v -4.150243 1.301854 5.712319
v -4.150243 -3.814697E-08 5.712319
v -7.709992 0 0
v -7.709992 1.301854 0
v -7.332644 1.301854 2.38252
v -7.332644 0 2.38252
v -6.715235 -3.814697E-08 2.181912
v -6.715235 1.301854 2.181912
v -7.060812 1.301854 0
v -7.060812 -3.814697E-08 0
v -1.765805 -2.558347E-17 16.9859
v -1.765805 1.301854 16.9859
v -1.765805 1.301854 10.16144
v -1.765805 -1.907349E-08 10.16144
v -1.765805 -3.814699E-08 6.715235
v -1.765805 1.301854 6.715235
v -2.38252 0 10.16144
v -2.38252 1.301854 10.16144
v -2.38252 1.301854 16.9859
v -2.38252 -2.558347E-17 16.9859
v -2.38252 0 7.332642
v -2.38252 1.301854 7.332642
v -5.71232 1.301854 4.150243
v -6.237519 1.301854 4.531822
v -7.332644 1.301854 2.38252
v -6.715235 1.301854 2.181912
v -4.150243 1.301854 5.712319
v -4.531822 1.301854 6.237518
v -1.765805 1.301854 6.715235
v -2.38252 1.301854 7.332642
v -7.709992 1.301854 0
v -7.060812 1.301854 0
v -2.38252 1.301854 16.9859
v -2.38252 1.301854 10.16144
v -1.765805 1.301854 10.16144
v -1.765805 1.301854 16.9859
v -1.765805 1.301854 6.715235
v -2.38252 1.301854 7.332642
v 1.765805 -3.814699E-08 -6.715235
v -1.765805 -3.814699E-08 -6.715235
v -1.765805 -1.907349E-08 -10.16144
v 1.765805 -1.907349E-08 -10.16144
v 1.765805 -2.550186E-17 -16.97415
v -1.765805 -2.550186E-17 -16.97415
v 1.765805 -2.558347E-17 16.9859
v -1.765805 -2.558347E-17 16.9859
v -1.765805 -1.907349E-08 10.16144
v 1.765805 -1.907349E-08 10.16144
v 1.765805 -3.814699E-08 6.715235
v -1.765805 -3.814699E-08 6.715235
v -4.150243 -3.814697E-08 5.712319
v -5.71232 -3.814697E-08 4.150243
v 5.71232 -3.814697E-08 4.150243
v 4.150243 -3.814697E-08 5.712319
v -1.765805 -3.814699E-08 6.715235
v 1.765805 -3.814699E-08 6.715235
v 6.715235 -3.814697E-08 2.181912
v -6.715235 -3.814697E-08 2.181912
v 7.060812 -3.814697E-08 0
v -7.060812 -3.814697E-08 0
v 6.715235 -3.814697E-08 -2.181912
v -6.715235 -3.814697E-08 -2.181912
v 5.71232 -3.814697E-08 -4.150243
v -5.71232 -3.814697E-08 -4.150243
v 4.150243 -3.814697E-08 -5.712319
v -4.150243 -3.814697E-08 -5.712319
v 1.765805 -3.814699E-08 -6.715235
v -1.765805 -3.814699E-08 -6.715235
vt 0.1512179 0.6296141
vt 0.1512179 0.6296141
vt 0.1464853 0.6389023
vt 0.1464853 0.6389023
vt 0.1442157 0.6372533
vt 0.1442157 0.6372533
vt 0.1485498 0.6287472
vt 0.1485498 0.6287472
vt 0.1464853 0.6389023
vt 0.1464853 0.6389023
vt 0.1391142 0.6462734
vt 0.1391142 0.6462734
vt 0.1374652 0.6440038
vt 0.1374652 0.6440038
vt 0.1442157 0.6372533
vt 0.1442157 0.6372533
vt 0.1391142 0.6462734
vt 0.1391142 0.6462734
vt 0.1296702 0.6509106
vt 0.129826 0.6510061
vt 0.1276104 0.649672
vt 0.1276104 0.649672
vt 0.1374652 0.6440038
vt 0.1374652 0.6440038
vt 0.1528486 0.6193181
vt 0.1528486 0.6193181
vt 0.1512179 0.6296141
vt 0.1512179 0.6296141
vt 0.1485498 0.6287472
vt 0.1485498 0.6287472
vt 0.1500432 0.6193181
vt 0.1500432 0.6193181
vt 0.1273856 0.6632307
vt 0.1273856 0.6632307
vt 0.1276104 0.649672
vt 0.1276104 0.649672
vt 0.1271609 0.6767893
vt 0.1271609 0.6767893
vt 0.129826 0.6510061
vt 0.1296702 0.6509106
vt 0.1297481 0.6638499
vt 0.129826 0.6638978
vt 0.129826 0.6767893
vt 0.129826 0.6767893
vt 0.1442157 0.6372533
vt 0.1464853 0.6389023
vt 0.1512179 0.6296141
vt 0.1485498 0.6287472
vt 0.1374652 0.6440038
vt 0.1391142 0.6462734
vt 0.1528486 0.6193181
vt 0.1500432 0.6193181
vt 0.1276104 0.649672
vt 0.1296702 0.6509106
vt 0.1374652 0.6440038
vt 0.1297481 0.6638499
vt 0.1296702 0.6509106
vt 0.1276104 0.649672
vt 0.1273856 0.6632307
vt 0.129826 0.6767893
vt 0.1271609 0.6767893
vt 0.1512179 0.6296141
vt 0.1464853 0.6389023
vt 0.1464853 0.6389023
vt 0.1512179 0.6296141
vt 0.1442157 0.6372533
vt 0.1485498 0.6287472
vt 0.1485498 0.6287472
vt 0.1442157 0.6372533
vt 0.1464853 0.6389023
vt 0.1391142 0.6462734
vt 0.1391142 0.6462734
vt 0.1464853 0.6389023
vt 0.1374652 0.6440038
vt 0.1442157 0.6372533
vt 0.1442157 0.6372533
vt 0.1374652 0.6440038
vt 0.1391142 0.6462734
vt 0.129826 0.6510061
vt 0.1296702 0.6509106
vt 0.1391142 0.6462734
vt 0.12806 0.649005
vt 0.1374652 0.6440038
vt 0.1374652 0.6440038
vt 0.12806 0.649005
vt 0.1528486 0.6193181
vt 0.1512179 0.6296141
vt 0.1512179 0.6296141
vt 0.1528486 0.6193181
vt 0.1485498 0.6287472
vt 0.1500432 0.6193181
vt 0.1500432 0.6193181
vt 0.1485498 0.6287472
vt 0.1276104 0.6628972
vt 0.12806 0.649005
vt 0.12806 0.649005
vt 0.1276104 0.6628972
vt 0.1271609 0.6767893
vt 0.1271609 0.6767893
vt 0.129826 0.6510061
vt 0.129826 0.6638978
vt 0.1297481 0.6638499
vt 0.1296702 0.6509106
vt 0.129826 0.6767893
vt 0.129826 0.6767893
vt 0.1442157 0.6372533
vt 0.1485498 0.6287472
vt 0.1512179 0.6296141
vt 0.1464853 0.6389023
vt 0.1374652 0.6440038
vt 0.1391142 0.6462734
vt 0.12806 0.649005
vt 0.1296702 0.6509106
vt 0.1528486 0.6193181
vt 0.1500432 0.6193181
vt 0.1276104 0.6628972
vt 0.1297481 0.6638499
vt 0.1271609 0.6767893
vt 0.129826 0.6767893
vt 0.1512179 0.6296141
vt 0.1464853 0.6389023
vt 0.1464853 0.6389023
vt 0.1512179 0.6296141
vt 0.1442157 0.6372533
vt 0.1485498 0.6287472
vt 0.1485498 0.6287472
vt 0.1442157 0.6372533
vt 0.1464853 0.6389023
vt 0.1391142 0.6462734
vt 0.1391142 0.6462734
vt 0.1464853 0.6389023
vt 0.1374652 0.6440038
vt 0.1442157 0.6372533
vt 0.1442157 0.6372533
vt 0.1374652 0.6440038
vt 0.1391142 0.6462734
vt 0.129826 0.6510061
vt 0.1296702 0.6509106
vt 0.1391142 0.6462734
vt 0.1276104 0.649672
vt 0.1374652 0.6440038
vt 0.1374652 0.6440038
vt 0.1276104 0.649672
vt 0.1528486 0.6193181
vt 0.1512179 0.6296141
vt 0.1512179 0.6296141
vt 0.1528486 0.6193181
vt 0.1485498 0.6287472
vt 0.1500432 0.6193181
vt 0.1500432 0.6193181
vt 0.1485498 0.6287472
vt 0.1271609 0.6767893
vt 0.1273856 0.6632307
vt 0.1273856 0.6632307
vt 0.1271609 0.6767893
vt 0.1276104 0.649672
vt 0.1276104 0.649672
vt 0.129826 0.6638978
vt 0.129826 0.6767893
vt 0.129826 0.6767893
vt 0.1297481 0.6638499
vt 0.129826 0.6510061
vt 0.1296702 0.6509106
vt 0.1442157 0.6372533
vt 0.1485498 0.6287472
vt 0.1512179 0.6296141
vt 0.1464853 0.6389023
vt 0.1374652 0.6440038
vt 0.1391142 0.6462734
vt 0.1276104 0.649672
vt 0.1296702 0.6509106
vt 0.1528486 0.6193181
vt 0.1500432 0.6193181
vt 0.1273856 0.6632307
vt 0.1297481 0.6638499
vt 0.1271609 0.6767893
vt 0.129826 0.6767893
vt 0.1512179 0.6296141
vt 0.1512179 0.6296141
vt 0.1464853 0.6389023
vt 0.1464853 0.6389023
vt 0.1442157 0.6372533
vt 0.1442157 0.6372533
vt 0.1485498 0.6287472
vt 0.1485498 0.6287472
vt 0.1464853 0.6389023
vt 0.1464853 0.6389023
vt 0.1391142 0.6462734
vt 0.1391142 0.6462734
vt 0.1374652 0.6440038
vt 0.1374652 0.6440038
vt 0.1442157 0.6372533
vt 0.1442157 0.6372533
vt 0.1391142 0.6462734
vt 0.1391142 0.6462734
vt 0.1296702 0.6509106
vt 0.129826 0.6510061
vt 0.12806 0.649005
vt 0.12806 0.649005
vt 0.1374652 0.6440038
vt 0.1374652 0.6440038
vt 0.1528486 0.6193181
vt 0.1528486 0.6193181
vt 0.1512179 0.6296141
vt 0.1512179 0.6296141
vt 0.1485498 0.6287472
vt 0.1485498 0.6287472
vt 0.1500432 0.6193181
vt 0.1500432 0.6193181
vt 0.1271609 0.6767893
vt 0.1271609 0.6767893
vt 0.1276104 0.6628972
vt 0.1276104 0.6628972
vt 0.12806 0.649005
vt 0.12806 0.649005
vt 0.129826 0.6638978
vt 0.1297481 0.6638499
vt 0.129826 0.6767893
vt 0.129826 0.6767893
vt 0.129826 0.6510061
vt 0.1296702 0.6509106
vt 0.1442157 0.6372533
vt 0.1464853 0.6389023
vt 0.1512179 0.6296141
vt 0.1485498 0.6287472
vt 0.1374652 0.6440038
vt 0.1391142 0.6462734
vt 0.12806 0.649005
vt 0.1296702 0.6509106
vt 0.1528486 0.6193181
vt 0.1500432 0.6193181
vt 0.129826 0.6767893
vt 0.1297481 0.6638499
vt 0.1276104 0.6628972
vt 0.1271609 0.6767893
vt 0.12806 0.649005
vt 0.1296702 0.6509106
vt 0.1276104 0.649672
vt 0.12806 0.649005
vt 0.1276104 0.6628972
vt 0.1273856 0.6632307
vt 0.1271609 0.6767893
vt 0.1271609 0.6767893
vt 0.1271609 0.6767893
vt 0.1271609 0.6767893
vt 0.1276104 0.6628972
vt 0.1273856 0.6632307
vt 0.1276104 0.649672
vt 0.12806 0.649005
vt 0.1374652 0.6440038
vt 0.1442157 0.6372533
vt 0.1442157 0.6372533
vt 0.1374652 0.6440038
vt 0.12806 0.649005
vt 0.1276104 0.649672
vt 0.1485498 0.6287472
vt 0.1485498 0.6287472
vt 0.1500432 0.6193181
vt 0.1500432 0.6193181
vt 0.1485498 0.6287472
vt 0.1485498 0.6287472
vt 0.1442157 0.6372533
vt 0.1442157 0.6372533
vt 0.1374652 0.6440038
vt 0.1374652 0.6440038
vt 0.1276104 0.649672
vt 0.12806 0.649005
vn 0.8910064 0 -0.4539907
vn 0.8910064 0 -0.4539907
vn 0.8910064 0 -0.4539907
vn 0.8910064 0 -0.4539907
vn -0.8910066 0 0.4539903
vn -0.8910066 0 0.4539903
vn -0.8910066 0 0.4539903
vn -0.8910066 0 0.4539903
vn 0.7071066 0 -0.7071069
vn 0.7071066 0 -0.7071069
vn 0.7071066 0 -0.7071069
vn 0.7071066 0 -0.7071069
vn -0.7071065 0 0.707107
vn -0.7071065 0 0.707107
vn -0.7071065 0 0.707107
vn -0.7071065 0 0.707107
vn 0.4539904 0 -0.8910066
vn 0.4539904 0 -0.8910066
vn 0.4539904 0 -0.8910066
vn 0.4539904 0 -0.8910066
vn -0.3877094 0 0.9217816
vn -0.3877094 0 0.9217816
vn -0.3877094 0 0.9217816
vn -0.3877094 0 0.9217816
vn 0.9876887 0 -0.156432
vn 0.9876887 0 -0.156432
vn 0.9876887 0 -0.156432
vn 0.9876887 0 -0.156432
vn -0.9876886 0 0.1564329
vn -0.9876886 0 0.1564329
vn -0.9876886 0 0.1564329
vn -0.9876886 0 0.1564329
vn -1 0 0
vn -1 0 0
vn -1 0 0
vn -1 0 0
vn -1 0 0
vn -1 0 0
vn 1 0 0
vn 1 0 0
vn 1 0 0
vn 1 0 0
vn 1 0 0
vn 1 0 0
vn 0 1 0
vn 0 1 0
vn 0 1 0
vn 0 1 0
vn 0 1 0
vn 0 1 0
vn 0 1 0
vn 0 1 0
vn 0 1 0
vn 0 1 0
vn 0 1 0
vn 0 1 0
vn 0 1 0
vn 0 1 0
vn 0 1 0
vn 0 1 0
vn 0 1 0
vn -0.8910064 0 -0.4539907
vn -0.8910064 0 -0.4539907
vn -0.8910064 0 -0.4539907
vn -0.8910064 0 -0.4539907
vn 0.8910066 0 0.4539903
vn 0.8910066 0 0.4539903
vn 0.8910066 0 0.4539903
vn 0.8910066 0 0.4539903
vn -0.7071066 0 -0.7071069
vn -0.7071066 0 -0.7071069
vn -0.7071066 0 -0.7071069
vn -0.7071066 0 -0.7071069
vn 0.7071065 0 0.707107
vn 0.7071065 0 0.707107
vn 0.7071065 0 0.707107
vn 0.7071065 0 0.707107
vn -0.4539904 0 -0.8910066
vn -0.4539904 0 -0.8910066
vn -0.4539904 0 -0.8910066
vn -0.4539904 0 -0.8910066
vn 0.3877094 0 0.9217816
vn 0.3877094 0 0.9217816
vn 0.3877094 0 0.9217816
vn 0.3877094 0 0.9217816
vn -0.9876887 0 -0.156432
vn -0.9876887 0 -0.156432
vn -0.9876887 0 -0.156432
vn -0.9876887 0 -0.156432
vn 0.9876886 0 0.1564329
vn 0.9876886 0 0.1564329
vn 0.9876886 0 0.1564329
vn 0.9876886 0 0.1564329
vn 1 0 0
vn 1 0 0
vn 1 0 0
vn 1 0 0
vn 1 0 0
vn 1 0 0
vn -1 0 0
vn -1 0 0
vn -1 0 0
vn -1 0 0
vn -1 0 0
vn -1 0 0
vn 0 1 0
vn 0 1 0
vn 0 1 0
vn 0 1 0
vn 0 1 0
vn 0 1 0
vn 0 1 0
vn 0 1 0
vn 0 1 0
vn 0 1 0
vn 0 1 0
vn 0 1 0
vn 0 1 0
vn 0 1 0
vn 0.8910064 0 0.4539907
vn 0.8910064 0 0.4539907
vn 0.8910064 0 0.4539907
vn 0.8910064 0 0.4539907
vn -0.8910066 0 -0.4539903
vn -0.8910066 0 -0.4539903
vn -0.8910066 0 -0.4539903
vn -0.8910066 0 -0.4539903
vn 0.7071066 0 0.7071069
vn 0.7071066 0 0.7071069
vn 0.7071066 0 0.7071069
vn 0.7071066 0 0.7071069
vn -0.7071065 0 -0.707107
vn -0.7071065 0 -0.707107
vn -0.7071065 0 -0.707107
vn -0.7071065 0 -0.707107
vn 0.4539904 0 0.8910066
vn 0.4539904 0 0.8910066
vn 0.4539904 0 0.8910066
vn 0.4539904 0 0.8910066
vn -0.3877094 0 -0.9217816
vn -0.3877094 0 -0.9217816
vn -0.3877094 0 -0.9217816
vn -0.3877094 0 -0.9217816
vn 0.9876887 0 0.156432
vn 0.9876887 0 0.156432
vn 0.9876887 0 0.156432
vn 0.9876887 0 0.156432
vn -0.9876886 0 -0.1564329
vn -0.9876886 0 -0.1564329
vn -0.9876886 0 -0.1564329
vn -0.9876886 0 -0.1564329
vn -1 0 0
vn -1 0 0
vn -1 0 0
vn -1 0 0
vn -1 0 0
vn -1 0 0
vn 1 0 0
vn 1 0 0
vn 1 0 0
vn 1 0 0
vn 1 0 0
vn 1 0 0
vn 0 1 0
vn 0 1 0
vn 0 1 0
vn 0 1 0
vn 0 1 0
vn 0 1 0
vn 0 1 0
vn 0 1 0
vn 0 1 0
vn 0 1 0
vn 0 1 0
vn 0 1 0
vn 0 1 0
vn 0 1 0
vn -0.8910064 0 0.4539907
vn -0.8910064 0 0.4539907
vn -0.8910064 0 0.4539907
vn -0.8910064 0 0.4539907
vn 0.8910066 0 -0.4539903
vn 0.8910066 0 -0.4539903
vn 0.8910066 0 -0.4539903
vn 0.8910066 0 -0.4539903
vn -0.7071066 0 0.7071069
vn -0.7071066 0 0.7071069
vn -0.7071066 0 0.7071069
vn -0.7071066 0 0.7071069
vn 0.7071065 0 -0.707107
vn 0.7071065 0 -0.707107
vn 0.7071065 0 -0.707107
vn 0.7071065 0 -0.707107
vn -0.4539904 0 0.8910066
vn -0.4539904 0 0.8910066
vn -0.4539904 0 0.8910066
vn -0.4539904 0 0.8910066
vn 0.3877094 0 -0.9217816
vn 0.3877094 0 -0.9217816
vn 0.3877094 0 -0.9217816
vn 0.3877094 0 -0.9217816
vn -0.9876887 0 0.156432
vn -0.9876887 0 0.156432
vn -0.9876887 0 0.156432
vn -0.9876887 0 0.156432
vn 0.9876886 0 -0.1564329
vn 0.9876886 0 -0.1564329
vn 0.9876886 0 -0.1564329
vn 0.9876886 0 -0.1564329
vn 1 0 0
vn 1 0 0
vn 1 0 0
vn 1 0 0
vn 1 0 0
vn 1 0 0
vn -1 0 0
vn -1 0 0
vn -1 0 0
vn -1 0 0
vn -1 0 0
vn -1 0 0
vn 0 1 0
vn 0 1 0
vn 0 1 0
vn 0 1 0
vn 0 1 0
vn 0 1 0
vn 0 1 0
vn 0 1 0
vn 0 1 0
vn 0 1 0
vn 0 1 0
vn 0 1 0
vn 0 1 0
vn 0 1 0
vn 0 1 0
vn 0 1 0
vn 0 1 0
vn 0 1 0
vn 0 1 0
vn 0 1 0
vn 0 1 0
vn 0 1 0
vn 0 1 0
vn 0 1 0
vn 0 1 0
vn 0 1 0
vn 0 1 0
vn 0 1 0
vn 0 1 0
vn 0 1 0
vn 0 1 0
vn 0 1 0
vn 0 1 0
vn 0 1 0
vn 0 1 0
vn 0 1 0
vn 0 1 0
vn 0 1 0
vn 0 1 0
vn 0 1 0
vn 0 1 0
vn 0 1 0
vn 0 1 0
vn 0 1 0
vn 0 1 0
vn 0 1 0
g harazuelDioGroundCOL_0
f 3/3/3 2/2/2 1/1/1
f 4/4/4 3/3/3 1/1/1
f 7/7/7 6/6/6 5/5/5
f 8/8/8 7/7/7 5/5/5
f 11/11/11 10/10/10 9/9/9
f 12/12/12 11/11/11 9/9/9
f 15/15/15 14/14/14 13/13/13
f 16/16/16 15/15/15 13/13/13
f 19/19/19 18/18/18 17/17/17
f 20/20/20 19/19/19 17/17/17
f 23/23/23 22/22/22 21/21/21
f 24/24/24 23/23/23 21/21/21
f 27/27/27 26/26/26 25/25/25
f 28/28/28 27/27/27 25/25/25
f 31/31/31 30/30/30 29/29/29
f 32/32/32 31/31/31 29/29/29
f 35/35/35 34/34/34 33/33/33
f 36/36/36 35/35/35 33/33/33
f 33/33/33 34/34/34 37/37/37
f 34/34/34 38/38/38 37/37/37
f 41/41/41 40/40/40 39/39/39
f 42/42/42 41/41/41 39/39/39
f 43/43/43 41/41/41 42/42/42
f 44/44/44 43/43/43 42/42/42
f 47/47/47 46/46/46 45/45/45
f 48/48/48 47/47/47 45/45/45
f 45/45/45 46/46/46 49/49/49
f 46/46/46 50/50/50 49/49/49
f 51/51/51 47/47/47 48/48/48
f 52/52/52 51/51/51 48/48/48
f 50/50/50 54/54/54 53/53/53
f 55/55/55 50/50/50 53/53/53
f 58/58/58 57/57/57 56/56/56
f 59/59/59 58/58/58 56/56/56
f 59/59/59 56/56/56 60/60/60
f 61/61/61 59/59/59 60/60/60
f 64/64/64 63/63/63 62/62/62
f 65/65/65 64/64/64 62/62/62
f 68/68/68 67/67/67 66/66/66
f 69/69/69 68/68/68 66/66/66
f 72/72/72 71/71/71 70/70/70
f 73/73/73 72/72/72 70/70/70
f 76/76/76 75/75/75 74/74/74
f 77/77/77 76/76/76 74/74/74
f 80/80/80 79/79/79 78/78/78
f 81/81/81 80/80/80 78/78/78
f 84/84/84 83/83/83 82/82/82
f 85/85/85 84/84/84 82/82/82
f 88/88/88 87/87/87 86/86/86
f 89/89/89 88/88/88 86/86/86
f 92/92/92 91/91/91 90/90/90
f 93/93/93 92/92/92 90/90/90
f 96/96/96 95/95/95 94/94/94
f 97/97/97 96/96/96 94/94/94
f 97/97/97 94/94/94 98/98/98
f 99/99/99 97/97/97 98/98/98
f 102/102/102 101/101/101 100/100/100
f 103/103/103 102/102/102 100/100/100
f 102/102/102 104/104/104 101/101/101
f 104/104/104 105/105/105 101/101/101
f 108/108/108 107/107/107 106/106/106
f 109/109/109 108/108/108 106/106/106
f 109/109/109 106/106/106 110/110/110
f 111/111/111 109/109/109 110/110/110
f 111/111/111 110/110/110 112/112/112
f 113/113/113 111/111/111 112/112/112
f 108/108/108 114/114/114 107/107/107
f 114/114/114 115/115/115 107/107/107
f 113/113/113 112/112/112 116/116/116
f 117/117/117 113/113/113 116/116/116
f 117/117/117 116/116/116 118/118/118
f 119/119/119 117/117/117 118/118/118
f 122/122/122 121/121/121 120/120/120
f 123/123/123 122/122/122 120/120/120
f 126/126/126 125/125/125 124/124/124
f 127/127/127 126/126/126 124/124/124
f 130/130/130 129/129/129 128/128/128
f 131/131/131 130/130/130 128/128/128
f 134/134/134 133/133/133 132/132/132
f 135/135/135 134/134/134 132/132/132
f 138/138/138 137/137/137 136/136/136
f 139/139/139 138/138/138 136/136/136
f 142/142/142 141/141/141 140/140/140
f 143/143/143 142/142/142 140/140/140
f 146/146/146 145/145/145 144/144/144
f 147/147/147 146/146/146 144/144/144
f 150/150/150 149/149/149 148/148/148
f 151/151/151 150/150/150 148/148/148
f 154/154/154 153/153/153 152/152/152
f 155/155/155 154/154/154 152/152/152
f 154/154/154 156/156/156 153/153/153
f 156/156/156 157/157/157 153/153/153
f 160/160/160 159/159/159 158/158/158
f 161/161/161 160/160/160 158/158/158
f 161/161/161 158/158/158 162/162/162
f 163/163/163 161/161/161 162/162/162
f 166/166/166 165/165/165 164/164/164
f 167/167/167 166/166/166 164/164/164
f 167/167/167 164/164/164 168/168/168
f 169/169/169 167/167/167 168/168/168
f 169/169/169 168/168/168 170/170/170
f 171/171/171 169/169/169 170/170/170
f 166/166/166 172/172/172 165/165/165
f 172/172/172 173/173/173 165/165/165
f 171/171/171 170/170/170 174/174/174
f 175/175/175 171/171/171 174/174/174
f 175/175/175 174/174/174 176/176/176
f 177/177/177 175/175/175 176/176/176
f 180/180/180 179/179/179 178/178/178
f 181/181/181 180/180/180 178/178/178
f 184/184/184 183/183/183 182/182/182
f 185/185/185 184/184/184 182/182/182
f 188/188/188 187/187/187 186/186/186
f 189/189/189 188/188/188 186/186/186
f 192/192/192 191/191/191 190/190/190
f 193/193/193 192/192/192 190/190/190
f 196/196/196 195/195/195 194/194/194
f 197/197/197 196/196/196 194/194/194
f 200/200/200 199/199/199 198/198/198
f 201/201/201 200/200/200 198/198/198
f 204/204/204 203/203/203 202/202/202
f 205/205/205 204/204/204 202/202/202
f 208/208/208 207/207/207 206/206/206
f 209/209/209 208/208/208 206/206/206
f 212/212/212 211/211/211 210/210/210
f 213/213/213 212/212/212 210/210/210
f 213/213/213 214/214/214 212/212/212
f 214/214/214 215/215/215 212/212/212
f 218/218/218 217/217/217 216/216/216
f 219/219/219 218/218/218 216/216/216
f 216/216/216 217/217/217 220/220/220
f 217/217/217 221/221/221 220/220/220
f 224/224/224 223/223/223 222/222/222
f 225/225/225 224/224/224 222/222/222
f 222/222/222 223/223/223 226/226/226
f 223/223/223 227/227/227 226/226/226
f 226/226/226 227/227/227 228/228/228
f 227/227/227 229/229/229 228/228/228
f 230/230/230 224/224/224 225/225/225
f 231/231/231 230/230/230 225/225/225
f 234/234/234 233/233/233 232/232/232
f 235/235/235 234/234/234 232/232/232
f 234/234/234 236/236/236 233/233/233
f 236/236/236 237/237/237 233/233/233
f 240/240/240 239/239/239 238/238/238
f 241/241/241 240/240/240 238/238/238
f 241/241/241 242/242/242 240/240/240
f 242/242/242 243/243/243 240/240/240
f 246/246/246 245/245/245 244/244/244
f 247/247/247 246/246/246 244/244/244
f 247/247/247 248/248/248 246/246/246
f 248/248/248 249/249/249 246/246/246
f 252/252/252 251/251/251 250/250/250
f 253/253/253 252/252/252 250/250/250
f 253/253/253 250/250/250 254/254/254
f 255/255/255 253/253/253 254/254/254
f 252/252/252 256/256/256 251/251/251
f 256/256/256 257/257/257 251/251/251
f 256/256/256 258/258/258 257/257/257
f 258/258/258 259/259/259 257/257/257
f 258/258/258 260/260/260 259/259/259
f 260/260/260 261/261/261 259/259/259
f 260/260/260 262/262/262 261/261/261
f 262/262/262 263/263/263 261/261/261
f 262/262/262 264/264/264 263/263/263
f 264/264/264 265/265/265 263/263/263
f 264/264/264 266/266/266 265/265/265
f 266/266/266 267/267/267 265/265/265
