g hexArctic04_ice
v 0.4119568 -0.08926342 1.05024
v 0.5245056 -0.08376957 0.306778
v 1.094177 -0.05622256 0.6509323
v -1.473846 -0.09917867 1.165085
v -1.591492 -0.04759119 0.3518677
v -0.8673096 -0.08447562 0.8234634
v -0.9268494 -0.04535092 0.2884369
v -2.346832 -0.08212568 0.494957
v -0.07171631 -0.07997614 0.07780457
v -0.5134888 -0.05846812 0.02854156
v 0.005493164 -0.06915089 -0.4069977
v -0.8673096 -0.08447562 0.8234634
v -0.9268494 -0.04535092 0.2884369
v 0.3258057 -0.05839929 -0.9279785
v 0.9154053 -0.1007584 -0.4987183
v 0.4484253 -0.08884278 -0.1011505
v -0.07171631 -0.07997614 0.07780457
v 0.9154053 -0.1007584 -0.4987183
v 1.004425 -0.09966676 0.08600616
v -0.144104 -0.08010487 0.8638458
v -0.8673096 -0.08447562 0.8234634
v -0.2674866 -0.07674891 1.427811
v 0.4119568 -0.08926342 1.05024
v -2.716125 -0.0975839 1.550865
v -2.131836 -0.005222566 1.325089
v -2.263519 -0.05262025 2.211296
v -2.131836 -0.005222566 1.325089
v -1.393372 -0.05101718 1.902534
v -2.263519 -0.05262025 2.211296
v -0.3687439 -0.04922079 2.270737
v -0.7262573 -0.07608581 2.353981
v -0.2674866 -0.07674891 1.427811
v -0.8605042 -0.07883373 2.85434
v -1.51709 -0.145895 2.527626
v -0.8861084 0.034959 1.502647
v -1.393372 -0.05101718 1.902534
v -1.473846 -0.09917867 1.165085
v -0.8861084 0.034959 1.502647
v -0.8673096 -0.08447562 0.8234634
v -0.2674866 -0.07674891 1.427811
v 0.3258057 -0.05839929 -0.9279785
v 0.005493164 -0.06915089 -0.4069977
v -0.2650757 -0.08783604 -1.323677
v -0.8052673 -0.08936186 -0.8221817
v -1.299957 -0.09543653 -0.485611
v -0.5134888 -0.05846812 0.02854156
v -0.9268494 -0.04535092 0.2884369
v -1.591492 -0.04759119 0.3518677
v -0.7310486 -0.1006022 -1.337936
v -1.333466 -0.08835582 -1.260048
v -1.333466 -0.08835582 -1.260048
v -1.299957 -0.09543653 -0.485611
v -1.646271 -0.1014262 -0.9856491
v -1.738556 -0.09221877 -1.647522
v -1.738556 -0.09221877 -1.647522
v -1.196686 -0.1003464 -1.358292
v -2.279846 -0.05083144 -1.952301
v -2.621185 -0.08865069 -1.1595
v -2.691071 -0.05908626 -1.689621
v -3.102661 -0.08831252 -1.417145
v -3.455414 -0.09800626 -0.9410553
v -3.102661 -0.08831252 -1.417145
v -2.279846 -0.05083144 -1.952301
v -1.738556 -0.09221877 -1.647522
v -1.646271 -0.1014262 -0.9856491
v -2.621185 -0.08865069 -1.1595
v -2.206268 -0.04380122 -0.847641
v -2.741272 -0.058192 -0.2077637
v -2.206268 -0.04380122 -0.847641
v -2.131287 -0.05781722 -0.3428574
v -2.741272 -0.058192 -0.2077637
v -3.859558 -0.04565968 0.1212463
v -3.437836 -0.09141742 0.2781754
v -3.913483 -0.09473144 0.7581863
v -2.644104 -0.05983444 3.094131
v -2.681763 -0.07345103 2.321075
v -2.158417 -0.04849471 2.754784
v -2.263519 -0.05262025 2.211296
v -2.716125 -0.0975839 1.550865
v -2.122833 -0.05452085 3.383194
v -0.4692078 -0.09021056 3.145264
v -1.03598 -0.1025006 3.424095
v -0.8605042 -0.07883373 2.85434
v -1.305511 -0.08892402 3.139656
v -0.3687439 -0.04922079 2.270737
v -1.60257 -0.1028998 3.697365
v -3.313904 -0.05585383 1.135681
v -2.805511 -0.05728522 0.7947388
v -2.716125 -0.0975839 1.550865
v -2.805511 -0.05728522 0.7947388
v -2.131836 -0.005222566 1.325089
v -2.716125 -0.0975839 1.550865
v 0.5245056 -0.08376957 0.306778
v 1.004425 -0.09966676 0.08600616
v 1.094177 -0.05622256 0.6509323
v -2.122833 -0.05452085 3.383194
v -1.94458 -0.09336831 3.165016
v -1.60257 -0.1028998 3.697365
v -1.94458 -0.09336831 3.165016
v -1.305511 -0.08892402 3.139656
v -1.60257 -0.1028998 3.697365
v 0.5245056 -0.08376957 0.306778
v -0.144104 -0.08010487 0.8638458
v -0.07171631 -0.07997614 0.07780457
v -0.144104 -0.08010487 0.8638458
v 0.5245056 -0.08376957 0.306778
v 0.4119568 -0.08926342 1.05024
v -2.263519 -0.05262025 2.211296
v -1.393372 -0.05101718 1.902534
v -1.51709 -0.145895 2.527626
v -1.393372 -0.05101718 1.902534
v -2.131836 -0.005222566 1.325089
v -1.473846 -0.09917867 1.165085
v -2.346832 -0.08212568 0.494957
v -1.393372 -0.05101718 1.902534
v -0.7262573 -0.07608581 2.353981
v -1.51709 -0.145895 2.527626
v -0.8861084 0.034959 1.502647
v -0.2674866 -0.07674891 1.427811
v -0.7262573 -0.07608581 2.353981
v -0.8861084 0.034959 1.502647
v -0.8673096 -0.08447562 0.8234634
v -0.8861084 0.034959 1.502647
v -1.473846 -0.09917867 1.165085
v -0.7310486 -0.1006022 -1.337936
v -1.333466 -0.08835582 -1.260048
v -1.196686 -0.1003464 -1.358292
v -1.299957 -0.09543653 -0.485611
v -2.131287 -0.05781722 -0.3428574
v -1.646271 -0.1014262 -0.9856491
v -1.591492 -0.04759119 0.3518677
v -2.131287 -0.05781722 -0.3428574
v -2.206268 -0.04380122 -0.847641
v -1.646271 -0.1014262 -0.9856491
v -1.646271 -0.1014262 -0.9856491
v -2.206268 -0.04380122 -0.847641
v -2.621185 -0.08865069 -1.1595
v -3.811096 -0.1223365 -0.4897156
v -3.455414 -0.09800626 -0.9410553
v -3.303528 -0.008038595 -0.6010666
v -3.455414 -0.09800626 -0.9410553
v -2.621185 -0.08865069 -1.1595
v -3.303528 -0.008038595 -0.6010666
v -3.303528 -0.008038595 -0.6010666
v -2.621185 -0.08865069 -1.1595
v -2.741272 -0.058192 -0.2077637
v -3.437836 -0.09141742 0.2781754
v -3.303528 -0.008038595 -0.6010666
v -2.741272 -0.058192 -0.2077637
v -3.303528 -0.008038595 -0.6010666
v -3.437836 -0.09141742 0.2781754
v -3.811096 -0.1223365 -0.4897156
v -3.437836 -0.09141742 0.2781754
v -3.859558 -0.04565968 0.1212463
v -3.811096 -0.1223365 -0.4897156
v -2.158417 -0.04849471 2.754784
v -2.263519 -0.05262025 2.211296
v -1.51709 -0.145895 2.527626
v -0.8605042 -0.07883373 2.85434
v -1.305511 -0.08892402 3.139656
v -1.51709 -0.145895 2.527626
v -2.131836 -0.005222566 1.325089
v -2.805511 -0.05728522 0.7947388
v -2.346832 -0.08212568 0.494957
v -2.346832 -0.08212568 0.494957
v -2.805511 -0.05728522 0.7947388
v -2.741272 -0.058192 -0.2077637
v -2.805511 -0.05728522 0.7947388
v -3.437836 -0.09141742 0.2781754
v -2.741272 -0.058192 -0.2077637
v -3.913483 -0.09473144 0.7581863
v -3.437836 -0.09141742 0.2781754
v -3.313904 -0.05585383 1.135681
v -3.437836 -0.09141742 0.2781754
v -2.805511 -0.05728522 0.7947388
v -3.313904 -0.05585383 1.135681
v 1.004425 -0.09966676 0.08600616
v 0.5245056 -0.08376957 0.306778
v 0.4484253 -0.08884278 -0.1011505
v 0.4484253 -0.08884278 -0.1011505
v 0.5245056 -0.08376957 0.306778
v -0.07171631 -0.07997614 0.07780457
v -1.305511 -0.08892402 3.139656
v -1.94458 -0.09336831 3.165016
v -1.51709 -0.145895 2.527626
v -1.94458 -0.09336831 3.165016
v -2.158417 -0.04849471 2.754784
v -1.51709 -0.145895 2.527626
v -2.158417 -0.04849471 2.754784
v -1.94458 -0.09336831 3.165016
v -2.122833 -0.05452085 3.383194
v -1.591492 -0.04759119 0.3518677
v -2.346832 -0.08212568 0.494957
v -2.131287 -0.05781722 -0.3428574
v -2.131287 -0.05781722 -0.3428574
v -2.346832 -0.08212568 0.494957
v -2.741272 -0.058192 -0.2077637
vt 0.1165579 0.1796538
vt 0.122098 0.1796538
vt 0.1283326 0.1796538
vt 0.08356124 0.1796538
vt 0.08445156 0.1796538
vt 0.09713879 0.1796538
vt 0.0933868 0.1796538
vt 0.07304103 0.1796538
vt 0.1110142 0.1796538
vt 0.09817806 0.1796538
vt 0.1064847 0.1796538
vt 0.09713879 0.1796538
vt 0.0933868 0.1796538
vt 0.1183315 0.1796538
vt 0.1266063 0.1796538
vt 0.1188103 0.1796538
vt 0.1110142 0.1796538
vt 0.1266063 0.1796538
vt 0.1274695 0.1796538
vt 0.1078987 0.1796538
vt 0.09713879 0.1796538
vt 0.1047831 0.1796538
vt 0.1165579 0.1796538
vt 0.06202789 0.1796538
vt 0.07279456 0.1796538
vt 0.06923232 0.1796538
vt 0.07279456 0.1796538
vt 0.08311078 0.1796538
vt 0.06923232 0.1796538
vt 0.1027647 0.1796538
vt 0.09656878 0.1796538
vt 0.1047831 0.1796538
vt 0.09167418 0.1796538
vt 0.08260214 0.1796538
vt 0.09417218 0.1796538
vt 0.08311078 0.1796538
vt 0.08356124 0.1796538
vt 0.09417218 0.1796538
vt 0.09713879 0.1796538
vt 0.1047831 0.1796538
vt 0.1183315 0.1796538
vt 0.1064847 0.1796538
vt 0.1100567 0.1796538
vt 0.09769928 0.1796538
vt 0.08534187 0.1796538
vt 0.09817806 0.1796538
vt 0.0933868 0.1796538
vt 0.08445156 0.1796538
vt 0.09664351 0.1796538
vt 0.08202997 0.1796538
vt 0.08202997 0.1796538
vt 0.08534187 0.1796538
vt 0.0708729 0.1796538
vt 0.06981711 0.1796538
vt 0.06981711 0.1796538
vt 0.08323031 0.1796538
vt 0.05640392 0.1796538
vt 0.05963058 0.1796538
vt 0.05173047 0.1796538
vt 0.04705702 0.1796538
vt 0.04238357 0.1796538
vt 0.04705702 0.1796538
vt 0.05640392 0.1796538
vt 0.06981711 0.1796538
vt 0.0708729 0.1796538
vt 0.05963058 0.1796538
vt 0.0681626 0.1796538
vt 0.06349778 0.1796538
vt 0.0681626 0.1796538
vt 0.07441983 0.1796538
vt 0.06349778 0.1796538
vt 0.03843195 0.1796538
vt 0.05067063 0.1796538
vt 0.03915379 0.1796538
vt 0.06391142 0.1796538
vt 0.06296965 0.1796538
vt 0.07325678 0.1796538
vt 0.06923232 0.1796538
vt 0.06202789 0.1796538
vt 0.07265791 0.1796538
vt 0.1007462 0.1796538
vt 0.0910753 0.1796538
vt 0.09167418 0.1796538
vt 0.08202751 0.1796538
vt 0.1027647 0.1796538
vt 0.08140439 0.1796538
vt 0.05059084 0.1796538
vt 0.06298558 0.1796538
vt 0.06202789 0.1796538
vt 0.06298558 0.1796538
vt 0.07279456 0.1796538
vt 0.06202789 0.1796538
vt 0.122098 0.1796538
vt 0.1274695 0.1796538
vt 0.1283326 0.1796538
vt 0.07265791 0.1796538
vt 0.07562405 0.1796538
vt 0.08140439 0.1796538
vt 0.07562405 0.1796538
vt 0.08202751 0.1796538
vt 0.08140439 0.1796538
vt 0.122098 0.1796538
vt 0.1078987 0.1796538
vt 0.1110142 0.1796538
vt 0.1078987 0.1796538
vt 0.122098 0.1796538
vt 0.1165579 0.1796538
vt 0.06923232 0.1796538
vt 0.08311078 0.1796538
vt 0.08260214 0.1796538
vt 0.08311078 0.1796538
vt 0.07279456 0.1796538
vt 0.08356124 0.1796538
vt 0.07304103 0.1796538
vt 0.08311078 0.1796538
vt 0.09656878 0.1796538
vt 0.08260214 0.1796538
vt 0.09417218 0.1796538
vt 0.1047831 0.1796538
vt 0.09656878 0.1796538
vt 0.09417218 0.1796538
vt 0.09713879 0.1796538
vt 0.09417218 0.1796538
vt 0.08356124 0.1796538
vt 0.09664351 0.1796538
vt 0.08202997 0.1796538
vt 0.08323031 0.1796538
vt 0.08534187 0.1796538
vt 0.07441983 0.1796538
vt 0.0708729 0.1796538
vt 0.08445156 0.1796538
vt 0.07441983 0.1796538
vt 0.0681626 0.1796538
vt 0.0708729 0.1796538
vt 0.0708729 0.1796538
vt 0.0681626 0.1796538
vt 0.05963058 0.1796538
vt 0.03771012 0.1796538
vt 0.04238357 0.1796538
vt 0.05060395 0.1796538
vt 0.04238357 0.1796538
vt 0.05963058 0.1796538
vt 0.05060395 0.1796538
vt 0.05060395 0.1796538
vt 0.05963058 0.1796538
vt 0.06349778 0.1796538
vt 0.05067063 0.1796538
vt 0.05060395 0.1796538
vt 0.06349778 0.1796538
vt 0.05060395 0.1796538
vt 0.05067063 0.1796538
vt 0.03771012 0.1796538
vt 0.05067063 0.1796538
vt 0.03843195 0.1796538
vt 0.03771012 0.1796538
vt 0.07325678 0.1796538
vt 0.06923232 0.1796538
vt 0.08260214 0.1796538
vt 0.09167418 0.1796538
vt 0.08202751 0.1796538
vt 0.08260214 0.1796538
vt 0.07279456 0.1796538
vt 0.06298558 0.1796538
vt 0.07304103 0.1796538
vt 0.07304103 0.1796538
vt 0.06298558 0.1796538
vt 0.06349778 0.1796538
vt 0.06298558 0.1796538
vt 0.05067063 0.1796538
vt 0.06349778 0.1796538
vt 0.03915379 0.1796538
vt 0.05067063 0.1796538
vt 0.05059084 0.1796538
vt 0.05067063 0.1796538
vt 0.06298558 0.1796538
vt 0.05059084 0.1796538
vt 0.1274695 0.1796538
vt 0.122098 0.1796538
vt 0.1188103 0.1796538
vt 0.1188103 0.1796538
vt 0.122098 0.1796538
vt 0.1110142 0.1796538
vt 0.08202751 0.1796538
vt 0.07562405 0.1796538
vt 0.08260214 0.1796538
vt 0.07562405 0.1796538
vt 0.07325678 0.1796538
vt 0.08260214 0.1796538
vt 0.07325678 0.1796538
vt 0.07562405 0.1796538
vt 0.07265791 0.1796538
vt 0.08445156 0.1796538
vt 0.07304103 0.1796538
vt 0.07441983 0.1796538
vt 0.07441983 0.1796538
vt 0.07304103 0.1796538
vt 0.06349778 0.1796538
vn -0.04834226 0.9988309 6.332652E-05
vn -0.04834225 0.9988309 6.332652E-05
vn -0.04834225 0.9988309 6.332651E-05
vn 0.01060257 0.9980335 0.06178006
vn 0.01060257 0.9980335 0.06178006
vn 0.01060257 0.9980335 0.06178006
vn 0.003559037 0.997359 0.07254247
vn -0.03271069 0.9971499 0.06798613
vn 0.04281246 0.9977446 0.05170037
vn 0.04281246 0.9977446 0.05170037
vn 0.03917944 0.9982324 0.04468936
vn 0.07228708 0.9952807 0.06473718
vn 0.07228709 0.9952807 0.06473718
vn 0.03917944 0.9982324 0.04468937
vn 0.03917944 0.9982324 0.04468937
vn 0.02117926 0.9997627 -0.005090981
vn -0.006021671 0.9999819 -0.0003907692
vn 0.02117926 0.9997627 -0.005090981
vn 0.02117926 0.9997627 -0.005090981
vn -0.005642859 0.9999583 -0.007185561
vn -0.005642859 0.9999583 -0.007185561
vn -0.005642859 0.9999583 -0.007185561
vn 0.01719997 0.9998497 -0.002186528
vn -0.1441868 0.9890498 0.031475
vn -0.1441868 0.9890498 0.031475
vn -0.1441868 0.9890498 0.031475
vn 0.01805643 0.9982634 0.05607209
vn 0.01805643 0.9982634 0.0560721
vn 0.01805643 0.9982634 0.0560721
vn -0.08473103 0.9954892 -0.04268361
vn -0.08473103 0.9954892 -0.04268362
vn -0.08473103 0.9954892 -0.04268361
vn -0.09211574 0.9955623 -0.01924713
vn -0.09211575 0.9955623 -0.01924713
vn -0.1992252 0.9790445 -0.04220384
vn -0.1992252 0.9790445 -0.04220384
vn -0.1992252 0.9790445 -0.04220384
vn 0.1556175 0.9736159 -0.1668988
vn 0.1556175 0.9736159 -0.1668988
vn 0.1556175 0.9736159 -0.1668988
vn -0.04502589 0.9989609 -0.00706999
vn -0.04502589 0.9989609 -0.00706999
vn -0.04502589 0.9989609 -0.00706999
vn -0.01706728 0.9997366 -0.01534199
vn -0.01738905 0.9988257 -0.04521881
vn -0.01738905 0.9988257 -0.04521881
vn -0.00685475 0.9980972 -0.06127832
vn -0.009108198 0.9981451 -0.06019436
vn -0.02659045 0.9993185 -0.02560212
vn 0.01783607 0.9996562 -0.01921893
vn -0.02634396 0.9994984 0.01757732
vn -0.03250914 0.9994158 0.01054406
vn -0.02634396 0.9994984 0.01757732
vn -0.02634396 0.9994984 0.01757732
vn 0.045854 0.9972697 -0.05788356
vn 0.045854 0.9972697 -0.05788356
vn 0.01431766 0.9984493 0.05379433
vn 0.01431766 0.9984493 0.05379433
vn 0.01431766 0.9984493 0.05379433
vn -0.03127909 0.9977223 0.05976368
vn -0.007298328 0.9998616 0.01495071
vn -0.007298328 0.9998616 0.01495071
vn 0.07426072 0.9972326 0.003517089
vn 0.07426071 0.9972326 0.003517089
vn 0.07426071 0.9972326 0.003517089
vn -0.07646573 0.996207 -0.04152878
vn -0.07646574 0.996207 -0.04152877
vn -0.07646575 0.996207 -0.04152878
vn 0.005356981 0.9996222 0.02695898
vn 0.005356981 0.9996222 0.02695897
vn 0.005356982 0.9996222 0.02695898
vn 0.07688744 0.993575 0.0830484
vn 0.07688744 0.993575 0.08304839
vn 0.07688744 0.993575 0.08304839
vn -0.03445467 0.9992794 -0.01592272
vn -0.03445467 0.9992794 -0.01592272
vn -0.03445467 0.9992794 -0.01592272
vn -0.0492305 0.9987856 0.001939616
vn -0.05724099 0.9979474 -0.02871435
vn -0.0160113 0.9998168 0.0104942
vn -0.001471024 0.999156 0.04104947
vn -0.001471024 0.999156 0.04104947
vn -0.001471024 0.999156 0.04104947
vn 0.00492718 0.9990621 0.04301802
vn -0.005312226 0.9989178 0.04620555
vn 0.01530709 0.9993316 0.03319704
vn 0.03565742 0.9981632 0.04897896
vn 0.03565743 0.9981632 0.04897896
vn 0.03565742 0.9981632 0.04897896
vn -0.1300663 0.9891638 0.06810205
vn -0.1300663 0.9891638 0.06810205
vn -0.1300663 0.9891638 0.06810205
vn -0.00209152 0.9970799 -0.07633599
vn -0.00209152 0.9970799 -0.07633599
vn -0.00209152 0.9970799 -0.07633598
vn 0.1327704 0.9888392 -0.0675943
vn 0.1327704 0.9888392 -0.0675943
vn 0.1327704 0.9888392 -0.0675943
vn -0.006087173 0.9997435 0.02181118
vn -0.006087173 0.9997435 0.02181118
vn -0.006087173 0.9997435 0.02181118
vn 0.006084683 0.9999813 0.0007241163
vn 0.006084683 0.9999813 0.0007241162
vn 0.006084682 0.9999813 0.0007241162
vn 0.01331502 0.9998671 0.009403764
vn 0.01331502 0.9998671 0.009403764
vn 0.01331502 0.9998671 0.009403764
vn 0.05513382 0.985496 0.1604929
vn 0.05513382 0.985496 0.1604929
vn 0.05513382 0.985496 0.1604929
vn 0.122318 0.9894243 -0.07796176
vn 0.122318 0.9894243 -0.07796176
vn 0.122318 0.9894243 -0.07796176
vn 0.1116103 0.9864447 -0.1202917
vn -0.05679568 0.9886861 0.1388306
vn -0.05679569 0.9886861 0.1388306
vn -0.05679569 0.9886862 0.1388306
vn -0.05740192 0.9885268 0.1397135
vn 0.1877614 0.9778678 0.09230474
vn 0.1877614 0.9778678 0.09230473
vn 0.1877614 0.9778678 0.09230474
vn -0.1223387 0.9769083 -0.1751672
vn -0.1223387 0.9769083 -0.1751672
vn -0.1223387 0.9769083 -0.1751672
vn 0.005512527 0.9935141 -0.1135749
vn 0.005512527 0.9935141 -0.1135749
vn 0.005512527 0.9935141 -0.1135749
vn 0.03854758 0.9985088 -0.03865752
vn 0.03854757 0.9985088 -0.03865752
vn 0.03854757 0.9985088 -0.03865752
vn 0.03763137 0.9983254 -0.04393458
vn 0.1052816 0.9943704 0.01197357
vn 0.1052816 0.9943704 0.01197357
vn 0.1052816 0.9943704 0.01197357
vn 0.04964764 0.9771671 -0.2065903
vn 0.04964764 0.9771671 -0.2065903
vn 0.04964764 0.9771671 -0.2065903
vn -0.2471967 0.9583325 -0.1431528
vn -0.2471967 0.9583325 -0.1431528
vn -0.2471967 0.9583325 -0.1431528
vn -0.07002428 0.9716507 -0.2258132
vn -0.07002427 0.9716507 -0.2258132
vn -0.07002427 0.9716507 -0.2258132
vn 0.101983 0.9946054 -0.01896313
vn 0.101983 0.9946054 -0.01896313
vn 0.101983 0.9946054 -0.01896313
vn 0.02055792 0.9950222 0.09750955
vn 0.02055792 0.9950222 0.09750955
vn 0.02055792 0.9950222 0.09750954
vn -0.2065036 0.9765388 0.06105832
vn -0.2065036 0.9765388 0.06105831
vn -0.2065036 0.9765388 0.06105831
vn 0.1481418 0.9826517 -0.1115785
vn 0.1481418 0.9826517 -0.1115785
vn 0.1481418 0.9826517 -0.1115785
vn 0.1382051 0.9898115 -0.03424105
vn 0.1382051 0.9898115 -0.03424105
vn 0.1382051 0.9898115 -0.03424105
vn -0.0670943 0.9953269 -0.06944598
vn -0.0670943 0.9953269 -0.06944597
vn -0.0670943 0.9953269 -0.06944597
vn -0.005445526 0.9958508 -0.09083844
vn -0.005445526 0.9958508 -0.09083843
vn -0.005445526 0.9958508 -0.09083844
vn 0.05582929 0.9984367 0.002674222
vn 0.05582928 0.9984367 0.002674222
vn 0.05582928 0.9984367 0.002674222
vn -0.05052234 0.9987143 -0.004140716
vn -0.05052234 0.9987143 -0.004140716
vn -0.05052233 0.9987143 -0.004140716
vn -0.04254046 0.9984723 -0.03526019
vn -0.04254045 0.9984723 -0.03526018
vn -0.04254046 0.9984723 -0.03526019
vn -0.02276732 0.9990128 -0.03814385
vn -0.02276732 0.9990128 -0.03814385
vn -0.02276733 0.9990128 -0.03814385
vn 0.02522649 0.9995348 -0.01713553
vn 0.02522649 0.9995348 -0.01713553
vn 0.02522648 0.9995348 -0.01713553
vn 0.01199535 0.9998204 -0.01467125
vn 0.01199535 0.9998204 -0.01467125
vn 0.01199535 0.9998204 -0.01467125
vn -0.01046089 0.9959676 -0.08910136
vn -0.01046089 0.9959676 -0.08910136
vn -0.01046089 0.9959676 -0.08910136
vn 0.1587966 0.9869903 0.0251758
vn 0.1587967 0.9869903 0.02517581
vn 0.1587966 0.9869903 0.0251758
vn 0.2100207 0.9776937 -0.00251554
vn 0.2100207 0.9776937 -0.00251554
vn 0.2100207 0.9776937 -0.00251554
vn -0.04223874 0.9989433 0.01811546
vn -0.04223873 0.9989433 0.01811546
vn -0.04223873 0.9989433 0.01811546
vn 0.006160024 0.9995131 0.03058673
vn 0.006160023 0.9995131 0.03058674
vn 0.006160023 0.9995131 0.03058673
g hexArctic04_ice_0
f 3/3/3 2/2/2 1/1/1
f 6/6/6 5/5/5 4/4/4
f 6/6/6 7/7/7 5/5/5
f 4/4/4 5/5/5 8/8/8
f 10/10/10 6/6/6 9/9/9
f 9/9/9 11/11/11 10/10/10
f 10/10/10 13/13/13 12/12/12
f 15/15/15 14/14/14 11/11/11
f 17/17/17 16/16/16 11/11/11
f 18/18/18 11/11/11 16/16/16
f 16/16/16 19/19/19 18/18/18
f 17/17/17 21/21/21 20/20/20
f 22/22/22 20/20/20 21/21/21
f 23/23/23 20/20/20 22/22/22
f 26/26/26 25/25/25 24/24/24
f 29/29/29 28/28/28 27/27/27
f 32/32/32 31/31/31 30/30/30
f 30/30/30 31/31/31 33/33/33
f 34/34/34 33/33/33 31/31/31
f 37/37/37 36/36/36 35/35/35
f 40/40/40 39/39/39 38/38/38
f 43/43/43 42/42/42 41/41/41
f 43/43/43 44/44/44 42/42/42
f 45/45/45 42/42/42 44/44/44
f 45/45/45 46/46/46 42/42/42
f 45/45/45 47/47/47 46/46/46
f 45/45/45 48/48/48 47/47/47
f 49/49/49 44/44/44 43/43/43
f 49/49/49 50/50/50 44/44/44
f 52/52/52 44/44/44 51/51/51
f 52/52/52 51/51/51 53/53/53
f 53/53/53 51/51/51 54/54/54
f 56/56/56 55/55/55 50/50/50
f 58/58/58 53/53/53 57/57/57
f 57/57/57 59/59/59 58/58/58
f 60/60/60 58/58/58 59/59/59
f 62/62/62 61/61/61 58/58/58
f 65/65/65 64/64/64 63/63/63
f 68/68/68 67/67/67 66/66/66
f 71/71/71 70/70/70 69/69/69
f 74/74/74 73/73/73 72/72/72
f 77/77/77 76/76/76 75/75/75
f 77/77/77 78/78/78 76/76/76
f 79/79/79 76/76/76 78/78/78
f 80/80/80 77/77/77 75/75/75
f 83/83/83 82/82/82 81/81/81
f 83/83/83 84/84/84 82/82/82
f 85/85/85 83/83/83 81/81/81
f 86/86/86 82/82/82 84/84/84
f 89/89/89 88/88/88 87/87/87
f 92/92/92 91/91/91 90/90/90
f 95/95/95 94/94/94 93/93/93
f 98/98/98 97/97/97 96/96/96
f 101/101/101 100/100/100 99/99/99
f 104/104/104 103/103/103 102/102/102
f 107/107/107 106/106/106 105/105/105
f 110/110/110 109/109/109 108/108/108
f 113/113/113 112/112/112 111/111/111
f 114/114/114 112/112/112 113/113/113
f 117/117/117 116/116/116 115/115/115
f 118/118/118 115/115/115 116/116/116
f 121/121/121 120/120/120 119/119/119
f 124/124/124 123/123/123 122/122/122
f 127/127/127 126/126/126 125/125/125
f 130/130/130 129/129/129 128/128/128
f 129/129/129 131/131/131 128/128/128
f 134/134/134 133/133/133 132/132/132
f 137/137/137 136/136/136 135/135/135
f 140/140/140 139/139/139 138/138/138
f 143/143/143 142/142/142 141/141/141
f 146/146/146 145/145/145 144/144/144
f 149/149/149 148/148/148 147/147/147
f 152/152/152 151/151/151 150/150/150
f 155/155/155 154/154/154 153/153/153
f 158/158/158 157/157/157 156/156/156
f 161/161/161 160/160/160 159/159/159
f 164/164/164 163/163/163 162/162/162
f 167/167/167 166/166/166 165/165/165
f 170/170/170 169/169/169 168/168/168
f 173/173/173 172/172/172 171/171/171
f 176/176/176 175/175/175 174/174/174
f 179/179/179 178/178/178 177/177/177
f 182/182/182 181/181/181 180/180/180
f 185/185/185 184/184/184 183/183/183
f 188/188/188 187/187/187 186/186/186
f 191/191/191 190/190/190 189/189/189
f 194/194/194 193/193/193 192/192/192
f 197/197/197 196/196/196 195/195/195
