g hexGenCloud03
v -0.7678902 0.3979077 2.447041
v 0.8486481 0.3979077 2.543805
v 0.04037905 -0.08022332 1.985986
v 1.622765 -0.1485276 1.985986
v 2.174892 0.3979077 2.105519
v 0.8486481 0.3979077 2.543805
v 1.508924 0.7792742 1.80384
v 2.174892 0.3979077 2.105519
v 2.897781 0.7621982 1.234637
v 2.949009 -0.08591533 1.268789
v 2.174892 0.3979077 2.105519
v 1.508924 0.7792742 1.80384
v 2.897781 0.7621982 1.234637
v -0.4092917 1.086644 2.247819
v 0.359133 1.365554 1.428166
v 2.174892 0.3979077 2.105519
v 2.949009 -0.08591533 1.268789
v 1.622765 -0.1485276 1.985986
v -2.207975 -0.1257596 0.2043786
v -2.492577 0.3979077 0.1474581
v -1.820917 -0.04607105 1.462319
v -0.7678902 0.3979077 2.447041
v -1.889221 0.7052777 1.462319
v -0.4092917 1.086644 2.247819
v 2.36273 0.3979077 -2.681484
v 0.2225242 0.3979077 -2.988853
v 1.452004 -0.05176306 -2.260273
v -1.308634 0.3979077 -1.679685
v 0.2225242 0.3979077 -2.988853
v -0.6142051 0.8020422 -1.639841
v -2.207975 -0.1257596 0.2043786
v -2.139671 -0.06314707 -0.8600321
v -2.492577 0.3979077 0.1474581
v -1.308634 0.3979077 -1.679685
v -2.139671 -0.06314707 -0.8600321
v -0.6540494 -0.1143756 -1.736606
v -2.139671 0.8475788 0.2157626
v -2.236435 0.7963502 -0.9112606
v -1.331402 1.115104 -0.2965207
v -1.320018 1.177716 0.9841874
v 2.749788 0.7849662 -0.1826799
v 2.926241 0.7565062 -1.611381
v 3.279147 0.3979077 -0.1769879
v 2.36273 0.3979077 -2.681484
v 2.926241 0.7565062 -1.611381
v 1.526 0.9671113 -2.431034
v 2.36273 0.3979077 -2.681484
v 1.452004 -0.05176306 -2.260273
v 3.040082 -0.1029913 -1.679685
v 2.749788 0.7849662 -0.1826799
v 1.987055 1.052492 0.6768174
v 2.049668 1.149256 -0.9624889
v 2.926241 0.7565062 -1.611381
v 1.987055 1.052492 0.6768174
v 0.359133 1.365554 1.428166
v 0.4046693 1.092336 0.1474581
v 0.4046693 1.092336 0.1474581
v 0.5298941 1.172024 -1.047869
v 2.049668 1.149256 -0.9624889
v 1.987055 1.052492 0.6768174
v -1.331402 1.115104 -0.2965207
v 0.4046693 1.092336 0.1474581
v 0.359133 1.365554 1.428166
v -1.320018 1.177716 0.9841874
v -1.331402 1.115104 -0.2965207
v 0.4046693 1.092336 0.1474581
v -1.320018 1.177716 0.9841874
v 2.049668 1.149256 -0.9624889
v 0.5298941 1.172024 -1.047869
v 1.526 0.9671113 -2.431034
v 2.926241 0.7565062 -1.611381
v 2.049668 1.149256 -0.9624889
v 1.526 0.9671113 -2.431034
v 2.926241 0.7565062 -1.611381
v 2.36273 0.3979077 -2.681484
v 3.040082 -0.1029913 -1.679685
v 3.040082 -0.1029913 -1.679685
v 2.931933 -0.1485276 -0.1712959
v 3.279147 0.3979077 -0.1769879
v 2.949009 -0.08591533 1.268789
v 2.926241 0.7565062 -1.611381
v 3.040082 -0.1029913 -1.679685
v 3.279147 0.3979077 -0.1769879
v -2.236435 0.7963502 -0.9112606
v -1.308634 0.3979077 -1.679685
v -0.6142051 0.8020422 -1.639841
v -0.6142051 0.8020422 -1.639841
v 0.5298941 1.172024 -1.047869
v -1.331402 1.115104 -0.2965207
v -2.236435 0.7963502 -0.9112606
v 1.526 0.9671113 -2.431034
v -2.139671 -0.06314707 -0.8600321
v -1.308634 0.3979077 -1.679685
v -2.236435 0.7963502 -0.9112606
v -2.236435 0.7963502 -0.9112606
v -2.139671 0.8475788 0.2157626
v -2.492577 0.3979077 0.1474581
v -2.139671 -0.06314707 -0.8600321
v -2.236435 0.7963502 -0.9112606
v -2.492577 0.3979077 0.1474581
v 0.2225242 0.3979077 -2.988853
v 2.36273 0.3979077 -2.681484
v 1.526 0.9671113 -2.431034
v 0.2225242 0.3979077 -2.988853
v 1.526 0.9671113 -2.431034
v -0.6142051 0.8020422 -1.639841
v 0.2225242 0.3979077 -2.988853
v -1.308634 0.3979077 -1.679685
v -0.6540494 -0.1143756 -1.736606
v 0.2225242 0.3979077 -2.988853
v -0.6540494 -0.1143756 -1.736606
v 1.452004 -0.05176306 -2.260273
v -1.889221 0.7052777 1.462319
v -2.139671 0.8475788 0.2157626
v -1.320018 1.177716 0.9841874
v -1.320018 1.177716 0.9841874
v 0.359133 1.365554 1.428166
v -0.4092917 1.086644 2.247819
v -1.889221 0.7052777 1.462319
v -1.320018 1.177716 0.9841874
v -0.4092917 1.086644 2.247819
v -1.820917 -0.04607105 1.462319
v -0.7678902 0.3979077 2.447041
v 0.04037905 -0.08022332 1.985986
v -2.492577 0.3979077 0.1474581
v -2.139671 0.8475788 0.2157626
v -1.889221 0.7052777 1.462319
v -1.889221 0.7052777 1.462319
v -0.7678902 0.3979077 2.447041
v -1.820917 -0.04607105 1.462319
v -2.492577 0.3979077 0.1474581
v -1.889221 0.7052777 1.462319
v -1.820917 -0.04607105 1.462319
v 1.508924 0.7792742 1.80384
v 0.359133 1.365554 1.428166
v 1.987055 1.052492 0.6768174
v 1.987055 1.052492 0.6768174
v 2.749788 0.7849662 -0.1826799
v 2.897781 0.7621982 1.234637
v 1.508924 0.7792742 1.80384
v 1.987055 1.052492 0.6768174
v 2.897781 0.7621982 1.234637
v 2.897781 0.7621982 1.234637
v 2.749788 0.7849662 -0.1826799
v 3.279147 0.3979077 -0.1769879
v 2.897781 0.7621982 1.234637
v 3.279147 0.3979077 -0.1769879
v 2.949009 -0.08591533 1.268789
v 0.8486481 0.3979077 2.543805
v -0.7678902 0.3979077 2.447041
v -0.4092917 1.086644 2.247819
v 0.8486481 0.3979077 2.543805
v -0.4092917 1.086644 2.247819
v 1.508924 0.7792742 1.80384
v 0.8486481 0.3979077 2.543805
v 2.174892 0.3979077 2.105519
v 1.622765 -0.1485276 1.985986
vt 0.06257829 0.3613432
vt 0.04725701 0.3613432
vt 0.1353544 0.05108733
vt 0.1353544 0.00895381
vt 0.1162028 0.3613432
vt 0.04725701 0.3613432
vt 0.1659969 0.610314
vt 0.1162028 0.3613432
vt 0.2540943 0.5988231
vt 0.2464336 0.04725701
vt 0.1162028 0.3613432
vt 0.1659969 0.610314
vt 0.2540943 0.5988231
vt 0.09322084 0.8094907
vt 0.2234517 0.9856854
vt 0.1162028 0.3613432
vt 0.2464336 0.04725701
vt 0.1353544 0.00895381
vt 0.4149677 0.02427509
vt 0.4226284 0.3613432
vt 0.2157911 0.07406925
vt 0.06257829 0.3613432
vt 0.2196214 0.5605199
vt 0.09322084 0.8094907
vt 0.8631151 0.3613432
vt 0.9129093 0.3613432
vt 0.7979997 0.07023893
vt 0.7099023 0.3613432
vt 0.9129093 0.3613432
vt 0.7022417 0.621805
vt 0.4149677 0.02427509
vt 0.5796715 0.0664086
vt 0.4226284 0.3613432
vt 0.7099023 0.3613432
vt 0.5796715 0.0664086
vt 0.717563 0.03193573
vt 0.4111374 0.6486172
vt 0.5873321 0.6179747
vt 0.4915741 0.8248119
vt 0.2923975 0.8669454
vt 0.4724225 0.610314
vt 0.6984114 0.5949928
vt 0.4724225 0.3613432
vt 0.8631151 0.3613432
vt 0.6984114 0.5949928
vt 0.8248119 0.729054
vt 0.8631151 0.3613432
vt 0.7979997 0.07023893
vt 0.7099023 0.03959637
vt 0.4724225 0.610314
vt 0.3421916 0.7865087
vt 0.5949928 0.8477939
vt 0.6984114 0.5949928
vt 0.3421916 0.7865087
vt 0.2234517 0.9856854
vt 0.4226284 0.8094907
vt 0.4226284 0.8094907
vt 0.610314 0.8631151
vt 0.5949928 0.8477939
vt 0.3421916 0.7865087
vt 0.4915741 0.8248119
vt 0.4226284 0.8094907
vt 0.2234517 0.9856854
vt 0.2923975 0.8669454
vt 0.4915741 0.8248119
vt 0.4226284 0.8094907
vt 0.2923975 0.8669454
vt 0.5949928 0.8477939
vt 0.610314 0.8631151
vt 0.8248119 0.729054
vt 0.6984114 0.5949928
vt 0.5949928 0.8477939
vt 0.8248119 0.729054
vt 0.6984114 0.5949928
vt 0.8631151 0.3613432
vt 0.7099023 0.03959637
vt 0.7099023 0.03959637
vt 0.4724225 0.00895381
vt 0.4724225 0.3613432
vt 0.2464336 0.04725701
vt 0.6984114 0.5949928
vt 0.7099023 0.03959637
vt 0.4724225 0.3613432
vt 0.5873321 0.6179747
vt 0.7099023 0.3613432
vt 0.7022417 0.621805
vt 0.7022417 0.621805
vt 0.610314 0.8631151
vt 0.4915741 0.8248119
vt 0.5873321 0.6179747
vt 0.8248119 0.729054
vt 0.5796715 0.0664086
vt 0.7099023 0.3613432
vt 0.5873321 0.6179747
vt 0.5873321 0.6179747
vt 0.4111374 0.6486172
vt 0.4226284 0.3613432
vt 0.5796715 0.0664086
vt 0.5873321 0.6179747
vt 0.4226284 0.3613432
vt 0.9129093 0.3613432
vt 0.8631151 0.3613432
vt 0.8248119 0.729054
vt 0.9129093 0.3613432
vt 0.8248119 0.729054
vt 0.7022417 0.621805
vt 0.9129093 0.3613432
vt 0.7099023 0.3613432
vt 0.717563 0.03193573
vt 0.9129093 0.3613432
vt 0.717563 0.03193573
vt 0.7979997 0.07023893
vt 0.2196214 0.5605199
vt 0.4111374 0.6486172
vt 0.2923975 0.8669454
vt 0.2923975 0.8669454
vt 0.2234517 0.9856854
vt 0.09322084 0.8094907
vt 0.2196214 0.5605199
vt 0.2923975 0.8669454
vt 0.09322084 0.8094907
vt 0.2157911 0.07406925
vt 0.06257829 0.3613432
vt 0.1353544 0.05108733
vt 0.4226284 0.3613432
vt 0.4111374 0.6486172
vt 0.2196214 0.5605199
vt 0.2196214 0.5605199
vt 0.06257829 0.3613432
vt 0.2157911 0.07406925
vt 0.4226284 0.3613432
vt 0.2196214 0.5605199
vt 0.2157911 0.07406925
vt 0.1659969 0.610314
vt 0.2234517 0.9856854
vt 0.3421916 0.7865087
vt 0.3421916 0.7865087
vt 0.4724225 0.610314
vt 0.2540943 0.5988231
vt 0.1659969 0.610314
vt 0.3421916 0.7865087
vt 0.2540943 0.5988231
vt 0.2540943 0.5988231
vt 0.4724225 0.610314
vt 0.4724225 0.3613432
vt 0.2540943 0.5988231
vt 0.4724225 0.3613432
vt 0.2464336 0.04725701
vt 0.04725701 0.3613432
vt 0.06257829 0.3613432
vt 0.09322084 0.8094907
vt 0.04725701 0.3613432
vt 0.09322084 0.8094907
vt 0.1659969 0.610314
vt 0.04725701 0.3613432
vt 0.1162028 0.3613432
vt 0.1353544 0.00895381
vn -0.03050786 -0.7188871 0.6944571
vn -0.03050786 -0.7188871 0.6944571
vn -0.03050786 -0.7188871 0.6944571
vn -0.03050786 -0.7188871 0.6944571
vn 0.1880656 0.7799028 0.5969781
vn 0.1880656 0.7799028 0.5969781
vn 0.1880656 0.7799028 0.5969781
vn 0.7501119 0.06173265 0.6584233
vn 0.7501119 0.06173265 0.6584233
vn 0.7501119 0.06173265 0.6584233
vn 0.2192904 0.8111275 0.5422028
vn 0.2192904 0.8111275 0.5422028
vn 0.2192904 0.8111275 0.5422028
vn 0.2505152 0.8111275 0.5285019
vn 0.2505152 0.8111275 0.5285019
vn 0.4066392 -0.5627631 0.7196821
vn 0.4066392 -0.5627631 0.7196821
vn 0.4066392 -0.5627631 0.7196821
vn -0.8423524 -0.437864 0.3141935
vn -0.8423524 -0.437864 0.3141935
vn -0.8423524 -0.437864 0.3141935
vn -0.4988797 0.4676549 0.7296697
vn -0.4988797 0.4676549 0.7296697
vn -0.4988797 0.4676549 0.7296697
vn 0.09439129 -0.7813367 -0.6169305
vn 0.09439129 -0.7813367 -0.6169305
vn 0.09439129 -0.7813367 -0.6169305
vn -0.4052054 0.7799028 -0.4770327
vn -0.4052054 0.7799028 -0.4770327
vn -0.4052054 0.7799028 -0.4770327
vn -0.8735771 -0.4690888 -0.1296871
vn -0.8735771 -0.4690888 -0.1296871
vn -0.8735771 -0.4690888 -0.1296871
vn -0.4676549 -0.5003135 -0.7286873
vn -0.4676549 -0.5003135 -0.7286873
vn -0.4676549 -0.5003135 -0.7286873
vn -0.3115309 0.9360267 -0.1637148
vn -0.3115309 0.9360267 -0.1637148
vn -0.3115309 0.9360267 -0.1637148
vn -0.3427558 0.9360267 -0.07982801
vn 0.5908209 0.8068027 0
vn 0.5908209 0.8068027 0
vn 0.5908209 0.8068027 0
vn 0.4066392 0.7799028 -0.4758111
vn 0.4066392 0.7799028 -0.4758111
vn 0.4066392 0.7799028 -0.4758111
vn 0.1568409 -0.8437862 -0.5132501
vn 0.1568409 -0.8437862 -0.5132501
vn 0.1568409 -0.8437862 -0.5132501
vn 0.4066392 0.904802 0.1264043
vn 0.4066392 0.904802 0.1264043
vn 0.4066392 0.904802 0.1264043
vn 0.4356066 0.9001372 0
vn 0.09439129 0.9672515 -0.2356157
vn 0.09439129 0.9672515 -0.2356157
vn 0.09439129 0.9672515 -0.2356157
vn 0.0007169247 0.9984763 0.05517794
vn 0.0007169247 0.9984763 0.05517794
vn 0.0007169247 0.9984763 0.05517794
vn 0.0007169247 0.9984763 0.05517794
vn 0.0007169247 0.9984763 0.05517794
vn -0.06173265 0.9672515 -0.2461981
vn -0.06173265 0.9672515 -0.2461981
vn -0.06173265 0.9672515 -0.2461981
vn 0.03194171 0.9984763 -0.04499876
vn 0.03194171 0.9984763 -0.04499876
vn 0.03194171 0.9984763 -0.04499876
vn 0.03194171 0.9984763 -0.04499876
vn 0.03194171 0.9984763 -0.04499876
vn 0.03194171 0.9984763 -0.04499876
vn 0.2505152 0.9360267 -0.2471764
vn 0.2505152 0.9360267 -0.2471764
vn 0.2505152 0.9360267 -0.2471764
vn 0.8437862 0.1554071 -0.5136861
vn 0.8437862 0.1554071 -0.5136861
vn 0.8437862 0.1554071 -0.5136861
vn 0.8437862 -0.5315384 0.07410623
vn 0.8437862 -0.5315384 0.07410623
vn 0.8437862 -0.5315384 0.07410623
vn 0.8437862 -0.5315384 0.07410623
vn 0.9686854 0.1554071 -0.1936421
vn 0.9686854 0.1554071 -0.1936421
vn 0.9686854 0.1554071 -0.1936421
vn -0.3115309 0.6237788 -0.7168323
vn -0.3115309 0.6237788 -0.7168323
vn -0.3115309 0.6237788 -0.7168323
vn -0.1554071 0.9360267 -0.3157573
vn -0.1554071 0.9360267 -0.3157573
vn -0.1554071 0.9360267 -0.3157573
vn -0.1241822 0.9360267 -0.3292914
vn -0.1554071 0.9360267 -0.3157573
vn -0.6550037 -0.1256161 -0.7451113
vn -0.6550037 -0.1256161 -0.7451113
vn -0.6550037 -0.1256161 -0.7451113
vn -0.7799028 0.6237788 0.05149342
vn -0.7799028 0.6237788 0.05149342
vn -0.7799028 0.6237788 0.05149342
vn -0.9672515 -0.1256161 -0.2205562
vn -0.9672515 -0.1256161 -0.2205562
vn -0.9672515 -0.1256161 -0.2205562
vn 0.1256161 0.5301045 -0.8385761
vn 0.1256161 0.5301045 -0.8385761
vn 0.1256161 0.5301045 -0.8385761
vn -0.2178566 0.904802 -0.3658851
vn -0.2178566 0.904802 -0.3658851
vn -0.2178566 0.904802 -0.3658851
vn -0.5301045 -0.5939879 -0.6051178
vn -0.5301045 -0.5939879 -0.6051178
vn -0.5301045 -0.5939879 -0.6051178
vn -0.09295738 -0.9062358 -0.4124264
vn -0.09295738 -0.9062358 -0.4124264
vn -0.09295738 -0.9062358 -0.4124264
vn -0.5301045 0.8423524 0.09711673
vn -0.5301045 0.8423524 0.09711673
vn -0.5301045 0.8423524 0.09711673
vn -0.1554071 0.9672515 0.2006815
vn -0.1554071 0.9672515 0.2006815
vn -0.1554071 0.9672515 0.2006815
vn -0.4052054 0.8423524 0.3553183
vn -0.4052054 0.8423524 0.3553183
vn -0.4052054 0.8423524 0.3553183
vn -0.1554071 -0.8125615 0.5617762
vn -0.1554071 -0.8125615 0.5617762
vn -0.1554071 -0.8125615 0.5617762
vn -0.7799028 0.5925541 0.2015719
vn -0.7799028 0.5925541 0.2015719
vn -0.7799028 0.5925541 0.2015719
vn -0.6550037 -0.0631665 0.7529809
vn -0.6550037 -0.0631665 0.7529809
vn -0.6550037 -0.0631665 0.7529809
vn -0.904802 -0.09439129 0.4152393
vn -0.904802 -0.09439129 0.4152393
vn -0.904802 -0.09439129 0.4152393
vn 0.3441896 0.8735771 0.344088
vn 0.3441896 0.8735771 0.344088
vn 0.3441896 0.8735771 0.344088
vn 0.3129648 0.9360267 -0.1609568
vn 0.3129648 0.9360267 -0.1609568
vn 0.3129648 0.9360267 -0.1609568
vn 0.1256161 0.9360267 0.3287471
vn 0.1256161 0.9360267 0.3287471
vn 0.1256161 0.9360267 0.3287471
vn 0.5908209 0.8068027 0
vn 0.5908209 0.8068027 0
vn 0.5908209 0.8068027 0
vn 0.9686854 0.06173265 0.2404947
vn 0.9686854 0.06173265 0.2404947
vn 0.9686854 0.06173265 0.2404947
vn -0.06173265 0.3115309 0.9482286
vn -0.06173265 0.3115309 0.9482286
vn -0.06173265 0.3115309 0.9482286
vn 0.2505152 0.748678 0.6137781
vn 0.2505152 0.748678 0.6137781
vn 0.2505152 0.748678 0.6137781
vn 0.28174 -0.4690888 0.8370056
vn 0.28174 -0.4690888 0.8370056
vn 0.28174 -0.4690888 0.8370056
g hexGenCloud03_0
f 3/3/3 2/2/2 1/1/1
f 3/3/3 4/4/4 2/2/2
f 7/7/7 6/6/6 5/5/5
f 10/10/10 9/9/9 8/8/8
f 13/13/13 12/12/12 11/11/11
f 12/12/12 15/15/15 14/14/14
f 18/18/18 17/17/17 16/16/16
f 21/21/21 20/20/20 19/19/19
f 24/24/24 23/23/23 22/22/22
f 27/27/27 26/26/26 25/25/25
f 30/30/30 29/29/29 28/28/28
f 33/33/33 32/32/32 31/31/31
f 36/36/36 35/35/35 34/34/34
f 39/39/39 38/38/38 37/37/37
f 40/40/40 39/39/39 37/37/37
f 43/43/43 42/42/42 41/41/41
f 46/46/46 45/45/45 44/44/44
f 49/49/49 48/48/48 47/47/47
f 52/52/52 51/51/51 50/50/50
f 52/52/52 50/50/50 53/53/53
f 56/56/56 55/55/55 54/54/54
f 59/59/59 58/58/58 57/57/57
f 59/59/59 57/57/57 60/60/60
f 57/57/57 58/58/58 61/61/61
f 64/64/64 63/63/63 62/62/62
f 67/67/67 66/66/66 65/65/65
f 70/70/70 69/69/69 68/68/68
f 73/73/73 72/72/72 71/71/71
f 76/76/76 75/75/75 74/74/74
f 79/79/79 78/78/78 77/77/77
f 80/80/80 78/78/78 79/79/79
f 83/83/83 82/82/82 81/81/81
f 86/86/86 85/85/85 84/84/84
f 89/89/89 88/88/88 87/87/87
f 89/89/89 87/87/87 90/90/90
f 87/87/87 88/88/88 91/91/91
f 94/94/94 93/93/93 92/92/92
f 97/97/97 96/96/96 95/95/95
f 100/100/100 99/99/99 98/98/98
f 103/103/103 102/102/102 101/101/101
f 106/106/106 105/105/105 104/104/104
f 109/109/109 108/108/108 107/107/107
f 112/112/112 111/111/111 110/110/110
f 115/115/115 114/114/114 113/113/113
f 118/118/118 117/117/117 116/116/116
f 121/121/121 120/120/120 119/119/119
f 124/124/124 123/123/123 122/122/122
f 127/127/127 126/126/126 125/125/125
f 130/130/130 129/129/129 128/128/128
f 133/133/133 132/132/132 131/131/131
f 136/136/136 135/135/135 134/134/134
f 139/139/139 138/138/138 137/137/137
f 142/142/142 141/141/141 140/140/140
f 145/145/145 144/144/144 143/143/143
f 148/148/148 147/147/147 146/146/146
f 151/151/151 150/150/150 149/149/149
f 154/154/154 153/153/153 152/152/152
f 157/157/157 156/156/156 155/155/155
