g hildebrantWebs
v -5.079608 4.757676 -4.536562
v -5.079608 6.480201 -4.536562
v -3.376718 6.480201 -4.795892
v -3.376718 4.757676 -4.795892
v 4.097231 5.96147 -4.62168
v 5.152896 5.96147 -4.621678
v 5.152896 4.905805 -4.621678
v 4.097231 4.905805 -4.62168
v 6.394507 6.520406 5.307671
v 6.246596 6.520406 3.923334
v 6.246596 5.128185 3.923334
v 6.394507 5.128185 5.307671
v 5.512647 2.200956 -4.683651
v 5.695849 1.058038 -4.683651
v 4.552932 0.874836 -4.683651
v 4.36973 2.017754 -4.683651
v -3.1029 -0.1878549 -4.717228
v -4.254072 0.03944031 -4.717228
v -4.026776 1.190609 -4.717228
v -2.875608 0.9633185 -4.717228
v 4.558797 0.0809787 3.714498
v 4.558893 0.7749972 3.74879
v 4.559556 0.7834335 4.719408
v 4.55946 0.08941437 4.685116
v -5.592056 1.060371 4.530747
v -4.645336 1.06395 4.548416
v -4.652404 0.2839093 5.085161
v -5.599124 0.2803296 5.067492
v -5.763454 2.463362 -0.3738739
v -5.436698 2.463362 -1.304523
v -5.436698 1.477016 -1.304524
v -5.763454 1.477016 -0.3738739
v -4.23103 0.04825683 -3.330326
v -4.870619 0.06740203 -3.148177
v -4.882165 0.6165459 -3.246436
v -4.242577 0.5974004 -3.428585
v 4.251861 2.003362 2.601992
v 4.622224 2.003362 2.438879
v 4.622224 1.42402 2.438879
v 4.251861 1.42402 2.601992
vt 0 0
vt 0 1
vt 1 1
vt 1 0
vt 0 0
vt 0 1
vt 1 1
vt 1 0
vt 0 0
vt 0 1
vt 1 1
vt 1 0
vt 0 0
vt 0 1
vt 1 1
vt 1 0
vt 0 0
vt 0 1
vt 1 1
vt 1 0
vt 0 0
vt 0 1
vt 1 1
vt 1 0
vt 0 0
vt 0 1
vt 1 1
vt 1 0
vt 0 0
vt 0 1
vt 1 1
vt 1 0
vt 0 0
vt 0 1
vt 1 1
vt 1 0
vt 0 0
vt 0 1
vt 1 1
vt 1 0
vn 0.1505521 0 0.9886021
vn 0.1505521 0 0.9886021
vn 0.1505521 0 0.9886021
vn 0.1505521 0 0.9886021
vn -1.051548E-06 0 1
vn -1.051548E-06 0 1
vn -1.051548E-06 0 1
vn -1.051548E-06 0 1
vn 0.9943403 0 -0.1062416
vn 0.9943403 0 -0.1062416
vn 0.9943403 0 -0.1062416
vn 0.9943403 0 -0.1062416
vn 0 0 1
vn 0 0 1
vn 0 0 1
vn 0 0 1
vn 0 0 1
vn 0 0 1
vn 0 0 1
vn 0 0 1
vn -0.9999998 0.0001042244 0.0006813707
vn -0.9999998 0.0001042244 0.0006813707
vn -0.9999998 0.0001042244 0.0006813707
vn -0.9999998 0.0001042244 0.0006813708
vn -0.01751484 0.5668845 0.823611
vn -0.01751484 0.5668845 0.823611
vn -0.01751485 0.5668846 0.823611
vn -0.01751485 0.5668845 0.8236111
vn 0.9435328 4.015148E-07 0.331279
vn 0.9435328 4.015149E-07 0.331279
vn 0.9435328 4.015149E-07 0.331279
vn 0.9435328 4.015149E-07 0.331279
vn 0.2745157 0.174957 0.9455321
vn 0.2745157 0.1749571 0.9455321
vn 0.2745157 0.1749571 0.9455321
vn 0.2745157 0.1749571 0.9455321
vn 0.4030565 0 0.9151751
vn 0.4030565 0 0.9151751
vn 0.4030565 0 0.9151751
vn 0.4030565 0 0.9151751
g hildebrantWebs_0
f 3/3/3 2/2/2 1/1/1
f 4/4/4 3/3/3 1/1/1
f 7/7/7 6/6/6 5/5/5
f 8/8/8 7/7/7 5/5/5
f 11/11/11 10/10/10 9/9/9
f 12/12/12 11/11/11 9/9/9
f 15/15/15 14/14/14 13/13/13
f 16/16/16 15/15/15 13/13/13
f 19/19/19 18/18/18 17/17/17
f 20/20/20 19/19/19 17/17/17
f 23/23/23 22/22/22 21/21/21
f 24/24/24 23/23/23 21/21/21
f 27/27/27 26/26/26 25/25/25
f 28/28/28 27/27/27 25/25/25
f 31/31/31 30/30/30 29/29/29
f 32/32/32 31/31/31 29/29/29
f 35/35/35 34/34/34 33/33/33
f 36/36/36 35/35/35 33/33/33
f 39/39/39 38/38/38 37/37/37
f 40/40/40 39/39/39 37/37/37
