g iceCaveBlocker
v 7.338425 -0.3515097 19.18038
v 7.338425 -0.3515097 -15.66908
v 7.338425 7.58553 -15.66908
v 7.338425 7.58553 19.18038
v 7.338425 7.58553 19.18038
v 7.338425 7.58553 -15.66908
v -7.137883 7.58553 -15.66908
v -7.137882 7.58553 19.18038
v -7.137882 7.58553 19.18038
v -7.137883 7.58553 -15.66908
v -7.137883 -0.3515097 -15.66908
v -7.137882 -0.3515097 19.18038
v -7.137882 -0.3515097 19.18038
v -7.137883 -0.3515097 -15.66908
v 7.338425 -0.3515097 -15.66908
v 7.338425 -0.3515097 19.18038
vt -1.645448 0.01136965
vt 2.645448 0.01136965
vt 2.645448 0.9886307
vt -1.645448 0.9886307
vt -1.645448 0.9886307
vt 2.645448 0.9886307
vt 2.645448 0.9886307
vt -1.645448 0.9886307
vt -1.645448 0.9886307
vt 2.645448 0.9886307
vt 2.645448 0.01136965
vt -1.645448 0.01136965
vt 0.375 0.75
vt 0.625 0.75
vt 0.625 1
vt 0.375 1
vn -1 0 0
vn -1 0 0
vn -1 0 0
vn -1 0 0
vn 0 -1 0
vn 0 -1 0
vn 0 -1 0
vn 0 -1 0
vn 1 0 0
vn 1 0 0
vn 1 0 0
vn 1 0 0
vn 0 1 0
vn 0 1 0
vn 0 1 0
vn 0 1 0
g iceCaveBlocker_0
f 3/3/3 2/2/2 1/1/1
f 4/4/4 3/3/3 1/1/1
f 7/7/7 6/6/6 5/5/5
f 8/8/8 7/7/7 5/5/5
f 11/11/11 10/10/10 9/9/9
f 12/12/12 11/11/11 9/9/9
g iceCaveBlocker_1
f 15/15/15 14/14/14 13/13/13
f 16/16/16 15/15/15 13/13/13
