g islandBG
v 70.61352 -7.996836 -30.44344
v 54.04526 -7.996836 -55.23961
v 54.04526 38.85847 -55.23961
v 70.61352 38.85847 -30.44344
v 29.24911 38.85847 -71.80788
v 29.24911 -7.996836 -71.80788
v 76.4315 -7.996836 -1.194413
v 76.4315 38.85847 -1.194413
v 75.87048 -7.996836 28.05466
v 75.87048 38.85847 28.05466
v 29.24911 -7.996836 -71.80788
v 3.872322E-05 -7.996836 -77.62591
v 3.872322E-05 38.85847 -77.62591
v 29.24911 38.85847 -71.80788
v -29.24903 38.85847 -71.80793
v -29.24903 -7.996836 -71.80793
v -54.04521 38.85847 -55.23967
v -54.04521 -7.996836 -55.23967
v -54.04521 -7.996836 -55.23967
v -70.61349 -7.996836 -30.4435
v -70.61349 38.85847 -30.4435
v -54.04521 38.85847 -55.23967
v -76.4315 38.85847 -1.194439
v -76.4315 -7.996836 -1.194439
v -75.87048 38.85847 28.05464
v -75.87048 -7.996836 28.05464
vt 0.2002822 0.01881745
vt 0.2997337 0.01881745
vt 0.2997337 0.9821224
vt 0.2002822 0.9821224
vt 0.3991852 0.9821224
vt 0.3991852 0.01881745
vt 0.1008307 0.01881745
vt 0.1008307 0.9821224
vt 0.001379132 0.01881745
vt 0.001379132 0.9821224
vt 0.3991852 0.01881745
vt 0.4986368 0.01881745
vt 0.4986368 0.9821224
vt 0.3991852 0.9821224
vt 0.5980884 0.9821224
vt 0.5980884 0.01881745
vt 0.6975399 0.9821224
vt 0.6975399 0.01881745
vt 0.6975399 0.01881745
vt 0.7969915 0.01881745
vt 0.7969915 0.9821224
vt 0.6975399 0.9821224
vt 0.8964429 0.9821224
vt 0.8964429 0.01881745
vt 0.9958946 0.9821224
vt 0.9958946 0.01881745
vn -0.9238796 0 0.3826832
vn -0.7071071 0 0.7071064
vn -0.7071071 0 0.7071064
vn -0.9238796 0 0.3826832
vn -0.3826839 0 0.9238793
vn -0.3826839 0 0.9238793
vn -0.9959864 0 0.08950493
vn -0.9959864 0 0.08950493
vn -0.9998161 0 -0.0191771
vn -0.9998161 0 -0.0191771
vn -0.3826839 0 0.9238793
vn -7.20014E-07 0 1
vn -7.20014E-07 0 1
vn -0.3826839 0 0.9238793
vn 0.3826829 0 0.9238797
vn 0.3826829 0 0.9238797
vn 0.7071066 0 0.7071069
vn 0.7071066 0 0.7071069
vn 0.7071066 0 0.7071069
vn 0.9238794 0 0.3826837
vn 0.9238794 0 0.3826837
vn 0.7071066 0 0.7071069
vn 0.9959863 0 0.08950543
vn 0.9959863 0 0.08950543
vn 0.9998161 0 -0.01917693
vn 0.9998161 0 -0.01917693
g islandBG_0
f 3/3/3 2/2/2 1/1/1
f 4/4/4 3/3/3 1/1/1
f 3/3/3 5/5/5 2/2/2
f 5/5/5 6/6/6 2/2/2
f 4/4/4 1/1/1 7/7/7
f 8/8/8 4/4/4 7/7/7
f 8/8/8 7/7/7 9/9/9
f 10/10/10 8/8/8 9/9/9
f 13/13/13 12/12/12 11/11/11
f 14/14/14 13/13/13 11/11/11
f 13/13/13 15/15/15 12/12/12
f 15/15/15 16/16/16 12/12/12
f 15/15/15 17/17/17 16/16/16
f 17/17/17 18/18/18 16/16/16
f 21/21/21 20/20/20 19/19/19
f 22/22/22 21/21/21 19/19/19
f 21/21/21 23/23/23 20/20/20
f 23/23/23 24/24/24 20/20/20
f 23/23/23 25/25/25 24/24/24
f 25/25/25 26/26/26 24/24/24
