g lavaCaveBanner03
v -0.3914736 -1.738197 0.01804847
v -0.3914736 9.628271E-07 0.01848624
v 1.193213E-07 -1.738199 0.0209487
v -0.3914736 -3.237861 0.0688137
v -0.3914736 9.628271E-07 0.01848624
v 1.193213E-07 9.628271E-07 0.04535453
v 1.193213E-07 -1.738199 0.0209487
v 0.7546892 -1.7382 0.02509635
v 0.7546892 9.628271E-07 0.02751975
v 1.006253 -1.7382 0.01921958
v 1.006253 -3.119385 0.01835853
v 0.7546892 9.628271E-07 0.02751975
v 1.006253 9.628271E-07 0.001703559
v 1.006253 -1.7382 0.01921958
v -0.3914736 -6.129513 0.04066275
v 1.193213E-07 -5.920748 0.09822714
v 1.193213E-07 -6.843077 0.08428305
v 0.5031266 -6.843079 0.1121514
v 0.2515635 -6.843079 0.07280204
v 0.4574388 -6.492879 0.02518973
v 0.5031266 -6.843079 0.1121514
v 0.3391398 -7.197689 0.04837058
v 0.2515635 -6.843079 0.07280204
v 0.3391398 -7.197689 0.04837058
v 0.1738121 -7.02482 0.05200293
v 0.2515635 -6.843079 0.07280204
v 1.193213E-07 -5.920748 0.09822714
v -0.3914736 -6.129513 0.04066275
v 1.193213E-07 -5.33346 0.01385871
v -0.3914736 -6.129513 0.04066275
v -0.3914736 -5.251895 0.04059211
v 1.193213E-07 -5.33346 0.01385871
v -0.3914736 -4.443469 0.0472251
v -0.3914736 -4.443469 0.0472251
v 1.193213E-07 -4.282215 0.07940146
v 1.193213E-07 -5.33346 0.01385871
v -0.3914736 -3.237861 0.0688137
v 0.7546892 -5.413779 0.004862739
v 0.7546892 -4.231346 0.09248389
v 1.006253 -5.251897 0.05446555
v 0.7546892 -4.231346 0.09248389
v 1.006253 -4.318895 0.01436942
v 1.006253 -5.251897 0.05446555
v 1.006253 -3.119385 0.01835853
v -0.3914736 -3.237861 0.0688137
v 1.193213E-07 -3.218197 0.07625983
v 1.193213E-07 -4.282215 0.07940146
v 1.193213E-07 -1.738199 0.0209487
v 0.7546892 -4.231346 0.09248389
v 0.7546892 -3.24318 0.1212232
v 1.006253 -3.119385 0.01835853
v 0.7546892 -3.24318 0.1212232
v 0.7546892 -1.7382 0.02509635
v 1.006253 -3.119385 0.01835853
v -0.7546907 -1.7382 0.1141402
v -0.7546907 9.628271E-07 0.1053744
v -0.3914736 -1.738197 0.01804847
v -0.3914736 9.628271E-07 0.01848624
v -0.3914736 -3.237861 0.0688137
v -0.7546907 -3.026492 0.04727774
v -0.3914736 -1.738197 0.01804847
v -0.7546907 -4.318895 0.1244994
v -0.7546907 -3.026492 0.04727774
v -0.7546907 -1.7382 0.1141402
v -0.3914736 -1.738197 0.01804847
v -0.3914736 -4.443469 0.0472251
v -0.7546907 -4.318895 0.1244994
v -0.3914736 -3.237861 0.0688137
v -0.3914736 -5.251895 0.04059211
v -0.7546907 -5.251897 0.03746177
v -0.3914736 -4.443469 0.0472251
v -0.7546907 -5.987251 0.02131095
v -0.7546907 -5.251897 0.03746177
v -0.7546907 -4.318895 0.1244994
v -0.3914736 -4.443469 0.0472251
v -0.3914736 -6.129513 0.04066275
v -0.7546907 -5.987251 0.02131095
v -0.3914736 -5.251895 0.04059211
v -0.7546907 -5.987251 0.02131095
v -0.3914736 -6.129513 0.04066275
v -0.3146947 -6.777878 0.1161648
v -0.3914736 -6.129513 0.04066275
v 1.193213E-07 -6.843077 0.08428305
v -0.3146947 -6.777878 0.1161648
v 1.193213E-07 -1.738199 0.0209487
v 1.193213E-07 9.628271E-07 0.04535453
v 0.3914732 -1.738199 0.07720236
v 0.3914732 -2.578759E-07 0.105216
v 0.3914732 -3.061635 0.02474982
v 1.193213E-07 -3.218197 0.07625983
v 1.193213E-07 -1.738199 0.0209487
v 0.3914732 -3.061635 0.02474982
v 0.3914732 -4.373256 0.05297706
v 1.193213E-07 -4.282215 0.07940146
v 1.193213E-07 -3.218197 0.07625983
v 0.3914732 -4.373256 0.05297706
v 0.3914732 -5.251895 0.03751655
v 1.193213E-07 -5.33346 0.01385871
v 0.3914732 -4.373256 0.05297706
v 1.193213E-07 -5.33346 0.01385871
v 1.193213E-07 -4.282215 0.07940146
v 0.3914732 -4.373256 0.05297706
v 0.3914732 -5.919747 0.08484702
v 1.193213E-07 -5.920748 0.09822714
v 0.3914732 -5.251895 0.03751655
v 1.193213E-07 -5.920748 0.09822714
v 1.193213E-07 -5.33346 0.01385871
v 0.3914732 -5.251895 0.03751655
v 1.193213E-07 -6.843077 0.08428305
v 1.193213E-07 -5.920748 0.09822714
v 0.3914732 -5.919747 0.08484702
v 0.2515635 -6.843079 0.07280204
v -0.7546907 -1.7382 0.1141402
v -1.006253 -1.7382 0.11109
v -0.7546907 9.628271E-07 0.1053744
v -1.006253 -1.7382 0.11109
v -1.006253 9.628271E-07 0.03834281
v -0.7546907 9.628271E-07 0.1053744
v -1.006253 -3.19402 0.03142371
v -1.006253 -1.7382 0.11109
v -0.7546907 -3.026492 0.04727774
v -1.006253 -1.7382 0.11109
v -0.7546907 -1.7382 0.1141402
v -0.7546907 -3.026492 0.04727774
v -0.7546907 -4.318895 0.1244994
v -1.006253 -4.318895 0.03670524
v -0.7546907 -3.026492 0.04727774
v -1.006253 -4.318895 0.03670524
v -1.006253 -3.19402 0.03142371
v -0.7546907 -3.026492 0.04727774
v -1.006253 -5.131442 0.004856178
v -1.006253 -4.318895 0.03670524
v -0.7546907 -5.251897 0.03746177
v -1.006253 -4.318895 0.03670524
v -0.7546907 -4.318895 0.1244994
v -0.7546907 -5.251897 0.03746177
v -1.006253 -5.987251 0.1014486
v -1.006253 -5.494131 0.09339194
v -0.7546907 -5.987251 0.02131095
v -1.006253 -5.494131 0.09339194
v -0.7546907 -5.251897 0.03746177
v -0.7546907 -5.987251 0.02131095
v -0.8618001 -6.23297 0.04019644
v -0.7546907 -5.987251 0.02131095
v -0.5031264 -6.843079 0.01842902
v -0.7546907 -5.987251 0.02131095
v -0.3146947 -6.777878 0.1161648
v -0.5031264 -6.843079 0.01842902
v 0.7546892 -1.7382 0.02509635
v 0.3914732 -1.738199 0.07720236
v 0.7546892 9.628271E-07 0.02751975
v 0.3914732 -3.061635 0.02474982
v 0.3914732 -1.738199 0.07720236
v 0.3914732 -2.578759E-07 0.105216
v 0.7546892 9.628271E-07 0.02751975
v 0.7546892 -3.24318 0.1212232
v 0.3914732 -3.061635 0.02474982
v 0.7546892 -1.7382 0.02509635
v 0.3914732 -4.373256 0.05297706
v 0.7546892 -4.231346 0.09248389
v 0.3914732 -4.373256 0.05297706
v 0.7546892 -3.24318 0.1212232
v 0.3914732 -5.251895 0.03751655
v 0.3914732 -4.373256 0.05297706
v 0.7546892 -5.413779 0.004862739
v 0.3914732 -4.373256 0.05297706
v 0.7546892 -4.231346 0.09248389
v 0.7546892 -5.413779 0.004862739
v 0.3914732 -5.919747 0.08484702
v 0.3914732 -5.251895 0.03751655
v 0.7546892 -5.987251 0.07199515
v 0.3914732 -5.251895 0.03751655
v 0.7546892 -5.413779 0.004862739
v 0.7546892 -5.987251 0.07199515
v 0.4574388 -6.492879 0.02518973
v 0.2515635 -6.843079 0.07280204
v 0.3914732 -5.919747 0.08484702
v 0.1738121 -7.02482 0.05200293
v 1.193213E-07 -6.843077 0.08428305
v 0.2515635 -6.843079 0.07280204
v -0.3146947 -6.777878 0.1161648
v 1.193213E-07 -6.843077 0.08428305
v -0.1047893 -7.186162 0.04943229
v -0.5031264 -6.843079 0.01842902
v -0.3146947 -6.777878 0.1161648
v -0.2001259 -7.498296 0.00974845
v -0.3146947 -6.777878 0.1161648
v -0.1047893 -7.186162 0.04943229
v -0.2001259 -7.498296 0.00974845
v -1.006253 -5.987251 0.1014486
v -0.7546907 -5.987251 0.02131095
v -0.8618001 -6.23297 0.04019644
v 1.006253 -5.987251 0.08406455
v 0.7546892 -5.987251 0.07199515
v 1.006253 -5.52213 0.09027823
v 0.6593053 -6.577417 0.06497855
v 0.7546892 -5.987251 0.07199515
v 0.7546892 -5.413779 0.004862739
v 1.006253 -5.52213 0.09027823
v 0.6593053 -6.577417 0.06497855
v 0.4574388 -6.492879 0.02518973
v 0.7546892 -5.987251 0.07199515
v 0.3914732 -5.919747 0.08484702
v 0.7546892 -5.987251 0.07199515
v 0.4574388 -6.492879 0.02518973
vt 0.802348 0.8923426
vt 0.802348 0.9512913
vt 0.8194109 0.8923426
vt 0.802348 0.8455015
vt 0.802348 0.9512913
vt 0.8194109 0.9512913
vt 0.8194109 0.8923426
vt 0.515916 0.8710473
vt 0.515916 0.9077052
vt 0.5212215 0.8710473
vt 0.5212215 0.8419187
vt 0.515916 0.9077052
vt 0.5212215 0.9077052
vt 0.5212215 0.8710473
vt 0.802348 0.7482417
vt 0.8194109 0.7482418
vt 0.8194109 0.7192175
vt 0.5106109 0.7633875
vt 0.5053055 0.7633875
vt 0.5096473 0.7707731
vt 0.5106109 0.7633875
vt 0.5071524 0.755909
vt 0.5053055 0.7633875
vt 0.5071524 0.755909
vt 0.5036657 0.7595547
vt 0.5053055 0.7633875
vt 0.8194109 0.7482418
vt 0.802348 0.7482417
vt 0.8194109 0.7731804
vt 0.802348 0.7482417
vt 0.802348 0.7731802
vt 0.8194109 0.7731804
vt 0.802348 0.8048218
vt 0.802348 0.8048218
vt 0.8194109 0.8048218
vt 0.8194109 0.7731804
vt 0.802348 0.8455015
vt 0.515916 0.7969449
vt 0.515916 0.8166215
vt 0.5212215 0.7969449
vt 0.515916 0.8166215
vt 0.5212215 0.8166214
vt 0.5212215 0.7969449
vt 0.5212215 0.8419187
vt 0.802348 0.8455015
vt 0.8194109 0.8455017
vt 0.8194109 0.8048218
vt 0.8194109 0.8923426
vt 0.515916 0.8166215
vt 0.515916 0.8419187
vt 0.5212215 0.8419187
vt 0.515916 0.8419187
vt 0.515916 0.8710473
vt 0.5212215 0.8419187
vt 0.7938166 0.8923426
vt 0.7938166 0.9512913
vt 0.802348 0.8923426
vt 0.802348 0.9512913
vt 0.802348 0.8455015
vt 0.7938166 0.8455015
vt 0.802348 0.8923426
vt 0.7938166 0.8048217
vt 0.7938166 0.8455015
vt 0.7938166 0.8923426
vt 0.802348 0.8923426
vt 0.802348 0.8048218
vt 0.7938166 0.8048217
vt 0.802348 0.8455015
vt 0.802348 0.7731802
vt 0.7938166 0.7731802
vt 0.802348 0.8048218
vt 0.7938166 0.7482417
vt 0.7938166 0.7731802
vt 0.7938166 0.8048217
vt 0.802348 0.8048218
vt 0.802348 0.7482417
vt 0.7938166 0.7482417
vt 0.802348 0.7731802
vt 0.7938166 0.7482417
vt 0.802348 0.7482417
vt 0.8108795 0.7192174
vt 0.802348 0.7482417
vt 0.8194109 0.7192175
vt 0.8108795 0.7192174
vt 0.8194109 0.8923426
vt 0.8194109 0.9512913
vt 0.8364738 0.8923426
vt 0.8364738 0.9512913
vt 0.8364738 0.8455015
vt 0.8194109 0.8455017
vt 0.8194109 0.8923426
vt 0.8364738 0.8455015
vt 0.8364738 0.8048218
vt 0.8194109 0.8048218
vt 0.8194109 0.8455017
vt 0.8364738 0.8048218
vt 0.8364738 0.7731802
vt 0.8194109 0.7731804
vt 0.8364738 0.8048218
vt 0.8194109 0.7731804
vt 0.8194109 0.8048218
vt 0.8364738 0.8048218
vt 0.8364738 0.7482417
vt 0.8194109 0.7482418
vt 0.8364738 0.7731802
vt 0.8194109 0.7482418
vt 0.8194109 0.7731804
vt 0.8364738 0.7731802
vt 0.8194109 0.7192175
vt 0.8194109 0.7482418
vt 0.8364738 0.7482417
vt 0.8279423 0.7192174
vt 0.4840838 0.8710473
vt 0.4787785 0.8710473
vt 0.4840838 0.9077052
vt 0.4787785 0.8710473
vt 0.4787785 0.9077052
vt 0.4840838 0.9077052
vt 0.4787785 0.8419187
vt 0.4787785 0.8710473
vt 0.4840838 0.8419187
vt 0.4787785 0.8710473
vt 0.4840838 0.8710473
vt 0.4840838 0.8419187
vt 0.4840838 0.8166215
vt 0.4787785 0.8166214
vt 0.4840838 0.8419187
vt 0.4787785 0.8166214
vt 0.4787785 0.8419187
vt 0.4840838 0.8419187
vt 0.4787785 0.7969449
vt 0.4787785 0.8166214
vt 0.4840838 0.7969449
vt 0.4787785 0.8166214
vt 0.4840838 0.8166215
vt 0.4840838 0.7969449
vt 0.4787785 0.7814366
vt 0.4787785 0.7918363
vt 0.4840838 0.7814366
vt 0.4787785 0.7918363
vt 0.4840838 0.7969449
vt 0.4840838 0.7814366
vt 0.4818251 0.7762545
vt 0.4840838 0.7814366
vt 0.4893894 0.7633875
vt 0.4840838 0.7814366
vt 0.4946947 0.7633875
vt 0.4893894 0.7633875
vt 0.8450052 0.8923426
vt 0.8364738 0.8923426
vt 0.8450052 0.9512913
vt 0.8364738 0.8455015
vt 0.8364738 0.8923426
vt 0.8364738 0.9512913
vt 0.8450052 0.9512913
vt 0.8450052 0.8455015
vt 0.8364738 0.8455015
vt 0.8450052 0.8923426
vt 0.8364738 0.8048218
vt 0.8450052 0.8048217
vt 0.8364738 0.8048218
vt 0.8450052 0.8455015
vt 0.8364738 0.7731802
vt 0.8364738 0.8048218
vt 0.8450052 0.7731802
vt 0.8364738 0.8048218
vt 0.8450052 0.8048217
vt 0.8450052 0.7731802
vt 0.8364738 0.7482417
vt 0.8364738 0.7731802
vt 0.8450052 0.7482417
vt 0.8364738 0.7731802
vt 0.8450052 0.7731802
vt 0.8450052 0.7482417
vt 0.8349243 0.7310939
vt 0.8279423 0.7192174
vt 0.8364738 0.7482417
vt 0.8253055 0.7130539
vt 0.8194109 0.7192175
vt 0.8279423 0.7192174
vt 0.8108795 0.7192174
vt 0.8194109 0.7192175
vt 0.8158572 0.7075822
vt 0.4893894 0.7633875
vt 0.4946947 0.7633875
vt 0.4957795 0.7495692
vt 0.4946947 0.7633875
vt 0.49779 0.756152
vt 0.4957795 0.7495692
vt 0.4787785 0.7814366
vt 0.4840838 0.7814366
vt 0.4818251 0.7762545
vt 0.5212215 0.7814366
vt 0.515916 0.7814366
vt 0.5212215 0.7921239
vt 0.5139046 0.7689902
vt 0.515916 0.7814366
vt 0.515916 0.7969449
vt 0.5212215 0.7921239
vt 0.5139046 0.7689902
vt 0.5096473 0.7707731
vt 0.515916 0.7814366
vt 0.8364738 0.7482417
vt 0.8450052 0.7482417
vt 0.8349243 0.7310939
vn -0.007407485 -0.0002518496 0.9999726
vn -0.007407485 -0.0002518496 0.9999726
vn -0.007407485 -0.0002518496 0.9999726
vn -0.007404447 0.03383071 0.9994001
vn -0.06846575 -0.01400655 0.9975552
vn -0.06846575 -0.01400655 0.9975552
vn -0.06846575 -0.01400655 0.9975552
vn 0.023356 -0.001393822 0.9997262
vn 0.02335599 -0.001393822 0.9997262
vn 0.023356 -0.001393822 0.9997262
vn 0.02335535 -0.0006232566 0.999727
vn 0.1020809 0.01002395 0.9947255
vn 0.1020809 0.01002395 0.9947255
vn 0.1020809 0.01002395 0.9947255
vn -0.137644 -0.01497272 0.9903685
vn -0.137644 -0.01497272 0.9903685
vn -0.137644 -0.01497272 0.9903685
vn -0.1507653 0.2196748 0.9638532
vn -0.1507653 0.2196748 0.9638532
vn -0.1507653 0.2196748 0.9638532
vn -0.1536762 -0.1056415 0.9824579
vn -0.1536762 -0.1056415 0.9824579
vn -0.1536762 -0.1056415 0.9824579
vn -0.06710112 -0.08506235 0.9941136
vn -0.06710111 -0.08506235 0.9941136
vn -0.06710111 -0.08506235 0.9941136
vn -0.21615 0.1388368 0.9664387
vn -0.21615 0.1388368 0.9664387
vn -0.21615 0.1388368 0.9664387
vn 0.06814634 8.031018E-05 0.9976754
vn 0.06814634 8.031018E-05 0.9976754
vn 0.06814633 8.031017E-05 0.9976754
vn 0.06643002 -0.008186373 0.9977575
vn -0.0563123 -0.0621282 0.9964783
vn -0.0563123 -0.0621282 0.9964783
vn -0.05631231 -0.0621282 0.9964783
vn -0.07459752 -0.01785405 0.9970539
vn -0.1474535 -0.07309172 0.9863646
vn -0.1474535 -0.07309171 0.9863646
vn -0.1474535 -0.07309172 0.9863646
vn 0.309233 0.04083154 0.9501093
vn 0.3092331 0.04083155 0.9501093
vn 0.309233 0.04083154 0.9501093
vn 0.2955368 -0.003177041 0.9553261
vn -0.01916528 0.002952061 0.9998121
vn -0.01916528 0.002952061 0.9998121
vn -0.01916528 0.002952061 0.9998121
vn -0.02087917 0.03733832 0.9990846
vn 0.3896076 -0.02677381 0.9205917
vn 0.3896076 -0.02677381 0.9205917
vn 0.3896076 -0.02677381 0.9205917
vn 0.3525191 0.05965052 0.9339015
vn 0.3525191 0.05965052 0.9339015
vn 0.3525191 0.05965052 0.9339015
vn 0.2557557 0.004875311 0.9667291
vn 0.2557557 0.004875311 0.9667291
vn 0.2557558 0.004875312 0.9667291
vn 0.2326528 -0.0002449091 0.9725598
vn -0.03953899 0.03380526 0.9986461
vn -0.03953899 0.03380525 0.9986461
vn -0.03953899 0.03380526 0.9986461
vn -0.02446966 0.05962627 0.9979208
vn 0.2554373 -0.05011081 0.9655262
vn 0.2554372 -0.05011081 0.9655262
vn 0.2554372 -0.05011081 0.9655262
vn 0.2023041 -0.01753364 0.9791657
vn 0.2023041 -0.01753365 0.9791657
vn 0.2023041 -0.01753364 0.9791657
vn -0.008618061 -0.008204226 0.9999292
vn -0.00861806 -0.008204225 0.9999292
vn -0.008618061 -0.008204225 0.9999292
vn -0.008615417 -0.02195721 0.9997217
vn 0.1771276 -0.09141564 0.9799331
vn 0.1771276 -0.09141564 0.9799331
vn 0.1771276 -0.09141564 0.9799331
vn -0.05317139 8.038147E-05 0.9985853
vn -0.05317138 8.038146E-05 0.9985853
vn -0.05317139 8.038146E-05 0.9985853
vn -0.0079879 0.1147311 0.9933645
vn -0.0079879 0.1147311 0.9933645
vn -0.0079879 0.1147311 0.9933645
vn 0.1264665 0.1295025 0.9834812
vn 0.1264665 0.1295025 0.9834812
vn 0.1264665 0.1295025 0.9834812
vn -0.1422231 -0.01389672 0.989737
vn -0.1422231 -0.01389672 0.989737
vn -0.1422231 -0.01389672 0.989737
vn -0.1511368 -0.0159293 0.9883845
vn -0.1421269 -0.03920053 0.989072
vn 0.1157683 0.03709518 0.9925834
vn 0.1157683 0.03709518 0.9925834
vn 0.1157683 0.03709518 0.9925834
vn 0.1220254 0.02135507 0.9922972
vn 0.06802807 0.00294576 0.9976791
vn 0.06802808 0.00294576 0.9976791
vn 0.06802807 0.002945759 0.9976791
vn -0.05666665 -0.01756496 0.9982387
vn -0.05666665 -0.01756496 0.9982387
vn -0.05666665 -0.01756496 0.9982387
vn 0.05282439 -0.06214007 0.9966685
vn 0.0528244 -0.06214006 0.9966685
vn 0.0528244 -0.06214007 0.9966685
vn 0.03389337 0.07065196 0.9969251
vn 0.03389337 0.07065196 0.9969251
vn 0.03389337 0.07065196 0.9969251
vn -0.08909106 0.1416323 0.9859022
vn -0.08909106 0.1416322 0.9859022
vn -0.08909106 0.1416323 0.9859022
vn 0.03419323 -0.01510778 0.9993011
vn 0.03419323 -0.01510778 0.9993011
vn 0.03419323 -0.01510778 0.9993011
vn 0.04558229 -0.01993596 0.9987617
vn -0.01212419 0.00504263 0.9999138
vn -0.01212419 0.00504263 0.9999138
vn -0.01212419 0.00504263 0.9999138
vn -0.2572662 0.04040787 0.9654953
vn -0.2572662 0.04040787 0.9654953
vn -0.2572662 0.04040787 0.9654953
vn -0.02653092 -0.05462168 0.9981546
vn -0.02653092 -0.05462168 0.9981546
vn -0.02653092 -0.05462168 0.9981546
vn -0.01210828 -0.05182653 0.9985827
vn -0.01210828 -0.05182653 0.9985827
vn -0.01210828 -0.05182654 0.9985827
vn -0.3289821 0.05632396 0.9426549
vn -0.3289822 0.05632396 0.9426549
vn -0.3289822 0.05632396 0.9426549
vn -0.06600313 0.004684911 0.9978084
vn -0.06600311 0.004684911 0.9978084
vn -0.06600312 0.00468491 0.9978084
vn -0.1466639 -0.03874294 0.9884273
vn -0.1466639 -0.03874294 0.9884273
vn -0.1466639 -0.03874294 0.9884273
vn -0.3282348 -0.08773835 0.9405127
vn -0.3282347 -0.08773834 0.9405127
vn -0.3282347 -0.08773835 0.9405127
vn 0.3034933 0.01556535 0.9527065
vn 0.3034934 0.01556535 0.9527065
vn 0.3034933 0.01556535 0.9527065
vn 0.2365143 -0.02133503 0.9713938
vn 0.2365143 -0.02133503 0.9713938
vn 0.2365143 -0.02133503 0.9713936
vn 0.1092194 0.02875796 0.9936015
vn 0.1092193 0.02875795 0.9936015
vn 0.1092194 0.02875796 0.9936015
vn -0.4217266 -0.1269862 0.8977867
vn -0.4217266 -0.1269862 0.8977867
vn -0.4217266 -0.1269862 0.8977869
vn 0.1420026 -0.00138008 0.9898654
vn 0.1420026 -0.00138008 0.9898654
vn 0.1420026 -0.00138008 0.9898654
vn 0.1418947 -0.0392018 0.9891052
vn 0.2091538 -0.01575794 0.9777558
vn 0.2091538 -0.01575794 0.9777558
vn 0.2091538 -0.01575794 0.9777558
vn -0.227114 0.06207705 0.9718878
vn -0.227114 0.06207706 0.9718878
vn -0.227114 0.06207705 0.9718876
vn -0.2469049 0.02084973 0.9688154
vn -0.09690739 -0.02893467 0.9948726
vn -0.09690738 -0.02893466 0.9948726
vn -0.0969074 -0.02893467 0.9948726
vn 0.08177137 -0.01753434 0.9964969
vn 0.08177137 -0.01753434 0.9964969
vn 0.08177138 -0.01753434 0.9964969
vn -0.07934759 -0.07366671 0.9941213
vn -0.07934759 -0.07366671 0.9941213
vn -0.07934759 -0.07366671 0.9941213
vn 0.04837815 0.07060962 0.9963302
vn 0.04837814 0.07060963 0.9963302
vn 0.04837815 0.07060964 0.9963302
vn 0.1397276 0.1151286 0.9834742
vn 0.1397276 0.1151286 0.9834742
vn 0.1397276 0.1151286 0.9834742
vn 0.3225463 -0.06119687 0.9445733
vn 0.3225463 -0.06119687 0.9445733
vn 0.3225463 -0.06119687 0.9445733
vn 0.04518485 -0.1326461 0.990133
vn 0.04518485 -0.1326461 0.990133
vn 0.04518485 -0.132646 0.990133
vn 0.07469873 -0.1233345 0.9895498
vn 0.07469874 -0.1233345 0.9895498
vn 0.07469873 -0.1233345 0.9895498
vn -0.3973457 -0.1956273 0.8965749
vn -0.3973457 -0.1956273 0.8965747
vn -0.3973457 -0.1956273 0.8965749
vn 0.04382994 -0.1391642 0.9892988
vn 0.04382994 -0.1391642 0.9892988
vn 0.04382994 -0.1391642 0.9892988
vn 0.3030018 -0.05897474 0.9511634
vn 0.3030018 -0.05897475 0.9511634
vn 0.3030018 -0.05897474 0.9511634
vn -0.04791751 -0.0133428 0.9987621
vn -0.04791751 -0.0133428 0.9987621
vn -0.04791751 -0.0133428 0.9987621
vn -0.0479226 -0.004130318 0.9988425
vn -0.2760043 0.1117525 0.9546376
vn -0.2760042 0.1117525 0.9546376
vn -0.2760043 0.1117525 0.9546376
vn -0.185939 0.01837221 0.9823895
vn -0.185939 0.01837221 0.9823895
vn -0.185939 0.01837221 0.9823895
vn 0.01630199 -0.1016605 0.9946855
vn 0.01630199 -0.1016605 0.9946855
vn 0.01630199 -0.1016605 0.9946855
g lavaCaveBanner03_0
f 3/3/3 2/2/2 1/1/1
f 3/3/3 1/1/1 4/4/4
f 7/7/7 6/6/6 5/5/5
f 10/10/10 9/9/9 8/8/8
f 11/11/11 10/10/10 8/8/8
f 14/14/14 13/13/13 12/12/12
f 17/17/17 16/16/16 15/15/15
f 20/20/20 19/19/19 18/18/18
f 23/23/23 22/22/22 21/21/21
f 26/26/26 25/25/25 24/24/24
f 29/29/29 28/28/28 27/27/27
f 32/32/32 31/31/31 30/30/30
f 32/32/32 33/33/33 31/31/31
f 36/36/36 35/35/35 34/34/34
f 35/35/35 37/37/37 34/34/34
f 40/40/40 39/39/39 38/38/38
f 43/43/43 42/42/42 41/41/41
f 44/44/44 41/41/41 42/42/42
f 47/47/47 46/46/46 45/45/45
f 48/48/48 45/45/45 46/46/46
f 51/51/51 50/50/50 49/49/49
f 54/54/54 53/53/53 52/52/52
f 57/57/57 56/56/56 55/55/55
f 57/57/57 58/58/58 56/56/56
f 61/61/61 60/60/60 59/59/59
f 59/59/59 60/60/60 62/62/62
f 65/65/65 64/64/64 63/63/63
f 68/68/68 67/67/67 66/66/66
f 71/71/71 70/70/70 69/69/69
f 69/69/69 70/70/70 72/72/72
f 75/75/75 74/74/74 73/73/73
f 78/78/78 77/77/77 76/76/76
f 81/81/81 80/80/80 79/79/79
f 84/84/84 83/83/83 82/82/82
f 87/87/87 86/86/86 85/85/85
f 87/87/87 88/88/88 86/86/86
f 89/89/89 87/87/87 85/85/85
f 92/92/92 91/91/91 90/90/90
f 93/93/93 92/92/92 90/90/90
f 96/96/96 95/95/95 94/94/94
f 99/99/99 98/98/98 97/97/97
f 102/102/102 101/101/101 100/100/100
f 105/105/105 104/104/104 103/103/103
f 108/108/108 107/107/107 106/106/106
f 111/111/111 110/110/110 109/109/109
f 111/111/111 109/109/109 112/112/112
f 115/115/115 114/114/114 113/113/113
f 118/118/118 117/117/117 116/116/116
f 121/121/121 120/120/120 119/119/119
f 124/124/124 123/123/123 122/122/122
f 127/127/127 126/126/126 125/125/125
f 130/130/130 129/129/129 128/128/128
f 133/133/133 132/132/132 131/131/131
f 136/136/136 135/135/135 134/134/134
f 139/139/139 138/138/138 137/137/137
f 142/142/142 141/141/141 140/140/140
f 145/145/145 144/144/144 143/143/143
f 148/148/148 147/147/147 146/146/146
f 151/151/151 150/150/150 149/149/149
f 149/149/149 150/150/150 152/152/152
f 155/155/155 154/154/154 153/153/153
f 158/158/158 157/157/157 156/156/156
f 156/156/156 157/157/157 159/159/159
f 162/162/162 161/161/161 160/160/160
f 165/165/165 164/164/164 163/163/163
f 168/168/168 167/167/167 166/166/166
f 171/171/171 170/170/170 169/169/169
f 174/174/174 173/173/173 172/172/172
f 177/177/177 176/176/176 175/175/175
f 180/180/180 179/179/179 178/178/178
f 183/183/183 182/182/182 181/181/181
f 186/186/186 185/185/185 184/184/184
f 189/189/189 188/188/188 187/187/187
f 192/192/192 191/191/191 190/190/190
f 195/195/195 194/194/194 193/193/193
f 194/194/194 196/196/196 193/193/193
f 199/199/199 198/198/198 197/197/197
f 202/202/202 201/201/201 200/200/200
f 205/205/205 204/204/204 203/203/203
