g lockpicksDisplay
v -0.01943896 0.6906175 -0.2234303
v 0.01643262 0.6979597 -0.1709408
v -0.1986919 0.6474124 -0.01685648
v -0.2345635 0.6400703 -0.06934603
v 0.01643262 0.6979597 -0.1709408
v 0.0239021 0.589331 -0.1608512
v -0.01829638 0.5954502 -0.132869
v -0.04870898 0.492196 -0.09764204
v 0.03055372 0.4926102 -0.1518674
v 0.05521069 -0.4813999 -0.04608991
v 0.08357251 -0.4812518 -0.06549302
v 0.01643262 0.6979597 -0.1709408
v -0.1986919 0.6474124 -0.01685648
v 0.08357251 -0.4812518 -0.06549302
v 0.06021924 -0.486032 -0.09966677
v 0.03185743 -0.4861803 -0.08026353
v 0.05521069 -0.4813999 -0.04608991
v -0.01196826 0.5819888 -0.2133404
v -0.01943896 0.6906175 -0.2234303
v -0.2345635 0.6400703 -0.06934603
v -0.05416675 0.5881079 -0.1853586
v -0.005317868 0.485268 -0.2043567
v -0.08458056 0.484854 -0.1501317
v 0.06021924 -0.486032 -0.09966677
v 0.03185743 -0.4861803 -0.08026353
v -0.2345635 0.6400703 -0.06934603
v -0.1986919 0.6474124 -0.01685648
v -0.01829638 0.5954502 -0.132869
v -0.05416675 0.5881079 -0.1853586
v -0.01196826 0.5819888 -0.2133404
v 0.0239021 0.589331 -0.1608512
v 0.01643262 0.6979597 -0.1709408
v -0.01943896 0.6906175 -0.2234303
v -0.005317868 0.485268 -0.2043567
v 0.03055372 0.4926102 -0.1518674
v 0.06021924 -0.486032 -0.09966677
v 0.08357251 -0.4812518 -0.06549302
v -0.04870898 0.492196 -0.09764204
v 0.05521069 -0.4813999 -0.04608991
v 0.03185743 -0.4861803 -0.08026353
v -0.08458056 0.484854 -0.1501317
v -0.01829638 0.5954502 -0.132869
v -0.04870898 0.492196 -0.09764204
v -0.08458056 0.484854 -0.1501317
v -0.05416675 0.5881079 -0.1853586
v -0.3236211 0.5485596 0.1111701
v -0.2787944 0.566943 0.1406846
v -0.3166728 0.4354642 0.280107
v -0.3614995 0.4170808 0.2505924
v -0.2787944 0.566943 0.1406846
v -0.2281291 0.4894352 0.1120103
v -0.248748 0.4660591 0.157885
v -0.2165398 0.3674754 0.1703719
v -0.183018 0.4204237 0.0864795
v 0.2498311 -0.3016526 -0.1307877
v 0.2650105 -0.2776761 -0.1687763
v -0.2787944 0.566943 0.1406846
v -0.3166728 0.4354642 0.280107
v 0.2650105 -0.2776761 -0.1687763
v 0.2280781 -0.2928222 -0.1930939
v 0.2128975 -0.3167987 -0.1551052
v 0.2498311 -0.3016526 -0.1307877
v -0.272957 0.4710518 0.08249591
v -0.3236211 0.5485596 0.1111701
v -0.3614995 0.4170808 0.2505924
v -0.2935747 0.4476759 0.1283705
v -0.2278459 0.4020404 0.05696496
v -0.2613664 0.3490921 0.1408574
v 0.2280781 -0.2928222 -0.1930939
v 0.2128975 -0.3167987 -0.1551052
v -0.3614995 0.4170808 0.2505924
v -0.3166728 0.4354642 0.280107
v -0.248748 0.4660591 0.157885
v -0.2935747 0.4476759 0.1283705
v -0.272957 0.4710518 0.08249591
v -0.2281291 0.4894352 0.1120103
v -0.2787944 0.566943 0.1406846
v -0.3236211 0.5485596 0.1111701
v -0.2278459 0.4020404 0.05696496
v -0.183018 0.4204237 0.0864795
v 0.2280781 -0.2928222 -0.1930939
v 0.2650105 -0.2776761 -0.1687763
v -0.2165398 0.3674754 0.1703719
v 0.2498311 -0.3016526 -0.1307877
v 0.2128975 -0.3167987 -0.1551052
v -0.2613664 0.3490921 0.1408574
v -0.248748 0.4660591 0.157885
v -0.2165398 0.3674754 0.1703719
v -0.2613664 0.3490921 0.1408574
v -0.2935747 0.4476759 0.1283705
v 0.3103999 0.5740349 -0.1953421
v 0.3548762 0.5423799 -0.21078
v 0.3614997 0.4643975 -0.03179723
v 0.3170235 0.4960527 -0.01635935
v 0.3548762 0.5423799 -0.21078
v 0.2970808 0.464942 -0.2185031
v 0.3099934 0.4570623 -0.1651441
v 0.26373 0.3724631 -0.1249625
v 0.2456209 0.3959928 -0.2253795
v -0.2729741 -0.3011318 -0.247447
v -0.278864 -0.293479 -0.280107
v 0.3548762 0.5423799 -0.21078
v 0.3614997 0.4643975 -0.03179723
v -0.278864 -0.293479 -0.280107
v -0.3051836 -0.2747462 -0.2709713
v -0.2992937 -0.2823989 -0.2383111
v -0.2729741 -0.3011318 -0.247447
v 0.2526045 0.4965972 -0.203065
v 0.3103999 0.5740349 -0.1953421
v 0.3170235 0.4960527 -0.01635935
v 0.2655171 0.4887174 -0.1497062
v 0.2011445 0.427648 -0.2099415
v 0.2192525 0.4041183 -0.1095245
v -0.3051836 -0.2747462 -0.2709713
v -0.2992937 -0.2823989 -0.2383111
v 0.3170235 0.4960527 -0.01635935
v 0.3614997 0.4643975 -0.03179723
v 0.3099934 0.4570623 -0.1651441
v 0.2655171 0.4887174 -0.1497062
v 0.2526045 0.4965972 -0.203065
v 0.2970808 0.464942 -0.2185031
v 0.3548762 0.5423799 -0.21078
v 0.3103999 0.5740349 -0.1953421
v 0.2011445 0.427648 -0.2099415
v 0.2456209 0.3959928 -0.2253795
v -0.3051836 -0.2747462 -0.2709713
v -0.278864 -0.293479 -0.280107
v 0.26373 0.3724631 -0.1249625
v -0.2729741 -0.3011318 -0.247447
v -0.2992937 -0.2823989 -0.2383111
v 0.2192525 0.4041183 -0.1095245
v 0.3099934 0.4570623 -0.1651441
v 0.26373 0.3724631 -0.1249625
v 0.2192525 0.4041183 -0.1095245
v 0.2655171 0.4887174 -0.1497062
vt 0.9322197 0.5367908
vt 0.9322197 0.5520812
vt 0.9552259 0.5520812
vt 0.9552259 0.5367908
vt 0.9322197 0.5520812
vt 0.9322197 0.5530677
vt 0.9552259 0.5530677
vt 0.9552259 0.5541941
vt 0.9322197 0.5541941
vt 0.9552259 0.5673715
vt 0.9322197 0.5673715
vt 0.9322197 0.5520812
vt 0.9552259 0.5520812
vt 0.9322197 0.5673715
vt 0.9322197 0.5826619
vt 0.9552259 0.5826619
vt 0.9552259 0.5673715
vt 0.9322197 0.5969658
vt 0.9322197 0.5979523
vt 0.9552259 0.5979523
vt 0.9552259 0.5969658
vt 0.9322197 0.5958393
vt 0.9552259 0.5958393
vt 0.9322197 0.5826619
vt 0.9552259 0.5826619
vt 0.9552259 0.5367908
vt 0.9552259 0.5520812
vt 0.9567102 0.5520812
vt 0.9567102 0.5367908
vt 0.9307355 0.5367908
vt 0.9307355 0.5520812
vt 0.9322197 0.5520812
vt 0.9322197 0.5367908
vt 0.9290406 0.5367908
vt 0.9290406 0.5520812
vt 0.9092137 0.5367908
vt 0.9092137 0.5520812
vt 0.9584051 0.5520812
vt 0.978232 0.5520812
vt 0.978232 0.5367908
vt 0.9584051 0.5367908
vt 0.9567102 0.5520812
vt 0.9584051 0.5520812
vt 0.9584051 0.5367908
vt 0.9567102 0.5367908
vt 0.9322197 0.5367908
vt 0.9322197 0.5520812
vt 0.9552259 0.5520812
vt 0.9552259 0.5367908
vt 0.9322197 0.5520812
vt 0.9322197 0.5530677
vt 0.9552259 0.5530677
vt 0.9552259 0.5541941
vt 0.9322197 0.5541941
vt 0.9552259 0.5673715
vt 0.9322197 0.5673715
vt 0.9322197 0.5520812
vt 0.9552259 0.5520812
vt 0.9322197 0.5673715
vt 0.9322197 0.5826619
vt 0.9552259 0.5826619
vt 0.9552259 0.5673715
vt 0.9322197 0.5969658
vt 0.9322197 0.5979523
vt 0.9552259 0.5979523
vt 0.9552259 0.5969658
vt 0.9322197 0.5958393
vt 0.9552259 0.5958393
vt 0.9322197 0.5826619
vt 0.9552259 0.5826619
vt 0.9552259 0.5367908
vt 0.9552259 0.5520812
vt 0.9567102 0.5520812
vt 0.9567102 0.5367908
vt 0.9307355 0.5367908
vt 0.9307355 0.5520812
vt 0.9322197 0.5520812
vt 0.9322197 0.5367908
vt 0.9290406 0.5367908
vt 0.9290406 0.5520812
vt 0.9092137 0.5367908
vt 0.9092137 0.5520812
vt 0.9584051 0.5520812
vt 0.978232 0.5520812
vt 0.978232 0.5367908
vt 0.9584051 0.5367908
vt 0.9567102 0.5520812
vt 0.9584051 0.5520812
vt 0.9584051 0.5367908
vt 0.9567102 0.5367908
vt 0.9322197 0.5367908
vt 0.9322197 0.5520812
vt 0.9552259 0.5520812
vt 0.9552259 0.5367908
vt 0.9322197 0.5520812
vt 0.9322197 0.5530677
vt 0.9552259 0.5530677
vt 0.9552259 0.5541941
vt 0.9322197 0.5541941
vt 0.9552259 0.5673715
vt 0.9322197 0.5673715
vt 0.9322197 0.5520812
vt 0.9552259 0.5520812
vt 0.9322197 0.5673715
vt 0.9322197 0.5826619
vt 0.9552259 0.5826619
vt 0.9552259 0.5673715
vt 0.9322197 0.5969658
vt 0.9322197 0.5979523
vt 0.9552259 0.5979523
vt 0.9552259 0.5969658
vt 0.9322197 0.5958393
vt 0.9552259 0.5958393
vt 0.9322197 0.5826619
vt 0.9552259 0.5826619
vt 0.9552259 0.5367908
vt 0.9552259 0.5520812
vt 0.9567102 0.5520812
vt 0.9567102 0.5367908
vt 0.9307355 0.5367908
vt 0.9307355 0.5520812
vt 0.9322197 0.5520812
vt 0.9322197 0.5367908
vt 0.9290406 0.5367908
vt 0.9290406 0.5520812
vt 0.9092137 0.5367908
vt 0.9092137 0.5520812
vt 0.9584051 0.5520812
vt 0.978232 0.5520812
vt 0.978232 0.5367908
vt 0.9584051 0.5367908
vt 0.9567102 0.5520812
vt 0.9584051 0.5520812
vt 0.9584051 0.5367908
vt 0.9567102 0.5367908
vn -0.2195058 0.975517 0.01355637
vn -0.2195058 0.975517 0.01355637
vn -0.2195058 0.975517 0.01355637
vn -0.2195058 0.975517 0.01355637
vn 0.5604978 0.1147233 0.8201712
vn 0.5604978 0.1147233 0.8201712
vn 0.5604978 0.1147233 0.8201712
vn 0.5612398 0.1033872 0.8211704
vn 0.5612398 0.1033872 0.8211704
vn 0.5612398 0.1033872 0.8211704
vn 0.5612398 0.1033872 0.8211704
vn 0.5604978 0.1147233 0.8201712
vn 0.5604978 0.1147233 0.8201712
vn 0.06830822 -0.9933881 0.0922723
vn 0.06830822 -0.9933881 0.0922723
vn 0.06830822 -0.9933881 0.0922723
vn 0.06830822 -0.9933881 0.0922723
vn -0.5604975 -0.1147243 -0.8201713
vn -0.5604975 -0.1147243 -0.8201713
vn -0.5604975 -0.1147243 -0.8201713
vn -0.5604975 -0.1147243 -0.8201713
vn -0.5596815 -0.1260452 -0.8190661
vn -0.5596815 -0.1260452 -0.8190661
vn -0.5596815 -0.1260452 -0.8190661
vn -0.5596815 -0.1260452 -0.8190661
vn -0.1328059 -0.9650888 0.2257566
vn -0.1328059 -0.9650888 0.2257566
vn -0.1328059 -0.9650888 0.2257566
vn -0.1328059 -0.9650888 0.2257566
vn 0.8253341 0.004311888 -0.5646282
vn 0.8253341 0.004311888 -0.5646282
vn 0.8253341 0.004311888 -0.5646282
vn 0.8253341 0.004311888 -0.5646282
vn 0.8259407 -0.00503237 -0.5637345
vn 0.8259407 -0.00503237 -0.5637345
vn 0.8259407 -0.00503237 -0.5637345
vn 0.8259407 -0.00503237 -0.5637345
vn -0.8204968 -0.05746285 0.5687557
vn -0.8204968 -0.05746285 0.5687557
vn -0.8204968 -0.05746285 0.5687557
vn -0.8204968 -0.05746285 0.5687557
vn -0.7834135 0.3945744 0.4801816
vn -0.7834135 0.3945744 0.4801816
vn -0.7834135 0.3945744 0.4801816
vn -0.7834135 0.3945744 0.4801816
vn -0.5814285 0.6648266 0.4689847
vn -0.5814285 0.6648266 0.4689847
vn -0.5814285 0.6648266 0.4689847
vn -0.5814285 0.6648266 0.4689847
vn 0.7901543 0.3240379 0.5202457
vn 0.7901543 0.3240379 0.5202457
vn 0.7901543 0.3240379 0.5202457
vn 0.7931495 0.3194318 0.5185338
vn 0.7931495 0.3194318 0.5185338
vn 0.7931495 0.3194318 0.5185338
vn 0.7931495 0.3194318 0.5185338
vn 0.7901543 0.3240379 0.5202457
vn 0.7901543 0.3240379 0.5202457
vn 0.5226638 -0.7995755 -0.2958068
vn 0.5226638 -0.7995755 -0.2958068
vn 0.5226638 -0.7995755 -0.2958068
vn 0.5226638 -0.7995755 -0.2958068
vn -0.7901541 -0.3240382 -0.5202458
vn -0.7901541 -0.3240382 -0.5202458
vn -0.7901541 -0.3240382 -0.5202458
vn -0.7901541 -0.3240382 -0.5202458
vn -0.7871324 -0.3286348 -0.5219404
vn -0.7871324 -0.3286348 -0.5219404
vn -0.7871324 -0.3286348 -0.5219404
vn -0.7871324 -0.3286348 -0.5219404
vn 0.3878909 -0.9215813 -0.01512134
vn 0.3878909 -0.9215813 -0.01512134
vn 0.3878909 -0.9215813 -0.01512134
vn 0.3878909 -0.9215813 -0.01512134
vn 0.3201232 0.5056452 -0.8011517
vn 0.3201232 0.5056452 -0.8011517
vn 0.3201232 0.5056452 -0.8011517
vn 0.3201232 0.5056452 -0.8011517
vn 0.3231678 0.5009665 -0.8028668
vn 0.3231678 0.5009665 -0.8028668
vn 0.3231678 0.5009665 -0.8028668
vn 0.3231678 0.5009665 -0.8028668
vn -0.2881468 -0.5527641 0.7819356
vn -0.2881468 -0.5527641 0.7819356
vn -0.2881468 -0.5527641 0.7819356
vn -0.2881468 -0.5527641 0.7819356
vn -0.5297134 -0.06595207 0.8456087
vn -0.5297134 -0.06595207 0.8456087
vn -0.5297134 -0.06595207 0.8456087
vn -0.5297134 -0.06595207 0.8456087
vn 0.6198692 0.7275301 0.2940445
vn 0.6198692 0.7275301 0.2940445
vn 0.6198692 0.7275301 0.2940445
vn 0.6198692 0.7275301 0.2940445
vn 0.7839729 -0.5579758 -0.2721204
vn 0.7839729 -0.5579758 -0.2721204
vn 0.7839729 -0.5579758 -0.2721204
vn 0.7759503 -0.5685843 -0.2731538
vn 0.7759503 -0.5685843 -0.2731538
vn 0.7759503 -0.5685843 -0.2731538
vn 0.7759503 -0.5685843 -0.2731538
vn 0.7839729 -0.5579758 -0.2721204
vn 0.7839729 -0.5579758 -0.2721204
vn -0.5962232 -0.7988569 -0.07965832
vn -0.5962232 -0.7988569 -0.07965832
vn -0.5962232 -0.7988569 -0.07965832
vn -0.5962232 -0.7988569 -0.07965832
vn -0.7839728 0.5579759 0.2721203
vn -0.7839728 0.5579759 0.2721203
vn -0.7839728 0.5579759 0.2721203
vn -0.7839728 0.5579759 0.2721203
vn -0.7918566 0.5472701 0.2710325
vn -0.7918566 0.5472701 0.2710325
vn -0.7918566 0.5472701 0.2710325
vn -0.7918566 0.5472701 0.2710325
vn -0.5058694 -0.8282721 0.2409596
vn -0.5058694 -0.8282721 0.2409596
vn -0.5058694 -0.8282721 0.2409596
vn -0.5058694 -0.8282721 0.2409596
vn -0.1729295 0.2247044 -0.9589595
vn -0.1729295 0.2247044 -0.9589595
vn -0.1729295 0.2247044 -0.9589595
vn -0.1729295 0.2247044 -0.9589595
vn -0.180986 0.2138711 -0.9599496
vn -0.180986 0.2138711 -0.9599496
vn -0.180986 0.2138711 -0.9599496
vn -0.180986 0.2138711 -0.9599496
vn 0.1321497 -0.2782905 0.9513626
vn 0.1321497 -0.2782905 0.9513626
vn 0.1321497 -0.2782905 0.9513626
vn 0.1321497 -0.2782905 0.9513626
vn 0.4350113 0.1810427 0.8820367
vn 0.4350113 0.1810427 0.8820367
vn 0.4350113 0.1810427 0.8820367
vn 0.4350113 0.1810427 0.8820367
g lockpicksDisplay_0
f 3/3/3 2/2/2 1/1/1
f 4/4/4 3/3/3 1/1/1
f 7/7/7 6/6/6 5/5/5
f 7/7/7 8/8/8 6/6/6
f 8/8/8 9/9/9 6/6/6
f 8/8/8 10/10/10 9/9/9
f 10/10/10 11/11/11 9/9/9
f 13/13/13 7/7/7 12/12/12
f 16/16/16 15/15/15 14/14/14
f 17/17/17 16/16/16 14/14/14
f 20/20/20 19/19/19 18/18/18
f 21/21/21 20/20/20 18/18/18
f 21/21/21 18/18/18 22/22/22
f 23/23/23 21/21/21 22/22/22
f 23/23/23 22/22/22 24/24/24
f 25/25/25 23/23/23 24/24/24
f 28/28/28 27/27/27 26/26/26
f 29/29/29 28/28/28 26/26/26
f 32/32/32 31/31/31 30/30/30
f 33/33/33 32/32/32 30/30/30
f 30/30/30 31/31/31 34/34/34
f 31/31/31 35/35/35 34/34/34
f 34/34/34 35/35/35 36/36/36
f 35/35/35 37/37/37 36/36/36
f 40/40/40 39/39/39 38/38/38
f 41/41/41 40/40/40 38/38/38
f 44/44/44 43/43/43 42/42/42
f 45/45/45 44/44/44 42/42/42
f 48/48/48 47/47/47 46/46/46
f 49/49/49 48/48/48 46/46/46
f 52/52/52 51/51/51 50/50/50
f 52/52/52 53/53/53 51/51/51
f 53/53/53 54/54/54 51/51/51
f 53/53/53 55/55/55 54/54/54
f 55/55/55 56/56/56 54/54/54
f 58/58/58 52/52/52 57/57/57
f 61/61/61 60/60/60 59/59/59
f 62/62/62 61/61/61 59/59/59
f 65/65/65 64/64/64 63/63/63
f 66/66/66 65/65/65 63/63/63
f 66/66/66 63/63/63 67/67/67
f 68/68/68 66/66/66 67/67/67
f 68/68/68 67/67/67 69/69/69
f 70/70/70 68/68/68 69/69/69
f 73/73/73 72/72/72 71/71/71
f 74/74/74 73/73/73 71/71/71
f 77/77/77 76/76/76 75/75/75
f 78/78/78 77/77/77 75/75/75
f 75/75/75 76/76/76 79/79/79
f 76/76/76 80/80/80 79/79/79
f 79/79/79 80/80/80 81/81/81
f 80/80/80 82/82/82 81/81/81
f 85/85/85 84/84/84 83/83/83
f 86/86/86 85/85/85 83/83/83
f 89/89/89 88/88/88 87/87/87
f 90/90/90 89/89/89 87/87/87
f 93/93/93 92/92/92 91/91/91
f 94/94/94 93/93/93 91/91/91
f 97/97/97 96/96/96 95/95/95
f 97/97/97 98/98/98 96/96/96
f 98/98/98 99/99/99 96/96/96
f 98/98/98 100/100/100 99/99/99
f 100/100/100 101/101/101 99/99/99
f 103/103/103 97/97/97 102/102/102
f 106/106/106 105/105/105 104/104/104
f 107/107/107 106/106/106 104/104/104
f 110/110/110 109/109/109 108/108/108
f 111/111/111 110/110/110 108/108/108
f 111/111/111 108/108/108 112/112/112
f 113/113/113 111/111/111 112/112/112
f 113/113/113 112/112/112 114/114/114
f 115/115/115 113/113/113 114/114/114
f 118/118/118 117/117/117 116/116/116
f 119/119/119 118/118/118 116/116/116
f 122/122/122 121/121/121 120/120/120
f 123/123/123 122/122/122 120/120/120
f 120/120/120 121/121/121 124/124/124
f 121/121/121 125/125/125 124/124/124
f 124/124/124 125/125/125 126/126/126
f 125/125/125 127/127/127 126/126/126
f 130/130/130 129/129/129 128/128/128
f 131/131/131 130/130/130 128/128/128
f 134/134/134 133/133/133 132/132/132
f 135/135/135 134/134/134 132/132/132
