g loreBookMark01
v -8.799663E-08 -0.09318149 0.2145503
v -8.799663E-08 0 0
v 0.3966225 0 0
v 0.3966225 -0.09931232 0.2145503
v -0.3966225 -0.1167401 0.2145503
v -0.3966225 0 0
v 0.3966225 -0.09931232 0.2145503
v 0.3966225 -0.2921689 0.3821246
v -8.799663E-08 -0.3187122 0.3821246
v -8.799663E-08 -0.09318149 0.2145503
v -0.3966225 -0.1167401 0.2145503
v -0.3966225 -0.3295886 0.3821246
v 0.3966225 -0.2921689 0.3821246
v 0.3966225 -0.4492261 0.6094424
v -8.799663E-08 -0.4194071 0.6094424
v -8.799663E-08 -0.3187122 0.3821246
v 0.3966225 -0.4492261 0.6094424
v 0.3738818 -0.4435943 0.9061887
v -0.019824 -0.4159797 0.8581775
v -8.799663E-08 -0.4194071 0.6094424
v 0.3738818 -0.4435943 0.9061887
v 0.3339608 -0.35842 1.233553
v -0.019824 -0.4159797 0.8581775
v -8.799663E-08 -0.4194071 0.6094424
v -0.3966225 -0.4492261 0.6094424
v -0.3966225 -0.3295886 0.3821246
v -8.799663E-08 -0.3187122 0.3821246
v -0.019824 -0.4159797 0.8581775
v -0.41353 -0.4435943 0.8101666
v -0.3966225 -0.4492261 0.6094424
v -8.799663E-08 -0.4194071 0.6094424
v -0.453451 -0.3475317 1.137531
v -0.41353 -0.4435943 0.8101666
v -0.019824 -0.4159797 0.8581775
v -0.3966225 0 0
v -0.3966225 0 -0.9601823
v -8.799663E-08 0 -0.9601823
v -8.799663E-08 0 0
v 0.3966225 0 -0.9601823
v 0.3966225 0 0
vt 0.5654505 0.08713511
vt 0.5654505 0.09799987
vt 0.5949927 0.09799987
vt 0.5949927 0.08713511
vt 0.5359085 0.08713511
vt 0.5359085 0.09799987
vt 0.5949927 0.08713511
vt 0.5949927 0.07864919
vt 0.5654505 0.07864919
vt 0.5654505 0.08713511
vt 0.5359085 0.08713511
vt 0.5359085 0.07864919
vt 0.5949927 0.07864919
vt 0.5949927 0.06713788
vt 0.5654505 0.06713788
vt 0.5654505 0.07864919
vt 0.5949927 0.06713788
vt 0.593299 0.05211072
vt 0.563974 0.054542
vt 0.5654505 0.06713788
vt 0.593299 0.05211072
vt 0.5903254 0.03553307
vt 0.563974 0.054542
vt 0.5654505 0.06713788
vt 0.5359085 0.06713788
vt 0.5359085 0.07864919
vt 0.5654505 0.07864919
vt 0.563974 0.054542
vt 0.5346491 0.05697325
vt 0.5359085 0.06713788
vt 0.5654505 0.06713788
vt 0.5316757 0.04039561
vt 0.5346491 0.05697325
vt 0.563974 0.054542
vt 0.5359085 0.09799987
vt 0.5359085 0.1466233
vt 0.5654505 0.1466233
vt 0.5654505 0.09799987
vt 0.5949927 0.1466233
vt 0.5949927 0.09799987
vn 0.007051493 0.9123768 0.4092906
vn 0.007051493 0.9123768 0.4092906
vn 0.007051493 0.9123768 0.4092906
vn 0.007051493 0.9123768 0.4092907
vn -0.02666817 0.8979499 0.4392887
vn -0.02666817 0.8979501 0.4392887
vn -0.01608595 0.6251131 0.7803684
vn -0.01608595 0.6251131 0.7803684
vn -0.01608595 0.6251132 0.7803684
vn -0.01608595 0.6251132 0.7803684
vn -0.02635653 0.6071446 0.7941541
vn -0.02635652 0.6071447 0.794154
vn 0.00359232 0.8699139 0.4931905
vn 0.00359232 0.8699139 0.4931906
vn 0.003592321 0.8699139 0.4931906
vn 0.00359232 0.8699139 0.4931906
vn 0.07313097 0.9972633 -0.01085564
vn 0.07313095 0.9972633 -0.01085565
vn 0.07313095 0.9972633 -0.01085564
vn 0.07313095 0.9972633 -0.01085565
vn 0.09696683 0.9660369 -0.239521
vn 0.09696683 0.9660369 -0.239521
vn 0.09696683 0.9660369 -0.239521
vn -0.0461175 0.898932 0.435654
vn -0.0461175 0.8989319 0.4356541
vn -0.0461175 0.8989319 0.4356541
vn -0.0461175 0.8989319 0.4356541
vn -0.07089029 0.997148 -0.02589157
vn -0.07089029 0.997148 -0.02589157
vn -0.07089029 0.997148 -0.02589157
vn -0.07089028 0.997148 -0.02589157
vn -0.03242938 0.9579607 -0.2850607
vn -0.03242938 0.9579607 -0.2850607
vn -0.03242938 0.9579607 -0.2850607
vn 0 1 0
vn 0 1 0
vn 0 1 0
vn 0 1 0
vn 0 1 0
vn 0 1 0
g loreBookMark01_0
f 3/3/3 2/2/2 1/1/1
f 4/4/4 3/3/3 1/1/1
f 1/1/1 2/2/2 5/5/5
f 2/2/2 6/6/6 5/5/5
f 9/9/9 8/8/8 7/7/7
f 10/10/10 9/9/9 7/7/7
f 10/10/10 11/11/11 9/9/9
f 11/11/11 12/12/12 9/9/9
f 15/15/15 14/14/14 13/13/13
f 16/16/16 15/15/15 13/13/13
f 19/19/19 18/18/18 17/17/17
f 20/20/20 19/19/19 17/17/17
f 23/23/23 22/22/22 21/21/21
f 26/26/26 25/25/25 24/24/24
f 27/27/27 26/26/26 24/24/24
f 30/30/30 29/29/29 28/28/28
f 31/31/31 30/30/30 28/28/28
f 34/34/34 33/33/33 32/32/32
f 37/37/37 36/36/36 35/35/35
f 38/38/38 37/37/37 35/35/35
f 39/39/39 37/37/37 38/38/38
f 40/40/40 39/39/39 38/38/38
