g mageDungeonWater
v 9.027426 -0.5065007 3.381476
v 4.362047 -0.5065007 3.381476
v 4.362047 -0.5065007 6.713867E-06
v 9.027426 -0.5065007 6.713867E-06
v 9.027426 -0.5065007 7.178542
v 4.362047 -0.5065007 7.178542
v 9.027426 -0.5065007 13.20002
v 4.362047 -0.5065007 13.20002
v 8.357729 -0.5065007 13.54459
v 5.031745 -0.5065007 13.54459
v 9.027426 -0.5065007 -3.381476
v 9.027426 -0.5065007 -6.713867E-06
v 4.362047 -0.5065007 -6.713867E-06
v 4.362047 -0.5065007 -3.381476
v 9.027426 -0.5065007 -7.178542
v 4.362047 -0.5065007 -7.178542
v 9.027426 -0.5065007 -13.20002
v 4.362047 -0.5065007 -13.20002
v 8.600183 -0.5065007 -13.54459
v 5.121482 -0.5065007 -13.54459
v 8.600183 -0.5065007 -20.49494
v 5.121482 -0.5065007 -20.49494
v -9.027426 -0.5065007 3.381476
v -9.027426 -0.5065007 6.713867E-06
v -4.362047 -0.5065007 6.713867E-06
v -4.362047 -0.5065007 3.381476
v -9.027426 -0.5065007 7.178542
v -4.362047 -0.5065007 7.178542
v -9.027426 -0.5065007 13.20002
v -4.362047 -0.5065007 13.20002
v -8.357729 -0.5065007 13.54459
v -5.031745 -0.5065007 13.54459
v -9.027426 -0.5065007 -3.381476
v -4.362047 -0.5065007 -3.381476
v -4.362047 -0.5065007 -6.713867E-06
v -9.027426 -0.5065007 -6.713867E-06
v -9.027426 -0.5065007 -7.178542
v -4.362047 -0.5065007 -7.178542
v -9.027426 -0.5065007 -13.20002
v -4.362047 -0.5065007 -13.20002
v -8.600183 -0.5065007 -13.54459
v -5.121482 -0.5065007 -13.54459
v -8.600183 -0.5065007 -20.49494
v -5.121482 -0.5065007 -20.49494
vt 1 -0.867469
vt 0 -0.867469
vt 0 -0.1930791
vt 1 -0.1930791
vt 1 -1.624744
vt 0 -1.624744
vt 1 -2.825649
vt 0 -2.825649
vt 0.8292356 -2.89437
vt 0.1659115 -2.89437
vt 1 0.4813133
vt 1 -0.1930766
vt 0 -0.1930766
vt 0 0.4813133
vt 1 1.238589
vt 0 1.238589
vt 1 2.439494
vt 0 2.439494
vt 0.8775892 2.508215
vt 0.1838076 2.508215
vt 0.8775892 3.89437
vt 0.1838076 3.89437
vt 0 -0.867469
vt 0 -0.1930791
vt 1 -0.1930791
vt 1 -0.867469
vt 0 -1.624744
vt 1 -1.624744
vt 0 -2.825649
vt 1 -2.825649
vt 0.1810682 -2.89437
vt 0.8443921 -2.89437
vt 0 0.4813133
vt 1 0.4813133
vt 1 -0.1930766
vt 0 -0.1930766
vt 0 1.238589
vt 1 1.238589
vt 0 2.439494
vt 1 2.439494
vt 0.1327139 2.508215
vt 0.8264955 2.508215
vt 0.1327139 3.89437
vt 0.8264955 3.89437
vn 0 1 0
vn 0 1 0
vn 0 1 0
vn 0 1 0
vn 0 1 0
vn 0 1 0
vn 0 1 0
vn 0 1 0
vn 0 1 0
vn 0 1 0
vn 0 1 0
vn 0 1 0
vn 0 1 0
vn 0 1 0
vn 0 1 0
vn 0 1 0
vn 0 1 0
vn 0 1 0
vn 0 1 0
vn 0 1 0
vn 0 1 0
vn 0 1 0
vn 0 1 0
vn 0 1 0
vn 0 1 0
vn 0 1 0
vn 0 1 0
vn 0 1 0
vn 0 1 0
vn 0 1 0
vn 0 1 0
vn 0 1 0
vn 0 1 0
vn 0 1 0
vn 0 1 0
vn 0 1 0
vn 0 1 0
vn 0 1 0
vn 0 1 0
vn 0 1 0
vn 0 1 0
vn 0 1 0
vn 0 1 0
vn 0 1 0
g mageDungeonWater_0
f 3/3/3 2/2/2 1/1/1
f 4/4/4 3/3/3 1/1/1
f 1/1/1 2/2/2 5/5/5
f 2/2/2 6/6/6 5/5/5
f 5/5/5 6/6/6 7/7/7
f 6/6/6 8/8/8 7/7/7
f 9/9/9 7/7/7 8/8/8
f 10/10/10 9/9/9 8/8/8
f 13/13/13 12/12/12 11/11/11
f 14/14/14 13/13/13 11/11/11
f 14/14/14 11/11/11 15/15/15
f 16/16/16 14/14/14 15/15/15
f 16/16/16 15/15/15 17/17/17
f 18/18/18 16/16/16 17/17/17
f 17/17/17 19/19/19 18/18/18
f 19/19/19 20/20/20 18/18/18
f 19/19/19 21/21/21 20/20/20
f 21/21/21 22/22/22 20/20/20
f 25/25/25 24/24/24 23/23/23
f 26/26/26 25/25/25 23/23/23
f 26/26/26 23/23/23 27/27/27
f 28/28/28 26/26/26 27/27/27
f 28/28/28 27/27/27 29/29/29
f 30/30/30 28/28/28 29/29/29
f 29/29/29 31/31/31 30/30/30
f 31/31/31 32/32/32 30/30/30
f 35/35/35 34/34/34 33/33/33
f 36/36/36 35/35/35 33/33/33
f 33/33/33 34/34/34 37/37/37
f 34/34/34 38/38/38 37/37/37
f 37/37/37 38/38/38 39/39/39
f 38/38/38 40/40/40 39/39/39
f 41/41/41 39/39/39 40/40/40
f 42/42/42 41/41/41 40/40/40
f 43/43/43 41/41/41 42/42/42
f 44/44/44 43/43/43 42/42/42
