g magicOrb
v 0.1145486 -1.191147E-10 -0.1547245
v 0.1346744 -4.131753E-05 -0.225603
v 0.1089419 -0.06734169 -0.1839248
v 0.1145474 0 -0.2963141
v 0.1346744 -4.131753E-05 -0.225603
v 0.1089407 0.06734144 -0.267114
v 0.1145474 0 -0.2963141
v 0.06732208 0.04157301 -0.3344829
v 0.06732208 -0.041573 -0.3344829
v 0.1145474 0 -0.2963141
v 0.1089407 0.06734144 -0.267114
v 0.06732208 0.04157301 -0.3344829
v 0.1145474 0 -0.2963141
v 0.06732208 -0.041573 -0.3344829
v 0.1089407 -0.06734143 -0.267114
v 3.021925E-07 -0.0708015 -0.1109601
v 8.453071E-05 4.131488E-05 -0.09084553
v 0.06732208 -0.04157316 -0.1165554
v 0.07079986 -0.1145594 -0.2255195
v 0.04162261 -0.1089257 -0.1581497
v 0.1089419 -0.06734169 -0.1839248
v 0.1145486 -1.191147E-10 -0.1547245
v 0.06732208 0.04157317 -0.1165554
v 0.1089419 0.0673417 -0.1839248
v -0.114548 0 -0.2963142
v -0.1346738 4.131516E-05 -0.2254369
v -0.1089413 -0.06734155 -0.267114
v -0.114548 0 -0.1547246
v -0.1346738 4.131516E-05 -0.2254369
v -0.1089413 0.0673416 -0.1839249
v 3.021925E-07 -0.0708015 -0.1109601
v -0.06732026 -0.0415731 -0.1165557
v 8.453071E-05 4.131488E-05 -0.09084553
v -0.114548 0 -0.1547246
v -0.06732026 -0.0415731 -0.1165557
v -0.1089413 -0.06734161 -0.1839249
v 3.021925E-07 0.0708015 -0.1109601
v -0.06732026 0.04157312 -0.1165557
v -0.04162201 0.1089257 -0.1581496
v 3.021925E-07 0.07080135 -0.3400785
v -0.06732026 0.04157305 -0.334483
v -8.270561E-05 4.13134E-05 -0.3601928
v -0.114548 0 -0.2963142
v -0.06732026 0.04157305 -0.334483
v -0.1089413 0.06734154 -0.267114
v -0.114548 0 -0.2963142
v -0.1089413 -0.06734155 -0.267114
v -0.06732026 -0.04157304 -0.334483
v 3.021925E-07 -0.0708015 -0.1109601
v 0.04162261 -0.1089257 -0.1581497
v -0.04162201 -0.1089257 -0.1581496
v 3.021925E-07 0.0708015 -0.1109601
v -0.04162201 0.1089257 -0.1581496
v 0.04162261 0.1089257 -0.1581495
v 3.021925E-07 0.07080135 -0.3400785
v 0.04162261 0.1089256 -0.2928891
v -0.04162201 0.1089256 -0.2928891
v 3.021925E-07 -0.07080135 -0.3400785
v -0.04162201 -0.1089256 -0.2928891
v 0.04162261 -0.1089256 -0.2928891
v -0.04162201 -0.1089256 -0.2928891
v -0.07079926 -0.1145593 -0.2255195
v 4.30268E-05 -0.1346754 -0.2255201
v 4.30268E-05 -0.1346754 -0.2255201
v 0.07079986 -0.1145594 -0.2255195
v 0.04162261 -0.1089256 -0.2928891
v -0.04162201 -0.1089256 -0.2928891
v 4.30268E-05 -0.1346754 -0.2255201
v 0.04162261 -0.1089256 -0.2928891
v 0.04162261 0.1089256 -0.2928891
v 0.07079986 0.1145594 -0.2255195
v 4.30268E-05 0.1346754 -0.2255201
v 4.30268E-05 0.1346754 -0.2255201
v -0.07079926 0.1145593 -0.2255195
v -0.04162201 0.1089256 -0.2928891
v 0.04162261 0.1089256 -0.2928891
v 4.30268E-05 0.1346754 -0.2255201
v -0.04162201 0.1089256 -0.2928891
v -0.04162201 0.1089257 -0.1581496
v -0.07079926 0.1145593 -0.2255195
v 4.30268E-05 0.1346754 -0.2255201
v 4.30268E-05 0.1346754 -0.2255201
v 0.07079986 0.1145594 -0.2255195
v 0.04162261 0.1089257 -0.1581495
v -0.04162201 0.1089257 -0.1581496
v 4.30268E-05 0.1346754 -0.2255201
v 0.04162261 0.1089257 -0.1581495
v 0.04162261 -0.1089257 -0.1581497
v 0.07079986 -0.1145594 -0.2255195
v 4.30268E-05 -0.1346754 -0.2255201
v 4.30268E-05 -0.1346754 -0.2255201
v -0.07079926 -0.1145593 -0.2255195
v -0.04162201 -0.1089257 -0.1581496
v 0.04162261 -0.1089257 -0.1581497
v 4.30268E-05 -0.1346754 -0.2255201
v -0.04162201 -0.1089257 -0.1581496
v -0.1089413 -0.06734155 -0.267114
v -0.07079926 -0.1145593 -0.2255195
v -0.04162201 -0.1089256 -0.2928891
v -0.04162201 -0.1089256 -0.2928891
v 3.021925E-07 -0.07080135 -0.3400785
v -0.06732026 -0.04157304 -0.334483
v -0.1089413 -0.06734155 -0.267114
v -0.04162201 -0.1089256 -0.2928891
v -0.06732026 -0.04157304 -0.334483
v -0.06732026 0.04157305 -0.334483
v 3.021925E-07 0.07080135 -0.3400785
v -0.04162201 0.1089256 -0.2928891
v -0.04162201 0.1089256 -0.2928891
v -0.07079926 0.1145593 -0.2255195
v -0.1089413 0.06734154 -0.267114
v -0.06732026 0.04157305 -0.334483
v -0.04162201 0.1089256 -0.2928891
v -0.1089413 0.06734154 -0.267114
v -0.06732026 0.04157305 -0.334483
v -0.114548 0 -0.2963142
v -0.06732026 -0.04157304 -0.334483
v -0.06732026 -0.04157304 -0.334483
v 3.021925E-07 -0.07080135 -0.3400785
v -8.270561E-05 4.13134E-05 -0.3601928
v -0.06732026 0.04157305 -0.334483
v -0.06732026 -0.04157304 -0.334483
v -8.270561E-05 4.13134E-05 -0.3601928
v -0.06732026 0.04157312 -0.1165557
v -0.114548 0 -0.1547246
v -0.1089413 0.0673416 -0.1839249
v -0.1089413 0.0673416 -0.1839249
v -0.07079926 0.1145593 -0.2255195
v -0.04162201 0.1089257 -0.1581496
v -0.06732026 0.04157312 -0.1165557
v -0.1089413 0.0673416 -0.1839249
v -0.04162201 0.1089257 -0.1581496
v -0.06732026 -0.0415731 -0.1165557
v 3.021925E-07 -0.0708015 -0.1109601
v -0.04162201 -0.1089257 -0.1581496
v -0.04162201 -0.1089257 -0.1581496
v -0.07079926 -0.1145593 -0.2255195
v -0.1089413 -0.06734161 -0.1839249
v -0.06732026 -0.0415731 -0.1165557
v -0.04162201 -0.1089257 -0.1581496
v -0.1089413 -0.06734161 -0.1839249
v -0.06732026 -0.0415731 -0.1165557
v -0.114548 0 -0.1547246
v -0.06732026 0.04157312 -0.1165557
v -0.06732026 0.04157312 -0.1165557
v 3.021925E-07 0.0708015 -0.1109601
v 8.453071E-05 4.131488E-05 -0.09084553
v -0.06732026 -0.0415731 -0.1165557
v -0.06732026 0.04157312 -0.1165557
v 8.453071E-05 4.131488E-05 -0.09084553
v -0.1346738 4.131516E-05 -0.2254369
v -0.114548 0 -0.2963142
v -0.1089413 0.06734154 -0.267114
v -0.1089413 0.06734154 -0.267114
v -0.07079926 0.1145593 -0.2255195
v -0.1089413 0.0673416 -0.1839249
v -0.1346738 4.131516E-05 -0.2254369
v -0.1089413 0.06734154 -0.267114
v -0.1089413 0.0673416 -0.1839249
v -0.1346738 4.131516E-05 -0.2254369
v -0.114548 0 -0.1547246
v -0.1089413 -0.06734161 -0.1839249
v -0.1089413 -0.06734161 -0.1839249
v -0.07079926 -0.1145593 -0.2255195
v -0.1089413 -0.06734155 -0.267114
v -0.1346738 4.131516E-05 -0.2254369
v -0.1089413 -0.06734161 -0.1839249
v -0.1089413 -0.06734155 -0.267114
v 0.06732208 0.04157317 -0.1165554
v 3.021925E-07 0.0708015 -0.1109601
v 0.04162261 0.1089257 -0.1581495
v 0.04162261 0.1089257 -0.1581495
v 0.07079986 0.1145594 -0.2255195
v 0.1089419 0.0673417 -0.1839248
v 0.06732208 0.04157317 -0.1165554
v 0.04162261 0.1089257 -0.1581495
v 0.1089419 0.0673417 -0.1839248
v 0.04162261 -0.1089257 -0.1581497
v 3.021925E-07 -0.0708015 -0.1109601
v 0.06732208 -0.04157316 -0.1165554
v 0.06732208 -0.04157316 -0.1165554
v 0.1145486 -1.191147E-10 -0.1547245
v 0.1089419 -0.06734169 -0.1839248
v 0.04162261 -0.1089257 -0.1581497
v 0.06732208 -0.04157316 -0.1165554
v 0.1089419 -0.06734169 -0.1839248
v 8.453071E-05 4.131488E-05 -0.09084553
v 3.021925E-07 0.0708015 -0.1109601
v 0.06732208 0.04157317 -0.1165554
v 0.06732208 0.04157317 -0.1165554
v 0.1145486 -1.191147E-10 -0.1547245
v 0.06732208 -0.04157316 -0.1165554
v 8.453071E-05 4.131488E-05 -0.09084553
v 0.06732208 0.04157317 -0.1165554
v 0.06732208 -0.04157316 -0.1165554
v 0.06732208 -0.041573 -0.3344829
v 3.021925E-07 -0.07080135 -0.3400785
v 0.04162261 -0.1089256 -0.2928891
v 0.04162261 -0.1089256 -0.2928891
v 0.07079986 -0.1145594 -0.2255195
v 0.1089407 -0.06734143 -0.267114
v 0.06732208 -0.041573 -0.3344829
v 0.04162261 -0.1089256 -0.2928891
v 0.1089407 -0.06734143 -0.267114
v 0.1089407 0.06734144 -0.267114
v 0.07079986 0.1145594 -0.2255195
v 0.04162261 0.1089256 -0.2928891
v 0.04162261 0.1089256 -0.2928891
v 3.021925E-07 0.07080135 -0.3400785
v 0.06732208 0.04157301 -0.3344829
v 0.1089407 0.06734144 -0.267114
v 0.04162261 0.1089256 -0.2928891
v 0.06732208 0.04157301 -0.3344829
v 0.06732208 0.04157301 -0.3344829
v 3.021925E-07 0.07080135 -0.3400785
v -8.270561E-05 4.13134E-05 -0.3601928
v -8.270561E-05 4.13134E-05 -0.3601928
v 3.021925E-07 -0.07080135 -0.3400785
v 0.06732208 -0.041573 -0.3344829
v 0.06732208 0.04157301 -0.3344829
v -8.270561E-05 4.13134E-05 -0.3601928
v 0.06732208 -0.041573 -0.3344829
v 0.1346744 -4.131753E-05 -0.225603
v 0.1145486 -1.191147E-10 -0.1547245
v 0.1089419 0.0673417 -0.1839248
v 0.1089419 0.0673417 -0.1839248
v 0.07079986 0.1145594 -0.2255195
v 0.1089407 0.06734144 -0.267114
v 0.1346744 -4.131753E-05 -0.225603
v 0.1089419 0.0673417 -0.1839248
v 0.1089407 0.06734144 -0.267114
v 0.1346744 -4.131753E-05 -0.225603
v 0.1145474 0 -0.2963141
v 0.1089407 -0.06734143 -0.267114
v 0.1089407 -0.06734143 -0.267114
v 0.07079986 -0.1145594 -0.2255195
v 0.1089419 -0.06734169 -0.1839248
v 0.1346744 -4.131753E-05 -0.225603
v 0.1089407 -0.06734143 -0.267114
v 0.1089419 -0.06734169 -0.1839248
vt 0.9817796 0.08107647
vt 0.9722044 0.08107647
vt 0.976992 0.09816119
vt 0.9626292 0.08107647
vt 0.9722044 0.08107647
vt 0.9674168 0.0639917
vt 0.9626292 0.08107647
vt 0.9578416 0.0639917
vt 0.953054 0.08107647
vt 0.9626292 0.08107647
vt 0.9674168 0.0639917
vt 0.9578416 0.0639917
vt 0.9626292 0.08107647
vt 0.953054 0.08107647
vt 0.9578416 0.09816119
vt 0.9051781 0.08107647
vt 0.9003905 0.0639917
vt 0.8956029 0.08107647
vt 0.8956029 0.1152459
vt 0.9003905 0.09816119
vt 0.8908154 0.09816119
vt 0.9817796 0.08107647
vt 0.9865672 0.0639917
vt 0.976992 0.0639917
vt 0.9339037 0.04690695
vt 0.9243284 0.04690695
vt 0.9291161 0.0639917
vt 0.9147533 0.04690695
vt 0.9243284 0.04690695
vt 0.9195409 0.0298222
vt 0.9051781 0.08107647
vt 0.9099657 0.0639917
vt 0.9003905 0.0639917
vt 0.9147533 0.04690695
vt 0.9099657 0.0639917
vt 0.9195409 0.0639917
vt 0.8956029 0.04690695
vt 0.9051781 0.04690695
vt 0.9003905 0.0298222
vt 0.953054 0.04690695
vt 0.9434788 0.04690695
vt 0.9482664 0.0639917
vt 0.9339037 0.04690695
vt 0.9434788 0.04690695
vt 0.9386913 0.0298222
vt 0.9339037 0.04690695
vt 0.9291161 0.0639917
vt 0.9386913 0.0639917
vt 0.9051781 0.08107647
vt 0.9099657 0.09816119
vt 0.9147533 0.08107647
vt 0.9913548 0.04690695
vt 0.9865672 0.0298222
vt 0.9817796 0.04690695
vt 0.953054 0.04690695
vt 0.9626292 0.04690695
vt 0.9578416 0.0298222
vt 0.9434788 0.08107647
vt 0.9339037 0.08107647
vt 0.9386913 0.09816119
vt 0.9339037 0.08107647
vt 0.9243284 0.08107647
vt 0.9291161 0.09816119
vt 0.9291161 0.09816119
vt 0.9339037 0.1152459
vt 0.9386913 0.09816119
vt 0.9339037 0.08107647
vt 0.9291161 0.09816119
vt 0.9386913 0.09816119
vt 0.9626292 0.04690695
vt 0.9722044 0.04690695
vt 0.9674168 0.0298222
vt 0.9674168 0.0298222
vt 0.9626292 0.01273748
vt 0.9578416 0.0298222
vt 0.9626292 0.04690695
vt 0.9674168 0.0298222
vt 0.9578416 0.0298222
vt 0.9865672 0.0298222
vt 0.9817796 0.01273748
vt 0.976992 0.0298222
vt 0.976992 0.0298222
vt 0.9722044 0.04690695
vt 0.9817796 0.04690695
vt 0.9865672 0.0298222
vt 0.976992 0.0298222
vt 0.9817796 0.04690695
vt 0.9099657 0.09816119
vt 0.9147533 0.1152459
vt 0.9195409 0.09816119
vt 0.9195409 0.09816119
vt 0.9243284 0.08107647
vt 0.9147533 0.08107647
vt 0.9099657 0.09816119
vt 0.9195409 0.09816119
vt 0.9147533 0.08107647
vt 0.9291161 0.0639917
vt 0.9243284 0.08107647
vt 0.9339037 0.08107647
vt 0.9339037 0.08107647
vt 0.9434788 0.08107647
vt 0.9386913 0.0639917
vt 0.9291161 0.0639917
vt 0.9339037 0.08107647
vt 0.9386913 0.0639917
vt 0.9434788 0.04690695
vt 0.953054 0.04690695
vt 0.9482664 0.0298222
vt 0.9482664 0.0298222
vt 0.9434788 0.01273748
vt 0.9386913 0.0298222
vt 0.9434788 0.04690695
vt 0.9482664 0.0298222
vt 0.9386913 0.0298222
vt 0.9434788 0.04690695
vt 0.9339037 0.04690695
vt 0.9386913 0.0639917
vt 0.9386913 0.0639917
vt 0.9434788 0.08107647
vt 0.9482664 0.0639917
vt 0.9434788 0.04690695
vt 0.9386913 0.0639917
vt 0.9482664 0.0639917
vt 0.9051781 0.04690695
vt 0.9147533 0.04690695
vt 0.9099657 0.0298222
vt 0.9099657 0.0298222
vt 0.9051781 0.01273748
vt 0.9003905 0.0298222
vt 0.9051781 0.04690695
vt 0.9099657 0.0298222
vt 0.9003905 0.0298222
vt 0.9099657 0.0639917
vt 0.9051781 0.08107647
vt 0.9147533 0.08107647
vt 0.9147533 0.08107647
vt 0.9243284 0.08107647
vt 0.9195409 0.0639917
vt 0.9099657 0.0639917
vt 0.9147533 0.08107647
vt 0.9195409 0.0639917
vt 0.9099657 0.0639917
vt 0.9147533 0.04690695
vt 0.9051781 0.04690695
vt 0.9051781 0.04690695
vt 0.8956029 0.04690695
vt 0.9003905 0.0639917
vt 0.9099657 0.0639917
vt 0.9051781 0.04690695
vt 0.9003905 0.0639917
vt 0.9243284 0.04690695
vt 0.9339037 0.04690695
vt 0.9291161 0.0298222
vt 0.9291161 0.0298222
vt 0.9243284 0.01273748
vt 0.9195409 0.0298222
vt 0.9243284 0.04690695
vt 0.9291161 0.0298222
vt 0.9195409 0.0298222
vt 0.9243284 0.04690695
vt 0.9147533 0.04690695
vt 0.9195409 0.0639917
vt 0.9195409 0.0639917
vt 0.9243284 0.08107647
vt 0.9291161 0.0639917
vt 0.9243284 0.04690695
vt 0.9195409 0.0639917
vt 0.9291161 0.0639917
vt 0.9865672 0.0639917
vt 0.9913548 0.04690695
vt 0.9817796 0.04690695
vt 0.9817796 0.04690695
vt 0.9722044 0.04690695
vt 0.976992 0.0639917
vt 0.9865672 0.0639917
vt 0.9817796 0.04690695
vt 0.976992 0.0639917
vt 0.9003905 0.09816119
vt 0.9051781 0.08107647
vt 0.8956029 0.08107647
vt 0.8956029 0.08107647
vt 0.8860277 0.08107647
vt 0.8908154 0.09816119
vt 0.9003905 0.09816119
vt 0.8956029 0.08107647
vt 0.8908154 0.09816119
vt 0.9003905 0.0639917
vt 0.8956029 0.04690695
vt 0.8908154 0.0639917
vt 0.8908154 0.0639917
vt 0.8860277 0.08107647
vt 0.8956029 0.08107647
vt 0.9003905 0.0639917
vt 0.8908154 0.0639917
vt 0.8956029 0.08107647
vt 0.953054 0.08107647
vt 0.9434788 0.08107647
vt 0.9482664 0.09816119
vt 0.9482664 0.09816119
vt 0.953054 0.1152459
vt 0.9578416 0.09816119
vt 0.953054 0.08107647
vt 0.9482664 0.09816119
vt 0.9578416 0.09816119
vt 0.9674168 0.0639917
vt 0.9722044 0.04690695
vt 0.9626292 0.04690695
vt 0.9626292 0.04690695
vt 0.953054 0.04690695
vt 0.9578416 0.0639917
vt 0.9674168 0.0639917
vt 0.9626292 0.04690695
vt 0.9578416 0.0639917
vt 0.9578416 0.0639917
vt 0.953054 0.04690695
vt 0.9482664 0.0639917
vt 0.9482664 0.0639917
vt 0.9434788 0.08107647
vt 0.953054 0.08107647
vt 0.9578416 0.0639917
vt 0.9482664 0.0639917
vt 0.953054 0.08107647
vt 0.9722044 0.08107647
vt 0.9817796 0.08107647
vt 0.976992 0.0639917
vt 0.976992 0.0639917
vt 0.9722044 0.04690695
vt 0.9674168 0.0639917
vt 0.9722044 0.08107647
vt 0.976992 0.0639917
vt 0.9674168 0.0639917
vt 0.9722044 0.08107647
vt 0.9626292 0.08107647
vt 0.9674168 0.09816119
vt 0.9674168 0.09816119
vt 0.9722044 0.1152459
vt 0.976992 0.09816119
vt 0.9722044 0.08107647
vt 0.9674168 0.09816119
vt 0.976992 0.09816119
vn 0.9435154 -0.1947894 0.2680217
vn 0.9435155 -0.1947894 0.2680217
vn 0.9435155 -0.1947893 0.2680217
vn 0.9433844 0.1948932 -0.2684075
vn 0.9433844 0.1948932 -0.2684075
vn 0.9433844 0.1948932 -0.2684075
vn 0.6285886 1.934269E-05 -0.777738
vn 0.6285886 1.934269E-05 -0.777738
vn 0.6285886 1.934269E-05 -0.777738
vn 0.7487519 0.3151923 -0.5831162
vn 0.7487518 0.3151922 -0.5831162
vn 0.7487518 0.3151922 -0.5831162
vn 0.7487541 -0.3151836 -0.583118
vn 0.7487541 -0.3151836 -0.583118
vn 0.748754 -0.3151836 -0.583118
vn 0.1948213 -0.2681022 0.943486
vn 0.1948214 -0.2681023 0.943486
vn 0.1948214 -0.2681023 0.943486
vn 0.5831622 -0.7487245 0.315172
vn 0.5831622 -0.7487245 0.315172
vn 0.5831622 -0.7487245 0.315172
vn 0.7487449 0.3151956 0.5831231
vn 0.748745 0.3151957 0.5831231
vn 0.7487448 0.3151957 0.5831232
vn -0.9435928 -0.1946911 -0.267821
vn -0.9435928 -0.1946911 -0.267821
vn -0.9435928 -0.1946911 -0.267821
vn -0.9433108 0.1949926 0.2685939
vn -0.9433108 0.1949926 0.2685939
vn -0.9433108 0.1949926 0.2685939
vn -0.1946582 -0.2677054 0.9436323
vn -0.1946582 -0.2677054 0.9436323
vn -0.1946582 -0.2677054 0.9436323
vn -0.7487412 -0.3151763 0.5831385
vn -0.7487412 -0.3151763 0.5831386
vn -0.7487412 -0.3151763 0.5831386
vn -0.3152925 0.5828056 0.7489514
vn -0.3152924 0.5828056 0.7489515
vn -0.3152924 0.5828056 0.7489514
vn -0.1949391 0.268391 -0.9433795
vn -0.1949391 0.268391 -0.9433795
vn -0.1949391 0.2683911 -0.9433795
vn -0.7487359 0.3151943 -0.5831355
vn -0.748736 0.3151943 -0.5831355
vn -0.7487359 0.3151943 -0.5831355
vn -0.7487403 -0.315177 -0.5831393
vn -0.7487403 -0.315177 -0.5831393
vn -0.7487403 -0.315177 -0.5831393
vn 0 -0.7778751 0.6284189
vn 0 -0.7778751 0.6284188
vn 0 -0.7778751 0.6284187
vn -1.208571E-06 0.7778752 0.6284187
vn -1.208571E-06 0.7778752 0.6284187
vn -1.208571E-06 0.7778752 0.6284187
vn 9.064283E-07 0.7778749 -0.6284192
vn 9.064282E-07 0.7778749 -0.6284192
vn 9.064282E-07 0.7778749 -0.6284192
vn 1.208571E-06 -0.7778746 -0.6284195
vn 1.208571E-06 -0.7778746 -0.6284195
vn 1.20857E-06 -0.7778747 -0.6284194
vn -0.2679202 -0.9435143 -0.1949348
vn -0.2679202 -0.9435143 -0.1949348
vn -0.2679202 -0.9435143 -0.1949348
vn 0.2682079 -0.9434085 -0.1950511
vn 0.2682079 -0.9434085 -0.1950511
vn 0.2682079 -0.9434085 -0.1950511
vn 1.01661E-06 -0.9340933 -0.3570289
vn 1.01661E-06 -0.9340933 -0.3570289
vn 1.01661E-06 -0.9340933 -0.357029
vn 0.2682071 0.9434088 -0.1950506
vn 0.268207 0.9434088 -0.1950506
vn 0.2682071 0.9434088 -0.1950507
vn -0.2679186 0.9435149 -0.1949336
vn -0.2679186 0.9435149 -0.1949336
vn -0.2679186 0.9435149 -0.1949336
vn 7.624571E-07 0.9340933 -0.3570289
vn 7.624571E-07 0.9340933 -0.3570289
vn 7.624571E-07 0.9340933 -0.3570289
vn -0.2679101 0.9435188 0.1949266
vn -0.2679101 0.9435188 0.1949266
vn -0.2679101 0.9435188 0.1949266
vn 0.2682061 0.9434096 0.1950479
vn 0.2682061 0.9434096 0.1950479
vn 0.2682061 0.9434096 0.1950479
vn -2.541487E-07 0.9340959 0.3570223
vn -2.541486E-07 0.9340959 0.3570223
vn -2.541487E-07 0.9340959 0.3570223
vn 0.2682066 -0.9434094 0.1950485
vn 0.2682066 -0.9434094 0.1950485
vn 0.2682066 -0.9434094 0.1950485
vn -0.2679113 -0.9435183 0.1949277
vn -0.2679114 -0.9435183 0.1949277
vn -0.2679114 -0.9435183 0.1949276
vn 0 -0.9340959 0.3570223
vn 0 -0.9340959 0.3570223
vn 0 -0.9340959 0.3570223
vn -0.5831614 -0.7487249 -0.3151726
vn -0.5831614 -0.7487249 -0.3151726
vn -0.5831614 -0.7487249 -0.3151726
vn -0.3152908 -0.5828041 -0.7489532
vn -0.3152908 -0.5828041 -0.7489532
vn -0.3152908 -0.5828041 -0.7489532
vn -0.5775353 -0.5770082 -0.5775071
vn -0.5775353 -0.5770082 -0.5775071
vn -0.5775353 -0.5770082 -0.5775071
vn -0.3152912 0.5828024 -0.7489544
vn -0.3152912 0.5828024 -0.7489544
vn -0.3152913 0.5828025 -0.7489544
vn -0.5831699 0.7487164 -0.3151771
vn -0.5831699 0.7487164 -0.3151771
vn -0.58317 0.7487164 -0.3151772
vn -0.5775406 0.5769975 -0.5775125
vn -0.5775406 0.5769975 -0.5775126
vn -0.5775406 0.5769975 -0.5775126
vn -0.628569 0 -0.7777538
vn -0.628569 0 -0.7777538
vn -0.628569 0 -0.7777538
vn -0.1948246 -0.2681075 -0.9434838
vn -0.1948246 -0.2681075 -0.9434838
vn -0.1948246 -0.2681075 -0.9434838
vn -0.3571542 0 -0.9340454
vn -0.3571542 0 -0.9340454
vn -0.3571542 0 -0.9340454
vn -0.7487413 0.3151763 0.5831384
vn -0.7487413 0.3151763 0.5831385
vn -0.7487413 0.3151763 0.5831383
vn -0.5831801 0.7487071 0.3151806
vn -0.5831801 0.7487071 0.3151806
vn -0.5831801 0.7487071 0.3151806
vn -0.5775417 0.576997 0.5775119
vn -0.5775417 0.576997 0.5775119
vn -0.5775417 0.576997 0.5775119
vn -0.3152933 -0.5828055 0.7489511
vn -0.3152933 -0.5828055 0.7489513
vn -0.3152933 -0.5828055 0.7489511
vn -0.5831717 -0.7487155 0.3151761
vn -0.5831717 -0.7487155 0.3151761
vn -0.5831717 -0.7487154 0.3151761
vn -0.5775413 -0.5769971 0.5775121
vn -0.5775414 -0.5769971 0.5775121
vn -0.5775414 -0.5769972 0.5775122
vn -0.6285692 0 0.7777535
vn -0.6285693 0 0.7777535
vn -0.6285692 0 0.7777535
vn -0.1947725 0.2679884 0.9435285
vn -0.1947725 0.2679884 0.9435285
vn -0.1947725 0.2679884 0.9435285
vn -0.356386 0 0.9343388
vn -0.356386 0 0.9343388
vn -0.356386 0 0.9343388
vn -0.9435173 0.1947739 -0.2680265
vn -0.9435173 0.1947739 -0.2680265
vn -0.9435173 0.194774 -0.2680265
vn -0.7778999 0.6283883 -3.021841E-07
vn -0.7778999 0.6283883 -3.021841E-07
vn -0.7778999 0.6283882 -3.021841E-07
vn -0.9340485 0.3571464 -2.227481E-07
vn -0.9340485 0.3571464 -2.227481E-07
vn -0.9340485 0.3571463 -2.227481E-07
vn -0.9433867 -0.1949093 0.2683875
vn -0.9433867 -0.1949093 0.2683875
vn -0.9433867 -0.1949093 0.2683875
vn -0.7779092 -0.6283768 -4.532819E-07
vn -0.777909 -0.6283768 -4.532819E-07
vn -0.777909 -0.6283768 -4.532819E-07
vn -0.9341945 -0.3567642 -2.542968E-07
vn -0.9341944 -0.3567642 -2.542968E-07
vn -0.9341945 -0.3567642 -2.542968E-07
vn 0.3152881 0.5827989 0.7489585
vn 0.3152882 0.5827989 0.7489585
vn 0.3152881 0.582799 0.7489585
vn 0.5831628 0.7487243 0.3151717
vn 0.5831628 0.7487243 0.3151717
vn 0.5831628 0.7487242 0.3151717
vn 0.5775455 0.5769993 0.5775059
vn 0.5775455 0.5769992 0.5775059
vn 0.5775455 0.5769993 0.5775058
vn 0.3152888 -0.5828003 0.7489571
vn 0.3152888 -0.5828003 0.7489571
vn 0.3152888 -0.5828003 0.7489572
vn 0.748745 -0.3151957 0.5831231
vn 0.748745 -0.3151957 0.5831231
vn 0.748745 -0.3151957 0.5831231
vn 0.5775455 -0.5769992 0.5775059
vn 0.5775455 -0.5769993 0.5775058
vn 0.5775455 -0.5769993 0.5775059
vn 0.1949355 0.2683858 0.9433817
vn 0.1949355 0.2683858 0.9433818
vn 0.1949355 0.2683858 0.9433818
vn 0.6285815 0 0.7777436
vn 0.6285815 0 0.7777436
vn 0.6285816 0 0.7777436
vn 0.3571555 0 0.934045
vn 0.3571555 0 0.934045
vn 0.3571555 0 0.934045
vn 0.3152906 -0.5827985 -0.7489579
vn 0.3152906 -0.5827984 -0.7489578
vn 0.3152906 -0.5827985 -0.7489578
vn 0.5831792 -0.7487071 -0.3151822
vn 0.5831792 -0.7487071 -0.3151822
vn 0.5831793 -0.748707 -0.3151822
vn 0.5775427 -0.5770158 -0.5774921
vn 0.5775427 -0.5770158 -0.5774921
vn 0.5775427 -0.5770158 -0.5774921
vn 0.5831792 0.7487071 -0.3151822
vn 0.5831792 0.7487071 -0.3151822
vn 0.5831793 0.748707 -0.3151823
vn 0.3152937 0.5827873 -0.7489652
vn 0.3152937 0.5827873 -0.7489652
vn 0.3152937 0.5827873 -0.7489652
vn 0.5775457 0.5770104 -0.5774946
vn 0.5775457 0.5770105 -0.5774946
vn 0.5775457 0.5770104 -0.5774946
vn 0.1947705 0.2679819 -0.9435307
vn 0.1947705 0.2679819 -0.9435307
vn 0.1947705 0.2679819 -0.9435307
vn 0.1946566 -0.2676968 -0.9436352
vn 0.1946566 -0.2676968 -0.9436352
vn 0.1946566 -0.2676967 -0.9436352
vn 0.3563826 0 -0.9343401
vn 0.3563826 0 -0.9343401
vn 0.3563825 0 -0.9343401
vn 0.9435909 0.1947065 0.2678163
vn 0.9435909 0.1947065 0.2678163
vn 0.9435909 0.1947066 0.2678163
vn 0.7779003 0.6283877 -1.344718E-05
vn 0.7779003 0.6283876 -1.344718E-05
vn 0.7779003 0.6283877 -1.344718E-05
vn 0.9341944 0.3567643 -1.487637E-05
vn 0.9341944 0.3567644 -1.487637E-05
vn 0.9341944 0.3567643 -1.487637E-05
vn 0.9433084 -0.1949763 -0.2686138
vn 0.9433084 -0.1949763 -0.2686138
vn 0.9433084 -0.1949763 -0.2686138
vn 0.7779003 -0.6283877 -1.344718E-05
vn 0.7779004 -0.6283876 -1.344718E-05
vn 0.7779003 -0.6283877 -1.344718E-05
vn 0.9340484 -0.3571467 -1.479685E-05
vn 0.9340484 -0.3571467 -1.479685E-05
vn 0.9340484 -0.3571467 -1.479685E-05
g magicOrb_0
f 3/3/3 2/2/2 1/1/1
f 6/6/6 5/5/5 4/4/4
f 9/9/9 8/8/8 7/7/7
f 12/12/12 11/11/11 10/10/10
f 15/15/15 14/14/14 13/13/13
f 18/18/18 17/17/17 16/16/16
f 21/21/21 20/20/20 19/19/19
f 24/24/24 23/23/23 22/22/22
f 27/27/27 26/26/26 25/25/25
f 30/30/30 29/29/29 28/28/28
f 33/33/33 32/32/32 31/31/31
f 36/36/36 35/35/35 34/34/34
f 39/39/39 38/38/38 37/37/37
f 42/42/42 41/41/41 40/40/40
f 45/45/45 44/44/44 43/43/43
f 48/48/48 47/47/47 46/46/46
f 51/51/51 50/50/50 49/49/49
f 54/54/54 53/53/53 52/52/52
f 57/57/57 56/56/56 55/55/55
f 60/60/60 59/59/59 58/58/58
f 63/63/63 62/62/62 61/61/61
f 66/66/66 65/65/65 64/64/64
f 69/69/69 68/68/68 67/67/67
f 72/72/72 71/71/71 70/70/70
f 75/75/75 74/74/74 73/73/73
f 78/78/78 77/77/77 76/76/76
f 81/81/81 80/80/80 79/79/79
f 84/84/84 83/83/83 82/82/82
f 87/87/87 86/86/86 85/85/85
f 90/90/90 89/89/89 88/88/88
f 93/93/93 92/92/92 91/91/91
f 96/96/96 95/95/95 94/94/94
f 99/99/99 98/98/98 97/97/97
f 102/102/102 101/101/101 100/100/100
f 105/105/105 104/104/104 103/103/103
f 108/108/108 107/107/107 106/106/106
f 111/111/111 110/110/110 109/109/109
f 114/114/114 113/113/113 112/112/112
f 117/117/117 116/116/116 115/115/115
f 120/120/120 119/119/119 118/118/118
f 123/123/123 122/122/122 121/121/121
f 126/126/126 125/125/125 124/124/124
f 129/129/129 128/128/128 127/127/127
f 132/132/132 131/131/131 130/130/130
f 135/135/135 134/134/134 133/133/133
f 138/138/138 137/137/137 136/136/136
f 141/141/141 140/140/140 139/139/139
f 144/144/144 143/143/143 142/142/142
f 147/147/147 146/146/146 145/145/145
f 150/150/150 149/149/149 148/148/148
f 153/153/153 152/152/152 151/151/151
f 156/156/156 155/155/155 154/154/154
f 159/159/159 158/158/158 157/157/157
f 162/162/162 161/161/161 160/160/160
f 165/165/165 164/164/164 163/163/163
f 168/168/168 167/167/167 166/166/166
f 171/171/171 170/170/170 169/169/169
f 174/174/174 173/173/173 172/172/172
f 177/177/177 176/176/176 175/175/175
f 180/180/180 179/179/179 178/178/178
f 183/183/183 182/182/182 181/181/181
f 186/186/186 185/185/185 184/184/184
f 189/189/189 188/188/188 187/187/187
f 192/192/192 191/191/191 190/190/190
f 195/195/195 194/194/194 193/193/193
f 198/198/198 197/197/197 196/196/196
f 201/201/201 200/200/200 199/199/199
f 204/204/204 203/203/203 202/202/202
f 207/207/207 206/206/206 205/205/205
f 210/210/210 209/209/209 208/208/208
f 213/213/213 212/212/212 211/211/211
f 216/216/216 215/215/215 214/214/214
f 219/219/219 218/218/218 217/217/217
f 222/222/222 221/221/221 220/220/220
f 225/225/225 224/224/224 223/223/223
f 228/228/228 227/227/227 226/226/226
f 231/231/231 230/230/230 229/229/229
f 234/234/234 233/233/233 232/232/232
f 237/237/237 236/236/236 235/235/235
f 240/240/240 239/239/239 238/238/238
