g magicDoorL
v 0.4260182 -1.69553 0.1330603
v 0.4260182 -0.1953287 0.1330591
v 1.157613 -0.1910834 0.1330603
v 1.157613 -1.69553 0.1330603
v 0.4686978 0.1649251 0.1330591
v 0.5345708 0.4740155 0.1330603
v 1.157613 0.4740155 0.1330603
v 1.157613 0.1689227 0.1330603
v 1.157613 0.8722995 0.1330591
v 0.7956478 0.8722995 0.1330591
v 1.157613 1.128581 0.1330591
v 0 -2.154224 0.1615491
v 0.185908 -1.93564 0.1615491
v 1.397723 -1.93564 0.1615491
v 1.397723 -2.154224 0.1615491
v 0 0 0.1615503
v 0.185908 0 0.1615491
v 0.1243564 0.620094 0.1615491
v 0.3091074 0.5680423 0.1615503
v 0.4887493 1.169575 0.1615491
v 0.6206161 1.043262 0.1615491
v 1.646836 -1.93564 0.1615491
v 1.646836 -2.154224 0.1615491
v 1.646836 0 0.1615491
v 1.397723 0 0.1615491
v 1.646836 0.4740155 0.1615491
v 1.397723 0.4740155 0.1615491
v 1.646836 0.8722995 0.1615491
v 1.397723 0.8722995 0.1615491
v 1.646836 1.447095 0.1615491
v 1.397723 1.422144 0.1615491
v 1.646836 1.626014 0.1615491
v 1.402671 1.601559 0.1615491
v 0.9997002 1.518129 0.1615491
v 1.075418 1.356926 0.1615491
v 0.9997002 1.518129 0.1615491
v 1.075418 1.356926 0.1615491
v 0.6206161 1.043262 0.1615491
v 0.4887493 1.169575 0.1615491
v 0.185908 -1.93564 0.1615491
v 0.2460179 -1.87553 0.08972656
v 1.337613 -1.87553 0.08972656
v 1.397723 -1.93564 0.1615491
v 1.397723 -1.93564 0.1615491
v 1.337613 -1.87553 0.08972656
v 1.337613 0 0.08972534
v 1.397723 0 0.1615491
v 1.337613 0.4740155 0.08972534
v 1.397723 0.4740155 0.1615491
v 1.337613 0.8722995 0.08972534
v 1.397723 0.8722995 0.1615491
v 1.337613 1.348652 0.08972534
v 1.397723 1.422144 0.1615491
v 0.185908 0 0.1615491
v 0.2460179 0 0.08972534
v 0.2460179 -1.87553 0.08972656
v 0.185908 -1.93564 0.1615491
v 0.3091074 0.5680423 0.1615503
v 0.3655507 0.5445032 0.08972534
v 0.2460179 0 0.08972534
v 0.185908 0 0.1615491
v 0.6206161 1.043262 0.1615491
v 0.664434 1.000462 0.08972534
v 0.3655507 0.5445032 0.08972534
v 0.3091074 0.5680423 0.1615503
v 1.397723 1.422144 0.1615491
v 1.337613 1.348652 0.08972534
v 1.099409 1.300452 0.08972534
v 1.075418 1.356926 0.1615491
v 1.075418 1.356926 0.1615491
v 1.099409 1.300452 0.08972534
v 0.664434 1.000462 0.08972534
v 0.6206161 1.043262 0.1615491
v 0.2460179 -1.87553 0.08972656
v 0.3660182 -1.75553 0.08972656
v 1.217613 -1.75553 0.08972656
v 1.337613 -1.87553 0.08972656
v 1.217613 -0.1307342 0.08972534
v 1.337613 0 0.08972534
v 0.2460179 0 0.08972534
v 0.3660182 -0.1356758 0.08972656
v 1.217613 0.1092699 0.08972534
v 1.217613 0.4740155 0.08972534
v 1.337613 0.4740155 0.08972534
v 1.217613 0.8722995 0.08972534
v 1.337613 0.8722995 0.08972534
v 1.217613 1.201938 0.08972534
v 1.337613 1.348652 0.08972534
v 1.147302 1.187711 0.08972534
v 1.099409 1.300452 0.08972534
v 0.7519099 0.9150204 0.08972534
v 0.664434 1.000462 0.08972534
v 0.4782307 0.4975113 0.08972656
v 0.3655507 0.5445032 0.08972534
v 0.394471 0.1044934 0.08972534
v 1.337613 0 0.08972534
v 1.217613 -0.1307342 0.08972534
v 0.3660182 -0.1356758 0.08972656
v 0.2460179 0 0.08972534
v 1.217613 0.1092699 0.08972534
v 0.394471 0.1044934 0.08972534
v 0.3660182 -1.75553 0.08972656
v 0.4260182 -1.69553 0.1330603
v 1.157613 -1.69553 0.1330603
v 1.217613 -1.75553 0.08972656
v 1.217613 -1.75553 0.08972656
v 1.157613 -1.69553 0.1330603
v 1.157613 -0.1910834 0.1330603
v 1.217613 -0.1307342 0.08972534
v 1.217613 -0.1307342 0.08972534
v 1.157613 -0.1910834 0.1330603
v 0.4260182 -0.1953287 0.1330591
v 0.3660182 -0.1356758 0.08972656
v 0.3660182 -0.1356758 0.08972656
v 0.4260182 -0.1953287 0.1330591
v 0.4260182 -1.69553 0.1330603
v 0.3660182 -1.75553 0.08972656
v 0.394471 0.1044934 0.08972534
v 0.4686978 0.1649251 0.1330591
v 1.157613 0.1689227 0.1330603
v 1.217613 0.1092699 0.08972534
v 1.217613 0.1092699 0.08972534
v 1.157613 0.1689227 0.1330603
v 1.157613 0.4740155 0.1330603
v 1.217613 0.4740155 0.08972534
v 1.157613 0.8722995 0.1330591
v 1.217613 0.8722995 0.08972534
v 1.157613 1.128581 0.1330591
v 1.217613 1.201938 0.08972534
v 0.4782307 0.4975113 0.08972656
v 0.5345708 0.4740155 0.1330603
v 0.4686978 0.1649251 0.1330591
v 0.394471 0.1044934 0.08972534
v 0.7519099 0.9150204 0.08972534
v 0.7956478 0.8722995 0.1330591
v 0.5345708 0.4740155 0.1330603
v 0.4782307 0.4975113 0.08972656
v 1.217613 1.201938 0.08972534
v 1.157613 1.128581 0.1330591
v 1.147302 1.187711 0.08972534
v 1.147302 1.187711 0.08972534
v 1.157613 1.128581 0.1330591
v 0.7956478 0.8722995 0.1330591
v 0.7519099 0.9150204 0.08972534
v 1.397723 -2.154224 0.1615491
v 1.397723 -2.154224 -1.220703E-06
v 0 -2.154224 -1.220703E-06
v 0 -2.154224 0.1615491
v 1.646836 -2.154224 0.1615491
v 1.646836 -2.154224 -1.220703E-06
v 0 -2.154224 0.1615491
v 0 -2.154224 -1.220703E-06
v 0 0 0
v 0 0 0.1615503
v 0 0 0.1615503
v 0 0 0
v 0.1243564 0.620094 -1.220703E-06
v 0.1243564 0.620094 0.1615491
v 0.1243564 0.620094 0.1615491
v 0.1243564 0.620094 -1.220703E-06
v 0.4887493 1.169575 -1.220703E-06
v 0.4887493 1.169575 0.1615491
v 0.4887493 1.169575 0.1615491
v 0.4887493 1.169575 -1.220703E-06
v 0.9997002 1.518129 -1.220703E-06
v 0.9997002 1.518129 0.1615491
v 0.9997002 1.518129 0.1615491
v 0.9997002 1.518129 -1.220703E-06
v 1.402671 1.601559 -1.220703E-06
v 1.402671 1.601559 0.1615491
v 1.646836 -1.93564 0.1615491
v 1.646836 -1.93564 -1.220703E-06
v 1.646836 -2.154224 -1.220703E-06
v 1.646836 -2.154224 0.1615491
v 1.646836 0 0.1615491
v 1.646836 0 -1.220703E-06
v 1.646836 0.4740155 0.1615491
v 1.646836 0.4740155 -1.220703E-06
v 1.646836 0.8722995 0.1615491
v 1.646836 0.8722995 -1.220703E-06
v 1.646836 1.447095 0.1615491
v 1.646836 1.447095 -1.220703E-06
v 1.646836 1.626014 0.1615491
v 1.646836 1.626014 -1.220703E-06
v 1.402671 1.601559 0.1615491
v 1.402671 1.601559 -1.220703E-06
v 1.646836 1.626014 -1.220703E-06
v 1.646836 1.626014 0.1615491
vt 0.6287109 0.309668
vt 0.6287109 0.3486088
vt 0.647701 0.3487189
vt 0.647701 0.309668
vt 0.6298188 0.3579599
vt 0.6315287 0.3659829
vt 0.647701 0.3659829
vt 0.647701 0.3580636
vt 0.647701 0.3763212
vt 0.6383054 0.3763212
vt 0.647701 0.3829735
vt 0.6159739 0.2977617
vt 0.6224784 0.3034355
vt 0.6539335 0.3034355
vt 0.6539335 0.2977617
vt 0.6159739 0.3541038
vt 0.6224784 0.3534184
vt 0.6195685 0.3709708
vt 0.6256763 0.3684236
vt 0.6290206 0.3853902
vt 0.6337621 0.3807588
vt 0.6603997 0.3034355
vt 0.6603997 0.2977617
vt 0.6603997 0.3534184
vt 0.6539335 0.3534184
vt 0.6603997 0.3659829
vt 0.6539335 0.3659829
vt 0.6603997 0.3763212
vt 0.6539335 0.3763212
vt 0.6603997 0.3912411
vt 0.6539335 0.3905935
vt 0.6603997 0.3978906
vt 0.6540619 0.3972558
vt 0.6429714 0.3950116
vt 0.6455674 0.3889006
vt 0.6429714 0.3950116
vt 0.6455674 0.3889006
vt 0.6337621 0.3807588
vt 0.6290206 0.3853902
vt 0.6224784 0.3034355
vt 0.6240387 0.3049958
vt 0.6523732 0.3049958
vt 0.6539335 0.3034355
vt 0.6539335 0.3034355
vt 0.6523732 0.3049958
vt 0.6523732 0.3534184
vt 0.6539335 0.3534184
vt 0.6523732 0.3659829
vt 0.6539335 0.3659829
vt 0.6523732 0.3763212
vt 0.6539335 0.3763212
vt 0.6523732 0.3886858
vt 0.6539335 0.3905935
vt 0.6224784 0.3534184
vt 0.6240387 0.353254
vt 0.6240387 0.3049958
vt 0.6224784 0.3034355
vt 0.6256763 0.3684236
vt 0.6271414 0.3678126
vt 0.6240387 0.353254
vt 0.6224784 0.3534184
vt 0.6337621 0.3807588
vt 0.6348995 0.3796479
vt 0.6271414 0.3678126
vt 0.6256763 0.3684236
vt 0.6539335 0.3905935
vt 0.6523732 0.3886858
vt 0.6461902 0.3874347
vt 0.6455674 0.3889006
vt 0.6455674 0.3889006
vt 0.6461902 0.3874347
vt 0.6348995 0.3796479
vt 0.6337621 0.3807588
vt 0.6113539 0.1073521
vt 0.6137938 0.1097919
vt 0.6311085 0.1097919
vt 0.6335483 0.1073521
vt 0.6311085 0.1428274
vt 0.6335483 0.1452814
vt 0.6113539 0.1451526
vt 0.6137938 0.1427269
vt 0.6311085 0.1477072
vt 0.6311085 0.1551231
vt 0.6335483 0.1551231
vt 0.6311085 0.1632212
vt 0.6335483 0.1632212
vt 0.6311085 0.1699233
vt 0.6335483 0.1729063
vt 0.6296789 0.169634
vt 0.6287051 0.1719263
vt 0.6216398 0.1640897
vt 0.6198612 0.1658269
vt 0.6160753 0.1556009
vt 0.6137843 0.1565563
vt 0.6143723 0.14761
vt 0.6335483 0.1452814
vt 0.6311085 0.1428274
vt 0.6137938 0.1427269
vt 0.6113539 0.1451526
vt 0.6311085 0.1477072
vt 0.6143723 0.14761
vt 0.6271535 0.3081107
vt 0.6287109 0.309668
vt 0.647701 0.309668
vt 0.6492584 0.3081107
vt 0.6492584 0.3081107
vt 0.647701 0.309668
vt 0.647701 0.3487189
vt 0.6492584 0.3502854
vt 0.6492584 0.3502854
vt 0.647701 0.3487189
vt 0.6287109 0.3486088
vt 0.6271535 0.3501572
vt 0.6271535 0.3501572
vt 0.6287109 0.3486088
vt 0.6287109 0.309668
vt 0.6271535 0.3081107
vt 0.627892 0.3563912
vt 0.6298188 0.3579599
vt 0.647701 0.3580636
vt 0.6492584 0.3565152
vt 0.6492584 0.3565152
vt 0.647701 0.3580636
vt 0.647701 0.3659829
vt 0.6492584 0.3659829
vt 0.647701 0.3763212
vt 0.6492584 0.3763212
vt 0.647701 0.3829735
vt 0.6492584 0.3848776
vt 0.6300663 0.3665928
vt 0.6315287 0.3659829
vt 0.6298188 0.3579599
vt 0.627892 0.3563912
vt 0.6371701 0.3774301
vt 0.6383054 0.3763212
vt 0.6315287 0.3659829
vt 0.6300663 0.3665928
vt 0.6492584 0.3848776
vt 0.647701 0.3829735
vt 0.6474333 0.3845083
vt 0.6474333 0.3845083
vt 0.647701 0.3829735
vt 0.6383054 0.3763212
vt 0.6371701 0.3774301
vt 0.6147379 0.3967459
vt 0.6147379 0.4052781
vt 0.5409172 0.4052781
vt 0.5409172 0.3967459
vt 0.6278949 0.3967459
vt 0.6278949 0.4052781
vt 0.5409172 0.3967459
vt 0.5409172 0.4052781
vt 0.5409172 0.405278
vt 0.5409172 0.3967458
vt 0.5409172 0.3967458
vt 0.5409172 0.405278
vt 0.5474851 0.4052781
vt 0.5474851 0.3967459
vt 0.5474851 0.3967459
vt 0.5474851 0.4052781
vt 0.5667305 0.4052781
vt 0.5667305 0.3967459
vt 0.5667305 0.3967459
vt 0.5667305 0.4052781
vt 0.5937164 0.4052781
vt 0.5937164 0.3967459
vt 0.5937164 0.3967459
vt 0.5937164 0.4052781
vt 0.6149993 0.4052781
vt 0.6149993 0.3967459
vt 0.6278949 0.3967459
vt 0.6278949 0.4052781
vt 0.6278949 0.4052781
vt 0.6278949 0.3967459
vt 0.6278949 0.3967459
vt 0.6278949 0.4052781
vt 0.6278949 0.3967459
vt 0.6278949 0.4052781
vt 0.6278949 0.3967459
vt 0.6278949 0.4052781
vt 0.6278949 0.3967459
vt 0.6278949 0.4052781
vt 0.6278949 0.3967459
vt 0.6278949 0.4052781
vt 0.6149993 0.3967459
vt 0.6149993 0.4052781
vt 0.6278949 0.4052781
vt 0.6278949 0.3967459
vn 0 4.062717E-07 1
vn 0 4.062717E-07 1
vn 0 4.062717E-07 1
vn 0 4.062717E-07 1
vn 0 -1.888345E-06 1
vn 0 -1.888345E-06 1
vn 0 -1.888345E-06 1
vn 0 -1.888345E-06 1
vn 0 3.064907E-06 1
vn 0 3.064907E-06 1
vn 0 0 1
vn 0 0 1
vn 0 0 1
vn 0 0 1
vn 0 0 1
vn 0 -2.984706E-07 1
vn 0 -2.984706E-07 1
vn 1.292663E-06 0 1
vn 1.292663E-06 0 1
vn 5.266903E-06 2.722658E-06 1
vn 5.266903E-06 2.722658E-06 1
vn 0 0 1
vn 0 0 1
vn 0 0 1
vn 0 0 1
vn 0 0 1
vn 0 0 1
vn 0 0 1
vn 0 0 1
vn 0 0 1
vn -1.516627E-06 0 1
vn 0 0 1
vn -1.516627E-06 0 1
vn -1.516627E-06 0 1
vn -1.516627E-06 0 1
vn -1.881909E-06 0 1
vn -1.881909E-06 0 1
vn -1.881909E-06 0 1
vn -1.881909E-06 0 1
vn 0 0.7668647 0.6418089
vn 0 0.7668647 0.6418089
vn 0 0.7668647 0.6418088
vn 0 0.7668647 0.6418089
vn -0.7668733 1.966392E-07 0.6417986
vn -0.7668732 1.966392E-07 0.6417986
vn -0.7668732 1.966392E-07 0.6417986
vn -0.7668733 1.966392E-07 0.6417985
vn -0.7668673 0 0.6418057
vn -0.7668673 0 0.6418057
vn -0.7668695 0 0.641803
vn -0.7668695 0 0.641803
vn -0.7668703 0 0.6418021
vn -0.7668703 0 0.641802
vn 0.7668736 2.051898E-07 0.6417981
vn 0.7668736 2.051898E-07 0.6417981
vn 0.7668736 2.051898E-07 0.6417981
vn 0.7668736 2.051898E-07 0.6417981
vn 0.7526569 -0.1642154 0.6376056
vn 0.7526569 -0.1642154 0.6376056
vn 0.7526569 -0.1642154 0.6376056
vn 0.7526569 -0.1642154 0.6376056
vn 0.6413584 -0.4204167 0.6418014
vn 0.6413584 -0.4204167 0.6418014
vn 0.6413584 -0.4204167 0.6418014
vn 0.6413584 -0.4204167 0.6418014
vn 0.152092 -0.7516356 0.6418038
vn 0.152092 -0.7516356 0.6418038
vn 0.152092 -0.7516356 0.6418037
vn 0.152092 -0.7516356 0.6418038
vn 0.4353868 -0.631292 0.6418011
vn 0.4353868 -0.6312919 0.6418012
vn 0.4353868 -0.631292 0.6418011
vn 0.4353868 -0.631292 0.6418011
vn 0 0 1
vn 0 0 1
vn 0 0 1
vn 0 0 1
vn 1.859945E-06 6.974798E-07 1
vn 1.859946E-06 6.974799E-07 1
vn -1.862571E-05 3.492329E-07 1
vn -1.862571E-05 3.492329E-07 1
vn -1.940485E-06 0 1
vn -1.940485E-06 0 1
vn -1.940485E-06 0 1
vn 0 0 1
vn 0 0 1
vn 0 0 1
vn 0 0 1
vn 0 0 1
vn 0 0 1
vn 6.233639E-06 3.763163E-06 1
vn 6.233639E-06 3.763163E-06 1
vn 1.172907E-05 -3.028643E-07 1
vn 1.172907E-05 -3.028642E-07 1
vn 1.172906E-05 -3.028642E-07 1
vn 0 4.582046E-06 1
vn 0 4.582046E-06 1
vn 0 4.582046E-06 1
vn 0 4.582046E-06 1
vn -9.546895E-07 0 1
vn -9.546895E-07 0 1
vn 0 -0.5854941 0.8106766
vn 0 -0.5854941 0.8106766
vn 0 -0.5854941 0.8106766
vn 0 -0.5854941 0.8106766
vn 0.5855123 3.294127E-07 0.8106636
vn 0.5855122 3.294127E-07 0.8106636
vn 0.5855122 3.294127E-07 0.8106636
vn 0.5855122 3.294127E-07 0.8106636
vn -0.003396957 0.5854838 0.8106769
vn -0.003396957 0.5854838 0.8106769
vn -0.003396957 0.5854838 0.8106769
vn -0.003396957 0.5854838 0.8106769
vn -0.5854864 3.171747E-07 0.8106823
vn -0.5854864 3.171748E-07 0.8106823
vn -0.5854863 3.171748E-07 0.8106823
vn -0.5854864 3.171748E-07 0.8106823
vn 0.003397071 -0.5854914 0.8106715
vn 0.003397071 -0.5854914 0.8106715
vn 0.003397071 -0.5854914 0.8106715
vn 0.003397071 -0.5854914 0.8106716
vn 0.5855055 0 0.8106684
vn 0.5855055 0 0.8106684
vn 0.5855055 0 0.8106683
vn 0.5855055 0 0.8106683
vn 0.5854995 1.190554E-06 0.8106729
vn 0.5854994 1.190554E-06 0.8106729
vn 0.5855018 0 0.8106711
vn 0.5855018 0 0.8106712
vn -0.5726503 0.1220343 0.810666
vn -0.5726503 0.1220343 0.810666
vn -0.5726503 0.1220343 0.810666
vn -0.5726503 0.1220343 0.810666
vn -0.4896716 0.3209811 0.8106743
vn -0.4896717 0.3209811 0.8106743
vn -0.4896716 0.3209811 0.8106743
vn -0.4896717 0.3209811 0.8106743
vn -0.1161352 0.5738627 0.8106751
vn -0.1161352 0.5738627 0.8106751
vn -0.1161352 0.5738627 0.8106751
vn -0.3456862 0.4949282 0.7972121
vn -0.3456862 0.4949282 0.7972121
vn -0.3456862 0.4949282 0.7972121
vn -0.3456863 0.4949282 0.7972121
vn 0 -1 0
vn 0 -1 0
vn 0 -1 0
vn 0 -1 0
vn 0 -1 0
vn 0 -1 0
vn -1 0 0
vn -1 0 0
vn -1 0 0
vn -1 0 0
vn -0.9804779 0.1966291 0
vn -0.9804779 0.1966291 0
vn -0.9804779 0.1966291 0
vn -0.9804779 0.1966291 0
vn -0.8333972 0.5526747 0
vn -0.8333972 0.5526747 0
vn -0.8333972 0.5526747 0
vn -0.8333972 0.5526747 0
vn -0.5635336 0.8260932 0
vn -0.5635336 0.8260932 0
vn -0.5635336 0.8260932 0
vn -0.5635336 0.8260932 0
vn -0.2027373 0.9792332 0
vn -0.2027373 0.9792332 0
vn -0.2027373 0.9792332 0
vn -0.2027373 0.9792332 0
vn 1 0 0
vn 1 0 0
vn 1 0 0
vn 1 0 0
vn 1 0 0
vn 1 0 0
vn 1 0 0
vn 1 0 0
vn 1 0 0
vn 1 0 0
vn 1 0 0
vn 1 0 0
vn 1 0 0
vn 1 0 0
vn -0.09966153 0.9950215 0
vn -0.09966153 0.9950215 0
vn -0.09966153 0.9950215 0
vn -0.09966153 0.9950215 0
g magicDoorL_0
f 3/3/3 2/2/2 1/1/1
f 4/4/4 3/3/3 1/1/1
f 7/7/7 6/6/6 5/5/5
f 8/8/8 7/7/7 5/5/5
f 7/7/7 9/9/9 6/6/6
f 9/9/9 10/10/10 6/6/6
f 9/9/9 11/11/11 10/10/10
f 14/14/14 13/13/13 12/12/12
f 15/15/15 14/14/14 12/12/12
f 12/12/12 13/13/13 16/16/16
f 13/13/13 17/17/17 16/16/16
f 16/16/16 17/17/17 18/18/18
f 17/17/17 19/19/19 18/18/18
f 18/18/18 19/19/19 20/20/20
f 19/19/19 21/21/21 20/20/20
f 22/22/22 14/14/14 15/15/15
f 23/23/23 22/22/22 15/15/15
f 22/22/22 24/24/24 14/14/14
f 24/24/24 25/25/25 14/14/14
f 24/24/24 26/26/26 25/25/25
f 26/26/26 27/27/27 25/25/25
f 26/26/26 28/28/28 27/27/27
f 28/28/28 29/29/29 27/27/27
f 28/28/28 30/30/30 29/29/29
f 30/30/30 31/31/31 29/29/29
f 31/31/31 30/30/30 32/32/32
f 33/33/33 31/31/31 32/32/32
f 33/33/33 34/34/34 31/31/31
f 34/34/34 35/35/35 31/31/31
f 38/38/38 37/37/37 36/36/36
f 39/39/39 38/38/38 36/36/36
f 42/42/42 41/41/41 40/40/40
f 43/43/43 42/42/42 40/40/40
f 46/46/46 45/45/45 44/44/44
f 47/47/47 46/46/46 44/44/44
f 48/48/48 46/46/46 47/47/47
f 49/49/49 48/48/48 47/47/47
f 50/50/50 48/48/48 49/49/49
f 51/51/51 50/50/50 49/49/49
f 52/52/52 50/50/50 51/51/51
f 53/53/53 52/52/52 51/51/51
f 56/56/56 55/55/55 54/54/54
f 57/57/57 56/56/56 54/54/54
f 60/60/60 59/59/59 58/58/58
f 61/61/61 60/60/60 58/58/58
f 64/64/64 63/63/63 62/62/62
f 65/65/65 64/64/64 62/62/62
f 68/68/68 67/67/67 66/66/66
f 69/69/69 68/68/68 66/66/66
f 72/72/72 71/71/71 70/70/70
f 73/73/73 72/72/72 70/70/70
f 76/76/76 75/75/75 74/74/74
f 77/77/77 76/76/76 74/74/74
f 78/78/78 76/76/76 77/77/77
f 79/79/79 78/78/78 77/77/77
f 74/74/74 75/75/75 80/80/80
f 75/75/75 81/81/81 80/80/80
f 83/83/83 82/82/82 79/79/79
f 84/84/84 83/83/83 79/79/79
f 85/85/85 83/83/83 84/84/84
f 86/86/86 85/85/85 84/84/84
f 87/87/87 85/85/85 86/86/86
f 88/88/88 87/87/87 86/86/86
f 89/89/89 87/87/87 88/88/88
f 90/90/90 89/89/89 88/88/88
f 91/91/91 89/89/89 90/90/90
f 92/92/92 91/91/91 90/90/90
f 93/93/93 91/91/91 92/92/92
f 94/94/94 93/93/93 92/92/92
f 95/95/95 93/93/93 94/94/94
f 80/80/80 95/95/95 94/94/94
f 98/98/98 97/97/97 96/96/96
f 99/99/99 98/98/98 96/96/96
f 96/96/96 100/100/100 99/99/99
f 100/100/100 101/101/101 99/99/99
f 104/104/104 103/103/103 102/102/102
f 105/105/105 104/104/104 102/102/102
f 108/108/108 107/107/107 106/106/106
f 109/109/109 108/108/108 106/106/106
f 112/112/112 111/111/111 110/110/110
f 113/113/113 112/112/112 110/110/110
f 116/116/116 115/115/115 114/114/114
f 117/117/117 116/116/116 114/114/114
f 120/120/120 119/119/119 118/118/118
f 121/121/121 120/120/120 118/118/118
f 124/124/124 123/123/123 122/122/122
f 125/125/125 124/124/124 122/122/122
f 126/126/126 124/124/124 125/125/125
f 127/127/127 126/126/126 125/125/125
f 128/128/128 126/126/126 127/127/127
f 129/129/129 128/128/128 127/127/127
f 132/132/132 131/131/131 130/130/130
f 133/133/133 132/132/132 130/130/130
f 136/136/136 135/135/135 134/134/134
f 137/137/137 136/136/136 134/134/134
f 140/140/140 139/139/139 138/138/138
f 143/143/143 142/142/142 141/141/141
f 144/144/144 143/143/143 141/141/141
f 147/147/147 146/146/146 145/145/145
f 148/148/148 147/147/147 145/145/145
f 145/145/145 146/146/146 149/149/149
f 146/146/146 150/150/150 149/149/149
f 153/153/153 152/152/152 151/151/151
f 154/154/154 153/153/153 151/151/151
f 157/157/157 156/156/156 155/155/155
f 158/158/158 157/157/157 155/155/155
f 161/161/161 160/160/160 159/159/159
f 162/162/162 161/161/161 159/159/159
f 165/165/165 164/164/164 163/163/163
f 166/166/166 165/165/165 163/163/163
f 169/169/169 168/168/168 167/167/167
f 170/170/170 169/169/169 167/167/167
f 173/173/173 172/172/172 171/171/171
f 174/174/174 173/173/173 171/171/171
f 171/171/171 172/172/172 175/175/175
f 172/172/172 176/176/176 175/175/175
f 175/175/175 176/176/176 177/177/177
f 176/176/176 178/178/178 177/177/177
f 177/177/177 178/178/178 179/179/179
f 178/178/178 180/180/180 179/179/179
f 179/179/179 180/180/180 181/181/181
f 180/180/180 182/182/182 181/181/181
f 181/181/181 182/182/182 183/183/183
f 182/182/182 184/184/184 183/183/183
f 187/187/187 186/186/186 185/185/185
f 188/188/188 187/187/187 185/185/185
