g magnetTrapBase
v 0.04710434 5.980596 1.065903
v 0.02501432 6.579601 1.041006
v 1.675046 6.014642 0.7839871
v 1.673218 6.789515 0.7559106
v 0.006281217 8.701437 -1.089529
v 0.02936856 7.509196 -1.055206
v 1.723698 8.710546 -0.8027179
v 1.725601 7.294819 -0.7606591
v 0.04516019 6.580061 -1.050139
v 1.698351 6.776071 -0.7494085
v 1.66573 5.905594 -0.7031329
v 0.04516019 6.580061 -1.050139
v 0.02966135 5.898015 -0.985242
v 0.04514806 6.524595 0.5813898
v 1.434947 6.036038 0.5534671
v 0.03184576 6.596951 -0.5291662
v 1.41951 6.108208 -0.5541048
v 1.675046 6.014642 0.7839871
v 1.673218 6.789515 0.7559106
v 1.66573 5.905594 -0.7031329
v 1.673218 6.789515 0.7559106
v 1.698351 6.776071 -0.7494085
v 1.66573 5.905594 -0.7031329
v 1.725601 7.294819 -0.7606591
v 1.70743 7.329762 0.76756
v -1.585296 5.949646 0.8210573
v -1.601939 5.917986 -0.7394224
v -1.617915 6.369739 0.751535
v -1.601939 5.917986 -0.7394224
v -1.613334 6.383997 -0.8105173
v -1.617915 6.369739 0.751535
v -1.669208 7.724211 -0.7954481
v -1.663671 7.69104 0.8174821
v -1.706289 8.74221 0.8292523
v 0.02966135 5.898015 -0.985242
v 0.03409217 5.850679 -0.7437051
v 1.66573 5.905594 -0.7031329
v 1.464558 5.855093 -0.4853761
v 1.66573 5.905594 -0.7031329
v 1.464558 5.855093 -0.4853761
v 1.675046 6.014642 0.7839871
v 1.464558 5.855093 -0.4853761
v 1.437122 5.869185 0.5762493
v 1.675046 6.014642 0.7839871
v 0.04710434 5.980596 1.065903
v 1.675046 6.014642 0.7839871
v 0.01457869 5.876923 0.8029895
v 1.675046 6.014642 0.7839871
v 1.437122 5.869185 0.5762493
v 0.01457869 5.876923 0.8029895
v -1.585296 5.949646 0.8210573
v -1.402086 5.883008 0.5710986
v -1.601939 5.917986 -0.7394224
v -1.402315 5.859333 -0.5385267
v 0.03184576 6.596951 -0.5291662
v 1.41951 6.108208 -0.5541048
v 0.03409217 5.850679 -0.7437051
v 1.41951 6.108208 -0.5541048
v 1.464558 5.855093 -0.4853761
v 0.03409217 5.850679 -0.7437051
v 1.437122 5.869185 0.5762493
v 1.464558 5.855093 -0.4853761
v 1.434947 6.036038 0.5534671
v 1.464558 5.855093 -0.4853761
v 1.41951 6.108208 -0.5541048
v 1.434947 6.036038 0.5534671
v 1.437122 5.869185 0.5762493
v 1.434947 6.036038 0.5534671
v 0.01457869 5.876923 0.8029895
v 1.434947 6.036038 0.5534671
v 0.04514806 6.524595 0.5813898
v 0.01457869 5.876923 0.8029895
v -1.402315 5.859333 -0.5385267
v -1.402086 5.883008 0.5710986
v -1.374487 6.134613 -0.5270212
v -1.402086 5.883008 0.5710986
v -1.36303 6.071373 0.589475
v -1.374487 6.134613 -0.5270212
v 0.02501432 6.579601 1.041006
v 0.02071899 7.510717 1.066999
v 1.673218 6.789515 0.7559106
v 1.70743 7.329762 0.76756
v 1.747921 8.758435 0.8026704
v 0.02296927 8.757495 1.094969
v 1.725601 7.294819 -0.7606591
v 1.70743 7.329762 0.76756
v 1.723698 8.710546 -0.8027179
v 1.70743 7.329762 0.76756
v 1.747921 8.758435 0.8026704
v 1.723698 8.710546 -0.8027179
v -1.669208 7.724211 -0.7954481
v -1.706859 8.706573 -0.8221885
v -1.706289 8.74221 0.8292523
v 0.02071899 7.510717 1.066999
v -1.663671 7.69104 0.8174821
v 0.02296927 8.757495 1.094969
v -1.706289 8.74221 0.8292523
v 0.02501432 6.579601 1.041006
v -1.617915 6.369739 0.751535
v 0.04710434 5.980596 1.065903
v -1.585296 5.949646 0.8210573
v 0.02501432 6.579601 1.041006
v -1.585296 5.949646 0.8210573
v -1.617915 6.369739 0.751535
v 0.02501432 6.579601 1.041006
v 0.04710434 5.980596 1.065903
v 0.01457869 5.876923 0.8029895
v -1.585296 5.949646 0.8210573
v 0.01457869 5.876923 0.8029895
v -1.402086 5.883008 0.5710986
v -1.585296 5.949646 0.8210573
v 0.04514806 6.524595 0.5813898
v -1.36303 6.071373 0.589475
v 0.01457869 5.876923 0.8029895
v -1.36303 6.071373 0.589475
v -1.402086 5.883008 0.5710986
v 0.01457869 5.876923 0.8029895
v 0.03184576 6.596951 -0.5291662
v -1.374487 6.134613 -0.5270212
v 0.04514806 6.524595 0.5813898
v -1.36303 6.071373 0.589475
v -1.402315 5.859333 -0.5385267
v -1.374487 6.134613 -0.5270212
v 0.03409217 5.850679 -0.7437051
v -1.374487 6.134613 -0.5270212
v 0.03184576 6.596951 -0.5291662
v 0.03409217 5.850679 -0.7437051
v 0.02966135 5.898015 -0.985242
v -1.601939 5.917986 -0.7394224
v 0.03409217 5.850679 -0.7437051
v -1.601939 5.917986 -0.7394224
v -1.402315 5.859333 -0.5385267
v 0.03409217 5.850679 -0.7437051
v 0.04516019 6.580061 -1.050139
v -1.613334 6.383997 -0.8105173
v 0.02966135 5.898015 -0.985242
v -1.613334 6.383997 -0.8105173
v -1.601939 5.917986 -0.7394224
v 0.02966135 5.898015 -0.985242
v -1.669208 7.724211 -0.7954481
v -1.613334 6.383997 -0.8105173
v 0.02936856 7.509196 -1.055206
v 0.04516019 6.580061 -1.050139
v 0.006281217 8.701437 -1.089529
v -1.706859 8.706573 -0.8221885
vt 0.1776142 0.6572892
vt 0.1777763 0.6706492
vt 0.2125826 0.6572892
vt 0.2132598 0.6748564
vt 0.1776142 0.7178573
vt 0.1774535 0.6921732
vt 0.2149174 0.7178573
vt 0.2137666 0.6880047
vt 0.177777 0.6723217
vt 0.2133249 0.6765467
vt 0.2125826 0.6572892
vt 0.177777 0.6723217
vt 0.1776142 0.6572892
vt 0.1948081 0.0701521
vt 0.2348248 0.0701521
vt 0.1948081 0.0701521
vt 0.2348248 0.0701521
vt 0.2125826 0.6572892
vt 0.2132598 0.6748564
vt 0.2125826 0.6572892
vt 0.2132598 0.6748564
vt 0.2133249 0.6765467
vt 0.2125826 0.6572892
vt 0.2137666 0.6880047
vt 0.2137039 0.6863779
vt 0.1426457 0.6572892
vt 0.1426457 0.6572892
vt 0.1422929 0.666442
vt 0.1426457 0.6572892
vt 0.1422291 0.6680967
vt 0.1422929 0.666442
vt 0.1411403 0.6963418
vt 0.1412044 0.694681
vt 0.1403109 0.7178573
vt 0.1776142 0.6572892
vt 0.1776142 0.6561103
vt 0.2125826 0.6572892
vt 0.2085881 0.6561103
vt 0.2125826 0.6572892
vt 0.2085881 0.6561103
vt 0.2125826 0.6572892
vt 0.2085881 0.6561103
vt 0.2085881 0.6561103
vt 0.2125826 0.6572892
vt 0.1776142 0.6572892
vt 0.2125826 0.6572892
vt 0.1776142 0.6561103
vt 0.2125826 0.6572892
vt 0.2085881 0.6561103
vt 0.1776142 0.6561103
vt 0.1426457 0.6572892
vt 0.1466402 0.6561103
vt 0.1426457 0.6572892
vt 0.1466402 0.6561103
vt 0.1776142 0.6607725
vt 0.2085881 0.6607725
vt 0.1776142 0.6561103
vt 0.2085881 0.6607725
vt 0.2085881 0.6561103
vt 0.1776142 0.6561103
vt 0.2085881 0.6561103
vt 0.2085881 0.6561103
vt 0.2085881 0.6607725
vt 0.2085881 0.6561103
vt 0.2085881 0.6607725
vt 0.2085881 0.6607725
vt 0.2085881 0.6561103
vt 0.2085881 0.6607725
vt 0.1776142 0.6561103
vt 0.2085881 0.6607725
vt 0.1776142 0.6607725
vt 0.1776142 0.6561103
vt 0.1466402 0.6561103
vt 0.1466402 0.6561103
vt 0.1466402 0.6607725
vt 0.1466402 0.6561103
vt 0.1466402 0.6607725
vt 0.1466402 0.6607725
vt 0.1777763 0.6706492
vt 0.1774541 0.6905295
vt 0.2132598 0.6748564
vt 0.2137039 0.6863779
vt 0.2149174 0.7178573
vt 0.1776142 0.7178573
vt 0.2137666 0.6880047
vt 0.2137039 0.6863779
vt 0.2149174 0.7178573
vt 0.2137039 0.6863779
vt 0.2149174 0.7178573
vt 0.2149174 0.7178573
vt 0.1411403 0.6963418
vt 0.1403109 0.7178573
vt 0.1403109 0.7178573
vt 0.1774541 0.6905295
vt 0.1412044 0.694681
vt 0.1776142 0.7178573
vt 0.1403109 0.7178573
vt 0.1777763 0.6706492
vt 0.1422929 0.666442
vt 0.1776142 0.6572892
vt 0.1426457 0.6572892
vt 0.1777763 0.6706492
vt 0.1426457 0.6572892
vt 0.1422929 0.666442
vt 0.1777763 0.6706492
vt 0.1776142 0.6572892
vt 0.1776142 0.6561103
vt 0.1426457 0.6572892
vt 0.1776142 0.6561103
vt 0.1466402 0.6561103
vt 0.1426457 0.6572892
vt 0.1776142 0.6607725
vt 0.1466402 0.6607725
vt 0.1776142 0.6561103
vt 0.1466402 0.6607725
vt 0.1466402 0.6561103
vt 0.1776142 0.6561103
vt 0.1948081 0.0701521
vt 0.1547914 0.0701521
vt 0.1948081 0.0701521
vt 0.1547914 0.0701521
vt 0.1466402 0.6561103
vt 0.1466402 0.6607725
vt 0.1776142 0.6561103
vt 0.1466402 0.6607725
vt 0.1776142 0.6607725
vt 0.1776142 0.6561103
vt 0.1776142 0.6572892
vt 0.1426457 0.6572892
vt 0.1776142 0.6561103
vt 0.1426457 0.6572892
vt 0.1466402 0.6561103
vt 0.1776142 0.6561103
vt 0.177777 0.6723217
vt 0.1422291 0.6680967
vt 0.1776142 0.6572892
vt 0.1422291 0.6680967
vt 0.1426457 0.6572892
vt 0.1776142 0.6572892
vt 0.1411403 0.6963418
vt 0.1422291 0.6680967
vt 0.1774535 0.6921732
vt 0.177777 0.6723217
vt 0.1776142 0.7178573
vt 0.1403109 0.7178573
vn 0.1694855 0.04716556 0.9844034
vn 0.1694855 0.04716556 0.9844034
vn 0.1694855 0.04716556 0.9844034
vn 0.1658657 0.0360993 0.9854875
vn 0.1647983 -0.02519475 -0.9860054
vn 0.1647983 -0.02519475 -0.9860054
vn 0.1647983 -0.02519475 -0.9860054
vn 0.1674502 -0.02905112 -0.9854525
vn 0.1707836 -0.002470888 -0.9853055
vn 0.1854367 -0.05909368 -0.9808778
vn 0.1695565 -0.09716834 -0.9807186
vn 0.1695566 -0.09716835 -0.9807186
vn 0.1695566 -0.09716833 -0.9807186
vn -0.332116 -0.9414926 -0.05736263
vn -0.332116 -0.9414926 -0.05736263
vn -0.332116 -0.9414926 -0.05736263
vn -0.3325752 -0.9413705 -0.05670411
vn 0.9999771 0.002126959 -0.006420132
vn 0.9999771 0.002126959 -0.006420132
vn 0.9999771 0.002126959 -0.006420132
vn 0.9991874 -0.03653945 0.01700884
vn 0.9991874 -0.03653945 0.01700884
vn 0.9991874 -0.03653945 0.01700884
vn 0.9984959 -0.05207955 0.01713599
vn 0.9978942 -0.06348152 0.01331657
vn -0.9970788 -0.07540654 0.01216352
vn -0.9970788 -0.07540654 0.01216352
vn -0.9970788 -0.07540653 0.01216352
vn -0.9996843 -0.02492635 -0.00315968
vn -0.9996843 -0.02492635 -0.00315968
vn -0.9996843 -0.02492635 -0.00315968
vn -0.9991282 -0.04161695 -0.003310368
vn -0.9993926 -0.0347435 0.002716137
vn -0.9991745 -0.040539 0.002596242
vn 0.03779517 -0.9805018 -0.1928412
vn 0.03779517 -0.9805018 -0.1928412
vn 0.03779517 -0.9805018 -0.1928412
vn 0.03778876 -0.9805698 -0.1924965
vn 0.3111036 -0.9479712 0.06756414
vn 0.3111036 -0.9479712 0.06756414
vn 0.3111036 -0.9479712 0.06756415
vn 0.5057753 -0.8623168 0.02451842
vn 0.5057753 -0.8623168 0.02451842
vn 0.5057753 -0.8623168 0.02451842
vn 0.08126798 -0.9305999 0.3569025
vn 0.08126798 -0.9305999 0.3569025
vn 0.08126797 -0.9305999 0.3569025
vn 0.07684348 -0.8559481 0.5113198
vn 0.07684347 -0.8559481 0.5113198
vn 0.07684348 -0.8559481 0.5113198
vn -0.3143459 -0.9490392 0.02260753
vn -0.3143459 -0.9490392 0.02260753
vn -0.3143459 -0.9490393 0.02260754
vn -0.3006952 -0.9535019 0.02040543
vn -0.07986271 -0.2756301 0.9579406
vn -0.07986271 -0.2756301 0.9579405
vn -0.07986271 -0.2756301 0.9579405
vn -0.1736719 0.2291563 0.9577711
vn -0.1736719 0.2291563 0.9577711
vn -0.1736719 0.2291563 0.9577711
vn -0.9995353 -0.01652483 -0.02561177
vn -0.9995353 -0.01652482 -0.02561176
vn -0.9995353 -0.01652483 -0.02561177
vn -0.9846359 -0.1746042 0.002347134
vn -0.9846359 -0.1746042 0.002347134
vn -0.9846359 -0.1746042 0.002347134
vn -0.1566685 -0.1356192 -0.9782956
vn -0.1566685 -0.1356192 -0.9782956
vn -0.1566685 -0.1356192 -0.9782956
vn -0.1297923 -0.3154955 -0.9400088
vn -0.1297923 -0.3154955 -0.9400088
vn -0.1297923 -0.3154955 -0.9400088
vn 0.9949194 -0.1006566 0.001942504
vn 0.9949194 -0.1006565 0.001942504
vn 0.9949194 -0.1006566 0.001942504
vn 0.9793621 -0.2009738 -0.02143419
vn 0.9793621 -0.2009737 -0.02143419
vn 0.9793621 -0.2009737 -0.02143419
vn 0.1736803 -0.02668013 0.9844406
vn 0.1736803 -0.02668014 0.9844406
vn 0.1736803 -0.02668013 0.9844406
vn 0.1713671 -0.03208514 0.9846846
vn 0.1670414 -0.02241471 0.9856951
vn 0.1670414 -0.02241471 0.9856951
vn 0.9999284 0.001696248 0.01185042
vn 0.9999284 0.001696248 0.01185042
vn 0.9999284 0.001696248 0.01185041
vn 0.9995071 -0.02797786 -0.01424674
vn 0.9995071 -0.02797786 -0.01424674
vn 0.9995071 -0.02797786 -0.01424674
vn -0.9992668 -0.03826746 0.001170914
vn -0.9992668 -0.03826746 0.001170914
vn -0.9992668 -0.03826746 0.001170914
vn -0.1487957 -0.02191047 0.9886252
vn -0.1487957 -0.02191048 0.9886252
vn -0.1487957 -0.02191047 0.9886252
vn -0.1517057 -0.01721658 0.9882758
vn -0.1664516 -0.05490224 0.98452
vn -0.1664516 -0.05490224 0.98452
vn -0.1488975 0.03558259 0.9882122
vn -0.1488975 0.03558259 0.9882122
vn -0.1488975 0.03558259 0.9882122
vn -0.1897132 0.1459511 0.9709311
vn -0.1897132 0.1459511 0.9709311
vn -0.1897133 0.1459511 0.9709311
vn -0.03799699 -0.9280036 0.3706285
vn -0.03799699 -0.9280036 0.3706285
vn -0.03799699 -0.9280036 0.3706285
vn -0.04162563 -0.9725882 0.2287785
vn -0.04162563 -0.9725882 0.2287785
vn -0.04162563 -0.9725882 0.2287784
vn 0.09962904 -0.3263194 -0.9399945
vn 0.09962904 -0.3263194 -0.9399945
vn 0.09962904 -0.3263193 -0.9399945
vn 0.1614842 0.06260115 -0.9848878
vn 0.1614842 0.06260116 -0.9848878
vn 0.1614842 0.06260116 -0.9848878
vn 0.3115495 -0.9479702 -0.06549447
vn 0.3115495 -0.9479702 -0.06549446
vn 0.3115495 -0.9479702 -0.06549446
vn 0.3055791 -0.9504607 -0.05697229
vn 0.1408594 -0.05555236 0.9884698
vn 0.1408594 -0.05555236 0.9884698
vn 0.1408594 -0.05555236 0.9884698
vn 0.09182383 -0.2748681 0.9570872
vn 0.09182383 -0.2748681 0.9570872
vn 0.09182383 -0.2748681 0.9570872
vn -0.04084576 -0.9806543 -0.1914386
vn -0.04084576 -0.9806543 -0.1914387
vn -0.04084576 -0.9806543 -0.1914387
vn -0.04051076 -0.9692486 -0.2427264
vn -0.04051075 -0.9692486 -0.2427264
vn -0.04051076 -0.9692486 -0.2427263
vn -0.1318671 -0.090925 -0.9870885
vn -0.1318671 -0.090925 -0.9870885
vn -0.1318671 -0.090925 -0.9870885
vn -0.1490606 -0.1526917 -0.9769679
vn -0.1490606 -0.1526917 -0.9769679
vn -0.1490606 -0.1526917 -0.9769679
vn -0.1505691 0.004838269 -0.9885876
vn -0.1505691 0.004838269 -0.9885876
vn -0.1505691 0.004838269 -0.9885876
vn -0.1420871 -0.007813109 -0.9898233
vn -0.1541999 -0.03279019 -0.9874955
vn -0.1541998 -0.03279018 -0.9874955
g magnetTrapBase_0
f 3/3/3 2/2/2 1/1/1
f 3/3/3 4/4/4 2/2/2
f 7/7/7 6/6/6 5/5/5
f 7/7/7 8/8/8 6/6/6
f 8/8/8 9/9/9 6/6/6
f 8/8/8 10/10/10 9/9/9
f 12/12/12 10/10/10 11/11/11
f 12/12/12 11/11/11 13/13/13
f 16/16/16 15/15/15 14/14/14
f 16/16/16 17/17/17 15/15/15
f 20/20/20 19/19/19 18/18/18
f 23/23/23 22/22/22 21/21/21
f 24/24/24 21/21/21 22/22/22
f 24/24/24 25/25/25 21/21/21
f 28/28/28 27/27/27 26/26/26
f 31/31/31 30/30/30 29/29/29
f 31/31/31 32/32/32 30/30/30
f 31/31/31 33/33/33 32/32/32
f 34/34/34 32/32/32 33/33/33
f 37/37/37 36/36/36 35/35/35
f 37/37/37 38/38/38 36/36/36
f 41/41/41 40/40/40 39/39/39
f 44/44/44 43/43/43 42/42/42
f 47/47/47 46/46/46 45/45/45
f 50/50/50 49/49/49 48/48/48
f 53/53/53 52/52/52 51/51/51
f 53/53/53 54/54/54 52/52/52
f 57/57/57 56/56/56 55/55/55
f 60/60/60 59/59/59 58/58/58
f 63/63/63 62/62/62 61/61/61
f 66/66/66 65/65/65 64/64/64
f 69/69/69 68/68/68 67/67/67
f 72/72/72 71/71/71 70/70/70
f 75/75/75 74/74/74 73/73/73
f 78/78/78 77/77/77 76/76/76
f 81/81/81 80/80/80 79/79/79
f 81/81/81 82/82/82 80/80/80
f 80/80/80 82/82/82 83/83/83
f 80/80/80 83/83/83 84/84/84
f 87/87/87 86/86/86 85/85/85
f 90/90/90 89/89/89 88/88/88
f 93/93/93 92/92/92 91/91/91
f 96/96/96 95/95/95 94/94/94
f 96/96/96 97/97/97 95/95/95
f 98/98/98 94/94/94 95/95/95
f 98/98/98 95/95/95 99/99/99
f 102/102/102 101/101/101 100/100/100
f 105/105/105 104/104/104 103/103/103
f 108/108/108 107/107/107 106/106/106
f 111/111/111 110/110/110 109/109/109
f 114/114/114 113/113/113 112/112/112
f 117/117/117 116/116/116 115/115/115
f 120/120/120 119/119/119 118/118/118
f 120/120/120 121/121/121 119/119/119
f 124/124/124 123/123/123 122/122/122
f 127/127/127 126/126/126 125/125/125
f 130/130/130 129/129/129 128/128/128
f 133/133/133 132/132/132 131/131/131
f 136/136/136 135/135/135 134/134/134
f 139/139/139 138/138/138 137/137/137
f 142/142/142 141/141/141 140/140/140
f 142/142/142 143/143/143 141/141/141
f 144/144/144 142/142/142 140/140/140
f 144/144/144 140/140/140 145/145/145
