g merchantFlag
v 0.3758604 0.01188384 0.6606145
v 0.4370443 -0.01151811 0.6609921
v 0.4989302 0.3626192 0.6602256
v 0.4411222 0.3557424 0.6604069
v 0.5772535 0.8406504 0.6646276
v 0.5350096 0.8393406 0.6649771
v 1.014315 3.440558 0.6361391
v 0.9778849 3.448531 0.6369683
v 0.4370443 -0.01151811 0.6609921
v 0.4676878 -0.02217768 0.7178996
v 0.5278837 0.3669821 0.7105494
v 0.4989302 0.3626192 0.6602256
v 0.5986311 0.8420011 0.7017161
v 0.5772535 0.8406504 0.6646276
v 1.033305 3.437209 0.6688902
v 1.014315 3.440558 0.6361391
v 0.4676878 -0.02217768 0.7178996
v 0.4371435 -0.009435032 0.7744294
v 0.4990217 0.3644717 0.7610502
v 0.5278837 0.3669821 0.7105494
v 0.5777494 0.8419366 0.7391095
v 0.5986311 0.8420011 0.7017161
v 1.015811 3.441509 0.7023373
v 1.033305 3.437209 0.6688902
v 0.4371435 -0.009435032 0.7744294
v 0.3759634 0.01396726 0.7740557
v 0.44121 0.3575945 0.7612277
v 0.4990217 0.3644717 0.7610502
v 0.5355055 0.8404577 0.7394606
v 0.5777494 0.8419366 0.7391095
v 0.9793574 3.4489 0.7031842
v 1.015811 3.441509 0.7023373
v 0.3759634 0.01396726 0.7740557
v 0.3453237 0.02462658 0.7171482
v 0.4122602 0.3532278 0.7109044
v 0.44121 0.3575945 0.7612277
v 0.5140974 0.838993 0.7023822
v 0.5355055 0.8404577 0.7394606
v 0.960261 3.451884 0.6704627
v 0.9793574 3.4489 0.7031842
v 0.3453237 0.02462658 0.7171482
v 0.3758604 0.01188384 0.6606145
v 0.4411222 0.3557424 0.6604069
v 0.4122602 0.3532278 0.7109044
v 0.5350096 0.8393406 0.6649771
v 0.5140974 0.838993 0.7023822
v 0.9778849 3.448531 0.6369683
v 0.960261 3.451884 0.6704627
v 0.4370443 -0.01151811 0.6609921
v 0.3758604 0.01188384 0.6606145
v 0.4001371 -0.03375761 0.7181715
v 0.4676878 -0.02217768 0.7178996
v 0.4370443 -0.01151811 0.6609921
v 0.4001371 -0.03375761 0.7181715
v 0.4371435 -0.009435032 0.7744294
v 0.4676878 -0.02217768 0.7178996
v 0.4001371 -0.03375761 0.7181715
v 0.3759634 0.01396726 0.7740557
v 0.4371435 -0.009435032 0.7744294
v 0.4001371 -0.03375761 0.7181715
v 0.3453237 0.02462658 0.7171482
v 0.3759634 0.01396726 0.7740557
v 0.4001371 -0.03375761 0.7181715
v 0.3758604 0.01188384 0.6606145
v 0.3453237 0.02462658 0.7171482
v 0.4001371 -0.03375761 0.7181715
v 1.849719 2.691574 0.7390924
v 1.671799 2.783195 0.8188975
v 1.719699 2.897452 0.7914965
v 1.445435 2.916307 0.7323624
v 1.228449 3.093104 0.7298801
v 1.277973 3.216889 0.685196
v 1.472545 3.047791 0.7093459
v 1.228449 3.093104 0.7298801
v 1.011706 3.304343 0.7130856
v 1.028575 3.409049 0.7119085
v 1.277973 3.216889 0.685196
v 1.671799 2.783195 0.8188975
v 1.445435 2.916307 0.7323624
v 1.472545 3.047791 0.7093459
v 1.719699 2.897452 0.7914965
v 1.588059 2.622942 0.9028148
v 1.671799 2.783195 0.8188975
v 1.849719 2.691574 0.7390924
v 1.781373 2.387063 0.833589
v 1.566011 2.542853 0.926471
v 1.357914 2.605207 0.7551619
v 1.445435 2.916307 0.7323624
v 1.671799 2.783195 0.8188975
v 1.588059 2.622942 0.9028148
v 1.118972 2.722559 0.7866988
v 1.228449 3.093104 0.7298801
v 1.445435 2.916307 0.7323624
v 1.357914 2.605207 0.7551619
v 1.011706 3.304343 0.7130856
v 1.228449 3.093104 0.7298801
v 1.118972 2.722559 0.7866988
v 0.9266139 2.858364 0.7171425
v 1.566011 2.542853 0.926471
v 1.33528 2.498451 0.7848077
v 1.357914 2.605207 0.7551619
v 1.588059 2.622942 0.9028148
v 1.33528 2.498451 0.7848077
v 1.091411 2.616641 0.8297578
v 1.118972 2.722559 0.7866988
v 1.357914 2.605207 0.7551619
v 1.091411 2.616641 0.8297578
v 0.9097453 2.753689 0.7183158
v 0.9266139 2.858364 0.7171425
v 1.118972 2.722559 0.7866988
v 2.033616 2.364529 0.8619824
v 1.781373 2.387063 0.833589
v 1.849719 2.691574 0.7390924
v 0.9266139 2.858364 0.7171425
v 0.9097453 2.753689 0.7183158
v 0.8471461 2.763767 0.7165069
v 0.8640147 2.868442 0.7153336
v 1.028575 3.409049 0.7119085
v 1.011706 3.304343 0.7130856
v 0.9490992 3.314421 0.7112767
v 0.9659678 3.419127 0.7100996
v 0.8640147 2.868442 0.7153336
v 0.8471461 2.763767 0.7165069
v 0.8218928 2.767322 0.6729304
v 0.8387614 2.872027 0.6717571
v 0.9659678 3.419127 0.7100996
v 0.9490992 3.314421 0.7112767
v 0.9238459 3.318007 0.6677002
v 0.9407145 3.422682 0.6665269
v 0.8387614 2.872027 0.6717571
v 0.8218928 2.767322 0.6729304
v 0.8695689 2.759073 0.6221393
v 0.8864375 2.863779 0.620966
v 0.9407145 3.422682 0.6665269
v 0.9238459 3.318007 0.6677002
v 0.971522 3.309758 0.6169053
v 0.9883906 3.414433 0.6157358
v 0.8864375 2.863779 0.620966
v 0.8695689 2.759073 0.6221393
v 0.9189311 2.751483 0.6541592
v 0.9358073 2.856189 0.652986
v 0.9883906 3.414433 0.6157358
v 0.971522 3.309758 0.6169053
v 1.020892 3.302168 0.6489291
v 1.03776 3.406843 0.6477596
vt 0.5062928 0.2299434
vt 0.5016063 0.2290643
vt 0.5020537 0.2564454
vt 0.5061042 0.2552117
vt 0.5026823 0.29137
vt 0.5056908 0.2907305
vt 0.5030159 0.3549396
vt 0.5057293 0.3550298
vt 0.5016063 0.2290643
vt 0.4993063 0.2281702
vt 0.5000671 0.2566581
vt 0.5020537 0.2564454
vt 0.5011907 0.2913948
vt 0.5026823 0.29137
vt 0.501632 0.354641
vt 0.5030159 0.3549396
vt 0.4993063 0.2281702
vt 0.5016928 0.228155
vt 0.5021306 0.2556372
vt 0.5000671 0.2566581
vt 0.5027072 0.2907731
vt 0.5011907 0.2913948
vt 0.5029607 0.3544094
vt 0.501632 0.354641
vt 0.5016928 0.228155
vt 0.5063792 0.229034
vt 0.5061811 0.2544035
vt 0.5021306 0.2556372
vt 0.5057136 0.290121
vt 0.5027072 0.2907731
vt 0.5056677 0.3544579
vt 0.5029607 0.3544094
vt 0.5063792 0.229034
vt 0.5086792 0.2299283
vt 0.5081679 0.2541907
vt 0.5061811 0.2544035
vt 0.5072061 0.2900876
vt 0.5057136 0.290121
vt 0.5070545 0.3547279
vt 0.5056677 0.3544579
vt 0.5086792 0.2299283
vt 0.5062928 0.2299434
vt 0.5061042 0.2552117
vt 0.5081679 0.2541907
vt 0.5056908 0.2907305
vt 0.5072061 0.2900876
vt 0.5057293 0.3550298
vt 0.5070545 0.3547279
vt 0.5016063 0.2290643
vt 0.5062928 0.2299434
vt 0.5039928 0.2264762
vt 0.4993063 0.2281702
vt 0.5016063 0.2290643
vt 0.5039928 0.2264762
vt 0.5016928 0.228155
vt 0.4993063 0.2281702
vt 0.5039928 0.2264762
vt 0.5063792 0.229034
vt 0.5016928 0.228155
vt 0.5039928 0.2264762
vt 0.5086792 0.2299283
vt 0.5063792 0.229034
vt 0.5039928 0.2264762
vt 0.5062928 0.2299434
vt 0.5086792 0.2299283
vt 0.5039928 0.2264762
vt 0.8821695 0.7355217
vt 0.6983705 0.6802698
vt 0.6983705 0.8441373
vt 0.466886 0.7120324
vt 0.2354029 0.7315431
vt 0.2354035 0.9414641
vt 0.4668866 0.9044242
vt 0.2354029 0.7315431
vt 0.003920346 0.7566295
vt 0.003920943 0.9890826
vt 0.2354035 0.9414641
vt 0.6983705 0.6802698
vt 0.466886 0.7120324
vt 0.4668866 0.9044242
vt 0.6983705 0.8441373
vt 0.6983698 0.315408
vt 0.6983705 0.6802698
vt 0.8821695 0.7355217
vt 0.8821695 0.2532365
vt 0.6983698 0.1515423
vt 0.466886 0.2836471
vt 0.466886 0.7120324
vt 0.6983705 0.6802698
vt 0.6983698 0.315408
vt 0.2354029 0.2641358
vt 0.2354029 0.7315431
vt 0.466886 0.7120324
vt 0.466886 0.2836471
vt 0.003920346 0.7566295
vt 0.2354029 0.7315431
vt 0.2354029 0.2641358
vt 0.003920346 0.2390494
vt 0.6983698 0.1515423
vt 0.466886 0.09125274
vt 0.466886 0.2836471
vt 0.6983698 0.315408
vt 0.466886 0.09125274
vt 0.2354035 0.05421591
vt 0.2354029 0.2641358
vt 0.466886 0.2836471
vt 0.2354035 0.05421591
vt 0.003920943 0.006596446
vt 0.003920346 0.2390494
vt 0.2354029 0.2641358
vt 0.9824248 0.5173116
vt 0.8821695 0.2532365
vt 0.8821695 0.7355217
vt 0.9504215 0.8862956
vt 0.8169741 0.9079473
vt 0.8169741 0.7823087
vt 0.9504215 0.8039601
vt 0.9504215 0.8862956
vt 0.8169741 0.9079473
vt 0.8169741 0.7823087
vt 0.9504215 0.8039601
vt 0.9504215 0.8862956
vt 0.8169741 0.9079473
vt 0.8169741 0.7823087
vt 0.9504215 0.8039601
vt 0.9504215 0.8862956
vt 0.8169741 0.9079473
vt 0.8169741 0.7823087
vt 0.9504215 0.8039601
vt 0.9504215 0.8862956
vt 0.8169741 0.9079473
vt 0.8169741 0.7823087
vt 0.9504215 0.8039601
vt 0.9504215 0.8862956
vt 0.8169741 0.9079473
vt 0.8169741 0.7823087
vt 0.9504215 0.8039601
vt 0.9504215 0.8862956
vt 0.8169741 0.9079473
vt 0.8169741 0.7823087
vt 0.9504215 0.8039601
vt 0.9504215 0.8862956
vt 0.8169741 0.9079473
vt 0.8169741 0.7823087
vt 0.9504215 0.8039601
vn 0.00142646 -0.001609083 -0.9999977
vn 0.00142646 -0.001609083 -0.9999977
vn 0.001426459 -0.001609083 -0.9999977
vn 0.00142646 -0.001609083 -0.9999977
vn -0.006157635 0.01043231 -0.9999267
vn -0.006157635 0.01043231 -0.9999267
vn -0.01567412 -0.008196551 -0.9998436
vn -0.01567412 -0.00819655 -0.9998436
vn 0.8615057 -0.1429702 -0.4872037
vn 0.8615057 -0.1429702 -0.4872037
vn 0.8615056 -0.1429702 -0.4872037
vn 0.8615057 -0.1429702 -0.4872037
vn 0.8622723 -0.1371388 -0.4875238
vn 0.8622723 -0.1371388 -0.4875238
vn 0.854234 -0.1492173 -0.4980144
vn 0.854234 -0.1492173 -0.4980145
vn 0.8624262 -0.124642 0.490597
vn 0.8624262 -0.124642 0.490597
vn 0.8624262 -0.124642 0.490597
vn 0.8624262 -0.124642 0.4905971
vn 0.8654934 -0.1201113 0.4863072
vn 0.8654934 -0.1201114 0.4863072
vn 0.8671886 -0.1392843 0.4781045
vn 0.8671886 -0.1392843 0.4781046
vn 0.003338439 0.03590884 0.9993495
vn 0.003338439 0.03590885 0.9993495
vn 0.003338439 0.03590885 0.9993495
vn 0.003338439 0.03590885 0.9993495
vn 0.001504411 0.04519593 0.9989771
vn 0.001504411 0.04519593 0.9989771
vn 0.0160708 0.01130224 0.9998071
vn 0.0160708 0.01130224 0.9998071
vn -0.8549468 0.1818939 0.4857783
vn -0.8549468 0.1818939 0.4857783
vn -0.8549468 0.1818939 0.4857783
vn -0.8549468 0.1818939 0.4857783
vn -0.8563341 0.1884301 0.4808179
vn -0.8563341 0.1884301 0.4808179
vn -0.8534334 0.1519855 0.4985496
vn -0.8534334 0.1519855 0.4985496
vn -0.8558884 0.1635514 -0.490618
vn -0.8558884 0.1635514 -0.490618
vn -0.8558884 0.1635514 -0.4906181
vn -0.8558884 0.1635514 -0.490618
vn -0.8596565 0.1716116 -0.4811862
vn -0.8596566 0.1716116 -0.4811861
vn -0.8671425 0.1421497 -0.477344
vn -0.8671425 0.1421497 -0.477344
vn -0.3046333 -0.8046768 -0.5096015
vn -0.3046333 -0.8046768 -0.5096015
vn -0.3046333 -0.8046768 -0.5096015
vn 0.1618742 -0.9505057 -0.2652087
vn 0.1618742 -0.9505057 -0.2652087
vn 0.1618742 -0.9505057 -0.2652087
vn 0.1623687 -0.9401309 0.2996502
vn 0.1623687 -0.9401309 0.2996502
vn 0.1623687 -0.9401309 0.2996501
vn -0.3037234 -0.7854012 0.5393489
vn -0.3037234 -0.7854012 0.5393488
vn -0.3037234 -0.7854012 0.5393489
vn -0.7067873 -0.6590549 0.2570959
vn -0.7067873 -0.6590549 0.2570958
vn -0.7067873 -0.6590549 0.2570958
vn -0.7072285 -0.6680313 -0.2314347
vn -0.7072286 -0.6680312 -0.2314347
vn -0.7072286 -0.6680313 -0.2314348
vn 0.4253976 0.03850403 0.9041871
vn 0.4253976 0.03850402 0.9041871
vn 0.4253976 0.03850402 0.9041871
vn 0.1222515 0.2199756 0.9678147
vn 0.1222515 0.2199756 0.9678147
vn 0.1222515 0.2199756 0.9678147
vn 0.1222515 0.2199756 0.9678147
vn 0.1521568 0.1518105 0.9766278
vn 0.1521567 0.1518105 0.9766278
vn 0.1521567 0.1518105 0.9766278
vn 0.1521568 0.1518105 0.9766278
vn -0.187381 0.2519835 0.949417
vn -0.1873811 0.2519836 0.949417
vn -0.1873811 0.2519836 0.949417
vn -0.1873811 0.2519836 0.949417
vn 0.4909846 0.1675169 0.8549106
vn 0.4909846 0.1675169 0.8549106
vn 0.4909846 0.1675169 0.8549106
vn 0.4909846 0.1675169 0.8549106
vn 0.4697416 0.1286546 0.8733789
vn -0.3637233 0.3294239 0.8713124
vn -0.3637233 0.3294239 0.8713124
vn -0.3637233 0.3294239 0.8713124
vn -0.3637233 0.3294239 0.8713124
vn 0.1160356 0.08208243 0.9898476
vn 0.1160356 0.08208242 0.9898476
vn 0.1160356 0.08208243 0.9898476
vn 0.1160356 0.08208243 0.9898476
vn -0.1214084 0.1025375 0.9872923
vn -0.1214084 0.1025375 0.9872923
vn -0.1214084 0.1025375 0.9872923
vn -0.1214084 0.1025375 0.9872923
vn -0.5317026 0.3474878 0.7723629
vn -0.5317027 0.3474879 0.7723629
vn -0.5317028 0.3474879 0.7723629
vn -0.5317027 0.3474878 0.7723629
vn 0.2708093 0.2535473 0.9286421
vn 0.2708093 0.2535472 0.9286421
vn 0.2708093 0.2535472 0.9286421
vn 0.2708093 0.2535472 0.9286421
vn -0.2666317 0.2516626 0.930362
vn -0.2666317 0.2516626 0.930362
vn -0.2666317 0.2516626 0.930362
vn -0.2666317 0.2516626 0.930362
vn -0.07876211 0.3115411 0.9469628
vn -0.0787621 0.3115411 0.9469628
vn -0.07876211 0.3115411 0.9469628
vn -0.02639612 0.01545758 0.999532
vn -0.02639612 0.01545758 0.999532
vn -0.02639612 0.01545758 0.999532
vn -0.02639612 0.01545758 0.999532
vn -0.02638765 0.01548759 0.9995317
vn -0.02638765 0.01548759 0.9995317
vn -0.02638765 0.01548759 0.9995317
vn -0.02638765 0.01548759 0.9995317
vn -0.8512228 0.1428161 0.5049983
vn -0.8512229 0.1428162 0.5049983
vn -0.8512229 0.1428162 0.5049983
vn -0.8512229 0.1428162 0.5049983
vn -0.851212 0.1428242 0.5050144
vn -0.851212 0.1428241 0.5050144
vn -0.851212 0.1428241 0.5050144
vn -0.851212 0.1428242 0.5050144
vn -0.7160927 0.1076379 -0.6896559
vn -0.7160927 0.1076379 -0.689656
vn -0.7160927 0.1076379 -0.6896559
vn -0.7160927 0.1076379 -0.689656
vn -0.7160993 0.1076827 -0.6896421
vn -0.7160994 0.1076827 -0.689642
vn -0.7160993 0.1076827 -0.689642
vn -0.7160993 0.1076827 -0.6896421
vn 0.5313829 -0.09506026 -0.8417813
vn 0.5313829 -0.09506025 -0.8417813
vn 0.5313829 -0.09506025 -0.8417813
vn 0.5313829 -0.09506027 -0.8417814
vn 0.5314032 -0.09504164 -0.8417705
vn 0.5314032 -0.09504166 -0.8417706
vn 0.5314032 -0.09504164 -0.8417705
vn 0.5314032 -0.09504166 -0.8417706
g merchantFlag_0
f 3/3/3 2/2/2 1/1/1
f 4/4/4 3/3/3 1/1/1
f 5/5/5 3/3/3 4/4/4
f 6/6/6 5/5/5 4/4/4
f 7/7/7 5/5/5 6/6/6
f 8/8/8 7/7/7 6/6/6
f 11/11/11 10/10/10 9/9/9
f 12/12/12 11/11/11 9/9/9
f 13/13/13 11/11/11 12/12/12
f 14/14/14 13/13/13 12/12/12
f 15/15/15 13/13/13 14/14/14
f 16/16/16 15/15/15 14/14/14
f 19/19/19 18/18/18 17/17/17
f 20/20/20 19/19/19 17/17/17
f 21/21/21 19/19/19 20/20/20
f 22/22/22 21/21/21 20/20/20
f 23/23/23 21/21/21 22/22/22
f 24/24/24 23/23/23 22/22/22
f 27/27/27 26/26/26 25/25/25
f 28/28/28 27/27/27 25/25/25
f 29/29/29 27/27/27 28/28/28
f 30/30/30 29/29/29 28/28/28
f 31/31/31 29/29/29 30/30/30
f 32/32/32 31/31/31 30/30/30
f 35/35/35 34/34/34 33/33/33
f 36/36/36 35/35/35 33/33/33
f 37/37/37 35/35/35 36/36/36
f 38/38/38 37/37/37 36/36/36
f 39/39/39 37/37/37 38/38/38
f 40/40/40 39/39/39 38/38/38
f 43/43/43 42/42/42 41/41/41
f 44/44/44 43/43/43 41/41/41
f 45/45/45 43/43/43 44/44/44
f 46/46/46 45/45/45 44/44/44
f 47/47/47 45/45/45 46/46/46
f 48/48/48 47/47/47 46/46/46
f 51/51/51 50/50/50 49/49/49
f 54/54/54 53/53/53 52/52/52
f 57/57/57 56/56/56 55/55/55
f 60/60/60 59/59/59 58/58/58
f 63/63/63 62/62/62 61/61/61
f 66/66/66 65/65/65 64/64/64
g merchantFlag_1
f 69/69/69 68/68/68 67/67/67
f 72/72/72 71/71/71 70/70/70
f 73/73/73 72/72/72 70/70/70
f 76/76/76 75/75/75 74/74/74
f 77/77/77 76/76/76 74/74/74
f 80/80/80 79/79/79 78/78/78
f 81/81/81 80/80/80 78/78/78
f 84/84/84 83/83/83 82/82/82
f 85/85/85 84/84/84 82/82/82
f 82/82/82 86/86/86 85/85/85
f 89/89/89 88/88/88 87/87/87
f 90/90/90 89/89/89 87/87/87
f 93/93/93 92/92/92 91/91/91
f 94/94/94 93/93/93 91/91/91
f 97/97/97 96/96/96 95/95/95
f 98/98/98 97/97/97 95/95/95
f 101/101/101 100/100/100 99/99/99
f 102/102/102 101/101/101 99/99/99
f 105/105/105 104/104/104 103/103/103
f 106/106/106 105/105/105 103/103/103
f 109/109/109 108/108/108 107/107/107
f 110/110/110 109/109/109 107/107/107
f 113/113/113 112/112/112 111/111/111
f 116/116/116 115/115/115 114/114/114
f 117/117/117 116/116/116 114/114/114
f 120/120/120 119/119/119 118/118/118
f 121/121/121 120/120/120 118/118/118
f 124/124/124 123/123/123 122/122/122
f 125/125/125 124/124/124 122/122/122
f 128/128/128 127/127/127 126/126/126
f 129/129/129 128/128/128 126/126/126
f 132/132/132 131/131/131 130/130/130
f 133/133/133 132/132/132 130/130/130
f 136/136/136 135/135/135 134/134/134
f 137/137/137 136/136/136 134/134/134
f 140/140/140 139/139/139 138/138/138
f 141/141/141 140/140/140 138/138/138
f 144/144/144 143/143/143 142/142/142
f 145/145/145 144/144/144 142/142/142
