g midnightLanternLamp
v -0.02432457 -0.6306311 0.00570407
v -0.02432457 0.02389459 0.00570407
v 0.001849441 -0.6306311 0.03062671
v 0.001849441 0.02389459 0.03062671
v 0.0007373808 0.02389459 -0.02034482
v 0.0007373808 -0.6306311 -0.02034482
v 0.02699562 0.02389459 0.004550125
v 0.02699562 -0.6306311 0.004550125
v 0.02699562 -0.6306311 0.004550125
v 0.0007373808 -0.6306311 -0.02034482
v 0.001849441 -0.6306311 0.03062671
v -0.02432457 -0.6306311 0.00570407
v 0.001849441 -0.6306311 0.03062671
v 0.001849441 0.02389459 0.03062671
v 0.02699562 -0.6306311 0.004550125
v 0.02699562 0.02389459 0.004550125
v 0.0007373808 -0.6306311 -0.02034482
v 0.0007373808 0.02389459 -0.02034482
v -0.02432457 -0.6306311 0.00570407
v -0.02432457 0.02389459 0.00570407
v 0.04376869 -0.8495446 -0.09837811
v 0.04515785 -0.5994831 -0.03611218
v 0.0428318 -0.8063391 -0.1435304
v 0.04448036 -0.5509333 -0.06965382
v 0.04788734 -0.5500565 0.08492793
v 0.04724953 -0.6003599 0.05622912
v 0.04953346 -0.806446 0.1546633
v 0.04847877 -0.8494161 0.1095489
v -0.04316673 -0.5509333 -0.06787243
v -0.04248222 -0.5994831 -0.03430966
v -0.04487419 -0.8063391 -0.1417305
v -0.04380516 -0.8495446 -0.09657292
v -0.0396862 -0.5500565 0.08673495
v -0.04032402 -0.6003599 0.05803614
v -0.03809929 -0.806446 0.1564878
v -0.03915397 -0.8494161 0.1113733
v -0.04316673 -0.5509333 -0.06787243
v -0.04487419 -0.8063391 -0.1417305
v 0.04448036 -0.5509333 -0.06965382
v 0.0428318 -0.8063391 -0.1435304
v -0.04487419 -0.8063391 -0.1417305
v -0.04380516 -0.8495446 -0.09657292
v 0.0428318 -0.8063391 -0.1435304
v 0.04376869 -0.8495446 -0.09837811
v -0.04380516 -0.8495446 -0.09657292
v -0.04248222 -0.5994831 -0.03430966
v 0.04376869 -0.8495446 -0.09837811
v 0.04515785 -0.5994831 -0.03611218
v -0.03915397 -0.8494161 0.1113733
v -0.03809929 -0.806446 0.1564878
v 0.04847877 -0.8494161 0.1095489
v 0.04953346 -0.806446 0.1546633
v -0.03809929 -0.806446 0.1564878
v -0.0396862 -0.5500565 0.08673495
v 0.04953346 -0.806446 0.1546633
v 0.04788734 -0.5500565 0.08492793
v -0.04032402 -0.6003599 0.05803614
v -0.03915397 -0.8494161 0.1113733
v 0.04724953 -0.6003599 0.05622912
v 0.04847877 -0.8494161 0.1095489
v 0.04788734 -0.5500565 0.08492793
v -0.0396862 -0.5500565 0.08673495
v 0.04448036 -0.5509333 -0.06965382
v -0.04316673 -0.5509333 -0.06787243
v -0.04248222 -0.5994831 -0.03430966
v -0.04032402 -0.6003599 0.05803614
v 0.04515785 -0.5994831 -0.03611218
v 0.04724953 -0.6003599 0.05622912
v -0.1151015 -1.311895 0.1678792
v -0.1180572 -0.9017287 0.1555815
v 0.1400492 -1.317367 0.1537003
v 0.1318473 -0.9033321 0.151687
v -0.2110311 -0.8353924 -0.2055511
v 0.2055753 -0.8380643 -0.2103006
v 0.004248428 -0.6499358 0.0003720393
v -0.1285906 -0.8982439 -0.146938
v -0.1251238 -1.314075 -0.1584793
v 0.1243906 -0.9037381 -0.1572581
v 0.1359592 -1.319676 -0.1576429
v 0.170532 -1.313733 0.123226
v 0.1546226 -0.8958924 0.1289592
v 0.154119 -1.321215 -0.1394379
v 0.1572459 -0.9048714 -0.1260302
v -0.1632684 -1.310997 -0.1191322
v -0.1566637 -0.9074581 -0.1158549
v -0.1533843 -1.314032 0.1300527
v -0.1444503 -0.9003818 0.1309378
v -0.2070708 -0.8321427 0.2211214
v 0.004248428 -0.6499358 0.0003720393
v 0.2252952 -0.8322278 0.2113648
v 0.004248428 -0.6499358 0.0003720393
v 0.2055753 -0.8380643 -0.2103006
v 0.2252952 -0.8322278 0.2113648
v -0.2070708 -0.8321427 0.2211214
v -0.2110311 -0.8353924 -0.2055511
v 0.004248428 -0.6499358 0.0003720393
v -0.2050924 -1.383212 0.2208155
v -0.1269445 -1.322584 0.2136827
v 0.2305308 -1.387146 0.2154154
v 0.146301 -1.323866 0.2322717
v 0.2252952 -0.8322278 0.2113648
v 0.2305308 -1.387146 0.2154154
v 0.1438169 -0.8955939 0.2215979
v 0.146301 -1.323866 0.2322717
v 0.2252952 -0.8322278 0.2113648
v 0.1438169 -0.8955939 0.2215979
v -0.2070708 -0.8321427 0.2211214
v -0.125125 -0.8955294 0.2266729
v -0.2070708 -0.8321427 0.2211214
v -0.125125 -0.8955294 0.2266729
v -0.2050924 -1.383212 0.2208155
v -0.1269445 -1.322584 0.2136827
v -0.2110311 -0.8353924 -0.2055511
v -0.1349377 -0.8952515 -0.2155629
v 0.2055753 -0.8380643 -0.2103006
v 0.1335673 -0.8952079 -0.2203878
v 0.2055753 -0.8380643 -0.2103006
v 0.1335673 -0.8952079 -0.2203878
v 0.2090519 -1.376927 -0.2131516
v 0.1371372 -1.322968 -0.2219726
v 0.2090519 -1.376927 -0.2131516
v 0.1371372 -1.322968 -0.2219726
v -0.2225042 -1.389668 -0.2180654
v -0.1365224 -1.322498 -0.2067825
v -0.2110311 -0.8353924 -0.2055511
v -0.2225042 -1.389668 -0.2180654
v -0.1349377 -0.8952515 -0.2155629
v -0.1365224 -1.322498 -0.2067825
v 0.2305308 -1.387146 0.2154154
v 0.2241752 -1.32284 0.1312173
v 0.2090519 -1.376927 -0.2131516
v 0.2335563 -1.32361 -0.1408963
v 0.2127238 -0.8944814 0.1293979
v 0.2252952 -0.8322278 0.2113648
v 0.2055753 -0.8380643 -0.2103006
v 0.2090519 -1.376927 -0.2131516
v 0.2068833 -0.8944814 -0.1386347
v 0.2335563 -1.32361 -0.1408963
v 0.2055753 -0.8380643 -0.2103006
v 0.2068833 -0.8944814 -0.1386347
v 0.2252952 -0.8322278 0.2113648
v 0.2127238 -0.8944814 0.1293979
v -0.2225042 -1.389668 -0.2180654
v -0.2126568 -1.322797 -0.1325397
v -0.2050924 -1.383212 0.2208155
v -0.2022204 -1.322584 0.1417393
v -0.2070708 -0.8321427 0.2211214
v -0.2050924 -1.383212 0.2208155
v -0.2177663 -0.895636 0.1401128
v -0.2022204 -1.322584 0.1417393
v -0.2070708 -0.8321427 0.2211214
v -0.2177663 -0.895636 0.1401128
v -0.2110311 -0.8353924 -0.2055511
v -0.2181835 -0.8952938 -0.1288117
v -0.2110311 -0.8353924 -0.2055511
v -0.2181835 -0.8952938 -0.1288117
v -0.2225042 -1.389668 -0.2180654
v -0.2126568 -1.322797 -0.1325397
v -0.1269445 -1.322584 0.2136827
v -0.1151015 -1.311895 0.1678792
v 0.146301 -1.323866 0.2322717
v 0.1400492 -1.317367 0.1537003
v 0.1438169 -0.8955939 0.2215979
v 0.146301 -1.323866 0.2322717
v 0.1318473 -0.9033321 0.151687
v 0.1400492 -1.317367 0.1537003
v 0.1438169 -0.8955939 0.2215979
v 0.1318473 -0.9033321 0.151687
v -0.125125 -0.8955294 0.2266729
v -0.1180572 -0.9017287 0.1555815
v -0.125125 -0.8955294 0.2266729
v -0.1180572 -0.9017287 0.1555815
v -0.1269445 -1.322584 0.2136827
v -0.1151015 -1.311895 0.1678792
v -0.1349377 -0.8952515 -0.2155629
v -0.1285906 -0.8982439 -0.146938
v 0.1335673 -0.8952079 -0.2203878
v 0.1243906 -0.9037381 -0.1572581
v 0.1335673 -0.8952079 -0.2203878
v 0.1243906 -0.9037381 -0.1572581
v 0.1371372 -1.322968 -0.2219726
v 0.1359592 -1.319676 -0.1576429
v 0.1371372 -1.322968 -0.2219726
v 0.1359592 -1.319676 -0.1576429
v -0.1365224 -1.322498 -0.2067825
v -0.1251238 -1.314075 -0.1584793
v -0.1349377 -0.8952515 -0.2155629
v -0.1365224 -1.322498 -0.2067825
v -0.1285906 -0.8982439 -0.146938
v -0.1251238 -1.314075 -0.1584793
v 0.2241752 -1.32284 0.1312173
v 0.170532 -1.313733 0.123226
v 0.2335563 -1.32361 -0.1408963
v 0.154119 -1.321215 -0.1394379
v 0.2068833 -0.8944814 -0.1386347
v 0.2335563 -1.32361 -0.1408963
v 0.1572459 -0.9048714 -0.1260302
v 0.154119 -1.321215 -0.1394379
v 0.2068833 -0.8944814 -0.1386347
v 0.1572459 -0.9048714 -0.1260302
v 0.2127238 -0.8944814 0.1293979
v 0.1546226 -0.8958924 0.1289592
v 0.2127238 -0.8944814 0.1293979
v 0.1546226 -0.8958924 0.1289592
v 0.2241752 -1.32284 0.1312173
v 0.170532 -1.313733 0.123226
v -0.2126568 -1.322797 -0.1325397
v -0.1632684 -1.310997 -0.1191322
v -0.2022204 -1.322584 0.1417393
v -0.1533843 -1.314032 0.1300527
v -0.2177663 -0.895636 0.1401128
v -0.2022204 -1.322584 0.1417393
v -0.1444503 -0.9003818 0.1309378
v -0.1533843 -1.314032 0.1300527
v -0.2177663 -0.895636 0.1401128
v -0.1444503 -0.9003818 0.1309378
v -0.2181835 -0.8952938 -0.1288117
v -0.1566637 -0.9074581 -0.1158549
v -0.2181835 -0.8952938 -0.1288117
v -0.1566637 -0.9074581 -0.1158549
v -0.2126568 -1.322797 -0.1325397
v -0.1632684 -1.310997 -0.1191322
vt 0.1876593 0.4308131
vt 0.1876593 0.4667167
vt 0.2235628 0.4308131
vt 0.2235628 0.4667167
vt 0.1876593 0.5026203
vt 0.1876593 0.5385238
vt 0.2235628 0.5026203
vt 0.2235628 0.5385238
vt 0.2235628 0.5385238
vt 0.1876593 0.5385238
vt 0.2235628 0.5744273
vt 0.1876593 0.5744273
vt 0.2235628 0.4308131
vt 0.2235628 0.4667167
vt 0.2594663 0.4308131
vt 0.2594663 0.4667167
vt 0.1517557 0.4308131
vt 0.1517557 0.4667167
vt 0.1876593 0.4308131
vt 0.1876593 0.4667167
vt 0.7604268 0.8304204
vt 0.7604268 0.8108125
vt 0.8192504 0.8304204
vt 0.8192504 0.8108125
vt 0.8192504 0.7912046
vt 0.7604268 0.7912046
vt 0.8192504 0.7715968
vt 0.7604268 0.7715968
vt 0.8192504 0.8108125
vt 0.7604268 0.8108125
vt 0.8192504 0.8304204
vt 0.7604268 0.8304204
vt 0.8192504 0.7912046
vt 0.7604268 0.7912046
vt 0.8192504 0.7715968
vt 0.7604268 0.7715968
vt 0.8192504 0.8108125
vt 0.8192504 0.8304204
vt 0.8192504 0.8108125
vt 0.8192504 0.8304204
vt 0.8192504 0.8304204
vt 0.7604268 0.8304204
vt 0.8192504 0.8304204
vt 0.7604268 0.8304204
vt 0.7604268 0.8304204
vt 0.7604268 0.8108125
vt 0.7604268 0.8304204
vt 0.7604268 0.8108125
vt 0.7604268 0.7715968
vt 0.8192504 0.7715968
vt 0.7604268 0.7715968
vt 0.8192504 0.7715968
vt 0.8192504 0.7715968
vt 0.8192504 0.7912046
vt 0.8192504 0.7715968
vt 0.8192504 0.7912046
vt 0.7604268 0.7912046
vt 0.7604268 0.7715968
vt 0.7604268 0.7912046
vt 0.7604268 0.7715968
vt 0.8192504 0.7912046
vt 0.8192504 0.7912046
vt 0.8192504 0.8108125
vt 0.8192504 0.8108125
vt 0.7604268 0.8108125
vt 0.7604268 0.7912046
vt 0.7604268 0.8108125
vt 0.7604268 0.7912046
vt 0.6995805 0.3271435
vt 0.6995805 0.6326921
vt 0.9904691 0.3271435
vt 0.9904691 0.6326921
vt 0.4733581 0.8059548
vt 0.5092616 0.8059548
vt 0.4913098 0.788003
vt 0.6995805 0.3271435
vt 0.6995805 0.6326921
vt 0.9904691 0.3271435
vt 0.9904691 0.6326921
vt 0.6995805 0.3271435
vt 0.6995805 0.6326921
vt 0.9904691 0.3271435
vt 0.9904691 0.6326921
vt 0.6995805 0.3271435
vt 0.6995805 0.6326921
vt 0.9904691 0.3271435
vt 0.9904691 0.6326921
vt 0.4733581 0.7700512
vt 0.4913098 0.788003
vt 0.5092616 0.7700512
vt 0.4913098 0.788003
vt 0.5092616 0.8059548
vt 0.5092616 0.7700512
vt 0.4733581 0.7700512
vt 0.4733581 0.8059548
vt 0.4913098 0.788003
vt 0.4733581 0.7341477
vt 0.4733581 0.7341477
vt 0.5092616 0.7341477
vt 0.5092616 0.7341477
vt 0.5092616 0.7700512
vt 0.5092616 0.7341477
vt 0.5092616 0.7700512
vt 0.5092616 0.7341477
vt 0.5092616 0.7700512
vt 0.5092616 0.7700512
vt 0.4733581 0.7700512
vt 0.4733581 0.7700512
vt 0.4733581 0.7700512
vt 0.4733581 0.7700512
vt 0.4733581 0.7341477
vt 0.4733581 0.7341477
vt 0.4733581 0.8059548
vt 0.4733581 0.8059548
vt 0.5092616 0.8059548
vt 0.5092616 0.8059548
vt 0.5092616 0.8059548
vt 0.5092616 0.8059548
vt 0.5092616 0.8418583
vt 0.5092616 0.8418583
vt 0.5092616 0.8418583
vt 0.5092616 0.8418583
vt 0.4733581 0.8418583
vt 0.4733581 0.8418583
vt 0.4733581 0.8059548
vt 0.4733581 0.8418583
vt 0.4733581 0.8059548
vt 0.4733581 0.8418583
vt 0.5092616 0.7341477
vt 0.5092616 0.7341477
vt 0.5451651 0.7341477
vt 0.5451651 0.7341477
vt 0.5092616 0.7700512
vt 0.5092616 0.7700512
vt 0.5451651 0.7700512
vt 0.5451651 0.7341477
vt 0.5451651 0.7700512
vt 0.5451651 0.7341477
vt 0.5451651 0.7700512
vt 0.5451651 0.7700512
vt 0.5092616 0.7700512
vt 0.5092616 0.7700512
vt 0.4374545 0.7341477
vt 0.4374545 0.7341477
vt 0.4733581 0.7341477
vt 0.4733581 0.7341477
vt 0.4733581 0.7700512
vt 0.4733581 0.7341477
vt 0.4733581 0.7700512
vt 0.4733581 0.7341477
vt 0.4733581 0.7700512
vt 0.4733581 0.7700512
vt 0.4374545 0.7700512
vt 0.4374545 0.7700512
vt 0.4374545 0.7700512
vt 0.4374545 0.7700512
vt 0.4374545 0.7341477
vt 0.4374545 0.7341477
vt 0.4733581 0.7341477
vt 0.4733581 0.7341477
vt 0.5092616 0.7341477
vt 0.5092616 0.7341477
vt 0.5092616 0.7700512
vt 0.5092616 0.7341477
vt 0.5092616 0.7700512
vt 0.5092616 0.7341477
vt 0.5092616 0.7700512
vt 0.5092616 0.7700512
vt 0.4733581 0.7700512
vt 0.4733581 0.7700512
vt 0.4733581 0.7700512
vt 0.4733581 0.7700512
vt 0.4733581 0.7341477
vt 0.4733581 0.7341477
vt 0.4733581 0.8059548
vt 0.4733581 0.8059548
vt 0.5092616 0.8059548
vt 0.5092616 0.8059548
vt 0.5092616 0.8059548
vt 0.5092616 0.8059548
vt 0.5092616 0.8418583
vt 0.5092616 0.8418583
vt 0.5092616 0.8418583
vt 0.5092616 0.8418583
vt 0.4733581 0.8418583
vt 0.4733581 0.8418583
vt 0.4733581 0.8059548
vt 0.4733581 0.8418583
vt 0.4733581 0.8059548
vt 0.4733581 0.8418583
vt 0.5092616 0.7341477
vt 0.5092616 0.7341477
vt 0.5451651 0.7341477
vt 0.5451651 0.7341477
vt 0.5451651 0.7700512
vt 0.5451651 0.7341477
vt 0.5451651 0.7700512
vt 0.5451651 0.7341477
vt 0.5451651 0.7700512
vt 0.5451651 0.7700512
vt 0.5092616 0.7700512
vt 0.5092616 0.7700512
vt 0.5092616 0.7700512
vt 0.5092616 0.7700512
vt 0.5092616 0.7341477
vt 0.5092616 0.7341477
vt 0.4374545 0.7341477
vt 0.4374545 0.7341477
vt 0.4733581 0.7341477
vt 0.4733581 0.7341477
vt 0.4733581 0.7700512
vt 0.4733581 0.7341477
vt 0.4733581 0.7700512
vt 0.4733581 0.7341477
vt 0.4733581 0.7700512
vt 0.4733581 0.7700512
vt 0.4374545 0.7700512
vt 0.4374545 0.7700512
vt 0.4374545 0.7700512
vt 0.4374545 0.7700512
vt 0.4374545 0.7341477
vt 0.4374545 0.7341477
vn -0.689582 0 0.7242076
vn -0.6895764 0 0.7242129
vn -0.6895818 0 0.7242078
vn -0.6895762 0 0.7242131
vn 0.6880221 0 -0.7256898
vn 0.6880161 0 -0.7256955
vn 0.6880218 0 -0.7256899
vn 0.6880159 0 -0.7256956
vn 0 -1 0
vn 0 -1 0
vn 0 -1 0
vn 0 -1 0
vn 0.719841 0 0.694139
vn 0.7198412 0 0.6941388
vn 0.719841 0 0.694139
vn 0.7198412 0 0.6941388
vn -0.7206307 0 -0.693319
vn -0.7206306 0 -0.6933191
vn -0.7206306 0 -0.6933191
vn -0.7206307 0 -0.693319
vn 0.9997783 -0.0005575049 -0.02104624
vn 0.9997733 -0.0004615966 -0.02128601
vn 0.9997788 -0.000483141 -0.02102682
vn 0.9997727 -0.0006463806 -0.02130733
vn 0.999746 0.0001895379 -0.0225363
vn 0.9997416 0.0006861172 -0.02271795
vn 0.9997292 5.109178E-05 -0.0232683
vn 0.9997281 0 -0.02331428
vn -0.9997634 0.001200234 0.02171931
vn -0.999761 0.0009465647 0.02183753
vn -0.9997345 -0.0009389034 0.02302606
vn -0.9997303 -0.001114853 0.0231959
vn -0.9997439 0.0007292673 0.02261966
vn -0.999742 0.0004643022 0.02271268
vn -0.9997337 5.109203E-05 0.02307351
vn -0.9997326 0 0.02312576
vn -0.01951571 0.2785681 -0.9602182
vn -0.01967224 0.2775689 -0.9605042
vn -0.01955562 0.2783138 -0.9602911
vn -0.01971202 0.2773148 -0.9605768
vn -0.01418685 -0.7224711 -0.6912555
vn -0.01420975 -0.7225413 -0.6911817
vn -0.01422201 -0.722579 -0.6911421
vn -0.01424492 -0.7226493 -0.6910681
vn 0.01999559 -0.2414377 0.9702103
vn 0.01996249 -0.2419457 0.9700844
vn 0.01998688 -0.2415717 0.9701771
vn 0.01995376 -0.2420795 0.9700512
vn 0.01434304 -0.7246379 0.6889805
vn 0.01434921 -0.7243708 0.6892611
vn 0.01435255 -0.7242258 0.6894135
vn 0.01435873 -0.7239581 0.6896945
vn 0.02008307 0.262448 0.9647371
vn 0.01994281 0.2623317 0.9647716
vn 0.02004743 0.2624184 0.9647459
vn 0.01990706 0.2623022 0.9647804
vn -0.02017086 -0.2093237 -0.9776383
vn -0.02031521 -0.2093487 -0.97763
vn -0.02020948 -0.2093304 -0.9776362
vn -0.02035378 -0.2093554 -0.9776277
vn -0.0001162765 0.999984 -0.005663309
vn -0.0001160901 0.999984 -0.005663936
vn -0.0001158946 0.999984 -0.005664593
vn -0.0001157082 0.999984 -0.005665218
vn -0.000194397 -0.9999552 -0.00947286
vn -0.0001957152 -0.9999551 -0.009479026
vn -0.0001956295 -0.9999551 -0.009478625
vn -0.0001969498 -0.9999551 -0.009484801
vn 0.05610832 0.03033677 0.9979637
vn 0.0300251 0.01414355 0.9994491
vn 0.04205927 0.02161419 0.9988813
vn 0.01561467 0.005198972 0.9998646
vn -0.002835657 0.7444471 -0.6676754
vn -0.002835634 0.7444471 -0.6676754
vn -0.002835657 0.7444471 -0.6676754
vn -0.04015121 0.02731939 -0.99882
vn -0.01152266 0.009953607 -0.9998841
vn -0.02449301 0.0178217 -0.9995412
vn 0.003226371 0.001005685 -0.9999943
vn 0.9972306 0.03884401 -0.06342086
vn 0.9998147 0.009374144 -0.01681721
vn 0.9990138 0.02282295 -0.03808587
vn 0.9999127 -0.007939409 0.01056535
vn -0.9990776 0.01606163 0.03982452
vn -0.9987615 0.01955463 0.04574956
vn -0.9989141 0.01793373 0.04300016
vn -0.9985801 0.0213543 0.04880198
vn 0.01470063 0.7642374 0.6447675
vn 0.01470063 0.7642374 0.6447675
vn 0.01470062 0.7642375 0.6447675
vn 0.659067 0.7509535 -0.04122408
vn 0.659067 0.7509536 -0.04122407
vn 0.659067 0.7509536 -0.04122407
vn -0.6527495 0.7575737 0.0002894016
vn -0.6527495 0.7575737 0.0002894016
vn -0.6527495 0.7575737 0.0002894251
vn 0.01323428 0.09972177 0.9949274
vn 0.00919203 0.07744242 0.9969544
vn -0.03982719 -0.1938359 0.9802251
vn -0.06548585 -0.336693 0.9393346
vn 0.1182017 0.008349704 0.9929546
vn 0.1941519 0.02192235 0.9807265
vn 0.124336 0.009443043 0.9921952
vn 0.2146083 0.02559148 0.9763649
vn 0.02239117 0.1312499 0.9910964
vn 0.02222381 0.1303511 0.9912187
vn 0.02013466 0.1191282 0.9926746
vn 0.01877281 0.1118117 0.9935521
vn -0.06820446 -0.0007772439 0.9976711
vn -0.05836482 -0.002397709 0.9982924
vn 0.07271747 -0.02387151 0.9970669
vn 0.1144408 -0.03066201 0.9929568
vn -0.01028807 0.1525533 -0.9882417
vn -0.01061263 0.1544217 -0.9879481
vn -0.01505488 0.1799582 -0.9835591
vn -0.01765448 0.1948724 -0.9806697
vn 0.1339707 0.006140842 -0.9909663
vn 0.1335093 0.006060485 -0.991029
vn 0.1269705 0.004921828 -0.9918943
vn 0.1252342 0.004619604 -0.9921164
vn 0.015441 -0.1404712 -0.9899644
vn 0.01134169 -0.118646 -0.9928718
vn -0.03408258 0.1251502 -0.9915522
vn -0.05353075 0.2306607 -0.9715607
vn -0.1112615 0.02471069 -0.9934838
vn 0.09583796 -0.01191876 -0.9953256
vn -0.09411463 0.02168648 -0.9953251
vn 0.146089 -0.02084063 -0.9890519
vn 0.9982919 0.0314826 -0.04921601
vn 0.9988814 0.01099913 -0.04598841
vn 0.9586887 -0.2844443 0.002721919
vn 0.8922101 -0.4504824 0.03204091
vn 0.988415 0.009213639 -0.1514954
vn 0.9874623 0.008079355 -0.1576479
vn 0.9998932 0.00643893 -0.0131239
vn 0.9519014 0.05087299 -0.3021517
vn 0.9993591 0.009730868 -0.03445049
vn 0.9310927 0.05969607 -0.3598649
vn 0.9982948 -0.03568746 -0.04619582
vn 0.9980814 -0.04258335 -0.04494485
vn 0.991602 -0.1258873 -0.02962694
vn 0.9853109 -0.1694153 -0.02146994
vn -0.9946676 0.09586824 0.03802258
vn -0.9946494 0.09606172 0.03801161
vn -0.9943955 0.09871263 0.03786128
vn -0.9942124 0.1005787 0.03775525
vn -0.9910164 -0.003726731 0.1336881
vn -0.9993811 -0.02933938 -0.01940546
vn -0.992401 -0.005549006 0.1229203
vn -0.9972576 -0.03672303 -0.06425411
vn -0.9876134 0.1567039 0.007976053
vn -0.9878676 0.1551073 0.007706987
vn -0.9910151 0.1336867 0.004101143
vn -0.9928496 0.1193602 0.001694397
vn -0.9969028 0.02208561 -0.07547791
vn -0.9978569 0.01973533 -0.06238635
vn -0.9963735 -0.00679544 0.08481645
vn -0.9920433 -0.01409032 0.1251059
vn -0.0107078 0.9743847 0.2246328
vn -0.002436718 0.9813219 0.1923571
vn 0.02277615 0.995437 0.09266314
vn 0.02584684 0.9964287 0.08038608
vn -0.985629 -0.001343683 0.1689188
vn -0.996006 -0.01764772 0.08752581
vn -0.9873892 -0.003490308 0.1582727
vn -0.9967829 -0.01959612 0.07771639
vn 0.001831675 -0.9939605 0.1097236
vn 0.0008135153 -0.9943375 0.1062657
vn -0.003716769 -0.9958565 0.09086367
vn -0.005044439 -0.9962525 0.08634476
vn 0.995006 -0.00717334 0.09955757
vn 0.994302 -0.006207263 0.1064183
vn 0.974022 0.01082697 0.2261943
vn 0.9672277 0.0147535 0.2534814
vn -0.000619334 -0.9990534 -0.04349543
vn -0.004010127 -0.9984464 -0.05557761
vn -0.02177052 -0.9926848 -0.1187554
vn -0.02713944 -0.9900857 -0.1378184
vn -0.9894189 -0.007994127 -0.1448667
vn -0.9909733 -0.009723766 -0.1337061
vn -0.999225 -0.02562786 -0.02987598
vn -0.9994766 -0.02759404 -0.016886
vn -0.001121237 0.9986915 -0.05112894
vn 0.0007960235 0.9980931 -0.06172139
vn 0.01675018 0.9886038 -0.1496058
vn 0.02165601 0.9840559 -0.1765363
vn 0.995713 -0.005432517 -0.0923378
vn 0.9774809 0.01135983 -0.2107179
vn 0.9950132 -0.004403636 -0.09964617
vn 0.9725973 0.01441502 -0.2320492
vn 0.1672023 0.9859182 0.002969879
vn 0.1371965 0.9905343 -0.004360452
vn 0.04320748 0.9986988 -0.02708597
vn 0.02960114 0.999101 -0.03034664
vn 0.2441276 0.01007266 0.9696908
vn 0.03029511 -0.02990431 0.9990935
vn 0.2109421 0.003753711 0.9774914
vn 0.01737224 -0.03226564 0.9993284
vn 0.2035496 -0.9790546 -0.004436168
vn 0.1802617 -0.9836183 0.000826922
vn 0.04540963 -0.9984926 0.03083229
vn 0.02404807 -0.9990798 0.03551321
vn 0.007643722 -0.003991165 -0.9999628
vn 0.01809301 -0.002301854 -0.9998337
vn 0.1353795 0.0166999 -0.990653
vn 0.1505237 0.01915891 -0.9884207
vn -0.2345603 0.9720672 0.008167521
vn -0.2284073 0.9735227 0.0091489
vn -0.1782104 0.9838441 0.01708606
vn -0.1680845 0.9855957 0.01867251
vn -0.1247017 -0.008328772 -0.9921594
vn -0.2152256 0.004444755 -0.9765543
vn -0.1301065 -0.007572342 -0.9914711
vn -0.2339078 0.007109092 -0.9722328
vn -0.06475227 -0.9979007 -0.00116857
vn -0.08026613 -0.9967681 0.003258675
vn -0.1682832 -0.9853274 0.0284747
vn -0.2014516 -0.9787603 0.03802133
vn -0.2082005 -0.01119053 0.9780222
vn -0.2111009 -0.0107861 0.9774048
vn -0.2538308 -0.004785602 0.9672368
vn -0.2611949 -0.003743383 0.9652788
g midnightLanternLamp_0
f 3/3/3 2/2/2 1/1/1
f 3/3/3 4/4/4 2/2/2
f 7/7/7 6/6/6 5/5/5
f 7/7/7 8/8/8 6/6/6
f 11/11/11 10/10/10 9/9/9
f 11/11/11 12/12/12 10/10/10
f 15/15/15 14/14/14 13/13/13
f 15/15/15 16/16/16 14/14/14
f 19/19/19 18/18/18 17/17/17
f 19/19/19 20/20/20 18/18/18
f 23/23/23 22/22/22 21/21/21
f 23/23/23 24/24/24 22/22/22
f 22/22/22 24/24/24 25/25/25
f 22/22/22 25/25/25 26/26/26
f 26/26/26 25/25/25 27/27/27
f 26/26/26 27/27/27 28/28/28
f 31/31/31 30/30/30 29/29/29
f 31/31/31 32/32/32 30/30/30
f 33/33/33 29/29/29 30/30/30
f 33/33/33 30/30/30 34/34/34
f 35/35/35 33/33/33 34/34/34
f 35/35/35 34/34/34 36/36/36
f 39/39/39 38/38/38 37/37/37
f 39/39/39 40/40/40 38/38/38
f 43/43/43 42/42/42 41/41/41
f 43/43/43 44/44/44 42/42/42
f 47/47/47 46/46/46 45/45/45
f 47/47/47 48/48/48 46/46/46
f 51/51/51 50/50/50 49/49/49
f 51/51/51 52/52/52 50/50/50
f 55/55/55 54/54/54 53/53/53
f 55/55/55 56/56/56 54/54/54
f 59/59/59 58/58/58 57/57/57
f 59/59/59 60/60/60 58/58/58
f 63/63/63 62/62/62 61/61/61
f 63/63/63 64/64/64 62/62/62
f 67/67/67 66/66/66 65/65/65
f 67/67/67 68/68/68 66/66/66
f 71/71/71 70/70/70 69/69/69
f 71/71/71 72/72/72 70/70/70
f 75/75/75 74/74/74 73/73/73
f 78/78/78 77/77/77 76/76/76
f 78/78/78 79/79/79 77/77/77
f 82/82/82 81/81/81 80/80/80
f 82/82/82 83/83/83 81/81/81
f 86/86/86 85/85/85 84/84/84
f 86/86/86 87/87/87 85/85/85
f 90/90/90 89/89/89 88/88/88
f 93/93/93 92/92/92 91/91/91
f 96/96/96 95/95/95 94/94/94
f 99/99/99 98/98/98 97/97/97
f 99/99/99 100/100/100 98/98/98
f 103/103/103 102/102/102 101/101/101
f 103/103/103 104/104/104 102/102/102
f 107/107/107 106/106/106 105/105/105
f 107/107/107 108/108/108 106/106/106
f 111/111/111 110/110/110 109/109/109
f 111/111/111 112/112/112 110/110/110
f 115/115/115 114/114/114 113/113/113
f 115/115/115 116/116/116 114/114/114
f 119/119/119 118/118/118 117/117/117
f 119/119/119 120/120/120 118/118/118
f 123/123/123 122/122/122 121/121/121
f 123/123/123 124/124/124 122/122/122
f 127/127/127 126/126/126 125/125/125
f 127/127/127 128/128/128 126/126/126
f 131/131/131 130/130/130 129/129/129
f 131/131/131 132/132/132 130/130/130
f 129/129/129 130/130/130 133/133/133
f 129/129/129 133/133/133 134/134/134
f 137/137/137 136/136/136 135/135/135
f 137/137/137 138/138/138 136/136/136
f 141/141/141 140/140/140 139/139/139
f 141/141/141 142/142/142 140/140/140
f 145/145/145 144/144/144 143/143/143
f 145/145/145 146/146/146 144/144/144
f 149/149/149 148/148/148 147/147/147
f 149/149/149 150/150/150 148/148/148
f 153/153/153 152/152/152 151/151/151
f 153/153/153 154/154/154 152/152/152
f 157/157/157 156/156/156 155/155/155
f 157/157/157 158/158/158 156/156/156
f 161/161/161 160/160/160 159/159/159
f 161/161/161 162/162/162 160/160/160
f 165/165/165 164/164/164 163/163/163
f 165/165/165 166/166/166 164/164/164
f 169/169/169 168/168/168 167/167/167
f 169/169/169 170/170/170 168/168/168
f 173/173/173 172/172/172 171/171/171
f 173/173/173 174/174/174 172/172/172
f 177/177/177 176/176/176 175/175/175
f 177/177/177 178/178/178 176/176/176
f 181/181/181 180/180/180 179/179/179
f 181/181/181 182/182/182 180/180/180
f 185/185/185 184/184/184 183/183/183
f 185/185/185 186/186/186 184/184/184
f 189/189/189 188/188/188 187/187/187
f 189/189/189 190/190/190 188/188/188
f 193/193/193 192/192/192 191/191/191
f 193/193/193 194/194/194 192/192/192
f 197/197/197 196/196/196 195/195/195
f 197/197/197 198/198/198 196/196/196
f 201/201/201 200/200/200 199/199/199
f 201/201/201 202/202/202 200/200/200
f 205/205/205 204/204/204 203/203/203
f 205/205/205 206/206/206 204/204/204
f 209/209/209 208/208/208 207/207/207
f 209/209/209 210/210/210 208/208/208
f 213/213/213 212/212/212 211/211/211
f 213/213/213 214/214/214 212/212/212
f 217/217/217 216/216/216 215/215/215
f 217/217/217 218/218/218 216/216/216
f 221/221/221 220/220/220 219/219/219
f 221/221/221 222/222/222 220/220/220
