g mimicPiece4
v -0.07332644 -0.01259829 0.05763281
v -0.07623339 -0.01353152 -0.09510522
v -0.04927607 0.06246244 0.02764975
v -0.07623339 -0.01353152 -0.09510522
v -0.05629824 0.0771362 -0.08235921
v -0.04927607 0.06246244 0.02764975
v -0.003193458 0.1347548 -0.004242337
v 0.006680428 0.1300087 -0.003612722
v -0.001999076 0.1263286 0.003177401
v 0.006680428 0.1300087 -0.003612722
v 0.0119193 0.1301936 0.0116128
v -0.001999076 0.1263286 0.003177401
v 0.04937139 0.0571713 -0.07209238
v 0.07933462 -0.0130411 -0.09758142
v 0.05386274 0.04952337 0.02775031
v 0.07933462 -0.0130411 -0.09758142
v 0.07102544 -0.01464572 0.0491152
v 0.05386274 0.04952337 0.02775031
v 0.07102544 -0.01464572 0.0491152
v -0.07332644 -0.01259829 0.05763281
v 0.05386274 0.04952337 0.02775031
v -0.04927607 0.06246244 0.02764975
v 0.07933462 -0.0130411 -0.09758142
v 0.04937139 0.0571713 -0.07209238
v -0.07623339 -0.01353152 -0.09510522
v 0.04937139 0.0571713 -0.07209238
v -0.05629824 0.0771362 -0.08235921
v -0.07623339 -0.01353152 -0.09510522
v -0.07933459 -0.1330429 0.09758143
v -0.06947725 -0.1347547 -0.0886356
v -0.07332644 -0.01259829 0.05763281
v -0.06947725 -0.1347547 -0.0886356
v -0.07623339 -0.01353152 -0.09510522
v -0.07332644 -0.01259829 0.05763281
v -0.07933459 -0.1330429 0.09758143
v -0.07332644 -0.01259829 0.05763281
v 0.07129453 -0.1344751 0.08166148
v 0.07102544 -0.01464572 0.0491152
v 0.07933462 -0.0130411 -0.09758142
v 0.06993558 -0.1347548 -0.08829518
v 0.07102544 -0.01464572 0.0491152
v 0.06993558 -0.1347548 -0.08829518
v 0.07129453 -0.1344751 0.08166148
v 0.07102544 -0.01464572 0.0491152
v 0.06993558 -0.1347548 -0.08829518
v 0.07933462 -0.0130411 -0.09758142
v -0.06947725 -0.1347547 -0.0886356
v -0.07623339 -0.01353152 -0.09510522
v 0.006680428 0.1300087 -0.003612722
v 0.04937139 0.0571713 -0.07209238
v 0.0119193 0.1301936 0.0116128
v 0.0119193 0.1301936 0.0116128
v 0.04937139 0.0571713 -0.07209238
v 0.05386274 0.04952337 0.02775031
v -0.001999076 0.1263286 0.003177401
v 0.0119193 0.1301936 0.0116128
v -0.04927607 0.06246244 0.02764975
v -0.04927607 0.06246244 0.02764975
v 0.0119193 0.1301936 0.0116128
v 0.05386274 0.04952337 0.02775031
v -0.003193458 0.1347548 -0.004242337
v -0.001999076 0.1263286 0.003177401
v -0.05629824 0.0771362 -0.08235921
v -0.05629824 0.0771362 -0.08235921
v -0.001999076 0.1263286 0.003177401
v -0.04927607 0.06246244 0.02764975
v -0.003193458 0.1347548 -0.004242337
v -0.05629824 0.0771362 -0.08235921
v 0.006680428 0.1300087 -0.003612722
v 0.04937139 0.0571713 -0.07209238
v 0.006680428 0.1300087 -0.003612722
v -0.05629824 0.0771362 -0.08235921
vt 0.123868 0.3160536
vt 0.1221686 0.3165991
vt 0.1379281 0.2721719
vt 0.1221686 0.3165991
vt 0.133823 0.2635934
vt 0.1379281 0.2721719
vt 0.1648689 0.1847089
vt 0.1706412 0.1874836
vt 0.165567 0.189635
vt 0.1706412 0.1874836
vt 0.173704 0.1873755
vt 0.165567 0.189635
vt 0.1955991 0.2752652
vt 0.213116 0.3163124
vt 0.1982246 0.2797362
vt 0.213116 0.3163124
vt 0.2082582 0.3172505
vt 0.1982246 0.2797362
vt 0.2082582 0.3172505
vt 0.123868 0.3160536
vt 0.1982246 0.2797362
vt 0.1379281 0.2721719
vt 0.213116 0.3163124
vt 0.1955991 0.2752652
vt 0.1221686 0.3165991
vt 0.1955991 0.2752652
vt 0.133823 0.2635934
vt 0.1221686 0.3165991
vt 0.1203557 0.3864674
vt 0.1261182 0.387468
vt 0.123868 0.3160536
vt 0.1261182 0.387468
vt 0.1221686 0.3165991
vt 0.123868 0.3160536
vt 0.1203557 0.3864674
vt 0.123868 0.3160536
vt 0.2084156 0.3873046
vt 0.2082582 0.3172505
vt 0.213116 0.3163124
vt 0.2076212 0.3874682
vt 0.2082582 0.3172505
vt 0.2076212 0.3874682
vt 0.2084156 0.3873046
vt 0.2082582 0.3172505
vt 0.2076212 0.3874682
vt 0.213116 0.3163124
vt 0.1261182 0.387468
vt 0.1221686 0.3165991
vt 0.1706412 0.1874836
vt 0.1955991 0.2752652
vt 0.173704 0.1873755
vt 0.173704 0.1873755
vt 0.1955991 0.2752652
vt 0.1982246 0.2797362
vt 0.165567 0.189635
vt 0.173704 0.1873755
vt 0.1379281 0.2721719
vt 0.1379281 0.2721719
vt 0.173704 0.1873755
vt 0.1982246 0.2797362
vt 0.1648689 0.1847089
vt 0.165567 0.189635
vt 0.133823 0.2635934
vt 0.133823 0.2635934
vt 0.165567 0.189635
vt 0.1379281 0.2721719
vt 0.1648689 0.1847089
vt 0.133823 0.2635934
vt 0.1706412 0.1874836
vt 0.1955991 0.2752652
vt 0.1706412 0.1874836
vt 0.133823 0.2635934
vn -0.9502884 0.31095 0.01618647
vn -0.9502884 0.31095 0.01618647
vn -0.9502884 0.31095 0.01618647
vn -0.9753345 0.2019101 0.0891903
vn -0.9753345 0.2019101 0.0891903
vn -0.9753345 0.2019101 0.0891903
vn 0.2712038 0.6574628 0.7029872
vn 0.2712038 0.6574628 0.7029872
vn 0.2712038 0.6574629 0.7029872
vn -0.3216239 0.9416533 0.09923343
vn -0.3216239 0.9416533 0.09923344
vn -0.3216239 0.9416533 0.09923343
vn 0.9182487 0.3958521 -0.01098408
vn 0.9182485 0.3958521 -0.01098408
vn 0.9182487 0.3958521 -0.01098408
vn 0.9595207 0.2757339 0.0573648
vn 0.9595207 0.2757339 0.0573648
vn 0.9595207 0.2757339 0.0573648
vn 0.0602688 0.3297979 0.9421258
vn 0.0602688 0.3297978 0.9421258
vn 0.06026879 0.3297978 0.9421258
vn 0.04405107 0.3583859 0.9325337
vn -0.01605113 0.335135 -0.9420334
vn -0.01605113 0.335135 -0.9420334
vn -0.01605113 0.335135 -0.9420334
vn 0.1172016 0.112935 -0.9866659
vn 0.1172016 0.112935 -0.9866659
vn 0.1172016 0.112935 -0.9866659
vn -0.9980696 0.03216505 -0.05312813
vn -0.9997957 -0.01354838 -0.01499584
vn -0.999546 0.004224595 -0.02983243
vn -0.9997957 -0.01354838 -0.01499584
vn -0.9983206 -0.05460784 0.01933392
vn -0.999546 0.004224595 -0.02983243
vn 0.1028778 0.3085143 0.9456401
vn 0.08512772 0.2890081 0.9535342
vn 0.0806719 0.2840883 0.9553983
vn 0.06054899 0.261755 0.9632332
vn 0.9958055 -0.07265612 0.05560956
vn 0.9989128 -0.03873637 0.02593631
vn 0.9995319 -0.02652117 0.01525433
vn 0.9989128 -0.03873637 0.02593631
vn 0.9999681 7.428859E-05 -0.007995722
vn 0.9995319 -0.02652117 0.01525433
vn 0.002434508 -0.07626125 -0.9970849
vn -0.006358612 -0.06556487 -0.9978281
vn -0.008512188 -0.06294303 -0.9979809
vn -0.01572094 -0.05416059 -0.9984085
vn 0.7119575 0.655089 -0.2529326
vn 0.7119575 0.655089 -0.2529326
vn 0.7119575 0.655089 -0.2529326
vn 0.8876108 0.4605709 -0.004649126
vn 0.8876108 0.4605709 -0.004649127
vn 0.8876108 0.4605709 -0.004649126
vn -0.526572 0.6147859 0.5871628
vn -0.5265721 0.6147858 0.5871628
vn -0.5265721 0.6147858 0.5871628
vn 0.02522767 0.2086901 0.9776563
vn 0.02522766 0.2086901 0.9776564
vn 0.02522766 0.2086901 0.9776563
vn -0.8761044 0.2426539 0.4166056
vn -0.8761044 0.2426539 0.4166055
vn -0.8761044 0.2426539 0.4166055
vn -0.7717862 0.6219818 0.1322298
vn -0.7717862 0.6219818 0.1322298
vn -0.7717863 0.6219818 0.1322298
vn 0.3459725 0.6271846 -0.6978126
vn 0.3459725 0.6271847 -0.6978126
vn 0.3459725 0.6271846 -0.6978126
vn 0.2014591 0.7310168 -0.6519423
vn 0.201459 0.7310168 -0.6519424
vn 0.201459 0.7310168 -0.6519424
g mimicPiece4_0
f 3/3/3 2/2/2 1/1/1
f 6/6/6 5/5/5 4/4/4
f 9/9/9 8/8/8 7/7/7
f 12/12/12 11/11/11 10/10/10
f 15/15/15 14/14/14 13/13/13
f 18/18/18 17/17/17 16/16/16
f 21/21/21 20/20/20 19/19/19
f 21/21/21 22/22/22 20/20/20
f 25/25/25 24/24/24 23/23/23
f 28/28/28 27/27/27 26/26/26
f 31/31/31 30/30/30 29/29/29
f 34/34/34 33/33/33 32/32/32
f 37/37/37 36/36/36 35/35/35
f 37/37/37 38/38/38 36/36/36
f 41/41/41 40/40/40 39/39/39
f 44/44/44 43/43/43 42/42/42
f 47/47/47 46/46/46 45/45/45
f 47/47/47 48/48/48 46/46/46
f 51/51/51 50/50/50 49/49/49
f 54/54/54 53/53/53 52/52/52
f 57/57/57 56/56/56 55/55/55
f 60/60/60 59/59/59 58/58/58
f 63/63/63 62/62/62 61/61/61
f 66/66/66 65/65/65 64/64/64
f 69/69/69 68/68/68 67/67/67
f 72/72/72 71/71/71 70/70/70
