g mimicPiece1
v -0.09866169 0.01596092 -0.06998739
v -0.09866169 0.01596092 -0.1586567
v 0.09866169 0.01596092 -0.06998739
v 0.09866169 0.01596092 -0.1586567
v -0.09866169 0.01596092 -0.1586567
v -0.09866169 -0.01596107 -0.1586567
v 0.09866169 0.01596092 -0.1586567
v 0.09866169 -0.01596107 -0.1586567
v -0.09866169 -0.01596107 -0.1586567
v -0.09866169 -0.01596107 -0.06998739
v 0.09866169 -0.01596107 -0.1586567
v 0.09866169 -0.01596107 -0.06998739
v -0.09866169 -0.01596107 0.1586567
v -0.09866169 0.01596092 0.1586567
v 0.09866169 -0.01596107 0.1586567
v 0.09866169 0.01596092 0.1586567
v 0.09866169 0.01596092 -0.06998739
v 0.09866169 0.01596092 -0.1586567
v 0.09866169 -0.01596107 -0.06998739
v 0.09866169 -0.01596107 -0.1586567
v 0.09866169 -0.01596107 0.1586567
v 0.09866169 0.01596092 0.1586567
v -0.09866169 -0.01596107 -0.06998739
v -0.09866169 -0.01596107 -0.1586567
v -0.09866169 0.01596092 -0.06998739
v -0.09866169 0.01596092 -0.1586567
v -0.09866169 0.01596092 0.1586567
v -0.09866169 -0.01596107 0.1586567
v -0.09866169 0.01596092 0.1586567
v -0.03203832 0.01596123 0.1250493
v 0.09866169 0.01596092 0.1586567
v 0.03203248 0.01596031 0.1250493
v 0.09866169 0.01596092 -0.06998739
v 0.03203248 0.01596031 -0.04464888
v -0.09866169 0.01596092 -0.06998739
v -0.03203832 0.01596123 -0.04464896
v -0.09866169 -0.01596107 -0.06998739
v -0.03203902 -0.01596138 -0.04464896
v 0.09866169 -0.01596107 -0.06998739
v 0.03203248 -0.01596107 -0.04464888
v 0.03203248 -0.01596107 0.1250493
v 0.09866169 -0.01596107 0.1586567
v -0.09866169 -0.01596107 0.1586567
v -0.03203902 -0.01596107 0.1250493
v 0.03203248 0.01596031 0.1250493
v 0.03203248 -0.01596107 -0.04464888
v 0.03203248 0.01596031 -0.04464888
v 0.03203248 -0.01596107 0.1250493
v 0.03203248 0.01596031 -0.04464888
v -0.03203902 -0.01596138 -0.04464896
v -0.03203832 0.01596123 -0.04464896
v 0.03203248 -0.01596107 -0.04464888
v -0.03203902 -0.01596107 0.1250493
v 0.03203248 -0.01596107 0.1250493
v -0.03203832 0.01596123 0.1250493
v 0.03203248 0.01596031 0.1250493
v -0.03203902 -0.01596138 -0.04464896
v -0.03203902 -0.01596107 0.1250493
v -0.03203832 0.01596123 -0.04464896
v -0.03203832 0.01596123 0.1250493
vt 0.9265158 0.9391066
vt 0.9265158 0.9457284
vt 0.9397594 0.9391066
vt 0.9397594 0.9457284
vt 0.9265158 0.9457284
vt 0.9265158 0.958972
vt 0.9397594 0.9457284
vt 0.9397594 0.958972
vt 0.9265158 0.958972
vt 0.9265158 0.9655938
vt 0.9397594 0.958972
vt 0.9397594 0.9655938
vt 0.9265158 0.9722155
vt 0.9265158 0.9854591
vt 0.9397594 0.9722155
vt 0.9397594 0.9854591
vt 0.9397594 0.9391066
vt 0.9397594 0.9457284
vt 0.9530029 0.9391066
vt 0.9530029 0.9457284
vt 0.9530029 0.9324848
vt 0.9397594 0.9324848
vt 0.9132721 0.9391066
vt 0.9132721 0.9457284
vt 0.9265158 0.9391066
vt 0.9265158 0.9457284
vt 0.9265158 0.9324848
vt 0.9132721 0.9324848
vt 0.9265158 0.9324848
vt 0.9265158 0.9324848
vt 0.9397594 0.9324848
vt 0.9397594 0.9324848
vt 0.9397594 0.9391066
vt 0.9397594 0.9391066
vt 0.9265158 0.9391066
vt 0.9265158 0.9391066
vt 0.9265158 0.9655938
vt 0.9265158 0.9655938
vt 0.9397594 0.9655938
vt 0.9397594 0.9655938
vt 0.9397594 0.9722155
vt 0.9397594 0.9722155
vt 0.9265158 0.9722155
vt 0.9265158 0.9722155
vt 0.9397594 0.9324848
vt 0.9397594 0.9655938
vt 0.9397594 0.9391066
vt 0.9397594 0.9722155
vt 0.9397594 0.9391066
vt 0.9265158 0.9655938
vt 0.9265158 0.9391066
vt 0.9397594 0.9655938
vt 0.9265158 0.9722155
vt 0.9397594 0.9722155
vt 0.9265158 0.9324848
vt 0.9397594 0.9324848
vt 0.9265158 0.9655938
vt 0.9265158 0.9722155
vt 0.9265158 0.9391066
vt 0.9265158 0.9324848
vn 0 1 0
vn 0 1 0
vn 0 1 0
vn 0 1 0
vn 0 0 -1
vn 0 0 -1
vn 0 0 -1
vn 0 0 -1
vn 0 -1 0
vn 0 -1 0
vn 0 -1 0
vn 0 -1 0
vn 0 0 1
vn 0 0 1
vn 0 0 1
vn 0 0 1
vn 1 0 0
vn 1 0 0
vn 1 0 0
vn 1 0 0
vn 1 0 0
vn 1 0 0
vn -1 0 0
vn -1 0 0
vn -1 0 0
vn -1 0 0
vn -1 0 0
vn -1 0 0
vn 0 1 0
vn 4.662653E-07 1 -1.479882E-06
vn 3.108212E-06 1 -9.865172E-06
vn 1.428929E-05 1 -4.535285E-05
vn -9.160418E-06 1 0
vn -9.160418E-06 1 0
vn 3.22531E-06 1 1.628234E-05
vn 1.428935E-05 1 -4.511517E-05
vn 0 -1 -1.464883E-05
vn 1.118064E-07 -1 -1.395196E-05
vn 1.075061E-06 -1 -7.948215E-06
vn 4.763036E-06 -1 1.503809E-05
vn 0 -1 0
vn 0 -1 0
vn 0 -1 0
vn 0 -1 0
vn -1 0 0
vn -1 0 0
vn -1 0 0
vn -1 0 0
vn -1.213526E-06 0 1
vn -5.059897E-07 0 1
vn 0 0 1
vn -1.719526E-06 0 1
vn 0 0 -1
vn 5.265221E-07 0 -1
vn 2.195316E-07 0 -1
vn 7.460727E-07 0 -1
vn 1 -2.197046E-05 0
vn 1 -2.190855E-05 0
vn 1 -2.196214E-05 0
vn 1 -2.190024E-05 0
g mimicPiece1_0
f 3/3/3 2/2/2 1/1/1
f 3/3/3 4/4/4 2/2/2
f 7/7/7 6/6/6 5/5/5
f 7/7/7 8/8/8 6/6/6
f 11/11/11 10/10/10 9/9/9
f 11/11/11 12/12/12 10/10/10
f 15/15/15 14/14/14 13/13/13
f 15/15/15 16/16/16 14/14/14
f 19/19/19 18/18/18 17/17/17
f 19/19/19 20/20/20 18/18/18
f 21/21/21 19/19/19 17/17/17
f 21/21/21 17/17/17 22/22/22
f 25/25/25 24/24/24 23/23/23
f 25/25/25 26/26/26 24/24/24
f 27/27/27 25/25/25 23/23/23
f 27/27/27 23/23/23 28/28/28
f 31/31/31 30/30/30 29/29/29
f 31/31/31 32/32/32 30/30/30
f 33/33/33 32/32/32 31/31/31
f 33/33/33 34/34/34 32/32/32
f 35/35/35 34/34/34 33/33/33
f 30/30/30 35/35/35 29/29/29
f 35/35/35 36/36/36 34/34/34
f 30/30/30 36/36/36 35/35/35
f 39/39/39 38/38/38 37/37/37
f 39/39/39 40/40/40 38/38/38
f 41/41/41 40/40/40 39/39/39
f 41/41/41 39/39/39 42/42/42
f 43/43/43 41/41/41 42/42/42
f 43/43/43 44/44/44 41/41/41
f 37/37/37 44/44/44 43/43/43
f 37/37/37 38/38/38 44/44/44
f 47/47/47 46/46/46 45/45/45
f 45/45/45 46/46/46 48/48/48
f 51/51/51 50/50/50 49/49/49
f 49/49/49 50/50/50 52/52/52
f 55/55/55 54/54/54 53/53/53
f 56/56/56 54/54/54 55/55/55
f 59/59/59 58/58/58 57/57/57
f 60/60/60 58/58/58 59/59/59
