g mountainBG
v -61.73333 -36.933 21.76159
v -56.30166 -36.933 33.38702
v -56.30166 36.933 33.38702
v -61.73333 36.933 21.76159
v -48.70637 36.933 43.72942
v -48.70637 -36.933 43.72942
v -39.2393 36.933 52.39131
v -39.2393 -36.933 52.39131
v -28.26429 36.933 59.03983
v -28.26429 -36.933 59.03983
v -16.2031 36.933 63.41949
v -16.2031 -36.933 63.41949
v -3.519235 36.933 65.36198
v -3.519235 -36.933 65.36198
v 9.299876 36.933 64.79263
v 9.299876 -36.933 64.79263
v 21.7616 36.933 61.73335
v 21.7616 -36.933 61.73335
v 33.38704 36.933 56.30168
v 33.38704 -36.933 56.30168
v 43.72943 36.933 48.70638
v 43.72943 -36.933 48.70638
v 52.39133 36.933 39.23931
v 52.39133 -36.933 39.23931
v 59.03985 36.933 28.26429
v 59.03985 -36.933 28.26429
v 63.41951 36.933 16.2031
v 63.41951 -36.933 16.2031
v 65.36199 36.933 3.519228
v 65.36199 -36.933 3.519228
v 64.79265 36.933 -9.299887
v 64.79265 -36.933 -9.299887
v 61.73337 36.933 -21.76161
v 61.73337 -36.933 -21.76161
v 56.3017 36.933 -33.38705
v 56.3017 -36.933 -33.38705
v 48.70639 36.933 -43.72945
v 48.70639 -36.933 -43.72945
v 39.23932 36.933 -52.39135
v 39.23932 -36.933 -52.39135
v 28.26429 36.933 -59.03988
v 28.26429 -36.933 -59.03988
v 16.20309 36.933 -63.41954
v 16.20309 -36.933 -63.41954
v 3.519218 36.933 -65.36201
v 3.519218 -36.933 -65.36201
v -9.299901 36.933 -64.79267
v -9.299901 -36.933 -64.79267
v -21.76163 36.933 -61.73338
v -21.76163 -36.933 -61.73338
v -33.38707 36.933 -56.30171
v -33.38707 -36.933 -56.30171
v -43.72948 36.933 -48.70639
v -43.72948 -36.933 -48.70639
v -52.39137 36.933 -39.23932
v -52.39137 -36.933 -39.23932
v -59.0399 36.933 -28.26429
v -59.0399 -36.933 -28.26429
v -63.41956 36.933 -16.20309
v -63.41956 -36.933 -16.20309
v -65.36204 36.933 -3.519208
v -65.36204 -36.933 -3.519208
v -64.79269 36.933 9.299914
v -64.79269 -36.933 9.299914
v -61.73333 36.933 21.76159
v -61.73333 -36.933 21.76159
vt 0.001454264 0.006289572
vt 0.03261337 0.006289572
vt 0.03261337 0.9946502
vt 0.001454264 0.9946502
vt 0.06377247 0.9946502
vt 0.06377247 0.006289572
vt 0.09493157 0.9946502
vt 0.09493157 0.006289572
vt 0.1260907 0.9946502
vt 0.1260907 0.006289572
vt 0.1572498 0.9946502
vt 0.1572498 0.006289572
vt 0.1884089 0.9946502
vt 0.1884089 0.006289572
vt 0.219568 0.9946502
vt 0.219568 0.006289572
vt 0.2507271 0.9946502
vt 0.2507271 0.006289572
vt 0.2818863 0.9946502
vt 0.2818863 0.006289572
vt 0.3130453 0.9946502
vt 0.3130453 0.006289572
vt 0.3442044 0.9946502
vt 0.3442044 0.006289572
vt 0.3753636 0.9946502
vt 0.3753636 0.006289572
vt 0.4065227 0.9946502
vt 0.4065227 0.006289572
vt 0.4376818 0.9946502
vt 0.4376818 0.006289572
vt 0.4688409 0.9946502
vt 0.4688409 0.006289572
vt 0.5 0.9946502
vt 0.5 0.006289572
vt 0.531159 0.9946502
vt 0.531159 0.006289572
vt 0.5623182 0.9946502
vt 0.5623182 0.006289572
vt 0.5934773 0.9946502
vt 0.5934773 0.006289572
vt 0.6246365 0.9946502
vt 0.6246365 0.006289572
vt 0.6557955 0.9946502
vt 0.6557955 0.006289572
vt 0.6869547 0.9946502
vt 0.6869547 0.006289572
vt 0.7181137 0.9946502
vt 0.7181137 0.006289572
vt 0.7492729 0.9946502
vt 0.7492729 0.006289572
vt 0.780432 0.9946502
vt 0.780432 0.006289572
vt 0.8115911 0.9946502
vt 0.8115911 0.006289572
vt 0.8427502 0.9946502
vt 0.8427502 0.006289572
vt 0.8739094 0.9946502
vt 0.8739094 0.006289572
vt 0.9050684 0.9946502
vt 0.9050684 0.006289572
vt 0.9362274 0.9946502
vt 0.9362274 0.006289572
vt 0.9673866 0.9946502
vt 0.9673866 0.006289572
vt 0.9985458 0.9946502
vt 0.9985458 0.006289572
vn 0.9431169 0 -0.3324612
vn 0.860137 0 -0.5100631
vn 0.860137 0 -0.5100631
vn 0.9431169 0 -0.3324612
vn 0.7441014 0 -0.6680666
vn 0.7441014 0 -0.6680666
vn 0.5994701 0 -0.8003972
vn 0.5994701 0 -0.8003972
vn 0.4318021 0 -0.9019684
vn 0.4318021 0 -0.9019684
vn 0.2475397 0 -0.9688777
vn 0.2475397 0 -0.9688777
vn 0.05376448 0 -0.9985536
vn 0.05376448 0 -0.9985536
vn -0.1420768 0 -0.9898556
vn -0.1420768 0 -0.9898556
vn -0.3324581 0 -0.943118
vn -0.3324581 0 -0.943118
vn -0.5100629 0 -0.860137
vn -0.5100629 0 -0.860137
vn -0.6680667 0 -0.7441013
vn -0.6680667 0 -0.7441013
vn -0.8003972 0 -0.59947
vn -0.8003972 0 -0.59947
vn -0.9019685 0 -0.4318019
vn -0.9019685 0 -0.4318019
vn -0.9688778 0 -0.2475395
vn -0.9688778 0 -0.2475395
vn -0.9985537 0 -0.05376425
vn -0.9985537 0 -0.05376425
vn -0.9898556 0 0.1420765
vn -0.9898556 0 0.1420765
vn -0.9431181 0 0.3324579
vn -0.9431181 0 0.3324579
vn -0.8601369 0 0.5100632
vn -0.8601369 0 0.5100632
vn -0.7441012 0 0.668067
vn -0.7441012 0 0.668067
vn -0.59947 0 0.8003973
vn -0.59947 0 0.8003973
vn -0.4318016 0 0.9019685
vn -0.4318016 0 0.9019685
vn -0.2475394 0 0.9688778
vn -0.2475394 0 0.9688778
vn -0.05376445 0 0.9985536
vn -0.05376445 0 0.9985536
vn 0.1420767 0 0.9898556
vn 0.1420767 0 0.9898556
vn 0.3324583 0 0.943118
vn 0.3324583 0 0.943118
vn 0.5100634 0 0.8601368
vn 0.5100634 0 0.8601368
vn 0.668067 0 0.7441012
vn 0.668067 0 0.7441012
vn 0.8003975 0 0.5994697
vn 0.8003975 0 0.5994697
vn 0.9019687 0 0.4318015
vn 0.9019687 0 0.4318015
vn 0.9688778 0 0.2475394
vn 0.9688778 0 0.2475394
vn 0.9985537 0 0.05376401
vn 0.9985537 0 0.05376401
vn 0.9898552 0 -0.1420799
vn 0.9898552 0 -0.1420799
vn 0.9431169 0 -0.3324612
vn 0.9431169 0 -0.3324612
g mountainBG_0
f 3/3/3 2/2/2 1/1/1
f 4/4/4 3/3/3 1/1/1
f 3/3/3 5/5/5 2/2/2
f 5/5/5 6/6/6 2/2/2
f 5/5/5 7/7/7 6/6/6
f 7/7/7 8/8/8 6/6/6
f 7/7/7 9/9/9 8/8/8
f 9/9/9 10/10/10 8/8/8
f 9/9/9 11/11/11 10/10/10
f 11/11/11 12/12/12 10/10/10
f 11/11/11 13/13/13 12/12/12
f 13/13/13 14/14/14 12/12/12
f 13/13/13 15/15/15 14/14/14
f 15/15/15 16/16/16 14/14/14
f 15/15/15 17/17/17 16/16/16
f 17/17/17 18/18/18 16/16/16
f 17/17/17 19/19/19 18/18/18
f 19/19/19 20/20/20 18/18/18
f 19/19/19 21/21/21 20/20/20
f 21/21/21 22/22/22 20/20/20
f 21/21/21 23/23/23 22/22/22
f 23/23/23 24/24/24 22/22/22
f 23/23/23 25/25/25 24/24/24
f 25/25/25 26/26/26 24/24/24
f 25/25/25 27/27/27 26/26/26
f 27/27/27 28/28/28 26/26/26
f 27/27/27 29/29/29 28/28/28
f 29/29/29 30/30/30 28/28/28
f 29/29/29 31/31/31 30/30/30
f 31/31/31 32/32/32 30/30/30
f 31/31/31 33/33/33 32/32/32
f 33/33/33 34/34/34 32/32/32
f 33/33/33 35/35/35 34/34/34
f 35/35/35 36/36/36 34/34/34
f 35/35/35 37/37/37 36/36/36
f 37/37/37 38/38/38 36/36/36
f 37/37/37 39/39/39 38/38/38
f 39/39/39 40/40/40 38/38/38
f 39/39/39 41/41/41 40/40/40
f 41/41/41 42/42/42 40/40/40
f 41/41/41 43/43/43 42/42/42
f 43/43/43 44/44/44 42/42/42
f 43/43/43 45/45/45 44/44/44
f 45/45/45 46/46/46 44/44/44
f 45/45/45 47/47/47 46/46/46
f 47/47/47 48/48/48 46/46/46
f 47/47/47 49/49/49 48/48/48
f 49/49/49 50/50/50 48/48/48
f 49/49/49 51/51/51 50/50/50
f 51/51/51 52/52/52 50/50/50
f 51/51/51 53/53/53 52/52/52
f 53/53/53 54/54/54 52/52/52
f 53/53/53 55/55/55 54/54/54
f 55/55/55 56/56/56 54/54/54
f 55/55/55 57/57/57 56/56/56
f 57/57/57 58/58/58 56/56/56
f 57/57/57 59/59/59 58/58/58
f 59/59/59 60/60/60 58/58/58
f 59/59/59 61/61/61 60/60/60
f 61/61/61 62/62/62 60/60/60
f 61/61/61 63/63/63 62/62/62
f 63/63/63 64/64/64 62/62/62
f 63/63/63 65/65/65 64/64/64
f 65/65/65 66/66/66 64/64/64
