g nightmarketShipPennant
v -0.04441505 3.202363 -0.01883998
v -0.08937709 3.311554 -0.05247378
v 0.06539758 3.293693 0.05153028
v 0.06545585 3.19138 0.05177166
v 0.2031714 3.206773 0.08496675
v 0.2030144 3.309278 0.08431591
v 0.3485721 3.207185 0.1500614
v 0.3561172 3.294676 0.1813801
v 0.4998525 3.196135 0.2395619
v 0.5011277 3.295849 0.244855
v 0.645896 3.195294 0.3073242
v 0.6365178 3.315774 0.2683983
v 0.7839603 3.210007 0.3419676
v 0.7863367 3.307574 0.3518316
v -0.09128804 3.093218 -0.04580662
v 0.06616424 3.087799 0.05471256
v 0.2095242 3.092189 0.1113366
v 0.3511368 3.099985 0.1607076
v 0.492341 3.108577 0.2083838
v 0.6440279 3.096735 0.2995707
v 0.7890331 3.097919 0.3630235
v 0.9321563 3.256069 0.4186648
v 0.9396785 3.292506 0.4498881
v 1.077302 3.308078 0.4827007
v 0.9363564 3.145682 0.4360986
v 0.9280844 3.110707 0.4017633
v 1.077314 3.103655 0.4827519
vt 0.03551775 0.4999999
vt -8.940697E-08 0.5799135
vt 0.1249999 0.5799135
vt 0.1249999 0.4999999
vt 0.2499999 0.4999999
vt 0.2499999 0.5799135
vt 0.3749999 0.4999999
vt 0.3749999 0.5799135
vt 0.5 0.4999999
vt 0.5 0.5799135
vt 0.625 0.4999999
vt 0.625 0.5799135
vt 0.75 0.4999999
vt 0.75 0.5799135
vt -8.940697E-08 0.4200865
vt 0.1249999 0.4200865
vt 0.2499999 0.4200865
vt 0.3749999 0.4200865
vt 0.5 0.4200865
vt 0.625 0.4200865
vt 0.75 0.4200865
vt 0.875 0.5399567
vt 0.875 0.5799135
vt 1 0.5799135
vt 0.875 0.4600433
vt 0.875 0.4200865
vt 1 0.4200865
vn -0.5438712 0.01918115 0.8389495
vn -0.5493726 0.01686331 0.8354073
vn -0.4064679 0.01095652 0.9135994
vn -0.4209275 0.04277072 0.9060854
vn -0.3529677 0.03414418 0.9350123
vn -0.3680042 -0.06378425 0.9276338
vn -0.4352597 -0.04785635 0.8990321
vn -0.4668492 -0.1373544 0.873605
vn -0.4213168 -0.06692462 0.9044408
vn -0.3847525 0.002933901 0.9230151
vn -0.3766238 0.03627473 0.9256557
vn -0.3445768 0.1220007 0.9307968
vn -0.3914455 0.004400089 0.9201908
vn -0.4233204 -0.02823996 0.9055399
vn -0.5380861 0.02160575 0.8426129
vn -0.4291282 0.06923142 0.9005864
vn -0.342917 0.1286238 0.930518
vn -0.398371 0.03247483 0.9166492
vn -0.4445572 -0.1166599 0.8881214
vn -0.404964 -0.05431576 0.9127179
vn -0.3732782 -0.002271765 0.9277167
vn -0.4410343 -0.2708108 0.8556579
vn -0.3687677 -0.3681577 0.8535047
vn -0.1109289 -0.6333805 0.7658484
vn -0.4332626 -0.2313399 0.8710715
vn -0.4302345 -0.1529504 0.8896653
vn -0.4067415 -0.5891877 0.6981541
g nightmarketShipPennant_0
f 3/3/3 2/2/2 1/1/1
f 4/4/4 3/3/3 1/1/1
f 4/4/4 5/5/5 3/3/3
f 5/5/5 6/6/6 3/3/3
f 5/5/5 7/7/7 6/6/6
f 7/7/7 8/8/8 6/6/6
f 7/7/7 9/9/9 8/8/8
f 9/9/9 10/10/10 8/8/8
f 9/9/9 11/11/11 10/10/10
f 11/11/11 12/12/12 10/10/10
f 11/11/11 13/13/13 12/12/12
f 13/13/13 14/14/14 12/12/12
f 4/4/4 1/1/1 15/15/15
f 16/16/16 4/4/4 15/15/15
f 4/4/4 16/16/16 5/5/5
f 16/16/16 17/17/17 5/5/5
f 5/5/5 17/17/17 7/7/7
f 17/17/17 18/18/18 7/7/7
f 7/7/7 18/18/18 9/9/9
f 18/18/18 19/19/19 9/9/9
f 9/9/9 19/19/19 11/11/11
f 19/19/19 20/20/20 11/11/11
f 11/11/11 20/20/20 13/13/13
f 20/20/20 21/21/21 13/13/13
f 13/13/13 22/22/22 14/14/14
f 22/22/22 23/23/23 14/14/14
f 22/22/22 24/24/24 23/23/23
f 13/13/13 21/21/21 25/25/25
f 21/21/21 26/26/26 25/25/25
f 25/25/25 26/26/26 27/27/27
