g omusshard
v -0.4267075 -0.3126216 -0.1251616
v -0.1896494 -0.03241414 -0.2595899
v -0.2209604 -0.05184136 -0.1942054
v -0.2962168 -0.1320772 -0.1279079
v -0.2076645 -0.01653733 -0.1034072
v -0.2686338 -0.02347336 -0.07334828
v -0.2496933 0.07413061 0.008455256
v 0.04504298 0.2935743 0.04066526
v -0.2800303 0.009796502 -0.03472279
v -0.3090073 -0.003167697 -0.01287901
v -0.4267075 -0.3126216 -0.1251616
v -0.3129599 0.002754226 0.02917752
v -0.3375791 -0.04332699 0.05808222
v -0.4267075 -0.3126216 -0.1251616
v -0.1542881 0.2616135 0.1219694
v -0.07097752 0.301694 0.1014347
v 0.04504298 0.2935743 0.04066526
v 0.1247842 0.3083749 -0.2358978
v 0.3513613 0.6242546 0.04136885
v 0.03384914 0.3811641 -0.1565532
v -0.1896494 -0.03241414 -0.2595899
v -0.4267075 -0.3126216 -0.1251616
v -0.002239728 -0.1743116 -0.2958179
v -0.2652353 -0.1490418 0.1736341
v -0.4267075 -0.3126216 -0.1251616
v -0.3375791 -0.04332699 0.05808222
v -0.4267075 -0.3126216 -0.1251616
v -0.2652353 -0.1490418 0.1736341
v -0.1206064 -0.2680031 0.1551974
v 0.008893084 0.2105075 0.2708987
v 0.3513613 0.6242546 0.04136885
v 0.1630386 0.1932307 0.1178591
v 0.04504298 0.2935743 0.04066526
v 0.3513613 0.6242546 0.04136885
v -0.07097752 0.301694 0.1014347
v -0.002239728 -0.1743116 -0.2958179
v -0.4267075 -0.3126216 -0.1251616
v -0.1844736 -0.3284927 -0.10175
v -0.02969822 -0.2581962 -0.189289
v 0.3513613 0.6242546 0.04136885
v 0.2321548 0.2869473 -0.04496945
v 0.3231314 0.2075899 0.01477297
v 0.1630386 0.1932307 0.1178591
v 0.3513613 0.6242546 0.04136885
v 0.2880068 0.1612342 0.09580459
v 0.007069353 0.37406 -0.05805878
v 0.04504298 0.2935743 0.04066526
v -0.2076645 -0.01653733 -0.1034072
v -0.2209604 -0.05184136 -0.1942054
v -0.04051609 0.3528817 -0.1358392
v -0.1896494 -0.03241414 -0.2595899
v -0.1896494 -0.03241414 -0.2595899
v 0.1247842 0.3083749 -0.2358978
v 0.03384914 0.3811641 -0.1565532
v -0.04051609 0.3528817 -0.1358392
v -0.1896494 -0.03241414 -0.2595899
v -0.002239728 -0.1743116 -0.2958179
v 0.1247842 0.3083749 -0.2358978
v -0.002239728 -0.1743116 -0.2958179
v 0.2321548 0.2869473 -0.04496945
v 0.1247842 0.3083749 -0.2358978
v -0.002239728 -0.1743116 -0.2958179
v -0.02969822 -0.2581962 -0.189289
v -0.005069318 -0.2216308 -0.06304093
v 0.2321548 0.2869473 -0.04496945
v 0.3231314 0.2075899 0.01477297
v 0.2321548 0.2869473 -0.04496945
v -0.005069318 -0.2216308 -0.06304093
v -0.3375791 -0.04332699 0.05808222
v -0.3129599 0.002754226 0.02917752
v -0.1542881 0.2616135 0.1219694
v -0.3375791 -0.04332699 0.05808222
v -0.1542881 0.2616135 0.1219694
v -0.1428574 0.2558775 0.135847
v -0.2652353 -0.1490418 0.1736341
v -0.2652353 -0.1490418 0.1736341
v 0.008893084 0.2105075 0.2708987
v -0.1206064 -0.2680031 0.1551974
v 0.008893084 0.2105075 0.2708987
v 0.1630386 0.1932307 0.1178591
v -0.1206064 -0.2680031 0.1551974
v -0.1206064 -0.2680031 0.1551974
v 0.1630386 0.1932307 0.1178591
v -0.005069318 -0.2216308 -0.06304093
v -0.0877329 -0.3028005 0.03179924
v 0.1630386 0.1932307 0.1178591
v 0.2880068 0.1612342 0.09580459
v -0.005069318 -0.2216308 -0.06304093
v -0.04051609 0.3528817 -0.1358392
v 0.03384914 0.3811641 -0.1565532
v 0.007069353 0.37406 -0.05805878
v 0.3513613 0.6242546 0.04136885
v -0.09496678 0.2828093 0.1647612
v 0.008893084 0.2105075 0.2708987
v -0.2652353 -0.1490418 0.1736341
v -0.1428574 0.2558775 0.135847
v -0.07097752 0.301694 0.1014347
v 0.3513613 0.6242546 0.04136885
v -0.09496678 0.2828093 0.1647612
v -0.1428574 0.2558775 0.135847
v -0.1542881 0.2616135 0.1219694
v -0.1844736 -0.3284927 -0.10175
v -0.4267075 -0.3126216 -0.1251616
v -0.1206064 -0.2680031 0.1551974
v -0.0877329 -0.3028005 0.03179924
v 0.3513613 0.6242546 0.04136885
v 0.008893084 0.2105075 0.2708987
v -0.09496678 0.2828093 0.1647612
v 0.3513613 0.6242546 0.04136885
v 0.1247842 0.3083749 -0.2358978
v 0.2321548 0.2869473 -0.04496945
v 0.3513613 0.6242546 0.04136885
v 0.04504298 0.2935743 0.04066526
v 0.007069353 0.37406 -0.05805878
v 0.2880068 0.1612342 0.09580459
v 0.3513613 0.6242546 0.04136885
v 0.3231314 0.2075899 0.01477297
v 0.3231314 0.2075899 0.01477297
v -0.005069318 -0.2216308 -0.06304093
v 0.2880068 0.1612342 0.09580459
v -0.005069318 -0.2216308 -0.06304093
v -0.02969822 -0.2581962 -0.189289
v -0.1844736 -0.3284927 -0.10175
v -0.0877329 -0.3028005 0.03179924
vt 0.9664639 0.2333763
vt 0.9647375 0.1995347
vt 0.9605995 0.2045816
vt 0.9589823 0.2156111
vt 0.9520543 0.2048177
vt 0.9506506 0.2096982
vt 0.9406396 0.2057994
vt 0.9270769 0.1775646
vt 0.946605 0.2097477
vt 0.9456668 0.2128617
vt 0.9664639 0.2333763
vt 0.9421848 0.2141398
vt 0.9417559 0.2191045
vt 0.9664639 0.2333763
vt 0.9241456 0.1934859
vt 0.9234015 0.185767
vt 0.9270769 0.1775646
vt 0.9475014 0.1630432
vt 0.9121014 0.1413517
vt 0.9398609 0.1667693
vt 0.9647375 0.1995347
vt 0.9664639 0.2333763
vt 0.9701314 0.1955907
vt 0.9353074 0.2247227
vt 0.9664639 0.2333763
vt 0.9417559 0.2191045
vt 0.9664639 0.2333763
vt 0.9353074 0.2247227
vt 0.9390363 0.2225261
vt 0.9121015 0.1919094
vt 0.9121014 0.1413517
vt 0.9229283 0.1789962
vt 0.9270769 0.1775646
vt 0.9121014 0.1413517
vt 0.9234015 0.185767
vt 0.9701314 0.1955907
vt 0.9664639 0.2333763
vt 0.9622029 0.2211403
vt 0.9648715 0.2054081
vt 0.9121014 0.1413517
vt 0.931806 0.1643788
vt 0.928657 0.1656023
vt 0.9229283 0.1789962
vt 0.9121014 0.1413517
vt 0.9242383 0.1729025
vt 0.9326293 0.1719514
vt 0.9270769 0.1775646
vt 0.9520543 0.2048177
vt 0.9605995 0.2045816
vt 0.9400827 0.1733152
vt 0.9647375 0.1995347
vt 0.9647375 0.1995347
vt 0.9475014 0.1630432
vt 0.9398609 0.1667693
vt 0.9400827 0.1733152
vt 0.9647375 0.1995347
vt 0.9701314 0.1955907
vt 0.9475014 0.1630432
vt 0.9701314 0.1955907
vt 0.931806 0.1643788
vt 0.9475014 0.1630432
vt 0.9701314 0.1955907
vt 0.9648715 0.2054081
vt 0.9533393 0.2060902
vt 0.931806 0.1643788
vt 0.928657 0.1656023
vt 0.931806 0.1643788
vt 0.9533393 0.2060902
vt 0.9417559 0.2191045
vt 0.9421848 0.2141398
vt 0.9241456 0.1934859
vt 0.9417559 0.2191045
vt 0.9241456 0.1934859
vt 0.9231021 0.1936107
vt 0.9353074 0.2247227
vt 0.9353074 0.2247227
vt 0.9121015 0.1919094
vt 0.9390363 0.2225261
vt 0.9121015 0.1919094
vt 0.9229283 0.1789962
vt 0.9390363 0.2225261
vt 0.9390363 0.2225261
vt 0.9229283 0.1789962
vt 0.9533393 0.2060902
vt 0.949584 0.2185377
vt 0.9229283 0.1789962
vt 0.9242383 0.1729025
vt 0.9533393 0.2060902
vt 0.9400827 0.1733152
vt 0.9398609 0.1667693
vt 0.9326293 0.1719514
vt 0.9121014 0.1413517
vt 0.919319 0.1902951
vt 0.9121015 0.1919094
vt 0.9353074 0.2247227
vt 0.9231021 0.1936107
vt 0.9234015 0.185767
vt 0.9121014 0.1413517
vt 0.919319 0.1902951
vt 0.9231021 0.1936107
vt 0.9241456 0.1934859
vt 0.9622029 0.2211403
vt 0.9664639 0.2333763
vt 0.9390363 0.2225261
vt 0.949584 0.2185377
vt 0.9121014 0.1413517
vt 0.9121015 0.1919094
vt 0.919319 0.1902951
vt 0.9121014 0.1413517
vt 0.9475014 0.1630432
vt 0.931806 0.1643788
vt 0.9121014 0.1413517
vt 0.9270769 0.1775646
vt 0.9326293 0.1719514
vt 0.9242383 0.1729025
vt 0.9121014 0.1413517
vt 0.928657 0.1656023
vt 0.928657 0.1656023
vt 0.9533393 0.2060902
vt 0.9242383 0.1729025
vt 0.9533393 0.2060902
vt 0.9648715 0.2054081
vt 0.9622029 0.2211403
vt 0.949584 0.2185377
vn -0.7938082 0.5705397 -0.2106019
vn -0.7938082 0.5705397 -0.2106019
vn -0.7709619 0.5820768 -0.258465
vn -0.7297152 0.5332608 -0.4279588
vn -0.4633746 0.6355072 -0.6175877
vn -0.5415246 0.5727023 -0.6154375
vn -0.4760078 0.6304722 -0.6131242
vn -0.3989995 0.6332446 -0.6631747
vn -0.5041433 0.5881975 -0.6323474
vn -0.7857029 0.4699457 -0.4022709
vn -0.6561008 0.4651721 -0.5942613
vn -0.846765 0.4767496 -0.2360062
vn -0.907243 0.3962507 -0.1410519
vn -0.907243 0.3962507 -0.1410519
vn -0.6084237 0.6140245 -0.5027869
vn -0.416296 0.5918075 -0.6902619
vn -0.3475061 0.5754133 -0.7403641
vn -0.1245177 0.6559487 -0.744464
vn -0.07782544 0.6886262 -0.720928
vn -0.07782541 0.6886262 -0.7209279
vn -0.3160396 -0.1795564 -0.9316
vn -0.3160396 -0.1795564 -0.9316
vn -0.3160396 -0.1795564 -0.9316
vn -0.8667259 -0.05077872 0.4961933
vn -0.8667259 -0.05077872 0.4961933
vn -0.8667259 -0.05077872 0.4961933
vn -0.4586866 -0.6513322 0.6044611
vn -0.4586866 -0.6513322 0.6044611
vn -0.4586866 -0.6513322 0.6044611
vn 0.6714187 -0.2350895 0.7028014
vn 0.6840788 -0.1731469 0.7085593
vn 0.6714187 -0.2350895 0.7028014
vn -0.404179 0.3958741 -0.8245745
vn -0.408188 0.3798816 -0.8301039
vn -0.408188 0.3798816 -0.8301039
vn 0.008121112 -0.786649 -0.617347
vn 0.008121112 -0.786649 -0.617347
vn 0.008120047 -0.7866485 -0.6173478
vn 0.008120082 -0.7866485 -0.6173478
vn 0.5580444 0.01515132 -0.8296728
vn 0.5455773 -0.005448014 -0.8380428
vn 0.5580444 0.01515136 -0.8296728
vn 0.1802955 0.02643361 0.9832572
vn 0.1949694 0.08816471 0.9768386
vn 0.1949693 0.08816469 0.9768386
vn -0.8384898 0.3910296 0.3795136
vn -0.7470611 0.3447107 0.5683962
vn -0.8824357 0.4143489 0.2227601
vn -0.9019533 0.4314919 0.01717101
vn -0.8921114 0.4202776 0.1658433
vn -0.8593552 0.4243011 -0.2854419
vn -0.3870343 0.4143681 -0.8237133
vn -0.3870343 0.4143681 -0.8237133
vn -0.3870334 0.4143676 -0.823714
vn -0.3870333 0.4143675 -0.823714
vn -0.08167456 0.143921 -0.986213
vn -0.08167456 0.143921 -0.986213
vn -0.08167456 0.143921 -0.986213
vn 0.8521389 -0.1624984 -0.4974469
vn 0.8521389 -0.1624984 -0.4974469
vn 0.8521389 -0.1624984 -0.4974469
vn 0.9068435 -0.4116549 -0.09041606
vn 0.9064224 -0.4159238 -0.07352577
vn 0.9064224 -0.4159237 -0.07352577
vn 0.9068435 -0.4116549 -0.09041606
vn 0.4327273 -0.1703916 -0.8852761
vn 0.4512572 -0.145505 -0.8804517
vn 0.4327273 -0.1703916 -0.8852761
vn -0.8613545 0.5033312 0.06874517
vn -0.8613536 0.5033336 0.06874082
vn -0.8613536 0.5033336 0.06874081
vn -0.6852936 0.2702245 0.6762777
vn -0.6852936 0.2702224 0.6762785
vn -0.6852936 0.2702224 0.6762785
vn -0.6852936 0.2702245 0.6762777
vn -0.05687598 -0.2200728 0.973824
vn -0.05687598 -0.2200728 0.973824
vn -0.05687598 -0.2200728 0.973824
vn 0.6431344 -0.3399614 0.6861519
vn 0.6431344 -0.3399614 0.6861519
vn 0.6431344 -0.3399614 0.6861519
vn 0.8107079 -0.4703379 0.3486187
vn 0.8107079 -0.4703379 0.3486187
vn 0.817153 -0.4708107 0.332563
vn 0.817153 -0.4708107 0.3325629
vn 0.06364438 -0.3858239 0.9203746
vn 0.05329823 -0.4172048 0.9072484
vn 0.05329823 -0.4172048 0.9072484
vn -0.3629557 0.9312733 -0.03151707
vn -0.5460852 0.8330532 -0.08839297
vn -0.5513076 0.8294255 -0.09007452
vn -0.5670604 0.8181596 -0.09517018
vn -0.6001466 0.252219 0.7590848
vn -0.6001463 0.2522185 0.7590851
vn -0.6001463 0.2522185 0.7590851
vn -0.6001465 0.252219 0.7590848
vn -0.5965086 0.8023073 0.02192546
vn -0.606279 0.7952166 0.007497937
vn -0.5737594 0.8172185 0.05434997
vn -0.4556773 0.8668403 0.2023515
vn -0.4556773 0.8668403 0.2023515
vn -0.08724742 -0.964623 0.2487775
vn -0.08724993 -0.9646226 0.2487784
vn -0.08724993 -0.9646226 0.2487784
vn -0.08724748 -0.964623 0.2487774
vn -0.2886617 0.6359695 0.7156936
vn -0.3399103 0.5885416 0.7335392
vn -0.2886617 0.6359695 0.7156935
vn 0.8500463 -0.1730794 -0.4974583
vn 0.8410571 -0.2136708 -0.4969583
vn 0.8410571 -0.2136708 -0.4969583
vn -0.5635816 0.520694 0.6412906
vn -0.5983692 0.492683 0.6318368
vn -0.5635816 0.520694 0.6412905
vn 0.9310884 -0.08571269 0.3545812
vn 0.9310884 -0.08571269 0.3545812
vn 0.9310884 -0.08571269 0.3545812
vn 0.7946255 -0.6070934 -0.002839027
vn 0.7946255 -0.6070934 -0.002839027
vn 0.7946255 -0.6070934 -0.002839027
vn 0.5172491 -0.8550463 -0.03673064
vn 0.517249 -0.8550464 -0.03673065
vn 0.5172491 -0.8550463 -0.03673064
vn 0.5172491 -0.8550463 -0.03673064
g omusshard_0
f 3/3/3 2/2/2 1/1/1
f 4/4/4 3/3/3 1/1/1
f 3/3/3 4/4/4 5/5/5
f 4/4/4 6/6/6 5/5/5
f 5/5/5 6/6/6 7/7/7
f 7/7/7 8/8/8 5/5/5
f 6/6/6 9/9/9 7/7/7
f 10/10/10 6/6/6 4/4/4
f 10/10/10 9/9/9 6/6/6
f 9/9/9 10/10/10 7/7/7
f 4/4/4 11/11/11 10/10/10
f 10/10/10 12/12/12 7/7/7
f 12/12/12 10/10/10 13/13/13
f 10/10/10 14/14/14 13/13/13
f 7/7/7 12/12/12 15/15/15
f 16/16/16 7/7/7 15/15/15
f 16/16/16 17/17/17 7/7/7
f 20/20/20 19/19/19 18/18/18
f 23/23/23 22/22/22 21/21/21
f 26/26/26 25/25/25 24/24/24
f 29/29/29 28/28/28 27/27/27
f 32/32/32 31/31/31 30/30/30
f 35/35/35 34/34/34 33/33/33
f 38/38/38 37/37/37 36/36/36
f 39/39/39 38/38/38 36/36/36
f 42/42/42 41/41/41 40/40/40
f 45/45/45 44/44/44 43/43/43
f 48/48/48 47/47/47 46/46/46
f 49/49/49 48/48/48 46/46/46
f 50/50/50 49/49/49 46/46/46
f 50/50/50 51/51/51 49/49/49
f 54/54/54 53/53/53 52/52/52
f 55/55/55 54/54/54 52/52/52
f 58/58/58 57/57/57 56/56/56
f 61/61/61 60/60/60 59/59/59
f 64/64/64 63/63/63 62/62/62
f 65/65/65 64/64/64 62/62/62
f 68/68/68 67/67/67 66/66/66
f 71/71/71 70/70/70 69/69/69
f 74/74/74 73/73/73 72/72/72
f 75/75/75 74/74/74 72/72/72
f 78/78/78 77/77/77 76/76/76
f 81/81/81 80/80/80 79/79/79
f 84/84/84 83/83/83 82/82/82
f 85/85/85 84/84/84 82/82/82
f 88/88/88 87/87/87 86/86/86
f 91/91/91 90/90/90 89/89/89
f 90/90/90 91/91/91 92/92/92
f 95/95/95 94/94/94 93/93/93
f 96/96/96 95/95/95 93/93/93
f 99/99/99 98/98/98 97/97/97
f 100/100/100 99/99/99 97/97/97
f 101/101/101 100/100/100 97/97/97
f 104/104/104 103/103/103 102/102/102
f 105/105/105 104/104/104 102/102/102
f 108/108/108 107/107/107 106/106/106
f 111/111/111 110/110/110 109/109/109
f 114/114/114 113/113/113 112/112/112
f 117/117/117 116/116/116 115/115/115
f 120/120/120 119/119/119 118/118/118
f 123/123/123 122/122/122 121/121/121
f 124/124/124 123/123/123 121/121/121
