g pitchfork_break02
v 0.03105286 -0.7092465 -0.04915553
v 0.05893005 -0.6953329 -6.245196E-05
v 0.02395691 -0.3456039 -0.03869441
v 0.04645324 -0.3377109 0.002111017
v 0.04645324 -0.3377109 0.002111017
v 0.05893005 -0.6953329 -6.245196E-05
v 0.02395691 -0.3461801 0.04283374
v 0.03105286 -0.7203653 0.04909308
v 0.04167053 0.1431241 0.004952013
v 0.04645324 -0.3377109 0.002111017
v 0.0212262 0.1384238 0.04228987
v 0.02395691 -0.3461801 0.04283374
v 0.01821594 0.7117929 0.04382012
v 0.03649475 0.7115073 0.00975142
v 0.02395691 -0.3456039 -0.03869441
v 0.04645324 -0.3377109 0.002111017
v 0.02078918 0.1388669 -0.03219735
v 0.04167053 0.1431241 0.004952013
v 0.01691345 0.7121902 -0.02359211
v 0.03649475 0.7115073 0.00975142
v 6.103515E-07 -0.7332498 -0.05772108
v 0.03105286 -0.7092465 -0.04915553
v 6.103515E-07 -0.3537344 -0.04595989
v 0.02395691 -0.3456039 -0.03869441
v 6.103515E-07 0.1345023 -0.03851217
v 0.02395691 -0.3456039 -0.03869441
v 0.02078918 0.1388669 -0.03219735
v 0.01691345 0.7121902 -0.02359211
v 6.103515E-07 0.7129574 -0.02895823
v 0.0212262 0.1384238 0.04228987
v 0.02395691 -0.3461801 0.04283374
v 6.103515E-07 0.1338809 0.04883873
v 6.103515E-07 -0.3544119 0.05001656
v 0.02395691 -0.3461801 0.04283374
v 0.03105286 -0.7203653 0.04909308
v 6.103515E-07 -0.7497958 0.05772108
v 0.01821594 0.7117929 0.04382012
v 6.103515E-07 0.7121561 0.05002728
v 6.103515E-07 0.7129574 -0.02895823
v 6.103515E-07 0.1345023 -0.03851217
v 0.02078918 0.1388669 -0.03219735
v 0.0212262 0.1384238 0.04228987
v 6.103515E-07 0.1338809 0.04883873
v 6.103515E-07 0.7121561 0.05002728
v -0.05893005 -0.7438003 -6.245196E-05
v -0.03105286 -0.7316073 -0.04915553
v -0.04645324 -0.3377109 0.002111017
v -0.02395691 -0.3456039 -0.03869441
v -0.03105286 -0.7480502 0.04909308
v -0.05893005 -0.7438003 -6.245196E-05
v -0.02395691 -0.3461801 0.04283374
v -0.04645324 -0.3377109 0.002111017
v -0.02395691 -0.3461801 0.04283374
v -0.04645324 -0.3377109 0.002111017
v -0.0212262 0.1384238 0.04228987
v -0.04167053 0.1431241 0.004952013
v -0.01821594 0.7117929 0.04382012
v -0.03649475 0.7115073 0.00975142
v -0.02395691 -0.3456039 -0.03869441
v -0.02078918 0.1388669 -0.03219735
v -0.04645324 -0.3377109 0.002111017
v -0.04167053 0.1431241 0.004952013
v -0.01691345 0.7121902 -0.02359211
v -0.03649475 0.7115073 0.00975142
v 6.103515E-07 -0.7332498 -0.05772108
v 6.103515E-07 -0.3537344 -0.04595989
v -0.03105286 -0.7316073 -0.04915553
v -0.02395691 -0.3456039 -0.03869441
v 6.103515E-07 0.1345023 -0.03851217
v -0.02395691 -0.3456039 -0.03869441
v -0.02078918 0.1388669 -0.03219735
v 6.103515E-07 0.7129574 -0.02895823
v -0.01691345 0.7121902 -0.02359211
v 6.103515E-07 -0.3544119 0.05001656
v -0.02395691 -0.3461801 0.04283374
v 6.103515E-07 0.1338809 0.04883873
v -0.0212262 0.1384238 0.04228987
v 6.103515E-07 -0.7497958 0.05772108
v -0.02974426 -0.7481241 0.04945672
v -0.03105286 -0.7480502 0.04909308
v -0.02395691 -0.3461801 0.04283374
v -0.01821594 0.7117929 0.04382012
v 6.103515E-07 0.7121561 0.05002728
v 6.103515E-07 0.1345023 -0.03851217
v 6.103515E-07 0.7129574 -0.02895823
v -0.02078918 0.1388669 -0.03219735
v 6.103515E-07 0.1338809 0.04883873
v -0.0212262 0.1384238 0.04228987
v 6.103515E-07 0.7121561 0.05002728
v 0.05893005 -0.6953329 -6.245196E-05
v 0.03105286 -0.7092465 -0.04915553
v 0.0264801 -0.7258402 -6.245196E-05
v 0.03105286 -0.7203653 0.04909308
v 0.05893005 -0.6953329 -6.245196E-05
v 0.0264801 -0.7258402 -6.245196E-05
v 6.103515E-07 -0.7497958 0.05772108
v 0.03105286 -0.7203653 0.04909308
v -0.001105347 -0.7410281 -6.245196E-05
v 0.03105286 -0.7203653 0.04909308
v 0.0264801 -0.7258402 -6.245196E-05
v -0.001105347 -0.7410281 -6.245196E-05
v 0.03105286 -0.7092465 -0.04915553
v 6.103515E-07 -0.7332498 -0.05772108
v 0.0264801 -0.7258402 -6.245196E-05
v 6.103515E-07 -0.7332498 -0.05772108
v -0.001105347 -0.7410281 -6.245196E-05
v 0.0264801 -0.7258402 -6.245196E-05
v 6.103515E-07 -0.7497958 0.05772108
v -0.001105347 -0.7410281 -6.245196E-05
v -0.02974426 -0.7481241 0.04945672
v -0.001105347 -0.7410281 -6.245196E-05
v -0.03083557 -0.7461514 -6.245256E-05
v -0.02974426 -0.7481241 0.04945672
v 6.103515E-07 -0.7332498 -0.05772108
v -0.03105286 -0.7316073 -0.04915553
v -0.001105347 -0.7410281 -6.245196E-05
v -0.03105286 -0.7316073 -0.04915553
v -0.03083557 -0.7461514 -6.245256E-05
v -0.001105347 -0.7410281 -6.245196E-05
v -0.02974426 -0.7481241 0.04945672
v -0.03083557 -0.7461514 -6.245256E-05
v -0.03105286 -0.7480502 0.04909308
v -0.03083557 -0.7461514 -6.245256E-05
v -0.05893005 -0.7438003 -6.245196E-05
v -0.03105286 -0.7480502 0.04909308
v -0.03105286 -0.7316073 -0.04915553
v -0.05893005 -0.7438003 -6.245196E-05
v -0.03083557 -0.7461514 -6.245256E-05
v 6.103515E-07 0.7121561 0.05002728
v -0.01821594 0.7117929 0.04382012
v -6.103515E-07 0.7497958 0.01053385
v -0.03649475 0.7115073 0.00975142
v -0.01691345 0.7121902 -0.02359211
v 6.103515E-07 0.7129574 -0.02895823
v 0.01691345 0.7121902 -0.02359211
v -6.103515E-07 0.7497958 0.01053385
v 6.103515E-07 0.7129574 -0.02895823
v 0.03649475 0.7115073 0.00975142
v 0.01821594 0.7117929 0.04382012
v 6.103515E-07 0.7121561 0.05002728
vt 0.1745299 0.05243456
vt 0.1695246 0.05385315
vt 0.1734633 0.08951065
vt 0.1693029 0.09031543
vt 0.1693029 0.09031543
vt 0.1695246 0.05385315
vt 0.1651509 0.08945194
vt 0.1645127 0.05130088
vt 0.1690133 0.1393402
vt 0.1693029 0.09031543
vt 0.1652064 0.138861
vt 0.1651509 0.08945194
vt 0.1650504 0.2276686
vt 0.1685239 0.2276396
vt 0.1734633 0.08951065
vt 0.1693029 0.09031543
vt 0.1728009 0.1389062
vt 0.1690133 0.1393402
vt 0.1719235 0.2277093
vt 0.1685239 0.2276396
vt 0.1754032 0.04998723
vt 0.1745299 0.05243456
vt 0.1742041 0.08868173
vt 0.1734633 0.08951065
vt 0.1734447 0.1384611
vt 0.1734633 0.08951065
vt 0.1728009 0.1389062
vt 0.1719235 0.2277093
vt 0.1724706 0.2277875
vt 0.1652064 0.138861
vt 0.1651509 0.08945194
vt 0.1645387 0.1383978
vt 0.1644186 0.08861265
vt 0.1651509 0.08945194
vt 0.1645127 0.05130088
vt 0.163633 0.04830024
vt 0.1650504 0.2276686
vt 0.1644175 0.2277057
vt 0.1724706 0.2277875
vt 0.1734447 0.1384611
vt 0.1728009 0.1389062
vt 0.1652064 0.138861
vt 0.1645387 0.1383978
vt 0.1644175 0.2277057
vt 0.1695246 0.04891154
vt 0.1745299 0.05015469
vt 0.1693029 0.09031543
vt 0.1734633 0.08951065
vt 0.1645127 0.04847822
vt 0.1695246 0.04891154
vt 0.1651509 0.08945194
vt 0.1693029 0.09031543
vt 0.1651509 0.08945194
vt 0.1693029 0.09031543
vt 0.1652064 0.138861
vt 0.1690133 0.1393402
vt 0.1650504 0.2276686
vt 0.1685239 0.2276396
vt 0.1734633 0.08951065
vt 0.1728009 0.1389062
vt 0.1693029 0.09031543
vt 0.1690133 0.1393402
vt 0.1719235 0.2277093
vt 0.1685239 0.2276396
vt 0.1754032 0.04998723
vt 0.1742041 0.08868173
vt 0.1745299 0.05015469
vt 0.1734633 0.08951065
vt 0.1734447 0.1384611
vt 0.1734633 0.08951065
vt 0.1728009 0.1389062
vt 0.1724706 0.2277875
vt 0.1719235 0.2277093
vt 0.1644186 0.08861265
vt 0.1651509 0.08945194
vt 0.1645387 0.1383978
vt 0.1652064 0.138861
vt 0.163633 0.04830024
vt 0.1644756 0.04847068
vt 0.1645127 0.04847822
vt 0.1651509 0.08945194
vt 0.1650504 0.2276686
vt 0.1644175 0.2277057
vt 0.1734447 0.1384611
vt 0.1724706 0.2277875
vt 0.1728009 0.1389062
vt 0.1645387 0.1383978
vt 0.1652064 0.138861
vt 0.1644175 0.2277057
vt 0.1695246 0.05385315
vt 0.1745299 0.05243456
vt 0.1695246 0.05074269
vt 0.1645127 0.05130088
vt 0.1695246 0.05385315
vt 0.1695246 0.05074269
vt 0.163633 0.04830024
vt 0.1645127 0.05130088
vt 0.1695246 0.04919419
vt 0.1645127 0.05130088
vt 0.1695246 0.05074269
vt 0.1695246 0.04919419
vt 0.1745299 0.05243456
vt 0.1754032 0.04998723
vt 0.1695246 0.05074269
vt 0.1754032 0.04998723
vt 0.1695246 0.04919419
vt 0.1695246 0.05074269
vt 0.163633 0.04830024
vt 0.1695246 0.04919419
vt 0.1644756 0.04847068
vt 0.1695246 0.04919419
vt 0.1695246 0.04867181
vt 0.1644756 0.04847068
vt 0.1754032 0.04998723
vt 0.1745299 0.05015469
vt 0.1695246 0.04919419
vt 0.1745299 0.05015469
vt 0.1695246 0.04867181
vt 0.1695246 0.04919419
vt 0.1644756 0.04847068
vt 0.1695246 0.04867181
vt 0.1645127 0.04847822
vt 0.1695246 0.04867181
vt 0.1695246 0.04891154
vt 0.1645127 0.04847822
vt 0.1745299 0.05015469
vt 0.1695246 0.04891154
vt 0.1695246 0.04867181
vt 0.1644175 0.2277057
vt 0.1650504 0.2276686
vt 0.1684869 0.227689
vt 0.1685239 0.2276396
vt 0.1719235 0.2277093
vt 0.1724706 0.2277875
vt 0.1719235 0.2277093
vt 0.1684869 0.227689
vt 0.1724706 0.2277875
vt 0.1685239 0.2276396
vt 0.1650504 0.2276686
vt 0.1644175 0.2277057
vn 0.8692813 0.08113499 -0.4876137
vn 0.8692813 0.08113499 -0.4876137
vn 0.8692813 0.08113499 -0.4876137
vn 0.8692813 0.08113499 -0.4876137
vn 0.8692552 0.07567931 0.4885366
vn 0.8692552 0.07567932 0.4885366
vn 0.8692552 0.0756793 0.4885367
vn 0.8692552 0.07567929 0.4885366
vn 0.874185 0.02501271 0.4849484
vn 0.874185 0.0250127 0.4849483
vn 0.874185 0.02501269 0.4849483
vn 0.874185 0.0250127 0.4849483
vn 0.8811886 0.004033754 0.4727477
vn 0.8811886 0.004033754 0.4727477
vn 0.8717149 0.03125534 -0.4890157
vn 0.8717149 0.03125534 -0.4890157
vn 0.8717149 0.03125534 -0.4890157
vn 0.8717148 0.03125534 -0.4890157
vn 0.8710005 0.01325768 -0.4911033
vn 0.8623472 0.012126 -0.5061722
vn 0.2441471 0.03003759 -0.9692729
vn -0.0002103083 0.08350246 -0.9965076
vn 0.2441471 0.03003759 -0.9692729
vn -0.0002103083 0.08350246 -0.9965076
vn 0.2877873 0.01472439 -0.9575812
vn -0.01026695 0.03335469 -0.9993908
vn -0.01026695 0.03335469 -0.9993908
vn 0.3030575 0.01634981 -0.952832
vn 0.3030575 0.01634981 -0.952832
vn -0.004189771 0.02054817 0.9997801
vn -0.004189771 0.02054817 0.9997801
vn 0.2942869 0.002729848 0.9557132
vn 0.2864688 0.002311543 0.9580867
vn -0.0002123444 0.07241298 0.9973748
vn -0.0002123444 0.07241298 0.9973748
vn 0.2510329 0.01885792 0.9677949
vn 0.3225372 -0.0008323236 0.9465564
vn 0.3225372 -0.0008323236 0.9465564
vn 0.2875731 0.01581614 -0.957628
vn 0.2875731 0.01581614 -0.957628
vn -0.01610225 0.0111093 -0.9998086
vn 0.01533172 -0.001653568 0.9998811
vn 0.2952064 -0.001964071 0.9554315
vn 0.2952064 -0.001964071 0.9554315
vn -0.8692813 0.08113499 -0.4876137
vn -0.8692813 0.08113499 -0.4876137
vn -0.8692813 0.08113499 -0.4876137
vn -0.8692813 0.08113499 -0.4876137
vn -0.8692552 0.07567929 0.4885366
vn -0.8692552 0.07567932 0.4885366
vn -0.8692552 0.0756793 0.4885367
vn -0.8692552 0.07567931 0.4885366
vn -0.874185 0.0250127 0.4849483
vn -0.874185 0.0250127 0.4849483
vn -0.874185 0.02501269 0.4849483
vn -0.874185 0.02501271 0.4849484
vn -0.8769412 0.00331909 0.4805862
vn -0.8811886 0.004032643 0.4727477
vn -0.8717149 0.03125534 -0.4890157
vn -0.8717149 0.03125534 -0.4890157
vn -0.8717149 0.03125534 -0.4890157
vn -0.8717148 0.03125534 -0.4890157
vn -0.8710005 0.01326168 -0.4911031
vn -0.8623472 0.01212877 -0.5061719
vn -0.264314 0.0298742 -0.9639739
vn -0.2643139 0.02987419 -0.9639739
vn 0.0002103083 0.08350246 -0.9965076
vn 0.0002103083 0.08350246 -0.9965076
vn -0.2856366 0.01461822 -0.9582265
vn 0.01026695 0.03335469 -0.9993908
vn 0.01026695 0.03335469 -0.9993908
vn -0.3030374 0.01635113 -0.9528384
vn -0.3030373 0.01635113 -0.9528384
vn -0.2864551 0.002311433 0.9580909
vn 0.004189771 0.02054817 0.9997801
vn -0.2864551 0.002311433 0.9580909
vn 0.004189771 0.02054817 0.9997801
vn -0.2666743 0.01877738 0.9636037
vn -0.2666743 0.01877738 0.9636037
vn 0.0002123444 0.07241298 0.9973748
vn 0.0002123444 0.07241298 0.9973748
vn -0.3225183 -0.0008336579 0.9465628
vn -0.3225183 -0.0008336579 0.9465628
vn -0.2875576 0.01581723 -0.9576327
vn -0.2875575 0.01581723 -0.9576327
vn 0.01610225 0.0111093 -0.9998086
vn -0.2951903 -0.001963964 0.9554365
vn -0.01533172 -0.001653568 0.9998811
vn -0.2951903 -0.001963964 0.9554365
vn 0.6738565 -0.716724 -0.1795105
vn 0.6738565 -0.716724 -0.1795105
vn 0.6738564 -0.716724 -0.1795105
vn 0.6848734 -0.728453 0.01744978
vn 0.6848734 -0.728453 0.01744978
vn 0.6848734 -0.728453 0.01744978
vn 0.6640844 -0.7372089 -0.1245593
vn 0.6640844 -0.7372088 -0.1245593
vn 0.6640844 -0.7372089 -0.1245594
vn 0.4816457 -0.8747844 0.05262646
vn 0.4816457 -0.8747845 0.05262647
vn 0.4816457 -0.8747844 0.05262646
vn 0.6329059 -0.7494398 -0.1943456
vn 0.6329059 -0.7494398 -0.1943456
vn 0.6329058 -0.7494398 -0.1943456
vn 0.4794978 -0.8708363 -0.1082877
vn 0.4794978 -0.8708363 -0.1082876
vn 0.4794977 -0.8708363 -0.1082876
vn -0.01396016 -0.9886289 -0.1497264
vn -0.01396016 -0.9886289 -0.1497264
vn -0.01396016 -0.9886289 -0.1497264
vn 0.1696586 -0.9845663 -0.04295508
vn 0.1696586 -0.9845663 -0.04295508
vn 0.1696586 -0.9845663 -0.04295508
vn -0.08938905 -0.9868287 -0.1348283
vn -0.08938904 -0.9868287 -0.1348283
vn -0.08938905 -0.9868287 -0.1348283
vn 0.1629726 -0.9458004 -0.2808941
vn 0.1629726 -0.9458004 -0.2808941
vn 0.1629726 -0.9458005 -0.2808941
vn -0.0455294 -0.9982123 -0.0387209
vn -0.0455294 -0.9982123 -0.0387209
vn -0.0455294 -0.9982123 -0.0387209
vn -0.08332788 -0.9957652 -0.03883266
vn -0.08332787 -0.9957652 -0.03883266
vn -0.08332787 -0.9957652 -0.03883266
vn -0.07998512 -0.95583 -0.2828273
vn -0.07998513 -0.9558302 -0.2828273
vn -0.07998512 -0.95583 -0.2828273
vn -6.226341E-07 0.723893 0.6899122
vn -0.5257937 0.6889753 0.4988527
vn -2.748878E-06 0.9999892 0.004671212
vn -0.7237422 0.6900107 -0.00908181
vn -0.5247198 0.6892962 -0.4995398
vn 1.609876E-07 0.7312304 -0.6821306
vn 0.5247395 0.68929 -0.4995275
vn -2.748878E-06 0.9999892 0.004671212
vn 1.609876E-07 0.7312304 -0.6821306
vn 0.723721 0.6900328 -0.0090867
vn 0.5258147 0.6889646 0.4988452
vn -6.226341E-07 0.723893 0.6899122
g pitchfork_break02_0
f 3/3/3 2/2/2 1/1/1
f 3/3/3 4/4/4 2/2/2
f 7/7/7 6/6/6 5/5/5
f 7/7/7 8/8/8 6/6/6
f 11/11/11 10/10/10 9/9/9
f 11/11/11 12/12/12 10/10/10
f 13/13/13 11/11/11 9/9/9
f 13/13/13 9/9/9 14/14/14
f 17/17/17 16/16/16 15/15/15
f 17/17/17 18/18/18 16/16/16
f 19/19/19 18/18/18 17/17/17
f 19/19/19 20/20/20 18/18/18
f 23/23/23 22/22/22 21/21/21
f 23/23/23 24/24/24 22/22/22
f 26/26/26 23/23/23 25/25/25
f 26/26/26 25/25/25 27/27/27
f 27/27/27 29/29/29 28/28/28
f 32/32/32 31/31/31 30/30/30
f 32/32/32 33/33/33 31/31/31
f 33/33/33 35/35/35 34/34/34
f 33/33/33 36/36/36 35/35/35
f 38/38/38 30/30/30 37/37/37
f 41/41/41 40/40/40 39/39/39
f 44/44/44 43/43/43 42/42/42
f 47/47/47 46/46/46 45/45/45
f 47/47/47 48/48/48 46/46/46
f 51/51/51 50/50/50 49/49/49
f 51/51/51 52/52/52 50/50/50
f 55/55/55 54/54/54 53/53/53
f 55/55/55 56/56/56 54/54/54
f 57/57/57 56/56/56 55/55/55
f 57/57/57 58/58/58 56/56/56
f 61/61/61 60/60/60 59/59/59
f 61/61/61 62/62/62 60/60/60
f 62/62/62 63/63/63 60/60/60
f 62/62/62 64/64/64 63/63/63
f 67/67/67 66/66/66 65/65/65
f 67/67/67 68/68/68 66/66/66
f 70/70/70 69/69/69 66/66/66
f 70/70/70 71/71/71 69/69/69
f 71/71/71 73/73/73 72/72/72
f 76/76/76 75/75/75 74/74/74
f 76/76/76 77/77/77 75/75/75
f 74/74/74 79/79/79 78/78/78
f 79/79/79 74/74/74 80/80/80
f 80/80/80 74/74/74 81/81/81
f 83/83/83 82/82/82 77/77/77
f 86/86/86 85/85/85 84/84/84
f 89/89/89 88/88/88 87/87/87
f 92/92/92 91/91/91 90/90/90
f 95/95/95 94/94/94 93/93/93
f 98/98/98 97/97/97 96/96/96
f 101/101/101 100/100/100 99/99/99
f 104/104/104 103/103/103 102/102/102
f 107/107/107 106/106/106 105/105/105
f 110/110/110 109/109/109 108/108/108
f 113/113/113 112/112/112 111/111/111
f 116/116/116 115/115/115 114/114/114
f 119/119/119 118/118/118 117/117/117
f 122/122/122 121/121/121 120/120/120
f 125/125/125 124/124/124 123/123/123
f 128/128/128 127/127/127 126/126/126
f 131/131/131 130/130/130 129/129/129
f 132/132/132 130/130/130 131/131/131
f 133/133/133 132/132/132 131/131/131
f 134/134/134 133/133/133 131/131/131
f 137/137/137 136/136/136 135/135/135
f 136/136/136 138/138/138 135/135/135
f 136/136/136 139/139/139 138/138/138
f 136/136/136 140/140/140 139/139/139
