g plainsDioRiver
v -0.4836541 -0.6465939 -24.63974
v -2.843597 -0.6268071 -24.86409
v -1.754699 -0.5088776 -29.24148
v 0.2563422 -0.5286275 -28.97412
v -0.03524728 -0.7855272 -20.37952
v -2.887465 -0.7656941 -20.53289
v 1.07983 -0.8636929 -16.25677
v -2.364583 -0.8444554 -16.28587
v 2.857968 -0.6918542 -13.27892
v -1.107941 -0.6738695 -13.28851
v -0.7758016 -0.43538 -33.61716
v 1.003692 -0.4546175 -33.31001
v -1.1537 -0.4116408 -39.91512
v 0.3699235 -0.4301908 -39.62567
v -2.676823 -0.43538 -46.25346
v -1.354753 -0.4546175 -45.94631
v 4.468832 -3.053776 -2.812448
v -4.608158 -3.053776 -2.812448
v -5.322624 -2.866205 -3.392931
v 5.517745 -2.884992 -4.153902
v -4.723625 -2.606456 -4.804354
v 5.440431 -2.571796 -5.429542
v -3.623298 -2.360786 -6.041402
v 4.98923 -2.309774 -6.344328
v 4.731815 -2.084932 -7.267932
v -2.910734 -2.125719 -7.279825
v 4.175262 -3.152569 -1.545837
v -4.185771 -3.152569 -0.7929075
v 4.237944 -3.296721 1.340472
v -4.180521 -3.296721 1.810912
v 4.309588 -3.321324 3.697906
v -4.245424 -3.321324 3.890855
v 4.102891 -3.321324 5.113131
v -4.151075 -3.319417 5.076416
v 5.660913 -3.475203 6.015614
v -5.364557 -3.369263 6.015614
v 5.638834 -3.321324 8.450908
v -6.103406 -3.321324 8.573517
v 5.612982 -3.321324 13.88588
v -6.288779 -3.321324 13.92266
v 4.598253 -1.829865 -8.780116
v -1.951837 -1.847413 -8.791038
v 4.462715 -1.482347 -10.26571
v -1.371978 -1.465481 -10.29845
v -1.42869 -1.008338 -11.79087
v 3.828523 -1.029768 -11.81001
v -1.107941 -0.6738695 -13.28851
v 2.857968 -0.6918542 -13.27892
vt 0.9984041 0.6408256
vt 0.001519978 0.6445539
vt 0.001519978 0.7172968
vt 0.9984041 0.7128539
vt 0.9984041 0.5700297
vt 0.001519978 0.5725785
vt 0.9984041 0.5015182
vt 0.001519978 0.502002
vt 0.9984041 0.4520327
vt 0.001519978 0.4521922
vt 0.001519978 0.7900114
vt 0.9984041 0.7849071
vt 0.001519978 0.8946702
vt 0.9984041 0.8898602
vt 0.001519978 0.9998736
vt 0.9984042 0.9998736
vt 0.9711109 0.2781021
vt 0.02881318 0.2781021
vt 0.001519978 0.2877485
vt 0.9984041 0.3003942
vt 0.001519978 0.3112034
vt 0.9984041 0.3215927
vt 0.001519978 0.3317605
vt 0.9984041 0.3367945
vt 0.9984041 0.3521428
vt 0.001519978 0.3523405
vt 0.9711109 0.2570537
vt 0.02881318 0.2445416
vt 0.9711109 0.2090893
vt 0.02881318 0.2012716
vt 0.9711109 0.1699138
vt 0.02881318 0.1667073
vt 0.9711109 0.1463957
vt 0.02881318 0.1470058
vt 0.9984041 0.1313983
vt 0.001519978 0.1313983
vt 0.9984041 0.09092891
vt 0.001519978 0.08889139
vt 0.9984041 0.000305593
vt 0.001519978 0.000305593
vt 0.9984041 0.3772721
vt 0.001519978 0.3774536
vt 0.9984041 0.4019595
vt 0.001519978 0.4025037
vt 0.001519978 0.4273045
vt 0.9984041 0.4276226
vt 0.001519978 0.4521922
vt 0.9984041 0.4520327
vn 0.005535291 0.999523 0.03038069
vn 0.0055396 0.9995239 0.03035289
vn 0.005858328 0.9995825 0.02829639
vn 0.005858328 0.9995825 0.02829638
vn 0.005529765 0.9997143 0.02325094
vn 0.005484655 0.9996773 0.02480298
vn 0.005484921 0.9996124 -0.02729707
vn 0.005562658 0.9999263 -0.01079256
vn 0.004844564 0.9949352 0.1004014
vn 0.005034804 0.9990934 0.04227183
vn 0.009450063 0.9999098 0.009547702
vn 0.00919912 0.9999006 0.01068452
vn 0.01090757 0.9999362 0.002943494
vn 0.01090757 0.9999362 0.002943495
vn 0.01487464 0.9998603 -0.007620614
vn 0.01487464 0.9998603 -0.007620614
vn 0.005423415 0.9920873 0.1254329
vn 0.005519437 0.9918038 0.1276509
vn 0.01149948 0.9792778 0.2021951
vn 0.01179299 0.9789572 0.2037243
vn 0.01183163 0.9764318 0.2155017
vn 0.01101083 0.9758303 0.2182524
vn 0.004563895 0.9743478 0.2250012
vn 0.003727643 0.9748721 0.2227343
vn -0.003056077 0.9817182 0.1903157
vn -0.002743136 0.9808642 0.1946734
vn 0.003278845 0.9984425 0.05569568
vn 0.003341803 0.9984635 0.05531143
vn 0.002330476 0.9994113 0.03422797
vn 0.002224239 0.9994552 0.03293223
vn 0.0003215085 0.9999752 0.007041257
vn 0.0003136058 0.9999771 0.006755351
vn 0.003024264 0.9981779 0.06026412
vn 0.002998165 0.9982108 0.05971844
vn 0.004528248 0.9996667 -0.02541601
vn 0.004532407 0.9996829 -0.02477161
vn 0.001389048 0.9999217 -0.01243582
vn 0.001157407 0.9999456 -0.01036198
vn 0 1 0
vn 0 1 0
vn -0.002818677 0.9796259 0.2008111
vn -0.00318128 0.9809884 0.1940401
vn 0.0006373823 0.9665561 0.2564546
vn 0.000788718 0.9660343 0.2584127
vn 0.003555421 0.9658544 0.2590611
vn 0.003378029 0.963639 0.2671863
vn 0.005034804 0.9990934 0.04227183
vn 0.004844564 0.9949352 0.1004014
g plainsDioRiver_0
f 3/3/3 2/2/2 1/1/1
f 4/4/4 3/3/3 1/1/1
f 1/1/1 2/2/2 5/5/5
f 2/2/2 6/6/6 5/5/5
f 5/5/5 6/6/6 7/7/7
f 6/6/6 8/8/8 7/7/7
f 7/7/7 8/8/8 9/9/9
f 8/8/8 10/10/10 9/9/9
f 11/11/11 3/3/3 4/4/4
f 12/12/12 11/11/11 4/4/4
f 13/13/13 11/11/11 12/12/12
f 14/14/14 13/13/13 12/12/12
f 15/15/15 13/13/13 14/14/14
f 16/16/16 15/15/15 14/14/14
f 19/19/19 18/18/18 17/17/17
f 20/20/20 19/19/19 17/17/17
f 21/21/21 19/19/19 20/20/20
f 22/22/22 21/21/21 20/20/20
f 23/23/23 21/21/21 22/22/22
f 24/24/24 23/23/23 22/22/22
f 24/24/24 25/25/25 23/23/23
f 25/25/25 26/26/26 23/23/23
f 17/17/17 18/18/18 27/27/27
f 18/18/18 28/28/28 27/27/27
f 27/27/27 28/28/28 29/29/29
f 28/28/28 30/30/30 29/29/29
f 29/29/29 30/30/30 31/31/31
f 30/30/30 32/32/32 31/31/31
f 31/31/31 32/32/32 33/33/33
f 32/32/32 34/34/34 33/33/33
f 33/33/33 34/34/34 35/35/35
f 34/34/34 36/36/36 35/35/35
f 35/35/35 36/36/36 37/37/37
f 36/36/36 38/38/38 37/37/37
f 37/37/37 38/38/38 39/39/39
f 38/38/38 40/40/40 39/39/39
f 25/25/25 41/41/41 26/26/26
f 41/41/41 42/42/42 26/26/26
f 41/41/41 43/43/43 42/42/42
f 43/43/43 44/44/44 42/42/42
f 45/45/45 44/44/44 43/43/43
f 46/46/46 45/45/45 43/43/43
f 47/47/47 45/45/45 46/46/46
f 48/48/48 47/47/47 46/46/46
