g polearmBandit_break02
v 0.1034503 -0.1444744 -0.02875256
v 0.06589539 -0.1444744 0.000468502
v 0.07700012 -0.348781 0.000468502
v 0.1031818 -0.348781 -0.02875256
v 0.06589539 -0.1444744 0.000468502
v 0.1034503 -0.1444744 -0.02875256
v 0.03271912 0.2105843 -0.02875256
v -0.02023987 0.2120902 0.000468502
v -0.02023987 0.2120902 0.000468502
v 0.03271912 0.2105843 -0.02875256
v -0.1099884 0.3390758 -0.02875256
v -0.1185675 0.2748019 0.000468502
v -0.1185675 0.2748019 0.000468502
v -0.1099884 0.3390758 -0.02875256
v -0.2915765 0.2850881 0.000468502
v 0.1500494 -0.348781 -0.02875256
v 0.1677081 -0.348781 0.000468502
v 0.1826801 -0.1444744 0.000468502
v 0.1545868 -0.1444744 -0.02875256
v 0.2186029 0.1267971 -0.02875256
v 0.1545868 -0.1444744 -0.02875256
v 0.1826801 -0.1444744 0.000468502
v 0.2915765 0.1007374 0.000468502
v 0.08595642 0.2884609 -0.02875256
v 0.2186029 0.1267971 -0.02875256
v 0.2915765 0.1007374 0.000468502
v 0.1206488 0.3134093 0.000468502
v -0.1099884 0.3390758 -0.02875256
v 0.08595642 0.2884609 -0.02875256
v 0.1206488 0.3134093 0.000468502
v -0.1030939 0.3907219 0.000468502
v -0.1099884 0.3390758 -0.02875256
v 0.03271912 0.2105843 -0.02875256
v 0.08595642 0.2884609 -0.02875256
v 0.2186029 0.1267971 -0.02875256
v 0.1545868 -0.1444744 -0.02875256
v 0.1034503 -0.1444744 -0.02875256
v 0.1031818 -0.348781 -0.02875256
v 0.1500494 -0.348781 -0.02875256
v -0.2915765 0.2850881 0.000468502
v -0.1099884 0.3390758 -0.02875256
v -0.1030939 0.3907219 0.000468502
v 0.1034503 -0.1444744 0.02968956
v 0.1031818 -0.348781 0.02968956
v 0.07700012 -0.348781 0.000468502
v 0.06589539 -0.1444744 0.000468502
v 0.06589539 -0.1444744 0.000468502
v -0.02023987 0.2120902 0.000468502
v 0.03271912 0.2105843 0.02968956
v 0.1034503 -0.1444744 0.02968956
v -0.02023987 0.2120902 0.000468502
v -0.1185675 0.2748019 0.000468502
v -0.1099884 0.3390758 0.02968956
v 0.03271912 0.2105843 0.02968956
v -0.1185675 0.2748019 0.000468502
v -0.2915765 0.2850881 0.000468502
v -0.1099884 0.3390758 0.02968956
v 0.1500494 -0.348781 0.02968956
v 0.1545868 -0.1444744 0.02968956
v 0.1826801 -0.1444744 0.000468502
v 0.1677081 -0.348781 0.000468502
v 0.2186029 0.1267971 0.02968956
v 0.2915765 0.1007374 0.000468502
v 0.1826801 -0.1444744 0.000468502
v 0.1545868 -0.1444744 0.02968956
v 0.08595642 0.2884609 0.02968956
v 0.1206488 0.3134093 0.000468502
v 0.2915765 0.1007374 0.000468502
v 0.2186029 0.1267971 0.02968956
v -0.1099884 0.3390758 0.02968956
v -0.1030939 0.3907219 0.000468502
v 0.1206488 0.3134093 0.000468502
v 0.08595642 0.2884609 0.02968956
v -0.1099884 0.3390758 0.02968956
v 0.08595642 0.2884609 0.02968956
v 0.03271912 0.2105843 0.02968956
v 0.2186029 0.1267971 0.02968956
v 0.1545868 -0.1444744 0.02968956
v 0.1034503 -0.1444744 0.02968956
v 0.1031818 -0.348781 0.02968956
v 0.1500494 -0.348781 0.02968956
v -0.2915765 0.2850881 0.000468502
v -0.1030939 0.3907219 0.000468502
v -0.1099884 0.3390758 0.02968956
v 0.1677081 -0.348781 0.000468502
v 0.1500494 -0.348781 -0.02875256
v 0.1031818 -0.348781 -0.02875256
v 0.07700012 -0.348781 0.000468502
v 0.1500494 -0.348781 0.02968956
v 0.1031818 -0.348781 0.02968956
v 0.09490539 -0.3888272 0.05217426
v 0.09446106 -0.3428957 0.05458359
v 0.1571381 -0.3432013 0.05536407
v 0.1553363 -0.3890941 0.05295329
v 0.06525574 -0.3883062 -0.00107382
v 0.06367004 -0.3423899 -0.0007050848
v 0.09446106 -0.3428957 0.05458359
v 0.09490539 -0.3888272 0.05217426
v 0.09611022 -0.3878502 -0.05370854
v 0.09572814 -0.3420404 -0.05536407
v 0.06367004 -0.3423899 -0.0007050848
v 0.06525574 -0.3883062 -0.00107382
v 0.1566559 -0.387562 -0.05293194
v 0.1585199 -0.3419176 -0.05454522
v 0.09572814 -0.3420404 -0.05536407
v 0.09611022 -0.3878502 -0.05370854
v 0.1862506 -0.3889912 0.0003632849
v 0.1891571 -0.3431166 0.0007674324
v 0.1585199 -0.3419176 -0.05454522
v 0.1566559 -0.387562 -0.05293194
v 0.1553363 -0.3890941 0.05295329
v 0.1571381 -0.3432013 0.05536407
v 0.1891571 -0.3431166 0.0007674324
v 0.1862506 -0.3889912 0.0003632849
v 0.08800354 -0.3410886 -0.0004306397
v 0.1076056 -0.3407182 -0.03441687
v 0.1461041 -0.3401471 -0.03387555
v 0.1649237 -0.3409241 0.0005279505
v 0.1068866 -0.3411385 0.03394547
v 0.1452899 -0.3409983 0.03448953
v 0.1074078 -0.3907219 0.0313769
v 0.09490539 -0.3888272 0.05217426
v 0.1553363 -0.3890941 0.05295329
v 0.143382 -0.3905419 0.03188761
v 0.1452899 -0.3409983 0.03448953
v 0.1571381 -0.3432013 0.05536407
v 0.09446106 -0.3428957 0.05458359
v 0.1068866 -0.3411385 0.03394547
v 0.0897174 -0.3906577 -0.0008274722
v 0.06525574 -0.3883062 -0.00107382
v 0.09490539 -0.3888272 0.05217426
v 0.1074078 -0.3907219 0.0313769
v 0.1068866 -0.3411385 0.03394547
v 0.09446106 -0.3428957 0.05458359
v 0.06367004 -0.3423899 -0.0007050848
v 0.08800354 -0.3410886 -0.0004306397
v 0.1080804 -0.3901813 -0.03266775
v 0.09611022 -0.3878502 -0.05370854
v 0.06525574 -0.3883062 -0.00107382
v 0.0897174 -0.3906577 -0.0008274722
v 0.08800354 -0.3410886 -0.0004306397
v 0.06367004 -0.3423899 -0.0007050848
v 0.09572814 -0.3420404 -0.05536407
v 0.1076056 -0.3407182 -0.03441687
v 0.1441473 -0.3894477 -0.03216154
v 0.1566559 -0.387562 -0.05293194
v 0.09611022 -0.3878502 -0.05370854
v 0.1080804 -0.3901813 -0.03266775
v 0.1076056 -0.3407182 -0.03441687
v 0.09572814 -0.3420404 -0.05536407
v 0.1585199 -0.3419176 -0.05454522
v 0.1461041 -0.3401471 -0.03387555
v 0.1617767 -0.3904464 7.088184E-05
v 0.1862506 -0.3889912 0.0003632849
v 0.1566559 -0.387562 -0.05293194
v 0.1441473 -0.3894477 -0.03216154
v 0.1461041 -0.3401471 -0.03387555
v 0.1585199 -0.3419176 -0.05454522
v 0.1891571 -0.3431166 0.0007674324
v 0.1649237 -0.3409241 0.0005279505
v 0.143382 -0.3905419 0.03188761
v 0.1553363 -0.3890941 0.05295329
v 0.1862506 -0.3889912 0.0003632849
v 0.1617767 -0.3904464 7.088184E-05
v 0.1649237 -0.3409241 0.0005279505
v 0.1891571 -0.3431166 0.0007674324
v 0.1571381 -0.3432013 0.05536407
v 0.1452899 -0.3409983 0.03448953
v 0.1441473 -0.3894477 -0.03216154
v 0.1080804 -0.3901813 -0.03266775
v 0.0897174 -0.3906577 -0.0008274722
v 0.1617767 -0.3904464 7.088184E-05
v 0.1074078 -0.3907219 0.0313769
v 0.143382 -0.3905419 0.03188761
vt 0.411479 0.8624894
vt 0.4008297 0.8506262
vt 0.4039787 0.8506262
vt 0.411403 0.8624894
vt 0.4008297 0.8506262
vt 0.411479 0.8624894
vt 0.3914222 0.8624894
vt 0.3764049 0.8506262
vt 0.3764049 0.8506262
vt 0.3914222 0.8624894
vt 0.3509554 0.8624894
vt 0.3485227 0.8506262
vt 0.3485227 0.8506262
vt 0.3509554 0.8624894
vt 0.2994634 0.8506262
vt 0.4246931 0.8624894
vt 0.4297004 0.8506262
vt 0.4339461 0.8506262
vt 0.4259796 0.8624894
vt 0.4441323 0.8624894
vt 0.4259796 0.8624894
vt 0.4339461 0.8506262
vt 0.4648253 0.8506262
vt 0.4065183 0.8624894
vt 0.4441323 0.8624894
vt 0.4648253 0.8506262
vt 0.4163561 0.8506262
vt 0.3509554 0.8624894
vt 0.4065183 0.8624894
vt 0.4163561 0.8506262
vt 0.3529103 0.8506262
vt 0.3509554 0.8624894
vt 0.3914222 0.8624894
vt 0.4065183 0.8624894
vt 0.4441323 0.8624894
vt 0.4259796 0.8624894
vt 0.411479 0.8624894
vt 0.411403 0.8624894
vt 0.4246931 0.8624894
vt 0.2994634 0.8506262
vt 0.3509554 0.8624894
vt 0.3529103 0.8506262
vt 0.411479 0.838763
vt 0.411403 0.838763
vt 0.4039787 0.8506262
vt 0.4008297 0.8506262
vt 0.4008297 0.8506262
vt 0.3764049 0.8506262
vt 0.3914222 0.838763
vt 0.411479 0.838763
vt 0.3764049 0.8506262
vt 0.3485227 0.8506262
vt 0.3509554 0.838763
vt 0.3914222 0.838763
vt 0.3485227 0.8506262
vt 0.2994634 0.8506262
vt 0.3509554 0.838763
vt 0.4246931 0.838763
vt 0.4259796 0.838763
vt 0.4339461 0.8506262
vt 0.4297004 0.8506262
vt 0.4441323 0.838763
vt 0.4648253 0.8506262
vt 0.4339461 0.8506262
vt 0.4259796 0.838763
vt 0.4065183 0.838763
vt 0.4163561 0.8506262
vt 0.4648253 0.8506262
vt 0.4441323 0.838763
vt 0.3509554 0.838763
vt 0.3529103 0.8506262
vt 0.4163561 0.8506262
vt 0.4065183 0.838763
vt 0.3509554 0.838763
vt 0.4065183 0.838763
vt 0.3914222 0.838763
vt 0.4441323 0.838763
vt 0.4259796 0.838763
vt 0.411479 0.838763
vt 0.411403 0.838763
vt 0.4246931 0.838763
vt 0.2994634 0.8506262
vt 0.3529103 0.8506262
vt 0.3509554 0.838763
vt 0.4297004 0.8506262
vt 0.4246931 0.8624894
vt 0.411403 0.8624894
vt 0.4039787 0.8506262
vt 0.4246931 0.838763
vt 0.411403 0.838763
vt 0.6529441 0.881047
vt 0.6528084 0.8834533
vt 0.6527644 0.8834373
vt 0.6529002 0.8810329
vt 0.6559442 0.8810742
vt 0.6559234 0.8834798
vt 0.6528084 0.8834533
vt 0.6529441 0.881047
vt 0.6589097 0.8810981
vt 0.659003 0.8834981
vt 0.6559234 0.8834798
vt 0.6559442 0.8810742
vt 0.6588659 0.8811132
vt 0.6589568 0.8835046
vt 0.659003 0.8834981
vt 0.6589097 0.8810981
vt 0.6558632 0.8810382
vt 0.6558404 0.8834417
vt 0.6589568 0.8835046
vt 0.6588659 0.8811132
vt 0.6529002 0.8810329
vt 0.6527644 0.8834373
vt 0.6558404 0.8834417
vt 0.6558632 0.8810382
vt 0.6559079 0.883548
vt 0.6578227 0.8835674
vt 0.6577923 0.8835973
vt 0.6558539 0.8835567
vt 0.6539711 0.8835453
vt 0.6539405 0.8835527
vt 0.6541159 0.8809476
vt 0.6529441 0.881047
vt 0.6529002 0.8810329
vt 0.6540871 0.8809571
vt 0.6539405 0.8835527
vt 0.6527644 0.8834373
vt 0.6528084 0.8834533
vt 0.6539711 0.8835453
vt 0.6559303 0.880951
vt 0.6559442 0.8810742
vt 0.6529441 0.881047
vt 0.6541159 0.8809476
vt 0.6539711 0.8835453
vt 0.6528084 0.8834533
vt 0.6559234 0.8834798
vt 0.6559079 0.883548
vt 0.6577242 0.8809759
vt 0.6589097 0.8810981
vt 0.6559442 0.8810742
vt 0.6559303 0.880951
vt 0.6559079 0.883548
vt 0.6559234 0.8834798
vt 0.659003 0.8834981
vt 0.6578227 0.8835674
vt 0.6576957 0.8810144
vt 0.6588659 0.8811132
vt 0.6589097 0.8810981
vt 0.6577242 0.8809759
vt 0.6578227 0.8835674
vt 0.659003 0.8834981
vt 0.6589568 0.8835046
vt 0.6577923 0.8835973
vt 0.6558797 0.8809621
vt 0.6558632 0.8810382
vt 0.6588659 0.8811132
vt 0.6576957 0.8810144
vt 0.6577923 0.8835973
vt 0.6589568 0.8835046
vt 0.6558404 0.8834417
vt 0.6558539 0.8835567
vt 0.6540871 0.8809571
vt 0.6529002 0.8810329
vt 0.6558632 0.8810382
vt 0.6558797 0.8809621
vt 0.6558539 0.8835567
vt 0.6558404 0.8834417
vt 0.6527644 0.8834373
vt 0.6539405 0.8835527
vt 0.6576957 0.8810144
vt 0.6577242 0.8809759
vt 0.6559303 0.880951
vt 0.6558797 0.8809621
vt 0.6541159 0.8809476
vt 0.6540871 0.8809571
vn -0.6757224 -0.01791974 -0.7369382
vn -0.6757225 -0.01791974 -0.7369382
vn -0.6757225 -0.01791974 -0.7369382
vn -0.6757224 -0.01791974 -0.7369382
vn -0.5399694 -0.1190279 -0.8332258
vn -0.5399694 -0.1190279 -0.833226
vn -0.5399694 -0.1190279 -0.833226
vn -0.5399694 -0.1190279 -0.833226
vn -0.3453946 -0.4354126 -0.8313354
vn -0.3453946 -0.4354126 -0.8313354
vn -0.3453946 -0.4354126 -0.8313354
vn -0.3453946 -0.4354126 -0.8313354
vn -0.02443843 -0.4110403 -0.9112896
vn -0.02443842 -0.4110403 -0.9112896
vn -0.02443843 -0.4110404 -0.9112896
vn 0.7868535 -0.03756852 -0.6159953
vn 0.7868534 -0.03756852 -0.6159953
vn 0.7868534 -0.03756852 -0.6159953
vn 0.7868534 -0.03756852 -0.6159953
vn 0.4641707 -0.1553989 -0.8720074
vn 0.4641706 -0.1553989 -0.8720075
vn 0.4641707 -0.1553989 -0.8720074
vn 0.4641706 -0.1553989 -0.8720074
vn 0.4474362 0.3628562 -0.817396
vn 0.4474361 0.3628563 -0.817396
vn 0.4474361 0.3628562 -0.817396
vn 0.4474361 0.3628562 -0.817396
vn 0.1646765 0.5402484 -0.8252352
vn 0.1646765 0.5402484 -0.8252354
vn 0.1646765 0.5402485 -0.8252354
vn 0.1646765 0.5402483 -0.8252354
vn 0 0 -1
vn 0 0 -1
vn 0 0 -1
vn 0 0 -1
vn 0 0 -1
vn 0 0 -1
vn 0 0 -1
vn 0 0 -1
vn -0.2806444 0.5007541 -0.818831
vn -0.2806444 0.5007541 -0.818831
vn -0.2806444 0.500754 -0.818831
vn -0.6757224 -0.01791974 0.7369382
vn -0.6757225 -0.01791974 0.7369382
vn -0.6757224 -0.01791973 0.7369383
vn -0.6757224 -0.01791973 0.7369383
vn -0.5399694 -0.1190279 0.833226
vn -0.5399694 -0.1190279 0.833226
vn -0.5399693 -0.1190279 0.833226
vn -0.5399694 -0.1190279 0.833226
vn -0.3453948 -0.4354128 0.8313351
vn -0.3453948 -0.4354129 0.8313351
vn -0.3453948 -0.4354129 0.8313351
vn -0.3453949 -0.4354129 0.8313351
vn -0.02443844 -0.4110407 0.9112893
vn -0.02443844 -0.4110408 0.9112893
vn -0.02443844 -0.4110407 0.9112893
vn 0.7868534 -0.03756851 0.6159955
vn 0.7868533 -0.03756851 0.6159955
vn 0.7868533 -0.03756851 0.6159955
vn 0.7868533 -0.03756851 0.6159955
vn 0.4641708 -0.1553989 0.8720073
vn 0.4641708 -0.1553989 0.8720073
vn 0.4641708 -0.1553989 0.8720073
vn 0.4641708 -0.1553989 0.8720072
vn 0.4474367 0.3628567 0.8173955
vn 0.4474367 0.3628567 0.8173955
vn 0.4474366 0.3628567 0.8173956
vn 0.4474367 0.3628568 0.8173955
vn 0.1646766 0.5402487 0.8252351
vn 0.1646765 0.5402488 0.8252351
vn 0.1646766 0.5402488 0.8252351
vn 0.1646765 0.5402488 0.8252351
vn 0 0 1
vn 0 0 1
vn 0 0 1
vn 0 0 1
vn 0 0 1
vn 0 0 1
vn 0 0 1
vn 0 0 1
vn -0.2806444 0.5007541 0.818831
vn -0.2806444 0.500754 0.818831
vn -0.2806444 0.5007541 0.818831
vn 0 -1 0
vn 0 -1 0
vn 0 -1 0
vn 0 -1 0
vn 0 -1 0
vn 0 -1 0
vn -0.01289235 -0.05222631 0.998552
vn -0.01289235 -0.05222631 0.998552
vn -0.01289235 -0.05222631 0.998552
vn -0.01289235 -0.05222631 0.998552
vn -0.8733013 -0.03400154 0.4859926
vn -0.8733013 -0.03400154 0.4859926
vn -0.8733013 -0.03400154 0.4859926
vn -0.8733013 -0.03400154 0.4859925
vn -0.8622744 -0.02559328 -0.5057943
vn -0.8622744 -0.02559328 -0.5057943
vn -0.8622744 -0.02559328 -0.5057943
vn -0.8622744 -0.02559327 -0.5057942
vn 0.013046 -0.03592797 -0.9992692
vn 0.013046 -0.03592797 -0.9992692
vn 0.013046 -0.03592797 -0.9992692
vn 0.013046 -0.03592797 -0.9992692
vn 0.8728065 -0.05190729 -0.4852982
vn 0.8728065 -0.05190729 -0.4852982
vn 0.8728065 -0.0519073 -0.4852982
vn 0.8728065 -0.05190729 -0.4852982
vn 0.8608564 -0.0596694 0.5053373
vn 0.8608564 -0.05966941 0.5053374
vn 0.8608564 -0.0596694 0.5053374
vn 0.8608564 -0.05966941 0.5053374
vn -0.004629056 0.9999465 0.009250312
vn -0.004629056 0.9999465 0.009250312
vn -0.004629056 0.9999465 0.009250312
vn -0.004629056 0.9999465 0.009250312
vn -0.004629056 0.9999465 0.009250312
vn -0.004629057 0.9999465 0.009250314
vn -0.001962231 -0.9968273 0.0795693
vn -0.001962231 -0.9968273 0.0795693
vn -0.001962231 -0.9968273 0.07956929
vn -0.001962231 -0.9968273 0.0795693
vn 0.000385231 0.9954799 0.09497085
vn 0.000385231 0.9954799 0.09497086
vn 0.000385231 0.9954799 0.09497086
vn 0.000385231 0.9954799 0.09497087
vn -0.09028125 -0.9949788 0.04320264
vn -0.09028123 -0.9949788 0.04320264
vn -0.09028126 -0.9949788 0.04320264
vn -0.09028124 -0.9949788 0.04320265
vn -0.06087735 0.9973472 0.03990395
vn -0.06087736 0.9973472 0.03990396
vn -0.06087736 0.9973472 0.03990395
vn -0.06087735 0.9973472 0.03990395
vn -0.09051799 -0.9938549 -0.06370833
vn -0.09051801 -0.9938549 -0.06370834
vn -0.09051799 -0.9938549 -0.06370833
vn -0.09051799 -0.9938549 -0.06370832
vn -0.05743966 0.9980267 -0.02536599
vn -0.05743966 0.9980267 -0.02536599
vn -0.05743966 0.9980267 -0.02536599
vn -0.05743965 0.9980267 -0.02536599
vn 0.01185264 -0.9948979 -0.1001884
vn 0.01185264 -0.9948979 -0.1001884
vn 0.01185264 -0.9948979 -0.1001884
vn 0.01185264 -0.9948979 -0.1001884
vn -0.005836152 0.9972276 -0.07418188
vn -0.005836152 0.9972276 -0.07418188
vn -0.005836152 0.9972276 -0.07418188
vn -0.005836152 0.9972276 -0.07418188
vn 0.05695046 -0.9965881 -0.05973881
vn 0.05695045 -0.9965881 -0.05973881
vn 0.05695045 -0.9965881 -0.05973881
vn 0.05695045 -0.9965881 -0.05973881
vn 0.0916813 0.9953772 -0.02861517
vn 0.0916813 0.9953772 -0.02861517
vn 0.09168129 0.9953772 -0.02861517
vn 0.0916813 0.9953772 -0.02861517
vn 0.06024333 -0.9976429 0.03285054
vn 0.06024333 -0.9976429 0.03285054
vn 0.06024333 -0.9976429 0.03285054
vn 0.06024333 -0.9976429 0.03285053
vn 0.0895467 0.994517 0.05401136
vn 0.08954669 0.994517 0.05401136
vn 0.0895467 0.994517 0.05401137
vn 0.0895467 0.994517 0.05401136
vn 0.006347683 -0.9998993 -0.01269207
vn 0.006347682 -0.9998993 -0.01269207
vn 0.006347682 -0.9998993 -0.01269207
vn 0.006347683 -0.9998993 -0.01269207
vn 0.006347682 -0.9998993 -0.01269207
vn 0.006347682 -0.9998993 -0.01269207
g polearmBandit_break02_0
f 3/3/3 2/2/2 1/1/1
f 4/4/4 3/3/3 1/1/1
f 7/7/7 6/6/6 5/5/5
f 8/8/8 7/7/7 5/5/5
f 11/11/11 10/10/10 9/9/9
f 12/12/12 11/11/11 9/9/9
f 15/15/15 14/14/14 13/13/13
f 18/18/18 17/17/17 16/16/16
f 19/19/19 18/18/18 16/16/16
f 22/22/22 21/21/21 20/20/20
f 23/23/23 22/22/22 20/20/20
f 26/26/26 25/25/25 24/24/24
f 27/27/27 26/26/26 24/24/24
f 30/30/30 29/29/29 28/28/28
f 31/31/31 30/30/30 28/28/28
f 34/34/34 33/33/33 32/32/32
f 34/34/34 35/35/35 33/33/33
f 35/35/35 36/36/36 33/33/33
f 36/36/36 37/37/37 33/33/33
f 37/37/37 36/36/36 38/38/38
f 36/36/36 39/39/39 38/38/38
f 42/42/42 41/41/41 40/40/40
f 45/45/45 44/44/44 43/43/43
f 46/46/46 45/45/45 43/43/43
f 49/49/49 48/48/48 47/47/47
f 50/50/50 49/49/49 47/47/47
f 53/53/53 52/52/52 51/51/51
f 54/54/54 53/53/53 51/51/51
f 57/57/57 56/56/56 55/55/55
f 60/60/60 59/59/59 58/58/58
f 61/61/61 60/60/60 58/58/58
f 64/64/64 63/63/63 62/62/62
f 65/65/65 64/64/64 62/62/62
f 68/68/68 67/67/67 66/66/66
f 69/69/69 68/68/68 66/66/66
f 72/72/72 71/71/71 70/70/70
f 73/73/73 72/72/72 70/70/70
f 76/76/76 75/75/75 74/74/74
f 77/77/77 75/75/75 76/76/76
f 78/78/78 77/77/77 76/76/76
f 79/79/79 78/78/78 76/76/76
f 78/78/78 79/79/79 80/80/80
f 81/81/81 78/78/78 80/80/80
f 84/84/84 83/83/83 82/82/82
f 87/87/87 86/86/86 85/85/85
f 85/85/85 88/88/88 87/87/87
f 85/85/85 89/89/89 88/88/88
f 89/89/89 90/90/90 88/88/88
f 93/93/93 92/92/92 91/91/91
f 94/94/94 93/93/93 91/91/91
f 97/97/97 96/96/96 95/95/95
f 98/98/98 97/97/97 95/95/95
f 101/101/101 100/100/100 99/99/99
f 102/102/102 101/101/101 99/99/99
f 105/105/105 104/104/104 103/103/103
f 106/106/106 105/105/105 103/103/103
f 109/109/109 108/108/108 107/107/107
f 110/110/110 109/109/109 107/107/107
f 113/113/113 112/112/112 111/111/111
f 114/114/114 113/113/113 111/111/111
f 117/117/117 116/116/116 115/115/115
f 115/115/115 118/118/118 117/117/117
f 115/115/115 119/119/119 118/118/118
f 119/119/119 120/120/120 118/118/118
f 123/123/123 122/122/122 121/121/121
f 124/124/124 123/123/123 121/121/121
f 127/127/127 126/126/126 125/125/125
f 128/128/128 127/127/127 125/125/125
f 131/131/131 130/130/130 129/129/129
f 132/132/132 131/131/131 129/129/129
f 135/135/135 134/134/134 133/133/133
f 136/136/136 135/135/135 133/133/133
f 139/139/139 138/138/138 137/137/137
f 140/140/140 139/139/139 137/137/137
f 143/143/143 142/142/142 141/141/141
f 144/144/144 143/143/143 141/141/141
f 147/147/147 146/146/146 145/145/145
f 148/148/148 147/147/147 145/145/145
f 151/151/151 150/150/150 149/149/149
f 152/152/152 151/151/151 149/149/149
f 155/155/155 154/154/154 153/153/153
f 156/156/156 155/155/155 153/153/153
f 159/159/159 158/158/158 157/157/157
f 160/160/160 159/159/159 157/157/157
f 163/163/163 162/162/162 161/161/161
f 164/164/164 163/163/163 161/161/161
f 167/167/167 166/166/166 165/165/165
f 168/168/168 167/167/167 165/165/165
f 171/171/171 170/170/170 169/169/169
f 169/169/169 172/172/172 171/171/171
f 172/172/172 173/173/173 171/171/171
f 172/172/172 174/174/174 173/173/173
