g reapersPlume
v 0.5607748 0.3933803 0.03834194
v 0.3961932 0.4555548 0.06286045
v 0.718646 0.6413867 -0.03156864
v 0.6682194 0.7032334 -0.04092278
v 0.718646 0.6413867 -0.03156864
v -0.05844029 -0.4582336 0.2117224
v -0.2004078 -0.3909791 0.2226231
v -0.1980191 -0.2381194 0.2388161
v -0.2004078 -0.3909791 0.2226231
v -0.2735069 -0.3362078 0.221967
v -0.1980191 -0.2381194 0.2388161
v -0.421696 -0.7041673 0.1210535
v -0.4714904 -0.6077334 0.138656
v -0.1939231 -0.534349 0.1903691
v -0.4714904 -0.6077334 0.138656
v -0.2004078 -0.3909791 0.2226231
v -0.2735069 -0.3362078 0.221967
v 0.3812279 0.004284859 0.149879
v 0.07133777 0.09026855 0.2054324
v 0.3440993 0.1752203 0.1344077
v 0.07133777 0.09026855 0.2054324
v 0.2471559 0.2894455 0.136795
v 0.3440993 0.1752203 0.1344077
v -0.4891784 -0.1072894 0.1220822
v -0.3340893 -0.2789254 0.2134905
v -0.6136123 -0.5223659 0.09163674
v -0.3340893 -0.2789254 0.2134905
v -0.5275983 -0.5546817 0.1308067
v -0.6136123 -0.5223659 0.09163674
v 0.3393261 0.6105024 -0.01335334
v 0.6079216 0.7499478 -0.05741628
v 0.3961932 0.4555548 0.06286045
v 0.6079216 0.7499478 -0.05741628
v 0.6682194 0.7032334 -0.04092278
v -0.4853174 -0.6107168 0.1625332
v -0.5369039 -0.5619389 0.1553148
v -0.285806 -0.3261603 0.2544722
v -0.3348324 -0.2798035 0.2476145
v -0.713332 -0.8168674 0.06456458
v -0.6637484 -0.8637512 0.07150129
v -0.285806 -0.3261603 0.2544722
v -0.3348324 -0.2798035 0.2476145
v -0.208617 -0.2254547 0.2716759
v -0.2501907 -0.1667533 0.265796
v 0.2471559 0.2894455 0.136795
v 0.06006454 0.09639347 0.2332188
v 0.2096111 0.3249454 0.1315452
v -0.001112611 0.1253889 0.2324902
v 0.3961932 0.4555548 0.06286045
v 0.5607748 0.3933803 0.03834194
v 0.2471559 0.2894455 0.136795
v 0.3440993 0.1752203 0.1344077
v 0.3440993 0.1752203 0.1344077
v 0.5607748 0.3933803 0.03834194
v 0.4548213 0.1486247 0.0822234
v 0.3961932 0.4555548 0.06286045
v 0.2471559 0.2894455 0.136795
v 0.2096111 0.3249454 0.1315452
v 0.0004307938 0.4939855 0.06081072
v 0.3393261 0.6105024 -0.01335334
v 0.2096111 0.3249454 0.1315452
v 0.3961932 0.4555548 0.06286045
v 0.2096111 0.3249454 0.1315452
v 0.001762798 0.1276332 0.2025677
v 0.0004307938 0.4939855 0.06081072
v 0.001762798 0.1276332 0.2025677
v -0.2738763 0.244909 0.1165496
v 0.0004307938 0.4939855 0.06081072
v -0.2234919 0.1075318 0.2046624
v -0.3381332 0.09516399 0.1506853
v -0.2420099 -0.1557699 0.2323655
v -0.4891784 -0.1072894 0.1220822
v -0.3340893 -0.2789254 0.2134905
v -0.5275983 -0.5546817 0.1308067
v -0.3340893 -0.2789254 0.2134905
v -0.5369039 -0.5619389 0.1553148
v -0.713332 -0.8168674 0.06456458
v -0.3340893 -0.2789254 0.2134905
v -0.3348324 -0.2798035 0.2476145
v -0.5369039 -0.5619389 0.1553148
v -0.2501907 -0.1667533 0.265796
v -0.2420099 -0.1557699 0.2323655
v -0.09273372 0.02856358 0.2603949
v -0.09645232 0.02504269 0.2259759
v -0.285806 -0.3261603 0.2544722
v -0.2735069 -0.3362078 0.221967
v -0.4853174 -0.6107168 0.1625332
v -0.1980191 -0.2381194 0.2388161
v -0.208617 -0.2254547 0.2716759
v -0.03114518 -0.03670984 0.2351145
v -0.0400824 -0.02122271 0.2677611
v -0.2735069 -0.3362078 0.221967
v -0.4714904 -0.6077334 0.138656
v -0.4853174 -0.6107168 0.1625332
v -0.6637484 -0.8637512 0.07150129
v -0.001112611 0.1253889 0.2324902
v 0.001762798 0.1276332 0.2025677
v 0.2096111 0.3249454 0.1315452
v -0.09645232 0.02504269 0.2259759
v -0.09273372 0.02856358 0.2603949
v 0.07133777 0.09026855 0.2054324
v 0.06006454 0.09639347 0.2332188
v 0.2471559 0.2894455 0.136795
v -0.03114518 -0.03670984 0.2351145
v -0.0400824 -0.02122271 0.2677611
v -0.4714904 -0.6077334 0.138656
v -0.6546758 -0.8778476 0.03542403
v -0.6637484 -0.8637512 0.07150129
v -0.6546758 -0.8778476 0.03542403
v -0.7146555 -0.8211387 0.0270325
v -0.6637484 -0.8637512 0.07150129
v -0.713332 -0.8168674 0.06456458
v -0.7146555 -0.8211387 0.0270325
v -0.5275983 -0.5546817 0.1308067
v -0.713332 -0.8168674 0.06456458
v 0.3812279 0.004284859 0.149879
v 0.2259886 -0.2105222 0.1849519
v 0.07133777 0.09026855 0.2054324
v -0.03114518 -0.03670984 0.2351145
v 0.06006454 0.09639347 0.2332188
v -0.0400824 -0.02122271 0.2677611
v -0.001112611 0.1253889 0.2324902
v -0.09273372 0.02856358 0.2603949
v 0.001762798 0.1276332 0.2025677
v -0.09645232 0.02504269 0.2259759
v -0.2234919 0.1075318 0.2046624
v -0.09645232 0.02504269 0.2259759
v -0.2420099 -0.1557699 0.2323655
v -0.2234919 0.1075318 0.2046624
v -0.2420099 -0.1557699 0.2323655
v -0.3381332 0.09516399 0.1506853
v -0.2234919 0.1075318 0.2046624
v -0.208617 -0.2254547 0.2716759
v -0.2501907 -0.1667533 0.265796
v -0.0400824 -0.02122271 0.2677611
v -0.09273372 0.02856358 0.2603949
v 0.2259886 -0.2105222 0.1849519
v -0.05844029 -0.4582336 0.2117224
v -0.03114518 -0.03670984 0.2351145
v -0.05844029 -0.4582336 0.2117224
v -0.1980191 -0.2381194 0.2388161
v -0.03114518 -0.03670984 0.2351145
v 0.718646 0.6413867 -0.03156864
v 0.6682194 0.7032334 -0.04092278
v 0.876375 0.8893268 -0.04027875
v 0.876375 0.8893268 -0.04027875
v 0.6682194 0.7032334 -0.04092278
v 0.6079216 0.7499478 -0.05741628
vt 0.194087 0.1408756
vt 0.1849269 0.1545189
vt 0.2126259 0.164783
vt 0.2080459 0.1716046
vt 0.2126259 0.164783
vt 0.1993347 0.6905867
vt 0.1952758 0.6842829
vt 0.1905637 0.6853864
vt 0.1952758 0.6842829
vt 0.1925505 0.6810494
vt 0.1905637 0.6853864
vt 0.2018375 0.67071
vt 0.1981596 0.6690552
vt 0.1997965 0.683426
vt 0.1981596 0.6690552
vt 0.1952758 0.6842829
vt 0.1925505 0.6810494
vt 0.1909624 0.7130594
vt 0.1840361 0.6994415
vt 0.1833819 0.7103548
vt 0.1840361 0.6994415
vt 0.1801552 0.7074491
vt 0.1833819 0.7103548
vt 0.1831104 0.6705756
vt 0.1899119 0.6783177
vt 0.1934647 0.6620218
vt 0.1899119 0.6783177
vt 0.1957157 0.6665252
vt 0.1934647 0.6620218
vt 0.1734499 0.1652473
vt 0.2023073 0.1769688
vt 0.1849269 0.1545189
vt 0.2023073 0.1769688
vt 0.2080459 0.1716046
vt 0.1594632 0.1684173
vt 0.1589127 0.1676759
vt 0.160889 0.1745046
vt 0.1603658 0.1738001
vt 0.1578155 0.162146
vt 0.1583447 0.1628586
vt 0.160889 0.1745046
vt 0.1603658 0.1738001
vt 0.1617563 0.1765596
vt 0.1613312 0.1760569
vt 0.1713945 0.1846921
vt 0.1664841 0.1822123
vt 0.1710064 0.1841697
vt 0.165667 0.1812989
vt 0.1762784 0.7146719
vt 0.1829477 0.7191557
vt 0.1801552 0.7074491
vt 0.1833819 0.7103548
vt 0.1833819 0.7103548
vt 0.1829477 0.7191557
vt 0.1873693 0.7159166
vt 0.1762784 0.7146719
vt 0.1801552 0.7074491
vt 0.1785199 0.7057561
vt 0.1702555 0.6955988
vt 0.1705815 0.7075763
vt 0.1785199 0.7057561
vt 0.1762784 0.7146719
vt 0.1785199 0.7057561
vt 0.1818999 0.6962591
vt 0.1702555 0.6955988
vt 0.1818999 0.6962591
vt 0.1743059 0.6824496
vt 0.1702555 0.6955988
vt 0.1812705 0.6872293
vt 0.1796302 0.6790661
vt 0.1873769 0.6836017
vt 0.1831104 0.6705756
vt 0.1899119 0.6783177
vt 0.1594818 0.1675322
vt 0.160979 0.1733455
vt 0.1589127 0.1676759
vt 0.1578155 0.162146
vt 0.160979 0.1733455
vt 0.1603658 0.1738001
vt 0.1589127 0.1676759
vt 0.1613312 0.1760569
vt 0.1620454 0.1757892
vt 0.1638055 0.1796395
vt 0.1643576 0.1790829
vt 0.160889 0.1745046
vt 0.1616256 0.1742162
vt 0.1594632 0.1684173
vt 0.162473 0.1762243
vt 0.1617563 0.1765596
vt 0.1650545 0.1800215
vt 0.1643675 0.1803961
vt 0.1616256 0.1742162
vt 0.1600806 0.1683385
vt 0.1594632 0.1684173
vt 0.1583447 0.1628586
vt 0.165667 0.1812989
vt 0.1662372 0.1809457
vt 0.1710064 0.1841697
vt 0.1643576 0.1790829
vt 0.1638055 0.1796395
vt 0.1671266 0.1819909
vt 0.1664841 0.1822123
vt 0.1713945 0.1846921
vt 0.1650545 0.1800215
vt 0.1643675 0.1803961
vt 0.1600806 0.1683385
vt 0.1590955 0.1624457
vt 0.1583447 0.1628586
vt 0.1590955 0.1624457
vt 0.1584552 0.1615837
vt 0.1583447 0.1628586
vt 0.1578155 0.162146
vt 0.1584552 0.1615837
vt 0.1594818 0.1675322
vt 0.1578155 0.162146
vt 0.1909624 0.7130594
vt 0.1955396 0.7050537
vt 0.1840361 0.6994415
vt 0.1866034 0.6943219
vt 0.1664841 0.1822123
vt 0.1643675 0.1803961
vt 0.165667 0.1812989
vt 0.1638055 0.1796395
vt 0.1818999 0.6962591
vt 0.1837589 0.6913772
vt 0.1812705 0.6872293
vt 0.1837589 0.6913772
vt 0.1873769 0.6836017
vt 0.1812705 0.6872293
vt 0.1873769 0.6836017
vt 0.1796302 0.6790661
vt 0.1812705 0.6872293
vt 0.1617563 0.1765596
vt 0.1613312 0.1760569
vt 0.1643675 0.1803961
vt 0.1638055 0.1796395
vt 0.1955396 0.7050537
vt 0.1993347 0.6905867
vt 0.1866034 0.6943219
vt 0.1993347 0.6905867
vt 0.1905637 0.6853864
vt 0.1866034 0.6943219
vt 0.2126259 0.164783
vt 0.2080459 0.1716046
vt 0.2311648 0.1886904
vt 0.2311648 0.1886904
vt 0.2080459 0.1716046
vt 0.2023073 0.1769688
vn 0.5585238 0.377971 0.7383691
vn 0.5585238 0.377971 0.738369
vn 0.1995438 0.1461114 0.9689343
vn 0.1340292 0.2541498 0.9578329
vn 0.1340292 0.2541498 0.9578329
vn 0.01871189 -0.1068337 0.9941007
vn 0.01871189 -0.1068336 0.9941007
vn 0.01871195 -0.1068336 0.9941007
vn -0.09338427 -0.09426929 0.9911573
vn -0.09338429 -0.0942693 0.9911573
vn -0.09338429 -0.0942693 0.9911573
vn -0.1363003 -0.2238127 0.9650545
vn -0.1363003 -0.2238127 0.9650545
vn -0.1363003 -0.2238127 0.9650545
vn -0.1644475 -0.1728853 0.9711167
vn -0.1644475 -0.1728853 0.9711167
vn -0.1644475 -0.1728853 0.9711167
vn 0.2709633 0.2557182 0.9280016
vn 0.2709633 0.2557182 0.9280016
vn 0.2709633 0.2557182 0.9280016
vn 0.2949432 0.2021696 0.9338822
vn 0.2949431 0.2021696 0.9338822
vn 0.2949431 0.2021696 0.9338822
vn -0.4458 0.1251263 0.8863441
vn -0.4458 0.1251263 0.8863441
vn -0.4457999 0.1251263 0.8863441
vn -0.4046641 0.05305257 0.9129252
vn -0.4046641 0.05305258 0.9129252
vn -0.4046641 0.05305258 0.9129252
vn 0.3653389 0.6117507 0.7016328
vn -0.06941257 0.419674 0.9050169
vn 0.3653389 0.6117507 0.7016328
vn 0.02572203 0.3621773 0.9317543
vn 0.02572203 0.3621773 0.9317543
vn -0.2651689 -0.1043588 0.9585378
vn -0.2651688 -0.1043588 0.9585378
vn -0.2651689 -0.1043588 0.9585378
vn -0.2651474 -0.1043896 0.9585404
vn -0.2840519 -0.1219487 0.9510221
vn -0.2840418 -0.1219606 0.9510236
vn -0.1722828 -0.01931913 0.984858
vn -0.1722828 -0.01931913 0.984858
vn -0.1722828 -0.01931913 0.984858
vn -0.1755701 -0.008946354 0.9844263
vn 0.2300164 0.3249174 0.9173446
vn 0.2300164 0.3249174 0.9173446
vn 0.2300165 0.3249174 0.9173446
vn 0.1977251 0.3495294 0.9158242
vn 0.4581907 0.3382882 0.8219625
vn 0.4581907 0.3382882 0.8219625
vn 0.4581908 0.3382882 0.8219625
vn 0.4589294 0.3344433 0.823123
vn 0.4913175 0.2617556 0.8307173
vn 0.4913175 0.2617556 0.8307173
vn 0.4913175 0.2617556 0.8307172
vn 0.3702276 0.4350592 0.820765
vn 0.3702275 0.4350592 0.820765
vn 0.3702275 0.4350592 0.820765
vn 0.2534431 0.5570495 0.7908618
vn 0.2534432 0.5570495 0.7908618
vn 0.2534433 0.5570495 0.7908618
vn 0.2786991 0.5467299 0.7895651
vn 0.0809111 0.421953 0.9030001
vn 0.0809111 0.421953 0.9030001
vn 0.08091111 0.421953 0.9030001
vn -0.05818704 0.4327057 0.8996556
vn -0.05818704 0.4327057 0.8996556
vn -0.05818705 0.4327057 0.8996556
vn -0.08089119 0.3988929 0.9134228
vn -0.3705992 0.2204455 0.9022528
vn -0.3705992 0.2204455 0.9022528
vn -0.3705992 0.2204455 0.9022528
vn -0.3772507 0.1940985 0.9055428
vn -0.7356339 0.6658996 -0.1241795
vn -0.7356339 0.6658996 -0.1241795
vn -0.7356339 0.6658996 -0.1241795
vn -0.7359261 0.6655372 -0.1243908
vn -0.7549026 0.6558354 -0.001447942
vn -0.7549027 0.6558353 -0.001447914
vn -0.7549027 0.6558353 -0.001447944
vn -0.7411681 0.6713191 -0.0008015014
vn -0.7418535 0.6705594 0.001924648
vn -0.7164767 0.6974049 0.01695541
vn -0.7167439 0.6970184 0.02105963
vn 0.6049815 -0.6652378 0.4375569
vn 0.6049815 -0.6652378 0.4375569
vn 0.6049815 -0.6652378 0.4375569
vn 0.6157169 -0.6510105 0.4439346
vn 0.615717 -0.6510105 0.4439346
vn 0.6368544 -0.6227922 0.4544737
vn 0.6368544 -0.6227922 0.4544738
vn 0.650144 -0.6831014 0.332694
vn 0.650144 -0.6831014 0.332694
vn 0.6501441 -0.6831013 0.332694
vn 0.6498658 -0.6834578 0.3325053
vn -0.6265489 0.7792858 -0.01224975
vn -0.6265489 0.7792858 -0.01224978
vn -0.6265489 0.7792858 -0.01224978
vn -0.6580693 0.7529051 0.008864925
vn -0.6580693 0.7529051 0.008864883
vn 0.724533 -0.5485302 0.4173326
vn 0.724533 -0.5485302 0.4173326
vn 0.724533 -0.5485303 0.4173326
vn 0.6940414 -0.5692803 0.4407115
vn 0.6940413 -0.5692802 0.4407115
vn 0.6156574 -0.6737453 0.4086968
vn 0.6156574 -0.6737453 0.4086968
vn 0.6156574 -0.6737453 0.4086968
vn -0.7541486 -0.6477528 0.1080567
vn -0.7541487 -0.6477527 0.1080568
vn -0.7541486 -0.6477528 0.1080568
vn -0.7541703 -0.6477169 0.1081202
vn -0.7532006 0.6567715 -0.03660699
vn -0.7532006 0.6567715 -0.03660705
vn -0.7532007 0.6567714 -0.03660704
vn 0.1879444 0.01125435 0.9821151
vn 0.1879444 0.01125434 0.9821151
vn 0.1879445 0.01125436 0.9821151
vn 0.2283182 0.02803707 0.9731828
vn 0.1098357 0.2024898 0.9731054
vn 0.1098357 0.2024898 0.9731054
vn 0.1098357 0.2024898 0.9731054
vn 0.09030939 0.2097622 0.9735728
vn -0.05978066 0.3111531 0.9484777
vn -0.05978059 0.3111532 0.9484777
vn -0.05978066 0.3111532 0.9484777
vn -0.1448915 0.1811651 0.9727208
vn -0.1448915 0.1811651 0.9727208
vn -0.1448915 0.1811651 0.9727208
vn -0.3242978 0.2411872 0.914691
vn -0.3242979 0.2411872 0.914691
vn -0.324298 0.2411872 0.914691
vn -0.04419611 0.06802168 0.9967044
vn -0.04419615 0.06802168 0.9967044
vn -0.04419615 0.06802168 0.9967044
vn -0.05416789 0.08576524 0.9948418
vn 0.1447182 -0.07711724 0.9864631
vn 0.1447182 -0.07711723 0.9864631
vn 0.1447182 -0.0771172 0.9864631
vn 0.09237333 -0.06916159 0.9933196
vn 0.09237333 -0.06916159 0.9933196
vn 0.0923733 -0.06916161 0.9933196
vn -0.07945147 0.08543366 0.993171
vn -0.07945146 0.08543365 0.993171
vn 0.5585238 0.377971 0.738369
vn 0.3653389 0.6117507 0.7016328
vn -0.1445396 0.158295 0.9767553
vn -0.1445396 0.158295 0.9767553
g reapersPlume_0
f 3/3/3 2/2/2 1/1/1
f 5/5/5 4/4/4 2/2/2
f 8/8/8 7/7/7 6/6/6
f 11/11/11 10/10/10 9/9/9
f 14/14/14 13/13/13 12/12/12
f 16/16/16 15/15/15 14/14/14
f 15/15/15 16/16/16 17/17/17
f 20/20/20 19/19/19 18/18/18
f 23/23/23 22/22/22 21/21/21
f 26/26/26 25/25/25 24/24/24
f 29/29/29 28/28/28 27/27/27
f 32/32/32 31/31/31 30/30/30
f 32/32/32 34/34/34 33/33/33
f 37/37/37 36/36/36 35/35/35
f 37/37/37 38/38/38 36/36/36
f 39/39/39 35/35/35 36/36/36
f 39/39/39 40/40/40 35/35/35
f 43/43/43 42/42/42 41/41/41
f 43/43/43 44/44/44 42/42/42
f 47/47/47 46/46/46 45/45/45
f 47/47/47 48/48/48 46/46/46
f 51/51/51 50/50/50 49/49/49
f 52/52/52 50/50/50 51/51/51
f 55/55/55 54/54/54 53/53/53
f 58/58/58 57/57/57 56/56/56
f 61/61/61 60/60/60 59/59/59
f 61/61/61 62/62/62 60/60/60
f 65/65/65 64/64/64 63/63/63
f 68/68/68 67/67/67 66/66/66
f 69/69/69 66/66/66 67/67/67
f 72/72/72 71/71/71 70/70/70
f 72/72/72 73/73/73 71/71/71
f 76/76/76 75/75/75 74/74/74
f 77/77/77 76/76/76 74/74/74
f 80/80/80 79/79/79 78/78/78
f 81/81/81 78/78/78 79/79/79
f 81/81/81 82/82/82 78/78/78
f 83/83/83 82/82/82 81/81/81
f 83/83/83 84/84/84 82/82/82
f 87/87/87 86/86/86 85/85/85
f 85/85/85 86/86/86 88/88/88
f 85/85/85 88/88/88 89/89/89
f 89/89/89 88/88/88 90/90/90
f 89/89/89 90/90/90 91/91/91
f 94/94/94 93/93/93 92/92/92
f 95/95/95 93/93/93 94/94/94
f 98/98/98 97/97/97 96/96/96
f 96/96/96 97/97/97 99/99/99
f 96/96/96 99/99/99 100/100/100
f 103/103/103 102/102/102 101/101/101
f 104/104/104 101/101/101 102/102/102
f 104/104/104 102/102/102 105/105/105
f 108/108/108 107/107/107 106/106/106
f 111/111/111 110/110/110 109/109/109
f 111/111/111 112/112/112 110/110/110
f 115/115/115 114/114/114 113/113/113
f 118/118/118 117/117/117 116/116/116
f 118/118/118 119/119/119 117/117/117
f 122/122/122 121/121/121 120/120/120
f 122/122/122 123/123/123 121/121/121
f 126/126/126 125/125/125 124/124/124
f 129/129/129 128/128/128 127/127/127
f 132/132/132 131/131/131 130/130/130
f 135/135/135 134/134/134 133/133/133
f 135/135/135 136/136/136 134/134/134
f 139/139/139 138/138/138 137/137/137
f 142/142/142 141/141/141 140/140/140
f 145/145/145 144/144/144 143/143/143
f 148/148/148 147/147/147 146/146/146
