g rockmanChunk3
v -0.03247328 0.007032547 0.2066515
v -0.05419371 -0.07472832 0.2117759
v -0.1235965 0.005915146 0.1991124
v -0.05419371 -0.07472832 0.2117759
v -0.1530097 -0.06514305 0.1855429
v -0.1235965 0.005915146 0.1991124
v -0.08527967 0.1211404 -0.1611248
v 0.01855616 0.09552254 -0.09731896
v -0.08701269 0.1680863 0.03461141
v 0.01855616 0.09552254 -0.09731896
v 0.0003152656 0.150927 0.04396766
v -0.08701269 0.1680863 0.03461141
v -0.1360983 -0.1317765 -0.1512271
v -0.06005308 -0.124782 -0.1488784
v -0.1060418 -0.02087257 -0.2117759
v -0.06005308 -0.124782 -0.1488784
v 0.006093464 -0.01020729 -0.1661212
v -0.1060418 -0.02087257 -0.2117759
v 0.1253667 -0.107985 -0.1188914
v 0.1308242 -0.09043632 0.01029297
v 0.1401663 -0.012033 -0.1323772
v 0.1253667 -0.107985 -0.1188914
v 0.07479708 -0.1495882 0.004003854
v 0.1308242 -0.09043632 0.01029297
v 0.07139826 0.1159603 0.05300397
v 0.1182552 0.07811058 -0.09340518
v 0.1530097 0.0689228 0.009701853
v -0.1360983 -0.1317765 -0.1512271
v -0.1446097 -0.164455 0.05141066
v -0.06005308 -0.124782 -0.1488784
v 0.1253667 -0.107985 -0.1188914
v 0.01886148 -0.1150339 -0.1575083
v -0.1446097 -0.164455 0.05141066
v -0.08075742 -0.1680863 0.06160236
v -0.06005308 -0.124782 -0.1488784
v 0.0003152656 0.150927 0.04396766
v 0.01855616 0.09552254 -0.09731896
v 0.07139826 0.1159603 0.05300397
v 0.01855616 0.09552254 -0.09731896
v 0.1182552 0.07811058 -0.09340518
v 0.07139826 0.1159603 0.05300397
v -0.06005308 -0.124782 -0.1488784
v 0.01886148 -0.1150339 -0.1575083
v 0.006093464 -0.01020729 -0.1661212
v 0.0432445 -0.06015266 -0.1655204
v -0.08075742 -0.1680863 0.06160236
v 0.07479708 -0.1495882 0.004003854
v -0.06005308 -0.124782 -0.1488784
v 0.07479708 -0.1495882 0.004003854
v 0.1253667 -0.107985 -0.1188914
v -0.06005308 -0.124782 -0.1488784
v 0.06380282 -0.01283638 0.1674673
v 0.06124857 -0.07096642 0.1625951
v -0.03247328 0.007032547 0.2066515
v 0.06124857 -0.07096642 0.1625951
v -0.05419371 -0.07472832 0.2117759
v -0.03247328 0.007032547 0.2066515
v 0.06124857 -0.07096642 0.1625951
v 0.06380282 -0.01283638 0.1674673
v 0.1135136 -0.05659034 0.1071672
v -0.1060418 -0.02087257 -0.2117759
v 0.006093464 -0.01020729 -0.1661212
v -0.08527967 0.1211404 -0.1611248
v 0.006093464 -0.01020729 -0.1661212
v 0.01855616 0.09552254 -0.09731896
v -0.08527967 0.1211404 -0.1611248
v 0.1401663 -0.012033 -0.1323772
v 0.1182552 0.07811058 -0.09340518
v 0.006093464 -0.01020729 -0.1661212
v 0.1182552 0.07811058 -0.09340518
v 0.01855616 0.09552254 -0.09731896
v 0.006093464 -0.01020729 -0.1661212
v 0.1530097 0.0689228 0.009701853
v 0.1182552 0.07811058 -0.09340518
v 0.1401663 -0.012033 -0.1323772
v 0.06380282 -0.01283638 0.1674673
v 0.0534395 0.04150932 0.1506705
v 0.1135136 -0.05659034 0.1071672
v 0.0534395 0.04150932 0.1506705
v 0.1330616 0.01808311 0.103406
v 0.1135136 -0.05659034 0.1071672
v 0.06380282 -0.01283638 0.1674673
v -0.03247328 0.007032547 0.2066515
v 0.0534395 0.04150932 0.1506705
v -0.01292501 0.08061775 0.169854
v -0.1235965 0.005915146 0.1991124
v -0.09124243 0.09294899 0.1806482
v -0.03247328 0.007032547 0.2066515
v -0.09124243 0.09294899 0.1806482
v -0.01292501 0.08061775 0.169854
v -0.03247328 0.007032547 0.2066515
v -0.08701269 0.1680863 0.03461141
v 0.0003152656 0.150927 0.04396766
v -0.09124243 0.09294899 0.1806482
v 0.0003152656 0.150927 0.04396766
v -0.01292501 0.08061775 0.169854
v -0.09124243 0.09294899 0.1806482
v 0.0534395 0.04150932 0.1506705
v -0.01292501 0.08061775 0.169854
v 0.07139826 0.1159603 0.05300397
v 0.1330616 0.01808311 0.103406
v -0.01292501 0.08061775 0.169854
v 0.0003152656 0.150927 0.04396766
v 0.07139826 0.1159603 0.05300397
v 0.1530097 0.0689228 0.009701853
v 0.1330616 0.01808311 0.103406
v 0.07139826 0.1159603 0.05300397
v 0.1308242 -0.09043632 0.01029297
v 0.07479708 -0.1495882 0.004003854
v 0.1135136 -0.05659034 0.1071672
v 0.07479708 -0.1495882 0.004003854
v 0.06124857 -0.07096642 0.1625951
v 0.1135136 -0.05659034 0.1071672
v -0.05419371 -0.07472832 0.2117759
v 0.06124857 -0.07096642 0.1625951
v -0.08075742 -0.1680863 0.06160236
v 0.06124857 -0.07096642 0.1625951
v 0.07479708 -0.1495882 0.004003854
v -0.08075742 -0.1680863 0.06160236
v -0.1530097 -0.06514305 0.1855429
v -0.05419371 -0.07472832 0.2117759
v -0.1340553 -0.1431693 0.1908017
v -0.1340553 -0.1431693 0.1908017
v -0.05419371 -0.07472832 0.2117759
v -0.1446097 -0.164455 0.05141066
v -0.05419371 -0.07472832 0.2117759
v -0.08075742 -0.1680863 0.06160236
v -0.1446097 -0.164455 0.05141066
v 0.01886148 -0.1150339 -0.1575083
v 0.1253667 -0.107985 -0.1188914
v 0.0432445 -0.06015266 -0.1655204
v 0.1253667 -0.107985 -0.1188914
v 0.1401663 -0.012033 -0.1323772
v 0.0432445 -0.06015266 -0.1655204
v 0.1401663 -0.012033 -0.1323772
v 0.006093464 -0.01020729 -0.1661212
v 0.0432445 -0.06015266 -0.1655204
v -0.08527967 0.1211404 -0.1611248
v -0.1530097 -0.06514305 0.1855429
v -0.1060418 -0.02087257 -0.2117759
v -0.1360983 -0.1317765 -0.1512271
v -0.1446097 -0.164455 0.05141066
v -0.08701269 0.1680863 0.03461141
v -0.1530097 -0.06514305 0.1855429
v -0.1340553 -0.1431693 0.1908017
v -0.1446097 -0.164455 0.05141066
v -0.09124243 0.09294899 0.1806482
v -0.1235965 0.005915146 0.1991124
v -0.08701269 0.1680863 0.03461141
v 0.1330616 0.01808311 0.103406
v 0.1308242 -0.09043632 0.01029297
v 0.1135136 -0.05659034 0.1071672
v 0.1401663 -0.012033 -0.1323772
v 0.1530097 0.0689228 0.009701853
vt 0.8145392 0.647322
vt 0.8079771 0.6144269
vt 0.7870095 0.6468723
vt 0.8079771 0.6144269
vt 0.7781231 0.6182834
vt 0.7870095 0.6468723
vt 0.7985857 0.693231
vt 0.8299561 0.6829243
vt 0.798062 0.7121189
vt 0.8299561 0.6829243
vt 0.8244452 0.7052151
vt 0.798062 0.7121189
vt 0.7832325 0.5914747
vt 0.8062069 0.5942887
vt 0.792313 0.6360947
vt 0.8062069 0.5942887
vt 0.8261908 0.6403857
vt 0.792313 0.6360947
vt 0.8622254 0.6010467
vt 0.8638742 0.608107
vt 0.8666965 0.6396512
vt 0.8622254 0.6010467
vt 0.8469474 0.5843083
vt 0.8638742 0.608107
vt 0.8459206 0.691147
vt 0.8600768 0.6759188
vt 0.8705767 0.6722221
vt 0.7832325 0.5914747
vt 0.780661 0.5783269
vt 0.8062069 0.5942887
vt 0.8622254 0.6010467
vt 0.8300483 0.5982108
vt 0.780661 0.5783269
vt 0.7999518 0.576866
vt 0.8062069 0.5942887
vt 0.8244452 0.7052151
vt 0.8299561 0.6829243
vt 0.8459206 0.691147
vt 0.8299561 0.6829243
vt 0.8600768 0.6759188
vt 0.8459206 0.691147
vt 0.8062069 0.5942887
vt 0.8300483 0.5982108
vt 0.8261908 0.6403857
vt 0.8374149 0.6202912
vt 0.7999518 0.576866
vt 0.8469474 0.5843083
vt 0.8062069 0.5942887
vt 0.8469474 0.5843083
vt 0.8622254 0.6010467
vt 0.8062069 0.5942887
vt 0.8436259 0.6393279
vt 0.8428542 0.6159404
vt 0.8145392 0.647322
vt 0.8428542 0.6159404
vt 0.8079771 0.6144269
vt 0.8145392 0.647322
vt 0.8428542 0.6159404
vt 0.8436259 0.6393279
vt 0.8586442 0.6217243
vt 0.792313 0.6360947
vt 0.8261908 0.6403857
vt 0.7985857 0.693231
vt 0.8261908 0.6403857
vt 0.8299561 0.6829243
vt 0.7985857 0.693231
vt 0.8666965 0.6396512
vt 0.8600768 0.6759188
vt 0.8261908 0.6403857
vt 0.8600768 0.6759188
vt 0.8299561 0.6829243
vt 0.8261908 0.6403857
vt 0.8705767 0.6722221
vt 0.8600768 0.6759188
vt 0.8666965 0.6396512
vt 0.8436259 0.6393279
vt 0.8404949 0.661193
vt 0.8586442 0.6217243
vt 0.8404949 0.661193
vt 0.8645501 0.6517679
vt 0.8586442 0.6217243
vt 0.8436259 0.6393279
vt 0.8145392 0.647322
vt 0.8404949 0.661193
vt 0.8204451 0.6769276
vt 0.7870095 0.6468723
vt 0.796784 0.6818888
vt 0.8145392 0.647322
vt 0.796784 0.6818888
vt 0.8204451 0.6769276
vt 0.8145392 0.647322
vt 0.798062 0.7121189
vt 0.8244452 0.7052151
vt 0.796784 0.6818888
vt 0.8244452 0.7052151
vt 0.8204451 0.6769276
vt 0.796784 0.6818888
vt 0.8404949 0.661193
vt 0.8204451 0.6769276
vt 0.8459206 0.691147
vt 0.8645501 0.6517679
vt 0.8204451 0.6769276
vt 0.8244452 0.7052151
vt 0.8459206 0.691147
vt 0.8705767 0.6722221
vt 0.8645501 0.6517679
vt 0.8459206 0.691147
vt 0.8638742 0.608107
vt 0.8469474 0.5843083
vt 0.8586442 0.6217243
vt 0.8469474 0.5843083
vt 0.8428542 0.6159404
vt 0.8586442 0.6217243
vt 0.8079771 0.6144269
vt 0.8428542 0.6159404
vt 0.7999518 0.576866
vt 0.8428542 0.6159404
vt 0.8469474 0.5843083
vt 0.7999518 0.576866
vt 0.7781231 0.6182834
vt 0.8079771 0.6144269
vt 0.7838496 0.586891
vt 0.7838496 0.586891
vt 0.8079771 0.6144269
vt 0.7837628 0.5729918
vt 0.8079771 0.6144269
vt 0.7999518 0.576866
vt 0.7837628 0.5729918
vt 0.8300483 0.5982108
vt 0.8622254 0.6010467
vt 0.8374149 0.6202912
vt 0.8622254 0.6010467
vt 0.8666965 0.6396512
vt 0.8374149 0.6202912
vt 0.8666965 0.6396512
vt 0.8261908 0.6403857
vt 0.8374149 0.6202912
vt 0.7985857 0.693231
vt 0.7781231 0.6182834
vt 0.792313 0.6360947
vt 0.7832325 0.5914747
vt 0.7837628 0.5729918
vt 0.798062 0.7121189
vt 0.7781231 0.6182834
vt 0.7838496 0.586891
vt 0.7837628 0.5729918
vt 0.796784 0.6818888
vt 0.7870095 0.6468723
vt 0.798062 0.7121189
vt 0.8645501 0.6517679
vt 0.8638742 0.608107
vt 0.8586442 0.6217243
vt 0.8666965 0.6396512
vt 0.8705767 0.6722221
vn -0.08318654 0.08433299 0.9929591
vn -0.08318654 0.084333 0.9929591
vn -0.08318655 0.08433299 0.9929591
vn -0.2626517 -0.0749827 0.9619728
vn -0.2626517 -0.07498269 0.9619728
vn -0.2626517 -0.07498269 0.9619728
vn 0.3564021 0.9092761 -0.2149287
vn 0.3564021 0.9092761 -0.2149287
vn 0.3564021 0.9092761 -0.2149287
vn 0.2159982 0.918158 -0.3321607
vn 0.2159982 0.918158 -0.3321607
vn 0.2159982 0.918158 -0.3321607
vn 0.07211885 -0.4929309 -0.8670744
vn 0.07211885 -0.4929309 -0.8670744
vn 0.07211886 -0.4929309 -0.8670744
vn 0.381649 -0.3491319 -0.8558334
vn 0.381649 -0.3491319 -0.8558334
vn 0.381649 -0.3491319 -0.8558334
vn 0.9876614 -0.1552387 -0.020637
vn 0.9876614 -0.1552387 -0.020637
vn 0.9876614 -0.1552387 -0.020637
vn 0.7212039 -0.6898301 0.06323956
vn 0.7212039 -0.6898301 0.06323956
vn 0.721204 -0.68983 0.06323956
vn 0.4661738 0.8811936 -0.07861165
vn 0.4661738 0.8811936 -0.07861166
vn 0.4661738 0.8811936 -0.07861166
vn 0.09522372 -0.9833798 -0.1545854
vn 0.09522372 -0.9833798 -0.1545854
vn 0.09522371 -0.9833798 -0.1545854
vn 0.108785 -0.9868069 -0.1199079
vn 0.108785 -0.9868069 -0.1199079
vn -0.02315744 -0.9787699 -0.2036498
vn -0.02315744 -0.9787699 -0.2036498
vn -0.02315744 -0.9787699 -0.2036498
vn 0.4523196 0.8486015 -0.2743765
vn 0.4523197 0.8486015 -0.2743766
vn 0.4523196 0.8486015 -0.2743765
vn 0.1761545 0.9652256 -0.1931557
vn 0.1761545 0.9652256 -0.1931557
vn 0.1761545 0.9652256 -0.1931556
vn -0.09685093 -0.09321348 -0.9909244
vn -0.09685092 -0.09321348 -0.9909244
vn -0.09685092 -0.09321347 -0.9909244
vn -0.1115364 -0.09486303 -0.9892222
vn 0.04343749 -0.979395 -0.1972275
vn 0.04343749 -0.979395 -0.1972275
vn 0.04343749 -0.979395 -0.1972275
vn 0.130025 -0.9541796 -0.2695085
vn 0.130025 -0.9541796 -0.2695085
vn 0.130025 -0.9541796 -0.2695085
vn 0.3586827 -0.09360331 0.9287546
vn 0.3586827 -0.09360331 0.9287546
vn 0.3586828 -0.09360331 0.9287546
vn 0.3927971 -0.0467874 0.9184342
vn 0.3927971 -0.0467874 0.9184342
vn 0.3927971 -0.0467874 0.9184342
vn 0.7360671 -0.08858979 0.6710865
vn 0.7360671 -0.08858979 0.6710864
vn 0.7360671 -0.08858979 0.6710865
vn 0.3407036 0.271256 -0.9001895
vn 0.3407036 0.271256 -0.9001895
vn 0.3407035 0.271256 -0.9001895
vn 0.5488392 0.4095257 -0.7287416
vn 0.5488392 0.4095257 -0.7287415
vn 0.5488392 0.4095257 -0.7287415
vn 0.2256202 0.4322896 -0.8730529
vn 0.2256201 0.4322896 -0.8730528
vn 0.2256201 0.4322896 -0.8730529
vn 0.1255835 0.5306633 -0.8382275
vn 0.1255835 0.5306633 -0.8382275
vn 0.1255835 0.5306633 -0.8382275
vn 0.9007927 0.3372335 -0.2735803
vn 0.9007927 0.3372335 -0.2735802
vn 0.9007927 0.3372335 -0.2735803
vn 0.8314859 0.3025612 0.4659269
vn 0.8314859 0.3025612 0.4659269
vn 0.8314859 0.3025612 0.4659269
vn 0.490098 -0.08459999 0.8675522
vn 0.4900979 -0.08459999 0.8675522
vn 0.4900979 -0.08459999 0.8675522
vn 0.4138595 0.3399299 0.8444927
vn 0.4138595 0.3399299 0.8444927
vn 0.4138595 0.3399299 0.8444927
vn 0.4283113 0.3105664 0.8485858
vn -0.08299638 0.2362437 0.9681428
vn -0.08299639 0.2362437 0.9681428
vn -0.08299641 0.2362437 0.9681428
vn 0.1865887 0.3993066 0.8976296
vn 0.1865887 0.3993067 0.8976296
vn 0.1865887 0.3993066 0.8976296
vn 0.1241406 0.8808617 0.4568062
vn 0.1241406 0.8808617 0.4568062
vn 0.1241405 0.8808616 0.4568062
vn 0.2012529 0.846032 0.4936872
vn 0.2012529 0.846032 0.4936872
vn 0.2012529 0.846032 0.4936872
vn 0.5326996 0.6229669 0.572838
vn 0.5326995 0.622967 0.572838
vn 0.5326996 0.6229669 0.572838
vn 0.5256912 0.6271535 0.5747409
vn 0.3352327 0.8070901 0.4860294
vn 0.3352326 0.8070901 0.4860294
vn 0.3352326 0.8070901 0.4860294
vn 0.6147574 0.6309839 0.4732152
vn 0.6147574 0.6309839 0.4732152
vn 0.6147574 0.6309839 0.4732152
vn 0.661245 -0.6635269 0.3499817
vn 0.661245 -0.6635268 0.3499816
vn 0.661245 -0.6635268 0.3499816
vn 0.6074562 -0.689825 0.393876
vn 0.6074562 -0.6898251 0.393876
vn 0.6074561 -0.6898252 0.393876
vn 0.2333812 -0.843789 0.4832735
vn 0.2333812 -0.843789 0.4832735
vn 0.2333812 -0.843789 0.4832734
vn 0.2668211 -0.854198 0.4462647
vn 0.2668211 -0.854198 0.4462647
vn 0.2668211 -0.8541981 0.4462646
vn -0.2563236 0.002879041 0.9665867
vn -0.2563235 0.002879041 0.9665867
vn -0.2563235 0.002879041 0.9665867
vn 0.6387323 -0.7663592 0.06866378
vn 0.6387323 -0.7663592 0.06866378
vn 0.6387323 -0.7663592 0.06866378
vn -0.1334708 -0.8309107 0.5401601
vn -0.1334708 -0.8309107 0.5401601
vn -0.1334708 -0.8309107 0.5401601
vn 0.3434194 -0.2833 -0.8954353
vn 0.3434193 -0.2833 -0.8954353
vn 0.3434193 -0.2833 -0.8954353
vn 0.3999898 -0.1877751 -0.8970779
vn 0.3999898 -0.1877751 -0.8970779
vn 0.3999898 -0.1877751 -0.8970779
vn 0.2427246 0.1690562 -0.9552512
vn 0.2427246 0.1690562 -0.9552512
vn 0.2427246 0.1690562 -0.9552512
vn -0.9769369 0.1955332 -0.08579778
vn -0.9871962 0.1578617 -0.02287687
vn -0.9773222 0.1895458 -0.09441144
vn -0.9777228 0.1910657 -0.08690228
vn -0.9986337 -0.04140008 -0.03188659
vn -0.9677159 0.2491379 -0.03816153
vn -0.9871962 0.1578617 -0.02287687
vn -0.9676957 -0.2277913 0.1080565
vn -0.9986337 -0.04140008 -0.03188659
vn -0.9177617 0.3635234 0.1598885
vn -0.9260268 0.3648039 0.09691485
vn -0.9677159 0.2491379 -0.03816153
vn 0.9849245 -0.1505397 0.08521484
vn 0.9958968 -0.0698747 0.05750652
vn 0.9398119 -0.2334566 0.2495025
vn 0.9922031 -0.1163191 0.04475439
vn 0.9628941 -0.2625319 0.06254666
g rockmanChunk3_0
f 3/3/3 2/2/2 1/1/1
f 6/6/6 5/5/5 4/4/4
f 9/9/9 8/8/8 7/7/7
f 12/12/12 11/11/11 10/10/10
f 15/15/15 14/14/14 13/13/13
f 18/18/18 17/17/17 16/16/16
f 21/21/21 20/20/20 19/19/19
f 24/24/24 23/23/23 22/22/22
f 27/27/27 26/26/26 25/25/25
f 30/30/30 29/29/29 28/28/28
f 32/32/32 31/31/31 30/30/30
f 35/35/35 34/34/34 33/33/33
f 38/38/38 37/37/37 36/36/36
f 41/41/41 40/40/40 39/39/39
f 44/44/44 43/43/43 42/42/42
f 44/44/44 45/45/45 43/43/43
f 48/48/48 47/47/47 46/46/46
f 51/51/51 50/50/50 49/49/49
f 54/54/54 53/53/53 52/52/52
f 57/57/57 56/56/56 55/55/55
f 60/60/60 59/59/59 58/58/58
f 63/63/63 62/62/62 61/61/61
f 66/66/66 65/65/65 64/64/64
f 69/69/69 68/68/68 67/67/67
f 72/72/72 71/71/71 70/70/70
f 75/75/75 74/74/74 73/73/73
f 78/78/78 77/77/77 76/76/76
f 81/81/81 80/80/80 79/79/79
f 84/84/84 83/83/83 82/82/82
f 84/84/84 85/85/85 83/83/83
f 88/88/88 87/87/87 86/86/86
f 91/91/91 90/90/90 89/89/89
f 94/94/94 93/93/93 92/92/92
f 97/97/97 96/96/96 95/95/95
f 100/100/100 99/99/99 98/98/98
f 100/100/100 98/98/98 101/101/101
f 104/104/104 103/103/103 102/102/102
f 107/107/107 106/106/106 105/105/105
f 110/110/110 109/109/109 108/108/108
f 113/113/113 112/112/112 111/111/111
f 116/116/116 115/115/115 114/114/114
f 119/119/119 118/118/118 117/117/117
f 122/122/122 121/121/121 120/120/120
f 125/125/125 124/124/124 123/123/123
f 128/128/128 127/127/127 126/126/126
f 131/131/131 130/130/130 129/129/129
f 134/134/134 133/133/133 132/132/132
f 137/137/137 136/136/136 135/135/135
f 140/140/140 139/139/139 138/138/138
f 140/140/140 141/141/141 139/139/139
f 141/141/141 142/142/142 139/139/139
f 139/139/139 143/143/143 138/138/138
f 146/146/146 145/145/145 144/144/144
f 144/144/144 148/148/148 147/147/147
f 144/144/144 147/147/147 149/149/149
f 152/152/152 151/151/151 150/150/150
f 150/150/150 151/151/151 153/153/153
f 150/150/150 153/153/153 154/154/154
