g rockmanChunk9
v 0.1619414 -0.00769371 -0.1139171
v 0.1533008 -0.007694015 0.07065838
v 0.1401321 0.07379662 -0.06929174
v 0.1619414 -0.00769371 -0.1139171
v 0.09391693 0.04517738 -0.1575295
v 0.09691883 -0.06242042 -0.1623895
v 0.1619414 -0.00769371 -0.1139171
v 0.1401321 0.07379662 -0.06929174
v 0.09391693 0.04517738 -0.1575295
v 0.06446335 0.1392805 -0.1098575
v 0.1619414 -0.00769371 -0.1139171
v 0.09691883 -0.06242042 -0.1623895
v 0.1538005 -0.09763603 -0.07451465
v 0.05910431 -0.1406483 0.06327546
v 0.008402595 -0.007643204 0.1623895
v 0.09544357 -0.06151024 0.1220841
v 0.09394295 -0.1462679 -0.01895523
v 0.05910431 -0.1406483 0.06327546
v 0.150848 -0.09580787 0.03547531
v -0.1440131 -0.007694931 -0.1130854
v -0.1619414 -0.007644577 -0.01885682
v -0.1259728 -0.09069023 -0.07022237
v -0.1401038 -0.007694931 0.07276687
v -0.1619414 -0.007644577 -0.01885682
v -0.1378156 0.08262566 0.03683805
v 0.05910431 -0.1406483 0.06327546
v -0.07349788 -0.05820671 0.1134363
v 0.008402595 -0.007643204 0.1623895
v 0.008298073 0.07681557 0.1177841
v 0.008402595 -0.007643204 0.1623895
v -0.04082104 0.1208486 0.06054693
v -0.1440131 -0.007694931 -0.1130854
v -0.0791295 0.04629585 -0.1604504
v -0.1255164 0.07502083 -0.07004931
v -0.1440131 -0.007694931 -0.1130854
v -0.1259728 -0.09069023 -0.07022237
v -0.04755754 -0.1538634 -0.1093573
v 0.008298073 0.07681557 0.1177841
v -0.04082104 0.1208486 0.06054693
v 0.06206535 0.1330067 0.06806685
v 0.008299065 0.07460792 -0.1521228
v 0.06446335 0.1392805 -0.1098575
v -0.04068134 0.120483 -0.09823133
v 0.008299141 -0.09073357 -0.1533171
v -0.04755754 -0.1538634 -0.1093573
v 0.06064823 -0.1446876 -0.1036841
v 0.09691883 -0.06242042 -0.1623895
v 0.06064823 -0.1446876 -0.1036841
v -0.04755754 -0.1538634 -0.1093573
v -0.07439281 -0.141493 -0.01895523
v 0.008346749 -0.1713883 -0.01895597
v 0.008346749 -0.1713883 -0.01895597
v 0.09394295 -0.1462679 -0.01895523
v 0.06064823 -0.1446876 -0.1036841
v -0.04755754 -0.1538634 -0.1093573
v 0.008346749 -0.1713883 -0.01895597
v 0.06064823 -0.1446876 -0.1036841
v 0.00834938 0.1713883 -0.01895603
v -0.07168369 0.1217202 -0.01895523
v -0.04068134 0.120483 -0.09823133
v 0.06446335 0.1392805 -0.1098575
v 0.00834938 0.1713883 -0.01895603
v -0.04068134 0.120483 -0.09823133
v -0.04082104 0.1208486 0.06054693
v -0.07168369 0.1217202 -0.01895523
v 0.00834938 0.1713883 -0.01895603
v -0.04082104 0.1208486 0.06054693
v 0.00834938 0.1713883 -0.01895603
v 0.06206535 0.1330067 0.06806685
v 0.05910431 -0.1406483 0.06327546
v 0.09394295 -0.1462679 -0.01895523
v 0.008346749 -0.1713883 -0.01895597
v 0.008346749 -0.1713883 -0.01895597
v -0.07439281 -0.141493 -0.01895523
v -0.04286407 -0.141583 0.06385263
v 0.05910431 -0.1406483 0.06327546
v 0.008346749 -0.1713883 -0.01895597
v -0.04286407 -0.141583 0.06385263
v -0.1259728 -0.09069023 -0.07022237
v -0.07439281 -0.141493 -0.01895523
v -0.04755754 -0.1538634 -0.1093573
v -0.0791295 0.04629585 -0.1604504
v 0.008299065 0.07460792 -0.1521228
v -0.04068134 0.120483 -0.09823133
v -0.04068134 0.120483 -0.09823133
v -0.07168369 0.1217202 -0.01895523
v -0.1255164 0.07502083 -0.07004931
v -0.0791295 0.04629585 -0.1604504
v -0.04068134 0.120483 -0.09823133
v -0.1255164 0.07502083 -0.07004931
v -0.0791295 0.04629585 -0.1604504
v -0.1440131 -0.007694931 -0.1130854
v -0.04755754 -0.1538634 -0.1093573
v 0.008299141 -0.09073357 -0.1533171
v 0.008402595 -0.007643204 0.1623895
v -0.1401038 -0.007694931 0.07276687
v -0.1378156 0.08262566 0.03683805
v -0.1378156 0.08262566 0.03683805
v -0.07168369 0.1217202 -0.01895523
v -0.04082104 0.1208486 0.06054693
v 0.008402595 -0.007643204 0.1623895
v -0.1378156 0.08262566 0.03683805
v -0.04082104 0.1208486 0.06054693
v -0.07349788 -0.05820671 0.1134363
v 0.05910431 -0.1406483 0.06327546
v -0.04286407 -0.141583 0.06385263
v -0.04286407 -0.141583 0.06385263
v -0.07439281 -0.141493 -0.01895523
v -0.1401038 -0.007694931 0.07276687
v -0.07349788 -0.05820671 0.1134363
v -0.04286407 -0.141583 0.06385263
v -0.1401038 -0.007694931 0.07276687
v -0.07349788 -0.05820671 0.1134363
v -0.1401038 -0.007694931 0.07276687
v 0.008402595 -0.007643204 0.1623895
v -0.1619414 -0.007644577 -0.01885682
v -0.1440131 -0.007694931 -0.1130854
v -0.1255164 0.07502083 -0.07004931
v -0.1255164 0.07502083 -0.07004931
v -0.07168369 0.1217202 -0.01895523
v -0.1378156 0.08262566 0.03683805
v -0.1619414 -0.007644577 -0.01885682
v -0.1255164 0.07502083 -0.07004931
v -0.1378156 0.08262566 0.03683805
v -0.1401038 -0.007694931 0.07276687
v -0.07439281 -0.141493 -0.01895523
v -0.1259728 -0.09069023 -0.07022237
v -0.1619414 -0.007644577 -0.01885682
v -0.1401038 -0.007694931 0.07276687
v -0.1259728 -0.09069023 -0.07022237
v 0.08442032 0.03931343 0.1042511
v 0.008298073 0.07681557 0.1177841
v 0.06206535 0.1330067 0.06806685
v 0.06206535 0.1330067 0.06806685
v 0.00834938 0.1713883 -0.01895603
v 0.1533008 -0.007694015 0.07065838
v 0.08442032 0.03931343 0.1042511
v 0.06206535 0.1330067 0.06806685
v 0.1533008 -0.007694015 0.07065838
v 0.09544357 -0.06151024 0.1220841
v 0.1533008 -0.007694015 0.07065838
v 0.150848 -0.09580787 0.03547531
v 0.05910431 -0.1406483 0.06327546
v 0.09544357 -0.06151024 0.1220841
v 0.150848 -0.09580787 0.03547531
v 0.008402595 -0.007643204 0.1623895
v 0.008298073 0.07681557 0.1177841
v 0.08442032 0.03931343 0.1042511
v 0.08442032 0.03931343 0.1042511
v 0.1533008 -0.007694015 0.07065838
v 0.09544357 -0.06151024 0.1220841
v 0.008402595 -0.007643204 0.1623895
v 0.06064823 -0.1446876 -0.1036841
v 0.09394295 -0.1462679 -0.01895523
v 0.1538005 -0.09763603 -0.07451465
v 0.09691883 -0.06242042 -0.1623895
v 0.06064823 -0.1446876 -0.1036841
v 0.1538005 -0.09763603 -0.07451465
v 0.1401321 0.07379662 -0.06929174
v 0.00834938 0.1713883 -0.01895603
v 0.06446335 0.1392805 -0.1098575
v 0.06446335 0.1392805 -0.1098575
v 0.008299065 0.07460792 -0.1521228
v 0.09391693 0.04517738 -0.1575295
v 0.09391693 0.04517738 -0.1575295
v 0.008299065 0.07460792 -0.1521228
v -0.0791295 0.04629585 -0.1604504
v -0.0791295 0.04629585 -0.1604504
v 0.008299141 -0.09073357 -0.1533171
v 0.09691883 -0.06242042 -0.1623895
v 0.09391693 0.04517738 -0.1575295
v -0.0791295 0.04629585 -0.1604504
v 0.09691883 -0.06242042 -0.1623895
v 0.1533008 -0.007694015 0.07065838
v 0.00834938 0.1713883 -0.01895603
v 0.1401321 0.07379662 -0.06929174
v 0.1533008 -0.007694015 0.07065838
v 0.1619414 -0.00769371 -0.1139171
v 0.1538005 -0.09763603 -0.07451465
v 0.150848 -0.09580787 0.03547531
v 0.1538005 -0.09763603 -0.07451465
v 0.09394295 -0.1462679 -0.01895523
v 0.150848 -0.09580787 0.03547531
vt 0.7272727 0.5833334
vt 0.9090909 0.5833334
vt 0.7727273 0.5
vt 0.7272727 0.5833334
vt 0.6818182 0.5
vt 0.6363636 0.5833334
vt 0.7272727 0.5833334
vt 0.7727273 0.5
vt 0.6818182 0.5
vt 0.7272727 0.4166667
vt 0.7272727 0.5833334
vt 0.6363636 0.5833334
vt 0.6818182 0.6666667
vt 0.2272727 0.6666667
vt 0.1363636 0.5
vt 0.09090909 0.5833334
vt 0.09090909 0.75
vt 0.2272727 0.6666667
vt 0.04545455 0.6666667
vt 0.4545455 0.4166667
vt 0.3636364 0.4166667
vt 0.4090909 0.5
vt 0.2727273 0.4166667
vt 0.3636364 0.4166667
vt 0.3181818 0.3333333
vt 0.2272727 0.6666667
vt 0.2272727 0.5
vt 0.1363636 0.5
vt 0.09090909 0.4166667
vt 0.1363636 0.5
vt 0.1363636 0.3333333
vt 0.4545455 0.4166667
vt 0.5454546 0.4166667
vt 0.5 0.3333333
vt 0.4545455 0.4166667
vt 0.4090909 0.5
vt 0.4545455 0.5833334
vt 1 0.4166667
vt 0.9545455 0.3333333
vt 0.9090909 0.4166667
vt 0.6363636 0.4166667
vt 0.7272727 0.4166667
vt 0.6818182 0.3333333
vt 0.5454546 0.5833334
vt 0.4545455 0.5833334
vt 0.5 0.6666667
vt 0.6363636 0.5833334
vt 0.5909091 0.6666667
vt 0.4545455 0.5833334
vt 0.3636364 0.5833334
vt 0.4090909 0.6666667
vt 0.4090909 0.6666667
vt 0.4545455 0.75
vt 0.5 0.6666667
vt 0.4545455 0.5833334
vt 0.4090909 0.6666667
vt 0.5 0.6666667
vt 0.7727273 0.3333333
vt 0.7272727 0.25
vt 0.6818182 0.3333333
vt 0.7272727 0.4166667
vt 0.7727273 0.3333333
vt 0.6818182 0.3333333
vt 0.9545455 0.3333333
vt 0.9090909 0.25
vt 0.7727273 0.3333333
vt 0.9545455 0.3333333
vt 0.7727273 0.3333333
vt 0.9090909 0.4166667
vt 0.2272727 0.6666667
vt 0.2727273 0.75
vt 0.3181818 0.6666667
vt 0.3181818 0.6666667
vt 0.3636364 0.5833334
vt 0.2727273 0.5833334
vt 0.2272727 0.6666667
vt 0.3181818 0.6666667
vt 0.2727273 0.5833334
vt 0.4090909 0.5
vt 0.3636364 0.5833334
vt 0.4545455 0.5833334
vt 0.5454546 0.4166667
vt 0.6363636 0.4166667
vt 0.5909091 0.3333333
vt 0.5909091 0.3333333
vt 0.5454546 0.25
vt 0.5 0.3333333
vt 0.5454546 0.4166667
vt 0.5909091 0.3333333
vt 0.5 0.3333333
vt 0.5454546 0.4166667
vt 0.4545455 0.4166667
vt 0.4545455 0.5833334
vt 0.5454546 0.5833334
vt 0.1363636 0.5
vt 0.2727273 0.4166667
vt 0.2272727 0.3333333
vt 0.2272727 0.3333333
vt 0.1818182 0.25
vt 0.1363636 0.3333333
vt 0.1363636 0.5
vt 0.2272727 0.3333333
vt 0.1363636 0.3333333
vt 0.2272727 0.5
vt 0.2272727 0.6666667
vt 0.2727273 0.5833334
vt 0.2727273 0.5833334
vt 0.3636364 0.5833334
vt 0.2727273 0.4166667
vt 0.2272727 0.5
vt 0.2727273 0.5833334
vt 0.2727273 0.4166667
vt 0.2272727 0.5
vt 0.2727273 0.4166667
vt 0.1363636 0.5
vt 0.3636364 0.4166667
vt 0.4545455 0.4166667
vt 0.4090909 0.3333333
vt 0.4090909 0.3333333
vt 0.3636364 0.25
vt 0.3181818 0.3333333
vt 0.3636364 0.4166667
vt 0.4090909 0.3333333
vt 0.3181818 0.3333333
vt 0.2727273 0.4166667
vt 0.3636364 0.5833334
vt 0.4090909 0.5
vt 0.3636364 0.4166667
vt 0.2727273 0.4166667
vt 0.4090909 0.5
vt 0.9545455 0.5
vt 1 0.4166667
vt 0.9090909 0.4166667
vt 0.9090909 0.4166667
vt 0.7727273 0.3333333
vt 0.9090909 0.5833334
vt 0.9545455 0.5
vt 0.9090909 0.4166667
vt 0.9090909 0.5833334
vt 0.09090909 0.5833334
vt 0 0.5833334
vt 0.04545455 0.6666667
vt 0.2272727 0.6666667
vt 0.09090909 0.5833334
vt 0.04545455 0.6666667
vt 0.1363636 0.5
vt 0.09090909 0.4166667
vt 0.04545455 0.5
vt 0.04545455 0.5
vt 0 0.5833334
vt 0.09090909 0.5833334
vt 0.1363636 0.5
vt 0.5909091 0.6666667
vt 0.6363636 0.75
vt 0.6818182 0.6666667
vt 0.6363636 0.5833334
vt 0.5909091 0.6666667
vt 0.6818182 0.6666667
vt 0.7727273 0.5
vt 0.7727273 0.3333333
vt 0.7272727 0.4166667
vt 0.7272727 0.4166667
vt 0.6363636 0.4166667
vt 0.6818182 0.5
vt 0.6818182 0.5
vt 0.6363636 0.4166667
vt 0.5454546 0.4166667
vt 0.5454546 0.4166667
vt 0.5454546 0.5833334
vt 0.6363636 0.5833334
vt 0.6818182 0.5
vt 0.5454546 0.4166667
vt 0.6363636 0.5833334
vt 0.9090909 0.5833334
vt 0.7727273 0.3333333
vt 0.7727273 0.5
vt 0.9090909 0.5833334
vt 0.7272727 0.5833334
vt 0.7727273 0.6666667
vt 0.8636364 0.6666667
vt 0.7727273 0.6666667
vt 0.8181818 0.75
vt 0.8636364 0.6666667
vn 0.9709411 0.2349622 0.04545362
vn 0.9709411 0.2349623 0.04545362
vn 0.9709411 0.2349622 0.04545361
vn 0.5678103 0.05294508 -0.821455
vn 0.5678102 0.05294508 -0.821455
vn 0.5678103 0.05294508 -0.821455
vn 0.7060941 0.4760449 -0.5242256
vn 0.7060941 0.4760449 -0.5242257
vn 0.7060941 0.4760448 -0.5242256
vn 0.7003592 0.4846712 -0.5240142
vn 0.7267461 -0.3297588 -0.6025771
vn 0.7267461 -0.3297589 -0.6025771
vn 0.7267461 -0.3297589 -0.6025771
vn 0.00198049 -0.5970413 0.8022081
vn 0.00198049 -0.5970413 0.8022081
vn 0.00198049 -0.5970413 0.8022081
vn 0.4868357 -0.8329034 0.2631782
vn 0.4868357 -0.8329036 0.2631782
vn 0.4868357 -0.8329034 0.2631782
vn -0.9383564 -0.2960894 -0.1783769
vn -0.9383564 -0.2960894 -0.1783769
vn -0.9383564 -0.2960894 -0.1783769
vn -0.9661595 0.1161031 0.2303388
vn -0.9661595 0.1161031 0.2303388
vn -0.9661595 0.1161031 0.2303388
vn -0.0872016 -0.6164134 0.7825792
vn -0.08720159 -0.6164134 0.7825792
vn -0.08720161 -0.6164134 0.7825794
vn -0.5224033 0.3977073 0.7542703
vn -0.5224033 0.3977073 0.7542703
vn -0.5224033 0.3977073 0.7542703
vn -0.7381527 0.433856 -0.5166233
vn -0.7381527 0.4338559 -0.5166232
vn -0.7381527 0.4338559 -0.5166232
vn -0.6624394 -0.4523681 -0.5971074
vn -0.6624393 -0.452368 -0.5971074
vn -0.6624394 -0.452368 -0.5971074
vn -0.1350728 0.7259298 0.6743748
vn -0.1350728 0.7259299 0.6743746
vn -0.1350728 0.7259298 0.6743747
vn -0.1974012 0.6506468 -0.7332745
vn -0.1974012 0.6506467 -0.7332745
vn -0.1974012 0.6506469 -0.7332744
vn 0.09356388 -0.623363 -0.7763147
vn 0.0935639 -0.623363 -0.7763146
vn 0.0935639 -0.623363 -0.7763147
vn 0.1146322 -0.6100293 -0.7840432
vn 0.1146322 -0.6100293 -0.7840432
vn -0.3396851 -0.9401279 0.02781353
vn -0.3396851 -0.9401279 0.02781353
vn -0.3396851 -0.9401279 0.02781353
vn 0.2793017 -0.9517005 -0.1275019
vn 0.2793016 -0.9517005 -0.1275019
vn 0.2793016 -0.9517005 -0.1275019
vn 0.09468582 -0.9647412 -0.2455789
vn 0.09468582 -0.9647412 -0.2455789
vn 0.09468584 -0.9647412 -0.2455789
vn -0.515048 0.8299222 -0.2143704
vn -0.515048 0.8299222 -0.2143704
vn -0.515048 0.8299222 -0.2143704
vn -0.2048749 0.876316 -0.4360007
vn -0.2048749 0.876316 -0.4360006
vn -0.2048749 0.876316 -0.4360006
vn -0.5156266 0.8308626 0.2092765
vn -0.5156265 0.8308626 0.2092765
vn -0.5156265 0.8308626 0.2092765
vn -0.1373804 0.8721883 0.4694828
vn -0.1373804 0.8721883 0.4694829
vn -0.1373804 0.8721883 0.4694829
vn 0.2769052 -0.9435429 0.1817975
vn 0.2769052 -0.9435429 0.1817975
vn 0.2769052 -0.9435429 0.1817975
vn -0.3370506 -0.9328384 0.1273157
vn -0.3370507 -0.9328384 0.1273157
vn -0.3370506 -0.9328384 0.1273157
vn 0.01055517 -0.9387585 0.3444141
vn 0.01055517 -0.9387585 0.3444141
vn 0.01055517 -0.9387585 0.3444141
vn -0.6517721 -0.7530041 -0.09043224
vn -0.6517721 -0.7530041 -0.09043224
vn -0.6517721 -0.753004 -0.09043223
vn -0.151959 0.6801839 -0.717118
vn -0.151959 0.6801839 -0.717118
vn -0.1519589 0.6801839 -0.7171181
vn -0.515772 0.8294013 -0.2146457
vn -0.515772 0.8294013 -0.2146457
vn -0.515772 0.8294013 -0.2146457
vn -0.5325227 0.6886787 -0.4920785
vn -0.5325226 0.6886788 -0.4920783
vn -0.5325226 0.6886788 -0.4920784
vn -0.3987573 -0.2853656 -0.871527
vn -0.3987572 -0.2853655 -0.871527
vn -0.3987573 -0.2853656 -0.871527
vn -0.3735662 -0.2843096 -0.8829588
vn -0.4872143 0.3334137 0.8071291
vn -0.4872143 0.3334138 0.8071291
vn -0.4872143 0.3334137 0.8071293
vn -0.3960573 0.9035239 0.1636554
vn -0.3960573 0.9035239 0.1636554
vn -0.3960573 0.9035239 0.1636554
vn -0.3821023 0.4796778 0.7898779
vn -0.3821023 0.4796779 0.7898779
vn -0.3821023 0.4796779 0.7898779
vn 0.009535088 -0.5085256 0.8609942
vn 0.009535088 -0.5085256 0.8609942
vn 0.009535088 -0.5085256 0.8609942
vn -0.7648962 -0.5748746 0.290608
vn -0.7648962 -0.5748746 0.290608
vn -0.7648962 -0.5748747 0.290608
vn -0.6972467 -0.5379383 0.4737821
vn -0.6972467 -0.5379382 0.4737821
vn -0.6972467 -0.5379382 0.4737821
vn -0.5166765 0.008016674 0.8561432
vn -0.5166764 0.008016673 0.8561432
vn -0.5166765 0.008016674 0.8561432
vn -0.9364215 0.3021819 -0.1783283
vn -0.9364215 0.3021819 -0.1783283
vn -0.9364215 0.3021819 -0.1783283
vn -0.5804257 0.8048089 -0.1240513
vn -0.5804257 0.8048089 -0.1240513
vn -0.5804258 0.8048089 -0.1240513
vn -0.9346075 0.3306504 -0.131069
vn -0.9346075 0.3306504 -0.131069
vn -0.9346075 0.3306504 -0.131069
vn -0.7930251 -0.557624 0.2452891
vn -0.7930251 -0.5576239 0.2452891
vn -0.7930251 -0.5576239 0.2452891
vn -0.8471391 -0.4916284 0.2016357
vn -0.8471391 -0.4916284 0.2016357
vn -0.8471391 -0.4916284 0.2016357
vn 0.351253 0.4090619 0.8421934
vn 0.351253 0.4090619 0.8421934
vn 0.351253 0.4090619 0.8421934
vn 0.8100228 0.5202655 -0.2705306
vn 0.8100228 0.5202655 -0.2705307
vn 0.8100228 0.5202655 -0.2705306
vn 0.6097901 0.4079263 0.6795235
vn 0.6097901 0.4079263 0.6795235
vn 0.6097901 0.4079263 0.6795234
vn 0.76457 -0.2572554 0.5909759
vn 0.76457 -0.2572554 0.5909759
vn 0.76457 -0.2572554 0.5909759
vn 0.493331 -0.6533024 0.5742998
vn 0.4933311 -0.6533024 0.5742998
vn 0.4933311 -0.6533024 0.5742998
vn 0.3612604 0.435813 0.8243531
vn 0.3612603 0.435813 0.8243532
vn 0.3612604 0.435813 0.8243531
vn 0.5378653 0.2035058 0.8180991
vn 0.5378653 0.2035058 0.8180993
vn 0.5378653 0.2035058 0.8180991
vn 0.5123289 0.2035818 0.8343102
vn 0.4922823 -0.8449206 -0.2092062
vn 0.4922823 -0.8449206 -0.2092062
vn 0.4922823 -0.8449206 -0.2092062
vn 0.5044109 -0.6377642 -0.5820882
vn 0.5044109 -0.6377641 -0.5820882
vn 0.5044109 -0.6377642 -0.5820882
vn 0.6176037 0.7793162 0.105981
vn 0.6176036 0.7793162 0.105981
vn 0.6176037 0.7793162 0.105981
vn 0.1085356 0.4760677 -0.8726853
vn 0.1085356 0.4760677 -0.8726853
vn 0.1085356 0.4760676 -0.8726853
vn 0.01791274 0.2308298 -0.9728292
vn 0.01791274 0.2308298 -0.9728292
vn 0.01791274 0.2308298 -0.9728292
vn -0.07071111 -0.09679719 -0.9927891
vn -0.0707111 -0.09679718 -0.9927891
vn -0.07071111 -0.0967972 -0.9927891
vn 0.01715393 0.04559322 -0.9988128
vn 0.01715393 0.04559321 -0.9988128
vn 0.01715393 0.04559321 -0.9988128
vn 0.6400946 0.6886066 0.3407343
vn 0.6400946 0.6886066 0.3407344
vn 0.6400946 0.6886066 0.3407344
vn 0.9964727 -0.06975781 0.04664821
vn 0.9964727 -0.06975781 0.04664821
vn 0.9964727 -0.06975781 0.0466482
vn 0.9988709 -0.03876835 0.02745816
vn 0.6469328 -0.7619554 0.03003046
vn 0.6469329 -0.7619554 0.03003046
vn 0.6469329 -0.7619554 0.03003046
g rockmanChunk9_0
f 3/3/3 2/2/2 1/1/1
f 6/6/6 5/5/5 4/4/4
f 9/9/9 8/8/8 7/7/7
f 9/9/9 10/10/10 8/8/8
f 13/13/13 12/12/12 11/11/11
f 16/16/16 15/15/15 14/14/14
f 19/19/19 18/18/18 17/17/17
f 22/22/22 21/21/21 20/20/20
f 25/25/25 24/24/24 23/23/23
f 28/28/28 27/27/27 26/26/26
f 31/31/31 30/30/30 29/29/29
f 34/34/34 33/33/33 32/32/32
f 37/37/37 36/36/36 35/35/35
f 40/40/40 39/39/39 38/38/38
f 43/43/43 42/42/42 41/41/41
f 46/46/46 45/45/45 44/44/44
f 48/48/48 44/44/44 47/47/47
f 51/51/51 50/50/50 49/49/49
f 54/54/54 53/53/53 52/52/52
f 57/57/57 56/56/56 55/55/55
f 60/60/60 59/59/59 58/58/58
f 63/63/63 62/62/62 61/61/61
f 66/66/66 65/65/65 64/64/64
f 69/69/69 68/68/68 67/67/67
f 72/72/72 71/71/71 70/70/70
f 75/75/75 74/74/74 73/73/73
f 78/78/78 77/77/77 76/76/76
f 81/81/81 80/80/80 79/79/79
f 84/84/84 83/83/83 82/82/82
f 87/87/87 86/86/86 85/85/85
f 90/90/90 89/89/89 88/88/88
f 93/93/93 92/92/92 91/91/91
f 91/91/91 94/94/94 93/93/93
f 97/97/97 96/96/96 95/95/95
f 100/100/100 99/99/99 98/98/98
f 103/103/103 102/102/102 101/101/101
f 106/106/106 105/105/105 104/104/104
f 109/109/109 108/108/108 107/107/107
f 112/112/112 111/111/111 110/110/110
f 115/115/115 114/114/114 113/113/113
f 118/118/118 117/117/117 116/116/116
f 121/121/121 120/120/120 119/119/119
f 124/124/124 123/123/123 122/122/122
f 127/127/127 126/126/126 125/125/125
f 130/130/130 129/129/129 128/128/128
f 133/133/133 132/132/132 131/131/131
f 136/136/136 135/135/135 134/134/134
f 139/139/139 138/138/138 137/137/137
f 142/142/142 141/141/141 140/140/140
f 145/145/145 144/144/144 143/143/143
f 148/148/148 147/147/147 146/146/146
f 151/151/151 150/150/150 149/149/149
f 151/151/151 149/149/149 152/152/152
f 155/155/155 154/154/154 153/153/153
f 158/158/158 157/157/157 156/156/156
f 161/161/161 160/160/160 159/159/159
f 164/164/164 163/163/163 162/162/162
f 167/167/167 166/166/166 165/165/165
f 170/170/170 169/169/169 168/168/168
f 173/173/173 172/172/172 171/171/171
f 176/176/176 175/175/175 174/174/174
f 179/179/179 178/178/178 177/177/177
f 180/180/180 179/179/179 177/177/177
f 183/183/183 182/182/182 181/181/181
