g rockmanChunk11
v 0.1356475 0.01454267 0.09735949
v 0.162283 0.01447958 -0.006969395
v 0.1015413 -0.07830591 0.0407756
v 0.1041865 0.01454161 -0.08567297
v 0.162283 0.01447958 -0.006969395
v 0.09774116 0.1056637 -0.05259853
v 0.1041865 0.01454161 -0.08567297
v 0.07802238 0.07951155 -0.1669482
v 0.0650306 -0.0445492 -0.139767
v 0.1041865 0.01454161 -0.08567297
v 0.09774116 0.1056637 -0.05259853
v 0.07802238 0.07951155 -0.1669482
v 0.1041865 0.01454161 -0.08567297
v 0.0650306 -0.0445492 -0.139767
v 0.1126236 -0.08333742 -0.06002932
v -0.004292822 -0.09227648 0.1506492
v -0.004204855 0.01460035 0.1762411
v 0.06134511 -0.04288172 0.118332
v 0.08091319 -0.1634744 -0.006860246
v 0.04363145 -0.1508294 0.08630582
v 0.1015413 -0.07830591 0.0407756
v -0.1310506 0.1168873 -0.06494302
v -0.162283 0.01460211 -0.006756268
v -0.1219425 -0.08366838 -0.06039425
v -0.1222095 0.01454107 0.07958005
v -0.162283 0.01460211 -0.006756268
v -0.1243249 0.1138357 0.04786507
v -0.1222095 0.01454107 0.07958005
v -0.004292822 -0.09227648 0.1506492
v -0.1174436 -0.08162744 0.04442834
v -0.004292211 0.1097212 0.1173049
v -0.0729506 0.07333143 0.1246546
v -0.05660006 0.1886958 0.09565539
v -0.1310506 0.1168873 -0.06494302
v -0.1219425 -0.08366838 -0.06039425
v -0.05828851 -0.1629946 -0.1129771
v -0.004291258 0.125506 -0.1762411
v -0.004292211 0.1097212 0.1173049
v -0.05660006 0.1886958 0.09565539
v 0.03512801 0.1628808 0.06816787
v -0.004291258 0.125506 -0.1762411
v 0.07967194 0.191049 -0.006860246
v -0.05359419 0.1826748 -0.1029647
v -0.004291296 -0.09575143 -0.1743261
v -0.05828851 -0.1629946 -0.1129771
v 0.0401781 -0.1439124 -0.09266006
v -0.05828851 -0.1629946 -0.1129771
v -0.0938718 -0.1688002 -0.006860218
v -0.004246054 -0.2029707 -0.006861114
v -0.004246054 -0.2029707 -0.006861114
v 0.08091319 -0.1634744 -0.006860246
v 0.0401781 -0.1439124 -0.09266006
v -0.05828851 -0.1629946 -0.1129771
v -0.004246054 -0.2029707 -0.006861114
v 0.0401781 -0.1439124 -0.09266006
v -0.0042525 0.2029707 -0.006860923
v -0.0911763 0.1946065 -0.006860227
v -0.05359419 0.1826748 -0.1029647
v 0.07967194 0.191049 -0.006860246
v -0.0042525 0.2029707 -0.006860923
v -0.05359419 0.1826748 -0.1029647
v -0.05660006 0.1886958 0.09565539
v -0.0911763 0.1946065 -0.006860227
v -0.0042525 0.2029707 -0.006860923
v -0.0042525 0.2029707 -0.006860923
v 0.07967194 0.191049 -0.006860246
v 0.03512801 0.1628808 0.06816787
v -0.05660006 0.1886958 0.09565539
v -0.0042525 0.2029707 -0.006860923
v 0.03512801 0.1628808 0.06816787
v 0.04363145 -0.1508294 0.08630582
v 0.08091319 -0.1634744 -0.006860246
v -0.004246054 -0.2029707 -0.006861114
v -0.004246054 -0.2029707 -0.006861114
v -0.0938718 -0.1688002 -0.006860218
v -0.004292822 -0.09227648 0.1506492
v 0.04363145 -0.1508294 0.08630582
v -0.004246054 -0.2029707 -0.006861114
v -0.004292822 -0.09227648 0.1506492
v -0.1219425 -0.08366838 -0.06039425
v -0.0938718 -0.1688002 -0.006860218
v -0.05828851 -0.1629946 -0.1129771
v -0.05359419 0.1826748 -0.1029647
v -0.0911763 0.1946065 -0.006860227
v -0.1310506 0.1168873 -0.06494302
v -0.004291258 0.125506 -0.1762411
v -0.05359419 0.1826748 -0.1029647
v -0.1310506 0.1168873 -0.06494302
v -0.004291258 0.125506 -0.1762411
v -0.05828851 -0.1629946 -0.1129771
v -0.004291296 -0.09575143 -0.1743261
v -0.0729506 0.07333143 0.1246546
v -0.1222095 0.01454107 0.07958005
v -0.1243249 0.1138357 0.04786507
v -0.1243249 0.1138357 0.04786507
v -0.0911763 0.1946065 -0.006860227
v -0.05660006 0.1886958 0.09565539
v -0.0729506 0.07333143 0.1246546
v -0.1243249 0.1138357 0.04786507
v -0.05660006 0.1886958 0.09565539
v -0.004292822 -0.09227648 0.1506492
v -0.0938718 -0.1688002 -0.006860218
v -0.1174436 -0.08162744 0.04442834
v -0.004292822 -0.09227648 0.1506492
v -0.1222095 0.01454107 0.07958005
v -0.0729506 0.07333143 0.1246546
v -0.0729506 0.07333143 0.1246546
v -0.004292211 0.1097212 0.1173049
v -0.004204855 0.01460035 0.1762411
v -0.004292822 -0.09227648 0.1506492
v -0.0729506 0.07333143 0.1246546
v -0.004204855 0.01460035 0.1762411
v -0.1310506 0.1168873 -0.06494302
v -0.0911763 0.1946065 -0.006860227
v -0.1243249 0.1138357 0.04786507
v -0.162283 0.01460211 -0.006756268
v -0.1310506 0.1168873 -0.06494302
v -0.1243249 0.1138357 0.04786507
v -0.162283 0.01460211 -0.006756268
v -0.1222095 0.01454107 0.07958005
v -0.1174436 -0.08162744 0.04442834
v -0.1174436 -0.08162744 0.04442834
v -0.0938718 -0.1688002 -0.006860218
v -0.1219425 -0.08366838 -0.06039425
v -0.162283 0.01460211 -0.006756268
v -0.1174436 -0.08162744 0.04442834
v -0.1219425 -0.08366838 -0.06039425
v 0.0668221 0.07444379 0.1297873
v -0.004292211 0.1097212 0.1173049
v 0.03512801 0.1628808 0.06816787
v 0.03512801 0.1628808 0.06816787
v 0.07967194 0.191049 -0.006860246
v 0.1356475 0.01454267 0.09735949
v 0.0668221 0.07444379 0.1297873
v 0.03512801 0.1628808 0.06816787
v 0.1356475 0.01454267 0.09735949
v 0.04363145 -0.1508294 0.08630582
v -0.004292822 -0.09227648 0.1506492
v 0.06134511 -0.04288172 0.118332
v 0.06134511 -0.04288172 0.118332
v 0.1356475 0.01454267 0.09735949
v 0.1015413 -0.07830591 0.0407756
v 0.04363145 -0.1508294 0.08630582
v 0.06134511 -0.04288172 0.118332
v 0.1015413 -0.07830591 0.0407756
v -0.004204855 0.01460035 0.1762411
v -0.004292211 0.1097212 0.1173049
v 0.0668221 0.07444379 0.1297873
v 0.0668221 0.07444379 0.1297873
v 0.1356475 0.01454267 0.09735949
v 0.06134511 -0.04288172 0.118332
v -0.004204855 0.01460035 0.1762411
v 0.0668221 0.07444379 0.1297873
v 0.06134511 -0.04288172 0.118332
v 0.0650306 -0.0445492 -0.139767
v -0.004291296 -0.09575143 -0.1743261
v 0.0401781 -0.1439124 -0.09266006
v 0.1126236 -0.08333742 -0.06002932
v 0.0401781 -0.1439124 -0.09266006
v 0.08091319 -0.1634744 -0.006860246
v 0.1126236 -0.08333742 -0.06002932
v 0.07967194 0.191049 -0.006860246
v -0.004291258 0.125506 -0.1762411
v 0.07802238 0.07951155 -0.1669482
v 0.09774116 0.1056637 -0.05259853
v 0.07967194 0.191049 -0.006860246
v 0.07802238 0.07951155 -0.1669482
v 0.07802238 0.07951155 -0.1669482
v -0.004291258 0.125506 -0.1762411
v -0.004291296 -0.09575143 -0.1743261
v 0.07802238 0.07951155 -0.1669482
v -0.004291296 -0.09575143 -0.1743261
v 0.0650306 -0.0445492 -0.139767
v 0.1356475 0.01454267 0.09735949
v 0.07967194 0.191049 -0.006860246
v 0.09774116 0.1056637 -0.05259853
v 0.162283 0.01447958 -0.006969395
v 0.1356475 0.01454267 0.09735949
v 0.09774116 0.1056637 -0.05259853
v 0.162283 0.01447958 -0.006969395
v 0.1041865 0.01454161 -0.08567297
v 0.1126236 -0.08333742 -0.06002932
v 0.1126236 -0.08333742 -0.06002932
v 0.08091319 -0.1634744 -0.006860246
v 0.1015413 -0.07830591 0.0407756
v 0.162283 0.01447958 -0.006969395
v 0.1126236 -0.08333742 -0.06002932
v 0.1015413 -0.07830591 0.0407756
vt 0.9090909 0.5833334
vt 0.8181819 0.5833334
vt 0.8636364 0.6666667
vt 0.7272727 0.5833334
vt 0.8181819 0.5833334
vt 0.7727273 0.5
vt 0.7272727 0.5833334
vt 0.6818182 0.5
vt 0.6363636 0.5833334
vt 0.7272727 0.5833334
vt 0.7727273 0.5
vt 0.6818182 0.5
vt 0.7272727 0.5833334
vt 0.6363636 0.5833334
vt 0.6818182 0.6666667
vt 0.1818182 0.5833334
vt 0.1363636 0.5
vt 0.09090909 0.5833334
vt 0.09090909 0.75
vt 0.1363636 0.6666667
vt 0.04545455 0.6666667
vt 0.5 0.3333333
vt 0.3636364 0.4166667
vt 0.4090909 0.5
vt 0.2727273 0.4166667
vt 0.3636364 0.4166667
vt 0.3181818 0.3333333
vt 0.2727273 0.4166667
vt 0.1818182 0.5833334
vt 0.3181818 0.5
vt 0.09090909 0.4166667
vt 0.1818182 0.4166667
vt 0.1363636 0.3333333
vt 0.5 0.3333333
vt 0.4090909 0.5
vt 0.4545455 0.5833334
vt 0.6363636 0.4166667
vt 1 0.4166667
vt 0.9545455 0.3333333
vt 0.9090909 0.4166667
vt 0.6363636 0.4166667
vt 0.8181818 0.4166667
vt 0.6818182 0.3333333
vt 0.5454546 0.5833334
vt 0.4545455 0.5833334
vt 0.5 0.6666667
vt 0.4545455 0.5833334
vt 0.3636364 0.5833334
vt 0.4090909 0.6666667
vt 0.4090909 0.6666667
vt 0.4545455 0.75
vt 0.5 0.6666667
vt 0.4545455 0.5833334
vt 0.4090909 0.6666667
vt 0.5 0.6666667
vt 0.7727273 0.3333333
vt 0.7272727 0.25
vt 0.6818182 0.3333333
vt 0.8181818 0.4166667
vt 0.7727273 0.3333333
vt 0.6818182 0.3333333
vt 0.9545455 0.3333333
vt 0.9090909 0.25
vt 0.8636364 0.3333333
vt 0.8636364 0.3333333
vt 0.8181818 0.4166667
vt 0.9090909 0.4166667
vt 0.9545455 0.3333333
vt 0.8636364 0.3333333
vt 0.9090909 0.4166667
vt 0.2272727 0.6666667
vt 0.2727273 0.75
vt 0.3181818 0.6666667
vt 0.3181818 0.6666667
vt 0.3636364 0.5833334
vt 0.1818182 0.5833334
vt 0.2272727 0.6666667
vt 0.3181818 0.6666667
vt 0.1818182 0.5833334
vt 0.4090909 0.5
vt 0.3636364 0.5833334
vt 0.4545455 0.5833334
vt 0.5909091 0.3333333
vt 0.5454546 0.25
vt 0.5 0.3333333
vt 0.6363636 0.4166667
vt 0.5909091 0.3333333
vt 0.5 0.3333333
vt 0.6363636 0.4166667
vt 0.4545455 0.5833334
vt 0.5454546 0.5833334
vt 0.1818182 0.4166667
vt 0.2727273 0.4166667
vt 0.2272727 0.3333333
vt 0.2272727 0.3333333
vt 0.1818182 0.25
vt 0.1363636 0.3333333
vt 0.1818182 0.4166667
vt 0.2272727 0.3333333
vt 0.1363636 0.3333333
vt 0.1818182 0.5833334
vt 0.3636364 0.5833334
vt 0.3181818 0.5
vt 0.1818182 0.5833334
vt 0.2727273 0.4166667
vt 0.1818182 0.4166667
vt 0.1818182 0.4166667
vt 0.09090909 0.4166667
vt 0.1363636 0.5
vt 0.1818182 0.5833334
vt 0.1818182 0.4166667
vt 0.1363636 0.5
vt 0.4090909 0.3333333
vt 0.3636364 0.25
vt 0.3181818 0.3333333
vt 0.3636364 0.4166667
vt 0.4090909 0.3333333
vt 0.3181818 0.3333333
vt 0.3636364 0.4166667
vt 0.2727273 0.4166667
vt 0.3181818 0.5
vt 0.3181818 0.5
vt 0.3636364 0.5833334
vt 0.4090909 0.5
vt 0.3636364 0.4166667
vt 0.3181818 0.5
vt 0.4090909 0.5
vt 0.9545455 0.5
vt 1 0.4166667
vt 0.9090909 0.4166667
vt 0.9090909 0.4166667
vt 0.8181818 0.4166667
vt 0.9090909 0.5833334
vt 0.9545455 0.5
vt 0.9090909 0.4166667
vt 0.9090909 0.5833334
vt 0.1363636 0.6666667
vt 0.1818182 0.5833334
vt 0.09090909 0.5833334
vt 0.09090909 0.5833334
vt 0 0.5833334
vt 0.04545455 0.6666667
vt 0.1363636 0.6666667
vt 0.09090909 0.5833334
vt 0.04545455 0.6666667
vt 0.1363636 0.5
vt 0.09090909 0.4166667
vt 0.04545455 0.5
vt 0.04545455 0.5
vt 0 0.5833334
vt 0.09090909 0.5833334
vt 0.1363636 0.5
vt 0.04545455 0.5
vt 0.09090909 0.5833334
vt 0.6363636 0.5833334
vt 0.5454546 0.5833334
vt 0.5909091 0.6666667
vt 0.6818182 0.6666667
vt 0.5909091 0.6666667
vt 0.6363636 0.75
vt 0.6818182 0.6666667
vt 0.8181818 0.4166667
vt 0.6363636 0.4166667
vt 0.6818182 0.5
vt 0.7727273 0.5
vt 0.8181818 0.4166667
vt 0.6818182 0.5
vt 0.6818182 0.5
vt 0.6363636 0.4166667
vt 0.5454546 0.5833334
vt 0.6818182 0.5
vt 0.5454546 0.5833334
vt 0.6363636 0.5833334
vt 0.9090909 0.5833334
vt 0.8181818 0.4166667
vt 0.7727273 0.5
vt 0.8181819 0.5833334
vt 0.9090909 0.5833334
vt 0.7727273 0.5
vt 0.8181819 0.5833334
vt 0.7272727 0.5833334
vt 0.7727273 0.6666667
vt 0.7727273 0.6666667
vt 0.8181818 0.75
vt 0.8636364 0.6666667
vt 0.8181819 0.5833334
vt 0.7727273 0.6666667
vt 0.8636364 0.6666667
vn 0.8641952 -0.4520701 0.2209058
vn 0.8641951 -0.4520701 0.2209057
vn 0.8641952 -0.4520702 0.2209057
vn 0.7763548 0.2628491 -0.5728732
vn 0.7763548 0.2628491 -0.5728731
vn 0.7763548 0.2628491 -0.5728731
vn 0.8814874 -0.1872836 -0.4334799
vn 0.8814874 -0.1872836 -0.4334798
vn 0.8814874 -0.1872836 -0.4334798
vn 0.9697092 0.14099 -0.1994644
vn 0.9697092 0.14099 -0.1994644
vn 0.9697092 0.14099 -0.1994644
vn 0.8418665 -0.06770913 -0.5354216
vn 0.8418665 -0.06770912 -0.5354216
vn 0.8418665 -0.06770913 -0.5354216
vn 0.5475655 -0.1952824 0.8136564
vn 0.5475656 -0.1952824 0.8136564
vn 0.5475655 -0.1952824 0.8136564
vn 0.8236889 -0.4153897 0.3859897
vn 0.8236889 -0.4153898 0.3859897
vn 0.8236889 -0.4153897 0.3859897
vn -0.8403605 -0.05040466 -0.5396791
vn -0.8403606 -0.05040467 -0.5396791
vn -0.8403605 -0.05040467 -0.5396791
vn -0.9010662 0.1144149 0.4183168
vn -0.9010662 0.1144149 0.4183169
vn -0.9010662 0.1144149 0.4183169
vn -0.6703439 -0.2838306 0.6856232
vn -0.6703439 -0.2838307 0.6856233
vn -0.6703439 -0.2838306 0.6856232
vn -0.0274173 0.2473485 0.9685386
vn -0.02741729 0.2473485 0.9685386
vn -0.02741729 0.2473485 0.9685386
vn -0.6705018 -0.04724324 -0.7404023
vn -0.6705018 -0.04724324 -0.7404023
vn -0.6705018 -0.04724324 -0.7404023
vn -0.6576047 -0.04186582 -0.752199
vn 0.3717729 0.4662904 0.8027192
vn 0.3717729 0.4662904 0.8027192
vn 0.3717729 0.4662903 0.8027192
vn 0.2824012 0.8392124 -0.4647279
vn 0.2824012 0.8392124 -0.464728
vn 0.2824012 0.8392124 -0.464728
vn 0.269448 -0.7581394 -0.5938203
vn 0.269448 -0.7581394 -0.5938202
vn 0.269448 -0.7581394 -0.5938203
vn -0.3511738 -0.921088 -0.1681484
vn -0.3511739 -0.921088 -0.1681484
vn -0.3511738 -0.921088 -0.1681484
vn 0.3897614 -0.84037 -0.3766487
vn 0.3897614 -0.84037 -0.3766487
vn 0.3897615 -0.84037 -0.3766487
vn 0.2588146 -0.8530293 -0.4531623
vn 0.2588146 -0.8530293 -0.4531622
vn 0.2588146 -0.8530293 -0.4531623
vn -0.09456483 0.9827404 -0.1589932
vn -0.0945648 0.9827404 -0.1589932
vn -0.0945648 0.9827404 -0.1589932
vn 0.1353885 0.9530714 -0.2707858
vn 0.1353885 0.9530714 -0.2707859
vn 0.1353885 0.9530714 -0.2707858
vn -0.09539813 0.991422 0.0893393
vn -0.09539813 0.991422 0.08933929
vn -0.09539814 0.991422 0.0893393
vn 0.1279998 0.9010969 0.4142952
vn 0.1279997 0.9010969 0.4142952
vn 0.1279998 0.9010969 0.4142952
vn 0.3402826 0.891872 0.2979464
vn 0.3402826 0.891872 0.2979463
vn 0.3402826 0.891872 0.2979463
vn 0.4039304 -0.8709337 0.2798477
vn 0.4039304 -0.8709337 0.2798477
vn 0.4039304 -0.8709337 0.2798478
vn -0.2977902 -0.7810869 0.5488392
vn -0.2977902 -0.7810869 0.5488392
vn -0.2977901 -0.7810868 0.5488392
vn -0.2220532 -0.7977694 0.5605857
vn -0.2220533 -0.7977694 0.5605857
vn -0.2220532 -0.7977694 0.5605857
vn -0.8312124 -0.4653588 -0.3041827
vn -0.8312124 -0.4653588 -0.3041827
vn -0.8312124 -0.4653588 -0.3041827
vn -0.7002735 0.621612 -0.3510207
vn -0.7002735 0.621612 -0.3510207
vn -0.7002735 0.6216121 -0.3510207
vn -0.6326573 0.3438254 -0.6939227
vn -0.6326573 0.3438254 -0.6939227
vn -0.6326573 0.3438253 -0.6939227
vn -0.7475066 -0.005748676 -0.6642296
vn -0.7475066 -0.005748677 -0.6642296
vn -0.7475066 -0.005748676 -0.6642296
vn -0.7716746 0.1785375 0.6104445
vn -0.7716746 0.1785375 0.6104446
vn -0.7716746 0.1785375 0.6104445
vn -0.7947603 0.5284319 0.2985227
vn -0.7947603 0.5284319 0.2985227
vn -0.7947603 0.5284318 0.2985227
vn -0.7326618 0.2617614 0.6282417
vn -0.7326618 0.2617614 0.6282417
vn -0.7326618 0.2617614 0.6282417
vn -0.6109945 -0.5176184 0.5989631
vn -0.6109945 -0.5176184 0.5989631
vn -0.6109946 -0.5176184 0.5989632
vn -0.5893245 -0.1188919 0.7991003
vn -0.5893245 -0.1188919 0.7991003
vn -0.5893245 -0.1188919 0.7991003
vn -0.1848392 0.517491 0.8354864
vn -0.1848392 0.517491 0.8354864
vn -0.1848392 0.517491 0.8354864
vn -0.6803138 -0.1701452 0.7128982
vn -0.6803138 -0.1701452 0.7128981
vn -0.6803138 -0.1701452 0.7128981
vn -0.9068199 0.4164247 0.06533073
vn -0.9068199 0.4164248 0.06533073
vn -0.9068199 0.4164247 0.06533073
vn -0.9434472 0.3250796 0.06504311
vn -0.9434472 0.3250796 0.06504311
vn -0.9434472 0.3250796 0.0650431
vn -0.8896962 -0.1949858 0.4128208
vn -0.8896962 -0.1949858 0.4128208
vn -0.8896962 -0.1949858 0.4128208
vn -0.9570252 -0.2862283 0.04664766
vn -0.9570253 -0.2862283 0.04664766
vn -0.9570252 -0.2862283 0.04664765
vn -0.9147744 -0.4012131 0.04707342
vn -0.9147744 -0.4012131 0.04707342
vn -0.9147744 -0.401213 0.04707342
vn 0.1617014 0.6025102 0.7815588
vn 0.1617014 0.6025102 0.7815588
vn 0.1617014 0.6025102 0.7815588
vn 0.6232334 0.5346415 0.5707352
vn 0.6232334 0.5346414 0.5707352
vn 0.6232334 0.5346414 0.5707352
vn 0.6979129 0.5606325 0.4456554
vn 0.6979129 0.5606325 0.4456554
vn 0.6979129 0.5606325 0.4456554
vn 0.5999277 -0.3164501 0.7348104
vn 0.5999276 -0.3164501 0.7348104
vn 0.5999277 -0.3164501 0.7348104
vn 0.5976071 -0.5657567 0.5681419
vn 0.597607 -0.5657567 0.5681419
vn 0.5976071 -0.5657567 0.5681419
vn 0.7890666 -0.2901289 0.5414786
vn 0.7890666 -0.2901289 0.5414787
vn 0.7890666 -0.2901289 0.5414786
vn 0.1114126 0.5234843 0.8447197
vn 0.1114126 0.5234843 0.8447197
vn 0.1114126 0.5234843 0.8447197
vn 0.3459172 -0.107158 0.9321257
vn 0.3459173 -0.107158 0.9321257
vn 0.3459173 -0.107158 0.9321257
vn 0.6049363 -0.1053027 0.7892804
vn 0.6049363 -0.1053027 0.7892803
vn 0.6049363 -0.1053027 0.7892804
vn 0.6427562 -0.4534807 -0.61743
vn 0.6427562 -0.4534807 -0.61743
vn 0.6427562 -0.4534807 -0.61743
vn 0.6520113 -0.4517642 -0.6089257
vn 0.6828958 -0.5718363 -0.4545949
vn 0.6828959 -0.5718363 -0.4545949
vn 0.6828958 -0.5718363 -0.4545948
vn 0.4627472 0.7251148 -0.5099742
vn 0.4627472 0.7251148 -0.5099742
vn 0.4627472 0.7251146 -0.5099742
vn 0.9192687 0.3184647 -0.2313553
vn 0.9192687 0.3184648 -0.2313553
vn 0.9192687 0.3184648 -0.2313553
vn 0.1074307 -0.008604432 -0.9941754
vn 0.1074307 -0.008604432 -0.9941754
vn 0.1074307 -0.008604432 -0.9941754
vn 0.5660524 -0.2325577 -0.7908866
vn 0.5660524 -0.2325577 -0.7908866
vn 0.5660524 -0.2325577 -0.7908866
vn 0.9634456 0.2522382 -0.09026831
vn 0.9634456 0.2522382 -0.09026833
vn 0.9634456 0.2522382 -0.09026832
vn 0.753204 0.6291682 0.1919145
vn 0.753204 0.6291682 0.1919145
vn 0.753204 0.6291682 0.1919145
vn 0.8015369 -0.08593913 -0.5917372
vn 0.801537 -0.08593912 -0.5917372
vn 0.8015369 -0.08593913 -0.5917372
vn 0.947724 -0.2960832 0.1189694
vn 0.947724 -0.2960832 0.1189694
vn 0.947724 -0.2960832 0.1189694
vn 0.8577018 -0.5001253 0.1192575
vn 0.8577018 -0.5001253 0.1192575
vn 0.8577018 -0.5001253 0.1192575
g rockmanChunk11_0
f 3/3/3 2/2/2 1/1/1
f 6/6/6 5/5/5 4/4/4
f 9/9/9 8/8/8 7/7/7
f 12/12/12 11/11/11 10/10/10
f 15/15/15 14/14/14 13/13/13
f 18/18/18 17/17/17 16/16/16
f 21/21/21 20/20/20 19/19/19
f 24/24/24 23/23/23 22/22/22
f 27/27/27 26/26/26 25/25/25
f 30/30/30 29/29/29 28/28/28
f 33/33/33 32/32/32 31/31/31
f 36/36/36 35/35/35 34/34/34
f 36/36/36 34/34/34 37/37/37
f 40/40/40 39/39/39 38/38/38
f 43/43/43 42/42/42 41/41/41
f 46/46/46 45/45/45 44/44/44
f 49/49/49 48/48/48 47/47/47
f 52/52/52 51/51/51 50/50/50
f 55/55/55 54/54/54 53/53/53
f 58/58/58 57/57/57 56/56/56
f 61/61/61 60/60/60 59/59/59
f 64/64/64 63/63/63 62/62/62
f 67/67/67 66/66/66 65/65/65
f 70/70/70 69/69/69 68/68/68
f 73/73/73 72/72/72 71/71/71
f 76/76/76 75/75/75 74/74/74
f 79/79/79 78/78/78 77/77/77
f 82/82/82 81/81/81 80/80/80
f 85/85/85 84/84/84 83/83/83
f 88/88/88 87/87/87 86/86/86
f 91/91/91 90/90/90 89/89/89
f 94/94/94 93/93/93 92/92/92
f 97/97/97 96/96/96 95/95/95
f 100/100/100 99/99/99 98/98/98
f 103/103/103 102/102/102 101/101/101
f 106/106/106 105/105/105 104/104/104
f 109/109/109 108/108/108 107/107/107
f 112/112/112 111/111/111 110/110/110
f 115/115/115 114/114/114 113/113/113
f 118/118/118 117/117/117 116/116/116
f 121/121/121 120/120/120 119/119/119
f 124/124/124 123/123/123 122/122/122
f 127/127/127 126/126/126 125/125/125
f 130/130/130 129/129/129 128/128/128
f 133/133/133 132/132/132 131/131/131
f 136/136/136 135/135/135 134/134/134
f 139/139/139 138/138/138 137/137/137
f 142/142/142 141/141/141 140/140/140
f 145/145/145 144/144/144 143/143/143
f 148/148/148 147/147/147 146/146/146
f 151/151/151 150/150/150 149/149/149
f 154/154/154 153/153/153 152/152/152
f 157/157/157 156/156/156 155/155/155
f 158/158/158 157/157/157 155/155/155
f 161/161/161 160/160/160 159/159/159
f 164/164/164 163/163/163 162/162/162
f 167/167/167 166/166/166 165/165/165
f 170/170/170 169/169/169 168/168/168
f 173/173/173 172/172/172 171/171/171
f 176/176/176 175/175/175 174/174/174
f 179/179/179 178/178/178 177/177/177
f 182/182/182 181/181/181 180/180/180
f 185/185/185 184/184/184 183/183/183
f 188/188/188 187/187/187 186/186/186
