g saltyJawbreaker
v 0.4655254 0.003963113 0.3114516
v 0.5246725 -0.00863471 -0.04679072
v 0.4312083 -0.2719728 0.1138551
v 0.4174559 -0.004414949 -0.3435757
v 0.5246725 -0.00863471 -0.04679072
v 0.4296136 0.2344525 -0.195614
v 0.4174559 -0.004414949 -0.3435757
v 0.2749122 -0.2378026 -0.4191305
v 0.4260477 -0.290789 -0.2035261
v 0.1409886 -0.3797897 0.277293
v 0.03435175 0.04395764 0.5138638
v 0.4655254 0.003963113 0.3114516
v 0.2760823 -0.4637179 -0.01723788
v 0.1409886 -0.3797897 0.277293
v 0.4312083 -0.2719728 0.1138551
v 0.4655254 0.003963113 0.3114516
v 0.2367724 0.2382059 0.4285211
v 0.3634498 0.3873984 0.07467927
v -0.4397952 0.2018869 -0.1935943
v -0.5246729 -0.03778951 -0.003461113
v -0.4111586 -0.3176231 -0.1767242
v 0.1409886 -0.3797897 0.277293
v -0.2309277 -0.1450427 0.4092327
v 0.03435175 0.04395764 0.5138638
v -0.4166614 0.1957248 0.1835077
v -0.2309277 -0.1450427 0.4092327
v -0.4056098 -0.2552965 0.1530885
v -0.050706 0.3370307 0.4452732
v -0.2854568 0.1869228 0.3965278
v -0.1899303 0.4439096 0.2072796
v 0.1143251 0.3770204 -0.3341046
v -0.2244373 0.1779987 -0.4480774
v 0.0491538 -0.02264221 -0.5138638
v -0.4397952 0.2018869 -0.1935943
v -0.4111586 -0.3176231 -0.1767242
v -0.2471044 -0.1525199 -0.4561338
v -0.050706 0.3370307 0.4452732
v -0.1899303 0.4439096 0.2072796
v 0.1192313 0.4690747 0.3009337
v 0.01102568 -0.3160659 -0.5012442
v -0.1544232 -0.4561444 -0.3207001
v 0.1615252 -0.4624396 -0.299951
v -0.05661052 -0.5297402 -0.01086565
v 0.2760823 -0.4637179 -0.01723788
v 0.1615252 -0.4624396 -0.299951
v -0.1544232 -0.4561444 -0.3207001
v -0.05661052 -0.5297402 -0.01086565
v 0.1615252 -0.4624396 -0.299951
v 0.1143251 0.3770204 -0.3341046
v 0.3634498 0.3873984 0.07467927
v -0.007534761 0.52974 -0.01733672
v -0.007534761 0.52974 -0.01733672
v -0.3077147 0.4297625 -5.054474E-05
v -0.1710695 0.4349722 -0.2471269
v 0.1143251 0.3770204 -0.3341046
v -0.007534761 0.52974 -0.01733672
v -0.1710695 0.4349722 -0.2471269
v -0.1899303 0.4439096 0.2072796
v -0.3077147 0.4297625 -5.054474E-05
v -0.007534761 0.52974 -0.01733672
v -0.007534761 0.52974 -0.01733672
v 0.3634498 0.3873984 0.07467927
v 0.1192313 0.4690747 0.3009337
v -0.1899303 0.4439096 0.2072796
v -0.007534761 0.52974 -0.01733672
v 0.1192313 0.4690747 0.3009337
v 0.1409886 -0.3797897 0.277293
v 0.2760823 -0.4637179 -0.01723788
v -0.05661052 -0.5297402 -0.01086565
v 0.1409886 -0.3797897 0.277293
v -0.05661052 -0.5297402 -0.01086565
v -0.1815581 -0.4076124 0.2670943
v -0.4111586 -0.3176231 -0.1767242
v -0.05661052 -0.5297402 -0.01086565
v -0.1544232 -0.4561444 -0.3207001
v -0.1544232 -0.4561444 -0.3207001
v 0.01102568 -0.3160659 -0.5012442
v -0.2471044 -0.1525199 -0.4561338
v -0.4111586 -0.3176231 -0.1767242
v -0.1544232 -0.4561444 -0.3207001
v -0.2471044 -0.1525199 -0.4561338
v -0.2244373 0.1779987 -0.4480774
v 0.1143251 0.3770204 -0.3341046
v -0.1710695 0.4349722 -0.2471269
v -0.1710695 0.4349722 -0.2471269
v -0.3077147 0.4297625 -5.054474E-05
v -0.4397952 0.2018869 -0.1935943
v -0.2244373 0.1779987 -0.4480774
v -0.1710695 0.4349722 -0.2471269
v -0.4397952 0.2018869 -0.1935943
v -0.2244373 0.1779987 -0.4480774
v -0.4397952 0.2018869 -0.1935943
v -0.2471044 -0.1525199 -0.4561338
v -0.2471044 -0.1525199 -0.4561338
v 0.01102568 -0.3160659 -0.5012442
v 0.0491538 -0.02264221 -0.5138638
v -0.2244373 0.1779987 -0.4480774
v -0.2471044 -0.1525199 -0.4561338
v 0.0491538 -0.02264221 -0.5138638
v -0.4166614 0.1957248 0.1835077
v -0.3077147 0.4297625 -5.054474E-05
v -0.1899303 0.4439096 0.2072796
v -0.2854568 0.1869228 0.3965278
v -0.4166614 0.1957248 0.1835077
v -0.1899303 0.4439096 0.2072796
v -0.2309277 -0.1450427 0.4092327
v 0.1409886 -0.3797897 0.277293
v -0.1815581 -0.4076124 0.2670943
v -0.1815581 -0.4076124 0.2670943
v -0.05661052 -0.5297402 -0.01086565
v -0.4056098 -0.2552965 0.1530885
v -0.2309277 -0.1450427 0.4092327
v -0.1815581 -0.4076124 0.2670943
v -0.4056098 -0.2552965 0.1530885
v -0.2309277 -0.1450427 0.4092327
v -0.4166614 0.1957248 0.1835077
v -0.2854568 0.1869228 0.3965278
v -0.2854568 0.1869228 0.3965278
v -0.050706 0.3370307 0.4452732
v 0.03435175 0.04395764 0.5138638
v -0.2309277 -0.1450427 0.4092327
v -0.2854568 0.1869228 0.3965278
v 0.03435175 0.04395764 0.5138638
v -0.4397952 0.2018869 -0.1935943
v -0.3077147 0.4297625 -5.054474E-05
v -0.4166614 0.1957248 0.1835077
v -0.5246729 -0.03778951 -0.003461113
v -0.4397952 0.2018869 -0.1935943
v -0.4166614 0.1957248 0.1835077
v -0.5246729 -0.03778951 -0.003461113
v -0.4166614 0.1957248 0.1835077
v -0.4056098 -0.2552965 0.1530885
v -0.4056098 -0.2552965 0.1530885
v -0.05661052 -0.5297402 -0.01086565
v -0.4111586 -0.3176231 -0.1767242
v -0.5246729 -0.03778951 -0.003461113
v -0.4056098 -0.2552965 0.1530885
v -0.4111586 -0.3176231 -0.1767242
v 0.2367724 0.2382059 0.4285211
v -0.050706 0.3370307 0.4452732
v 0.1192313 0.4690747 0.3009337
v 0.2367724 0.2382059 0.4285211
v 0.1192313 0.4690747 0.3009337
v 0.3634498 0.3873984 0.07467927
v 0.1409886 -0.3797897 0.277293
v 0.4655254 0.003963113 0.3114516
v 0.4312083 -0.2719728 0.1138551
v 0.03435175 0.04395764 0.5138638
v -0.050706 0.3370307 0.4452732
v 0.2367724 0.2382059 0.4285211
v 0.03435175 0.04395764 0.5138638
v 0.2367724 0.2382059 0.4285211
v 0.4655254 0.003963113 0.3114516
v 0.2749122 -0.2378026 -0.4191305
v 0.01102568 -0.3160659 -0.5012442
v 0.1615252 -0.4624396 -0.299951
v 0.1615252 -0.4624396 -0.299951
v 0.2760823 -0.4637179 -0.01723788
v 0.4260477 -0.290789 -0.2035261
v 0.2749122 -0.2378026 -0.4191305
v 0.1615252 -0.4624396 -0.299951
v 0.4260477 -0.290789 -0.2035261
v 0.4296136 0.2344525 -0.195614
v 0.3634498 0.3873984 0.07467927
v 0.1143251 0.3770204 -0.3341046
v 0.4296136 0.2344525 -0.195614
v 0.1143251 0.3770204 -0.3341046
v 0.4174559 -0.004414949 -0.3435757
v 0.4174559 -0.004414949 -0.3435757
v 0.1143251 0.3770204 -0.3341046
v 0.0491538 -0.02264221 -0.5138638
v 0.0491538 -0.02264221 -0.5138638
v 0.01102568 -0.3160659 -0.5012442
v 0.2749122 -0.2378026 -0.4191305
v 0.4174559 -0.004414949 -0.3435757
v 0.0491538 -0.02264221 -0.5138638
v 0.2749122 -0.2378026 -0.4191305
v 0.5246725 -0.00863471 -0.04679072
v 0.4655254 0.003963113 0.3114516
v 0.3634498 0.3873984 0.07467927
v 0.5246725 -0.00863471 -0.04679072
v 0.3634498 0.3873984 0.07467927
v 0.4296136 0.2344525 -0.195614
v 0.5246725 -0.00863471 -0.04679072
v 0.4174559 -0.004414949 -0.3435757
v 0.4260477 -0.290789 -0.2035261
v 0.4260477 -0.290789 -0.2035261
v 0.2760823 -0.4637179 -0.01723788
v 0.4312083 -0.2719728 0.1138551
v 0.5246725 -0.00863471 -0.04679072
v 0.4260477 -0.290789 -0.2035261
v 0.4312083 -0.2719728 0.1138551
vt 0.1345062 0.5674552
vt 0.1450154 0.5651923
vt 0.1452054 0.5438944
vt 0.3527893 0.940834
vt 0.3344651 0.9403583
vt 0.3436043 0.9605142
vt 0.2105794 0.9434127
vt 0.2009202 0.9434127
vt 0.2057498 0.9522671
vt 0.1574537 0.9522671
vt 0.1477944 0.9345585
vt 0.1333056 0.9434127
vt 0.1429648 0.9611213
vt 0.1574537 0.9522671
vt 0.1381353 0.9522671
vt 0.08810055 0.06014618
vt 0.08468235 0.06891114
vt 0.06740737 0.09193754
vt 0.228853 0.5940842
vt 0.2244155 0.5709766
vt 0.2276706 0.5454901
vt 0.1574537 0.9522671
vt 0.1574537 0.9345585
vt 0.1477944 0.9345585
vt 0.3032286 0.9617495
vt 0.2878543 0.9303636
vt 0.3030726 0.923736
vt 0.1429648 0.9257042
vt 0.1526241 0.9257042
vt 0.1477944 0.9168499
vt 0.3558684 0.9633187
vt 0.3485746 0.9552585
vt 0.3619782 0.9422722
vt 0.228853 0.5940842
vt 0.2276706 0.5454901
vt 0.2318273 0.5524089
vt 0.2395571 0.9257042
vt 0.2347274 0.9168499
vt 0.2298979 0.9257042
vt 0.3550993 0.9215539
vt 0.3379784 0.9117827
vt 0.3449142 0.9103799
vt 0.3230242 0.9033915
vt 0.3286221 0.9086546
vt 0.3449142 0.9103799
vt 0.3379784 0.9117827
vt 0.3230242 0.9033915
vt 0.3449142 0.9103799
vt 0.2009202 0.9257042
vt 0.2202386 0.9257042
vt 0.215409 0.9168499
vt 0.215409 0.9168499
vt 0.2105794 0.9079956
vt 0.2057498 0.9168499
vt 0.2009202 0.9257042
vt 0.215409 0.9168499
vt 0.2057498 0.9168499
vt 0.2347274 0.9168499
vt 0.2298979 0.9079956
vt 0.2250683 0.9168499
vt 0.1856201 0.61669
vt 0.1647734 0.6080578
vt 0.155814 0.6087074
vt 0.1808227 0.6085474
vt 0.1856201 0.61669
vt 0.155814 0.6087074
vt 0.1574537 0.9522671
vt 0.1622833 0.9611213
vt 0.1767721 0.9522671
vt 0.1574537 0.9522671
vt 0.1767721 0.9522671
vt 0.1622833 0.9434127
vt 0.2276706 0.5454901
vt 0.1856205 0.5212836
vt 0.2136562 0.5300336
vt 0.1816018 0.9434127
vt 0.1912609 0.9434127
vt 0.1864313 0.9345585
vt 0.1767721 0.9345585
vt 0.1816018 0.9434127
vt 0.1864313 0.9345585
vt 0.1912609 0.9257042
vt 0.2009202 0.9257042
vt 0.1960906 0.9168499
vt 0.3391412 0.9755598
vt 0.3175665 0.974148
vt 0.3258867 0.9633306
vt 0.1912609 0.9257042
vt 0.1960906 0.9168499
vt 0.1864313 0.9168499
vt 0.1912609 0.9257042
vt 0.1864313 0.9168499
vt 0.1864313 0.9345585
vt 0.1864313 0.9345585
vt 0.1912609 0.9434127
vt 0.1960906 0.9345585
vt 0.3485746 0.9552585
vt 0.3476768 0.9309244
vt 0.3619782 0.9422722
vt 0.03722793 0.07300001
vt 0.0384841 0.08653224
vt 0.05490333 0.08476841
vt 0.05652246 0.06571138
vt 0.03722793 0.07300001
vt 0.05490333 0.08476841
vt 0.1778817 0.557666
vt 0.1556815 0.5289672
vt 0.1806604 0.5314512
vt 0.1622833 0.9434127
vt 0.1767721 0.9522671
vt 0.1671129 0.9345585
vt 0.1778817 0.557666
vt 0.1806604 0.5314512
vt 0.206123 0.548081
vt 0.1574537 0.9345585
vt 0.1574537 0.9168499
vt 0.1526241 0.9257042
vt 0.1526241 0.9257042
vt 0.1429648 0.9257042
vt 0.1477944 0.9345585
vt 0.1574537 0.9345585
vt 0.1526241 0.9257042
vt 0.1477944 0.9345585
vt 0.1767721 0.9168499
vt 0.1719425 0.9079956
vt 0.1574537 0.9168499
vt 0.2244155 0.5709766
vt 0.228853 0.5940842
vt 0.2059623 0.5944058
vt 0.1719425 0.9257042
vt 0.1574537 0.9168499
vt 0.1671129 0.9345585
vt 0.1671129 0.9345585
vt 0.1767721 0.9522671
vt 0.1767721 0.9345585
vt 0.1719425 0.9257042
vt 0.1671129 0.9345585
vt 0.1767721 0.9345585
vt 0.2978508 0.9529771
vt 0.2905738 0.9623532
vt 0.3071062 0.9738142
vt 0.2347274 0.9345585
vt 0.2298979 0.9257042
vt 0.2202386 0.9257042
vt 0.3070353 0.9083968
vt 0.3124841 0.940421
vt 0.3203405 0.9217327
vt 0.2854176 0.9414401
vt 0.2905738 0.9623532
vt 0.2978508 0.9529771
vt 0.07473505 0.05559558
vt 0.08468235 0.06891114
vt 0.08810055 0.06014618
vt 0.0482958 0.05331588
vt 0.03340915 0.04426149
vt 0.04993731 0.0342226
vt 0.1960906 0.9522671
vt 0.2009202 0.9611213
vt 0.2057498 0.9522671
vt 0.0482958 0.05331588
vt 0.04993731 0.0342226
vt 0.0673703 0.04629496
vt 0.06822824 0.08113366
vt 0.06740737 0.09193754
vt 0.03295353 0.08208382
vt 0.215409 0.9345585
vt 0.2009202 0.9257042
vt 0.2105794 0.9434127
vt 0.2105794 0.9434127
vt 0.2009202 0.9257042
vt 0.1960906 0.9345585
vt 0.1960906 0.9345585
vt 0.1912609 0.9434127
vt 0.2009202 0.9434127
vt 0.2105794 0.9434127
vt 0.1960906 0.9345585
vt 0.2009202 0.9434127
vt 0.2202386 0.9434127
vt 0.2298979 0.9434127
vt 0.2202386 0.9257042
vt 0.2202386 0.9434127
vt 0.2202386 0.9257042
vt 0.215409 0.9345585
vt 0.2202386 0.9434127
vt 0.2105794 0.9434127
vt 0.215409 0.9522671
vt 0.1656362 0.5423292
vt 0.1657016 0.5271341
vt 0.1452054 0.5438944
vt 0.1450154 0.5651923
vt 0.1656362 0.5423292
vt 0.1452054 0.5438944
vn 0.9568794 -0.2381318 0.1663585
vn 0.9568794 -0.2381317 0.1663585
vn 0.9568794 -0.2381317 0.1663585
vn 0.9292293 0.1592411 -0.3334294
vn 0.9292293 0.1592412 -0.3334295
vn 0.9292293 0.1592412 -0.3334294
vn 0.7563775 -0.2689241 -0.5962994
vn 0.7563775 -0.2689241 -0.5962993
vn 0.7563775 -0.2689241 -0.5962994
vn 0.3632474 -0.3828039 0.8494189
vn 0.3632474 -0.3828039 0.8494189
vn 0.3632474 -0.3828039 0.849419
vn 0.521529 -0.7271335 0.4464128
vn 0.5215291 -0.7271335 0.4464128
vn 0.521529 -0.7271335 0.4464127
vn 0.7375596 0.4859128 0.4689291
vn 0.7375596 0.4859128 0.4689291
vn 0.7375596 0.4859129 0.4689291
vn -0.8788772 -0.06379781 -0.4727629
vn -0.8788772 -0.0637978 -0.4727629
vn -0.8788772 -0.0637978 -0.4727629
vn 0.00246947 -0.4869862 0.8734062
vn 0.00246947 -0.4869863 0.8734061
vn 0.00246947 -0.4869862 0.8734062
vn -0.8127248 -0.05900915 0.579652
vn -0.8127248 -0.05900915 0.579652
vn -0.8127248 -0.05900915 0.579652
vn -0.5198826 0.6233656 0.5840698
vn -0.5198824 0.6233656 0.5840698
vn -0.5198825 0.6233655 0.5840698
vn 0.07297567 0.3991803 -0.9139637
vn 0.07297568 0.3991803 -0.9139637
vn 0.07297567 0.3991803 -0.9139637
vn -0.8436655 -0.06381498 -0.533063
vn -0.8436655 -0.06381498 -0.533063
vn -0.8436655 -0.06381498 -0.5330631
vn -0.2206649 0.8349972 0.50407
vn -0.2206649 0.8349973 0.50407
vn -0.2206649 0.8349973 0.5040699
vn 0.02341799 -0.800146 -0.5993479
vn 0.02341799 -0.800146 -0.5993479
vn 0.02341799 -0.800146 -0.5993478
vn 0.1924711 -0.977836 -0.08241233
vn 0.1924711 -0.977836 -0.08241233
vn 0.1924711 -0.977836 -0.08241234
vn -0.004298663 -0.9732247 -0.2298156
vn -0.004298662 -0.9732247 -0.2298155
vn -0.004298662 -0.9732247 -0.2298155
vn 0.4022768 0.8756008 -0.2673883
vn 0.4022768 0.8756008 -0.2673883
vn 0.4022768 0.8756009 -0.2673883
vn -0.3202017 0.934184 -0.1573888
vn -0.3202017 0.934184 -0.1573888
vn -0.3202016 0.934184 -0.1573888
vn 0.05771762 0.907781 -0.4154544
vn 0.05771762 0.907781 -0.4154544
vn 0.05771762 0.907781 -0.4154544
vn -0.3083088 0.9448256 0.1106803
vn -0.3083088 0.9448256 0.1106803
vn -0.3083088 0.9448256 0.1106803
vn 0.3494458 0.936134 0.03925267
vn 0.3494458 0.936134 0.03925266
vn 0.3494458 0.936134 0.03925266
vn -0.1516015 0.9581048 0.2430063
vn -0.1516015 0.9581048 0.2430064
vn -0.1516015 0.9581049 0.2430063
vn 0.1888791 -0.9181675 0.3482715
vn 0.1888791 -0.9181675 0.3482715
vn 0.1888791 -0.9181676 0.3482714
vn 0.06440592 -0.9026415 0.4255469
vn 0.06440592 -0.9026415 0.4255469
vn 0.06440593 -0.9026415 0.4255469
vn -0.4956205 -0.8671272 -0.04950685
vn -0.4956205 -0.8671272 -0.04950685
vn -0.4956205 -0.8671272 -0.04950685
vn -0.4342748 -0.4741834 -0.7658691
vn -0.4342748 -0.4741834 -0.7658692
vn -0.4342748 -0.4741834 -0.7658691
vn -0.6109225 -0.4704955 -0.6367162
vn -0.6109226 -0.4704955 -0.6367162
vn -0.6109225 -0.4704955 -0.6367162
vn -0.1081454 0.6262326 -0.7720993
vn -0.1081454 0.6262326 -0.7720993
vn -0.1081454 0.6262327 -0.7720993
vn -0.653022 0.6731881 -0.3469581
vn -0.6530221 0.6731881 -0.3469581
vn -0.6530221 0.6731881 -0.3469581
vn -0.6026475 0.5654752 -0.5630752
vn -0.6026475 0.5654752 -0.5630753
vn -0.6026475 0.5654752 -0.5630753
vn -0.7584424 0.06781448 -0.6482025
vn -0.7584424 0.06781447 -0.6482025
vn -0.7584424 0.06781447 -0.6482024
vn -0.1834418 -0.01843385 -0.9828577
vn -0.1834418 -0.01843385 -0.9828577
vn -0.1834418 -0.01843385 -0.9828577
vn -0.2071668 0.03803594 -0.977566
vn -0.2071667 0.03803594 -0.977566
vn -0.2071667 0.03803594 -0.977566
vn -0.7058645 0.6104285 0.3593497
vn -0.7058646 0.6104285 0.3593497
vn -0.7058646 0.6104285 0.3593497
vn -0.6822389 0.5807176 0.4442039
vn -0.6822391 0.5807175 0.4442039
vn -0.682239 0.5807176 0.4442039
vn 0.01306048 -0.4741173 0.8803648
vn 0.01306048 -0.4741173 0.8803648
vn 0.01306048 -0.4741173 0.8803648
vn -0.5900882 -0.8025959 0.08738337
vn -0.5900882 -0.8025957 0.08738337
vn -0.5900882 -0.8025957 0.08738337
vn -0.6302994 -0.4578967 0.6269396
vn -0.6302995 -0.4578967 0.6269396
vn -0.6302995 -0.4578967 0.6269396
vn -0.8475544 -0.1194304 0.5170957
vn -0.8475544 -0.1194304 0.5170956
vn -0.8475544 -0.1194304 0.5170956
vn -0.2857522 0.1389766 0.9481726
vn -0.2857522 0.1389766 0.9481726
vn -0.2857523 0.1389766 0.9481726
vn -0.3530912 -0.02220271 0.9353254
vn -0.3530912 -0.02220272 0.9353255
vn -0.3530912 -0.02220271 0.9353255
vn -0.8854126 0.4606731 0.06184461
vn -0.8854126 0.4606731 0.06184461
vn -0.8854126 0.4606731 0.06184461
vn -0.924041 0.3770919 0.06284854
vn -0.924041 0.3770919 0.06284854
vn -0.924041 0.3770919 0.06284854
vn -0.8315915 -0.05763274 0.5523894
vn -0.8315915 -0.05763275 0.5523894
vn -0.8315915 -0.05763275 0.5523894
vn -0.5615194 -0.811298 0.1627627
vn -0.5615194 -0.811298 0.1627627
vn -0.5615194 -0.8112978 0.1627627
vn -0.9004852 -0.4243086 0.09533388
vn -0.9004852 -0.4243085 0.09533389
vn -0.9004852 -0.4243085 0.09533389
vn 0.238735 0.5599879 0.7933594
vn 0.238735 0.5599879 0.7933594
vn 0.238735 0.5599879 0.7933594
vn 0.6445423 0.5941093 0.4812477
vn 0.6445423 0.5941093 0.4812477
vn 0.6445423 0.5941093 0.4812477
vn 0.5571036 -0.5281795 0.640829
vn 0.5571036 -0.5281795 0.640829
vn 0.5571036 -0.5281795 0.640829
vn 0.1468328 0.2656151 0.952832
vn 0.1468328 0.2656151 0.952832
vn 0.1468328 0.265615 0.952832
vn 0.4214569 -0.0411767 0.9059131
vn 0.4214569 -0.04117672 0.9059131
vn 0.4214569 -0.04117671 0.9059131
vn 0.393821 -0.5779804 -0.7147334
vn 0.393821 -0.5779803 -0.7147334
vn 0.393821 -0.5779803 -0.7147334
vn 0.5887052 -0.7712622 -0.2420346
vn 0.5887053 -0.7712622 -0.2420346
vn 0.5887053 -0.7712622 -0.2420346
vn 0.5855708 -0.590314 -0.5555505
vn 0.5855709 -0.590314 -0.5555505
vn 0.5855708 -0.5903139 -0.5555504
vn 0.5050786 0.7982867 -0.328076
vn 0.5050786 0.7982867 -0.328076
vn 0.5050786 0.7982867 -0.3280761
vn 0.5190738 0.4308429 -0.7381983
vn 0.5190738 0.4308429 -0.7381984
vn 0.5190738 0.4308429 -0.7381984
vn 0.3833815 0.3261329 -0.8640926
vn 0.3833815 0.3261328 -0.8640926
vn 0.3833814 0.3261329 -0.8640926
vn 0.3182018 -0.08196774 -0.9444728
vn 0.3182018 -0.08196774 -0.9444728
vn 0.3182018 -0.08196775 -0.9444728
vn 0.4177799 0.03869543 -0.9077239
vn 0.4177799 0.03869543 -0.9077239
vn 0.4177799 0.03869542 -0.9077239
vn 0.9312582 0.33557 0.1419537
vn 0.9312582 0.33557 0.1419537
vn 0.9312583 0.33557 0.1419537
vn 0.9277976 0.3727319 0.01620005
vn 0.9277976 0.3727319 0.01620005
vn 0.9277976 0.3727319 0.01620005
vn 0.9309497 -0.1374989 -0.33827
vn 0.9309497 -0.1374989 -0.3382701
vn 0.9309498 -0.1374989 -0.3382701
vn 0.7686233 -0.6391973 0.02539749
vn 0.7686233 -0.6391972 0.02539749
vn 0.7686233 -0.6391972 0.02539749
vn 0.9432285 -0.3321161 0.004352726
vn 0.9432285 -0.3321161 0.004352726
vn 0.9432285 -0.3321161 0.004352726
g saltyJawbreaker_0
f 3/3/3 2/2/2 1/1/1
f 6/6/6 5/5/5 4/4/4
f 9/9/9 8/8/8 7/7/7
f 12/12/12 11/11/11 10/10/10
f 15/15/15 14/14/14 13/13/13
f 18/18/18 17/17/17 16/16/16
f 21/21/21 20/20/20 19/19/19
f 24/24/24 23/23/23 22/22/22
f 27/27/27 26/26/26 25/25/25
f 30/30/30 29/29/29 28/28/28
f 33/33/33 32/32/32 31/31/31
f 36/36/36 35/35/35 34/34/34
f 39/39/39 38/38/38 37/37/37
f 42/42/42 41/41/41 40/40/40
f 45/45/45 44/44/44 43/43/43
f 48/48/48 47/47/47 46/46/46
f 51/51/51 50/50/50 49/49/49
f 54/54/54 53/53/53 52/52/52
f 57/57/57 56/56/56 55/55/55
f 60/60/60 59/59/59 58/58/58
f 63/63/63 62/62/62 61/61/61
f 66/66/66 65/65/65 64/64/64
f 69/69/69 68/68/68 67/67/67
f 72/72/72 71/71/71 70/70/70
f 75/75/75 74/74/74 73/73/73
f 78/78/78 77/77/77 76/76/76
f 81/81/81 80/80/80 79/79/79
f 84/84/84 83/83/83 82/82/82
f 87/87/87 86/86/86 85/85/85
f 90/90/90 89/89/89 88/88/88
f 93/93/93 92/92/92 91/91/91
f 96/96/96 95/95/95 94/94/94
f 99/99/99 98/98/98 97/97/97
f 102/102/102 101/101/101 100/100/100
f 105/105/105 104/104/104 103/103/103
f 108/108/108 107/107/107 106/106/106
f 111/111/111 110/110/110 109/109/109
f 114/114/114 113/113/113 112/112/112
f 117/117/117 116/116/116 115/115/115
f 120/120/120 119/119/119 118/118/118
f 123/123/123 122/122/122 121/121/121
f 126/126/126 125/125/125 124/124/124
f 129/129/129 128/128/128 127/127/127
f 132/132/132 131/131/131 130/130/130
f 135/135/135 134/134/134 133/133/133
f 138/138/138 137/137/137 136/136/136
f 141/141/141 140/140/140 139/139/139
f 144/144/144 143/143/143 142/142/142
f 147/147/147 146/146/146 145/145/145
f 150/150/150 149/149/149 148/148/148
f 153/153/153 152/152/152 151/151/151
f 156/156/156 155/155/155 154/154/154
f 159/159/159 158/158/158 157/157/157
f 162/162/162 161/161/161 160/160/160
f 165/165/165 164/164/164 163/163/163
f 168/168/168 167/167/167 166/166/166
f 171/171/171 170/170/170 169/169/169
f 174/174/174 173/173/173 172/172/172
f 177/177/177 176/176/176 175/175/175
f 180/180/180 179/179/179 178/178/178
f 183/183/183 182/182/182 181/181/181
f 186/186/186 185/185/185 184/184/184
f 189/189/189 188/188/188 187/187/187
f 192/192/192 191/191/191 190/190/190
