g sealMidRing
v -0.6468983 2.030026 0.1461551
v -0.4621742 1.923376 0.1461551
v -0.4621742 1.389705 0.1461551
v -0.6468983 1.283055 0.1461551
v 0 1.122869 0.1461551
v 0 0.9095689 0.1461551
v 0.4621742 1.389706 0.1461551
v 0.6468983 1.283057 0.1461551
v 0.4621742 1.923378 0.1461551
v 0.6468983 2.030029 0.1461551
v 1.401298E-45 2.190211 0.1461551
v 1.401298E-45 2.403512 0.1461551
v -0.6468983 2.030026 -0.09153885
v -0.6468983 1.283055 -0.09153885
v -0.4621742 1.389705 -0.09153885
v -0.4621742 1.923376 -0.09153885
v 0 1.122869 -0.09153879
v 0 0.9095689 -0.09153879
v 0.4621742 1.389707 -0.09153885
v 0.6468983 1.283057 -0.09153885
v 0.4621742 1.923378 -0.09153885
v 0.6468983 2.030028 -0.09153885
v 0 2.190211 -0.09153879
v 0 2.403512 -0.09153879
v -0.6468983 2.030026 -0.09153885
v -0.6468983 2.030026 0.1461551
v -0.6468983 1.283055 0.1461551
v -0.6468983 1.283055 -0.09153885
v -0.4621742 1.389705 -0.09153885
v -0.4621742 1.389705 0.1461551
v -0.4621742 1.923376 0.1461551
v -0.4621742 1.923376 -0.09153885
v -0.6468983 1.283055 -0.09153885
v -0.6468983 1.283055 0.1461551
v 0 0.9095689 0.1461551
v 0 0.9095689 -0.09153879
v 0 1.122869 -0.09153879
v 0 1.122869 0.1461551
v -0.4621742 1.389705 0.1461551
v -0.4621742 1.389705 -0.09153885
v 0 0.9095689 -0.09153879
v 0 0.9095689 0.1461551
v 0.6468983 1.283057 0.1461551
v 0.6468983 1.283057 -0.09153885
v 0.4621742 1.389707 -0.09153885
v 0.4621742 1.389706 0.1461551
v 0 1.122869 0.1461551
v 0 1.122869 -0.09153879
v 0.6468983 1.283057 -0.09153885
v 0.6468983 1.283057 0.1461551
v 0.6468983 2.030029 0.1461551
v 0.6468983 2.030028 -0.09153885
v 0.4621742 1.923378 -0.09153885
v 0.4621742 1.923378 0.1461551
v 0.4621742 1.389706 0.1461551
v 0.4621742 1.389707 -0.09153885
v 0.6468983 2.030028 -0.09153885
v 0.6468983 2.030029 0.1461551
v 1.401298E-45 2.403512 0.1461551
v 0 2.403512 -0.09153879
v 0 2.190211 -0.09153879
v 1.401298E-45 2.190211 0.1461551
v 0.4621742 1.923378 0.1461551
v 0.4621742 1.923378 -0.09153885
v 0 2.403512 -0.09153879
v 1.401298E-45 2.403512 0.1461551
v -0.6468983 2.030026 0.1461551
v -0.6468983 2.030026 -0.09153885
v -0.4621742 1.923376 -0.09153885
v -0.4621742 1.923376 0.1461551
v 1.401298E-45 2.190211 0.1461551
v 0 2.190211 -0.09153879
vt 0.7788746 0.9560651
vt 0.7877148 0.9509612
vt 0.7877148 0.9254221
vt 0.7788746 0.9203182
vt 0.8098325 0.9126524
vt 0.8098325 0.9024448
vt 0.8319502 0.9254221
vt 0.8407903 0.9203184
vt 0.8319502 0.9509614
vt 0.8407903 0.9560652
vt 0.8098325 0.9637309
vt 0.8098325 0.9739385
vt 0.7788746 0.9560651
vt 0.7788746 0.9203182
vt 0.7877148 0.9254221
vt 0.7877148 0.9509612
vt 0.8098325 0.9126524
vt 0.8098325 0.9024448
vt 0.8319502 0.9254221
vt 0.8407903 0.9203184
vt 0.8319502 0.9509614
vt 0.8407903 0.9560652
vt 0.8098325 0.9637309
vt 0.8098325 0.9739385
vt 0.7788746 0.9560651
vt 0.7788746 0.9560651
vt 0.7788746 0.9203182
vt 0.7788746 0.9203182
vt 0.7877148 0.9254221
vt 0.7877148 0.9254221
vt 0.7877148 0.9509612
vt 0.7877148 0.9509612
vt 0.7788746 0.9203182
vt 0.7788746 0.9203182
vt 0.8098325 0.9024448
vt 0.8098325 0.9024448
vt 0.8098325 0.9126524
vt 0.8098325 0.9126524
vt 0.7877148 0.9254221
vt 0.7877148 0.9254221
vt 0.8098325 0.9024448
vt 0.8098325 0.9024448
vt 0.8407903 0.9203184
vt 0.8407903 0.9203184
vt 0.8319502 0.9254221
vt 0.8319502 0.9254221
vt 0.8098325 0.9126524
vt 0.8098325 0.9126524
vt 0.8407903 0.9203184
vt 0.8407903 0.9203184
vt 0.8407903 0.9560652
vt 0.8407903 0.9560652
vt 0.8319502 0.9509614
vt 0.8319502 0.9509614
vt 0.8319502 0.9254221
vt 0.8319502 0.9254221
vt 0.8407903 0.9560652
vt 0.8407903 0.9560652
vt 0.8098325 0.9739385
vt 0.8098325 0.9739385
vt 0.8098325 0.9637309
vt 0.8098325 0.9637309
vt 0.8319502 0.9509614
vt 0.8319502 0.9509614
vt 0.8098325 0.9739385
vt 0.8098325 0.9739385
vt 0.7788746 0.9560651
vt 0.7788746 0.9560651
vt 0.7877148 0.9509612
vt 0.7877148 0.9509612
vt 0.8098325 0.9637309
vt 0.8098325 0.9637309
vn 0 0 1
vn 0 0 1
vn 0 0 1
vn 0 0 1
vn 0 0 1
vn 0 0 1
vn 0 0 1
vn 0 0 1
vn 0 0 1
vn 0 0 1
vn 0 0 1
vn 0 0 1
vn 0 0 -1
vn 0 0 -1
vn 0 0 -1
vn 0 0 -1
vn 0 0 -1
vn 0 0 -1
vn 0 0 -1
vn 0 0 -1
vn 0 0 -1
vn 0 0 -1
vn 0 0 -1
vn 0 0 -1
vn -1 0 0
vn -1 0 0
vn -1 0 0
vn -1 0 0
vn 1 0 0
vn 1 0 0
vn 1 0 0
vn 1 0 0
vn -0.4999988 -0.8660262 0
vn -0.4999987 -0.866026 0
vn -0.4999987 -0.866026 0
vn -0.4999987 -0.866026 0
vn 0.4999987 0.8660262 0
vn 0.4999987 0.8660262 0
vn 0.4999987 0.8660262 0
vn 0.4999987 0.8660262 0
vn 0.5000014 -0.8660246 0
vn 0.5000014 -0.8660246 0
vn 0.5000013 -0.8660246 0
vn 0.5000014 -0.8660246 0
vn -0.5000013 0.8660246 0
vn -0.5000013 0.8660246 0
vn -0.5000013 0.8660246 0
vn -0.5000013 0.8660246 0
vn 1 0 0
vn 1 0 0
vn 1 0 0
vn 1 0 0
vn -1 0 0
vn -1 0 0
vn -1 0 0
vn -1 0 0
vn 0.4999961 0.8660277 0
vn 0.4999961 0.8660277 0
vn 0.4999961 0.8660277 0
vn 0.4999961 0.8660277 0
vn -0.4999963 -0.8660275 0
vn -0.4999963 -0.8660275 0
vn -0.4999963 -0.8660275 0
vn -0.4999963 -0.8660275 0
vn -0.4999987 0.8660262 0
vn -0.4999987 0.8660262 0
vn -0.4999987 0.8660262 0
vn -0.4999987 0.8660262 0
vn 0.499999 -0.866026 0
vn 0.499999 -0.866026 0
vn 0.499999 -0.866026 0
vn 0.499999 -0.866026 0
g sealMidRing_0
f 3/3/3 2/2/2 1/1/1
f 4/4/4 3/3/3 1/1/1
f 5/5/5 3/3/3 4/4/4
f 6/6/6 5/5/5 4/4/4
f 7/7/7 5/5/5 6/6/6
f 8/8/8 7/7/7 6/6/6
f 9/9/9 7/7/7 8/8/8
f 10/10/10 9/9/9 8/8/8
f 11/11/11 9/9/9 10/10/10
f 12/12/12 11/11/11 10/10/10
f 2/2/2 11/11/11 12/12/12
f 1/1/1 2/2/2 12/12/12
f 15/15/15 14/14/14 13/13/13
f 16/16/16 15/15/15 13/13/13
f 15/15/15 17/17/17 14/14/14
f 17/17/17 18/18/18 14/14/14
f 17/17/17 19/19/19 18/18/18
f 19/19/19 20/20/20 18/18/18
f 19/19/19 21/21/21 20/20/20
f 21/21/21 22/22/22 20/20/20
f 21/21/21 23/23/23 22/22/22
f 23/23/23 24/24/24 22/22/22
f 16/16/16 13/13/13 24/24/24
f 23/23/23 16/16/16 24/24/24
f 27/27/27 26/26/26 25/25/25
f 28/28/28 27/27/27 25/25/25
f 31/31/31 30/30/30 29/29/29
f 32/32/32 31/31/31 29/29/29
f 35/35/35 34/34/34 33/33/33
f 36/36/36 35/35/35 33/33/33
f 39/39/39 38/38/38 37/37/37
f 40/40/40 39/39/39 37/37/37
f 43/43/43 42/42/42 41/41/41
f 44/44/44 43/43/43 41/41/41
f 47/47/47 46/46/46 45/45/45
f 48/48/48 47/47/47 45/45/45
f 51/51/51 50/50/50 49/49/49
f 52/52/52 51/51/51 49/49/49
f 55/55/55 54/54/54 53/53/53
f 56/56/56 55/55/55 53/53/53
f 59/59/59 58/58/58 57/57/57
f 60/60/60 59/59/59 57/57/57
f 63/63/63 62/62/62 61/61/61
f 64/64/64 63/63/63 61/61/61
f 67/67/67 66/66/66 65/65/65
f 68/68/68 67/67/67 65/65/65
f 71/71/71 70/70/70 69/69/69
f 72/72/72 71/71/71 69/69/69
