g sealSphere
v 0.8505513 0 0.5256701
v 0.9999878 -0.0003070831 -0.0006205564
v 0.8089195 -0.5000286 0.3088507
v 0.4998755 -0.308691 0.8090838
v 0.3090599 -0.8088002 0.500237
v 0.5257191 -0.8506317 0
v 0.0003068629 -0.9999981 -4.872983E-06
v -2.154819E-07 -0.5257187 0.8506309
v 0.0006134742 0.0003066063 0.9999866
v -0.4998751 -0.3086905 0.8090829
v -0.3090599 -0.8088002 0.5002367
v 0.0003068629 -0.9999981 -4.872983E-06
v -0.8089184 -0.5000281 0.3088501
v -0.85055 0 0.5256693
v -0.5257187 -0.8506308 -1.801783E-07
v 0.0003068629 -0.9999981 -4.872983E-06
v -0.499875 0.3086905 0.8090829
v -0.8089185 0.5000277 0.3088501
v -0.9999852 0.0003066063 0.000613456
v -0.3090599 0.8087997 0.5002367
v -2.154819E-07 0.5257187 0.8506309
v 0.3090599 0.8087997 0.500237
v 0.0003068626 0.9999981 -4.872928E-06
v -0.5257187 0.8506308 -1.801784E-07
v 0.0003068626 0.9999981 -4.872928E-06
v 0.4998755 0.3086905 0.8090839
v 0.8089195 0.5000286 0.3088507
v 0.5257191 0.8506308 0
v 0.0003068626 0.9999981 -4.872928E-06
v 0.8505475 0 -0.5256677
v 0.9999878 -0.0003070831 -0.0006205564
v 0.8089167 0.5000267 -0.3088495
v 0.4998737 0.3086896 -0.8090807
v 0.4998737 -0.3086901 -0.8090807
v 0.8089166 -0.5000267 -0.3088495
v 0.3090595 -0.8087993 -0.5002363
v 3.43239E-07 -0.5257177 -0.850629
v -0.3090596 -0.8087997 -0.5002367
v 0.0003068629 -0.9999981 -4.872983E-06
v -0.4998742 -0.3086905 -0.8090817
v -0.8089178 -0.5000281 -0.30885
v -0.8505489 0 -0.5256686
v -0.9999852 0.0003066063 0.000613456
v -0.5257187 -0.8506308 -1.801783E-07
v 0.0003068629 -0.9999981 -4.872983E-06
v -0.4998742 0.3086901 -0.8090817
v -0.8089179 0.5000267 -0.30885
v -0.3090596 0.8087997 -0.5002366
v 3.432469E-07 0.5257177 -0.850629
v -0.0006134284 0.0003066063 -0.9999837
v 0.3090596 0.8087988 -0.5002363
v 0.0003068626 0.9999981 -4.872928E-06
v -0.5257187 0.8506308 -1.801784E-07
v 0.0003068626 0.9999981 -4.872928E-06
v 0.5257191 0.8506308 0
v 0.0003068626 0.9999981 -4.872928E-06
v 0.0003068629 -0.9999981 -4.872983E-06
v 0.5257191 -0.8506317 0
v -0.8089179 0.5000267 -0.30885
v -0.5257187 0.8506308 -1.801784E-07
v -0.8089185 0.5000277 0.3088501
v -0.9999852 0.0003066063 0.000613456
v -0.8089184 -0.5000281 0.3088501
v -0.8089178 -0.5000281 -0.30885
v -0.5257187 -0.8506308 -1.801783E-07
v 0.8089195 0.5000286 0.3088507
v 0.5257191 0.8506308 0
v 0.8089167 0.5000267 -0.3088495
v 0.9999878 -0.0003070831 -0.0006205564
v 0.8089166 -0.5000267 -0.3088495
v 0.8089195 -0.5000286 0.3088507
v 0.5257191 -0.8506317 0
vt 0.8187238 0.9385427
vt 0.8202859 0.9385395
vt 0.8182886 0.9333157
vt 0.815058 0.9353158
vt 0.8130633 0.9300879
vt 0.8153281 0.9296506
vt 0.8098357 0.9280891
vt 0.8098325 0.9330471
vt 0.8098389 0.9385459
vt 0.804607 0.9353158
vt 0.8066017 0.9300879
vt 0.8098357 0.9280891
vt 0.8013764 0.9333157
vt 0.8009412 0.9385427
vt 0.8043368 0.9296506
vt 0.8098357 0.9280891
vt 0.804607 0.9417696
vt 0.8013764 0.9437698
vt 0.7993791 0.9385459
vt 0.8066017 0.9469976
vt 0.8098325 0.9440384
vt 0.8130633 0.9469976
vt 0.8098357 0.9489963
vt 0.8043368 0.9474349
vt 0.8098357 0.9489963
vt 0.815058 0.9417696
vt 0.8182886 0.9437698
vt 0.8153281 0.9474349
vt 0.8098357 0.9489963
vt 0.8187238 0.9385427
vt 0.8202859 0.9385395
vt 0.8182886 0.9437698
vt 0.815058 0.9417696
vt 0.815058 0.9353158
vt 0.8182886 0.9333156
vt 0.8130633 0.9300879
vt 0.8098325 0.9330471
vt 0.8066017 0.9300879
vt 0.8098357 0.9280891
vt 0.804607 0.9353158
vt 0.8013764 0.9333157
vt 0.8009412 0.9385427
vt 0.7993791 0.9385459
vt 0.8043368 0.9296506
vt 0.8098357 0.9280891
vt 0.804607 0.9417696
vt 0.8013764 0.9437698
vt 0.8066017 0.9469976
vt 0.8098325 0.9440384
vt 0.809826 0.9385459
vt 0.8130633 0.9469976
vt 0.8098357 0.9489963
vt 0.8043368 0.9474349
vt 0.8098357 0.9489963
vt 0.8153281 0.9474349
vt 0.8098357 0.9489963
vt 0.8098357 0.9280891
vt 0.8153281 0.9296506
vt 0.8013764 0.9437698
vt 0.8043368 0.9474349
vt 0.8013764 0.9437698
vt 0.7993791 0.9385459
vt 0.8013764 0.9333157
vt 0.8013764 0.9333157
vt 0.8043368 0.9296506
vt 0.8182886 0.9437698
vt 0.8153281 0.9474349
vt 0.8182886 0.9437698
vt 0.8202859 0.9385395
vt 0.8182886 0.9333156
vt 0.8182886 0.9333157
vt 0.8153281 0.9296506
vn 0.8507955 3.786667E-05 0.5254968
vn 1 -0.0001016865 -0.0001414308
vn 0.8089927 -0.4999537 0.3091553
vn 0.5001658 -0.3090309 0.8089092
vn 0.3091325 -0.8088564 0.5001886
vn 0.5257428 -0.8506436 0
vn 6.752497E-05 -1 0
vn -7.644809E-05 -0.5255811 0.8507435
vn 0.0002021443 6.793968E-05 1
vn -0.499947 -0.3087971 0.8091337
vn -0.3091327 -0.8089059 0.5001082
vn 6.752497E-05 -1 0
vn -0.8090055 -0.5000036 0.3090413
vn -0.8505426 -3.793328E-05 0.5259063
vn -0.5255383 -0.8507699 0
vn 6.752497E-05 -1 0
vn -0.5000271 0.308798 0.8090838
vn -0.8088929 0.5001137 0.3091577
vn -1 0.0001014404 0.0001349603
vn -0.3091327 0.808906 0.5001082
vn -7.639199E-05 0.5257851 0.8506173
vn 0.3091325 0.8088564 0.5001884
vn 6.819106E-05 1 0
vn -0.5255391 0.8507695 0
vn 6.819106E-05 1 0
vn 0.500246 0.3090318 0.8088592
vn 0.8091051 0.4998441 0.3090386
vn 0.5257427 0.8506436 0
vn 6.819106E-05 1 0
vn 0.8505393 3.80043E-05 -0.5259116
vn 1 -0.0001016865 -0.0001414308
vn 0.809004 0.5000039 -0.3090446
vn 0.5000272 0.3087969 -0.8090842
vn 0.4999474 -0.3087961 -0.8091338
vn 0.8088915 -0.5001138 -0.3091615
vn 0.3091359 -0.808853 -0.5001917
vn 7.664185E-05 -0.5255794 -0.8507445
vn -0.3091338 -0.8089035 -0.5001113
vn 6.752497E-05 -1 0
vn -0.5001658 -0.3090298 -0.8089097
vn -0.8091049 -0.499843 -0.3090408
vn -0.8507938 -3.781986E-05 -0.5254995
vn -1 0.0001014404 0.0001349603
vn -0.5255383 -0.8507699 0
vn 6.752497E-05 -1 0
vn -0.5002462 0.3090307 -0.8088595
vn -0.8089926 0.4999526 -0.3091575
vn -0.3091342 0.8089034 -0.5001113
vn 7.679344E-05 0.5257833 -0.8506185
vn -0.000202172 6.804899E-05 -1
vn 0.3091362 0.808853 -0.5001917
vn 6.819106E-05 1 0
vn -0.5255391 0.8507695 0
vn 6.819106E-05 1 0
vn 0.5257427 0.8506436 0
vn 6.819106E-05 1 0
vn 6.752497E-05 -1 0
vn 0.5257428 -0.8506436 0
vn -0.8089926 0.4999526 -0.3091575
vn -0.5255391 0.8507695 0
vn -0.8088929 0.5001137 0.3091577
vn -1 0.0001014404 0.0001349603
vn -0.8090055 -0.5000036 0.3090413
vn -0.8091049 -0.499843 -0.3090408
vn -0.5255383 -0.8507699 0
vn 0.8091051 0.4998441 0.3090386
vn 0.5257427 0.8506436 0
vn 0.809004 0.5000039 -0.3090446
vn 1 -0.0001016865 -0.0001414308
vn 0.8088915 -0.5001138 -0.3091615
vn 0.8089927 -0.4999537 0.3091553
vn 0.5257428 -0.8506436 0
g sealSphere_0
f 3/3/3 2/2/2 1/1/1
f 3/3/3 1/1/1 4/4/4
f 3/3/3 4/4/4 5/5/5
f 3/3/3 5/5/5 6/6/6
f 7/7/7 6/6/6 5/5/5
f 4/4/4 8/8/8 5/5/5
f 4/4/4 9/9/9 8/8/8
f 9/9/9 10/10/10 8/8/8
f 11/11/11 5/5/5 8/8/8
f 11/11/11 8/8/8 10/10/10
f 11/11/11 12/12/12 5/5/5
f 13/13/13 11/11/11 10/10/10
f 13/13/13 10/10/10 14/14/14
f 13/13/13 15/15/15 11/11/11
f 11/11/11 15/15/15 16/16/16
f 17/17/17 14/14/14 10/10/10
f 9/9/9 17/17/17 10/10/10
f 18/18/18 14/14/14 17/17/17
f 18/18/18 19/19/19 14/14/14
f 13/13/13 14/14/14 19/19/19
f 20/20/20 18/18/18 17/17/17
f 20/20/20 17/17/17 21/21/21
f 9/9/9 21/21/21 17/17/17
f 22/22/22 20/20/20 21/21/21
f 22/22/22 23/23/23 20/20/20
f 20/20/20 24/24/24 18/18/18
f 25/25/25 24/24/24 20/20/20
f 22/22/22 21/21/21 26/26/26
f 27/27/27 22/22/22 26/26/26
f 27/27/27 26/26/26 1/1/1
f 27/27/27 28/28/28 22/22/22
f 22/22/22 28/28/28 29/29/29
f 26/26/26 21/21/21 9/9/9
f 4/4/4 1/1/1 26/26/26
f 4/4/4 26/26/26 9/9/9
f 27/27/27 1/1/1 2/2/2
f 32/32/32 31/31/31 30/30/30
f 33/33/33 32/32/32 30/30/30
f 34/34/34 33/33/33 30/30/30
f 35/35/35 34/34/34 30/30/30
f 35/35/35 30/30/30 31/31/31
f 35/35/35 36/36/36 34/34/34
f 36/36/36 37/37/37 34/34/34
f 36/36/36 38/38/38 37/37/37
f 36/36/36 39/39/39 38/38/38
f 40/40/40 37/37/37 38/38/38
f 40/40/40 38/38/38 41/41/41
f 40/40/40 41/41/41 42/42/42
f 41/41/41 43/43/43 42/42/42
f 38/38/38 44/44/44 41/41/41
f 45/45/45 44/44/44 38/38/38
f 40/40/40 42/42/42 46/46/46
f 47/47/47 46/46/46 42/42/42
f 47/47/47 42/42/42 43/43/43
f 47/47/47 48/48/48 46/46/46
f 48/48/48 49/49/49 46/46/46
f 50/50/50 46/46/46 49/49/49
f 50/50/50 37/37/37 40/40/40
f 50/50/50 40/40/40 46/46/46
f 48/48/48 51/51/51 49/49/49
f 48/48/48 52/52/52 51/51/51
f 47/47/47 53/53/53 48/48/48
f 48/48/48 53/53/53 54/54/54
f 33/33/33 49/49/49 51/51/51
f 50/50/50 49/49/49 33/33/33
f 33/33/33 51/51/51 32/32/32
f 51/51/51 55/55/55 32/32/32
f 56/56/56 55/55/55 51/51/51
f 34/34/34 50/50/50 33/33/33
f 34/34/34 37/37/37 50/50/50
f 36/36/36 58/58/58 57/57/57
f 35/35/35 58/58/58 36/36/36
f 61/61/61 60/60/60 59/59/59
f 61/61/61 59/59/59 62/62/62
f 64/64/64 63/63/63 62/62/62
f 64/64/64 65/65/65 63/63/63
f 68/68/68 67/67/67 66/66/66
f 68/68/68 66/66/66 69/69/69
f 71/71/71 70/70/70 69/69/69
f 71/71/71 72/72/72 70/70/70
