g singleDoor
v -2.043328 0.01553369 0.2508864
v -2.52774 0.006883841 0.1825722
v -2.041511 0.5072886 0.2083035
v -2.52774 0.006883841 0.1825722
v -2.517696 0.655241 0.1989632
v -2.041511 0.5072886 0.2083035
v -2.011909 1.772544 0.1848061
v -2.505461 3.189713 0.1994875
v -2.468532 3.221455 -0.1638242
v -1.770785 3.196554 0.2063619
v -1.809202 3.22919 -0.1900059
v -1.809202 3.22919 -0.1900059
v -2.468532 3.221455 -0.1638242
v -1.866713 2.593304 -0.1994596
v -2.468532 3.221455 -0.1638242
v -2.514586 2.571992 -0.2028013
v -1.866713 2.593304 -0.1994596
v -2.504101 0.05793752 -0.2324686
v -2.52774 0.006883841 0.1825722
v -2.052692 0.06906021 -0.2159287
v -2.52774 0.006883841 0.1825722
v -2.043328 0.01553369 0.2508864
v -2.052692 0.06906021 -0.2159287
v -0.007034283 0.04777082 -0.2051072
v -0.007430553 0.01627789 0.1727078
v -0.01017088 0.7249919 -0.185604
v -0.0105229 0.7427873 0.1966213
v -0.009570446 1.696773 0.1566378
v -2.52774 0.006883841 0.1825722
v -2.504101 0.05793752 -0.2324686
v -2.517696 0.655241 0.1989632
v -2.504101 0.05793752 -0.2324686
v -2.54216 0.6727707 -0.2021445
v -2.517696 0.655241 0.1989632
v -2.51403 2.463791 0.1990511
v -2.505461 3.189713 0.1994875
v -2.004733 2.707365 0.2130813
v -1.770785 3.196554 0.2063619
v -2.011909 1.772544 0.1848061
v -0.9622136 3.225321 0.2013503
v -0.5116874 2.691723 0.1978493
v -0.00621809 3.201546 0.2020919
v -2.514586 2.571992 -0.2028013
v -2.528057 1.885419 -0.2024802
v -1.866713 2.593304 -0.1994596
v -1.923588 1.80448 -0.1910471
v -2.54216 0.6727707 -0.2021445
v -2.012645 0.6917104 -0.1889506
v -2.052692 0.06906021 -0.2159287
v -0.939909 2.693564 -0.1918107
v -1.809202 3.22919 -0.1900059
v -0.8930855 1.702862 -0.1836863
v -0.8520329 0.7279207 -0.180192
v -0.01050306 1.736223 -0.1995475
v -0.01017088 0.7249919 -0.185604
v -2.54216 0.6727707 -0.2021445
v -2.504101 0.05793752 -0.2324686
v -0.6025276 0.08869661 -0.2214548
v -2.012645 0.6917104 -0.1889506
v -0.8520329 0.7279207 -0.180192
v -0.01017088 0.7249919 -0.185604
v -0.007034283 0.04777082 -0.2051072
v -0.01017088 0.7249919 -0.185604
v -0.009560833 2.701478 0.1562374
v -0.00621809 3.201546 0.2020919
v -0.009456158 2.822534 -0.155604
v -0.01031782 3.237027 -0.1999241
v -0.01050306 1.736223 -0.1995475
v -0.009570446 1.696773 0.1566378
v -0.01017088 0.7249919 -0.185604
v -2.51403 2.463791 0.1990511
v -2.514586 2.571992 -0.2028013
v -2.505461 3.189713 0.1994875
v -2.528057 1.885419 -0.2024802
v -2.514586 2.571992 -0.2028013
v -2.468532 3.221455 -0.1638242
v -2.505461 3.189713 0.1994875
v -2.534388 1.845881 0.1985653
v -2.51403 2.463791 0.1990511
v -2.011909 1.772544 0.1848061
v -2.517696 0.655241 0.1989632
v -2.534388 1.845881 0.1985653
v -2.528057 1.885419 -0.2024802
v -2.51403 2.463791 0.1990511
v -2.54216 0.6727707 -0.2021445
v -2.517696 0.655241 0.1989632
v -2.54216 0.6727707 -0.2021445
v -2.534388 1.845881 0.1985653
v -2.043328 0.01553369 0.2508864
v -2.041511 0.5072886 0.2083035
v -0.6333454 0.01789083 0.1936751
v -2.041511 0.5072886 0.2083035
v -0.4791514 0.5429023 0.1942123
v -0.6333454 0.01789083 0.1936751
v -0.007430553 0.01627789 0.1727078
v -0.0105229 0.7427873 0.1966213
v -0.4479994 1.537013 0.201885
v -1.809202 3.22919 -0.1900059
v -0.9506403 3.248199 -0.1613969
v -1.770785 3.196554 0.2063619
v -0.9506403 3.248199 -0.1613969
v -0.9622136 3.225321 0.2013503
v -1.770785 3.196554 0.2063619
v -0.939909 2.693564 -0.1918107
v -0.9506403 3.248199 -0.1613969
v -1.809202 3.22919 -0.1900059
v -0.009456158 2.822534 -0.155604
v -0.01050306 1.736223 -0.1995475
v -2.043328 0.01553369 0.2508864
v -0.6333454 0.01789083 0.1936751
v -2.052692 0.06906021 -0.2159287
v -0.6333454 0.01789083 0.1936751
v -0.6025276 0.08869661 -0.2214548
v -2.052692 0.06906021 -0.2159287
v -1.673616 2.321858 0.2297658
v -0.8152567 2.377164 0.2136825
v -1.674786 1.772452 0.2047848
v -0.8152567 2.377164 0.2136825
v -0.7858617 1.534962 0.2211904
v -1.674786 1.772452 0.2047848
v -1.645596 0.9085829 0.226
v -0.7858617 1.534962 0.2211904
v -0.7660588 0.8421755 0.2116823
v -1.645596 0.9085829 0.226
v -0.9622136 3.225321 0.2013503
v -0.9506403 3.248199 -0.1613969
v -0.00621809 3.201546 0.2020919
v -0.9506403 3.248199 -0.1613969
v -0.01031782 3.237027 -0.1999241
v -0.00621809 3.201546 0.2020919
v -0.009456158 2.822534 -0.155604
v -0.01031782 3.237027 -0.1999241
v -0.9506403 3.248199 -0.1613969
v -0.6333454 0.01789083 0.1936751
v -0.007430553 0.01627789 0.1727078
v -0.6025276 0.08869661 -0.2214548
v -0.007430553 0.01627789 0.1727078
v -0.007034283 0.04777082 -0.2051072
v -0.6025276 0.08869661 -0.2214548
v -0.00621809 3.201546 0.2020919
v -0.009560833 2.701478 0.1562374
v -0.5116874 2.691723 0.1978493
v -0.4479994 1.537013 0.201885
v -0.5116874 2.691723 0.1978493
v -0.009570446 1.696773 0.1566378
v -0.009560833 2.701478 0.1562374
v -0.0105229 0.7427873 0.1966213
v -2.004733 2.707365 0.2130813
v -1.912296 2.598184 0.1107052
v -2.011909 1.772544 0.1848061
v -1.912296 2.598184 0.1107052
v -1.918807 1.77276 0.08346154
v -2.011909 1.772544 0.1848061
v -1.910446 0.6457951 0.1062472
v -0.5116874 2.691723 0.1978493
v -0.4479994 1.537013 0.201885
v -0.600201 2.56794 0.09521264
v -0.4479994 1.537013 0.201885
v -0.5491459 1.538251 0.1003146
v -0.600201 2.56794 0.09521264
v -0.5657866 0.635834 0.09207482
v -2.004733 2.707365 0.2130813
v -0.5116874 2.691723 0.1978493
v -1.912296 2.598184 0.1107052
v -0.5116874 2.691723 0.1978493
v -0.600201 2.56794 0.09521264
v -1.912296 2.598184 0.1107052
v -2.041511 0.5072886 0.2083035
v -2.011909 1.772544 0.1848061
v -1.910446 0.6457951 0.1062472
v -2.041511 0.5072886 0.2083035
v -1.910446 0.6457951 0.1062472
v -0.4791514 0.5429023 0.1942123
v -1.910446 0.6457951 0.1062472
v -0.5657866 0.635834 0.09207482
v -0.4791514 0.5429023 0.1942123
v -0.4791514 0.5429023 0.1942123
v -0.5657866 0.635834 0.09207482
v -0.4479994 1.537013 0.201885
v -1.912296 2.598184 0.1107052
v -1.772398 2.451583 0.1092654
v -1.918807 1.77276 0.08346154
v -1.772398 2.451583 0.1092654
v -1.777802 1.772735 0.08358727
v -1.918807 1.77276 0.08346154
v -1.912296 2.598184 0.1107052
v -0.600201 2.56794 0.09521264
v -0.7346522 2.461274 0.09337121
v -0.5491459 1.538251 0.1003146
v -0.6902079 1.536165 0.1001296
v -0.7041906 0.7778485 0.09100915
v -0.5657866 0.635834 0.09207482
v -1.910446 0.6457951 0.1062472
v -1.770481 0.7857694 0.1052914
v -1.918807 1.77276 0.08346154
v -1.777802 1.772735 0.08358727
v -0.600201 2.56794 0.09521264
v -0.5491459 1.538251 0.1003146
v -0.7346522 2.461274 0.09337121
v -1.772398 2.451583 0.1092654
v -1.673616 2.321858 0.2297658
v -1.777802 1.772735 0.08358727
v -1.673616 2.321858 0.2297658
v -1.674786 1.772452 0.2047848
v -1.777802 1.772735 0.08358727
v -1.645596 0.9085829 0.226
v -0.7346522 2.461274 0.09337121
v -0.6902079 1.536165 0.1001296
v -0.8152567 2.377164 0.2136825
v -0.6902079 1.536165 0.1001296
v -0.7858617 1.534962 0.2211904
v -0.8152567 2.377164 0.2136825
v -0.7660588 0.8421755 0.2116823
v -0.7346522 2.461274 0.09337121
v -0.8152567 2.377164 0.2136825
v -1.772398 2.451583 0.1092654
v -0.8152567 2.377164 0.2136825
v -1.673616 2.321858 0.2297658
v -1.772398 2.451583 0.1092654
v -1.770481 0.7857694 0.1052914
v -1.777802 1.772735 0.08358727
v -1.645596 0.9085829 0.226
v -0.7041906 0.7778485 0.09100915
v -1.770481 0.7857694 0.1052914
v -0.7660588 0.8421755 0.2116823
v -1.770481 0.7857694 0.1052914
v -1.645596 0.9085829 0.226
v -0.7660588 0.8421755 0.2116823
v -0.7041906 0.7778485 0.09100915
v -0.7660588 0.8421755 0.2116823
v -0.6902079 1.536165 0.1001296
vt 0.1070343 0.11348
vt 0.08298811 0.1130507
vt 0.1090461 0.1402205
vt 0.08298811 0.1130507
vt 0.08348671 0.145235
vt 0.1090461 0.1402205
vt 0.1085939 0.2006978
vt 0.08409408 0.2721353
vt 0.08592722 0.273711
vt 0.1205633 0.2719294
vt 0.1186562 0.2735494
vt 0.1186562 0.2735494
vt 0.08592722 0.273711
vt 0.1158014 0.2414401
vt 0.08592722 0.273711
vt 0.08364114 0.2403823
vt 0.1158014 0.2414401
vt 0.08416155 0.1155849
vt 0.08298811 0.1130507
vt 0.1065694 0.1161371
vt 0.08298811 0.1130507
vt 0.1070343 0.11348
vt 0.1065694 0.1161371
vt 0.2081156 0.1150803
vt 0.2080959 0.113517
vt 0.2079599 0.1486974
vt 0.2079425 0.1495808
vt 0.2079897 0.1969365
vt 0.08298811 0.1130507
vt 0.08416155 0.1155849
vt 0.08348671 0.145235
vt 0.08416155 0.1155849
vt 0.08227232 0.1461052
vt 0.08348671 0.145235
vt 0.08366868 0.2350112
vt 0.08409408 0.2721353
vt 0.1089501 0.2471021
vt 0.1205633 0.2719294
vt 0.1085939 0.2006978
vt 0.1607006 0.2728134
vt 0.1830647 0.2463256
vt 0.2081561 0.2716332
vt 0.08364114 0.2403823
vt 0.08297244 0.2063009
vt 0.1158014 0.2414401
vt 0.1129781 0.2022831
vt 0.08227232 0.1461052
vt 0.1085574 0.1470453
vt 0.1065694 0.1161371
vt 0.1618079 0.2464171
vt 0.1186562 0.2735494
vt 0.1641321 0.1972387
vt 0.16617 0.1488428
vt 0.2079434 0.1988948
vt 0.2079599 0.1486974
vt 0.08227232 0.1461052
vt 0.08416155 0.1155849
vt 0.1785554 0.1171118
vt 0.1085574 0.1470453
vt 0.16617 0.1488428
vt 0.2079599 0.1486974
vt 0.2081156 0.1150803
vt 0.2079599 0.1486974
vt 0.2079902 0.2468099
vt 0.2081561 0.2716332
vt 0.2079954 0.2528191
vt 0.2079526 0.2733945
vt 0.2079434 0.1988948
vt 0.2079897 0.1969365
vt 0.2079599 0.1486974
vt 0.08366868 0.2350112
vt 0.08364114 0.2403823
vt 0.08409408 0.2721353
vt 0.08297244 0.2063009
vt 0.08364114 0.2403823
vt 0.08592722 0.273711
vt 0.08409408 0.2721353
vt 0.08265814 0.2043382
vt 0.08366868 0.2350112
vt 0.1085939 0.2006978
vt 0.08348671 0.145235
vt 0.08265814 0.2043382
vt 0.08297244 0.2063009
vt 0.08366868 0.2350112
vt 0.08227232 0.1461052
vt 0.08348671 0.145235
vt 0.08227232 0.1461052
vt 0.08265814 0.2043382
vt 0.1070343 0.11348
vt 0.1090461 0.1402205
vt 0.1770256 0.1135971
vt 0.1090461 0.1402205
vt 0.1846798 0.1396585
vt 0.1770256 0.1135971
vt 0.2080959 0.113517
vt 0.2079425 0.1495808
vt 0.1858246 0.1890061
vt 0.1186562 0.2735494
vt 0.1612751 0.273949
vt 0.1205633 0.2719294
vt 0.1612751 0.273949
vt 0.1607006 0.2728134
vt 0.1205633 0.2719294
vt 0.1618079 0.2464171
vt 0.1612751 0.273949
vt 0.1186562 0.2735494
vt 0.2079954 0.2528191
vt 0.2079434 0.1988948
vt 0.1070343 0.11348
vt 0.1770256 0.1135971
vt 0.1065694 0.1161371
vt 0.1770256 0.1135971
vt 0.1785554 0.1171118
vt 0.1065694 0.1161371
vt 0.1969107 0.4278296
vt 0.1247059 0.4283353
vt 0.1971216 0.477894
vt 0.1247059 0.4283353
vt 0.1211952 0.4963741
vt 0.1971216 0.477894
vt 0.1963271 0.5507337
vt 0.1211952 0.4963741
vt 0.1220127 0.5510352
vt 0.1963271 0.5507337
vt 0.1607006 0.2728134
vt 0.1612751 0.273949
vt 0.2081561 0.2716332
vt 0.1612751 0.273949
vt 0.2079526 0.2733945
vt 0.2081561 0.2716332
vt 0.2079954 0.2528191
vt 0.2079526 0.2733945
vt 0.1612751 0.273949
vt 0.1770256 0.1135971
vt 0.2080959 0.113517
vt 0.1785554 0.1171118
vt 0.2080959 0.113517
vt 0.2081156 0.1150803
vt 0.1785554 0.1171118
vt 0.2081561 0.2716332
vt 0.2079902 0.2468099
vt 0.1830647 0.2463256
vt 0.1858246 0.1890061
vt 0.1830647 0.2463256
vt 0.2079897 0.1969365
vt 0.2079902 0.2468099
vt 0.2079425 0.1495808
vt 0.1089501 0.2471021
vt 0.1135387 0.2424957
vt 0.1085939 0.2006978
vt 0.1135387 0.2424957
vt 0.1132155 0.2007085
vt 0.1085939 0.2006978
vt 0.1136306 0.1447661
vt 0.1830647 0.2463256
vt 0.1858246 0.1890061
vt 0.1786709 0.2418145
vt 0.1858246 0.1890061
vt 0.1812053 0.1890675
vt 0.1786709 0.2418145
vt 0.1803792 0.1442716
vt 0.1089501 0.2471021
vt 0.1830647 0.2463256
vt 0.1135387 0.2424957
vt 0.1830647 0.2463256
vt 0.1786709 0.2418145
vt 0.1135387 0.2424957
vt 0.1090461 0.1402205
vt 0.1085939 0.2006978
vt 0.1136306 0.1447661
vt 0.1090461 0.1402205
vt 0.1136306 0.1447661
vt 0.1846798 0.1396585
vt 0.1136306 0.1447661
vt 0.1803792 0.1442716
vt 0.1846798 0.1396585
vt 0.1846798 0.1396585
vt 0.1803792 0.1442716
vt 0.1858246 0.1890061
vt 0.2167247 0.7488059
vt 0.2158052 0.7497423
vt 0.2167675 0.7543386
vt 0.2158052 0.7497423
vt 0.2158407 0.7543387
vt 0.2167675 0.7543386
vt 0.2167247 0.7488059
vt 0.2081012 0.7488962
vt 0.2089848 0.7498134
vt 0.2077657 0.7558798
vt 0.2086928 0.7558935
vt 0.2087847 0.7608773
vt 0.207875 0.7618108
vt 0.2167125 0.7617453
vt 0.2157926 0.7608253
vt 0.2167675 0.7543386
vt 0.2158407 0.7543387
vt 0.2081012 0.7488962
vt 0.2077657 0.7558798
vt 0.2089848 0.7498134
vt 0.2018436 0.4227118
vt 0.1969107 0.4278296
vt 0.2020832 0.4778886
vt 0.1969107 0.4278296
vt 0.1971216 0.477894
vt 0.2020832 0.4778886
vt 0.1963271 0.5507337
vt 0.1199675 0.4232874
vt 0.1162139 0.4962623
vt 0.1247059 0.4283353
vt 0.1162139 0.4962623
vt 0.1211952 0.4963741
vt 0.1247059 0.4283353
vt 0.1220127 0.5510352
vt 0.1199675 0.4232874
vt 0.1247059 0.4283353
vt 0.2018436 0.4227118
vt 0.1247059 0.4283353
vt 0.1969107 0.4278296
vt 0.2018436 0.4227118
vt 0.2012419 0.5557536
vt 0.2020832 0.4778886
vt 0.1963271 0.5507337
vt 0.1171145 0.5560936
vt 0.2012419 0.5557536
vt 0.1220127 0.5510352
vt 0.2012419 0.5557536
vt 0.1963271 0.5507337
vt 0.1220127 0.5510352
vt 0.1171145 0.5560936
vt 0.1220127 0.5510352
vt 0.1162139 0.4962623
vn -0.1406297 0.08592961 0.9863262
vn -0.1406297 0.0859296 0.9863262
vn -0.1406297 0.0859296 0.9863262
vn -0.02731797 -0.02484035 0.9993181
vn -0.02731797 -0.02484035 0.9993181
vn -0.02731797 -0.02484035 0.9993181
vn -0.0137427 0.01888762 0.9997272
vn -0.01008159 0.9962429 0.08601447
vn -0.01008159 0.9962429 0.08601446
vn -0.0100816 0.9962429 0.08601447
vn -0.00840023 0.9965255 0.08286346
vn -0.03988872 0.01846019 -0.9990336
vn -0.03988872 0.01846019 -0.9990336
vn -0.03988872 0.01846019 -0.9990336
vn 0.003186015 0.05968121 -0.9982123
vn 0.003186015 0.05968121 -0.9982123
vn 0.003186015 0.05968121 -0.9982123
vn 0.02886272 -0.9923036 -0.1204182
vn 0.02886271 -0.9923036 -0.1204182
vn 0.02886272 -0.9923036 -0.1204182
vn 0.03387926 -0.9928428 -0.1145221
vn 0.03387927 -0.9928428 -0.1145221
vn 0.03387926 -0.9928428 -0.1145221
vn 0.9999884 0.004590746 0.001431462
vn 0.9999884 0.004590746 0.001431462
vn 0.9999884 0.004590746 0.001431462
vn 0.9999908 0.004232911 0.0007239112
vn 0.999999 -0.0009582894 0.0009655743
vn -0.9983557 0.01685111 -0.054789
vn -0.9983557 0.01685111 -0.054789
vn -0.9983557 0.01685111 -0.054789
vn -0.9962326 -0.06452544 0.05794081
vn -0.9962326 -0.06452545 0.05794082
vn -0.9962326 -0.06452544 0.05794081
vn -0.02740618 -0.000277435 0.9996244
vn -0.02740617 -0.000277435 0.9996244
vn -0.02740617 -0.000277435 0.9996244
vn -0.009525442 0.01828814 0.9997874
vn -0.01312099 -0.03012953 0.9994599
vn 0.005807725 0.01095714 0.9999231
vn 0.01022366 0.002070792 0.9999456
vn -0.0009595603 -0.007370587 0.9999725
vn 0.005175745 -0.0005691636 -0.9999865
vn 0.005175745 -0.0005691636 -0.9999865
vn 0.005175746 -0.0005691636 -0.9999865
vn 0.01731424 -0.01191069 -0.9997792
vn 0.01884287 -0.0004959419 -0.9998223
vn 0.02504875 -0.003888132 -0.9996786
vn 0.02339319 0.04177359 -0.9988532
vn 0.006709221 0.01425836 -0.9998758
vn 0.006709222 0.01425836 -0.9998758
vn 0.006363029 -0.007899449 -0.9999486
vn 0.007646941 -0.003261911 -0.9999654
vn -0.01762652 -0.00903211 -0.9998038
vn -0.006441011 -0.003855225 -0.9999719
vn 0.03530546 0.05141009 -0.9980533
vn 0.03530545 0.05141009 -0.9980533
vn -0.004396979 0.04356918 -0.9990407
vn -0.004396978 0.04356917 -0.9990407
vn 0.005453973 0.06653614 -0.9977691
vn -0.006199749 0.06200579 -0.9980565
vn 0.02941785 0.02891056 -0.9991491
vn 0.02941785 0.02891057 -0.9991491
vn 0.9999766 -0.006484037 -0.002181539
vn 0.9999766 -0.006484037 -0.00218154
vn 0.9999766 -0.006484036 -0.002181539
vn 0.9999484 0.0009974571 -0.01010938
vn 0.9999965 -1.041581E-05 -0.002619526
vn 0.9999965 -1.041581E-05 -0.002619525
vn 0.9999967 0.0002927218 -0.002585909
vn -0.99992 0.01180074 0.004560239
vn -0.99992 0.01180074 0.004560239
vn -0.99992 0.01180074 0.004560238
vn -0.9997854 0.0196194 0.006665195
vn -0.9926397 0.07604553 -0.09425353
vn -0.9926397 0.07604554 -0.09425353
vn -0.9926397 0.07604553 -0.09425354
vn 0.0260899 -0.001645716 0.9996582
vn 0.0260899 -0.001645716 0.9996582
vn 0.0260899 -0.001645715 0.9996582
vn 0.02642334 0.000704559 0.9996506
vn -0.9993789 0.03293552 -0.01253033
vn -0.9993789 0.03293552 -0.01253033
vn -0.9993789 0.03293552 -0.01253033
vn -0.9998253 0.01162419 -0.0146385
vn -0.9980847 -0.0139724 0.06026359
vn -0.9980847 -0.0139724 0.0602636
vn -0.9980847 -0.0139724 0.06026359
vn 0.04024855 0.08605358 0.9954773
vn 0.04024855 0.08605359 0.9954773
vn 0.04024855 0.08605359 0.9954773
vn 0.009102546 -0.003696512 0.9999517
vn 0.009102546 -0.003696512 0.9999517
vn 0.009102546 -0.003696512 0.9999517
vn 0.03345181 -0.0108466 0.9993814
vn 0.008874591 -0.03285884 0.9994206
vn -0.001873003 -0.007659229 0.9999689
vn -0.02486792 0.9961193 0.08442759
vn -0.02486792 0.9961193 0.08442757
vn -0.02486793 0.9961193 0.08442759
vn -0.03510478 0.9974717 0.06178952
vn -0.03510479 0.9974717 0.06178953
vn -0.03510478 0.9974717 0.06178953
vn 0.03202944 0.05534329 -0.9979535
vn 0.03202944 0.05534329 -0.9979535
vn 0.03202944 0.05534329 -0.9979535
vn 0.03116498 0.0553281 -0.9979817
vn 0.03326606 0.04036462 -0.9986311
vn -0.002958952 -0.9934927 -0.1138577
vn -0.002958952 -0.9934927 -0.1138577
vn -0.002958952 -0.9934927 -0.1138577
vn 0.01271188 -0.9858403 -0.1672041
vn 0.01271187 -0.9858403 -0.1672041
vn 0.01271187 -0.9858403 -0.1672041
vn 0.02164305 -0.04545765 0.9987318
vn 0.02164305 -0.04545765 0.9987318
vn 0.02164305 -0.04545765 0.9987318
vn -0.01622329 0.008346957 0.9998336
vn -0.01622328 0.008346957 0.9998336
vn -0.01622328 0.008346956 0.9998336
vn -0.01199903 0.02414401 0.9996365
vn 0.01527323 -0.01328501 0.9997951
vn 0.01527323 -0.01328501 0.9997951
vn 0.01527323 -0.01328501 0.9997951
vn 0.02476213 0.9976612 0.06370912
vn 0.02476213 0.9976612 0.06370912
vn 0.02476213 0.9976612 0.06370913
vn 0.01542897 0.9960231 0.08774985
vn 0.01542896 0.9960231 0.08774985
vn 0.01542897 0.9960231 0.08774985
vn -0.04196607 -0.1063125 -0.9934468
vn -0.04196607 -0.1063125 -0.9934468
vn -0.04196607 -0.1063125 -0.9934468
vn -0.008191808 -0.98563 -0.16872
vn -0.008191808 -0.98563 -0.16872
vn -0.008191808 -0.98563 -0.16872
vn -0.06606089 -0.9943613 -0.08295472
vn -0.06606089 -0.9943613 -0.08295472
vn -0.06606089 -0.9943613 -0.08295473
vn 0.08400833 -0.09154752 0.9922507
vn 0.08400833 -0.09154753 0.9922507
vn 0.08400833 -0.09154753 0.9922507
vn 0.09942011 0.008961123 0.9950052
vn 0.09942012 0.008961124 0.9950052
vn 0.09942012 0.008961124 0.9950052
vn 0.08258396 0.0003963645 0.9965841
vn 0.08754772 0.04162726 0.9952902
vn 0.7278417 -0.026313 0.6852402
vn 0.7278417 -0.026313 0.6852402
vn 0.7278417 -0.026313 0.6852403
vn 0.7361493 -0.02812595 0.6762345
vn 0.7361494 -0.02812596 0.6762345
vn 0.7361493 -0.02812596 0.6762345
vn 0.7362608 0.01913877 0.6764272
vn -0.7335579 -0.03808825 0.6785588
vn -0.7335579 -0.03808826 0.6785588
vn -0.7335579 -0.03808826 0.6785588
vn -0.7084181 -0.0316323 0.7050838
vn -0.7084181 -0.03163231 0.7050838
vn -0.7084181 -0.0316323 0.7050838
vn -0.7085264 0.006622128 0.7056533
vn 0.0002788168 -0.6838845 0.7295902
vn 0.0002788168 -0.6838845 0.7295902
vn 0.0002788168 -0.6838845 0.7295903
vn -0.005545552 -0.6359279 0.7717285
vn -0.005545551 -0.635928 0.7717284
vn -0.005545551 -0.6359279 0.7717285
vn 0.6141955 0.0002858432 0.7891539
vn 0.6141955 0.0002858432 0.7891538
vn 0.6141955 0.0002858433 0.7891539
vn -0.006374718 0.5970858 0.802152
vn -0.006374719 0.5970858 0.802152
vn -0.006374719 0.5970858 0.802152
vn 0.01254856 0.7448716 0.6670897
vn 0.01254857 0.7448717 0.6670896
vn 0.01254857 0.7448717 0.6670897
vn -0.7540801 0.01856329 0.6565202
vn -0.7540801 0.01856329 0.6565202
vn -0.7540801 0.01856329 0.6565202
vn -0.02407761 -0.03278844 0.9991722
vn -0.02407761 -0.03278844 0.9991722
vn -0.02407761 -0.03278844 0.9991722
vn -0.0008889983 -0.03779177 0.9992853
vn -0.0008889984 -0.03779177 0.9992853
vn -0.0008889983 -0.03779177 0.9992853
vn 0.01184052 0.001478679 0.9999288
vn 0.01184051 0.001478678 0.9999288
vn -0.001418129 0.007237218 0.9999728
vn -0.001418128 0.007237217 0.9999728
vn -0.001418128 0.007237218 0.9999728
vn 0.01067015 0.01790111 0.9997829
vn 0.01067015 0.0179011 0.9997829
vn -0.01329017 0.02011412 0.9997093
vn -0.01329017 0.02011412 0.9997093
vn -0.01329017 0.02011412 0.9997093
vn -0.0008887441 0.02197885 0.9997581
vn -0.01695931 0.00411329 0.9998478
vn -0.0169593 0.00411329 0.9998478
vn -0.01695931 0.00411329 0.9998478
vn -0.7823071 -0.01732466 0.622652
vn -0.7823071 -0.01732465 0.622652
vn -0.782307 -0.01732466 0.6226521
vn -0.7616814 -0.02781313 0.6473544
vn -0.7616814 -0.02781313 0.6473544
vn -0.7616814 -0.02781313 0.6473544
vn -0.7619166 -0.009840851 0.6476002
vn 0.8157015 0.04340274 0.5768425
vn 0.8157015 0.04340275 0.5768425
vn 0.8157015 0.04340274 0.5768424
vn 0.7840533 0.03289042 0.6198215
vn 0.7840533 0.03289042 0.6198215
vn 0.7840533 0.03289042 0.6198215
vn 0.7844907 0.01391522 0.6199844
vn 0.001132975 0.8192196 0.5734788
vn 0.001132975 0.8192196 0.5734789
vn 0.001132975 0.8192196 0.5734788
vn -0.02913046 0.6682913 0.743329
vn -0.02913046 0.6682914 0.743329
vn -0.02913046 0.6682913 0.743329
vn -0.700264 0.01050214 0.7138066
vn -0.700264 0.01050214 0.7138066
vn -0.700264 0.01050214 0.7138066
vn -0.0002563598 -0.8825047 0.4703033
vn -0.0002563598 -0.8825048 0.4703033
vn -0.0002563598 -0.8825048 0.4703033
vn -0.03940196 -0.679759 0.7323763
vn -0.03940198 -0.6797591 0.7323763
vn -0.03940197 -0.6797591 0.7323763
vn 0.8848608 -0.02191258 0.4653397
vn 0.8848609 -0.02191258 0.4653397
vn 0.8848609 -0.02191258 0.4653397
g singleDoor_0
f 3/3/3 2/2/2 1/1/1
f 6/6/6 5/5/5 4/4/4
f 7/7/7 5/5/5 6/6/6
f 10/10/10 9/9/9 8/8/8
f 10/10/10 11/11/11 9/9/9
f 14/14/14 13/13/13 12/12/12
f 17/17/17 16/16/16 15/15/15
f 20/20/20 19/19/19 18/18/18
f 23/23/23 22/22/22 21/21/21
f 26/26/26 25/25/25 24/24/24
f 26/26/26 27/27/27 25/25/25
f 26/26/26 28/28/28 27/27/27
f 31/31/31 30/30/30 29/29/29
f 34/34/34 33/33/33 32/32/32
f 37/37/37 36/36/36 35/35/35
f 37/37/37 38/38/38 36/36/36
f 39/39/39 37/37/37 35/35/35
f 37/37/37 40/40/40 38/38/38
f 37/37/37 41/41/41 40/40/40
f 41/41/41 42/42/42 40/40/40
f 45/45/45 44/44/44 43/43/43
f 45/45/45 46/46/46 44/44/44
f 46/46/46 47/47/47 44/44/44
f 46/46/46 48/48/48 47/47/47
f 49/49/49 47/47/47 48/48/48
f 50/50/50 46/46/46 45/45/45
f 51/51/51 50/50/50 45/45/45
f 50/50/50 52/52/52 46/46/46
f 52/52/52 48/48/48 46/46/46
f 52/52/52 53/53/53 48/48/48
f 50/50/50 54/54/54 52/52/52
f 52/52/52 55/55/55 53/53/53
f 52/52/52 54/54/54 55/55/55
f 49/49/49 57/57/57 56/56/56
f 59/59/59 58/58/58 49/49/49
f 59/59/59 60/60/60 58/58/58
f 61/61/61 58/58/58 60/60/60
f 63/63/63 62/62/62 58/58/58
f 66/66/66 65/65/65 64/64/64
f 66/66/66 67/67/67 65/65/65
f 68/68/68 66/66/66 64/64/64
f 68/68/68 64/64/64 69/69/69
f 70/70/70 68/68/68 69/69/69
f 73/73/73 72/72/72 71/71/71
f 71/71/71 72/72/72 74/74/74
f 77/77/77 76/76/76 75/75/75
f 80/80/80 79/79/79 78/78/78
f 80/80/80 78/78/78 81/81/81
f 84/84/84 83/83/83 82/82/82
f 82/82/82 83/83/83 85/85/85
f 88/88/88 87/87/87 86/86/86
f 91/91/91 90/90/90 89/89/89
f 94/94/94 93/93/93 92/92/92
f 95/95/95 93/93/93 94/94/94
f 95/95/95 96/96/96 93/93/93
f 96/96/96 97/97/97 93/93/93
f 100/100/100 99/99/99 98/98/98
f 103/103/103 102/102/102 101/101/101
f 106/106/106 105/105/105 104/104/104
f 105/105/105 107/107/107 104/104/104
f 104/104/104 107/107/107 108/108/108
f 111/111/111 110/110/110 109/109/109
f 114/114/114 113/113/113 112/112/112
f 117/117/117 116/116/116 115/115/115
f 120/120/120 119/119/119 118/118/118
f 121/121/121 119/119/119 120/120/120
f 124/124/124 123/123/123 122/122/122
f 127/127/127 126/126/126 125/125/125
f 130/130/130 129/129/129 128/128/128
f 133/133/133 132/132/132 131/131/131
f 136/136/136 135/135/135 134/134/134
f 139/139/139 138/138/138 137/137/137
f 142/142/142 141/141/141 140/140/140
f 145/145/145 144/144/144 143/143/143
f 145/145/145 146/146/146 144/144/144
f 147/147/147 145/145/145 143/143/143
f 150/150/150 149/149/149 148/148/148
f 153/153/153 152/152/152 151/151/151
f 154/154/154 152/152/152 153/153/153
f 157/157/157 156/156/156 155/155/155
f 160/160/160 159/159/159 158/158/158
f 158/158/158 159/159/159 161/161/161
f 164/164/164 163/163/163 162/162/162
f 167/167/167 166/166/166 165/165/165
f 170/170/170 169/169/169 168/168/168
f 173/173/173 172/172/172 171/171/171
f 176/176/176 175/175/175 174/174/174
f 179/179/179 178/178/178 177/177/177
f 182/182/182 181/181/181 180/180/180
f 185/185/185 184/184/184 183/183/183
f 183/183/183 187/187/187 186/186/186
f 183/183/183 188/188/188 187/187/187
f 188/188/188 190/190/190 189/189/189
f 189/189/189 190/190/190 191/191/191
f 189/189/189 191/191/191 192/192/192
f 191/191/191 193/193/193 192/192/192
f 191/191/191 194/194/194 193/193/193
f 194/194/194 195/195/195 193/193/193
f 194/194/194 196/196/196 195/195/195
f 199/199/199 198/198/198 197/197/197
f 202/202/202 201/201/201 200/200/200
f 205/205/205 204/204/204 203/203/203
f 206/206/206 204/204/204 205/205/205
f 209/209/209 208/208/208 207/207/207
f 212/212/212 211/211/211 210/210/210
f 210/210/210 211/211/211 213/213/213
f 216/216/216 215/215/215 214/214/214
f 219/219/219 218/218/218 217/217/217
f 222/222/222 221/221/221 220/220/220
f 225/225/225 224/224/224 223/223/223
f 228/228/228 227/227/227 226/226/226
f 231/231/231 230/230/230 229/229/229
