g stickHelm_break01
v -0.04505432 -0.3517776 0.06601196
v -0.05890442 -0.2718828 0.07497437
v 0.05890564 -0.2718828 0.07497437
v 0.04505554 -0.3517776 0.06601196
v 0.04505554 -0.3517776 0.06601196
v 0.05890564 -0.2718828 0.07497437
v 0.06864075 -0.2744379 0.007869873
v 0.05250183 -0.3537315 0.01813964
v 0.04505554 -0.3561443 -0.04095581
v 0.05890564 -0.2775928 -0.07497435
v -0.05890442 -0.2775928 -0.07497437
v -0.04505432 -0.3561443 -0.04095581
v -0.05250183 -0.3537316 0.01813964
v -0.06864075 -0.2744379 0.007869873
v -0.05890442 -0.2718828 0.07497437
v -0.04505432 -0.3517776 0.06601196
v -0.05250183 -0.3537316 0.01813964
v -0.04505432 -0.3517776 0.06601196
v 0.04505554 -0.3517776 0.06601196
v 0.05250183 -0.3537315 0.01813964
v -0.04505432 -0.3561443 -0.04095581
v 0.04505554 -0.3561443 -0.04095581
v -0.0465387 -0.2417498 0.06435425
v -0.04282044 0.02113678 0.06250855
v 0.04281677 0.07587819 0.06250855
v 0.04653747 -0.2417498 0.06435425
v 0.0542279 -0.2057811 0.02376953
v 0.04653747 -0.2417498 0.06435425
v 0.04281677 0.07587819 0.06250855
v 0.04989441 0.07587819 0.03665527
v 0.04281677 0.07587819 0.06250855
v 0.04358093 0.2006002 0.05553715
v -0.0465387 -0.02053318 -0.02633179
v 0.04653747 -0.02053318 -0.02633179
v 0.04281799 0.07587819 0.004737549
v -0.04281921 0.07587819 0.004737549
v -0.0465387 -0.2417498 0.06435425
v -0.05422913 -0.2057811 0.02376953
v -0.04989563 0.07587819 0.03665527
v -0.04282044 0.02113678 0.06250855
v -0.04282044 0.02113678 0.06250855
v -0.04358215 0.2006005 0.05553716
v -0.05890442 -0.2718828 0.07497437
v -0.0465387 -0.2417498 0.06435425
v 0.04653747 -0.2417498 0.06435425
v 0.05890564 -0.2718828 0.07497437
v 0.06864075 -0.2744379 0.007869873
v 0.05890564 -0.2718828 0.07497437
v 0.04653747 -0.2417498 0.06435425
v 0.0542279 -0.2057811 0.02376953
v -0.05890442 -0.2775928 -0.07497437
v 0.05890564 -0.2775928 -0.07497435
v 0.04653747 -0.02053318 -0.02633179
v -0.0465387 -0.02053318 -0.02633179
v -0.05890442 -0.2718828 0.07497437
v -0.06864075 -0.2744379 0.007869873
v -0.05422913 -0.2057811 0.02376953
v -0.0465387 -0.2417498 0.06435425
v -0.0376593 0.2858178 0.07293823
v 0.03766052 0.3124721 0.07293823
v -6.103515E-07 0.1650764 0.06764228
v 0.04281677 0.07587819 0.06250855
v 0.03766052 0.3124721 0.07293823
v 0.04358093 0.2006002 0.05553715
v 0.04281799 0.07587819 0.004737549
v 0.0376593 0.3137133 0.02212891
v -6.103515E-07 0.1993843 0.01329813
v -0.04989563 0.07587819 0.03665527
v -0.04388489 0.3267886 0.05020142
v -0.04358215 0.2006005 0.05553716
v -0.04281921 0.07587819 0.004737549
v -0.03766052 0.3267886 0.0221289
v -0.04358337 0.2004579 0.02837103
v -0.05422913 -0.2057811 0.02376953
v -0.0465387 -0.02053318 -0.02633179
v -0.04281921 0.07587819 0.004737549
v -0.04989563 0.07587819 0.03665527
v -0.06864075 -0.2744379 0.007869873
v -0.05890442 -0.2775928 -0.07497437
v -0.0465387 -0.02053318 -0.02633179
v -0.05422913 -0.2057811 0.02376953
v -0.04505432 -0.3561443 -0.04095581
v -0.05890442 -0.2775928 -0.07497437
v -0.06864075 -0.2744379 0.007869873
v -0.05250183 -0.3537316 0.01813964
v 0.06864075 -0.2744379 0.007869873
v 0.05890564 -0.2775928 -0.07497435
v 0.04505554 -0.3561443 -0.04095581
v 0.05250183 -0.3537315 0.01813964
v 0.05890564 -0.2775928 -0.07497435
v 0.06864075 -0.2744379 0.007869873
v 0.0542279 -0.2057811 0.02376953
v 0.04653747 -0.02053318 -0.02633179
v 0.04653747 -0.02053318 -0.02633179
v 0.0542279 -0.2057811 0.02376953
v 0.04989441 0.07587819 0.03665527
v 0.04281799 0.07587819 0.004737549
v 0.04989441 0.07587819 0.03665527
v 0.04388367 0.3267886 0.05020142
v 0.04358215 0.2004579 0.02837103
v -0.04388489 0.3267886 0.05020142
v -0.03766052 0.3267886 0.0221289
v -6.103515E-07 0.3561443 0.04756484
v -0.04282044 0.02113678 0.06250855
v -6.103515E-07 0.1650764 0.06764228
v 0.04281677 0.07587819 0.06250855
v -6.103515E-07 0.1650764 0.06764228
v 0.03766052 0.3124721 0.07293823
v 0.04281677 0.07587819 0.06250855
v -0.04282044 0.02113678 0.06250855
v -0.0376593 0.2858178 0.07293823
v -6.103515E-07 0.1650764 0.06764228
v 0.04989441 0.07587819 0.03665527
v 0.04358093 0.2006002 0.05553715
v 0.04388367 0.3267886 0.05020142
v 0.04358093 0.2006002 0.05553715
v 0.03766052 0.3124721 0.07293823
v 0.04388367 0.3267886 0.05020142
v -0.04281921 0.07587819 0.004737549
v -6.103515E-07 0.1993843 0.01329813
v -0.03766052 0.3267886 0.0221289
v -6.103515E-07 0.1993843 0.01329813
v 0.0376593 0.3137133 0.02212891
v -0.03766052 0.3267886 0.0221289
v -0.04281921 0.07587819 0.004737549
v 0.04281799 0.07587819 0.004737549
v -6.103515E-07 0.1993843 0.01329813
v -0.04282044 0.02113678 0.06250855
v -0.04358215 0.2006005 0.05553716
v -0.0376593 0.2858178 0.07293823
v -0.04358215 0.2006005 0.05553716
v -0.04388489 0.3267886 0.05020142
v -0.0376593 0.2858178 0.07293823
v -0.04989563 0.07587819 0.03665527
v -0.04358337 0.2004579 0.02837103
v -0.04388489 0.3267886 0.05020142
v -0.04358337 0.2004579 0.02837103
v -0.03766052 0.3267886 0.0221289
v -0.04388489 0.3267886 0.05020142
v -0.04989563 0.07587819 0.03665527
v -0.04281921 0.07587819 0.004737549
v 0.04281799 0.07587819 0.004737549
v 0.04358215 0.2004579 0.02837103
v 0.0376593 0.3137133 0.02212891
v 0.04358215 0.2004579 0.02837103
v 0.04388367 0.3267886 0.05020142
v 0.0376593 0.3137133 0.02212891
v 0.04281799 0.07587819 0.004737549
v 0.04989441 0.07587819 0.03665527
v 0.04358215 0.2004579 0.02837103
v 0.03766052 0.3124721 0.07293823
v -6.103515E-07 0.3561443 0.04756484
v 0.04388367 0.3267886 0.05020142
v -6.103515E-07 0.3561443 0.04756484
v 0.0376593 0.3137133 0.02212891
v 0.04388367 0.3267886 0.05020142
v -6.103515E-07 0.3561443 0.04756484
v -0.03766052 0.3267886 0.0221289
v 0.0376593 0.3137133 0.02212891
v -0.0376593 0.2858178 0.07293823
v -0.04388489 0.3267886 0.05020142
v -6.103515E-07 0.3561443 0.04756484
v 0.03766052 0.3124721 0.07293823
v -0.0376593 0.2858178 0.07293823
v -6.103515E-07 0.3561443 0.04756484
vt 0.06678428 0.5224465
vt 0.06612735 0.5278525
vt 0.06533393 0.5276939
vt 0.06617741 0.5223252
vt 0.06617741 0.5223252
vt 0.06533393 0.5276939
vt 0.07088546 0.5275012
vt 0.0701343 0.5221782
vt 0.07513121 0.5220192
vt 0.07788541 0.5272927
vt 0.07867882 0.5274513
vt 0.07573808 0.5221406
vt 0.07084147 0.5223197
vt 0.07181003 0.5276861
vt 0.06612735 0.5278525
vt 0.06678428 0.5224465
vt 0.07084147 0.5223197
vt 0.06678428 0.5224465
vt 0.06617741 0.5223252
vt 0.0701343 0.5221782
vt 0.07573808 0.5221406
vt 0.07513121 0.5220192
vt 0.06693291 0.5298662
vt 0.06706243 0.5441077
vt 0.06648568 0.5439923
vt 0.06630608 0.5297409
vt 0.06965141 0.532151
vt 0.06630608 0.5297409
vt 0.06648568 0.5439923
vt 0.06860208 0.5439801
vt 0.06648568 0.5439923
vt 0.06712471 0.551284
vt 0.07452381 0.5352749
vt 0.07389697 0.5351496
vt 0.07132129 0.5439861
vt 0.07189803 0.5441015
vt 0.06693291 0.5298662
vt 0.07038184 0.5322971
vt 0.06927414 0.5441144
vt 0.06706243 0.5441077
vt 0.06706243 0.5441077
vt 0.06758113 0.5514015
vt 0.06612735 0.5278525
vt 0.06693291 0.5298662
vt 0.06630608 0.5297409
vt 0.06533393 0.5276939
vt 0.07088546 0.5275012
vt 0.06533393 0.5276939
vt 0.06630608 0.5297409
vt 0.06965141 0.532151
vt 0.07867882 0.5274513
vt 0.07788541 0.5272927
vt 0.07389697 0.5351496
vt 0.07452381 0.5352749
vt 0.06612735 0.5278525
vt 0.07181003 0.5276861
vt 0.07038184 0.5322971
vt 0.06693291 0.5298662
vt 0.06615461 0.5586894
vt 0.06564733 0.5585879
vt 0.06635489 0.5513478
vt 0.06648568 0.5439923
vt 0.06564733 0.5585879
vt 0.06712471 0.551284
vt 0.07132129 0.5439861
vt 0.06990041 0.5585824
vt 0.07089922 0.551342
vt 0.06927414 0.5441144
vt 0.06809983 0.5586953
vt 0.06758113 0.5514015
vt 0.07189803 0.5441015
vt 0.07040767 0.5586839
vt 0.06984091 0.5513991
vt 0.07038184 0.5322971
vt 0.07452381 0.5352749
vt 0.07189803 0.5441015
vt 0.06927414 0.5441144
vt 0.07181003 0.5276861
vt 0.07867882 0.5274513
vt 0.07452381 0.5352749
vt 0.07038184 0.5322971
vt 0.07573808 0.5221406
vt 0.07867882 0.5274513
vt 0.07181003 0.5276861
vt 0.07084147 0.5223197
vt 0.07088546 0.5275012
vt 0.07788541 0.5272927
vt 0.07513121 0.5220192
vt 0.0701343 0.5221782
vt 0.07788541 0.5272927
vt 0.07088546 0.5275012
vt 0.06965141 0.532151
vt 0.07389697 0.5351496
vt 0.07389697 0.5351496
vt 0.06965141 0.532151
vt 0.06860208 0.5439801
vt 0.07132129 0.5439861
vt 0.06860208 0.5439801
vt 0.06750872 0.5585771
vt 0.069415 0.5512816
vt 0.06809983 0.5586953
vt 0.07040767 0.5586839
vt 0.0680275 0.5586359
vt 0.06706243 0.5441077
vt 0.06635489 0.5513478
vt 0.06648568 0.5439923
vt 0.06635489 0.5513478
vt 0.06564733 0.5585879
vt 0.06648568 0.5439923
vt 0.06706243 0.5441077
vt 0.06615461 0.5586894
vt 0.06635489 0.5513478
vt 0.06860208 0.5439801
vt 0.06712471 0.551284
vt 0.06750872 0.5585771
vt 0.06712471 0.551284
vt 0.06564733 0.5585879
vt 0.06750872 0.5585771
vt 0.07189803 0.5441015
vt 0.07089922 0.551342
vt 0.07040767 0.5586839
vt 0.07089922 0.551342
vt 0.06990041 0.5585824
vt 0.07040767 0.5586839
vt 0.07189803 0.5441015
vt 0.07132129 0.5439861
vt 0.07089922 0.551342
vt 0.06706243 0.5441077
vt 0.06758113 0.5514015
vt 0.06615461 0.5586894
vt 0.06758113 0.5514015
vt 0.06809983 0.5586953
vt 0.06615461 0.5586894
vt 0.06927414 0.5441144
vt 0.06984091 0.5513991
vt 0.06809983 0.5586953
vt 0.06984091 0.5513991
vt 0.07040767 0.5586839
vt 0.06809983 0.5586953
vt 0.06927414 0.5441144
vt 0.07189803 0.5441015
vt 0.07132129 0.5439861
vt 0.069415 0.5512816
vt 0.06990041 0.5585824
vt 0.069415 0.5512816
vt 0.06750872 0.5585771
vt 0.06990041 0.5585824
vt 0.07132129 0.5439861
vt 0.06860208 0.5439801
vt 0.069415 0.5512816
vt 0.06564733 0.5585879
vt 0.0680275 0.5586359
vt 0.06750872 0.5585771
vt 0.0680275 0.5586359
vt 0.06990041 0.5585824
vt 0.06750872 0.5585771
vt 0.0680275 0.5586359
vt 0.07040767 0.5586839
vt 0.06990041 0.5585824
vt 0.06615461 0.5586894
vt 0.06809983 0.5586953
vt 0.0680275 0.5586359
vt 0.06564733 0.5585879
vt 0.06615461 0.5586894
vt 0.0680275 0.5586359
vn 0 -0.1383674 0.9903809
vn 0 -0.1383674 0.9903809
vn 0 -0.1383674 0.9903809
vn 0 -0.1383673 0.9903809
vn 0.9627531 -0.2243325 0.1509356
vn 0.9627531 -0.2243324 0.1509356
vn 0.9627531 -0.2243324 0.1509356
vn 0.9627531 -0.2243324 0.1509356
vn 0 -0.4747075 -0.8801437
vn 0 -0.4747075 -0.8801437
vn 0 -0.4747075 -0.8801437
vn 0 -0.4747075 -0.8801437
vn -0.9627538 -0.2243306 0.1509336
vn -0.9627538 -0.2243306 0.1509336
vn -0.9627538 -0.2243306 0.1509336
vn -0.9627538 -0.2243306 0.1509336
vn 0 -0.9994634 0.03275692
vn 0 -0.9994634 0.03275694
vn 0 -0.9994634 0.03275692
vn 0 -0.9994634 0.03275692
vn 4.216533E-07 -0.9994631 0.03276374
vn 4.216532E-07 -0.9994631 0.03276374
vn 0 0.01087994 0.9999409
vn 0 0.01087994 0.9999409
vn 0 0.01087994 0.9999409
vn 0 0.01087994 0.9999409
vn 0.9744085 0.01730635 0.224117
vn 0.9744085 0.01730635 0.224117
vn 0.9744085 0.01730635 0.224117
vn 0.9744085 0.01730635 0.224117
vn 0.9644412 0.01278586 0.2639881
vn 0.9644724 0.008849258 0.2640356
vn 0 0.2833926 -0.9590039
vn 0 0.2833926 -0.9590039
vn 0 0.2833926 -0.9590039
vn 0 0.2833927 -0.9590039
vn -0.9744084 0.01730792 0.2241178
vn -0.9744084 0.01730792 0.2241178
vn -0.9744084 0.01730792 0.2241178
vn -0.9744084 0.01730792 0.2241178
vn -0.9644411 0.01278725 0.2639884
vn -0.9608175 0.006686171 0.2771013
vn 0 0.4018803 0.9156922
vn 0 0.4018803 0.9156922
vn 0 0.4018803 0.9156922
vn 0 0.4018803 0.9156922
vn 0.9277257 0.2982534 0.2244323
vn 0.9277257 0.2982534 0.2244323
vn 0.9277257 0.2982534 0.2244323
vn 0.9277258 0.2982534 0.2244323
vn 0 0.4622556 -0.8867467
vn 0 0.4622556 -0.8867467
vn 0 0.4622556 -0.8867467
vn 0 0.4622556 -0.8867467
vn -0.9277295 0.2982449 0.2244282
vn -0.9277295 0.2982449 0.2244282
vn -0.9277295 0.2982449 0.2244282
vn -0.9277295 0.2982449 0.2244282
vn 0 -0.05992909 0.9982027
vn 0 -0.0599291 0.9982027
vn 0.01396673 -0.03946732 0.9991233
vn 0.9644412 0.01278586 0.2639881
vn 0.9644412 0.01278586 0.2639881
vn 0.963107 0.009133088 0.2689637
vn 0 0.09959926 -0.9950276
vn 0 0.09959925 -0.9950276
vn 0.01169256 0.0731762 -0.9972505
vn -0.9644411 0.01278725 0.2639884
vn -0.9644411 0.01278725 0.2639884
vn -0.9644744 0.008850327 0.2640281
vn -0.9750397 0.05059056 -0.21619
vn -0.9750397 0.05059056 -0.21619
vn -0.9756901 0.03505469 -0.2163327
vn -0.9866209 0.05944158 -0.1518091
vn -0.9866209 0.05944158 -0.1518091
vn -0.9866209 0.05944158 -0.1518091
vn -0.9866209 0.05944158 -0.1518091
vn -0.9750093 0.2088413 -0.07577749
vn -0.9750093 0.2088414 -0.0757775
vn -0.9750093 0.2088413 -0.0757775
vn -0.9750093 0.2088414 -0.07577751
vn -0.9583836 -0.264396 -0.1076828
vn -0.9583836 -0.264396 -0.1076828
vn -0.9583836 -0.2643959 -0.1076827
vn -0.9583836 -0.264396 -0.1076828
vn 0.9583828 -0.2643984 -0.1076844
vn 0.9583828 -0.2643984 -0.1076844
vn 0.9583828 -0.2643984 -0.1076844
vn 0.9583828 -0.2643984 -0.1076844
vn 0.9750081 0.2088467 -0.0757781
vn 0.9750081 0.2088467 -0.07577811
vn 0.9750081 0.2088467 -0.0757781
vn 0.9750081 0.2088467 -0.0757781
vn 0.9866209 0.05943915 -0.1518099
vn 0.9866209 0.05943914 -0.1518099
vn 0.9866209 0.05943915 -0.1518098
vn 0.9866209 0.05943915 -0.1518098
vn 0.9750398 0.05058895 -0.2161898
vn 0.9750398 0.05058894 -0.2161898
vn 0.9756932 0.03505201 -0.2163197
vn -0.5568637 0.8213757 -0.12347
vn -0.5568637 0.8213757 -0.12347
vn -0.5568637 0.8213757 -0.12347
vn 0 -0.05992908 0.9982027
vn 0.02811348 -0.04398056 0.9986367
vn 0 -0.05992908 0.9982027
vn 0.02935864 -0.04338233 0.9986271
vn 0 -0.0599291 0.9982027
vn 0 -0.05992908 0.9982027
vn 0 -0.05992908 0.9982027
vn 0 -0.05992909 0.9982027
vn 0.01343811 -0.03963226 0.999124
vn 0.9644412 0.01278586 0.2639881
vn 0.9644742 0.008850329 0.2640287
vn 0.9644412 0.01278586 0.2639881
vn 0.9630148 0.009076377 0.2692956
vn 0.9644412 0.01278586 0.2639881
vn 0.9644412 0.01278586 0.2639881
vn 0 0.09959926 -0.9950276
vn 0 0.06914711 -0.9976065
vn 0 0.09959925 -0.9950276
vn 0.0126487 0.0728621 -0.9972618
vn 0 0.09959925 -0.9950276
vn 0 0.09959925 -0.9950276
vn 0 0.09959926 -0.9950276
vn 0 0.09959926 -0.9950276
vn 0 0.06914707 -0.9976065
vn -0.9644411 0.01278725 0.2639884
vn -0.956892 0.007217491 0.2903541
vn -0.9644411 0.01278725 0.2639884
vn -0.9599439 0.009537794 0.2800298
vn -0.9644411 0.01278725 0.2639884
vn -0.9644411 0.01278725 0.2639884
vn -0.9750397 0.05059056 -0.21619
vn -0.9756932 0.03505211 -0.2163197
vn -0.9750397 0.05059055 -0.21619
vn -0.9756898 0.03505464 -0.2163344
vn -0.9750397 0.05059056 -0.21619
vn -0.9750397 0.05059055 -0.21619
vn -0.9750397 0.05059056 -0.21619
vn -0.9750397 0.05059056 -0.21619
vn 0.9750398 0.05058895 -0.2161898
vn 0.9719769 0.03804531 -0.2319772
vn 0.9750398 0.05058895 -0.2161898
vn 0.971703 0.03796733 -0.2331345
vn 0.9750398 0.05058894 -0.2161898
vn 0.9750398 0.05058895 -0.2161898
vn 0.9750398 0.05058895 -0.2161898
vn 0.9750398 0.05058895 -0.2161898
vn 0.9756933 0.03505225 -0.2163191
vn 0.4363328 0.7027499 0.5619221
vn 0.4363327 0.7027499 0.5619221
vn 0.4363328 0.7027499 0.5619221
vn 0.5142866 0.7281152 -0.4531639
vn 0.5142866 0.7281152 -0.4531639
vn 0.5142866 0.7281152 -0.4531639
vn 0.09987077 0.5753006 -0.811822
vn 0.09987077 0.5753006 -0.811822
vn 0.09987077 0.5753007 -0.811822
vn -0.2438109 0.4420088 0.8632407
vn -0.2438109 0.4420088 0.8632407
vn -0.2438109 0.4420088 0.8632407
vn -0.1424476 0.4025291 0.904256
vn -0.1424476 0.402529 0.904256
vn -0.1424476 0.402529 0.904256
g stickHelm_break01_0
f 3/3/3 2/2/2 1/1/1
f 4/4/4 3/3/3 1/1/1
f 7/7/7 6/6/6 5/5/5
f 8/8/8 7/7/7 5/5/5
f 11/11/11 10/10/10 9/9/9
f 12/12/12 11/11/11 9/9/9
f 15/15/15 14/14/14 13/13/13
f 16/16/16 15/15/15 13/13/13
f 19/19/19 18/18/18 17/17/17
f 20/20/20 19/19/19 17/17/17
f 20/20/20 17/17/17 21/21/21
f 22/22/22 20/20/20 21/21/21
f 25/25/25 24/24/24 23/23/23
f 26/26/26 25/25/25 23/23/23
f 29/29/29 28/28/28 27/27/27
f 30/30/30 29/29/29 27/27/27
f 32/32/32 31/31/31 30/30/30
f 35/35/35 34/34/34 33/33/33
f 36/36/36 35/35/35 33/33/33
f 39/39/39 38/38/38 37/37/37
f 40/40/40 39/39/39 37/37/37
f 42/42/42 39/39/39 41/41/41
f 45/45/45 44/44/44 43/43/43
f 46/46/46 45/45/45 43/43/43
f 49/49/49 48/48/48 47/47/47
f 50/50/50 49/49/49 47/47/47
f 53/53/53 52/52/52 51/51/51
f 54/54/54 53/53/53 51/51/51
f 57/57/57 56/56/56 55/55/55
f 58/58/58 57/57/57 55/55/55
f 61/61/61 60/60/60 59/59/59
f 64/64/64 63/63/63 62/62/62
f 67/67/67 66/66/66 65/65/65
f 70/70/70 69/69/69 68/68/68
f 73/73/73 72/72/72 71/71/71
f 76/76/76 75/75/75 74/74/74
f 77/77/77 76/76/76 74/74/74
f 80/80/80 79/79/79 78/78/78
f 81/81/81 80/80/80 78/78/78
f 84/84/84 83/83/83 82/82/82
f 85/85/85 84/84/84 82/82/82
f 88/88/88 87/87/87 86/86/86
f 89/89/89 88/88/88 86/86/86
f 92/92/92 91/91/91 90/90/90
f 93/93/93 92/92/92 90/90/90
f 96/96/96 95/95/95 94/94/94
f 97/97/97 96/96/96 94/94/94
f 100/100/100 99/99/99 98/98/98
f 103/103/103 102/102/102 101/101/101
f 106/106/106 105/105/105 104/104/104
f 109/109/109 108/108/108 107/107/107
f 112/112/112 111/111/111 110/110/110
f 115/115/115 114/114/114 113/113/113
f 118/118/118 117/117/117 116/116/116
f 121/121/121 120/120/120 119/119/119
f 124/124/124 123/123/123 122/122/122
f 127/127/127 126/126/126 125/125/125
f 130/130/130 129/129/129 128/128/128
f 133/133/133 132/132/132 131/131/131
f 136/136/136 135/135/135 134/134/134
f 139/139/139 138/138/138 137/137/137
f 137/137/137 141/141/141 140/140/140
f 144/144/144 143/143/143 142/142/142
f 147/147/147 146/146/146 145/145/145
f 150/150/150 149/149/149 148/148/148
f 153/153/153 152/152/152 151/151/151
f 156/156/156 155/155/155 154/154/154
f 159/159/159 158/158/158 157/157/157
f 162/162/162 161/161/161 160/160/160
f 165/165/165 164/164/164 163/163/163
