g torch_break02
v 0.04383178 0.08634308 -0.07097381
v 0.03343567 0.09337647 -0.0578537
v -0.03908264 0.0893898 -0.07312683
v -0.03105774 0.09742447 -0.05759796
v -0.08258728 0.08777527 0.000925293
v -0.03908264 0.0893898 -0.07312683
v -0.06588501 0.09417831 -0.0004016113
v -0.03105774 0.09742447 -0.05759796
v -0.06588501 0.09417831 -0.0004016113
v -0.03887939 0.07884628 0.07639617
v -0.08258728 0.08777527 0.000925293
v -0.03141052 0.08965874 0.06086914
v -0.06588501 0.09417831 -0.0004016113
v -0.03141052 0.08965874 0.06086914
v -0.03887939 0.07884628 0.07639617
v -0.03141052 0.08965874 0.06086914
v 0.04545715 0.09998916 0.07374542
v -0.03141052 0.08965874 0.06086914
v 0.03574097 0.1038212 0.05832
v 0.04545715 0.09998916 0.07374542
v 0.08407165 0.1023698 0.0009735107
v 0.04545715 0.09998916 0.07374542
v 0.07010192 0.1044823 0.0009701538
v 0.04545715 0.09998916 0.07374542
v 0.03574097 0.1038212 0.05832
v 0.07010192 0.1044823 0.0009701538
v 0.08407165 0.1023698 0.0009735107
v 0.07010192 0.1044823 0.0009701538
v 0.04383178 0.08634308 -0.07097381
v 0.07010192 0.1044823 0.0009701538
v 0.03343567 0.09337647 -0.0578537
v 0.04383178 0.08634308 -0.07097381
v -0.08233337 -0.1163769 0.001173706
v -0.09245666 -0.01690609 0.005002441
v -0.03907043 -0.1106381 0.07218903
v -0.04193298 -0.005087013 0.08129913
v -0.04173767 -0.01369503 -0.08129913
v -0.09245666 -0.01690609 0.005002441
v -0.03861389 -0.1158347 -0.07239746
v -0.08233337 -0.1163769 0.001173706
v -0.03861389 -0.1158347 -0.07239746
v 0.04288391 -0.0883609 -0.067807
v -0.04173767 -0.01369503 -0.08129913
v 0.05023804 0.008093796 -0.07249084
v 0.09245666 0.02970718 0.001539307
v 0.05023804 0.008093796 -0.07249084
v 0.08389831 -0.0749979 0.0009823608
v 0.04288391 -0.0883609 -0.067807
v 0.04858032 -0.0936555 0.07473755
v 0.05227112 0.0194426 0.08042328
v 0.08389831 -0.0749979 0.0009823608
v 0.09245666 0.02970718 0.001539307
v -0.03907043 -0.1106381 0.07218903
v -0.04193298 -0.005087013 0.08129913
v 0.04858032 -0.0936555 0.07473755
v 0.05227112 0.0194426 0.08042328
v -0.02613159 -0.122407 0.05599365
v -0.06313293 -0.1287434 0.0007894897
v -0.03907043 -0.1106381 0.07218903
v -0.08233337 -0.1163769 0.001173706
v -0.03861389 -0.1158347 -0.07239746
v -0.08233337 -0.1163769 0.001173706
v -0.03013306 -0.1261226 -0.04751892
v -0.06313293 -0.1287434 0.0007894897
v -0.03013306 -0.1261226 -0.04751892
v 0.03575744 -0.1047193 -0.04931457
v -0.03861389 -0.1158347 -0.07239746
v 0.04288391 -0.0883609 -0.067807
v 0.08389831 -0.0749979 0.0009823608
v 0.04288391 -0.0883609 -0.067807
v 0.06524048 -0.09021305 0.00205658
v 0.03575744 -0.1047193 -0.04931457
v 0.03708252 -0.1079351 0.05918549
v 0.04858032 -0.0936555 0.07473755
v 0.06524048 -0.09021305 0.00205658
v 0.08389831 -0.0749979 0.0009823608
v -0.02613159 -0.122407 0.05599365
v -0.03907043 -0.1106381 0.07218903
v 0.03708252 -0.1079351 0.05918549
v 0.04858032 -0.0936555 0.07473755
v -0.09245666 -0.01690609 0.005002441
v -0.08258728 0.08777527 0.000925293
v -0.04193298 -0.005087013 0.08129913
v -0.03887939 0.07884628 0.07639617
v -0.03908264 0.0893898 -0.07312683
v -0.08258728 0.08777527 0.000925293
v -0.04173767 -0.01369503 -0.08129913
v -0.09245666 -0.01690609 0.005002441
v 0.04383178 0.08634308 -0.07097381
v -0.03908264 0.0893898 -0.07312683
v 0.05023804 0.008093796 -0.07249084
v -0.04173767 -0.01369503 -0.08129913
v 0.08407165 0.1023698 0.0009735107
v 0.04383178 0.08634308 -0.07097381
v 0.09245666 0.02970718 0.001539307
v 0.05023804 0.008093796 -0.07249084
v 0.05227112 0.0194426 0.08042328
v 0.04545715 0.09998916 0.07374542
v 0.09245666 0.02970718 0.001539307
v 0.08407165 0.1023698 0.0009735107
v -0.04193298 -0.005087013 0.08129913
v -0.03887939 0.07884628 0.07639617
v 0.05227112 0.0194426 0.08042328
v 0.04545715 0.09998916 0.07374542
v 0.0349585 0.1142766 -0.05457428
v 0.002786255 0.1287434 1.89209E-05
v -0.0303125 0.1176235 -0.05210876
v 0.06984252 0.1142766 -0.0008700562
v 0.002786255 0.1287434 1.89209E-05
v 0.0349585 0.1142766 -0.05457428
v 0.03523193 0.1203678 0.05258362
v 0.002786255 0.1287434 1.89209E-05
v 0.06984252 0.1142766 -0.0008700562
v -0.03252624 0.1238719 0.05429016
v 0.002786255 0.1287434 1.89209E-05
v 0.03523193 0.1203678 0.05258362
v -0.06714416 0.122557 -0.0001019287
v 0.002786255 0.1287434 1.89209E-05
v -0.03252624 0.1238719 0.05429016
v -0.0303125 0.1176235 -0.05210876
v 0.002786255 0.1287434 1.89209E-05
v -0.06714416 0.122557 -0.0001019287
v 0.03343567 0.09337647 -0.0578537
v 0.0349585 0.1142766 -0.05457428
v -0.03105774 0.09742447 -0.05759796
v 0.0349585 0.1142766 -0.05457428
v -0.0303125 0.1176235 -0.05210876
v -0.03105774 0.09742447 -0.05759796
v 0.07010192 0.1044823 0.0009701538
v 0.06984252 0.1142766 -0.0008700562
v 0.03343567 0.09337647 -0.0578537
v 0.03343567 0.09337647 -0.0578537
v 0.06984252 0.1142766 -0.0008700562
v 0.0349585 0.1142766 -0.05457428
v 0.03574097 0.1038212 0.05832
v 0.03523193 0.1203678 0.05258362
v 0.07010192 0.1044823 0.0009701538
v 0.03523193 0.1203678 0.05258362
v 0.06984252 0.1142766 -0.0008700562
v 0.07010192 0.1044823 0.0009701538
v -0.03141052 0.08965874 0.06086914
v -0.03252624 0.1238719 0.05429016
v 0.03574097 0.1038212 0.05832
v -0.03252624 0.1238719 0.05429016
v 0.03523193 0.1203678 0.05258362
v 0.03574097 0.1038212 0.05832
v -0.03141052 0.08965874 0.06086914
v -0.06588501 0.09417831 -0.0004016113
v -0.03252624 0.1238719 0.05429016
v -0.06588501 0.09417831 -0.0004016113
v -0.06714416 0.122557 -0.0001019287
v -0.03252624 0.1238719 0.05429016
v -0.03105774 0.09742447 -0.05759796
v -0.0303125 0.1176235 -0.05210876
v -0.06588501 0.09417831 -0.0004016113
v -0.0303125 0.1176235 -0.05210876
v -0.06714416 0.122557 -0.0001019287
v -0.06588501 0.09417831 -0.0004016113
v 0.06524048 -0.09021305 0.00205658
v 0.03575744 -0.1047193 -0.04931457
v -0.03013306 -0.1261226 -0.04751892
v -0.03013306 -0.1261226 -0.04751892
v -0.06313293 -0.1287434 0.0007894897
v 0.06524048 -0.09021305 0.00205658
v -0.06313293 -0.1287434 0.0007894897
v -0.02613159 -0.122407 0.05599365
v 0.06524048 -0.09021305 0.00205658
v -0.02613159 -0.122407 0.05599365
v 0.03708252 -0.1079351 0.05918549
v 0.06524048 -0.09021305 0.00205658
vt 0.8494121 0.1075115
vt 0.8389713 0.1131052
vt 0.766142 0.1084343
vt 0.7742011 0.1151458
vt 0.8093928 0.1080227
vt 0.8614403 0.1080908
vt 0.8103254 0.1130112
vt 0.8505257 0.1145979
vt 0.8103254 0.1130112
vt 0.7563483 0.1055173
vt 0.8093928 0.1080227
vt 0.7672613 0.1108022
vt 0.8103254 0.1130112
vt 0.7672613 0.1108022
vt 0.7663463 0.1057801
vt 0.7738469 0.1112309
vt 0.8510444 0.1164387
vt 0.7738469 0.1112309
vt 0.8412864 0.1183707
vt 0.8510444 0.1164387
vt 0.8093588 0.1214496
vt 0.7582111 0.1158514
vt 0.8093613 0.1214797
vt 0.7582111 0.1158514
vt 0.7690528 0.1177244
vt 0.8093613 0.1214797
vt 0.8093588 0.1214496
vt 0.8093613 0.1214797
vt 0.859927 0.107196
vt 0.8093613 0.1214797
vt 0.8507056 0.1126193
vt 0.859927 0.107196
vt 0.8092182 0.01009654
vt 0.806527 0.05871561
vt 0.7593051 0.01290153
vt 0.752902 0.06449249
vt 0.8671843 0.06028509
vt 0.806527 0.05871561
vt 0.8609279 0.01036156
vt 0.8092182 0.01009654
vt 0.7666127 0.00763543
vt 0.8484598 0.02148579
vt 0.7634754 0.05912709
vt 0.8558455 0.07011151
vt 0.8089613 0.08149922
vt 0.8609933 0.07093504
vt 0.8093528 0.03032166
vt 0.8577014 0.02379012
vt 0.7575138 0.02120225
vt 0.7535177 0.07648206
vt 0.8093528 0.03032166
vt 0.8089613 0.08149922
vt 0.7661542 0.01025514
vt 0.7632789 0.0634667
vt 0.8541805 0.01881661
vt 0.8578875 0.07583284
vt 0.7706879 0.007149139
vt 0.8094881 0.004052063
vt 0.7593051 0.01290153
vt 0.8092182 0.01009654
vt 0.8609279 0.01036156
vt 0.8092182 0.01009654
vt 0.8434417 0.005333056
vt 0.8094881 0.004052063
vt 0.7751296 0.002448946
vt 0.8413032 0.01323898
vt 0.7666127 0.00763543
vt 0.8484598 0.02148579
vt 0.8093528 0.03032166
vt 0.8577014 0.02379012
vt 0.8085977 0.02288483
vt 0.8447038 0.01579449
vt 0.7684446 0.01422273
vt 0.7575138 0.02120225
vt 0.8085977 0.02288483
vt 0.8093528 0.03032166
vt 0.7791484 0.004322067
vt 0.7661542 0.01025514
vt 0.8426342 0.01161784
vt 0.8541805 0.01881661
vt 0.806527 0.05871561
vt 0.8093928 0.1080227
vt 0.752902 0.06449249
vt 0.7563483 0.1055173
vt 0.8614403 0.1080908
vt 0.8093928 0.1080227
vt 0.8671843 0.06028509
vt 0.806527 0.05871561
vt 0.8494121 0.1075115
vt 0.766142 0.1084343
vt 0.8558455 0.07011151
vt 0.7634754 0.05912709
vt 0.8093588 0.1214496
vt 0.859927 0.107196
vt 0.8089613 0.08149922
vt 0.8609933 0.07093504
vt 0.7535177 0.07648206
vt 0.7582111 0.1158514
vt 0.8089613 0.08149922
vt 0.8093588 0.1214496
vt 0.7632789 0.0634667
vt 0.7663463 0.1057801
vt 0.8578875 0.07583284
vt 0.8510444 0.1164387
vt 0.08124426 0.594272
vt 0.1344524 0.6219754
vt 0.1348907 0.5635287
vt 0.08016294 0.6548793
vt 0.1344524 0.6219754
vt 0.08124426 0.594272
vt 0.134758 0.6804454
vt 0.1344524 0.6219754
vt 0.08016294 0.6548793
vt 0.1900216 0.6478459
vt 0.1344524 0.6219754
vt 0.134758 0.6804454
vt 0.1905441 0.5868195
vt 0.1344524 0.6219754
vt 0.1900216 0.6478459
vt 0.1348907 0.5635287
vt 0.1344524 0.6219754
vt 0.1905441 0.5868195
vt 0.08088598 0.5905565
vt 0.08124426 0.594272
vt 0.1327879 0.5584908
vt 0.08124426 0.594272
vt 0.1348907 0.5635287
vt 0.1327879 0.5584908
vt 0.08088586 0.6564448
vt 0.08016294 0.6548793
vt 0.08088598 0.5905565
vt 0.08088598 0.5905565
vt 0.08016294 0.6548793
vt 0.08124426 0.594272
vt 0.1372578 0.6851468
vt 0.134758 0.6804454
vt 0.08088586 0.6564448
vt 0.134758 0.6804454
vt 0.08016294 0.6548793
vt 0.08088586 0.6564448
vt 0.1924989 0.653312
vt 0.1900216 0.6478459
vt 0.1372578 0.6851468
vt 0.1900216 0.6478459
vt 0.134758 0.6804454
vt 0.1372578 0.6851468
vt 0.1924989 0.653312
vt 0.1894439 0.5869033
vt 0.1900216 0.6478459
vt 0.1894439 0.5869033
vt 0.1905441 0.5868195
vt 0.1900216 0.6478459
vt 0.1327879 0.5584908
vt 0.1348907 0.5635287
vt 0.1894439 0.5869033
vt 0.1348907 0.5635287
vt 0.1905441 0.5868195
vt 0.1894439 0.5869033
vt 0.8085977 0.02288483
vt 0.8447038 0.01579449
vt 0.7751296 0.002448946
vt 0.7751296 0.002448946
vt 0.8094881 0.004052063
vt 0.8085977 0.02288483
vt 0.8094881 0.004052063
vt 0.7706879 0.007149139
vt 0.8085977 0.02288483
vt 0.7706879 0.007149139
vt 0.8426342 0.01161784
vt 0.8085977 0.02288483
vn 0.137412 0.87261 -0.4686892
vn 0.04441603 0.8947071 -0.4444394
vn 0.137412 0.87261 -0.4686892
vn 0.05304321 0.8754589 -0.4803728
vn -0.4275666 0.8905519 -0.1552552
vn -0.4275666 0.8905519 -0.1552552
vn -0.3645797 0.9106686 -0.1943308
vn -0.443169 0.8688866 -0.2205383
vn -0.443169 0.8688866 -0.2205383
vn -0.4299243 0.8953992 0.1158679
vn -0.4299243 0.8953993 0.1158679
vn -0.4473033 0.8204286 0.3561135
vn -0.3288685 0.9100845 0.2521743
vn -0.3288684 0.9100844 0.2521743
vn 0.1212255 0.8978986 0.4231817
vn -0.1966455 0.8464383 0.4948461
vn 0.1212255 0.8978986 0.4231817
vn -0.1813406 0.9216037 0.343165
vn -0.1813406 0.9216037 0.3431649
vn 0.1212255 0.8978986 0.4231817
vn 0.3370856 0.8939652 0.2952955
vn 0.3370856 0.8939652 0.2952954
vn 0.1485874 0.9826502 0.1109975
vn 0.3370856 0.8939652 0.2952954
vn 0.1878055 0.9743785 0.1237566
vn 0.1878055 0.9743784 0.1237567
vn 0.3294151 0.8728648 -0.3599899
vn 0.1431146 0.9460322 -0.2907602
vn 0.3294151 0.8728648 -0.3599899
vn 0.2261294 0.9217629 -0.3149898
vn 0.2261294 0.9217629 -0.3149898
vn 0.3294151 0.8728648 -0.3599899
vn -0.8433443 -0.1387365 0.5191554
vn -0.8433443 -0.1387365 0.5191554
vn -0.8246596 -0.08884352 0.5586083
vn -0.8246596 -0.08884352 0.5586082
vn -0.8629039 -0.09619068 -0.4961294
vn -0.8652433 -0.09058288 -0.4931012
vn -0.8629039 -0.09619068 -0.4961294
vn -0.8652433 -0.09058288 -0.4931012
vn 0.09449329 -0.1150785 -0.9888518
vn 0.09449328 -0.1150785 -0.9888518
vn 0.1096763 -0.08777871 -0.9900838
vn 0.1096763 -0.08777871 -0.9900838
vn 0.8479575 -0.1246515 -0.5151991
vn 0.8508514 -0.139142 -0.5066471
vn 0.8479574 -0.1246516 -0.5151992
vn 0.8508515 -0.139142 -0.5066471
vn 0.9044223 -0.0895598 0.4171323
vn 0.9044223 -0.0895598 0.4171323
vn 0.8860672 -0.1399476 0.441927
vn 0.8860673 -0.1399476 0.441927
vn -0.03534502 -0.08675476 0.9956025
vn -0.02142455 -0.1087045 0.9938432
vn -0.03534502 -0.08675477 0.9956025
vn -0.02142455 -0.1087045 0.9938432
vn -0.5525002 -0.7297851 0.4026877
vn -0.5525002 -0.729785 0.4026878
vn -0.6278614 -0.6626873 0.4082103
vn -0.6278614 -0.6626873 0.4082103
vn -0.6342856 -0.7248331 -0.2688843
vn -0.6681347 -0.6903339 -0.2775519
vn -0.6342856 -0.724833 -0.2688843
vn -0.6681346 -0.690334 -0.2775519
vn 0.2970614 -0.7436117 -0.5989959
vn 0.2970614 -0.7436116 -0.5989959
vn 0.2914055 -0.769443 -0.5683664
vn 0.2914055 -0.7694429 -0.5683665
vn 0.5680653 -0.7280517 -0.383722
vn 0.5818437 -0.7073085 -0.4014629
vn 0.5680653 -0.7280517 -0.383722
vn 0.5818438 -0.7073084 -0.4014629
vn 0.8280082 -0.5222719 0.2040452
vn 0.8280082 -0.5222719 0.2040452
vn 0.6267914 -0.7616364 0.1644461
vn 0.6267913 -0.7616365 0.1644461
vn -0.1363244 -0.4873711 0.8624878
vn -0.07134525 -0.6800824 0.729656
vn -0.1363244 -0.4873711 0.8624878
vn -0.07134524 -0.6800824 0.729656
vn -0.833322 0.1589626 0.5294389
vn -0.833322 0.1589626 0.5294389
vn -0.8677092 0.07683679 0.4910977
vn -0.8677092 0.07683679 0.4910977
vn -0.8542858 0.07357518 -0.5145701
vn -0.8625892 0.09933555 -0.4960569
vn -0.8542858 0.07357516 -0.5145701
vn -0.8625892 0.09933555 -0.4960569
vn 0.08950452 0.03443339 -0.995391
vn 0.03893688 0.09125752 -0.9950658
vn 0.08950452 0.03443339 -0.995391
vn 0.03893688 0.09125752 -0.9950658
vn 0.8706307 0.04079964 -0.4902423
vn 0.8385875 0.102217 -0.5350913
vn 0.8706307 0.04079964 -0.4902423
vn 0.8385876 0.102217 -0.5350913
vn 0.8825749 0.1102276 0.4570682
vn 0.8825749 0.1102276 0.4570683
vn 0.859271 0.04689509 0.5093665
vn 0.859271 0.04689509 0.5093665
vn 0.0328379 0.08359483 0.9959586
vn 0.04002186 0.07239934 0.9965725
vn 0.03283791 0.08359484 0.9959586
vn 0.04002186 0.07239935 0.9965725
vn 0.04100423 0.9715432 -0.2332864
vn 0.137412 0.8726102 -0.4686892
vn 0.04100423 0.9715431 -0.2332864
vn 0.2072644 0.968977 -0.1346293
vn 0.3294152 0.8728648 -0.35999
vn 0.2072644 0.968977 -0.1346293
vn 0.211142 0.9771261 0.02536835
vn 0.3370856 0.8939652 0.2952955
vn 0.211142 0.9771261 0.02536835
vn 0.05436719 0.9907531 0.1243086
vn 0.1212255 0.8978984 0.4231817
vn 0.05436719 0.9907531 0.1243086
vn -0.08813207 0.995594 0.03202236
vn -0.4299243 0.8953993 0.1158679
vn -0.08813207 0.995594 0.03202236
vn -0.08679344 0.9841223 -0.1548235
vn -0.4275666 0.8905519 -0.1552552
vn -0.08679345 0.9841223 -0.1548235
vn 0.005777385 0.154607 -0.9879591
vn 0.005777383 0.154607 -0.9879591
vn 0.005777383 0.154607 -0.9879591
vn -0.02294689 0.2629558 -0.964535
vn -0.02294689 0.2629558 -0.964535
vn -0.02294689 0.2629558 -0.964535
vn 0.8525344 -0.07456984 -0.5173243
vn 0.8525344 -0.07456985 -0.5173244
vn 0.8525344 -0.07456985 -0.5173244
vn 0.8383657 0.02432836 -0.5445649
vn 0.8383657 0.02432835 -0.5445649
vn 0.8383657 0.02432835 -0.5445649
vn 0.8392962 0.2009364 0.5051798
vn 0.839296 0.2009364 0.5051798
vn 0.8392962 0.2009364 0.5051798
vn 0.83944 0.1217439 0.5296403
vn 0.83944 0.1217439 0.5296403
vn 0.83944 0.1217439 0.5296403
vn -0.002536788 0.1887566 0.9820206
vn -0.002536788 0.1887566 0.9820206
vn -0.002536788 0.1887566 0.9820207
vn 0.04074005 0.3283987 0.9436602
vn 0.04074005 0.3283987 0.9436602
vn 0.04074005 0.3283987 0.9436602
vn -0.8674763 0.06653304 0.4930092
vn -0.8674763 0.06653304 0.4930093
vn -0.8674763 0.06653306 0.4930094
vn -0.8423758 -0.04305432 0.5371678
vn -0.8423758 -0.04305432 0.5371678
vn -0.8423759 -0.04305432 0.5371678
vn -0.8461063 0.1686312 -0.505636
vn -0.8461063 0.1686312 -0.5056359
vn -0.8461063 0.1686312 -0.5056359
vn -0.8170464 -0.03013004 -0.575784
vn -0.8170465 -0.03013004 -0.575784
vn -0.8170465 -0.03013004 -0.575784
vn 0.2815605 -0.9595386 -0.003062312
vn 0.2815605 -0.9595386 -0.003062312
vn 0.2815605 -0.9595386 -0.003062312
vn 0.2815605 -0.9595386 -0.003062312
vn 0.2815605 -0.9595386 -0.003062312
vn 0.2815605 -0.9595386 -0.003062312
vn 0.2815605 -0.9595386 -0.003062312
vn 0.2815605 -0.9595386 -0.003062312
vn 0.2815605 -0.9595386 -0.003062312
vn 0.2815605 -0.9595386 -0.003062312
vn 0.2815605 -0.9595386 -0.003062311
vn 0.2815605 -0.9595386 -0.003062312
g torch_break02_0
f 3/3/3 2/2/2 1/1/1
f 3/3/3 4/4/4 2/2/2
f 7/7/7 6/6/6 5/5/5
f 9/9/9 8/8/8 6/6/6
f 12/12/12 11/11/11 10/10/10
f 14/14/14 13/13/13 11/11/11
f 17/17/17 16/16/16 15/15/15
f 20/20/20 19/19/19 18/18/18
f 23/23/23 22/22/22 21/21/21
f 26/26/26 25/25/25 24/24/24
f 29/29/29 28/28/28 27/27/27
f 32/32/32 31/31/31 30/30/30
f 35/35/35 34/34/34 33/33/33
f 35/35/35 36/36/36 34/34/34
f 39/39/39 38/38/38 37/37/37
f 39/39/39 40/40/40 38/38/38
f 43/43/43 42/42/42 41/41/41
f 43/43/43 44/44/44 42/42/42
f 47/47/47 46/46/46 45/45/45
f 47/47/47 48/48/48 46/46/46
f 51/51/51 50/50/50 49/49/49
f 51/51/51 52/52/52 50/50/50
f 55/55/55 54/54/54 53/53/53
f 55/55/55 56/56/56 54/54/54
f 59/59/59 58/58/58 57/57/57
f 59/59/59 60/60/60 58/58/58
f 63/63/63 62/62/62 61/61/61
f 63/63/63 64/64/64 62/62/62
f 67/67/67 66/66/66 65/65/65
f 67/67/67 68/68/68 66/66/66
f 71/71/71 70/70/70 69/69/69
f 71/71/71 72/72/72 70/70/70
f 75/75/75 74/74/74 73/73/73
f 75/75/75 76/76/76 74/74/74
f 79/79/79 78/78/78 77/77/77
f 79/79/79 80/80/80 78/78/78
f 83/83/83 82/82/82 81/81/81
f 83/83/83 84/84/84 82/82/82
f 87/87/87 86/86/86 85/85/85
f 87/87/87 88/88/88 86/86/86
f 91/91/91 90/90/90 89/89/89
f 91/91/91 92/92/92 90/90/90
f 95/95/95 94/94/94 93/93/93
f 95/95/95 96/96/96 94/94/94
f 99/99/99 98/98/98 97/97/97
f 99/99/99 100/100/100 98/98/98
f 103/103/103 102/102/102 101/101/101
f 103/103/103 104/104/104 102/102/102
f 107/107/107 106/106/106 105/105/105
f 110/110/110 109/109/109 108/108/108
f 113/113/113 112/112/112 111/111/111
f 116/116/116 115/115/115 114/114/114
f 119/119/119 118/118/118 117/117/117
f 122/122/122 121/121/121 120/120/120
f 125/125/125 124/124/124 123/123/123
f 128/128/128 127/127/127 126/126/126
f 131/131/131 130/130/130 129/129/129
f 134/134/134 133/133/133 132/132/132
f 137/137/137 136/136/136 135/135/135
f 140/140/140 139/139/139 138/138/138
f 143/143/143 142/142/142 141/141/141
f 146/146/146 145/145/145 144/144/144
f 149/149/149 148/148/148 147/147/147
f 152/152/152 151/151/151 150/150/150
f 155/155/155 154/154/154 153/153/153
f 158/158/158 157/157/157 156/156/156
f 161/161/161 160/160/160 159/159/159
f 164/164/164 163/163/163 162/162/162
f 167/167/167 166/166/166 165/165/165
f 170/170/170 169/169/169 168/168/168
