g torch01
v 0.01743653 -0.1839664 -0.02983673
v 0.02428468 0.1942024 -0.03699005
v -0.01678039 -0.1756847 -0.03361206
v 0.02428468 0.1942024 -0.03699005
v -0.02036681 0.2082563 -0.03664093
v -0.01678039 -0.1756847 -0.03361206
v -0.03189879 0.506973 -0.04849334
v 0.03399171 0.5283763 -0.050289
v -0.03519958 -0.1806733 -0.0002130127
v -0.01678039 -0.1756847 -0.03361206
v -0.04388793 0.194236 0.0008581543
v -0.01678039 -0.1756847 -0.03361206
v -0.02036681 0.2082563 -0.03664093
v -0.04388793 0.194236 0.0008581543
v -0.03519958 -0.1806733 -0.0002130127
v -0.04388793 0.194236 0.0008581543
v -0.01652465 -0.1891467 0.03277069
v -0.02026305 0.2138698 0.0420581
v -0.04388793 0.194236 0.0008581543
v -0.06489867 0.5043522 -0.0001849365
v -0.02789733 0.5106886 0.05501923
v -0.02026305 0.2138698 0.0420581
v 0.01989503 -0.1812094 0.03113098
v -0.01652465 -0.1891467 0.03277069
v 0.02041993 0.1923289 0.03558045
v -0.01652465 -0.1891467 0.03277069
v -0.02026305 0.2138698 0.0420581
v 0.02041993 0.1923289 0.03558045
v 0.01989503 -0.1812094 0.03113098
v 0.02041993 0.1923289 0.03558045
v 0.03854676 -0.1911333 1.525879E-05
v 0.04045899 0.2097677 0.0003030395
v 0.01743653 -0.1839664 -0.02983673
v 0.03854676 -0.1911333 1.525879E-05
v 0.02428468 0.1942024 -0.03699005
v 0.03854676 -0.1911333 1.525879E-05
v 0.04045899 0.2097677 0.0003030395
v 0.02428468 0.1942024 -0.03699005
v 0.03399171 0.5283763 -0.050289
v -0.01678039 -0.1756847 -0.03361206
v 0.002963267 -0.2022623 -0.00034729
v 0.01743653 -0.1839664 -0.02983673
v -0.03519958 -0.1806733 -0.0002130127
v 0.002963267 -0.2022623 -0.00034729
v -0.01678039 -0.1756847 -0.03361206
v -0.01652465 -0.1891467 0.03277069
v 0.002963267 -0.2022623 -0.00034729
v -0.03519958 -0.1806733 -0.0002130127
v 0.01989503 -0.1812094 0.03113098
v 0.002963267 -0.2022623 -0.00034729
v -0.01652465 -0.1891467 0.03277069
v 0.03854676 -0.1911333 1.525879E-05
v 0.002963267 -0.2022623 -0.00034729
v 0.01989503 -0.1812094 0.03113098
v 0.01743653 -0.1839664 -0.02983673
v 0.002963267 -0.2022623 -0.00034729
v 0.03854676 -0.1911333 1.525879E-05
v -0.04388793 0.194236 0.0008581543
v -0.02036681 0.2082563 -0.03664093
v -0.06489867 0.5043522 -0.0001849365
v -0.03189879 0.506973 -0.04849334
v 0.04045899 0.2097677 0.0003030395
v 0.06347474 0.5428826 0.001082153
v 0.03399171 0.5283763 -0.050289
v 0.02041993 0.1923289 0.03558045
v 0.03531678 0.5251606 0.05821106
v 0.04045899 0.2097677 0.0003030395
v 0.06347474 0.5428826 0.001082153
v 0.02041993 0.1923289 0.03558045
v -0.02026305 0.2138698 0.0420581
v 0.03531678 0.5251606 0.05821106
v -0.02026305 0.2138698 0.0420581
v -0.02789733 0.5106886 0.05501923
v 0.03531678 0.5251606 0.05821106
v 0.03319276 0.7473722 -0.05554871
v 0.001020518 0.761839 -0.0009555054
v -0.03207824 0.7507191 -0.05308319
v 0.06807679 0.7473722 -0.001844482
v 0.001020518 0.761839 -0.0009555054
v 0.03319276 0.7473722 -0.05554871
v 0.03346619 0.7534634 0.05160919
v 0.001020518 0.761839 -0.0009555054
v 0.06807679 0.7473722 -0.001844482
v -0.03429198 0.7569675 0.05331573
v 0.001020518 0.761839 -0.0009555054
v 0.03346619 0.7534634 0.05160919
v -0.0689099 0.7556526 -0.001076355
v 0.001020518 0.761839 -0.0009555054
v -0.03429198 0.7569675 0.05331573
v -0.03207824 0.7507191 -0.05308319
v 0.001020518 0.761839 -0.0009555054
v -0.0689099 0.7556526 -0.001076355
v 0.03166993 0.7264721 -0.05882812
v 0.03319276 0.7473722 -0.05554871
v -0.03282348 0.7305201 -0.05857239
v 0.03319276 0.7473722 -0.05554871
v -0.03207824 0.7507191 -0.05308319
v -0.03282348 0.7305201 -0.05857239
v 0.06833619 0.737578 -4.272461E-06
v 0.06807679 0.7473722 -0.001844482
v 0.03166993 0.7264721 -0.05882812
v 0.03166993 0.7264721 -0.05882812
v 0.06807679 0.7473722 -0.001844482
v 0.03319276 0.7473722 -0.05554871
v 0.03397523 0.7369168 0.05734558
v 0.03346619 0.7534634 0.05160919
v 0.06833619 0.737578 -4.272461E-06
v 0.03346619 0.7534634 0.05160919
v 0.06807679 0.7473722 -0.001844482
v 0.06833619 0.737578 -4.272461E-06
v -0.03317626 0.7227544 0.05989471
v -0.03429198 0.7569675 0.05331573
v 0.03397523 0.7369168 0.05734558
v -0.03429198 0.7569675 0.05331573
v 0.03346619 0.7534634 0.05160919
v 0.03397523 0.7369168 0.05734558
v -0.03317626 0.7227544 0.05989471
v -0.06765074 0.7272739 -0.001376038
v -0.03429198 0.7569675 0.05331573
v -0.06765074 0.7272739 -0.001376038
v -0.0689099 0.7556526 -0.001076355
v -0.03429198 0.7569675 0.05331573
v -0.03282348 0.7305201 -0.05857239
v -0.03207824 0.7507191 -0.05308319
v -0.06765074 0.7272739 -0.001376038
v -0.03207824 0.7507191 -0.05308319
v -0.0689099 0.7556526 -0.001076355
v -0.06765074 0.7272739 -0.001376038
v 0.04206605 0.7194387 -0.07194824
v 0.03166993 0.7264721 -0.05882812
v -0.04084838 0.7224854 -0.07410125
v -0.03282348 0.7305201 -0.05857239
v -0.08435301 0.7208709 -4.91333E-05
v -0.04084838 0.7224854 -0.07410125
v -0.06765074 0.7272739 -0.001376038
v -0.03282348 0.7305201 -0.05857239
v -0.06765074 0.7272739 -0.001376038
v -0.04064513 0.7119419 0.07542175
v -0.08435301 0.7208709 -4.91333E-05
v -0.03317626 0.7227544 0.05989471
v -0.06765074 0.7272739 -0.001376038
v -0.03317626 0.7227544 0.05989471
v -0.04064513 0.7119419 0.07542175
v -0.03317626 0.7227544 0.05989471
v 0.04369142 0.7330848 0.072771
v -0.03317626 0.7227544 0.05989471
v 0.03397523 0.7369168 0.05734558
v 0.08230592 0.7354655 -9.155273E-07
v 0.04369142 0.7330848 0.072771
v 0.06833619 0.737578 -4.272461E-06
v 0.03397523 0.7369168 0.05734558
v 0.08230592 0.7354655 -9.155273E-07
v 0.06833619 0.737578 -4.272461E-06
v 0.04206605 0.7194387 -0.07194824
v 0.06833619 0.737578 -4.272461E-06
v 0.03166993 0.7264721 -0.05882812
v -0.08409911 0.5167187 0.0001992798
v -0.0942224 0.6161895 0.004028015
v -0.04083617 0.5224575 0.0712146
v -0.04369872 0.6280086 0.0803247
v -0.04350341 0.6194006 -0.08227356
v -0.0942224 0.6161895 0.004028015
v -0.04037963 0.517261 -0.07337189
v -0.08409911 0.5167187 0.0001992798
v -0.04037963 0.517261 -0.07337189
v 0.04111817 0.5447347 -0.06878143
v -0.04350341 0.6194006 -0.08227356
v 0.0484723 0.6411894 -0.07346527
v 0.09069093 0.6628028 0.0005648804
v 0.0484723 0.6411894 -0.07346527
v 0.08213258 0.5580977 7.93457E-06
v 0.04111817 0.5447347 -0.06878143
v 0.04681458 0.5394401 0.07376312
v 0.05050538 0.6525382 0.07944885
v 0.08213258 0.5580977 7.93457E-06
v 0.09069093 0.6628028 0.0005648804
v -0.04083617 0.5224575 0.0712146
v -0.04369872 0.6280086 0.0803247
v 0.04681458 0.5394401 0.07376312
v 0.05050538 0.6525382 0.07944885
v -0.02789733 0.5106886 0.05501923
v -0.06489867 0.5043522 -0.0001849365
v -0.04083617 0.5224575 0.0712146
v -0.08409911 0.5167187 0.0001992798
v -0.04037963 0.517261 -0.07337189
v -0.08409911 0.5167187 0.0001992798
v -0.03189879 0.506973 -0.04849334
v -0.06489867 0.5043522 -0.0001849365
v -0.03189879 0.506973 -0.04849334
v 0.03399171 0.5283763 -0.050289
v -0.04037963 0.517261 -0.07337189
v 0.04111817 0.5447347 -0.06878143
v 0.08213258 0.5580977 7.93457E-06
v 0.04111817 0.5447347 -0.06878143
v 0.06347474 0.5428826 0.001082153
v 0.03399171 0.5283763 -0.050289
v 0.03531678 0.5251606 0.05821106
v 0.04681458 0.5394401 0.07376312
v 0.06347474 0.5428826 0.001082153
v 0.08213258 0.5580977 7.93457E-06
v -0.02789733 0.5106886 0.05501923
v -0.04083617 0.5224575 0.0712146
v 0.03531678 0.5251606 0.05821106
v 0.04681458 0.5394401 0.07376312
v -0.0942224 0.6161895 0.004028015
v -0.08435301 0.7208709 -4.91333E-05
v -0.04369872 0.6280086 0.0803247
v -0.04064513 0.7119419 0.07542175
v -0.04084838 0.7224854 -0.07410125
v -0.08435301 0.7208709 -4.91333E-05
v -0.04350341 0.6194006 -0.08227356
v -0.0942224 0.6161895 0.004028015
v 0.04206605 0.7194387 -0.07194824
v -0.04084838 0.7224854 -0.07410125
v 0.0484723 0.6411894 -0.07346527
v -0.04350341 0.6194006 -0.08227356
v 0.08230592 0.7354655 -9.155273E-07
v 0.04206605 0.7194387 -0.07194824
v 0.09069093 0.6628028 0.0005648804
v 0.0484723 0.6411894 -0.07346527
v 0.05050538 0.6525382 0.07944885
v 0.04369142 0.7330848 0.072771
v 0.09069093 0.6628028 0.0005648804
v 0.08230592 0.7354655 -9.155273E-07
v -0.04369872 0.6280086 0.0803247
v -0.04064513 0.7119419 0.07542175
v 0.05050538 0.6525382 0.07944885
v 0.04369142 0.7330848 0.072771
vt 0.1408559 0.5903012
vt 0.1426817 0.6503901
vt 0.1347167 0.591787
vt 0.1426817 0.6503901
vt 0.1336449 0.6532343
vt 0.1347167 0.591787
vt 0.1320043 0.6814131
vt 0.1438262 0.686395
vt 0.1314121 0.590892
vt 0.1347167 0.591787
vt 0.1288848 0.6503969
vt 0.1347167 0.591787
vt 0.1336449 0.6532343
vt 0.1288848 0.6503969
vt 0.1314121 0.590892
vt 0.1288848 0.6503969
vt 0.1347626 0.5893717
vt 0.1336659 0.6543704
vt 0.1288848 0.6503969
vt 0.1260836 0.6833791
vt 0.1327221 0.6838184
vt 0.1336659 0.6543704
vt 0.141297 0.5907958
vt 0.1347626 0.5893717
vt 0.1418996 0.6500109
vt 0.1347626 0.5893717
vt 0.1336659 0.6543704
vt 0.1418996 0.6500109
vt 0.141297 0.5907958
vt 0.1418996 0.6500109
vt 0.1446435 0.5890153
vt 0.145955 0.6535402
vt 0.1408559 0.5903012
vt 0.1446435 0.5890153
vt 0.1426817 0.6503901
vt 0.1446435 0.5890153
vt 0.145955 0.6535402
vt 0.1426817 0.6503901
vt 0.1438262 0.686395
vt 0.1347167 0.591787
vt 0.1382591 0.5870185
vt 0.1408559 0.5903012
vt 0.1314121 0.590892
vt 0.1382591 0.5870185
vt 0.1347167 0.591787
vt 0.1347626 0.5893717
vt 0.1382591 0.5870185
vt 0.1314121 0.590892
vt 0.141297 0.5907958
vt 0.1382591 0.5870185
vt 0.1347626 0.5893717
vt 0.1446435 0.5890153
vt 0.1382591 0.5870185
vt 0.141297 0.5907958
vt 0.1408559 0.5903012
vt 0.1382591 0.5870185
vt 0.1446435 0.5890153
vt 0.1288848 0.6503969
vt 0.1336449 0.6532343
vt 0.1260836 0.6833791
vt 0.1320043 0.6814131
vt 0.145955 0.6535402
vt 0.1491159 0.6856647
vt 0.1438262 0.686395
vt 0.1418996 0.6500109
vt 0.144064 0.6816594
vt 0.145955 0.6535402
vt 0.1491159 0.6856647
vt 0.1418996 0.6500109
vt 0.1336659 0.6543704
vt 0.144064 0.6816594
vt 0.1336659 0.6543704
vt 0.1327221 0.6838184
vt 0.144064 0.6816594
vt 0.08124426 0.594272
vt 0.1344524 0.6219754
vt 0.1348907 0.5635287
vt 0.08016294 0.6548793
vt 0.1344524 0.6219754
vt 0.08124426 0.594272
vt 0.134758 0.6804454
vt 0.1344524 0.6219754
vt 0.08016294 0.6548793
vt 0.1900216 0.6478459
vt 0.1344524 0.6219754
vt 0.134758 0.6804454
vt 0.1905441 0.5868195
vt 0.1344524 0.6219754
vt 0.1900216 0.6478459
vt 0.1348907 0.5635287
vt 0.1344524 0.6219754
vt 0.1905441 0.5868195
vt 0.08088598 0.5905565
vt 0.08124426 0.594272
vt 0.1327879 0.5584908
vt 0.08124426 0.594272
vt 0.1348907 0.5635287
vt 0.1327879 0.5584908
vt 0.08088586 0.6564448
vt 0.08016294 0.6548793
vt 0.08088598 0.5905565
vt 0.08088598 0.5905565
vt 0.08016294 0.6548793
vt 0.08124426 0.594272
vt 0.1372578 0.6851468
vt 0.134758 0.6804454
vt 0.08088586 0.6564448
vt 0.134758 0.6804454
vt 0.08016294 0.6548793
vt 0.08088586 0.6564448
vt 0.1924989 0.653312
vt 0.1900216 0.6478459
vt 0.1372578 0.6851468
vt 0.1900216 0.6478459
vt 0.134758 0.6804454
vt 0.1372578 0.6851468
vt 0.1924989 0.653312
vt 0.1894439 0.5869033
vt 0.1900216 0.6478459
vt 0.1894439 0.5869033
vt 0.1905441 0.5868195
vt 0.1900216 0.6478459
vt 0.1327879 0.5584908
vt 0.1348907 0.5635287
vt 0.1894439 0.5869033
vt 0.1348907 0.5635287
vt 0.1905441 0.5868195
vt 0.1894439 0.5869033
vt 0.8494121 0.1075115
vt 0.8389713 0.1131052
vt 0.766142 0.1084343
vt 0.7742011 0.1151458
vt 0.8093928 0.1080227
vt 0.8614403 0.1080908
vt 0.8103254 0.1130112
vt 0.8505257 0.1145979
vt 0.8103254 0.1130112
vt 0.7563483 0.1055173
vt 0.8093928 0.1080227
vt 0.7672613 0.1108022
vt 0.8103254 0.1130112
vt 0.7672613 0.1108022
vt 0.7663463 0.1057801
vt 0.7738469 0.1112309
vt 0.8510444 0.1164387
vt 0.7738469 0.1112309
vt 0.8412864 0.1183707
vt 0.8093588 0.1214496
vt 0.7582111 0.1158514
vt 0.8093613 0.1214797
vt 0.7690528 0.1177244
vt 0.8093588 0.1214496
vt 0.8093613 0.1214797
vt 0.859927 0.107196
vt 0.8093613 0.1214797
vt 0.8507056 0.1126193
vt 0.8092182 0.01009654
vt 0.806527 0.05871561
vt 0.7593051 0.01290153
vt 0.752902 0.06449249
vt 0.8671843 0.06028509
vt 0.806527 0.05871561
vt 0.8609279 0.01036156
vt 0.8092182 0.01009654
vt 0.7666127 0.00763543
vt 0.8484598 0.02148579
vt 0.7634754 0.05912709
vt 0.8558455 0.07011151
vt 0.8089613 0.08149922
vt 0.8609933 0.07093504
vt 0.8093528 0.03032166
vt 0.8577014 0.02379012
vt 0.7575138 0.02120225
vt 0.7535177 0.07648206
vt 0.8093528 0.03032166
vt 0.8089613 0.08149922
vt 0.7661542 0.01025514
vt 0.7632789 0.0634667
vt 0.8541805 0.01881661
vt 0.8578875 0.07583284
vt 0.7706879 0.007149139
vt 0.8094881 0.004052063
vt 0.7593051 0.01290153
vt 0.8092182 0.01009654
vt 0.8609279 0.01036156
vt 0.8092182 0.01009654
vt 0.8434417 0.005333056
vt 0.8094881 0.004052063
vt 0.7751296 0.002448946
vt 0.8413032 0.01323898
vt 0.7666127 0.00763543
vt 0.8484598 0.02148579
vt 0.8093528 0.03032166
vt 0.8577014 0.02379012
vt 0.8085977 0.02288483
vt 0.8447038 0.01579449
vt 0.7684446 0.01422273
vt 0.7575138 0.02120225
vt 0.8085977 0.02288483
vt 0.8093528 0.03032166
vt 0.7791484 0.004322067
vt 0.7661542 0.01025514
vt 0.8426342 0.01161784
vt 0.8541805 0.01881661
vt 0.806527 0.05871561
vt 0.8093928 0.1080227
vt 0.752902 0.06449249
vt 0.7563483 0.1055173
vt 0.8614403 0.1080908
vt 0.8093928 0.1080227
vt 0.8671843 0.06028509
vt 0.806527 0.05871561
vt 0.8494121 0.1075115
vt 0.766142 0.1084343
vt 0.8558455 0.07011151
vt 0.7634754 0.05912709
vt 0.8093588 0.1214496
vt 0.859927 0.107196
vt 0.8089613 0.08149922
vt 0.8609933 0.07093504
vt 0.7535177 0.07648206
vt 0.7582111 0.1158514
vt 0.8089613 0.08149922
vt 0.8093588 0.1214496
vt 0.7632789 0.0634667
vt 0.7663463 0.1057801
vt 0.8578875 0.07583284
vt 0.8510444 0.1164387
vn 0.1001886 -0.03929797 -0.9941921
vn 0.1001886 -0.03929797 -0.9941921
vn 0.1001886 -0.03929797 -0.9941921
vn -0.0152953 -0.02374078 -0.9996012
vn -0.0152953 -0.02374079 -0.9996012
vn -0.01529531 -0.02374079 -0.9996012
vn -0.0218927 -0.04476219 -0.9987577
vn -0.01008807 -0.04070487 -0.9991203
vn -0.8728318 -0.03581209 -0.4867055
vn -0.8728318 -0.03581209 -0.4867055
vn -0.8728318 -0.03581209 -0.4867055
vn -0.8421901 -0.02733378 -0.5384875
vn -0.8421901 -0.02733378 -0.5384875
vn -0.8421901 -0.02733378 -0.5384874
vn -0.873756 -0.03836529 0.4848489
vn -0.873756 -0.03836529 0.484849
vn -0.873756 -0.03836529 0.4848489
vn -0.8597542 -0.03468515 0.5095289
vn -0.8506415 -0.06989253 0.5210797
vn -0.8506415 -0.06989253 0.5210797
vn -0.8283884 -0.05339647 0.5576034
vn -0.8283883 -0.05339647 0.5576034
vn 0.05077588 -0.02676986 0.9983512
vn 0.05077588 -0.02676986 0.9983512
vn 0.05077588 -0.02676986 0.9983512
vn 0.1380605 -0.03686297 0.9897375
vn 0.1380605 -0.03686297 0.9897375
vn 0.1380605 -0.03686297 0.9897375
vn 0.8543334 -0.02234572 0.5192448
vn 0.8543334 -0.02234572 0.5192448
vn 0.8543334 -0.02234572 0.5192448
vn 0.8731203 -0.01774983 0.4871815
vn 0.8103796 -0.04592403 -0.5841027
vn 0.8103796 -0.04592403 -0.5841026
vn 0.8103796 -0.04592402 -0.5841026
vn 0.9200912 -0.0186986 -0.3912576
vn 0.9200912 -0.0186986 -0.3912576
vn 0.9200912 -0.0186986 -0.3912576
vn 0.9232188 -0.04501438 -0.381629
vn -0.1336089 -0.811397 -0.5690199
vn -0.1336089 -0.811397 -0.5690199
vn -0.1336089 -0.811397 -0.5690199
vn -0.4578289 -0.8069988 -0.3730221
vn -0.457829 -0.8069988 -0.3730222
vn -0.4578289 -0.8069988 -0.3730221
vn -0.4915084 -0.8691346 0.05499584
vn -0.4915084 -0.8691346 0.05499584
vn -0.4915084 -0.8691346 0.05499584
vn 0.2085407 -0.8610944 0.4637103
vn 0.2085407 -0.8610944 0.4637103
vn 0.2085407 -0.8610944 0.4637103
vn 0.2649681 -0.8612936 0.4335495
vn 0.2649681 -0.8612936 0.4335495
vn 0.264968 -0.8612936 0.4335495
vn 0.2766866 -0.871494 -0.4048986
vn 0.2766866 -0.871494 -0.4048986
vn 0.2766866 -0.871494 -0.4048986
vn -0.8323274 -0.07316905 -0.5494336
vn -0.8323274 -0.07316905 -0.5494336
vn -0.8323274 -0.07316905 -0.5494336
vn -0.8311377 -0.07239725 -0.5513337
vn 0.8615918 -0.08179566 -0.5009681
vn 0.8615918 -0.08179566 -0.5009682
vn 0.8615918 -0.08179566 -0.5009681
vn 0.8863701 -0.1075933 0.4503017
vn 0.8863701 -0.1075934 0.4503018
vn 0.8863701 -0.1075934 0.4503017
vn 0.9069293 -0.09168126 0.4111859
vn 0.09924866 -0.1099529 0.9889692
vn 0.09924866 -0.1099529 0.9889692
vn 0.09924867 -0.1099529 0.9889692
vn -0.05983922 -0.04991767 0.9969592
vn -0.05983922 -0.04991768 0.9969592
vn -0.05983922 -0.04991768 0.9969592
vn 0.04100423 0.9715431 -0.2332864
vn 0.137412 0.8726102 -0.4686892
vn 0.04100423 0.9715431 -0.2332864
vn 0.2072644 0.968977 -0.1346293
vn 0.3294152 0.8728648 -0.35999
vn 0.2072644 0.968977 -0.1346293
vn 0.211142 0.9771261 0.02536834
vn 0.3370856 0.8939652 0.2952955
vn 0.211142 0.9771261 0.02536835
vn 0.05436719 0.9907531 0.1243086
vn 0.1212255 0.8978984 0.4231816
vn 0.05436719 0.9907531 0.1243086
vn -0.08813208 0.995594 0.03202236
vn -0.4299243 0.8953993 0.1158679
vn -0.08813208 0.995594 0.03202236
vn -0.08679345 0.9841223 -0.1548235
vn -0.4275666 0.8905519 -0.1552552
vn -0.08679345 0.9841223 -0.1548235
vn 0.005777385 0.154607 -0.9879591
vn 0.005777383 0.154607 -0.9879591
vn 0.005777383 0.154607 -0.9879591
vn -0.02294689 0.2629558 -0.964535
vn -0.02294689 0.2629558 -0.964535
vn -0.02294689 0.2629558 -0.964535
vn 0.8525344 -0.07456984 -0.5173244
vn 0.8525344 -0.07456985 -0.5173244
vn 0.8525344 -0.07456985 -0.5173244
vn 0.8383657 0.02432836 -0.544565
vn 0.8383657 0.02432836 -0.5445649
vn 0.8383657 0.02432836 -0.5445649
vn 0.839296 0.2009364 0.5051798
vn 0.839296 0.2009364 0.5051798
vn 0.839296 0.2009364 0.5051798
vn 0.83944 0.1217439 0.5296403
vn 0.83944 0.1217439 0.5296403
vn 0.83944 0.1217439 0.5296403
vn -0.002536788 0.1887566 0.9820206
vn -0.002536788 0.1887566 0.9820206
vn -0.002536788 0.1887566 0.9820207
vn 0.04074006 0.3283987 0.9436602
vn 0.04074006 0.3283988 0.9436602
vn 0.04074006 0.3283988 0.9436602
vn -0.8674763 0.06653304 0.4930092
vn -0.8674763 0.06653305 0.4930094
vn -0.8674763 0.06653306 0.4930094
vn -0.8423758 -0.04305432 0.5371678
vn -0.8423758 -0.04305432 0.5371678
vn -0.8423758 -0.04305432 0.5371678
vn -0.8461063 0.1686312 -0.5056359
vn -0.8461063 0.1686312 -0.5056359
vn -0.8461063 0.1686312 -0.5056359
vn -0.8170464 -0.03013004 -0.575784
vn -0.8170465 -0.03013004 -0.575784
vn -0.8170465 -0.03013004 -0.575784
vn 0.137412 0.87261 -0.4686893
vn 0.04441603 0.8947071 -0.4444394
vn 0.137412 0.87261 -0.4686893
vn 0.05304321 0.875459 -0.4803728
vn -0.4275666 0.8905519 -0.1552552
vn -0.4275666 0.8905519 -0.1552552
vn -0.3645797 0.9106686 -0.1943308
vn -0.443169 0.8688866 -0.2205383
vn -0.443169 0.8688866 -0.2205383
vn -0.4299243 0.8953993 0.1158679
vn -0.4299243 0.8953993 0.1158679
vn -0.4473033 0.8204286 0.3561135
vn -0.3288684 0.9100845 0.2521743
vn -0.3288684 0.9100844 0.2521743
vn 0.1212255 0.8978986 0.4231817
vn -0.1966455 0.8464383 0.4948461
vn 0.1212255 0.8978986 0.4231817
vn -0.1813406 0.9216037 0.343165
vn -0.1813406 0.9216037 0.3431649
vn 0.3370856 0.8939652 0.2952955
vn 0.3370856 0.8939652 0.2952955
vn 0.1485874 0.9826502 0.1109975
vn 0.1878055 0.9743785 0.1237566
vn 0.3294151 0.8728648 -0.35999
vn 0.1431146 0.946032 -0.2907602
vn 0.3294151 0.8728648 -0.35999
vn 0.2261295 0.9217629 -0.3149898
vn 0.2261295 0.9217629 -0.3149898
vn -0.8433443 -0.1387365 0.5191554
vn -0.8433443 -0.1387365 0.5191554
vn -0.8246596 -0.08884355 0.5586083
vn -0.8246596 -0.08884352 0.5586082
vn -0.8629039 -0.09619068 -0.4961294
vn -0.8652433 -0.09058289 -0.4931012
vn -0.8629039 -0.09619068 -0.4961294
vn -0.8652433 -0.09058288 -0.4931012
vn 0.09449328 -0.1150785 -0.9888518
vn 0.09449328 -0.1150785 -0.9888518
vn 0.1096762 -0.08777871 -0.9900838
vn 0.1096762 -0.08777871 -0.9900838
vn 0.8479575 -0.1246515 -0.5151991
vn 0.8508514 -0.139142 -0.5066471
vn 0.8479574 -0.1246516 -0.5151992
vn 0.8508515 -0.139142 -0.5066471
vn 0.9044223 -0.08955982 0.4171322
vn 0.9044223 -0.08955982 0.4171322
vn 0.8860672 -0.1399476 0.441927
vn 0.8860672 -0.1399476 0.441927
vn -0.03534502 -0.08675476 0.9956025
vn -0.02142455 -0.1087045 0.9938432
vn -0.03534502 -0.08675477 0.9956025
vn -0.02142455 -0.1087045 0.9938432
vn -0.5525002 -0.7297851 0.4026877
vn -0.5525002 -0.729785 0.4026878
vn -0.6278614 -0.6626873 0.4082103
vn -0.6278614 -0.6626873 0.4082103
vn -0.6342856 -0.7248331 -0.2688843
vn -0.6681347 -0.6903339 -0.2775519
vn -0.6342856 -0.724833 -0.2688843
vn -0.6681346 -0.690334 -0.2775519
vn 0.2970614 -0.7436117 -0.5989959
vn 0.2970614 -0.7436116 -0.5989959
vn 0.2914055 -0.769443 -0.5683665
vn 0.2914055 -0.7694429 -0.5683665
vn 0.5680653 -0.7280517 -0.383722
vn 0.5818437 -0.7073085 -0.4014629
vn 0.5680653 -0.7280517 -0.383722
vn 0.5818437 -0.7073085 -0.4014629
vn 0.8280082 -0.5222719 0.2040452
vn 0.8280082 -0.5222719 0.2040452
vn 0.6267914 -0.7616364 0.1644461
vn 0.6267913 -0.7616365 0.1644461
vn -0.1363244 -0.4873711 0.8624878
vn -0.07134525 -0.6800824 0.729656
vn -0.1363244 -0.4873711 0.8624878
vn -0.07134524 -0.6800824 0.729656
vn -0.8333219 0.1589626 0.5294388
vn -0.8333219 0.1589626 0.5294388
vn -0.8677092 0.07683679 0.4910977
vn -0.8677092 0.07683679 0.4910977
vn -0.8542858 0.07357518 -0.5145701
vn -0.8625892 0.09933555 -0.4960569
vn -0.8542858 0.07357516 -0.5145701
vn -0.8625892 0.09933555 -0.4960569
vn 0.08950453 0.03443339 -0.995391
vn 0.03893688 0.09125752 -0.9950658
vn 0.08950453 0.03443339 -0.995391
vn 0.03893688 0.09125752 -0.9950658
vn 0.8706307 0.04079965 -0.4902423
vn 0.8385875 0.102217 -0.5350913
vn 0.8706307 0.04079965 -0.4902423
vn 0.8385876 0.102217 -0.5350913
vn 0.8825749 0.1102276 0.4570682
vn 0.8825749 0.1102276 0.4570683
vn 0.859271 0.04689509 0.5093665
vn 0.859271 0.04689509 0.5093665
vn 0.03283791 0.08359483 0.9959586
vn 0.04002186 0.07239934 0.9965725
vn 0.03283791 0.08359484 0.9959586
vn 0.04002186 0.07239935 0.9965725
g torch01_0
f 3/3/3 2/2/2 1/1/1
f 6/6/6 5/5/5 4/4/4
f 7/7/7 4/4/4 5/5/5
f 7/7/7 8/8/8 4/4/4
f 11/11/11 10/10/10 9/9/9
f 14/14/14 13/13/13 12/12/12
f 17/17/17 16/16/16 15/15/15
f 17/17/17 18/18/18 16/16/16
f 18/18/18 20/20/20 19/19/19
f 22/22/22 21/21/21 20/20/20
f 25/25/25 24/24/24 23/23/23
f 28/28/28 27/27/27 26/26/26
f 31/31/31 30/30/30 29/29/29
f 31/31/31 32/32/32 30/30/30
f 35/35/35 34/34/34 33/33/33
f 38/38/38 37/37/37 36/36/36
f 39/39/39 37/37/37 38/38/38
f 42/42/42 41/41/41 40/40/40
f 45/45/45 44/44/44 43/43/43
f 48/48/48 47/47/47 46/46/46
f 51/51/51 50/50/50 49/49/49
f 54/54/54 53/53/53 52/52/52
f 57/57/57 56/56/56 55/55/55
f 60/60/60 59/59/59 58/58/58
f 60/60/60 61/61/61 59/59/59
f 64/64/64 63/63/63 62/62/62
f 67/67/67 66/66/66 65/65/65
f 67/67/67 68/68/68 66/66/66
f 71/71/71 70/70/70 69/69/69
f 74/74/74 73/73/73 72/72/72
f 77/77/77 76/76/76 75/75/75
f 80/80/80 79/79/79 78/78/78
f 83/83/83 82/82/82 81/81/81
f 86/86/86 85/85/85 84/84/84
f 89/89/89 88/88/88 87/87/87
f 92/92/92 91/91/91 90/90/90
f 95/95/95 94/94/94 93/93/93
f 98/98/98 97/97/97 96/96/96
f 101/101/101 100/100/100 99/99/99
f 104/104/104 103/103/103 102/102/102
f 107/107/107 106/106/106 105/105/105
f 110/110/110 109/109/109 108/108/108
f 113/113/113 112/112/112 111/111/111
f 116/116/116 115/115/115 114/114/114
f 119/119/119 118/118/118 117/117/117
f 122/122/122 121/121/121 120/120/120
f 125/125/125 124/124/124 123/123/123
f 128/128/128 127/127/127 126/126/126
g torch01_1
f 131/131/131 130/130/130 129/129/129
f 131/131/131 132/132/132 130/130/130
f 135/135/135 134/134/134 133/133/133
f 137/137/137 136/136/136 134/134/134
f 140/140/140 139/139/139 138/138/138
f 142/142/142 141/141/141 139/139/139
f 145/145/145 144/144/144 143/143/143
f 145/145/145 147/147/147 146/146/146
f 150/150/150 149/149/149 148/148/148
f 150/150/150 151/151/151 149/149/149
f 154/154/154 153/153/153 152/152/152
f 154/154/154 156/156/156 155/155/155
f 159/159/159 158/158/158 157/157/157
f 159/159/159 160/160/160 158/158/158
f 163/163/163 162/162/162 161/161/161
f 163/163/163 164/164/164 162/162/162
f 167/167/167 166/166/166 165/165/165
f 167/167/167 168/168/168 166/166/166
f 171/171/171 170/170/170 169/169/169
f 171/171/171 172/172/172 170/170/170
f 175/175/175 174/174/174 173/173/173
f 175/175/175 176/176/176 174/174/174
f 179/179/179 178/178/178 177/177/177
f 179/179/179 180/180/180 178/178/178
f 183/183/183 182/182/182 181/181/181
f 183/183/183 184/184/184 182/182/182
f 187/187/187 186/186/186 185/185/185
f 187/187/187 188/188/188 186/186/186
f 191/191/191 190/190/190 189/189/189
f 191/191/191 192/192/192 190/190/190
f 195/195/195 194/194/194 193/193/193
f 195/195/195 196/196/196 194/194/194
f 199/199/199 198/198/198 197/197/197
f 199/199/199 200/200/200 198/198/198
f 203/203/203 202/202/202 201/201/201
f 203/203/203 204/204/204 202/202/202
f 207/207/207 206/206/206 205/205/205
f 207/207/207 208/208/208 206/206/206
f 211/211/211 210/210/210 209/209/209
f 211/211/211 212/212/212 210/210/210
f 215/215/215 214/214/214 213/213/213
f 215/215/215 216/216/216 214/214/214
f 219/219/219 218/218/218 217/217/217
f 219/219/219 220/220/220 218/218/218
f 223/223/223 222/222/222 221/221/221
f 223/223/223 224/224/224 222/222/222
f 227/227/227 226/226/226 225/225/225
f 227/227/227 228/228/228 226/226/226
