g torch_break01
v 0.019151 -0.1897702 -0.03237076
v 0.02599915 0.1883986 -0.03952408
v -0.01506592 -0.1814884 -0.03614609
v 0.02599915 0.1883986 -0.03952408
v -0.01865234 0.2024526 -0.03917496
v -0.01506592 -0.1814884 -0.03614609
v -0.03348511 -0.1864771 -0.00274704
v -0.01506592 -0.1814884 -0.03614609
v -0.04217346 0.1884323 -0.001675873
v -0.01506592 -0.1814884 -0.03614609
v -0.01865234 0.2024526 -0.03917496
v -0.04217346 0.1884323 -0.001675873
v -0.03348511 -0.1864771 -0.00274704
v -0.04217346 0.1884323 -0.001675873
v -0.01481018 -0.1949505 0.03023666
v -0.04217346 0.1884323 -0.001675873
v -0.01854858 0.2080661 0.03952408
v -0.01481018 -0.1949505 0.03023666
v 0.0216095 -0.1870131 0.02859695
v -0.01481018 -0.1949505 0.03023666
v 0.0221344 0.1522916 0.03304642
v -0.01481018 -0.1949505 0.03023666
v -0.01854858 0.2080661 0.03952408
v 0.0221344 0.1522916 0.03304642
v 0.0216095 -0.1870131 0.02859695
v 0.0221344 0.1522916 0.03304642
v 0.04026123 -0.1969371 -0.002518768
v 0.0221344 0.1522916 0.03304642
v 0.04217346 0.2039639 -0.002230987
v 0.04026123 -0.1969371 -0.002518768
v 0.019151 -0.1897702 -0.03237076
v 0.04026123 -0.1969371 -0.002518768
v 0.02599915 0.1883986 -0.03952408
v 0.04026123 -0.1969371 -0.002518768
v 0.04217346 0.2039639 -0.002230987
v 0.02599915 0.1883986 -0.03952408
v -0.01506592 -0.1814884 -0.03614609
v 0.004677734 -0.2080661 -0.002881317
v 0.019151 -0.1897702 -0.03237076
v -0.03348511 -0.1864771 -0.00274704
v 0.004677734 -0.2080661 -0.002881317
v -0.01506592 -0.1814884 -0.03614609
v -0.01481018 -0.1949505 0.03023666
v 0.004677734 -0.2080661 -0.002881317
v -0.03348511 -0.1864771 -0.00274704
v 0.0216095 -0.1870131 0.02859695
v 0.004677734 -0.2080661 -0.002881317
v -0.01481018 -0.1949505 0.03023666
v 0.04026123 -0.1969371 -0.002518768
v 0.004677734 -0.2080661 -0.002881317
v 0.0216095 -0.1870131 0.02859695
v 0.019151 -0.1897702 -0.03237076
v 0.004677734 -0.2080661 -0.002881317
v 0.04026123 -0.1969371 -0.002518768
v 0.0221344 0.1522916 0.03304642
v -0.01854858 0.2080661 0.03952408
v 0.0006690216 0.1963499 -0.001289198
v 0.04217346 0.2039639 -0.002230987
v 0.02599915 0.1883986 -0.03952408
v 0.0006690216 0.1963499 -0.001289198
v -0.01865234 0.2024526 -0.03917496
v 0.04217346 0.2039639 -0.002230987
v 0.0006690216 0.1963499 -0.001289198
v -0.04217346 0.1884323 -0.001675873
v -0.01865234 0.2024526 -0.03917496
v 0.0006690216 0.1963499 -0.001289198
v -0.01854858 0.2080661 0.03952408
v -0.04217346 0.1884323 -0.001675873
vt 0.1408559 0.5903012
vt 0.1426817 0.6503901
vt 0.1347167 0.591787
vt 0.1426817 0.6503901
vt 0.1336449 0.6532343
vt 0.1347167 0.591787
vt 0.1314121 0.590892
vt 0.1347167 0.591787
vt 0.1288848 0.6503969
vt 0.1347167 0.591787
vt 0.1336449 0.6532343
vt 0.1288848 0.6503969
vt 0.1314121 0.590892
vt 0.1288848 0.6503969
vt 0.1347626 0.5893717
vt 0.1288848 0.6503969
vt 0.1336659 0.6543704
vt 0.1347626 0.5893717
vt 0.141297 0.5907958
vt 0.1347626 0.5893717
vt 0.1418996 0.6500109
vt 0.1347626 0.5893717
vt 0.1336659 0.6543704
vt 0.1418996 0.6500109
vt 0.141297 0.5907958
vt 0.1418996 0.6500109
vt 0.1446435 0.5890153
vt 0.1418996 0.6500109
vt 0.145955 0.6535402
vt 0.1446435 0.5890153
vt 0.1408559 0.5903012
vt 0.1446435 0.5890153
vt 0.1426817 0.6503901
vt 0.1446435 0.5890153
vt 0.145955 0.6535402
vt 0.1426817 0.6503901
vt 0.1347167 0.591787
vt 0.1382591 0.5870185
vt 0.1408559 0.5903012
vt 0.1314121 0.590892
vt 0.1382591 0.5870185
vt 0.1347167 0.591787
vt 0.1347626 0.5893717
vt 0.1382591 0.5870185
vt 0.1314121 0.590892
vt 0.141297 0.5907958
vt 0.1382591 0.5870185
vt 0.1347626 0.5893717
vt 0.1446435 0.5890153
vt 0.1382591 0.5870185
vt 0.141297 0.5907958
vt 0.1408559 0.5903012
vt 0.1382591 0.5870185
vt 0.1446435 0.5890153
vt 0.1418996 0.6500109
vt 0.1336659 0.6543704
vt 0.1381738 0.6523802
vt 0.145955 0.6535402
vt 0.1426817 0.6503901
vt 0.1381738 0.6523802
vt 0.1336449 0.6532343
vt 0.145955 0.6535402
vt 0.1381738 0.6523802
vt 0.1288848 0.6503969
vt 0.1336449 0.6532343
vt 0.1381738 0.6523802
vt 0.1336659 0.6543704
vt 0.1288848 0.6503969
vn 0.1001886 -0.03929796 -0.9941921
vn 0.1001886 -0.03929797 -0.9941921
vn 0.1001886 -0.03929797 -0.9941921
vn -0.0152953 -0.02374078 -0.9996012
vn -0.0152953 -0.02374079 -0.9996012
vn -0.01529531 -0.02374079 -0.9996012
vn -0.8728318 -0.03581209 -0.4867056
vn -0.8728318 -0.03581209 -0.4867056
vn -0.8728318 -0.03581209 -0.4867056
vn -0.8421901 -0.02733378 -0.5384875
vn -0.8421901 -0.02733378 -0.5384875
vn -0.8421901 -0.02733378 -0.5384874
vn -0.873756 -0.03836529 0.4848489
vn -0.873756 -0.03836529 0.484849
vn -0.873756 -0.03836529 0.4848489
vn -0.8597542 -0.03468515 0.5095288
vn -0.8597542 -0.03468515 0.5095289
vn -0.8597542 -0.03468515 0.5095288
vn 0.05077588 -0.02676986 0.9983512
vn 0.05077588 -0.02676986 0.9983512
vn 0.05077588 -0.02676986 0.9983512
vn 0.1380605 -0.03686297 0.9897375
vn 0.1380605 -0.03686297 0.9897375
vn 0.1380605 -0.03686297 0.9897376
vn 0.8543334 -0.02234572 0.5192448
vn 0.8543334 -0.02234572 0.5192448
vn 0.8543334 -0.02234572 0.5192448
vn 0.8731203 -0.01774982 0.4871815
vn 0.8731203 -0.01774983 0.4871816
vn 0.8731203 -0.01774983 0.4871816
vn 0.8103796 -0.04592403 -0.5841027
vn 0.8103796 -0.04592403 -0.5841026
vn 0.8103796 -0.04592402 -0.5841026
vn 0.9200912 -0.0186986 -0.3912576
vn 0.9200912 -0.0186986 -0.3912577
vn 0.9200912 -0.0186986 -0.3912577
vn -0.1336089 -0.811397 -0.5690199
vn -0.1336089 -0.811397 -0.5690199
vn -0.1336089 -0.811397 -0.5690199
vn -0.4578289 -0.8069988 -0.3730221
vn -0.4578291 -0.8069988 -0.3730222
vn -0.4578289 -0.8069988 -0.3730221
vn -0.4915084 -0.8691347 0.05499585
vn -0.4915084 -0.8691346 0.05499584
vn -0.4915084 -0.8691347 0.05499585
vn 0.2085407 -0.8610944 0.4637103
vn 0.2085407 -0.8610944 0.4637103
vn 0.2085407 -0.8610944 0.4637103
vn 0.2649681 -0.8612936 0.4335495
vn 0.2649681 -0.8612936 0.4335495
vn 0.264968 -0.8612936 0.4335495
vn 0.2766866 -0.871494 -0.4048986
vn 0.2766866 -0.871494 -0.4048986
vn 0.2766866 -0.871494 -0.4048986
vn 0.464614 0.6739751 0.5743617
vn 0.5229355 0.8523708 0.001545586
vn 0.1934552 0.9554519 0.2229049
vn -0.1544798 0.8940834 0.4204175
vn 0.06908493 0.9848518 -0.1590415
vn 0.1934552 0.9554519 0.2229049
vn 0.0778169 0.9897504 0.1197436
vn -0.1544798 0.8940834 0.4204175
vn 0.1934552 0.9554519 0.2229049
vn -0.1806113 0.9808522 -0.07285897
vn 0.0778169 0.9897504 0.1197436
vn 0.1934552 0.9554519 0.2229049
vn 0.5229355 0.8523708 0.001545586
vn -0.1806113 0.9808522 -0.07285897
g torch_break01_0
f 3/3/3 2/2/2 1/1/1
f 6/6/6 5/5/5 4/4/4
f 9/9/9 8/8/8 7/7/7
f 12/12/12 11/11/11 10/10/10
f 15/15/15 14/14/14 13/13/13
f 18/18/18 17/17/17 16/16/16
f 21/21/21 20/20/20 19/19/19
f 24/24/24 23/23/23 22/22/22
f 27/27/27 26/26/26 25/25/25
f 30/30/30 29/29/29 28/28/28
f 33/33/33 32/32/32 31/31/31
f 36/36/36 35/35/35 34/34/34
f 39/39/39 38/38/38 37/37/37
f 42/42/42 41/41/41 40/40/40
f 45/45/45 44/44/44 43/43/43
f 48/48/48 47/47/47 46/46/46
f 51/51/51 50/50/50 49/49/49
f 54/54/54 53/53/53 52/52/52
f 57/57/57 56/56/56 55/55/55
f 57/57/57 55/55/55 58/58/58
f 61/61/61 60/60/60 59/59/59
f 60/60/60 62/62/62 59/59/59
f 65/65/65 64/64/64 63/63/63
f 68/68/68 67/67/67 66/66/66
