g trapArrowWall_arrows12
v 0.3209406 0.127277 -8.241042E-08
v 0.3209409 -1.782677E-07 -0.127277
v 0.595174 -1.782677E-07 -8.241042E-08
v 0.3209406 0.127277 -8.241042E-08
v 0.2779972 0.04867627 2.227654E-07
v 0.2779975 1.269081E-07 -0.04867653
v 0.3209409 -1.782677E-07 -0.127277
v -0.5951739 0.04867627 2.227654E-07
v -0.5951739 -1.782677E-07 0.04867637
v -0.5951739 -0.04867632 2.227654E-07
v -0.5951739 1.269081E-07 -0.04867653
v 0.2779972 -1.782677E-07 0.04867637
v 0.3209406 -1.782677E-07 0.1272771
v 0.3209406 -0.1272771 2.227654E-07
v 0.2779972 -0.04867632 2.227654E-07
v 0.3209406 -0.1272771 2.227654E-07
v 0.3209409 -1.782677E-07 -0.127277
v 0.2779975 1.269081E-07 -0.04867653
v 0.2779972 -0.04867632 2.227654E-07
v 0.2779972 -1.782677E-07 0.04867637
v 0.2779972 0.04867627 2.227654E-07
v 0.3209406 0.127277 -8.241042E-08
v 0.3209406 -1.782677E-07 0.1272771
v 0.3209406 -1.782677E-07 0.1272771
v 0.595174 -1.782677E-07 -8.241042E-08
v 0.3209406 -0.1272771 2.227654E-07
v 0.595174 -1.782677E-07 -8.241042E-08
v 0.3209409 -1.782677E-07 -0.127277
v 0.3209406 -0.1272771 2.227654E-07
v 0.3209406 -1.782677E-07 0.1272771
v 0.3209406 0.127277 -8.241042E-08
v 0.595174 -1.782677E-07 -8.241042E-08
v -0.5951739 -1.782677E-07 0.04867637
v -0.5951739 0.04867627 2.227654E-07
v 0.2779972 0.04867627 2.227654E-07
v 0.2779972 -1.782677E-07 0.04867637
v -0.5951739 -1.782677E-07 0.04867637
v 0.2779972 -1.782677E-07 0.04867637
v 0.2779972 -0.04867632 2.227654E-07
v -0.5951739 -0.04867632 2.227654E-07
v 0.2779975 1.269081E-07 -0.04867653
v -0.5951739 1.269081E-07 -0.04867653
v -0.5951739 -0.04867632 2.227654E-07
v 0.2779972 -0.04867632 2.227654E-07
v 0.2779972 0.04867627 2.227654E-07
v -0.5951739 0.04867627 2.227654E-07
v -0.5951739 1.269081E-07 -0.04867653
v 0.2779975 1.269081E-07 -0.04867653
v -0.5732946 0.07651196 0.0668444
v -0.5732946 0.06600507 0.07500846
v -0.5732946 -0.07667834 -0.06767494
v -0.5732946 -0.06617144 -0.07583901
v -0.5732946 0.06600507 0.07500846
v -0.5732946 0.07651196 0.0668444
v -0.3254153 0.03100598 0.02324516
v -0.3254153 0.02324506 0.03100578
v -0.5732946 0.06600507 0.07500846
v -0.3254153 0.02324506 0.03100578
v -0.3254153 -0.03100604 -0.02324532
v -0.5732946 -0.07667834 -0.06767494
v -0.3254153 -0.02324511 -0.03100594
v -0.5732946 -0.06617144 -0.07583901
v -0.5732946 -0.07667834 -0.06767494
v -0.3254153 -0.03100604 -0.02324532
v -0.3254153 0.03100598 0.02324516
v -0.5732946 0.07651196 0.0668444
v -0.5732946 -0.06617144 -0.07583901
v -0.3254153 -0.02324511 -0.03100594
v -0.5732946 -0.06684435 0.07651176
v -0.5732946 -0.07500841 0.06600486
v -0.5732946 0.06767499 -0.07667854
v -0.5732946 0.07583906 -0.06617165
v -0.5732946 -0.07500841 0.06600486
v -0.5732946 -0.06684435 0.07651176
v -0.3254153 -0.02324511 0.03100578
v -0.3254153 -0.03100604 0.02324516
v -0.5732946 -0.07500841 0.06600486
v -0.3254153 -0.03100604 0.02324516
v -0.3254153 0.02324506 -0.03100594
v -0.5732946 0.06767499 -0.07667854
v -0.3254153 0.03100598 -0.02324532
v -0.5732946 0.07583906 -0.06617165
v -0.5732946 0.06767499 -0.07667854
v -0.3254153 0.02324506 -0.03100594
v -0.3254153 -0.02324511 0.03100578
v -0.5732946 -0.06684435 0.07651176
v -0.5732946 0.07583906 -0.06617165
v -0.3254153 0.03100598 -0.02324532
vt 0.385015 0.6460553
vt 0.4346434 0.6460553
vt 0.385015 0.5391251
vt 0.385015 0.6460553
vt 0.385015 0.6628
vt 0.4039951 0.6628
vt 0.4346434 0.6460553
vt 0.8040869 0.5616994
vt 0.8040869 0.5761281
vt 0.8185157 0.5761281
vt 0.8185157 0.5616994
vt 0.366035 0.6628
vt 0.3353866 0.6460553
vt 0.385015 0.6460553
vt 0.385015 0.6628
vt 0.385015 0.6460553
vt 0.4346434 0.6460553
vt 0.4039951 0.6628
vt 0.385015 0.6628
vt 0.366035 0.6628
vt 0.385015 0.6628
vt 0.385015 0.6460553
vt 0.3353866 0.6460553
vt 0.3353866 0.6460553
vt 0.385015 0.5391251
vt 0.385015 0.6460553
vt 0.385015 0.5391251
vt 0.4346434 0.6460553
vt 0.385015 0.6460553
vt 0.3353866 0.6460553
vt 0.385015 0.6460553
vt 0.385015 0.5391251
vt 0.7896582 0.5328419
vt 0.7896582 0.5472707
vt 0.8013324 0.5472707
vt 0.8013324 0.5328419
vt 0.8040869 0.5761281
vt 0.8040869 0.5878023
vt 0.8185157 0.5878023
vt 0.8185157 0.5761281
vt 0.8212702 0.5472707
vt 0.8329444 0.5472707
vt 0.8329444 0.5328419
vt 0.8212702 0.5328419
vt 0.8040869 0.5500252
vt 0.8040869 0.5616994
vt 0.8185157 0.5616994
vt 0.8185157 0.5500252
vt 0.809696 0.8169103
vt 0.809696 0.8313391
vt 0.8241247 0.8313391
vt 0.8241247 0.8169103
vt 0.7952672 0.7880528
vt 0.7952672 0.8024815
vt 0.8069414 0.8024815
vt 0.8069414 0.7880528
vt 0.809696 0.8313391
vt 0.809696 0.8430132
vt 0.8241247 0.8430132
vt 0.8241247 0.8313391
vt 0.8268793 0.8024815
vt 0.8385534 0.8024815
vt 0.8385534 0.7880528
vt 0.8268793 0.7880528
vt 0.809696 0.8052361
vt 0.809696 0.8169103
vt 0.8241247 0.8169103
vt 0.8241247 0.8052361
vt 0.809696 0.8169103
vt 0.809696 0.8313391
vt 0.8241247 0.8313391
vt 0.8241247 0.8169103
vt 0.7952672 0.7880528
vt 0.7952672 0.8024815
vt 0.8069414 0.8024815
vt 0.8069414 0.7880528
vt 0.809696 0.8313391
vt 0.809696 0.8430132
vt 0.8241247 0.8430132
vt 0.8241247 0.8313391
vt 0.8268793 0.8024815
vt 0.8385534 0.8024815
vt 0.8385534 0.7880528
vt 0.8268793 0.7880528
vt 0.809696 0.8052361
vt 0.809696 0.8169103
vt 0.8241247 0.8169103
vt 0.8241247 0.8052361
vn 0.3118192 0.6718506 -0.6718525
vn 0.3118191 0.6718504 -0.6718525
vn 0.3118191 0.6718505 -0.6718524
vn -0.7913122 0.432334 -0.4323337
vn -0.7913122 0.432334 -0.4323336
vn -0.7913121 0.432334 -0.4323336
vn -0.7913122 0.432334 -0.4323337
vn -1 0 0
vn -1 0 0
vn -1 0 0
vn -1 0 0
vn -0.7913123 -0.4323332 0.4323343
vn -0.7913123 -0.4323332 0.4323343
vn -0.7913123 -0.4323332 0.4323343
vn -0.7913123 -0.4323332 0.4323343
vn -0.7913147 -0.4323313 -0.4323317
vn -0.7913147 -0.4323313 -0.4323317
vn -0.7913147 -0.4323313 -0.4323317
vn -0.7913147 -0.4323313 -0.4323317
vn -0.7913116 0.4323329 0.4323357
vn -0.7913117 0.432333 0.4323357
vn -0.7913116 0.4323329 0.4323357
vn -0.7913116 0.4323329 0.4323357
vn 0.3118194 -0.6718509 0.6718519
vn 0.3118193 -0.671851 0.6718519
vn 0.3118194 -0.6718509 0.6718519
vn 0.3118192 -0.6718525 -0.6718504
vn 0.3118192 -0.6718525 -0.6718506
vn 0.3118192 -0.6718525 -0.6718506
vn 0.3118203 0.6718507 0.6718518
vn 0.3118203 0.6718507 0.6718518
vn 0.3118203 0.6718507 0.6718516
vn 0 0.707104 0.7071095
vn 0 0.707104 0.7071095
vn 0 0.707104 0.7071095
vn 0 0.707104 0.7071095
vn 0 -0.7071069 0.7071066
vn 0 -0.7071069 0.7071066
vn 0 -0.7071069 0.7071066
vn 0 -0.7071069 0.7071066
vn 0 -0.707109 -0.7071046
vn 0 -0.707109 -0.7071045
vn 0 -0.707109 -0.7071045
vn 0 -0.707109 -0.7071045
vn 0 0.7071106 -0.7071028
vn 0 0.7071106 -0.7071028
vn 0 0.7071106 -0.7071028
vn 0 0.7071106 -0.7071029
vn -1 -2.291045E-06 0
vn -1 -2.291045E-06 0
vn -1 -2.291045E-06 0
vn -1 -2.291045E-06 0
vn 0.2427057 0.6374633 0.7312555
vn 0.2427057 0.6374633 0.7312555
vn 0.2427057 0.6374632 0.7312555
vn 0.2427057 0.6374632 0.7312555
vn 0.00354417 -0.7071027 0.7071019
vn 0.00354417 -0.7071027 0.707102
vn 0.00354417 -0.7071027 0.707102
vn 0.00354417 -0.7071027 0.707102
vn 0.2454212 -0.6370147 -0.7307398
vn 0.2454212 -0.6370147 -0.7307398
vn 0.2454212 -0.6370147 -0.7307398
vn 0.2454212 -0.6370147 -0.7307398
vn 0.005438919 0.7070963 -0.7070963
vn 0.005438919 0.7070963 -0.7070963
vn 0.005438919 0.7070963 -0.7070963
vn 0.005438919 0.7070963 -0.7070963
vn -1 -5.727763E-06 0
vn -1 -5.727763E-06 0
vn -1 -5.727763E-06 0
vn -1 -5.727763E-06 0
vn 0.2427117 -0.7312459 0.637472
vn 0.2427117 -0.7312459 0.637472
vn 0.2427117 -0.7312458 0.637472
vn 0.2427117 -0.7312459 0.637472
vn 0.003543106 -0.7071027 -0.7071019
vn 0.003543106 -0.7071027 -0.7071019
vn 0.003543106 -0.7071027 -0.7071019
vn 0.003543106 -0.7071027 -0.707102
vn 0.2454119 0.7307357 -0.637023
vn 0.2454119 0.7307357 -0.637023
vn 0.2454119 0.7307357 -0.637023
vn 0.2454119 0.7307358 -0.637023
vn 0.005438922 0.707096 0.7070966
vn 0.005438922 0.7070959 0.7070967
vn 0.005438922 0.7070959 0.7070967
vn 0.005438922 0.7070959 0.7070967
g trapArrowWall_arrows12_0
f 3/3/3 2/2/2 1/1/1
f 6/6/6 5/5/5 4/4/4
f 7/7/7 6/6/6 4/4/4
f 10/10/10 9/9/9 8/8/8
f 11/11/11 10/10/10 8/8/8
f 14/14/14 13/13/13 12/12/12
f 15/15/15 14/14/14 12/12/12
f 18/18/18 17/17/17 16/16/16
f 19/19/19 18/18/18 16/16/16
f 22/22/22 21/21/21 20/20/20
f 23/23/23 22/22/22 20/20/20
f 26/26/26 25/25/25 24/24/24
f 29/29/29 28/28/28 27/27/27
f 32/32/32 31/31/31 30/30/30
f 35/35/35 34/34/34 33/33/33
f 36/36/36 35/35/35 33/33/33
f 39/39/39 38/38/38 37/37/37
f 40/40/40 39/39/39 37/37/37
f 43/43/43 42/42/42 41/41/41
f 44/44/44 43/43/43 41/41/41
f 47/47/47 46/46/46 45/45/45
f 48/48/48 47/47/47 45/45/45
f 51/51/51 50/50/50 49/49/49
f 52/52/52 51/51/51 49/49/49
f 55/55/55 54/54/54 53/53/53
f 56/56/56 55/55/55 53/53/53
f 59/59/59 58/58/58 57/57/57
f 60/60/60 59/59/59 57/57/57
f 63/63/63 62/62/62 61/61/61
f 64/64/64 63/63/63 61/61/61
f 67/67/67 66/66/66 65/65/65
f 68/68/68 67/67/67 65/65/65
f 71/71/71 70/70/70 69/69/69
f 72/72/72 71/71/71 69/69/69
f 75/75/75 74/74/74 73/73/73
f 76/76/76 75/75/75 73/73/73
f 79/79/79 78/78/78 77/77/77
f 80/80/80 79/79/79 77/77/77
f 83/83/83 82/82/82 81/81/81
f 84/84/84 83/83/83 81/81/81
f 87/87/87 86/86/86 85/85/85
f 88/88/88 87/87/87 85/85/85
