g trapArrowWall_arrows10
v 0.3209406 0.1272771 -4.550072E-07
v 0.3209409 -1.120399E-07 -0.1272771
v 0.595174 -1.120399E-07 1.553444E-07
v 0.3209406 0.1272771 -4.550072E-07
v 0.2779972 0.04867634 1.553444E-07
v 0.2779975 1.931359E-07 -0.04867599
v 0.3209409 -1.120399E-07 -0.1272771
v -0.5951739 0.04867634 -4.550072E-07
v -0.5951739 -1.120399E-07 0.0486763
v -0.5951739 -0.04867626 -4.550072E-07
v -0.5951739 1.931359E-07 -0.0486766
v 0.2779972 -1.120399E-07 0.0486763
v 0.3209406 -1.120399E-07 0.1272768
v 0.3209406 -0.127277 -4.550072E-07
v 0.2779972 -0.04867626 1.553444E-07
v 0.3209406 -0.127277 -4.550072E-07
v 0.3209409 -1.120399E-07 -0.1272771
v 0.2779975 1.931359E-07 -0.04867599
v 0.2779972 -0.04867626 1.553444E-07
v 0.2779972 -1.120399E-07 0.0486763
v 0.2779972 0.04867634 1.553444E-07
v 0.3209406 0.1272771 -4.550072E-07
v 0.3209406 -1.120399E-07 0.1272768
v 0.3209406 -1.120399E-07 0.1272768
v 0.595174 -1.120399E-07 1.553444E-07
v 0.3209406 -0.127277 -4.550072E-07
v 0.595174 -1.120399E-07 1.553444E-07
v 0.3209409 -1.120399E-07 -0.1272771
v 0.3209406 -0.127277 -4.550072E-07
v 0.3209406 -1.120399E-07 0.1272768
v 0.3209406 0.1272771 -4.550072E-07
v 0.595174 -1.120399E-07 1.553444E-07
v -0.5951739 -1.120399E-07 0.0486763
v -0.5951739 0.04867634 -4.550072E-07
v 0.2779972 0.04867634 1.553444E-07
v 0.2779972 -1.120399E-07 0.0486763
v -0.5951739 -1.120399E-07 0.0486763
v 0.2779972 -1.120399E-07 0.0486763
v 0.2779972 -0.04867626 1.553444E-07
v -0.5951739 -0.04867626 -4.550072E-07
v 0.2779975 1.931359E-07 -0.04867599
v -0.5951739 1.931359E-07 -0.0486766
v -0.5951739 -0.04867626 -4.550072E-07
v 0.2779972 -0.04867626 1.553444E-07
v 0.2779972 0.04867634 1.553444E-07
v -0.5951739 0.04867634 -4.550072E-07
v -0.5951739 1.931359E-07 -0.0486766
v 0.2779975 1.931359E-07 -0.04867599
v -0.5732946 0.07651203 0.06684463
v -0.5732946 0.06600514 0.0750087
v -0.5732946 -0.07667827 -0.06767501
v -0.5732946 -0.06617137 -0.07583907
v -0.5732946 0.06600514 0.0750087
v -0.5732946 0.07651203 0.06684463
v -0.3254153 0.03100605 0.02324539
v -0.3254153 0.02324513 0.03100601
v -0.5732946 0.06600514 0.0750087
v -0.3254153 0.02324513 0.03100601
v -0.3254153 -0.03100597 -0.02324508
v -0.5732946 -0.07667827 -0.06767501
v -0.3254153 -0.02324505 -0.0310057
v -0.5732946 -0.06617137 -0.07583907
v -0.5732946 -0.07667827 -0.06767501
v -0.3254153 -0.03100597 -0.02324508
v -0.3254153 0.03100605 0.02324539
v -0.5732946 0.07651203 0.06684463
v -0.5732946 -0.06617137 -0.07583907
v -0.3254153 -0.02324505 -0.0310057
v -0.5732946 -0.06684428 0.07651199
v -0.5732946 -0.07500835 0.0660048
v -0.5732946 0.06767506 -0.07667831
v -0.5732946 0.07583912 -0.06617171
v -0.5732946 -0.07500835 0.0660048
v -0.5732946 -0.06684428 0.07651199
v -0.3254153 -0.02324505 0.03100601
v -0.3254153 -0.03100597 0.02324539
v -0.5732946 -0.07500835 0.0660048
v -0.3254153 -0.03100597 0.02324539
v -0.3254153 0.02324513 -0.0310057
v -0.5732946 0.06767506 -0.07667831
v -0.3254153 0.03100605 -0.02324508
v -0.5732946 0.07583912 -0.06617171
v -0.5732946 0.06767506 -0.07667831
v -0.3254153 0.02324513 -0.0310057
v -0.3254153 -0.02324505 0.03100601
v -0.5732946 -0.06684428 0.07651199
v -0.5732946 0.07583912 -0.06617171
v -0.3254153 0.03100605 -0.02324508
vt 0.385015 0.6460553
vt 0.4346434 0.6460553
vt 0.385015 0.5391251
vt 0.385015 0.6460553
vt 0.385015 0.6628
vt 0.4039951 0.6628
vt 0.4346434 0.6460553
vt 0.8040869 0.5616994
vt 0.8040869 0.5761281
vt 0.8185157 0.5761281
vt 0.8185157 0.5616994
vt 0.366035 0.6628
vt 0.3353866 0.6460553
vt 0.385015 0.6460553
vt 0.385015 0.6628
vt 0.385015 0.6460553
vt 0.4346434 0.6460553
vt 0.4039951 0.6628
vt 0.385015 0.6628
vt 0.366035 0.6628
vt 0.385015 0.6628
vt 0.385015 0.6460553
vt 0.3353866 0.6460553
vt 0.3353866 0.6460553
vt 0.385015 0.5391251
vt 0.385015 0.6460553
vt 0.385015 0.5391251
vt 0.4346434 0.6460553
vt 0.385015 0.6460553
vt 0.3353866 0.6460553
vt 0.385015 0.6460553
vt 0.385015 0.5391251
vt 0.7896582 0.5328419
vt 0.7896582 0.5472707
vt 0.8013324 0.5472707
vt 0.8013324 0.5328419
vt 0.8040869 0.5761281
vt 0.8040869 0.5878023
vt 0.8185157 0.5878023
vt 0.8185157 0.5761281
vt 0.8212702 0.5472707
vt 0.8329444 0.5472707
vt 0.8329444 0.5328419
vt 0.8212702 0.5328419
vt 0.8040869 0.5500252
vt 0.8040869 0.5616994
vt 0.8185157 0.5616994
vt 0.8185157 0.5500252
vt 0.809696 0.8169103
vt 0.809696 0.8313391
vt 0.8241247 0.8313391
vt 0.8241247 0.8169103
vt 0.7952672 0.7880528
vt 0.7952672 0.8024815
vt 0.8069414 0.8024815
vt 0.8069414 0.7880528
vt 0.809696 0.8313391
vt 0.809696 0.8430132
vt 0.8241247 0.8430132
vt 0.8241247 0.8313391
vt 0.8268793 0.8024815
vt 0.8385534 0.8024815
vt 0.8385534 0.7880528
vt 0.8268793 0.7880528
vt 0.809696 0.8052361
vt 0.809696 0.8169103
vt 0.8241247 0.8169103
vt 0.8241247 0.8052361
vt 0.809696 0.8169103
vt 0.809696 0.8313391
vt 0.8241247 0.8313391
vt 0.8241247 0.8169103
vt 0.7952672 0.7880528
vt 0.7952672 0.8024815
vt 0.8069414 0.8024815
vt 0.8069414 0.7880528
vt 0.809696 0.8313391
vt 0.809696 0.8430132
vt 0.8241247 0.8430132
vt 0.8241247 0.8313391
vt 0.8268793 0.8024815
vt 0.8385534 0.8024815
vt 0.8385534 0.7880528
vt 0.8268793 0.7880528
vt 0.809696 0.8052361
vt 0.809696 0.8169103
vt 0.8241247 0.8169103
vt 0.8241247 0.8052361
vn 0.3118209 0.6718503 -0.6718519
vn 0.311821 0.6718504 -0.6718518
vn 0.311821 0.6718504 -0.6718518
vn -0.7913147 0.432328 -0.432335
vn -0.7913147 0.432328 -0.432335
vn -0.7913147 0.432328 -0.432335
vn -0.7913147 0.432328 -0.432335
vn -1 0 0
vn -1 0 0
vn -1 0 0
vn -1 0 0
vn -0.7913091 -0.4323373 0.4323359
vn -0.7913091 -0.4323373 0.4323359
vn -0.7913091 -0.4323373 0.4323359
vn -0.7913091 -0.4323374 0.4323359
vn -0.7913165 -0.4323266 -0.4323329
vn -0.7913166 -0.4323267 -0.4323329
vn -0.7913166 -0.4323267 -0.4323329
vn -0.7913166 -0.4323267 -0.4323329
vn -0.7913086 0.4323371 0.4323371
vn -0.7913086 0.4323371 0.4323371
vn -0.7913086 0.4323371 0.4323371
vn -0.7913086 0.4323371 0.4323371
vn 0.3118154 -0.6718524 0.6718524
vn 0.3118154 -0.6718524 0.6718524
vn 0.3118154 -0.6718524 0.6718524
vn 0.3118212 -0.671851 -0.671851
vn 0.3118212 -0.671851 -0.671851
vn 0.3118213 -0.671851 -0.671851
vn 0.311817 0.6718519 0.6718519
vn 0.3118171 0.6718519 0.6718519
vn 0.311817 0.6718519 0.6718519
vn -4.061692E-07 0.7071072 0.7071064
vn -4.061692E-07 0.7071072 0.7071064
vn -4.061692E-07 0.7071072 0.7071064
vn -4.061692E-07 0.7071072 0.7071064
vn -4.061702E-07 -0.7071087 0.7071048
vn -4.061702E-07 -0.7071087 0.7071048
vn -4.061702E-07 -0.7071087 0.7071048
vn -4.061702E-07 -0.7071088 0.7071047
vn 0 -0.7071049 -0.7071087
vn 0 -0.7071049 -0.7071087
vn 0 -0.7071049 -0.7071087
vn 0 -0.7071049 -0.7071086
vn 0 0.7071066 -0.7071069
vn 0 0.7071066 -0.7071069
vn 0 0.7071066 -0.7071069
vn 0 0.7071066 -0.7071069
vn -1 -2.290982E-06 0
vn -1 -2.290982E-06 0
vn -1 -2.290982E-06 0
vn -1 -2.290982E-06 0
vn 0.2427108 0.6374662 0.7312511
vn 0.2427108 0.6374664 0.7312511
vn 0.2427108 0.6374663 0.7312511
vn 0.2427108 0.6374664 0.7312511
vn 0.003546283 -0.7071038 0.7071008
vn 0.003546283 -0.7071038 0.7071009
vn 0.003546283 -0.7071037 0.7071009
vn 0.003546283 -0.7071038 0.7071009
vn 0.2454197 -0.6370111 -0.7307435
vn 0.2454198 -0.6370111 -0.7307435
vn 0.2454197 -0.637011 -0.7307436
vn 0.2454197 -0.6370111 -0.7307435
vn 0.005439624 0.7070973 -0.7070952
vn 0.005439624 0.7070974 -0.7070953
vn 0.005439624 0.7070974 -0.7070953
vn 0.005439624 0.7070974 -0.7070953
vn -1 -1.145548E-06 0
vn -1 -1.145548E-06 0
vn -1 -1.145547E-06 0
vn -1 -1.145548E-06 0
vn 0.2426973 -0.7312498 0.6374729
vn 0.2426973 -0.7312498 0.637473
vn 0.2426973 -0.7312498 0.6374729
vn 0.2426972 -0.7312498 0.6374729
vn 0.003546998 -0.7071023 -0.7071023
vn 0.003546998 -0.7071023 -0.7071023
vn 0.003546997 -0.7071023 -0.7071023
vn 0.003546998 -0.7071023 -0.7071023
vn 0.2454215 0.7307288 -0.6370273
vn 0.2454215 0.7307289 -0.6370272
vn 0.2454214 0.7307288 -0.6370273
vn 0.2454214 0.7307288 -0.6370273
vn 0.005437499 0.7070977 0.7070949
vn 0.005437499 0.7070976 0.7070949
vn 0.005437498 0.7070977 0.7070948
vn 0.005437499 0.7070976 0.7070949
g trapArrowWall_arrows10_0
f 3/3/3 2/2/2 1/1/1
f 6/6/6 5/5/5 4/4/4
f 7/7/7 6/6/6 4/4/4
f 10/10/10 9/9/9 8/8/8
f 11/11/11 10/10/10 8/8/8
f 14/14/14 13/13/13 12/12/12
f 15/15/15 14/14/14 12/12/12
f 18/18/18 17/17/17 16/16/16
f 19/19/19 18/18/18 16/16/16
f 22/22/22 21/21/21 20/20/20
f 23/23/23 22/22/22 20/20/20
f 26/26/26 25/25/25 24/24/24
f 29/29/29 28/28/28 27/27/27
f 32/32/32 31/31/31 30/30/30
f 35/35/35 34/34/34 33/33/33
f 36/36/36 35/35/35 33/33/33
f 39/39/39 38/38/38 37/37/37
f 40/40/40 39/39/39 37/37/37
f 43/43/43 42/42/42 41/41/41
f 44/44/44 43/43/43 41/41/41
f 47/47/47 46/46/46 45/45/45
f 48/48/48 47/47/47 45/45/45
f 51/51/51 50/50/50 49/49/49
f 52/52/52 51/51/51 49/49/49
f 55/55/55 54/54/54 53/53/53
f 56/56/56 55/55/55 53/53/53
f 59/59/59 58/58/58 57/57/57
f 60/60/60 59/59/59 57/57/57
f 63/63/63 62/62/62 61/61/61
f 64/64/64 63/63/63 61/61/61
f 67/67/67 66/66/66 65/65/65
f 68/68/68 67/67/67 65/65/65
f 71/71/71 70/70/70 69/69/69
f 72/72/72 71/71/71 69/69/69
f 75/75/75 74/74/74 73/73/73
f 76/76/76 75/75/75 73/73/73
f 79/79/79 78/78/78 77/77/77
f 80/80/80 79/79/79 77/77/77
f 83/83/83 82/82/82 81/81/81
f 84/84/84 83/83/83 81/81/81
f 87/87/87 86/86/86 85/85/85
f 88/88/88 87/87/87 85/85/85
