g trapArrowWall_arrows15
v 0.3209406 0.127277 9.149211E-08
v 0.3209409 -1.782677E-07 -0.1272771
v 0.595174 -1.782677E-07 9.149211E-08
v 0.3209406 0.127277 9.149211E-08
v 0.2779972 0.04867627 -2.136837E-07
v 0.2779975 1.269081E-07 -0.04867636
v 0.3209409 -1.782677E-07 -0.1272771
v -0.5951739 0.04867627 -2.136837E-07
v -0.5951739 -1.782677E-07 0.04867593
v -0.5951739 -0.04867632 -2.136837E-07
v -0.5951739 1.269081E-07 -0.04867636
v 0.2779972 -1.782677E-07 0.04867593
v 0.3209406 -1.782677E-07 0.1272773
v 0.3209406 -0.1272771 9.149211E-08
v 0.2779972 -0.04867632 -2.136837E-07
v 0.3209406 -0.1272771 9.149211E-08
v 0.3209409 -1.782677E-07 -0.1272771
v 0.2779975 1.269081E-07 -0.04867636
v 0.2779972 -0.04867632 -2.136837E-07
v 0.2779972 -1.782677E-07 0.04867593
v 0.2779972 0.04867627 -2.136837E-07
v 0.3209406 0.127277 9.149211E-08
v 0.3209406 -1.782677E-07 0.1272773
v 0.3209406 -1.782677E-07 0.1272773
v 0.595174 -1.782677E-07 9.149211E-08
v 0.3209406 -0.1272771 9.149211E-08
v 0.595174 -1.782677E-07 9.149211E-08
v 0.3209409 -1.782677E-07 -0.1272771
v 0.3209406 -0.1272771 9.149211E-08
v 0.3209406 -1.782677E-07 0.1272773
v 0.3209406 0.127277 9.149211E-08
v 0.595174 -1.782677E-07 9.149211E-08
v -0.5951739 -1.782677E-07 0.04867593
v -0.5951739 0.04867627 -2.136837E-07
v 0.2779972 0.04867627 -2.136837E-07
v 0.2779972 -1.782677E-07 0.04867593
v -0.5951739 -1.782677E-07 0.04867593
v 0.2779972 -1.782677E-07 0.04867593
v 0.2779972 -0.04867632 -2.136837E-07
v -0.5951739 -0.04867632 -2.136837E-07
v 0.2779975 1.269081E-07 -0.04867636
v -0.5951739 1.269081E-07 -0.04867636
v -0.5951739 -0.04867632 -2.136837E-07
v 0.2779972 -0.04867632 -2.136837E-07
v 0.2779972 0.04867627 -2.136837E-07
v -0.5951739 0.04867627 -2.136837E-07
v -0.5951739 1.269081E-07 -0.04867636
v 0.2779975 1.269081E-07 -0.04867636
v -0.5732946 0.07651196 0.06684427
v -0.5732946 0.06600507 0.07500863
v -0.5732946 -0.07667834 -0.06767477
v -0.5732946 -0.06617144 -0.07583914
v -0.5732946 0.06600507 0.07500863
v -0.5732946 0.07651196 0.06684427
v -0.3254153 0.03100598 0.02324533
v -0.3254153 0.02324506 0.03100595
v -0.5732946 0.06600507 0.07500863
v -0.3254153 0.02324506 0.03100595
v -0.3254153 -0.03100604 -0.02324515
v -0.5732946 -0.07667834 -0.06767477
v -0.3254153 -0.02324511 -0.03100577
v -0.5732946 -0.06617144 -0.07583914
v -0.5732946 -0.07667834 -0.06767477
v -0.3254153 -0.03100604 -0.02324515
v -0.3254153 0.03100598 0.02324533
v -0.5732946 0.07651196 0.06684427
v -0.5732946 -0.06617144 -0.07583914
v -0.3254153 -0.02324511 -0.03100577
v -0.5732946 -0.06684435 0.07651193
v -0.5732946 -0.07500841 0.06600473
v -0.5732946 0.06767499 -0.07667868
v -0.5732946 0.07583906 -0.06617147
v -0.5732946 -0.07500841 0.06600473
v -0.5732946 -0.06684435 0.07651193
v -0.3254153 -0.02324511 0.03100595
v -0.3254153 -0.03100604 0.02324533
v -0.5732946 -0.07500841 0.06600473
v -0.3254153 -0.03100604 0.02324533
v -0.3254153 0.02324506 -0.03100577
v -0.5732946 0.06767499 -0.07667868
v -0.3254153 0.03100598 -0.02324515
v -0.5732946 0.07583906 -0.06617147
v -0.5732946 0.06767499 -0.07667868
v -0.3254153 0.02324506 -0.03100577
v -0.3254153 -0.02324511 0.03100595
v -0.5732946 -0.06684435 0.07651193
v -0.5732946 0.07583906 -0.06617147
v -0.3254153 0.03100598 -0.02324515
vt 0.385015 0.6460553
vt 0.4346434 0.6460553
vt 0.385015 0.5391251
vt 0.385015 0.6460553
vt 0.385015 0.6628
vt 0.4039951 0.6628
vt 0.4346434 0.6460553
vt 0.8040869 0.5616994
vt 0.8040869 0.5761281
vt 0.8185157 0.5761281
vt 0.8185157 0.5616994
vt 0.366035 0.6628
vt 0.3353866 0.6460553
vt 0.385015 0.6460553
vt 0.385015 0.6628
vt 0.385015 0.6460553
vt 0.4346434 0.6460553
vt 0.4039951 0.6628
vt 0.385015 0.6628
vt 0.366035 0.6628
vt 0.385015 0.6628
vt 0.385015 0.6460553
vt 0.3353866 0.6460553
vt 0.3353866 0.6460553
vt 0.385015 0.5391251
vt 0.385015 0.6460553
vt 0.385015 0.5391251
vt 0.4346434 0.6460553
vt 0.385015 0.6460553
vt 0.3353866 0.6460553
vt 0.385015 0.6460553
vt 0.385015 0.5391251
vt 0.7896582 0.5328419
vt 0.7896582 0.5472707
vt 0.8013324 0.5472707
vt 0.8013324 0.5328419
vt 0.8040869 0.5761281
vt 0.8040869 0.5878023
vt 0.8185157 0.5878023
vt 0.8185157 0.5761281
vt 0.8212702 0.5472707
vt 0.8329444 0.5472707
vt 0.8329444 0.5328419
vt 0.8212702 0.5328419
vt 0.8040869 0.5500252
vt 0.8040869 0.5616994
vt 0.8185157 0.5616994
vt 0.8185157 0.5500252
vt 0.809696 0.8169103
vt 0.809696 0.8313391
vt 0.8241247 0.8313391
vt 0.8241247 0.8169103
vt 0.7952672 0.7880528
vt 0.7952672 0.8024815
vt 0.8069414 0.8024815
vt 0.8069414 0.7880528
vt 0.809696 0.8313391
vt 0.809696 0.8430132
vt 0.8241247 0.8430132
vt 0.8241247 0.8313391
vt 0.8268793 0.8024815
vt 0.8385534 0.8024815
vt 0.8385534 0.7880528
vt 0.8268793 0.7880528
vt 0.809696 0.8052361
vt 0.809696 0.8169103
vt 0.8241247 0.8169103
vt 0.8241247 0.8052361
vt 0.809696 0.8169103
vt 0.809696 0.8313391
vt 0.8241247 0.8313391
vt 0.8241247 0.8169103
vt 0.7952672 0.7880528
vt 0.7952672 0.8024815
vt 0.8069414 0.8024815
vt 0.8069414 0.7880528
vt 0.809696 0.8313391
vt 0.809696 0.8430132
vt 0.8241247 0.8430132
vt 0.8241247 0.8313391
vt 0.8268793 0.8024815
vt 0.8385534 0.8024815
vt 0.8385534 0.7880528
vt 0.8268793 0.7880528
vt 0.809696 0.8052361
vt 0.809696 0.8169103
vt 0.8241247 0.8169103
vt 0.8241247 0.8052361
vn 0.3118205 0.6718512 -0.6718512
vn 0.3118204 0.6718512 -0.6718512
vn 0.3118205 0.6718512 -0.6718512
vn -0.7913138 0.43233 -0.4323345
vn -0.7913138 0.43233 -0.4323345
vn -0.7913138 0.43233 -0.4323345
vn -0.7913138 0.43233 -0.4323345
vn -1 0 0
vn -1 0 0
vn -1 0 0
vn -1 0 0
vn -0.7913155 -0.4323317 0.4323299
vn -0.7913155 -0.4323317 0.43233
vn -0.7913155 -0.4323317 0.43233
vn -0.7913156 -0.4323316 0.4323299
vn -0.7913124 -0.4323305 -0.4323365
vn -0.7913125 -0.4323305 -0.4323365
vn -0.7913125 -0.4323306 -0.4323366
vn -0.7913124 -0.4323305 -0.4323365
vn -0.7913154 0.4323309 0.4323309
vn -0.7913154 0.4323309 0.4323309
vn -0.7913154 0.4323309 0.4323309
vn -0.7913154 0.4323309 0.4323309
vn 0.311819 -0.671852 0.6718511
vn 0.311819 -0.6718519 0.6718511
vn 0.311819 -0.671852 0.6718511
vn 0.3118192 -0.6718525 -0.6718504
vn 0.3118192 -0.6718525 -0.6718506
vn 0.3118192 -0.6718525 -0.6718506
vn 0.3118203 0.6718507 0.6718518
vn 0.3118203 0.6718507 0.6718518
vn 0.3118203 0.6718507 0.6718516
vn 0 0.707104 0.7071095
vn 0 0.707104 0.7071095
vn 0 0.707104 0.7071095
vn 0 0.707104 0.7071095
vn 0 -0.7071069 0.7071066
vn 0 -0.7071069 0.7071066
vn 0 -0.7071069 0.7071066
vn 0 -0.7071069 0.7071066
vn 0 -0.7071045 -0.707109
vn 0 -0.7071045 -0.707109
vn 0 -0.7071045 -0.707109
vn 0 -0.7071045 -0.707109
vn 0 0.7071061 -0.7071074
vn 0 0.7071061 -0.7071074
vn 0 0.7071061 -0.7071074
vn 0 0.7071062 -0.7071073
vn -1 -6.873183E-06 0
vn -1 -6.873183E-06 0
vn -1 -6.873183E-06 0
vn -1 -6.873183E-06 0
vn 0.2427057 0.6374699 0.7312496
vn 0.2427057 0.6374699 0.7312495
vn 0.2427057 0.6374699 0.7312496
vn 0.2427057 0.6374699 0.7312495
vn 0.003544878 -0.7071027 0.7071019
vn 0.003544877 -0.7071027 0.707102
vn 0.003544877 -0.7071027 0.707102
vn 0.003544877 -0.7071027 0.707102
vn 0.245415 -0.6370246 -0.7307332
vn 0.245415 -0.6370248 -0.7307332
vn 0.245415 -0.6370248 -0.7307332
vn 0.245415 -0.6370248 -0.7307332
vn 0.005439983 0.707096 -0.7070966
vn 0.005439983 0.7070959 -0.7070966
vn 0.005439983 0.707096 -0.7070966
vn 0.005439982 0.7070959 -0.7070966
vn -1 -1.14552E-06 0
vn -1 -1.14552E-06 0
vn -1 -1.14552E-06 0
vn -1 -1.14552E-06 0
vn 0.2427105 -0.7312512 0.6374663
vn 0.2427105 -0.7312512 0.6374663
vn 0.2427105 -0.7312512 0.6374663
vn 0.2427105 -0.7312511 0.6374663
vn 0.003545937 -0.7071023 -0.7071023
vn 0.003545937 -0.7071023 -0.7071023
vn 0.003545937 -0.7071023 -0.7071023
vn 0.003545937 -0.7071023 -0.7071023
vn 0.2454135 0.7307405 -0.6370168
vn 0.2454135 0.7307405 -0.6370168
vn 0.2454135 0.7307405 -0.6370169
vn 0.2454135 0.7307405 -0.6370168
vn 0.00543963 0.707096 0.7070966
vn 0.005439629 0.7070959 0.7070967
vn 0.005439629 0.7070959 0.7070967
vn 0.005439629 0.7070959 0.7070967
g trapArrowWall_arrows15_0
f 3/3/3 2/2/2 1/1/1
f 6/6/6 5/5/5 4/4/4
f 7/7/7 6/6/6 4/4/4
f 10/10/10 9/9/9 8/8/8
f 11/11/11 10/10/10 8/8/8
f 14/14/14 13/13/13 12/12/12
f 15/15/15 14/14/14 12/12/12
f 18/18/18 17/17/17 16/16/16
f 19/19/19 18/18/18 16/16/16
f 22/22/22 21/21/21 20/20/20
f 23/23/23 22/22/22 20/20/20
f 26/26/26 25/25/25 24/24/24
f 29/29/29 28/28/28 27/27/27
f 32/32/32 31/31/31 30/30/30
f 35/35/35 34/34/34 33/33/33
f 36/36/36 35/35/35 33/33/33
f 39/39/39 38/38/38 37/37/37
f 40/40/40 39/39/39 37/37/37
f 43/43/43 42/42/42 41/41/41
f 44/44/44 43/43/43 41/41/41
f 47/47/47 46/46/46 45/45/45
f 48/48/48 47/47/47 45/45/45
f 51/51/51 50/50/50 49/49/49
f 52/52/52 51/51/51 49/49/49
f 55/55/55 54/54/54 53/53/53
f 56/56/56 55/55/55 53/53/53
f 59/59/59 58/58/58 57/57/57
f 60/60/60 59/59/59 57/57/57
f 63/63/63 62/62/62 61/61/61
f 64/64/64 63/63/63 61/61/61
f 67/67/67 66/66/66 65/65/65
f 68/68/68 67/67/67 65/65/65
f 71/71/71 70/70/70 69/69/69
f 72/72/72 71/71/71 69/69/69
f 75/75/75 74/74/74 73/73/73
f 76/76/76 75/75/75 73/73/73
f 79/79/79 78/78/78 77/77/77
f 80/80/80 79/79/79 77/77/77
f 83/83/83 82/82/82 81/81/81
f 84/84/84 83/83/83 81/81/81
f 87/87/87 86/86/86 85/85/85
f 88/88/88 87/87/87 85/85/85
