g trinketLumote
v -0.5745661 -0.3774819 -0.3495553
v -0.2425607 -0.5844229 0.440933
v 0.5745661 -0.5003411 0.119751
v 0.2425607 -0.2934 -0.6707373
v 0.5793476 -0.4910331 0.1343523
v -0.2377792 -0.575115 0.4555343
v -0.2377792 0.2781315 0.6789047
v 0.5793476 0.3622133 0.3577228
v -0.2543287 0.2799008 0.6721459
v -0.2543287 -0.5733456 0.4487755
v -0.5863342 -0.3664046 -0.3417127
v -0.5863342 0.4868419 -0.1183423
v 0.2543287 -0.2799008 -0.6721459
v 0.5863342 -0.4868419 0.1183423
v 0.5863342 0.3664046 0.3417127
v 0.2543287 0.5733456 -0.4487755
v 0.5745661 0.3774819 0.3495553
v -0.2425607 0.2934 0.6707373
v -0.5745661 0.5003411 -0.119751
v 0.2425607 0.5844229 -0.440933
v 0.2377792 0.575115 -0.4555343
v -0.5793476 0.4910331 -0.1343523
v -0.5793476 -0.3622133 -0.3577228
v 0.2377792 -0.2781315 -0.6789047
v -0.2425607 -0.5844229 0.440933
v -0.5745661 -0.3774819 -0.3495553
v -0.5863342 -0.3664046 -0.3417127
v -0.2543287 -0.5733456 0.4487755
v -0.2377792 -0.575115 0.4555343
v 0.5793476 -0.4910331 0.1343523
v 0.5745661 -0.5003411 0.119751
v -0.2425607 -0.5844229 0.440933
v -0.2543287 -0.5733456 0.4487755
v -0.2543287 0.2799008 0.6721459
v -0.2377792 0.2781315 0.6789047
v -0.2377792 -0.575115 0.4555343
v 0.5863342 -0.4868419 0.1183423
v 0.2543287 -0.2799008 -0.6721459
v 0.2425607 -0.2934 -0.6707373
v 0.5745661 -0.5003411 0.119751
v 0.5793476 -0.4910331 0.1343523
v 0.5793476 0.3622133 0.3577228
v 0.5863342 0.3664046 0.3417127
v 0.5863342 -0.4868419 0.1183423
v -0.2543287 0.2799008 0.6721459
v -0.5863342 0.4868419 -0.1183423
v -0.5745661 0.5003411 -0.119751
v -0.2425607 0.2934 0.6707373
v -0.2425607 0.2934 0.6707373
v 0.5745661 0.3774819 0.3495553
v 0.5793476 0.3622133 0.3577228
v -0.2377792 0.2781315 0.6789047
v 0.5745661 0.3774819 0.3495553
v 0.2425607 0.5844229 -0.440933
v 0.2543287 0.5733456 -0.4487755
v 0.5863342 0.3664046 0.3417127
v -0.5863342 0.4868419 -0.1183423
v -0.5863342 -0.3664046 -0.3417127
v -0.5793476 -0.3622133 -0.3577228
v -0.5793476 0.4910331 -0.1343523
v -0.5793476 0.4910331 -0.1343523
v 0.2377792 0.575115 -0.4555343
v 0.2425607 0.5844229 -0.440933
v -0.5745661 0.5003411 -0.119751
v 0.2377792 0.575115 -0.4555343
v 0.2377792 -0.2781315 -0.6789047
v 0.2543287 -0.2799008 -0.6721459
v 0.2543287 0.5733456 -0.4487755
v -0.5745661 -0.3774819 -0.3495553
v 0.2425607 -0.2934 -0.6707373
v 0.2377792 -0.2781315 -0.6789047
v -0.5793476 -0.3622133 -0.3577228
v -0.2543287 -0.5733456 0.4487755
v -0.2377792 -0.575115 0.4555343
v -0.2425607 -0.5844229 0.440933
v 0.5745661 -0.5003411 0.119751
v 0.5793476 -0.4910331 0.1343523
v 0.5863342 -0.4868419 0.1183423
v -0.2425607 0.2934 0.6707373
v -0.2377792 0.2781315 0.6789047
v -0.2543287 0.2799008 0.6721459
v 0.5863342 0.3664046 0.3417127
v 0.5793476 0.3622133 0.3577228
v 0.5745661 0.3774819 0.3495553
v -0.5793476 0.4910331 -0.1343523
v -0.5745661 0.5003411 -0.119751
v -0.5863342 0.4868419 -0.1183423
v 0.2543287 0.5733456 -0.4487755
v 0.2425607 0.5844229 -0.440933
v 0.2377792 0.575115 -0.4555343
v -0.5745661 -0.3774819 -0.3495553
v -0.5793476 -0.3622133 -0.3577228
v -0.5863342 -0.3664046 -0.3417127
v 0.2543287 -0.2799008 -0.6721459
v 0.2377792 -0.2781315 -0.6789047
v 0.2425607 -0.2934 -0.6707373
vt 0.01399854 0.01399854
vt 0.01399851 0.9860014
vt 0.9860014 0.9860014
vt 0.9860014 0.0139985
vt 0.9860014 0.0139985
vt 0.01399854 0.01399854
vt 0.01399851 0.9860014
vt 0.9860014 0.9860014
vt 0.9860014 0.9860014
vt 0.9860014 0.0139985
vt 0.01399854 0.01399854
vt 0.01399851 0.9860014
vt 0.9860014 0.0139985
vt 0.01399854 0.01399854
vt 0.01399851 0.9860014
vt 0.9860014 0.9860014
vt 0.9860014 0.0139985
vt 0.01399854 0.01399854
vt 0.01399851 0.9860014
vt 0.9860014 0.9860014
vt 0.9860014 0.0139985
vt 0.01399854 0.01399854
vt 0.01399851 0.9860014
vt 0.9860014 0.9860014
vt 0.01399851 0.9860014
vt 0.01399854 0.01399854
vt 0 0.01399851
vt 0 0.9860014
vt 0.01399854 0.01399854
vt 0.9860014 0.0139985
vt 0.9860014 0
vt 0.01399854 -2.700835E-08
vt 0 0.01399851
vt 0 0.9860014
vt 0.01399851 0.9860014
vt 0.01399854 0.01399854
vt 1 0.9860014
vt 1 0.01399851
vt 0.9860014 0.0139985
vt 0.9860014 0.9860014
vt 0.9860014 0.0139985
vt 0.9860014 0.9860014
vt 1 0.9860014
vt 1 0.01399851
vt 0 0.01399851
vt 0 0.9860014
vt 0.01399851 0.9860014
vt 0.01399854 0.01399854
vt 0.01399851 1
vt 0.9860014 1
vt 0.9860014 0.9860014
vt 0.01399851 0.9860014
vt 0.9860014 0.0139985
vt 0.9860014 0.9860014
vt 1 0.9860014
vt 1 0.01399851
vt 0 0.01399851
vt 0 0.9860014
vt 0.01399851 0.9860014
vt 0.01399854 0.01399854
vt 0.01399851 1
vt 0.9860014 1
vt 0.9860014 0.9860014
vt 0.01399851 0.9860014
vt 0.9860014 0.0139985
vt 0.9860014 0.9860014
vt 1 0.9860014
vt 1 0.01399851
vt 0.01399851 1
vt 0.9860014 1
vt 0.9860014 0.9860014
vt 0.01399851 0.9860014
vt 0 0.01399851
vt 0.01399854 0.01399854
vt 0.01399854 -2.700835E-08
vt 0.9860014 0
vt 0.9860014 0.0139985
vt 1 0.01399851
vt 0.01399851 1
vt 0.01399851 0.9860014
vt 0 0.9860014
vt 1 0.9860014
vt 0.9860014 0.9860014
vt 0.9860014 1
vt 0.01399851 1
vt 0.01399851 0.9860014
vt 0 0.9860014
vt 1 0.9860014
vt 0.9860014 0.9860014
vt 0.9860014 1
vt 0.01399851 1
vt 0.01399851 0.9860014
vt 0 0.9860014
vt 1 0.9860014
vt 0.9860014 0.9860014
vt 0.9860014 1
vn 0 -0.9673997 -0.2532545
vn 0 -0.9673997 -0.2532545
vn 0 -0.9673997 -0.2532545
vn 0 -0.9673997 -0.2532545
vn 0.3764234 -0.234627 0.8962452
vn 0.3764234 -0.234627 0.8962452
vn 0.3764234 -0.234627 0.8962452
vn 0.3764234 -0.234627 0.8962452
vn -0.9264477 -0.09533096 0.3641519
vn -0.9264477 -0.09533096 0.3641519
vn -0.9264477 -0.09533096 0.3641519
vn -0.9264477 -0.09533096 0.3641519
vn 0.9264477 0.09533096 -0.3641519
vn 0.9264477 0.09533096 -0.3641519
vn 0.9264477 0.09533096 -0.3641519
vn 0.9264477 0.09533096 -0.3641519
vn 0 0.9673997 0.2532545
vn 0 0.9673997 0.2532546
vn 0 0.9673997 0.2532545
vn 0 0.9673997 0.2532546
vn -0.3764234 0.234627 -0.8962452
vn -0.3764234 0.234627 -0.8962452
vn -0.3764234 0.234627 -0.8962452
vn -0.3764234 0.234627 -0.8962452
vn -0.6550959 -0.7514653 0.07841815
vn -0.6550959 -0.7514653 0.07841815
vn -0.6550959 -0.7514653 0.07841814
vn -0.6550959 -0.7514653 0.07841816
vn 0.2661719 -0.8499601 0.454665
vn 0.2661719 -0.8499601 0.454665
vn 0.266172 -0.8499601 0.454665
vn 0.266172 -0.8499601 0.454665
vn -0.3889272 -0.2333153 0.8912349
vn -0.3889273 -0.2333153 0.8912349
vn -0.3889273 -0.2333153 0.8912349
vn -0.3889271 -0.2333152 0.8912349
vn 0.6550963 -0.6166465 -0.436573
vn 0.6550964 -0.6166465 -0.4365729
vn 0.6550964 -0.6166465 -0.436573
vn 0.6550964 -0.6166465 -0.436573
vn 0.9212686 -0.09849844 0.3762476
vn 0.9212686 -0.09849845 0.3762476
vn 0.9212686 -0.09849845 0.3762476
vn 0.9212686 -0.09849845 0.3762476
vn -0.6550964 0.6166465 0.4365729
vn -0.6550963 0.6166466 0.436573
vn -0.6550963 0.6166465 0.436573
vn -0.6550964 0.6166465 0.4365729
vn 0.2661722 0.5181471 0.8128197
vn 0.2661723 0.5181471 0.8128197
vn 0.2661722 0.5181471 0.8128197
vn 0.2661723 0.5181471 0.8128197
vn 0.655096 0.7514652 -0.07841814
vn 0.655096 0.7514652 -0.07841814
vn 0.655096 0.7514652 -0.07841814
vn 0.655096 0.7514652 -0.07841814
vn -0.9212688 0.09849832 -0.376247
vn -0.9212689 0.09849831 -0.376247
vn -0.9212689 0.09849831 -0.3762471
vn -0.9212689 0.09849831 -0.3762471
vn -0.266172 0.8499601 -0.454665
vn -0.266172 0.8499601 -0.454665
vn -0.266172 0.8499601 -0.454665
vn -0.2661721 0.8499601 -0.454665
vn 0.3889271 0.2333156 -0.8912348
vn 0.3889271 0.2333156 -0.8912348
vn 0.3889272 0.2333156 -0.8912348
vn 0.3889272 0.2333156 -0.8912348
vn -0.2661723 -0.5181471 -0.8128197
vn -0.2661722 -0.5181471 -0.8128197
vn -0.2661723 -0.5181471 -0.8128197
vn -0.2661723 -0.5181471 -0.8128197
vn -0.3175536 -0.7490314 0.5814736
vn -0.3175536 -0.7490315 0.5814736
vn -0.3175536 -0.7490314 0.5814736
vn 0.7522124 -0.638953 0.1609831
vn 0.7522125 -0.638953 0.1609831
vn 0.7522125 -0.6389529 0.1609831
vn -0.3175476 0.3680239 0.8739119
vn -0.3175476 0.3680239 0.8739119
vn -0.3175476 0.3680239 0.8739119
vn 0.7522116 0.478108 0.4534207
vn 0.7522116 0.478108 0.4534207
vn 0.7522116 0.4781081 0.4534208
vn -0.7522125 0.638953 -0.1609831
vn -0.7522124 0.638953 -0.1609831
vn -0.7522125 0.638953 -0.1609831
vn 0.3175536 0.7490314 -0.5814736
vn 0.3175536 0.7490314 -0.5814736
vn 0.3175536 0.7490315 -0.5814736
vn -0.7522119 -0.4781078 -0.4534206
vn -0.7522119 -0.4781078 -0.4534205
vn -0.7522119 -0.4781078 -0.4534205
vn 0.3175499 -0.3680233 -0.8739113
vn 0.3175499 -0.3680233 -0.8739113
vn 0.3175499 -0.3680233 -0.8739113
g trinketLumote_0
f 3/3/3 2/2/2 1/1/1
f 4/4/4 3/3/3 1/1/1
f 7/7/7 6/6/6 5/5/5
f 8/8/8 7/7/7 5/5/5
f 11/11/11 10/10/10 9/9/9
f 12/12/12 11/11/11 9/9/9
f 15/15/15 14/14/14 13/13/13
f 16/16/16 15/15/15 13/13/13
f 19/19/19 18/18/18 17/17/17
f 20/20/20 19/19/19 17/17/17
f 23/23/23 22/22/22 21/21/21
f 24/24/24 23/23/23 21/21/21
f 27/27/27 26/26/26 25/25/25
f 28/28/28 27/27/27 25/25/25
f 31/31/31 30/30/30 29/29/29
f 32/32/32 31/31/31 29/29/29
f 35/35/35 34/34/34 33/33/33
f 36/36/36 35/35/35 33/33/33
f 39/39/39 38/38/38 37/37/37
f 40/40/40 39/39/39 37/37/37
f 43/43/43 42/42/42 41/41/41
f 44/44/44 43/43/43 41/41/41
f 47/47/47 46/46/46 45/45/45
f 48/48/48 47/47/47 45/45/45
f 51/51/51 50/50/50 49/49/49
f 52/52/52 51/51/51 49/49/49
f 55/55/55 54/54/54 53/53/53
f 56/56/56 55/55/55 53/53/53
f 59/59/59 58/58/58 57/57/57
f 60/60/60 59/59/59 57/57/57
f 63/63/63 62/62/62 61/61/61
f 64/64/64 63/63/63 61/61/61
f 67/67/67 66/66/66 65/65/65
f 68/68/68 67/67/67 65/65/65
f 71/71/71 70/70/70 69/69/69
f 72/72/72 71/71/71 69/69/69
f 75/75/75 74/74/74 73/73/73
f 78/78/78 77/77/77 76/76/76
f 81/81/81 80/80/80 79/79/79
f 84/84/84 83/83/83 82/82/82
f 87/87/87 86/86/86 85/85/85
f 90/90/90 89/89/89 88/88/88
f 93/93/93 92/92/92 91/91/91
f 96/96/96 95/95/95 94/94/94
