g unknownLifeform
v -0.1651039 0.4146576 -0.08940125
v -0.1654968 1.103928 -0.5400162
v -0.5635185 1.076065 -0.2038918
v 0.0004445314 2.016846 -0.6022644
v -0.02040434 2.749695 -0.03287506
v -0.2848492 2.054138 -0.4439278
v -0.1654968 1.103928 -0.5400162
v -0.1651039 0.4146576 -0.08940125
v 0.3876381 1.071289 -0.5750122
v -0.2446976 0.9344177 0.5009632
v -0.1651039 0.4146576 -0.08940125
v -0.4990616 0.9989014 0.1976955
v -0.1651039 0.4146576 -0.08940125
v -0.2446976 0.9344177 0.5009632
v 0.1925335 0.8960724 0.4992008
v -0.1951637 1.851074 0.6022606
v -0.212162 2.204834 0.3980503
v 0.2225428 1.956909 0.3831215
v -0.4990616 0.9989014 0.1976955
v -0.1651039 0.4146576 -0.08940125
v -0.5635185 1.076065 -0.2038918
v 0.3876381 1.071289 -0.5750122
v -0.1651039 0.4146576 -0.08940125
v 0.1958466 0.6636353 -0.07369804
v -0.02040434 2.749695 -0.03287506
v 0.3618069 2.147522 -0.3187752
v 0.4668694 2.133301 0.0114975
v 0.2225428 1.956909 0.3831215
v -0.02040434 2.749695 -0.03287506
v 0.4429932 2.038147 0.2146306
v -0.5340881 2.036682 -0.142355
v -0.5376015 1.802338 0.07671356
v -0.5635185 1.076065 -0.2038918
v -0.1654968 1.103928 -0.5400162
v 0.0004445314 2.016846 -0.6022644
v -0.4519424 1.685852 -0.4319878
v 0.0004445314 2.016846 -0.6022644
v -0.2848492 2.054138 -0.4439278
v -0.4519424 1.685852 -0.4319878
v -0.1654968 1.103928 -0.5400162
v 0.3876381 1.071289 -0.5750122
v 0.0004445314 2.016846 -0.6022644
v 0.3876381 1.071289 -0.5750122
v 0.3618069 2.147522 -0.3187752
v 0.0004445314 2.016846 -0.6022644
v 0.3876381 1.071289 -0.5750122
v 0.5635185 1.047287 -0.0209465
v 0.3618069 2.147522 -0.3187752
v 0.4668694 2.133301 0.0114975
v 0.3618069 2.147522 -0.3187752
v 0.5635185 1.047287 -0.0209465
v -0.4990616 0.9989014 0.1976955
v -0.5635185 1.076065 -0.2038918
v -0.469368 1.828125 0.3322182
v -0.4990616 0.9989014 0.1976955
v -0.469368 1.828125 0.3322182
v -0.2446976 0.9344177 0.5009632
v -0.2446976 0.9344177 0.5009632
v -0.1951637 1.851074 0.6022606
v 0.2388859 1.279266 0.5483093
v 0.1925335 0.8960724 0.4992008
v -0.1951637 1.851074 0.6022606
v 0.2225428 1.956909 0.3831215
v 0.2388859 1.279266 0.5483093
v 0.2388859 1.279266 0.5483093
v 0.2225428 1.956909 0.3831215
v 0.5635185 1.047287 -0.0209465
v 0.2225428 1.956909 0.3831215
v 0.4429932 2.038147 0.2146306
v 0.5635185 1.047287 -0.0209465
v -0.5635185 1.076065 -0.2038918
v -0.1654968 1.103928 -0.5400162
v -0.4519424 1.685852 -0.4319878
v -0.4519424 1.685852 -0.4319878
v -0.2848492 2.054138 -0.4439278
v -0.5340881 2.036682 -0.142355
v -0.469368 1.828125 0.3322182
v -0.1951637 1.851074 0.6022606
v -0.2446976 0.9344177 0.5009632
v -0.5376015 1.802338 0.07671356
v -0.3957939 2.122009 0.2195058
v -0.469368 1.828125 0.3322182
v -0.469368 1.828125 0.3322182
v -0.5635185 1.076065 -0.2038918
v -0.5376015 1.802338 0.07671356
v 0.1958466 0.6636353 -0.07369804
v -0.1651039 0.4146576 -0.08940125
v 0.1925335 0.8960724 0.4992008
v -0.3957939 2.122009 0.2195058
v -0.212162 2.204834 0.3980503
v -0.469368 1.828125 0.3322182
v -0.212162 2.204834 0.3980503
v -0.1951637 1.851074 0.6022606
v -0.469368 1.828125 0.3322182
v -0.02040434 2.749695 -0.03287506
v 0.0004445314 2.016846 -0.6022644
v 0.3618069 2.147522 -0.3187752
v -0.02040434 2.749695 -0.03287506
v -0.5340881 2.036682 -0.142355
v -0.2848492 2.054138 -0.4439278
v -0.3957939 2.122009 0.2195058
v -0.5376015 1.802338 0.07671356
v -0.5340881 2.036682 -0.142355
v 0.4429932 2.038147 0.2146306
v -0.02040434 2.749695 -0.03287506
v 0.4668694 2.133301 0.0114975
v 0.4668694 2.133301 0.0114975
v 0.5635185 1.047287 -0.0209465
v 0.4429932 2.038147 0.2146306
v 0.5635185 1.047287 -0.0209465
v 0.3876381 1.071289 -0.5750122
v 0.1958466 0.6636353 -0.07369804
v -0.5340881 2.036682 -0.142355
v -0.5635185 1.076065 -0.2038918
v -0.4519424 1.685852 -0.4319878
v -0.212162 2.204834 0.3980503
v -0.02040434 2.749695 -0.03287506
v 0.2225428 1.956909 0.3831215
v -0.02040434 2.749695 -0.03287506
v -0.212162 2.204834 0.3980503
v -0.3957939 2.122009 0.2195058
v -0.02040434 2.749695 -0.03287506
v -0.3957939 2.122009 0.2195058
v -0.5340881 2.036682 -0.142355
v 0.5635185 1.047287 -0.0209465
v 0.1958466 0.6636353 -0.07369804
v 0.1925335 0.8960724 0.4992008
v 0.1925335 0.8960724 0.4992008
v 0.2388859 1.279266 0.5483093
v 0.5635185 1.047287 -0.0209465
vt 0.6929793 0.1089364
vt 0.7054679 0.08255228
vt 0.6934968 0.08595265
vt 0.7120064 0.04489722
vt 0.6923415 0.0115964
vt 0.7035289 0.04432581
vt 0.7054679 0.08255228
vt 0.6929793 0.1089364
vt 0.7104284 0.08354175
vt 0.6704166 0.08784078
vt 0.6929793 0.1089364
vt 0.6788167 0.08637671
vt 0.6929793 0.1089364
vt 0.6704166 0.08784078
vt 0.6803051 0.0886711
vt 0.6668871 0.05137965
vt 0.6758755 0.03733144
vt 0.682743 0.04618283
vt 0.6788167 0.08637671
vt 0.6929793 0.1089364
vt 0.6934968 0.08595265
vt 0.7104284 0.08354175
vt 0.6929793 0.1089364
vt 0.6954582 0.09735425
vt 0.6923415 0.0115964
vt 0.6977729 0.03875128
vt 0.6944361 0.03827016
vt 0.682743 0.04618283
vt 0.6923415 0.0115964
vt 0.6869429 0.04198846
vt 0.6946717 0.04508766
vt 0.6833956 0.04934315
vt 0.6934968 0.08595265
vt 0.7054679 0.08255228
vt 0.7120064 0.04489722
vt 0.7004248 0.0495784
vt 0.7120064 0.04489722
vt 0.7035289 0.04432581
vt 0.7004248 0.0495784
vt 0.7054679 0.08255228
vt 0.7104284 0.08354175
vt 0.7120064 0.04489722
vt 0.7104284 0.08354175
vt 0.6977729 0.03875128
vt 0.7120064 0.04489722
vt 0.7104284 0.08354175
vt 0.6953773 0.08144727
vt 0.6977729 0.03875128
vt 0.6944361 0.03827016
vt 0.6977729 0.03875128
vt 0.6953773 0.08144727
vt 0.6788167 0.08637671
vt 0.6934968 0.08595265
vt 0.6756175 0.05686676
vt 0.6788167 0.08637671
vt 0.6756175 0.05686676
vt 0.6704166 0.08784078
vt 0.6704166 0.08784078
vt 0.6668871 0.05137965
vt 0.6786184 0.07348058
vt 0.6803051 0.0886711
vt 0.6668871 0.05137965
vt 0.682743 0.04618283
vt 0.6786184 0.07348058
vt 0.6786184 0.07348058
vt 0.682743 0.04618283
vt 0.6953773 0.08144727
vt 0.682743 0.04618283
vt 0.6869429 0.04198846
vt 0.6953773 0.08144727
vt 0.6934968 0.08595265
vt 0.7054679 0.08255228
vt 0.7004248 0.0495784
vt 0.7004248 0.0495784
vt 0.7035289 0.04432581
vt 0.6946717 0.04508766
vt 0.6756175 0.05686676
vt 0.6668871 0.05137965
vt 0.6704166 0.08784078
vt 0.6833956 0.04934315
vt 0.6833394 0.04099672
vt 0.6756175 0.05686676
vt 0.6756175 0.05686676
vt 0.6934968 0.08595265
vt 0.6833956 0.04934315
vt 0.6954582 0.09735425
vt 0.6929793 0.1089364
vt 0.6803051 0.0886711
vt 0.6833394 0.04099672
vt 0.6758755 0.03733144
vt 0.6756175 0.05686676
vt 0.6758755 0.03733144
vt 0.6668871 0.05137965
vt 0.6756175 0.05686676
vt 0.6923415 0.0115964
vt 0.7120064 0.04489722
vt 0.6977729 0.03875128
vt 0.6923415 0.0115964
vt 0.6946717 0.04508766
vt 0.7035289 0.04432581
vt 0.6833394 0.04099672
vt 0.6833956 0.04934315
vt 0.6946717 0.04508766
vt 0.6869429 0.04198846
vt 0.6923415 0.0115964
vt 0.6944361 0.03827016
vt 0.6944361 0.03827016
vt 0.6953773 0.08144727
vt 0.6869429 0.04198846
vt 0.6953773 0.08144727
vt 0.7104284 0.08354175
vt 0.6954582 0.09735425
vt 0.6946717 0.04508766
vt 0.6934968 0.08595265
vt 0.7004248 0.0495784
vt 0.6758755 0.03733144
vt 0.6923415 0.0115964
vt 0.682743 0.04618283
vt 0.6923415 0.0115964
vt 0.6758755 0.03733144
vt 0.6833394 0.04099672
vt 0.6923415 0.0115964
vt 0.6833394 0.04099672
vt 0.6946717 0.04508766
vt 0.6953773 0.08144727
vt 0.6954582 0.09735425
vt 0.6803051 0.0886711
vt 0.6803051 0.0886711
vt 0.6786184 0.07348058
vt 0.6953773 0.08144727
vn -0.5556792 -0.4551597 -0.6957372
vn -0.5556793 -0.4551597 -0.6957372
vn -0.5556792 -0.4551597 -0.6957372
vn -0.3400981 0.5709095 -0.7472587
vn -0.3400981 0.5709095 -0.7472588
vn -0.3400981 0.5709096 -0.7472587
vn -0.08493671 -0.5452535 -0.8339571
vn -0.0849367 -0.5452535 -0.8339571
vn -0.0849367 -0.5452535 -0.8339571
vn -0.671912 -0.5984715 0.4363097
vn -0.671912 -0.5984715 0.4363097
vn -0.671912 -0.5984715 0.4363097
vn -0.06342398 -0.7532769 0.6546383
vn -0.06342397 -0.7532769 0.6546383
vn -0.06342398 -0.7532769 0.6546383
vn 0.305827 0.4869655 0.8181286
vn 0.305827 0.4869655 0.8181285
vn 0.305827 0.4869655 0.8181286
vn -0.8589447 -0.5105215 0.03977002
vn -0.8589447 -0.5105216 0.03977002
vn -0.8589447 -0.5105215 0.03977002
vn 0.5315526 -0.7452142 -0.402626
vn 0.5315526 -0.7452142 -0.402626
vn 0.5315526 -0.745214 -0.402626
vn 0.772872 0.5951192 -0.2202315
vn 0.772872 0.5951192 -0.2202316
vn 0.772872 0.5951192 -0.2202315
vn 0.3902315 0.5187351 0.7606795
vn 0.3902315 0.5187351 0.7606795
vn 0.3902315 0.518735 0.7606795
vn -0.9994387 0.02961714 0.01565363
vn -0.9994387 0.02961713 0.01565363
vn -0.9994387 0.02961713 0.01565363
vn -0.3524289 0.0002499813 -0.9358386
vn -0.3524289 0.0002499813 -0.9358386
vn -0.3524289 0.0002499813 -0.9358386
vn -0.4592216 0.1801498 -0.869863
vn -0.4592216 0.1801498 -0.869863
vn -0.4592216 0.1801498 -0.869863
vn -0.06632691 -0.05587281 -0.9962323
vn -0.0663269 -0.05587281 -0.9962323
vn -0.0663269 -0.05587281 -0.9962323
vn 0.5571727 0.2049626 -0.8047042
vn 0.5571727 0.2049626 -0.8047042
vn 0.5571727 0.2049626 -0.8047042
vn 0.9501053 0.09364466 -0.2975411
vn 0.9501053 0.09364465 -0.2975411
vn 0.9501053 0.09364466 -0.2975411
vn 0.9499316 0.09344579 -0.2981575
vn 0.9499316 0.09344581 -0.2981575
vn 0.9499316 0.0934458 -0.2981575
vn -0.9870367 0.009352421 0.1602218
vn -0.9870367 0.009352423 0.1602217
vn -0.9870367 0.009352423 0.1602218
vn -0.771806 -0.07479975 0.6314433
vn -0.771806 -0.07479974 0.6314431
vn -0.771806 -0.07479974 0.6314431
vn -0.01974645 -0.1087632 0.9938716
vn -0.01974644 -0.1087632 0.9938716
vn -0.01974645 -0.1087632 0.9938716
vn -0.007075711 -0.1262709 0.9919705
vn 0.407171 0.2255694 0.8850594
vn 0.407171 0.2255694 0.8850594
vn 0.407171 0.2255694 0.8850594
vn 0.8832214 0.1310626 0.4502696
vn 0.8832213 0.1310626 0.4502695
vn 0.8832213 0.1310626 0.4502695
vn 0.6283173 -0.106782 0.7705939
vn 0.6283172 -0.1067821 0.7705939
vn 0.6283173 -0.106782 0.7705939
vn -0.6290239 -0.1687574 -0.7588477
vn -0.6290239 -0.1687574 -0.7588477
vn -0.6290239 -0.1687574 -0.7588477
vn -0.7400973 0.3165496 -0.5933401
vn -0.7400972 0.3165496 -0.59334
vn -0.7400972 0.3165496 -0.5933401
vn -0.6993401 -0.04106842 0.7136083
vn -0.69934 -0.04106842 0.7136083
vn -0.69934 -0.04106842 0.7136083
vn -0.9246857 0.3140476 0.2152448
vn -0.9246858 0.3140476 0.2152448
vn -0.9246858 0.3140476 0.2152448
vn -0.9622117 -0.06757976 0.263783
vn -0.9622117 -0.06757977 0.263783
vn -0.9622117 -0.06757977 0.2637831
vn 0.5280564 -0.7858409 0.3218859
vn 0.5280564 -0.7858408 0.3218859
vn 0.5280564 -0.7858408 0.3218859
vn -0.7255532 0.397177 0.5619815
vn -0.725553 0.397177 0.5619814
vn -0.725553 0.397177 0.5619814
vn -0.6730473 0.3452327 0.6540807
vn -0.6730473 0.3452327 0.6540807
vn -0.6730474 0.3452327 0.6540807
vn 0.3640556 0.5778687 -0.7304323
vn 0.3640555 0.5778687 -0.7304323
vn 0.3640555 0.5778687 -0.7304323
vn -0.6578889 0.5525454 -0.5117379
vn -0.6578889 0.5525454 -0.5117379
vn -0.6578889 0.5525454 -0.5117379
vn -0.916971 0.2796938 0.2844916
vn -0.916971 0.2796938 0.2844916
vn -0.916971 0.2796939 0.2844917
vn 0.7182168 0.59387 0.3626059
vn 0.7182168 0.59387 0.3626059
vn 0.7182168 0.59387 0.3626059
vn 0.984486 0.08299535 0.1545938
vn 0.984486 0.08299534 0.1545938
vn 0.984486 0.08299535 0.1545938
vn 0.7153586 -0.6504651 -0.2552588
vn 0.7153586 -0.6504651 -0.2552588
vn 0.7153586 -0.6504651 -0.2552588
vn -0.9433531 0.04991391 -0.3280144
vn -0.9433531 0.04991391 -0.3280144
vn -0.9433531 0.04991391 -0.3280144
vn 0.321197 0.5153363 0.7945193
vn 0.321197 0.5153363 0.7945194
vn 0.321197 0.5153363 0.7945194
vn -0.6855816 0.5845062 0.4339706
vn -0.6855816 0.5845062 0.4339706
vn -0.6855815 0.5845062 0.4339706
vn -0.8111163 0.5569288 0.1786636
vn -0.8111163 0.5569288 0.1786636
vn -0.8111164 0.5569287 0.1786636
vn 0.6732016 -0.6838459 0.2813438
vn 0.6732016 -0.6838459 0.2813438
vn 0.6732016 -0.6838459 0.2813438
vn 0.8249952 -0.1689094 0.5393075
vn 0.8249952 -0.1689094 0.5393075
vn 0.8249952 -0.1689094 0.5393075
g unknownLifeform_0
f 3/3/3 2/2/2 1/1/1
f 6/6/6 5/5/5 4/4/4
f 9/9/9 8/8/8 7/7/7
f 12/12/12 11/11/11 10/10/10
f 15/15/15 14/14/14 13/13/13
f 18/18/18 17/17/17 16/16/16
f 21/21/21 20/20/20 19/19/19
f 24/24/24 23/23/23 22/22/22
f 27/27/27 26/26/26 25/25/25
f 30/30/30 29/29/29 28/28/28
f 33/33/33 32/32/32 31/31/31
f 36/36/36 35/35/35 34/34/34
f 39/39/39 38/38/38 37/37/37
f 42/42/42 41/41/41 40/40/40
f 45/45/45 44/44/44 43/43/43
f 48/48/48 47/47/47 46/46/46
f 51/51/51 50/50/50 49/49/49
f 54/54/54 53/53/53 52/52/52
f 57/57/57 56/56/56 55/55/55
f 60/60/60 59/59/59 58/58/58
f 61/61/61 60/60/60 58/58/58
f 64/64/64 63/63/63 62/62/62
f 67/67/67 66/66/66 65/65/65
f 70/70/70 69/69/69 68/68/68
f 73/73/73 72/72/72 71/71/71
f 76/76/76 75/75/75 74/74/74
f 79/79/79 78/78/78 77/77/77
f 82/82/82 81/81/81 80/80/80
f 85/85/85 84/84/84 83/83/83
f 88/88/88 87/87/87 86/86/86
f 91/91/91 90/90/90 89/89/89
f 94/94/94 93/93/93 92/92/92
f 97/97/97 96/96/96 95/95/95
f 100/100/100 99/99/99 98/98/98
f 103/103/103 102/102/102 101/101/101
f 106/106/106 105/105/105 104/104/104
f 109/109/109 108/108/108 107/107/107
f 112/112/112 111/111/111 110/110/110
f 115/115/115 114/114/114 113/113/113
f 118/118/118 117/117/117 116/116/116
f 121/121/121 120/120/120 119/119/119
f 124/124/124 123/123/123 122/122/122
f 127/127/127 126/126/126 125/125/125
f 130/130/130 129/129/129 128/128/128
