g waterTempleBottom
v 16.40581 -0.971849 -2.799269
v -4.374882E-07 -0.971849 3.996235
v 6.795504 -0.971849 -9.525772
v -6.795504 -0.971849 -9.525771
v -16.40581 -0.971849 -2.799268
v -16.40581 -0.971849 10.79174
v -2.792413 -0.971849 10.73772
v -6.795503 -0.971849 17.14841
v 16.40581 -0.971849 10.79174
v 6.795505 -0.971849 17.14841
v 2.792414 -0.971849 10.73772
v 2.892951 -0.971849 17.14841
v -2.792413 -0.971849 17.14841
vt 0.9999999 0.7014707
vt 0.4999999 0.4943641
vt 0.7071066 0.9064745
vt 0.2928934 0.9064744
vt -2.980232E-08 0.7014707
vt -2.980232E-08 0.2872576
vt 0.4148955 0.288904
vt 0.2928934 0.09352541
vt 0.9999999 0.2872576
vt 0.7071066 0.09352541
vt 0.5851043 0.288904
vt 0.5881684 0.09352535
vt 0.4148955 0.09352535
vn 0 1 0
vn 0 1 0
vn 0 1 0
vn 0 1 0
vn 0 1 0
vn 0 1 0
vn 0 1 0
vn 0 1 0
vn 0 1 0
vn 0 1 0
vn 0 1 0
vn 0 1 0
vn 0 1 0
g waterTempleBottom_0
f 3/3/3 2/2/2 1/1/1
f 4/4/4 2/2/2 3/3/3
f 5/5/5 2/2/2 4/4/4
f 6/6/6 2/2/2 5/5/5
f 7/7/7 2/2/2 6/6/6
f 8/8/8 7/7/7 6/6/6
f 1/1/1 2/2/2 9/9/9
f 9/9/9 2/2/2 10/10/10
f 2/2/2 11/11/11 10/10/10
f 11/11/11 2/2/2 7/7/7
f 12/12/12 10/10/10 11/11/11
f 13/13/13 7/7/7 8/8/8
