g WEP_SmithHammer01_b02
v -0.02298477 0.08628795 0.03981064
v -0.02497314 0.359221 0.04325501
v 0.02497345 0.4278518 0.04325501
v 0.02298477 0.08628795 0.03981064
v -0.0252095 -0.3451113 0.04366402
v 0.0252095 -0.3451113 0.04366402
v 0.02298477 0.08628795 0.03981064
v 0.02497345 0.4278518 0.04325501
v 0.04994644 0.4278518 0
v 0.04596954 0.08628795 0
v 0.0252095 -0.3451113 0.04366402
v 0.05041901 -0.3451113 0
v 0.04596954 0.08628795 0
v 0.04994644 0.4278518 0
v 0.02497345 0.4278518 -0.04325501
v 0.02298477 0.08628795 -0.03981064
v 0.05041901 -0.3451113 0
v 0.0252095 -0.3451113 -0.04366402
v 0.02298477 0.08628795 -0.03981064
v 0.02497345 0.4278518 -0.04325501
v -0.02497314 0.359221 -0.04325501
v -0.02298477 0.08628795 -0.03981071
v 0.0252095 -0.3451113 -0.04366402
v -0.0252095 -0.3451113 -0.04366402
v -0.02298477 0.08628795 -0.03981071
v -0.02497314 0.359221 -0.04325501
v -0.04994644 0.3455705 0
v -0.04596924 0.08628795 0
v -0.0252095 -0.3451113 -0.04366402
v -0.0504187 -0.3451113 0
v -0.04596924 0.08628795 0
v -0.04994644 0.3455705 0
v -0.02497314 0.359221 0.04325501
v -0.02298477 0.08628795 0.03981064
v -0.0504187 -0.3451113 0
v -0.0252095 -0.3451113 0.04366402
v 0.0353627 -0.4278518 0.05589844
v 1.525879E-07 -0.4278518 0
v -0.03536255 -0.4278518 0.05589836
v 0.07072525 -0.4278518 0
v 0.03536285 -0.4278518 -0.05589844
v -0.03536255 -0.4278518 -0.05589844
v -0.07072525 -0.4278518 0
v -0.03536255 -0.4278518 0.05589836
v -0.0252095 -0.3451113 0.04366402
v 0.0252095 -0.3451113 0.04366402
v 0.0353627 -0.4278518 0.05589844
v 0.0353627 -0.4278518 0.05589844
v 0.0252095 -0.3451113 0.04366402
v 0.05041901 -0.3451113 0
v 0.07072525 -0.4278518 0
v 0.07072525 -0.4278518 0
v 0.05041901 -0.3451113 0
v 0.0252095 -0.3451113 -0.04366402
v 0.03536285 -0.4278518 -0.05589844
v 0.03536285 -0.4278518 -0.05589844
v 0.0252095 -0.3451113 -0.04366402
v -0.0252095 -0.3451113 -0.04366402
v -0.03536255 -0.4278518 -0.05589844
v -0.03536255 -0.4278518 -0.05589844
v -0.0252095 -0.3451113 -0.04366402
v -0.0504187 -0.3451113 0
v -0.07072525 -0.4278518 0
v -0.07072525 -0.4278518 0
v -0.0504187 -0.3451113 0
v -0.0252095 -0.3451113 0.04366402
v -0.03536255 -0.4278518 0.05589836
v -0.02497314 0.359221 0.04325501
v -0.04994644 0.3455705 0
v -0.02497314 0.359221 -0.04325501
v 0.02497345 0.4278518 -0.04325501
v 0.02497345 0.4278518 0.04325501
v 0.04994644 0.4278518 0
vt 0.104115 0.6524894
vt 0.104115 0.6879399
vt 0.1145926 0.6879399
vt 0.1145926 0.6524894
vt 0.104115 0.6128289
vt 0.1145926 0.6128289
vt 0.1145926 0.6524894
vt 0.1145926 0.6879399
vt 0.1250701 0.6879399
vt 0.1250701 0.6524894
vt 0.1145926 0.6128289
vt 0.1250701 0.6128289
vt 0.1250701 0.6524894
vt 0.1250701 0.6879399
vt 0.1355477 0.6879399
vt 0.1355477 0.6524894
vt 0.1250701 0.6128289
vt 0.1355477 0.6128289
vt 0.1355477 0.6524894
vt 0.1355477 0.6879399
vt 0.1460253 0.6879399
vt 0.1460253 0.6524894
vt 0.1355477 0.6128289
vt 0.1460253 0.6128289
vt 0.1460253 0.6524894
vt 0.1460253 0.6879399
vt 0.1565029 0.6879399
vt 0.1565029 0.6524894
vt 0.1460253 0.6128289
vt 0.1565029 0.6128289
vt 0.1565029 0.6524894
vt 0.1565029 0.6879399
vt 0.1669805 0.6879399
vt 0.1669805 0.6524894
vt 0.1565029 0.6128289
vt 0.1669805 0.6128289
vt 0.1159023 0.5319042
vt 0.1355477 0.5643595
vt 0.1551932 0.5319042
vt 0.09625679 0.5659312
vt 0.1159022 0.5999581
vt 0.1551932 0.5999581
vt 0.1748387 0.5659312
vt 0.104115 0.6052221
vt 0.104115 0.6128289
vt 0.1145926 0.6128289
vt 0.1145926 0.6052221
vt 0.1145926 0.6052221
vt 0.1145926 0.6128289
vt 0.1250701 0.6128289
vt 0.1250701 0.6052221
vt 0.1250701 0.6052221
vt 0.1250701 0.6128289
vt 0.1355477 0.6128289
vt 0.1355477 0.6052221
vt 0.1355477 0.6052221
vt 0.1355477 0.6128289
vt 0.1460253 0.6128289
vt 0.1460253 0.6052221
vt 0.1460253 0.6052221
vt 0.1460253 0.6128289
vt 0.1565029 0.6128289
vt 0.1565029 0.6052221
vt 0.1565029 0.6052221
vt 0.1565029 0.6128289
vt 0.1669805 0.6128289
vt 0.1669805 0.6052221
vt 0.104115 0.6879399
vt 0.1565029 0.6879399
vt 0.1460253 0.6879399
vt 0.1355477 0.6879399
vt 0.1145926 0.6879399
vt 0.1250701 0.6879399
vn 0.00802015 -0.01120906 0.999905
vn 0.00802015 -0.01120906 0.999905
vn 0.00802015 -0.01120906 0.999905
vn 0.00802015 -0.01120906 0.999905
vn 0 0.008931817 0.9999602
vn 0 0.008931817 0.9999602
vn 0.8659824 -0.01008314 0.4999729
vn 0.8659824 -0.01008314 0.4999729
vn 0.8659824 -0.01008314 0.4999729
vn 0.8659824 -0.01008313 0.4999727
vn 0.8659903 0.008932017 0.499981
vn 0.8659903 0.008932017 0.499981
vn 0.8659824 -0.01008327 -0.4999729
vn 0.8659824 -0.01008327 -0.4999729
vn 0.8659824 -0.01008327 -0.4999729
vn 0.8659824 -0.01008328 -0.499973
vn 0.8659902 0.008931985 -0.4999812
vn 0.8659902 0.008931986 -0.4999813
vn 0.008020978 -0.01120911 -0.999905
vn 0.008020977 -0.01120911 -0.999905
vn 0.008020977 -0.01120911 -0.999905
vn 0.008020978 -0.01120911 -0.999905
vn 5.871078E-07 0.008931781 -0.9999602
vn 5.871078E-07 0.008931781 -0.9999602
vn -0.8650317 -0.01294198 -0.5015505
vn -0.8650317 -0.01294198 -0.5015505
vn -0.8650317 -0.01294198 -0.5015505
vn -0.8650315 -0.01294198 -0.5015504
vn -0.8659931 0.008931844 -0.4999763
vn -0.8659931 0.008931844 -0.4999763
vn -0.8650315 -0.01294198 0.5015507
vn -0.8650315 -0.01294199 0.5015507
vn -0.8650315 -0.01294199 0.5015507
vn -0.8650315 -0.01294199 0.5015506
vn -0.8659931 0.008931716 0.4999762
vn -0.8659931 0.008931716 0.4999762
vn 0 -1 -1.543858E-06
vn 0 -1 -1.543858E-06
vn 0 -1 -1.543858E-06
vn 0 -1 0
vn 0 -1 0
vn 0 -1 0
vn 0 -1 0
vn -3.011843E-07 0.146274 0.9892441
vn -3.011843E-07 0.146274 0.9892441
vn -3.011843E-07 0.1462741 0.9892441
vn -3.011843E-07 0.146274 0.9892441
vn 0.8384166 0.1920359 0.5100783
vn 0.8384166 0.1920359 0.5100783
vn 0.8384166 0.1920359 0.5100783
vn 0.8384166 0.1920359 0.5100783
vn 0.8384172 0.1920357 -0.5100773
vn 0.8384172 0.1920357 -0.5100774
vn 0.8384172 0.1920357 -0.5100774
vn 0.8384172 0.1920357 -0.5100775
vn 0 0.146274 -0.9892441
vn 0 0.1462739 -0.9892441
vn 0 0.1462739 -0.9892441
vn 0 0.1462739 -0.9892441
vn -0.8384174 0.1920357 -0.510077
vn -0.8384175 0.1920358 -0.5100771
vn -0.8384175 0.1920358 -0.510077
vn -0.8384174 0.1920357 -0.510077
vn -0.8384172 0.1920358 0.5100772
vn -0.8384172 0.1920357 0.5100772
vn -0.8384172 0.1920358 0.5100772
vn -0.8384172 0.1920358 0.5100772
vn -0.7935143 0.6085516 0
vn -0.4796256 0.8774732 0
vn -0.7935143 0.6085516 0
vn -0.7852921 0.6191254 0
vn -0.7852921 0.6191254 0
vn 0 1 0
g WEP_SmithHammer01_b02_0
f 3/3/3 2/2/2 1/1/1
f 4/4/4 3/3/3 1/1/1
f 4/4/4 1/1/1 5/5/5
f 6/6/6 4/4/4 5/5/5
f 9/9/9 8/8/8 7/7/7
f 10/10/10 9/9/9 7/7/7
f 10/10/10 7/7/7 11/11/11
f 12/12/12 10/10/10 11/11/11
f 15/15/15 14/14/14 13/13/13
f 16/16/16 15/15/15 13/13/13
f 16/16/16 13/13/13 17/17/17
f 18/18/18 16/16/16 17/17/17
f 21/21/21 20/20/20 19/19/19
f 22/22/22 21/21/21 19/19/19
f 22/22/22 19/19/19 23/23/23
f 24/24/24 22/22/22 23/23/23
f 27/27/27 26/26/26 25/25/25
f 28/28/28 27/27/27 25/25/25
f 28/28/28 25/25/25 29/29/29
f 30/30/30 28/28/28 29/29/29
f 33/33/33 32/32/32 31/31/31
f 34/34/34 33/33/33 31/31/31
f 34/34/34 31/31/31 35/35/35
f 36/36/36 34/34/34 35/35/35
f 39/39/39 38/38/38 37/37/37
f 37/37/37 38/38/38 40/40/40
f 40/40/40 38/38/38 41/41/41
f 41/41/41 38/38/38 42/42/42
f 42/42/42 38/38/38 43/43/43
f 43/43/43 38/38/38 39/39/39
f 46/46/46 45/45/45 44/44/44
f 47/47/47 46/46/46 44/44/44
f 50/50/50 49/49/49 48/48/48
f 51/51/51 50/50/50 48/48/48
f 54/54/54 53/53/53 52/52/52
f 55/55/55 54/54/54 52/52/52
f 58/58/58 57/57/57 56/56/56
f 59/59/59 58/58/58 56/56/56
f 62/62/62 61/61/61 60/60/60
f 63/63/63 62/62/62 60/60/60
f 66/66/66 65/65/65 64/64/64
f 67/67/67 66/66/66 64/64/64
f 70/70/70 69/69/69 68/68/68
f 71/71/71 70/70/70 68/68/68
f 72/72/72 71/71/71 68/68/68
f 72/72/72 73/73/73 71/71/71
