g WEP_SmithHammer01_b01
v 0.06161072 -0.1563029 -0.04325504
v 0.07858811 -6.217956E-05 -0.06881993
v -0.005313416 -6.217956E-05 -0.06881993
v 0.01166412 -0.2193958 -0.04325504
v 0.08658371 -0.1563029 -3.814697E-08
v 0.1205391 -6.217956E-05 -3.814697E-08
v 0.07858811 -6.217956E-05 -0.06881993
v 0.06161072 -0.1563029 -0.04325504
v 0.06161072 -0.1563029 0.04325496
v 0.07858825 -6.217956E-05 0.06881977
v 0.1205391 -6.217956E-05 -3.814697E-08
v 0.08658371 -0.1563029 -3.814697E-08
v 0.01166412 -0.2193958 0.04325496
v -0.005313568 -6.217956E-05 0.06881977
v 0.07858825 -6.217956E-05 0.06881977
v 0.06161072 -0.1563029 0.04325496
v -0.01330917 -0.2272779 -3.814697E-08
v -0.04726456 -6.217956E-05 -3.814697E-08
v -0.005313568 -6.217956E-05 0.06881977
v 0.01166412 -0.2193958 0.04325496
v 0.01166412 -0.2193958 -0.04325504
v -0.005313416 -6.217956E-05 -0.06881993
v -0.04726456 -6.217956E-05 -3.814697E-08
v -0.01330917 -0.2272779 -3.814697E-08
v -0.06247284 -0.01713783 -0.1043039
v -0.06247284 -0.01713783 0.1043039
v 0.2695903 -0.01713768 0.104381
v 0.2695903 -0.01713768 -0.1043811
v -0.06247284 0.2093738 -0.1222078
v -0.06247284 0.0007660675 -0.1222078
v 0.2695903 0.000688858 -0.1222078
v 0.2695903 0.2094514 -0.1222078
v 0.2864504 0.2094514 -0.1043811
v 0.2864504 0.000688858 -0.1043811
v 0.2864504 0.000688858 0.104381
v 0.2864504 0.2094514 0.104381
v -0.06247284 0.0007660675 -0.1222078
v -0.06247284 0.2093738 -0.1222078
v -0.2700534 0.1564611 -0.06969425
v -0.2700534 0.05367867 -0.06969425
v -0.06247284 0.2272778 0.1043039
v -0.06247284 0.2272778 -0.1043039
v 0.2695903 0.2272779 -0.1043811
v 0.2695903 0.2272779 0.104381
v -0.06247284 0.2272778 -0.1043039
v -0.06247284 0.2272778 0.1043039
v -0.2700534 0.1747643 0.05139111
v -0.2700534 0.1747643 -0.05139126
v -0.06247284 0.0007660675 0.1222078
v -0.06247284 0.2093738 0.1222078
v 0.2695903 0.2094514 0.1222078
v 0.2695903 0.000688858 0.1222078
v -0.06247284 0.2093738 0.1222078
v -0.06247284 0.0007660675 0.1222078
v -0.2700534 0.05367867 0.06969418
v -0.2700534 0.1564611 0.06969418
v -0.06247284 -0.01713783 0.1043039
v -0.06247284 -0.01713783 -0.1043039
v -0.2700534 0.03537575 -0.05139126
v -0.2700534 0.03537575 0.05139111
v -0.2864504 0.05735054 0.04771938
v -0.2864504 0.05735054 -0.04771946
v -0.2864504 0.1527895 -0.04771946
v -0.2864504 0.1527895 0.04771938
v 0.2695903 -0.01713768 -0.1043811
v 0.2695903 -0.01713768 0.104381
v 0.2864504 0.000688858 0.104381
v 0.2864504 0.000688858 -0.1043811
v 0.2695903 0.000688858 -0.1222078
v -0.06247284 0.0007660675 -0.1222078
v -0.06247284 -0.01713783 -0.1043039
v 0.2695903 -0.01713768 -0.1043811
v 0.2864504 0.000688858 -0.1043811
v 0.2864504 0.2094514 -0.1043811
v 0.2695903 0.2094514 -0.1222078
v 0.2695903 0.000688858 -0.1222078
v -0.06247284 0.0007660675 -0.1222078
v -0.2700534 0.05367867 -0.06969425
v -0.2700534 0.03537575 -0.05139126
v -0.06247284 -0.01713783 -0.1043039
v 0.2864504 0.2094514 -0.1043811
v 0.2864504 0.2094514 0.104381
v 0.2695903 0.2272779 0.104381
v 0.2695903 0.2272779 -0.1043811
v 0.2695903 0.2272779 -0.1043811
v -0.06247284 0.2272778 -0.1043039
v -0.06247284 0.2093738 -0.1222078
v 0.2695903 0.2094514 -0.1222078
v -0.06247284 0.2272778 -0.1043039
v -0.2700534 0.1747643 -0.05139126
v -0.2700534 0.1564611 -0.06969425
v -0.06247284 0.2093738 -0.1222078
v 0.2864504 0.2094514 0.104381
v 0.2864504 0.000688858 0.104381
v 0.2695903 0.000688858 0.1222078
v 0.2695903 0.2094514 0.1222078
v 0.2695903 0.2094514 0.1222078
v -0.06247284 0.2093738 0.1222078
v -0.06247284 0.2272778 0.1043039
v 0.2695903 0.2272779 0.104381
v -0.06247284 0.2093738 0.1222078
v -0.2700534 0.1564611 0.06969418
v -0.2700534 0.1747643 0.05139111
v -0.06247284 0.2272778 0.1043039
v 0.2695903 -0.01713768 0.104381
v -0.06247284 -0.01713783 0.1043039
v -0.06247284 0.0007660675 0.1222078
v 0.2695903 0.000688858 0.1222078
v -0.06247284 -0.01713783 0.1043039
v -0.2700534 0.03537575 0.05139111
v -0.2700534 0.05367867 0.06969418
v -0.06247284 0.0007660675 0.1222078
v -0.2864504 0.05735054 -0.04771946
v -0.2864504 0.05735054 0.04771938
v -0.2700534 0.03537575 0.05139111
v -0.2700534 0.03537575 -0.05139126
v -0.2700534 0.05367867 -0.06969425
v -0.2700534 0.1564611 -0.06969425
v -0.2864504 0.1527895 -0.04771946
v -0.2864504 0.05735054 -0.04771946
v -0.2700534 0.1747643 -0.05139126
v -0.2700534 0.1747643 0.05139111
v -0.2864504 0.1527895 0.04771938
v -0.2864504 0.1527895 -0.04771946
v -0.2700534 0.1564611 0.06969418
v -0.2700534 0.05367867 0.06969418
v -0.2864504 0.05735054 0.04771938
v -0.2864504 0.1527895 0.04771938
v 0.2864504 0.000688858 -0.1043811
v 0.2695903 0.000688858 -0.1222078
v 0.2695903 -0.01713768 -0.1043811
v 0.2695903 0.2272779 -0.1043811
v 0.2695903 0.2094514 -0.1222078
v 0.2864504 0.2094514 -0.1043811
v 0.2695903 0.2094514 0.1222078
v 0.2695903 0.2272779 0.104381
v 0.2864504 0.2094514 0.104381
v 0.2695903 -0.01713768 0.104381
v 0.2695903 0.000688858 0.1222078
v 0.2864504 0.000688858 0.104381
v -0.2700534 0.05367867 -0.06969425
v -0.2864504 0.05735054 -0.04771946
v -0.2700534 0.03537575 -0.05139126
v -0.2700534 0.1747643 -0.05139126
v -0.2864504 0.1527895 -0.04771946
v -0.2700534 0.1564611 -0.06969425
v -0.2700534 0.1564611 0.06969418
v -0.2864504 0.1527895 0.04771938
v -0.2700534 0.1747643 0.05139111
v -0.2700534 0.03537575 0.05139111
v -0.2864504 0.05735054 0.04771938
v -0.2700534 0.05367867 0.06969418
v 0.01166412 -0.2193958 0.04325496
v 0.06161072 -0.1563029 0.04325496
v 0.06161072 -0.1563029 -0.04325504
v 0.01166412 -0.2193958 -0.04325504
v -0.01330917 -0.2272779 -3.814697E-08
v 0.08658371 -0.1563029 -3.814697E-08
vt 0.1355477 0.6879399
vt 0.1355477 0.6997567
vt 0.1460253 0.6997567
vt 0.1460253 0.6879399
vt 0.1250701 0.6879399
vt 0.1250701 0.6997567
vt 0.1355477 0.6997567
vt 0.1355477 0.6879399
vt 0.1145926 0.6879399
vt 0.1145926 0.6997567
vt 0.1250701 0.6997567
vt 0.1250701 0.6879399
vt 0.104115 0.6879399
vt 0.104115 0.6997567
vt 0.1145926 0.6997567
vt 0.1145926 0.6879399
vt 0.1565029 0.6879399
vt 0.1565029 0.6997567
vt 0.1669805 0.6997567
vt 0.1669805 0.6879399
vt 0.1460253 0.6879399
vt 0.1460253 0.6997567
vt 0.1565029 0.6997567
vt 0.1565029 0.6879399
vt 0.3920795 0.463226
vt 0.3920795 0.430667
vt 0.3699685 0.4306551
vt 0.3699685 0.463238
vt 0.3920795 0.3487833
vt 0.3920795 0.3162245
vt 0.3699685 0.3162124
vt 0.3699685 0.3487953
vt 0.3660635 0.3487953
vt 0.3660635 0.3162124
vt 0.3334806 0.3162124
vt 0.3334806 0.3487953
vt 0.3920795 0.3162245
vt 0.3920795 0.3487833
vt 0.4059016 0.3486657
vt 0.4059016 0.3187562
vt 0.3920795 0.3869308
vt 0.3920795 0.354372
vt 0.3699685 0.35436
vt 0.3699685 0.3869429
vt 0.3920795 0.354372
vt 0.3920795 0.3869308
vt 0.4059016 0.3843991
vt 0.4059016 0.3544896
vt 0.3920795 0.4250783
vt 0.3920795 0.3925196
vt 0.3699685 0.3925075
vt 0.3699685 0.4250905
vt 0.3920795 0.3925196
vt 0.3920795 0.4250783
vt 0.4059016 0.4249607
vt 0.4059016 0.3950514
vt 0.3920795 0.430667
vt 0.3920795 0.463226
vt 0.4059016 0.4631084
vt 0.4059016 0.4331989
vt 0.4399535 0.3186176
vt 0.4121809 0.3186176
vt 0.4121809 0.3463901
vt 0.4399535 0.3463901
vt 0.3699685 0.463238
vt 0.3699685 0.4306551
vt 0.3688458 0.4306551
vt 0.3688458 0.463238
vt 0.3699685 0.3162124
vt 0.3920795 0.3162245
vt 0.3920795 0.3134301
vt 0.3699685 0.3134301
vt 0.3688458 0.3162124
vt 0.3688458 0.3487953
vt 0.3699685 0.3487953
vt 0.3699685 0.3162124
vt 0.3932824 0.4660203
vt 0.4068668 0.4660203
vt 0.4059016 0.4631084
vt 0.3920795 0.463226
vt 0.3688458 0.35436
vt 0.3688458 0.3869429
vt 0.3699685 0.3869429
vt 0.3699685 0.35436
vt 0.3699685 0.3515776
vt 0.3920795 0.3515776
vt 0.3920795 0.3487833
vt 0.3699685 0.3487953
vt 0.3920795 0.354372
vt 0.4059016 0.3544896
vt 0.4068668 0.3515776
vt 0.3932824 0.3515776
vt 0.3688458 0.3925075
vt 0.3688458 0.4250905
vt 0.3699685 0.4250905
vt 0.3699685 0.3925075
vt 0.3699685 0.3897252
vt 0.3920795 0.3897252
vt 0.3920795 0.3869308
vt 0.3699685 0.3869429
vt 0.393775 0.3897252
vt 0.4069934 0.3897252
vt 0.4059016 0.3843991
vt 0.3920795 0.3869308
vt 0.3699685 0.4278727
vt 0.3920795 0.4278727
vt 0.3920795 0.4250783
vt 0.3699685 0.4250905
vt 0.3932824 0.4278727
vt 0.4068668 0.4278727
vt 0.4059016 0.4249607
vt 0.3920795 0.4250783
vt 0.4121809 0.3186176
vt 0.4399535 0.3186176
vt 0.4399782 0.3134301
vt 0.4109862 0.3134301
vt 0.4069934 0.3174227
vt 0.4069934 0.3464149
vt 0.4121809 0.3463901
vt 0.4121809 0.3186176
vt 0.4121562 0.3515776
vt 0.4411483 0.3515776
vt 0.4399535 0.3463901
vt 0.4121809 0.3463901
vt 0.4451409 0.3475849
vt 0.4451409 0.3185928
vt 0.4399535 0.3186176
vt 0.4399535 0.3463901
vt 0.3688458 0.3162124
vt 0.3699685 0.3162124
vt 0.3699685 0.3134301
vt 0.3699685 0.3515776
vt 0.3699685 0.3487953
vt 0.3688458 0.3487953
vt 0.3699685 0.3897252
vt 0.3699685 0.3869429
vt 0.3688458 0.3869429
vt 0.3699685 0.4278727
vt 0.3699685 0.4250905
vt 0.3688458 0.4250905
vt 0.4069934 0.3174227
vt 0.4121809 0.3186176
vt 0.4109862 0.3134301
vt 0.4121562 0.3515776
vt 0.4121809 0.3463901
vt 0.4069934 0.3464149
vt 0.4451409 0.3475849
vt 0.4399535 0.3463901
vt 0.4411483 0.3515776
vt 0.4399782 0.3134301
vt 0.4399535 0.3186176
vt 0.4451409 0.3185928
vt 0.1669805 0.6879399
vt 0.1145926 0.6879399
vt 0.1355477 0.6879399
vt 0.1460253 0.6879399
vt 0.1565029 0.6879399
vt 0.1250701 0.6879399
vn 0.06345796 -0.1346211 -0.9888631
vn 0.06345796 -0.1346211 -0.9888631
vn 0.06345796 -0.1346211 -0.9888631
vn 0.06345796 -0.1346211 -0.9888631
vn 0.8447164 -0.1789521 -0.504411
vn 0.8447164 -0.1789521 -0.504411
vn 0.8447164 -0.1789521 -0.5044109
vn 0.8447164 -0.1789521 -0.504411
vn 0.8447166 -0.1789527 0.5044103
vn 0.8447166 -0.1789528 0.5044104
vn 0.8447166 -0.1789527 0.5044104
vn 0.8447166 -0.1789528 0.5044104
vn 0.0634571 -0.1346215 0.9888631
vn 0.0634571 -0.1346215 0.9888631
vn 0.0634571 -0.1346215 0.9888631
vn 0.0634571 -0.1346215 0.9888631
vn -0.8477797 -0.1261869 0.5151178
vn -0.8477797 -0.1261869 0.5151178
vn -0.8477797 -0.1261869 0.5151178
vn -0.8477797 -0.1261869 0.5151178
vn -0.8477798 -0.1261865 -0.5151179
vn -0.8477798 -0.1261865 -0.5151179
vn -0.8477798 -0.1261865 -0.5151179
vn -0.8477797 -0.1261865 -0.5151179
vn 4.595146E-07 -1 0
vn 4.595146E-07 -1 0
vn 4.595146E-07 -1 0
vn 4.595146E-07 -1 0
vn 1.761561E-07 0 -1
vn 1.761561E-07 0 -1
vn 1.761561E-07 0 -1
vn 1.761561E-07 0 -1
vn 1 0 0
vn 1 0 0
vn 1 0 0
vn 1 0 0
vn -0.2452535 0 -0.9694591
vn -0.2452534 0 -0.9694591
vn -0.2452534 0 -0.9694591
vn -0.2452535 0 -0.9694591
vn -4.595146E-07 1 0
vn -4.595146E-07 1 0
vn -4.595146E-07 1 0
vn -4.595146E-07 1 0
vn -0.2452523 0.9694593 0
vn -0.2452523 0.9694593 0
vn -0.2452523 0.9694593 0
vn -0.2452524 0.9694593 0
vn 0 0 1
vn 0 0 1
vn 0 0 1
vn 0 0 1
vn -0.2452538 0 0.9694589
vn -0.2452538 0 0.9694589
vn -0.2452538 0 0.9694589
vn -0.2452537 0 0.9694589
vn -0.245253 -0.9694592 0
vn -0.245253 -0.9694592 0
vn -0.245253 -0.9694592 0
vn -0.245253 -0.9694592 0
vn -1 0 0
vn -1 0 0
vn -1 0 0
vn -1 0 0
vn 0.7265285 -0.6871364 0
vn 0.7265285 -0.6871364 0
vn 0.7265285 -0.6871364 0
vn 0.7265285 -0.6871364 0
vn -0.0001642297 -0.7071091 -0.7071044
vn -0.0001642297 -0.7071091 -0.7071044
vn -0.0001642297 -0.7071092 -0.7071043
vn -0.0001642297 -0.7071091 -0.7071044
vn 0.7265304 0 -0.6871344
vn 0.7265304 0 -0.6871344
vn 0.7265304 0 -0.6871344
vn 0.7265304 0 -0.6871344
vn -0.3379897 -0.6654906 -0.6654961
vn -0.3379897 -0.6654906 -0.6654961
vn -0.3379897 -0.6654906 -0.6654961
vn -0.3379897 -0.6654906 -0.6654961
vn 0.7265285 0.6871364 0
vn 0.7265285 0.6871364 0
vn 0.7265285 0.6871364 0
vn 0.7265285 0.6871364 0
vn -0.0001648782 0.707112 -0.7071015
vn -0.0001648782 0.707112 -0.7071015
vn -0.0001648782 0.7071121 -0.7071015
vn -0.0001648782 0.7071121 -0.7071015
vn -0.3379909 0.6654904 -0.6654958
vn -0.3379909 0.6654904 -0.6654958
vn -0.3379909 0.6654904 -0.6654958
vn -0.3379909 0.6654904 -0.6654958
vn 0.726534 0 0.6871305
vn 0.726534 0 0.6871305
vn 0.726534 0 0.6871305
vn 0.726534 0 0.6871305
vn -0.0001647287 0.7071138 0.7070997
vn -0.0001647287 0.7071139 0.7070997
vn -0.0001647287 0.7071139 0.7070997
vn -0.0001647286 0.7071139 0.7070997
vn -0.3379911 0.6654909 0.6654952
vn -0.337991 0.6654909 0.6654952
vn -0.337991 0.6654909 0.6654952
vn -0.337991 0.6654908 0.6654953
vn -0.0001640802 -0.7071109 0.7071025
vn -0.0001640802 -0.7071109 0.7071025
vn -0.0001640802 -0.7071109 0.7071025
vn -0.0001640802 -0.7071109 0.7071025
vn -0.3379897 -0.6654912 0.6654956
vn -0.3379897 -0.6654912 0.6654956
vn -0.3379897 -0.6654912 0.6654956
vn -0.3379897 -0.6654912 0.6654956
vn -0.8014709 -0.5980337 0
vn -0.8014709 -0.5980338 0
vn -0.8014709 -0.5980338 0
vn -0.8014709 -0.5980337 0
vn -0.8014722 0 -0.5980321
vn -0.8014721 0 -0.5980321
vn -0.8014721 0 -0.5980321
vn -0.8014722 0 -0.5980321
vn -0.8014709 0.5980337 0
vn -0.8014709 0.5980338 0
vn -0.8014709 0.5980338 0
vn -0.8014709 0.5980337 0
vn -0.8014711 0 0.5980334
vn -0.8014712 0 0.5980334
vn -0.8014711 0 0.5980334
vn -0.8014711 0 0.5980334
vn 0.5987953 -0.5663233 -0.5663233
vn 0.5987952 -0.5663233 -0.5663233
vn 0.5987952 -0.5663233 -0.5663233
vn 0.5987952 0.5663233 -0.5663233
vn 0.5987952 0.5663233 -0.5663233
vn 0.5987953 0.5663233 -0.5663233
vn 0.5987946 0.5663295 0.5663179
vn 0.5987946 0.5663295 0.5663179
vn 0.5987946 0.5663294 0.5663179
vn 0.5987946 -0.5663295 0.5663179
vn 0.5987946 -0.5663295 0.5663179
vn 0.5987946 -0.5663294 0.5663179
vn -0.741756 -0.4742329 -0.4742376
vn -0.7417559 -0.4742328 -0.4742377
vn -0.7417559 -0.4742329 -0.4742376
vn -0.7417568 0.4742327 -0.4742364
vn -0.7417567 0.4742327 -0.4742364
vn -0.7417568 0.4742327 -0.4742364
vn -0.7417553 0.4742333 0.4742382
vn -0.7417553 0.4742333 0.4742382
vn -0.7417553 0.4742333 0.4742382
vn -0.741755 -0.474233 0.4742391
vn -0.7417549 -0.474233 0.4742391
vn -0.7417549 -0.474233 0.474239
vn 0.7649518 -0.6440875 0
vn 0.7590843 -0.6509923 0
vn 0.7590843 -0.6509923 0
vn 0.7649518 -0.6440875 0
vn 0.3009804 -0.9536303 0
vn 0 -1 0
g WEP_SmithHammer01_b01_0
f 3/3/3 2/2/2 1/1/1
f 4/4/4 3/3/3 1/1/1
f 7/7/7 6/6/6 5/5/5
f 8/8/8 7/7/7 5/5/5
f 11/11/11 10/10/10 9/9/9
f 12/12/12 11/11/11 9/9/9
f 15/15/15 14/14/14 13/13/13
f 16/16/16 15/15/15 13/13/13
f 19/19/19 18/18/18 17/17/17
f 20/20/20 19/19/19 17/17/17
f 23/23/23 22/22/22 21/21/21
f 24/24/24 23/23/23 21/21/21
f 27/27/27 26/26/26 25/25/25
f 28/28/28 27/27/27 25/25/25
f 31/31/31 30/30/30 29/29/29
f 32/32/32 31/31/31 29/29/29
f 35/35/35 34/34/34 33/33/33
f 36/36/36 35/35/35 33/33/33
f 39/39/39 38/38/38 37/37/37
f 40/40/40 39/39/39 37/37/37
f 43/43/43 42/42/42 41/41/41
f 44/44/44 43/43/43 41/41/41
f 47/47/47 46/46/46 45/45/45
f 48/48/48 47/47/47 45/45/45
f 51/51/51 50/50/50 49/49/49
f 52/52/52 51/51/51 49/49/49
f 55/55/55 54/54/54 53/53/53
f 56/56/56 55/55/55 53/53/53
f 59/59/59 58/58/58 57/57/57
f 60/60/60 59/59/59 57/57/57
f 63/63/63 62/62/62 61/61/61
f 64/64/64 63/63/63 61/61/61
f 67/67/67 66/66/66 65/65/65
f 68/68/68 67/67/67 65/65/65
f 71/71/71 70/70/70 69/69/69
f 72/72/72 71/71/71 69/69/69
f 75/75/75 74/74/74 73/73/73
f 76/76/76 75/75/75 73/73/73
f 79/79/79 78/78/78 77/77/77
f 80/80/80 79/79/79 77/77/77
f 83/83/83 82/82/82 81/81/81
f 84/84/84 83/83/83 81/81/81
f 87/87/87 86/86/86 85/85/85
f 88/88/88 87/87/87 85/85/85
f 91/91/91 90/90/90 89/89/89
f 92/92/92 91/91/91 89/89/89
f 95/95/95 94/94/94 93/93/93
f 96/96/96 95/95/95 93/93/93
f 99/99/99 98/98/98 97/97/97
f 100/100/100 99/99/99 97/97/97
f 103/103/103 102/102/102 101/101/101
f 104/104/104 103/103/103 101/101/101
f 107/107/107 106/106/106 105/105/105
f 108/108/108 107/107/107 105/105/105
f 111/111/111 110/110/110 109/109/109
f 112/112/112 111/111/111 109/109/109
f 115/115/115 114/114/114 113/113/113
f 116/116/116 115/115/115 113/113/113
f 119/119/119 118/118/118 117/117/117
f 120/120/120 119/119/119 117/117/117
f 123/123/123 122/122/122 121/121/121
f 124/124/124 123/123/123 121/121/121
f 127/127/127 126/126/126 125/125/125
f 128/128/128 127/127/127 125/125/125
f 131/131/131 130/130/130 129/129/129
f 134/134/134 133/133/133 132/132/132
f 137/137/137 136/136/136 135/135/135
f 140/140/140 139/139/139 138/138/138
f 143/143/143 142/142/142 141/141/141
f 146/146/146 145/145/145 144/144/144
f 149/149/149 148/148/148 147/147/147
f 152/152/152 151/151/151 150/150/150
f 155/155/155 154/154/154 153/153/153
f 156/156/156 155/155/155 153/153/153
f 157/157/157 156/156/156 153/153/153
f 155/155/155 158/158/158 154/154/154
