g WEP_shortsword01_b01
v 0 0.1307382 0.04140724
v 0 0.515528 0.002304535
v 0.001819153 0.515528 0.002304535
v 0.09615204 0.1307382 0.007897949
v 0 0.515528 0.002304535
v 0 0.515528 -0.002304535
v 0.001819153 0.515528 -0.002304535
v 0.001819153 0.515528 0.002304535
v -0.001819153 0.515528 0.002304535
v -0.001819153 0.515528 -0.002304535
v 0 0.515528 -0.002304535
v 0 0.1307382 -0.04140724
v 0.09615204 0.1307382 -0.007897949
v 0.001819153 0.515528 -0.002304535
v 0.09615204 0.1307382 0.007897949
v 0.001819153 0.515528 0.002304535
v 0.001819153 0.515528 -0.002304535
v 0.09615204 0.1307382 -0.007897949
v -0.09615204 0.1307382 -0.007897949
v -0.001819153 0.515528 -0.002304535
v -0.001819153 0.515528 0.002304535
v -0.09615204 0.1307382 0.007897949
v 0 0.1307382 0.04140724
v 0.09615204 0.1307382 0.007897949
v 0.04437774 -0.515528 0.01668709
v 0 -0.515528 0.01668709
v 0.04437774 -0.515528 0.01668709
v 0.09615204 0.1307382 0.007897949
v 0.09615204 0.1307382 -0.007897949
v 0.04437774 -0.515528 -0.01668709
v 0 0.1307382 -0.04140724
v 0 -0.515528 -0.01668709
v 0.04437774 -0.515528 -0.01668709
v 0.09615204 0.1307382 -0.007897949
v -0.04437774 -0.515528 -0.01668709
v -0.09615204 0.1307382 -0.007897949
v -0.09615204 0.1307382 0.007897949
v -0.04437774 -0.515528 0.01668709
v -0.09615204 0.1307382 -0.007897949
v -0.04437774 -0.515528 -0.01668709
v 0 -0.515528 -0.01668709
v 0 0.1307382 -0.04140724
v -0.001819153 0.515528 -0.002304535
v -0.09615204 0.1307382 -0.007897949
v 0 0.1307382 -0.04140724
v 0 0.515528 -0.002304535
v -0.09615204 0.1307382 0.007897949
v -0.001819153 0.515528 0.002304535
v 0 0.515528 0.002304535
v 0 0.1307382 0.04140724
v -0.04437774 -0.515528 0.01668709
v -0.09615204 0.1307382 0.007897949
v 0 0.1307382 0.04140724
v 0 -0.515528 0.01668709
vt 0.339613 0.8876198
vt 0.339613 0.9362062
vt 0.3399276 0.9362062
vt 0.358164 0.8876198
vt 0.339613 0.9362062
vt 0.339613 0.9362062
vt 0.3399276 0.9362062
vt 0.3399276 0.9362062
vt 0.3392983 0.9362062
vt 0.3392983 0.9362062
vt 0.339613 0.9362062
vt 0.339613 0.8876198
vt 0.358164 0.8876198
vt 0.3399276 0.9362062
vt 0.358164 0.8876198
vt 0.3399276 0.9362062
vt 0.3399276 0.9362062
vt 0.358164 0.8876198
vt 0.3210619 0.8876198
vt 0.3392983 0.9362062
vt 0.3392983 0.9362062
vt 0.3210619 0.8876198
vt 0.339613 0.8876198
vt 0.358164 0.8876198
vt 0.345586 0.7903727
vt 0.339613 0.7903727
vt 0.345586 0.7903727
vt 0.358164 0.8876198
vt 0.358164 0.8876198
vt 0.345586 0.7903727
vt 0.339613 0.8876198
vt 0.339613 0.7903727
vt 0.345586 0.7903727
vt 0.358164 0.8876198
vt 0.3336399 0.7903727
vt 0.3210619 0.8876198
vt 0.3210619 0.8876198
vt 0.3336399 0.7903727
vt 0.3210619 0.8876198
vt 0.3336399 0.7903727
vt 0.339613 0.7903727
vt 0.339613 0.8876198
vt 0.3392983 0.9362062
vt 0.3210619 0.8876198
vt 0.339613 0.8876198
vt 0.339613 0.9362062
vt 0.3210619 0.8876198
vt 0.3392983 0.9362062
vt 0.339613 0.9362062
vt 0.339613 0.8876198
vt 0.3336399 0.7903727
vt 0.3210619 0.8876198
vt 0.339613 0.8876198
vt 0.339613 0.7903727
vn 0.3221866 0.09420158 0.9419777
vn 0.3221866 0.09420158 0.9419777
vn 0.3221866 0.09420158 0.9419777
vn 0.3221866 0.09420158 0.9419777
vn 0 1 0
vn 0 1 0
vn 0 1 0
vn 0 1 0
vn 0 1 0
vn 0 1 0
vn 0.3221866 0.09420158 -0.9419777
vn 0.3221866 0.09420158 -0.9419777
vn 0.3221866 0.09420158 -0.9419777
vn 0.3221866 0.09420158 -0.9419777
vn 0.9712397 0.2381037 0
vn 0.9712397 0.2381037 0
vn 0.9712397 0.2381037 0
vn 0.9712397 0.2381037 0
vn -0.9712397 0.2381037 0
vn -0.9712397 0.2381037 0
vn -0.9712397 0.2381037 0
vn -0.9712397 0.2381037 0
vn 0.2318943 -0.0212756 0.9725083
vn 0.2318943 -0.0212756 0.9725083
vn 0.2318943 -0.0212756 0.9725083
vn 0.2318943 -0.0212756 0.9725083
vn 0.9968064 -0.0798571 0
vn 0.9968064 -0.0798571 0
vn 0.9968064 -0.0798571 0
vn 0.9968064 -0.0798571 0
vn 0.2318944 -0.02127554 -0.9725083
vn 0.2318944 -0.02127554 -0.9725083
vn 0.2318944 -0.02127554 -0.9725083
vn 0.2318944 -0.02127554 -0.9725083
vn -0.9968064 -0.0798571 0
vn -0.9968064 -0.0798571 0
vn -0.9968064 -0.0798571 0
vn -0.9968064 -0.0798571 0
vn -0.2318943 -0.02127547 -0.9725083
vn -0.2318943 -0.02127547 -0.9725083
vn -0.2318943 -0.02127547 -0.9725083
vn -0.2318943 -0.02127547 -0.9725083
vn -0.3221866 0.09420165 -0.9419776
vn -0.3221866 0.09420165 -0.9419776
vn -0.3221866 0.09420165 -0.9419776
vn -0.3221866 0.09420165 -0.9419776
vn -0.3221866 0.09420165 0.9419776
vn -0.3221866 0.09420165 0.9419776
vn -0.3221866 0.09420165 0.9419776
vn -0.3221866 0.09420165 0.9419776
vn -0.2318943 -0.02127547 0.9725083
vn -0.2318943 -0.02127547 0.9725083
vn -0.2318943 -0.02127547 0.9725083
vn -0.2318943 -0.02127547 0.9725083
g WEP_shortsword01_b01_0
f 3/3/3 2/2/2 1/1/1
f 4/4/4 3/3/3 1/1/1
f 7/7/7 6/6/6 5/5/5
f 8/8/8 7/7/7 5/5/5
f 5/5/5 6/6/6 9/9/9
f 6/6/6 10/10/10 9/9/9
f 13/13/13 12/12/12 11/11/11
f 14/14/14 13/13/13 11/11/11
f 17/17/17 16/16/16 15/15/15
f 18/18/18 17/17/17 15/15/15
f 21/21/21 20/20/20 19/19/19
f 22/22/22 21/21/21 19/19/19
f 25/25/25 24/24/24 23/23/23
f 26/26/26 25/25/25 23/23/23
f 29/29/29 28/28/28 27/27/27
f 30/30/30 29/29/29 27/27/27
f 33/33/33 32/32/32 31/31/31
f 34/34/34 33/33/33 31/31/31
f 37/37/37 36/36/36 35/35/35
f 38/38/38 37/37/37 35/35/35
f 41/41/41 40/40/40 39/39/39
f 42/42/42 41/41/41 39/39/39
f 45/45/45 44/44/44 43/43/43
f 46/46/46 45/45/45 43/43/43
f 49/49/49 48/48/48 47/47/47
f 50/50/50 49/49/49 47/47/47
f 53/53/53 52/52/52 51/51/51
f 54/54/54 53/53/53 51/51/51
