g WEP_shortsword01_b02
v -0.04137703 -0.1408974 0.04970055
v -0.03908851 0.1504858 0.04970055
v 0.04397453 0.1559424 0.04970055
v 0.04681145 -0.1493175 0.04970055
v -0.03908851 0.1504858 -0.04970055
v -0.04137703 -0.1408974 -0.04970055
v 0.04681145 -0.1493175 -0.04970055
v 0.04397453 0.1559424 -0.04970055
v 0.04681145 -0.1493175 0.04970055
v 0.04397453 0.1559424 0.04970055
v 0.04397453 0.1559424 -0.04970055
v 0.04681145 -0.1493175 -0.04970055
v -0.04137703 -0.1408974 -0.04970055
v -0.03908851 0.1504858 -0.04970055
v -0.03908851 0.1504858 0.04970055
v -0.04137703 -0.1408974 0.04970055
v 0.08757881 -0.2129088 -0.06366081
v 0.08334373 -0.1396361 -0.06366081
v -0.07037071 -0.1326466 -0.06366081
v -0.0756208 -0.1916676 -0.06366081
v 0.08334373 -0.1396361 -0.06366081
v 0.08334373 -0.1396361 0.06366081
v -0.07037071 -0.1326466 0.06366081
v -0.07037071 -0.1326466 -0.06366081
v 0.08334373 -0.1396361 0.06366081
v 0.08757881 -0.2129088 0.06366081
v -0.0756208 -0.1916676 0.06366081
v -0.07037071 -0.1326466 0.06366081
v 0.08757881 -0.2129088 0.06366081
v 0.08757881 -0.2129088 -0.06366081
v -0.0756208 -0.1916676 -0.06366081
v -0.0756208 -0.1916676 0.06366081
v -0.0756208 -0.1916676 -0.06366081
v -0.07037071 -0.1326466 -0.06366081
v -0.07037071 -0.1326466 0.06366081
v -0.0756208 -0.1916676 0.06366081
v 0.08757881 -0.2129088 0.06366081
v 0.08334373 -0.1396361 0.06366081
v 0.08334373 -0.1396361 -0.06366081
v 0.08757881 -0.2129088 -0.06366081
v -0.1487994 0.1326466 0.06366081
v -0.1410764 0.2059193 0.06366081
v 0.139226 0.2129088 0.06366081
v 0.1487994 0.1538877 0.06366081
v -0.1410764 0.2059193 0.06366081
v -0.1410764 0.2059193 -0.06366081
v 0.139226 0.2129088 -0.06366081
v 0.139226 0.2129088 0.06366081
v -0.1410764 0.2059193 -0.06366081
v -0.1487994 0.1326466 -0.06366081
v 0.1487994 0.1538877 -0.06366081
v 0.139226 0.2129088 -0.06366081
v -0.1487994 0.1326466 -0.06366081
v -0.1487994 0.1326466 0.06366081
v 0.1487994 0.1538877 0.06366081
v 0.1487994 0.1538877 -0.06366081
v 0.1487994 0.1538877 0.06366081
v 0.139226 0.2129088 0.06366081
v 0.139226 0.2129088 -0.06366081
v 0.1487994 0.1538877 -0.06366081
v -0.1487994 0.1326466 -0.06366081
v -0.1410764 0.2059193 -0.06366081
v -0.1410764 0.2059193 0.06366081
v -0.1487994 0.1326466 0.06366081
v 0.005418777 0.1996834 -0.01668709
v 0.005418777 0.1996834 0.01668709
v 0.04979652 0.1996834 0.01668709
v 0.04979652 0.1996834 -0.01668709
v -0.03895897 0.1996834 -0.01668709
v -0.03895897 0.1996834 0.01668709
vt 0.08535004 0.7800999
vt 0.08695495 0.9352258
vt 0.145208 0.9390526
vt 0.1471976 0.7741948
vt 0.08695495 0.9352258
vt 0.08535004 0.7800999
vt 0.1471976 0.7741948
vt 0.145208 0.9390526
vt 0.1471976 0.7741948
vt 0.145208 0.9390526
vt 0.145208 0.9390526
vt 0.1471976 0.7741948
vt 0.08535004 0.7800999
vt 0.08695495 0.9352258
vt 0.08695495 0.9352258
vt 0.08535004 0.7800999
vt 0.4197731 0.3248542
vt 0.4178136 0.358757
vt 0.3466907 0.361991
vt 0.3442616 0.3346823
vt 0.4178136 0.358757
vt 0.4178136 0.358757
vt 0.3466907 0.361991
vt 0.3466907 0.361991
vt 0.4178136 0.358757
vt 0.4197731 0.3248542
vt 0.3442616 0.3346823
vt 0.3466907 0.361991
vt 0.4197731 0.3248542
vt 0.4197731 0.3248542
vt 0.3442616 0.3346823
vt 0.3442616 0.3346823
vt 0.3442616 0.3346823
vt 0.3466907 0.361991
vt 0.3466907 0.361991
vt 0.3442616 0.3346823
vt 0.4197731 0.3248542
vt 0.4178136 0.358757
vt 0.4178136 0.358757
vt 0.4197731 0.3248542
vt 0.3226388 0.3253112
vt 0.3262121 0.3592141
vt 0.4559063 0.362448
vt 0.4603359 0.3351393
vt 0.3262121 0.3592141
vt 0.3262121 0.3592141
vt 0.4559063 0.362448
vt 0.4559063 0.362448
vt 0.3262121 0.3592141
vt 0.3226388 0.3253112
vt 0.4603359 0.3351393
vt 0.4559063 0.362448
vt 0.3226388 0.3253112
vt 0.3226388 0.3253112
vt 0.4603359 0.3351393
vt 0.4603359 0.3351393
vt 0.4603359 0.3351393
vt 0.4559063 0.362448
vt 0.4559063 0.362448
vt 0.4603359 0.3351393
vt 0.3226388 0.3253112
vt 0.3262121 0.3592141
vt 0.3262121 0.3592141
vt 0.3226388 0.3253112
vt 0.339613 0.7903727
vt 0.339613 0.7903727
vt 0.345586 0.7903727
vt 0.345586 0.7903727
vt 0.3336399 0.7903727
vt 0.3336399 0.7903727
vn 0 0 1
vn 0 0 1
vn 0 0 1
vn 0 0 1
vn 0 0 -1
vn 0 0 -1
vn 0 0 -1
vn 0 0 -1
vn 0.9999568 0.009293114 0
vn 0.9999568 0.009293114 0
vn 0.9999568 0.009293114 0
vn 0.9999568 0.009293114 0
vn -0.9999692 0.007854051 0
vn -0.9999692 0.007854051 0
vn -0.9999692 0.007854051 0
vn -0.9999692 0.007854051 0
vn 0 0 -1
vn 0 0 -1
vn 0 0 -1
vn 0 0 -1
vn 0.04542337 0.9989678 0
vn 0.04542337 0.9989678 0
vn 0.04542337 0.9989678 0
vn 0.04542337 0.9989678 0
vn 0 0 1
vn 0 0 1
vn 0 0 1
vn 0 0 1
vn -0.1290659 -0.991636 0
vn -0.1290659 -0.991636 0
vn -0.1290659 -0.991636 0
vn -0.1290659 -0.991636 0
vn -0.9960672 0.08860079 0
vn -0.9960672 0.08860079 0
vn -0.9960672 0.08860079 0
vn -0.9960672 0.08860079 0
vn 0.9983338 0.05770429 0
vn 0.9983338 0.05770429 0
vn 0.9983338 0.05770429 0
vn 0.9983338 0.05770429 0
vn 0 0 1
vn 0 0 1
vn 0 0 1
vn 0 0 1
vn -0.0249276 0.9996892 0
vn -0.0249276 0.9996892 0
vn -0.0249276 0.9996892 0
vn -0.0249276 0.9996892 0
vn 0 0 -1
vn 0 0 -1
vn 0 0 -1
vn 0 0 -1
vn 0.07119398 -0.9974625 0
vn 0.07119398 -0.9974625 0
vn 0.07119398 -0.9974625 0
vn 0.07119398 -0.9974625 0
vn 0.9870992 0.1601099 0
vn 0.9870992 0.1601099 0
vn 0.9870992 0.1601099 0
vn 0.9870992 0.1601099 0
vn -0.9944912 0.1048196 0
vn -0.9944912 0.1048196 0
vn -0.9944912 0.1048196 0
vn -0.9944912 0.1048196 0
vn 0 -1 0
vn 0 -1 0
vn 0 -1 0
vn 0 -1 0
vn 0 -1 0
vn 0 -1 0
g WEP_shortsword01_b02_0
f 3/3/3 2/2/2 1/1/1
f 4/4/4 3/3/3 1/1/1
f 7/7/7 6/6/6 5/5/5
f 8/8/8 7/7/7 5/5/5
f 11/11/11 10/10/10 9/9/9
f 12/12/12 11/11/11 9/9/9
f 15/15/15 14/14/14 13/13/13
f 16/16/16 15/15/15 13/13/13
f 19/19/19 18/18/18 17/17/17
f 20/20/20 19/19/19 17/17/17
f 23/23/23 22/22/22 21/21/21
f 24/24/24 23/23/23 21/21/21
f 27/27/27 26/26/26 25/25/25
f 28/28/28 27/27/27 25/25/25
f 31/31/31 30/30/30 29/29/29
f 32/32/32 31/31/31 29/29/29
f 35/35/35 34/34/34 33/33/33
f 36/36/36 35/35/35 33/33/33
f 39/39/39 38/38/38 37/37/37
f 40/40/40 39/39/39 37/37/37
f 43/43/43 42/42/42 41/41/41
f 44/44/44 43/43/43 41/41/41
f 47/47/47 46/46/46 45/45/45
f 48/48/48 47/47/47 45/45/45
f 51/51/51 50/50/50 49/49/49
f 52/52/52 51/51/51 49/49/49
f 55/55/55 54/54/54 53/53/53
f 56/56/56 55/55/55 53/53/53
f 59/59/59 58/58/58 57/57/57
f 60/60/60 59/59/59 57/57/57
f 63/63/63 62/62/62 61/61/61
f 64/64/64 63/63/63 61/61/61
f 67/67/67 66/66/66 65/65/65
f 68/68/68 67/67/67 65/65/65
f 65/65/65 66/66/66 69/69/69
f 66/66/66 70/70/70 69/69/69
