g whaleDungeonRoom2Water
v -6.373714 0.0568568 -15.9437
v -6.373714 0.0568568 -18
v -4.780286 0.0568568 -18
v -4.780286 0.0568568 -15.9437
v -3.186857 0.0568568 -15.9437
v -3.186857 0.0568568 -18
v -1.593429 0.0568568 -15.9437
v -1.593429 0.0568568 -18
v -1.304512E-17 0.0568568 -15.9437
v -3.996802E-17 0.0568568 -18
v 1.593429 0.0568568 -15.9437
v 1.593429 0.0568568 -18
v 3.186857 0.0568568 -15.9437
v 3.186857 0.0568568 -18
v 4.780286 0.0568568 -15.9437
v 4.780286 0.0568568 -18
v 6.373714 0.0568568 -15.9437
v 6.373714 0.0568568 -18
v -4.780286 0.0568568 -13.35484
v -6.373714 0.0568568 -13.35484
v -6.373714 0.0568568 -10.88408
v -4.780286 0.0568568 -10.88408
v -3.186857 0.0568568 -10.88408
v -3.186857 0.0568568 -13.35484
v -1.593429 0.0568568 -13.35484
v -1.593429 0.0568568 -10.88408
v 0 0.0568568 -13.35484
v 0 0.0568568 -10.88408
v 1.593429 0.0568568 -13.35484
v 1.593429 0.0568568 -10.88408
v 3.186857 0.0568568 -13.35484
v 3.186857 0.0568568 -10.88408
v 4.780286 0.0568568 -13.35484
v 4.780286 0.0568568 -10.88408
v 6.373714 0.0568568 -13.35484
v 6.373714 0.0568568 -10.88408
v 1.593429 0.0568568 -8.743633
v 0 0.0568568 -8.743633
v -1.593429 0.0568568 -8.743633
v -3.186857 0.0568568 -8.743633
v -4.780286 0.0568568 -8.743633
v -6.373714 0.0568568 -8.743633
v 3.186857 0.0568568 -8.743633
v 4.780286 0.0568568 -8.743633
v 6.373714 0.0568568 -8.743633
vt 0.004198402 0.9395205
vt 0.004198402 1
vt 0.1281487 1
vt 0.1281487 0.9395205
vt 0.2520991 0.9395205
vt 0.2520991 1
vt 0.3760496 0.9395205
vt 0.3760496 1
vt 0.4999999 0.9395205
vt 0.4999999 1
vt 0.6239503 0.9395205
vt 0.6239503 1
vt 0.7479008 0.9395205
vt 0.7479008 1
vt 0.8718513 0.9395205
vt 0.8718513 1
vt 0.9958014 0.9395205
vt 0.9958014 1
vt 0.1281487 0.8633777
vt 0.004198402 0.8633777
vt 0.004198402 0.7907081
vt 0.1281487 0.7907081
vt 0.2520991 0.7907081
vt 0.2520991 0.8633777
vt 0.3760496 0.8633777
vt 0.3760496 0.7907081
vt 0.4999999 0.8633777
vt 0.4999999 0.7907081
vt 0.6239503 0.8633777
vt 0.6239503 0.7907081
vt 0.7479008 0.8633777
vt 0.7479008 0.7907081
vt 0.8718513 0.8633777
vt 0.8718513 0.7907081
vt 0.9958014 0.8633777
vt 0.9958014 0.7907081
vt 0.6239503 0.7277539
vt 0.4999999 0.7277539
vt 0.3760496 0.7277539
vt 0.2520991 0.7277539
vt 0.1281487 0.7277539
vt 0.004198402 0.7277539
vt 0.7479008 0.7277539
vt 0.8718513 0.7277539
vt 0.9958014 0.7277539
vn 0 1 0
vn 0 1 0
vn 0 1 0
vn 0 1 0
vn 0 1 0
vn 0 1 0
vn 0 1 0
vn 0 1 0
vn 0 1 0
vn 0 1 0
vn 0 1 0
vn 0 1 0
vn 0 1 0
vn 0 1 0
vn 0 1 0
vn 0 1 0
vn 0 1 0
vn 0 1 0
vn 0 1 0
vn 0 1 0
vn 0 1 0
vn 0 1 0
vn 0 1 0
vn 0 1 0
vn 0 1 0
vn 0 1 0
vn 0 1 0
vn 0 1 0
vn 0 1 0
vn 0 1 0
vn 0 1 0
vn 0 1 0
vn 0 1 0
vn 0 1 0
vn 0 1 0
vn 0 1 0
vn 0 1 0
vn 0 1 0
vn 0 1 0
vn 0 1 0
vn 0 1 0
vn 0 1 0
vn 0 1 0
vn 0 1 0
vn 0 1 0
g whaleDungeonRoom2Water_0
f 3/3/3 2/2/2 1/1/1
f 4/4/4 3/3/3 1/1/1
f 4/4/4 5/5/5 3/3/3
f 5/5/5 6/6/6 3/3/3
f 5/5/5 7/7/7 6/6/6
f 7/7/7 8/8/8 6/6/6
f 7/7/7 9/9/9 8/8/8
f 9/9/9 10/10/10 8/8/8
f 9/9/9 11/11/11 10/10/10
f 11/11/11 12/12/12 10/10/10
f 11/11/11 13/13/13 12/12/12
f 13/13/13 14/14/14 12/12/12
f 13/13/13 15/15/15 14/14/14
f 15/15/15 16/16/16 14/14/14
f 15/15/15 17/17/17 16/16/16
f 17/17/17 18/18/18 16/16/16
f 4/4/4 19/19/19 5/5/5
f 19/19/19 4/4/4 20/20/20
f 19/19/19 20/20/20 21/21/21
f 22/22/22 19/19/19 21/21/21
f 22/22/22 23/23/23 19/19/19
f 23/23/23 24/24/24 19/19/19
f 25/25/25 24/24/24 23/23/23
f 26/26/26 25/25/25 23/23/23
f 25/25/25 26/26/26 27/27/27
f 26/26/26 28/28/28 27/27/27
f 29/29/29 27/27/27 28/28/28
f 30/30/30 29/29/29 28/28/28
f 29/29/29 30/30/30 31/31/31
f 30/30/30 32/32/32 31/31/31
f 33/33/33 31/31/31 32/32/32
f 34/34/34 33/33/33 32/32/32
f 33/33/33 34/34/34 35/35/35
f 34/34/34 36/36/36 35/35/35
f 24/24/24 25/25/25 7/7/7
f 5/5/5 24/24/24 7/7/7
f 19/19/19 24/24/24 5/5/5
f 25/25/25 27/27/27 9/9/9
f 7/7/7 25/25/25 9/9/9
f 27/27/27 29/29/29 11/11/11
f 9/9/9 27/27/27 11/11/11
f 29/29/29 31/31/31 13/13/13
f 11/11/11 29/29/29 13/13/13
f 31/31/31 33/33/33 15/15/15
f 13/13/13 31/31/31 15/15/15
f 33/33/33 35/35/35 17/17/17
f 15/15/15 33/33/33 17/17/17
f 30/30/30 37/37/37 32/32/32
f 37/37/37 30/30/30 38/38/38
f 30/30/30 28/28/28 38/38/38
f 39/39/39 38/38/38 28/28/28
f 26/26/26 39/39/39 28/28/28
f 39/39/39 26/26/26 40/40/40
f 26/26/26 23/23/23 40/40/40
f 41/41/41 40/40/40 23/23/23
f 22/22/22 41/41/41 23/23/23
f 41/41/41 22/22/22 42/42/42
f 22/22/22 21/21/21 42/42/42
f 37/37/37 43/43/43 32/32/32
f 34/34/34 32/32/32 43/43/43
f 44/44/44 34/34/34 43/43/43
f 34/34/34 44/44/44 36/36/36
f 44/44/44 45/45/45 36/36/36
f 4/4/4 1/1/1 20/20/20
