g whaleDungeonWater
v -6.373714 0.0568568 1.86122
v -6.373714 0.0568568 0
v -4.780286 0.0568568 0
v -4.780286 0.0568568 1.86122
v -3.186857 0.003061009 1.86122
v -3.186857 0.003061009 0
v -1.593429 -0.06238234 0
v -1.593429 -0.06238234 1.86122
v 0 -0.06238234 0
v 0 -0.06238234 1.86122
v 1.593429 -0.06238234 0
v 1.593429 -0.06238234 1.86122
v 3.186857 0.003061009 0
v 3.186857 0.003061009 1.86122
v 4.780286 0.0568568 0
v 4.780286 0.0568568 1.86122
v 6.373714 0.0568568 0
v 6.373714 0.0568568 1.86122
v -4.780286 0.0568568 3.583994
v -6.373714 0.0568568 3.583994
v -6.373714 0.0568568 5.795429
v -4.780286 0.0568568 5.795429
v -3.186857 0.05055983 5.795429
v -3.186857 0.003061009 3.583994
v -1.593429 -0.06238234 3.583994
v -1.593429 0.02704704 5.795429
v 0 -0.06238234 3.583994
v 0 0.02704704 5.795429
v 1.593429 -0.06238234 3.583994
v 1.593429 0.02704704 5.795429
v 3.186857 0.003061009 3.583994
v 3.186857 0.05055983 5.795429
v 4.780286 0.0568568 3.583994
v 4.780286 0.0568568 5.795429
v 6.373714 0.0568568 3.583994
v 6.373714 0.0568568 5.795429
v 1.593429 -0.06238234 3.583994
v 1.593429 0.0568568 7.583994
v 0 0.0568568 7.583994
v 0 0.0568568 9.725785
v 1.593429 0.0568568 9.725785
v 3.186857 0.0568568 7.583994
v 3.186857 0.0568568 9.725785
v 4.780286 0.0568568 7.583994
v 4.780286 0.0568568 9.725785
v 6.373714 0.0568568 7.583994
v 6.373714 0.0568568 9.725785
v -1.593429 0.0568568 9.725785
v -1.593429 0.0568568 7.583994
v -3.186857 0.0568568 9.725785
v -3.186857 0.0568568 7.583994
v -4.780286 0.0568568 7.583994
v -4.780286 0.0568568 9.725785
v -6.373714 0.0568568 9.725785
v -6.373714 0.0568568 7.583994
v -6.373714 0.0568568 11.77375
v -4.780286 0.0568568 11.77375
v -6.373714 0.0568568 14
v -4.780286 0.0568568 14
v -3.186857 0.0568568 14
v -3.186857 0.0568568 11.77375
v -1.593429 0.0568568 11.77375
v -1.593429 0.0568568 14
v 0 0.0568568 11.77375
v 0 0.0568568 14
v 1.593429 0.0568568 11.77375
v 1.593429 0.0568568 14
v 3.186857 0.0568568 11.77375
v 3.186857 0.0568568 14
v 4.780286 0.0568568 11.77375
v 4.780286 0.0568568 14
v 6.373714 0.0568568 11.77375
v 6.373714 0.0568568 14
v 1.593429 0.0568568 16
v 0 0.0568568 16
v -1.593429 0.0568568 16
v -3.186857 0.0568568 16
v -4.780286 0.0568568 16
v -6.373714 0.0568568 16
v 3.186857 0.0568568 16
v 4.780286 0.0568568 16
v 6.373714 0.0568568 16
v -6.373714 0.0568568 -5.735724
v -6.373714 0.0568568 -7.469616
v -4.780286 0.0568568 -7.469616
v -4.780286 0.0568568 -5.735724
v -3.186857 0.05055983 -5.735724
v -3.186857 0.0568568 -7.469616
v -1.593429 0.0568568 -7.469616
v -1.593429 0.02704704 -5.735724
v 0 0.0568568 -7.469616
v 0 0.02704704 -5.735724
v 1.593429 0.0568568 -7.469616
v 1.593429 0.02704704 -5.735724
v 3.186857 0.0568568 -7.469616
v 3.186857 0.05055983 -5.735724
v 4.780286 0.0568568 -7.469616
v 4.780286 0.0568568 -5.735724
v 6.373714 0.0568568 -7.469616
v 6.373714 0.0568568 -5.735724
v -4.780286 0.0568568 -4
v -6.373714 0.0568568 -4
v -6.373714 0.0568568 -2
v -4.780286 0.0568568 -2
v -3.186857 0.003061009 -2
v -3.186857 0.003061009 -4
v -1.593429 -0.06238234 -4
v -1.593429 -0.06238234 -2
v 0 -0.06238234 -4
v 0 -0.06238234 -2
v 1.593429 -0.06238234 -4
v 1.593429 -0.06238234 -2
v 3.186857 0.003061009 -4
v 3.186857 0.003061009 -2
v 4.780286 0.0568568 -4
v 4.780286 0.0568568 -2
v 6.373714 0.0568568 -4
v 6.373714 0.0568568 -2
v -1.593429 -0.06238234 -4
v 0 -0.06238234 -4
v 1.593429 -0.06238234 -4
v -6.373714 0.0568568 -8.743633
v -4.780286 0.0568568 -8.743633
v -3.186857 0.0568568 -8.743633
v -1.593429 0.0568568 -8.743633
v 0 0.0568568 -8.743633
v 1.593429 0.0568568 -8.743633
v 3.186857 0.0568568 -8.743633
v 4.780286 0.0568568 -8.743633
v 6.373714 0.0568568 -8.743633
vt 0.004198402 0.4158465
vt 0.004198402 0.4705882
vt 0.1281487 0.4705882
vt 0.1281487 0.4158465
vt 0.2520991 0.4158465
vt 0.2520991 0.4705882
vt 0.3760496 0.4705882
vt 0.3760496 0.4158465
vt 0.4999999 0.4705882
vt 0.4999999 0.4158465
vt 0.6239503 0.4705882
vt 0.6239503 0.4158465
vt 0.7479008 0.4705882
vt 0.7479008 0.4158465
vt 0.8718513 0.4705882
vt 0.8718513 0.4158465
vt 0.9958014 0.4705882
vt 0.9958014 0.4158465
vt 0.1281487 0.3651766
vt 0.004198402 0.3651766
vt 0.004198402 0.3001344
vt 0.1281487 0.3001344
vt 0.2520991 0.3001344
vt 0.2520991 0.3651766
vt 0.3760496 0.3651766
vt 0.3760496 0.3001344
vt 0.4999999 0.3651766
vt 0.4999999 0.3001344
vt 0.6239503 0.3651766
vt 0.6239503 0.3001344
vt 0.7479008 0.3651766
vt 0.7479008 0.3001344
vt 0.8718513 0.3651766
vt 0.8718513 0.3001344
vt 0.9958014 0.3651766
vt 0.9958014 0.3001344
vt 0.6239503 0.3651766
vt 0.6239503 0.2475296
vt 0.4999999 0.2475296
vt 0.4999999 0.1845357
vt 0.6239503 0.1845357
vt 0.7479008 0.2475296
vt 0.7479008 0.1845357
vt 0.8718513 0.2475296
vt 0.8718513 0.1845357
vt 0.9958014 0.2475296
vt 0.9958014 0.1845357
vt 0.3760496 0.1845357
vt 0.3760496 0.2475296
vt 0.2520991 0.1845357
vt 0.2520991 0.2475296
vt 0.1281487 0.2475296
vt 0.1281487 0.1845357
vt 0.004198402 0.1845357
vt 0.004198402 0.2475296
vt 0.004198402 0.1243014
vt 0.1281487 0.1243014
vt 0.004198402 0.05882353
vt 0.1281487 0.05882353
vt 0.2520991 0.05882353
vt 0.2520991 0.1243014
vt 0.3760496 0.1243014
vt 0.3760496 0.05882353
vt 0.4999999 0.1243014
vt 0.4999999 0.05882353
vt 0.6239503 0.1243014
vt 0.6239503 0.05882353
vt 0.7479008 0.1243014
vt 0.7479008 0.05882353
vt 0.8718513 0.1243014
vt 0.8718513 0.05882353
vt 0.9958014 0.1243014
vt 0.9958014 0.05882353
vt 0.6239503 0
vt 0.4999999 0
vt 0.3760496 0
vt 0.2520991 0
vt 0.1281487 0
vt 0.004198402 0
vt 0.7479008 0
vt 0.8718513 0
vt 0.9958014 0
vt 0.004198402 0.639286
vt 0.004198402 0.6902828
vt 0.1281487 0.6902828
vt 0.1281487 0.639286
vt 0.2520991 0.639286
vt 0.2520991 0.6902828
vt 0.3760496 0.6902828
vt 0.3760496 0.639286
vt 0.4999999 0.6902828
vt 0.4999999 0.639286
vt 0.6239503 0.6902828
vt 0.6239503 0.639286
vt 0.7479008 0.6902828
vt 0.7479008 0.639286
vt 0.8718513 0.6902828
vt 0.8718513 0.639286
vt 0.9958014 0.6902828
vt 0.9958014 0.639286
vt 0.1281487 0.5882353
vt 0.004198402 0.5882353
vt 0.004198402 0.5294118
vt 0.1281487 0.5294118
vt 0.2520991 0.5294118
vt 0.2520991 0.5882353
vt 0.3760496 0.5882353
vt 0.3760496 0.5294118
vt 0.4999999 0.5882353
vt 0.4999999 0.5294118
vt 0.6239503 0.5882353
vt 0.6239503 0.5294118
vt 0.7479008 0.5882353
vt 0.7479008 0.5294118
vt 0.8718513 0.5882353
vt 0.8718513 0.5294118
vt 0.9958014 0.5882353
vt 0.9958014 0.5294118
vt 0.3760496 0.5882353
vt 0.4999999 0.5882353
vt 0.6239503 0.5882353
vt 0.004198402 0.7277539
vt 0.1281487 0.7277539
vt 0.2520991 0.7277539
vt 0.3760496 0.7277539
vt 0.4999999 0.7277539
vt 0.6239503 0.7277539
vt 0.7479008 0.7277539
vt 0.8718513 0.7277539
vt 0.9958014 0.7277539
vn 0 1 0
vn 0 1 0
vn 0 1 0
vn 0 1 0
vn 0.04103618 0.9991577 0
vn 0.04103618 0.9991577 0
vn 0.04103618 0.9991577 0
vn 0.04103618 0.9991577 0
vn 0 1 0
vn 0 1 0
vn 0 1 0
vn 0 1 0
vn -0.03374181 0.9994306 0
vn -0.03374181 0.9994306 0
vn -0.03374181 0.9994306 0
vn -0.03374181 0.9994306 0
vn 0 1 0
vn 0 1 0
vn 0 1 0
vn 0 1 0
vn 0 1 0
vn 0 1 0
vn 0.02788922 0.9991323 -0.03093227
vn 0.02788921 0.9991323 -0.03093226
vn 0.02788922 0.9991323 -0.03093226
vn 0.02788922 0.9991323 -0.03093227
vn 0 0.9991834 -0.0404065
vn 0 0.9991834 -0.0404065
vn 0 0.9991834 -0.0404065
vn 0 0.9991834 -0.0404065
vn -0.018852 0.9997646 -0.01073684
vn -0.018852 0.9997646 -0.01073684
vn -0.018852 0.9997646 -0.01073684
vn -0.018852 0.9997646 -0.01073684
vn 0 1 0
vn 0 1 0
vn -0.04103618 0.9991577 0
vn 0 1 0
vn 0 1 0
vn 0 1 0
vn 0 1 0
vn 0 1 0
vn 0 1 0
vn 0 1 0
vn 0 1 0
vn 0 1 0
vn 0 1 0
vn 0 1 0
vn 0 1 0
vn 0 1 0
vn 0 1 0
vn 0 1 0
vn 0 1 0
vn 0 1 0
vn 0 1 0
vn 0 1 0
vn 0 1 0
vn 0 1 0
vn 0 1 0
vn 0 1 0
vn 0 1 0
vn 0 1 0
vn 0 1 0
vn 0 1 0
vn 0 1 0
vn 0 1 0
vn 0 1 0
vn 0 1 0
vn 0 1 0
vn 0 1 0
vn 0 1 0
vn 0 1 0
vn 0 1 0
vn 0 1 0
vn 0 1 0
vn 0 1 0
vn 0 1 0
vn 0 1 0
vn 0 1 0
vn 0 1 0
vn 0 1 0
vn 0 1 0
vn 0 1 0
vn 0 1 0
vn 0 1 0
vn 0 1 0
vn 0.007377446 0.9999186 0.0104112
vn 0.007377446 0.9999186 0.0104112
vn 0.007377446 0.9999186 0.0104112
vn 0.007377446 0.9999186 0.0104112
vn 0 0.9998523 0.01718986
vn 0 0.9998523 0.01718986
vn 0 0.9998523 0.01718986
vn 0 0.9998523 0.01718986
vn -0.001975912 0.9999964 0.001815843
vn -0.001975912 0.9999964 0.001815843
vn -0.001975912 0.9999964 0.001815843
vn -0.001975912 0.9999964 0.001815843
vn 0 1 0
vn 0 1 0
vn 0 1 0
vn 0 1 0
vn 0 1 0
vn 0 1 0
vn 0.04103618 0.9991577 0
vn 0.04103618 0.9991577 0
vn 0.04103618 0.9991577 0
vn 0.04103618 0.9991577 0
vn 0 1 0
vn 0 1 0
vn 0 1 0
vn 0 1 0
vn -0.0337418 0.9994306 0
vn -0.0337418 0.9994306 0
vn -0.0337418 0.9994306 0
vn -0.0337418 0.9994306 0
vn 0 1 0
vn 0 1 0
vn 0 0.9986753 0.05145454
vn 0 0.9986753 0.05145454
vn 0 0.9986753 0.05145454
vn 0 1 0
vn 0 1 0
vn 0 1 0
vn 0 1 0
vn 0 1 0
vn 0 1 0
vn 0 1 0
vn 0 1 0
vn 0 1 0
g whaleDungeonWater_0
f 3/3/3 2/2/2 1/1/1
f 4/4/4 3/3/3 1/1/1
f 4/4/4 5/5/5 3/3/3
f 5/5/5 6/6/6 3/3/3
f 7/7/7 6/6/6 5/5/5
f 8/8/8 7/7/7 5/5/5
f 7/7/7 8/8/8 9/9/9
f 8/8/8 10/10/10 9/9/9
f 11/11/11 9/9/9 10/10/10
f 12/12/12 11/11/11 10/10/10
f 11/11/11 12/12/12 13/13/13
f 12/12/12 14/14/14 13/13/13
f 15/15/15 13/13/13 14/14/14
f 16/16/16 15/15/15 14/14/14
f 15/15/15 16/16/16 17/17/17
f 16/16/16 18/18/18 17/17/17
f 4/4/4 19/19/19 5/5/5
f 19/19/19 4/4/4 20/20/20
f 19/19/19 20/20/20 21/21/21
f 22/22/22 19/19/19 21/21/21
f 22/22/22 23/23/23 19/19/19
f 23/23/23 24/24/24 19/19/19
f 25/25/25 24/24/24 23/23/23
f 26/26/26 25/25/25 23/23/23
f 25/25/25 26/26/26 27/27/27
f 26/26/26 28/28/28 27/27/27
f 29/29/29 27/27/27 28/28/28
f 30/30/30 29/29/29 28/28/28
f 29/29/29 30/30/30 31/31/31
f 30/30/30 32/32/32 31/31/31
f 33/33/33 31/31/31 32/32/32
f 34/34/34 33/33/33 32/32/32
f 33/33/33 34/34/34 35/35/35
f 34/34/34 36/36/36 35/35/35
f 5/5/5 24/24/24 25/25/25
f 19/19/19 24/24/24 5/5/5
f 8/8/8 5/5/5 25/25/25
f 25/25/25 27/27/27 10/10/10
f 8/8/8 25/25/25 10/10/10
f 10/10/10 27/27/27 29/29/29
f 12/12/12 10/10/10 29/29/29
f 14/14/14 31/31/31 33/33/33
f 37/37/37 31/31/31 14/14/14
f 12/12/12 37/37/37 14/14/14
f 16/16/16 14/14/14 33/33/33
f 33/33/33 35/35/35 18/18/18
f 16/16/16 33/33/33 18/18/18
f 30/30/30 38/38/38 32/32/32
f 30/30/30 28/28/28 38/38/38
f 28/28/28 39/39/39 38/38/38
f 38/38/38 39/39/39 40/40/40
f 41/41/41 38/38/38 40/40/40
f 38/38/38 41/41/41 42/42/42
f 41/41/41 43/43/43 42/42/42
f 44/44/44 42/42/42 43/43/43
f 45/45/45 44/44/44 43/43/43
f 44/44/44 45/45/45 46/46/46
f 45/45/45 47/47/47 46/46/46
f 48/48/48 40/40/40 39/39/39
f 49/49/49 48/48/48 39/39/39
f 49/49/49 39/39/39 28/28/28
f 48/48/48 49/49/49 50/50/50
f 49/49/49 51/51/51 50/50/50
f 50/50/50 51/51/51 52/52/52
f 53/53/53 50/50/50 52/52/52
f 53/53/53 52/52/52 54/54/54
f 52/52/52 55/55/55 54/54/54
f 52/52/52 22/22/22 55/55/55
f 22/22/22 21/21/21 55/55/55
f 52/52/52 51/51/51 23/23/23
f 22/22/22 52/52/52 23/23/23
f 23/23/23 51/51/51 49/49/49
f 26/26/26 23/23/23 49/49/49
f 26/26/26 49/49/49 28/28/28
f 53/53/53 54/54/54 56/56/56
f 57/57/57 53/53/53 56/56/56
f 53/53/53 57/57/57 50/50/50
f 57/57/57 56/56/56 58/58/58
f 59/59/59 57/57/57 58/58/58
f 59/59/59 60/60/60 57/57/57
f 60/60/60 61/61/61 57/57/57
f 62/62/62 61/61/61 60/60/60
f 63/63/63 62/62/62 60/60/60
f 62/62/62 63/63/63 64/64/64
f 63/63/63 65/65/65 64/64/64
f 66/66/66 64/64/64 65/65/65
f 67/67/67 66/66/66 65/65/65
f 66/66/66 67/67/67 68/68/68
f 67/67/67 69/69/69 68/68/68
f 70/70/70 68/68/68 69/69/69
f 71/71/71 70/70/70 69/69/69
f 70/70/70 71/71/71 72/72/72
f 71/71/71 73/73/73 72/72/72
f 50/50/50 61/61/61 62/62/62
f 57/57/57 61/61/61 50/50/50
f 48/48/48 50/50/50 62/62/62
f 62/62/62 64/64/64 40/40/40
f 48/48/48 62/62/62 40/40/40
f 40/40/40 64/64/64 66/66/66
f 41/41/41 40/40/40 66/66/66
f 66/66/66 68/68/68 43/43/43
f 41/41/41 66/66/66 43/43/43
f 43/43/43 68/68/68 70/70/70
f 45/45/45 43/43/43 70/70/70
f 70/70/70 72/72/72 47/47/47
f 45/45/45 70/70/70 47/47/47
f 67/67/67 74/74/74 69/69/69
f 67/67/67 65/65/65 74/74/74
f 65/65/65 75/75/75 74/74/74
f 76/76/76 75/75/75 65/65/65
f 63/63/63 76/76/76 65/65/65
f 63/63/63 60/60/60 76/76/76
f 60/60/60 77/77/77 76/76/76
f 78/78/78 77/77/77 60/60/60
f 59/59/59 78/78/78 60/60/60
f 78/78/78 59/59/59 79/79/79
f 59/59/59 58/58/58 79/79/79
f 74/74/74 80/80/80 69/69/69
f 69/69/69 80/80/80 81/81/81
f 71/71/71 69/69/69 81/81/81
f 71/71/71 81/81/81 73/73/73
f 81/81/81 82/82/82 73/73/73
f 85/85/85 84/84/84 83/83/83
f 86/86/86 85/85/85 83/83/83
f 86/86/86 87/87/87 85/85/85
f 87/87/87 88/88/88 85/85/85
f 89/89/89 88/88/88 87/87/87
f 90/90/90 89/89/89 87/87/87
f 89/89/89 90/90/90 91/91/91
f 90/90/90 92/92/92 91/91/91
f 93/93/93 91/91/91 92/92/92
f 94/94/94 93/93/93 92/92/92
f 93/93/93 94/94/94 95/95/95
f 94/94/94 96/96/96 95/95/95
f 97/97/97 95/95/95 96/96/96
f 98/98/98 97/97/97 96/96/96
f 97/97/97 98/98/98 99/99/99
f 98/98/98 100/100/100 99/99/99
f 86/86/86 101/101/101 87/87/87
f 101/101/101 86/86/86 102/102/102
f 101/101/101 102/102/102 103/103/103
f 104/104/104 101/101/101 103/103/103
f 104/104/104 105/105/105 101/101/101
f 105/105/105 106/106/106 101/101/101
f 107/107/107 106/106/106 105/105/105
f 108/108/108 107/107/107 105/105/105
f 107/107/107 108/108/108 109/109/109
f 108/108/108 110/110/110 109/109/109
f 111/111/111 109/109/109 110/110/110
f 112/112/112 111/111/111 110/110/110
f 111/111/111 112/112/112 113/113/113
f 112/112/112 114/114/114 113/113/113
f 115/115/115 113/113/113 114/114/114
f 116/116/116 115/115/115 114/114/114
f 115/115/115 116/116/116 117/117/117
f 116/116/116 118/118/118 117/117/117
f 104/104/104 103/103/103 2/2/2
f 3/3/3 104/104/104 2/2/2
f 104/104/104 3/3/3 105/105/105
f 3/3/3 6/6/6 105/105/105
f 105/105/105 6/6/6 7/7/7
f 108/108/108 105/105/105 7/7/7
f 108/108/108 7/7/7 110/110/110
f 7/7/7 9/9/9 110/110/110
f 110/110/110 9/9/9 11/11/11
f 112/112/112 110/110/110 11/11/11
f 112/112/112 11/11/11 114/114/114
f 11/11/11 13/13/13 114/114/114
f 114/114/114 13/13/13 15/15/15
f 116/116/116 114/114/114 15/15/15
f 116/116/116 15/15/15 118/118/118
f 15/15/15 17/17/17 118/118/118
f 4/4/4 1/1/1 20/20/20
f 86/86/86 83/83/83 102/102/102
f 101/101/101 106/106/106 87/87/87
f 87/87/87 106/106/106 107/107/107
f 90/90/90 87/87/87 107/107/107
f 90/90/90 119/119/119 92/92/92
f 119/119/119 120/120/120 92/92/92
f 92/92/92 120/120/120 121/121/121
f 94/94/94 92/92/92 121/121/121
f 94/94/94 121/121/121 96/96/96
f 121/121/121 113/113/113 96/96/96
f 96/96/96 113/113/113 115/115/115
f 98/98/98 96/96/96 115/115/115
f 98/98/98 115/115/115 100/100/100
f 115/115/115 117/117/117 100/100/100
f 123/123/123 122/122/122 84/84/84
f 85/85/85 123/123/123 84/84/84
f 123/123/123 85/85/85 124/124/124
f 85/85/85 88/88/88 124/124/124
f 124/124/124 88/88/88 89/89/89
f 125/125/125 124/124/124 89/89/89
f 125/125/125 89/89/89 126/126/126
f 89/89/89 91/91/91 126/126/126
f 126/126/126 91/91/91 93/93/93
f 127/127/127 126/126/126 93/93/93
f 127/127/127 93/93/93 128/128/128
f 93/93/93 95/95/95 128/128/128
f 128/128/128 95/95/95 97/97/97
f 129/129/129 128/128/128 97/97/97
f 129/129/129 97/97/97 130/130/130
f 97/97/97 99/99/99 130/130/130
f 38/38/38 42/42/42 32/32/32
f 32/32/32 42/42/42 44/44/44
f 34/34/34 32/32/32 44/44/44
f 34/34/34 44/44/44 36/36/36
f 44/44/44 46/46/46 36/36/36
