g witchBroom_break02
v -0.08010956 -0.5764526 0.002791407
v -0.03519867 -0.5701428 -0.06206468
v -0.003729553 -0.489021 -0.06365697
v -0.04515534 -0.4965332 -0.005090964
v -0.03519867 -0.5701428 -0.06206468
v 0.03070587 -0.5575232 -0.04849331
v 0.05627533 -0.4754059 -0.05188251
v -0.003729553 -0.489021 -0.06365697
v 0.03070587 -0.5575232 -0.04849331
v 0.05169952 -0.5512134 0.002791407
v 0.07513885 -0.4693329 -0.006960118
v 0.05627533 -0.4754059 -0.05188251
v -0.03519867 -0.5701428 -0.06206468
v -0.08010956 -0.5764526 0.002791407
v -0.01420502 -0.6009997 0.002791407
v 0.03070587 -0.5575232 -0.04849331
v -0.03519867 -0.5701428 -0.06206468
v -0.01420502 -0.6009997 0.002791407
v 0.05169952 -0.5512134 0.002791407
v 0.03070587 -0.5575232 -0.04849331
v -0.01420502 -0.6009997 0.002791407
v -0.01022186 -0.1117895 -0.001038687
v 0.01491119 -0.1193866 -0.03758631
v -0.02188812 0.07963806 -0.001615937
v -0.04268402 0.08301636 0.02860283
v -0.02034393 0.5706344 0.001040203
v -0.03919586 0.5455389 0.02860283
v 0.05172211 -0.1326398 -0.0307418
v 0.06337799 -0.1386697 -0.002021346
v 0.0184732 0.06935608 0.02860283
v 0.008679505 0.07282531 0.00445729
v 0.01725738 0.5664032 0.02860283
v 0.007857361 0.5675491 0.006284683
v 0.01491119 -0.1193866 -0.03758631
v 0.05172211 -0.1326398 -0.0307418
v 0.008679505 0.07282531 0.00445729
v -0.02188812 0.07963806 -0.001615937
v 0.007857361 0.5675491 0.006284683
v -0.02034393 0.5706344 0.001040203
v -0.08010956 -0.5764526 0.002791407
v -0.04515534 -0.4965332 -0.005090964
v -0.004010315 -0.4903216 0.05276212
v -0.03519867 -0.5701428 0.0676475
v -0.03519867 -0.5701428 0.0676475
v -0.004010315 -0.4903216 0.05276212
v 0.05609467 -0.4766852 0.03910741
v 0.03070587 -0.5575232 0.05407613
v 0.03070587 -0.5575232 0.05407613
v 0.05609467 -0.4766852 0.03910741
v 0.07513885 -0.4693329 -0.006960118
v 0.05169952 -0.5512134 0.002791407
v -0.03519867 -0.5701428 0.0676475
v -0.01420502 -0.6009997 0.002791407
v -0.08010956 -0.5764526 0.002791407
v 0.03070587 -0.5575232 0.05407613
v -0.01420502 -0.6009997 0.002791407
v -0.03519867 -0.5701428 0.0676475
v 0.05169952 -0.5512134 0.002791407
v -0.01420502 -0.6009997 0.002791407
v 0.03070587 -0.5575232 0.05407613
v -0.01022186 -0.1117895 -0.001038687
v -0.04268402 0.08301636 0.02860283
v -0.02188812 0.07963806 0.05882159
v 0.01472198 -0.1179407 0.03491056
v -0.04268402 0.08301636 0.02860283
v -0.02034393 0.4986929 0.05616545
v -0.03919586 0.5455389 0.02860283
v 0.05155182 -0.1315585 0.02710198
v 0.008679505 0.07282531 0.05274836
v 0.0184732 0.06935608 0.02860283
v 0.06337799 -0.1386697 -0.002021346
v 0.01725738 0.5664032 0.02860283
v 0.007857361 0.5675491 0.05092097
v 0.01472198 -0.1179407 0.03491056
v -0.02188812 0.07963806 0.05882159
v 0.008679505 0.07282531 0.05274836
v 0.05155182 -0.1315585 0.02710198
v 0.007857361 0.5675491 0.05092097
v -0.02034393 0.4986929 0.05616545
v -0.004010315 -0.4903216 0.05276212
v 0.02609283 -0.2857159 0.01460638
v 0.06721954 -0.2986316 0.006137392
v 0.05609467 -0.4766852 0.03910741
v -0.04515534 -0.4965332 -0.005090964
v -0.002143249 -0.2792578 -0.02652056
v 0.02609283 -0.2857159 0.01460638
v -0.004010315 -0.4903216 0.05276212
v -0.003729553 -0.489021 -0.06365697
v 0.02609283 -0.2857159 -0.0676475
v -0.002143249 -0.2792578 -0.02652056
v -0.04515534 -0.4965332 -0.005090964
v 0.05627533 -0.4754059 -0.05188251
v 0.06721954 -0.2986316 -0.05917851
v 0.02609283 -0.2857159 -0.0676475
v -0.003729553 -0.489021 -0.06365697
v 0.07513885 -0.4693329 -0.006960118
v 0.08010956 -0.3050897 -0.02652056
v 0.06721954 -0.2986316 -0.05917851
v 0.05627533 -0.4754059 -0.05188251
v 0.05609467 -0.4766852 0.03910741
v 0.06721954 -0.2986316 0.006137392
v 0.08010956 -0.3050897 -0.02652056
v 0.07513885 -0.4693329 -0.006960118
v 0.06721954 -0.2986316 0.006137392
v 0.05155182 -0.1315585 0.02710198
v 0.06337799 -0.1386697 -0.002021346
v 0.08010956 -0.3050897 -0.02652056
v 0.06721954 -0.2986316 -0.05917851
v 0.08010956 -0.3050897 -0.02652056
v 0.06337799 -0.1386697 -0.002021346
v 0.05172211 -0.1326398 -0.0307418
v 0.02609283 -0.2857159 -0.0676475
v 0.06721954 -0.2986316 -0.05917851
v 0.05172211 -0.1326398 -0.0307418
v 0.01491119 -0.1193866 -0.03758631
v -0.002143249 -0.2792578 -0.02652056
v 0.02609283 -0.2857159 -0.0676475
v 0.01491119 -0.1193866 -0.03758631
v -0.01022186 -0.1117895 -0.001038687
v -0.002143249 -0.2792578 -0.02652056
v -0.01022186 -0.1117895 -0.001038687
v 0.01472198 -0.1179407 0.03491056
v 0.02609283 -0.2857159 0.01460638
v 0.02609283 -0.2857159 0.01460638
v 0.01472198 -0.1179407 0.03491056
v 0.05155182 -0.1315585 0.02710198
v 0.06721954 -0.2986316 0.006137392
v -0.02034393 0.5706344 0.001040203
v 0.007857361 0.5675491 0.006284683
v -0.01007111 0.6009997 0.02860283
v -0.02034393 0.4986929 0.05616545
v -0.01007111 0.6009997 0.02860283
v 0.007857361 0.5675491 0.05092097
v -0.01007111 0.6009997 0.02860283
v 0.01725738 0.5664032 0.02860283
v 0.007857361 0.5675491 0.05092097
v -0.01007111 0.6009997 0.02860283
v 0.007857361 0.5675491 0.006284683
v 0.01725738 0.5664032 0.02860283
v -0.03919586 0.5455389 0.02860283
v -0.02034393 0.5706344 0.001040203
v -0.01007111 0.6009997 0.02860283
v -0.02034393 0.4986929 0.05616545
v -0.03919586 0.5455389 0.02860283
v -0.01007111 0.6009997 0.02860283
vt 0.1449286 0.8137239
vt 0.150204 0.8142771
vt 0.1508276 0.8213889
vt 0.1460499 0.8207303
vt 0.150204 0.8142771
vt 0.1607548 0.8153834
vt 0.1601901 0.8225825
vt 0.1508276 0.8213889
vt 0.1607548 0.8153834
vt 0.1660303 0.8159366
vt 0.1647781 0.8231149
vt 0.1601901 0.8225825
vt 0.150204 0.8142771
vt 0.1449286 0.8137239
vt 0.1554795 0.811572
vt 0.1607548 0.8153834
vt 0.150204 0.8142771
vt 0.1554795 0.811572
vt 0.1660303 0.8159366
vt 0.1607548 0.8153834
vt 0.1554795 0.811572
vt 0.1499427 0.85446
vt 0.1528244 0.853794
vt 0.1533437 0.871242
vt 0.1509249 0.8715382
vt 0.1536555 0.9141807
vt 0.1514601 0.9141483
vt 0.1586419 0.852632
vt 0.1615714 0.8521035
vt 0.1607026 0.8703406
vt 0.1582304 0.8706448
vt 0.1605165 0.9142348
vt 0.1581776 0.914229
vt 0.1528244 0.853794
vt 0.1586419 0.852632
vt 0.1582304 0.8706448
vt 0.1533437 0.871242
vt 0.1581776 0.914229
vt 0.1536555 0.9141807
vt 0.1449286 0.8137239
vt 0.1460499 0.8207303
vt 0.1508176 0.8212749
vt 0.150204 0.8142771
vt 0.150204 0.8142771
vt 0.1508176 0.8212749
vt 0.1601989 0.8224703
vt 0.1607548 0.8153834
vt 0.1607548 0.8153834
vt 0.1601989 0.8224703
vt 0.1647781 0.8231149
vt 0.1660303 0.8159366
vt 0.150204 0.8142771
vt 0.1554795 0.811572
vt 0.1449286 0.8137239
vt 0.1607548 0.8153834
vt 0.1554795 0.811572
vt 0.150204 0.8142771
vt 0.1660303 0.8159366
vt 0.1554795 0.811572
vt 0.1607548 0.8153834
vt 0.1499427 0.85446
vt 0.1509249 0.8715382
vt 0.1533437 0.871242
vt 0.1528282 0.8539207
vt 0.1509249 0.8715382
vt 0.1536555 0.9141807
vt 0.1514601 0.9141483
vt 0.1586398 0.8527269
vt 0.1582304 0.8706448
vt 0.1607026 0.8703406
vt 0.1615714 0.8521035
vt 0.1605165 0.9142348
vt 0.1581776 0.914229
vt 0.1528282 0.8539207
vt 0.1533437 0.871242
vt 0.1582304 0.8706448
vt 0.1586398 0.8527269
vt 0.1581776 0.914229
vt 0.1536555 0.9141807
vt 0.8089664 0.6404294
vt 0.8156939 0.6861553
vt 0.8248849 0.6832688
vt 0.8223987 0.643477
vt 0.7997712 0.6390413
vt 0.8093836 0.6875985
vt 0.8156939 0.6861553
vt 0.8089664 0.6404294
vt 0.809029 0.6407201
vt 0.8156939 0.6861553
vt 0.8093836 0.6875985
vt 0.7997712 0.6390413
vt 0.8224392 0.6437629
vt 0.8248849 0.6832688
vt 0.8156939 0.6861553
vt 0.809029 0.6407201
vt 0.8266548 0.6451201
vt 0.8277656 0.6818255
vt 0.8248849 0.6832688
vt 0.8224392 0.6437629
vt 0.8223987 0.643477
vt 0.8248849 0.6832688
vt 0.8277656 0.6818255
vt 0.8266548 0.6451201
vt 0.8248849 0.6832688
vt 0.8213835 0.7206067
vt 0.8240263 0.7190175
vt 0.8277656 0.6818255
vt 0.8248849 0.6832688
vt 0.8277656 0.6818255
vt 0.8240263 0.7190175
vt 0.8214216 0.7203651
vt 0.8156939 0.6861553
vt 0.8248849 0.6832688
vt 0.8214216 0.7203651
vt 0.813195 0.723327
vt 0.8093836 0.6875985
vt 0.8156939 0.6861553
vt 0.813195 0.723327
vt 0.8075781 0.7250248
vt 0.8093836 0.6875985
vt 0.8075781 0.7250248
vt 0.8131527 0.7236501
vt 0.8156939 0.6861553
vt 0.8156939 0.6861553
vt 0.8131527 0.7236501
vt 0.8213835 0.7206067
vt 0.8248849 0.6832688
vt 0.1536555 0.9141807
vt 0.1581776 0.914229
vt 0.1559165 0.9142048
vt 0.1536555 0.9141807
vt 0.1559165 0.9142048
vt 0.1581776 0.914229
vt 0.1559165 0.9142048
vt 0.1605165 0.9142348
vt 0.1581776 0.914229
vt 0.1559165 0.9142048
vt 0.1581776 0.914229
vt 0.1605165 0.9142348
vt 0.1514601 0.9141483
vt 0.1536555 0.9141807
vt 0.1559165 0.9142048
vt 0.1536555 0.9141807
vt 0.1514601 0.9141483
vt 0.1559165 0.9142048
vn -0.7529505 0.0785964 -0.6533667
vn -0.7529505 0.07859641 -0.6533667
vn -0.7975212 0.2980877 -0.5245033
vn -0.7975212 0.2980877 -0.5245032
vn 0.2012791 0.07836986 -0.9763938
vn 0.2012791 0.07836986 -0.9763938
vn 0.2173315 -0.105554 -0.9703738
vn 0.2173314 -0.105554 -0.9703738
vn 0.9496675 0.08158941 -0.3024483
vn 0.9496673 0.0815894 -0.3024484
vn 0.895723 -0.2943811 -0.3331967
vn 0.895723 -0.2943811 -0.3331967
vn -0.2650306 -0.9011842 -0.3429663
vn -0.2650306 -0.9011842 -0.3429663
vn -0.2650307 -0.9011842 -0.3429663
vn 0.2595103 -0.8367854 -0.4821251
vn 0.2595103 -0.8367854 -0.4821251
vn 0.2595103 -0.8367854 -0.4821251
vn 0.6141905 -0.7795166 -0.1229788
vn 0.6141905 -0.7795166 -0.1229789
vn 0.6141905 -0.7795166 -0.1229788
vn -0.8267453 -0.05207031 -0.5601615
vn -0.8267453 -0.05207031 -0.5601615
vn -0.7584417 0.02790926 -0.651143
vn -0.7584417 0.02790926 -0.651143
vn -0.8255777 0.005927574 -0.5642573
vn -0.8255777 0.005927576 -0.5642573
vn 0.9127448 0.2460558 -0.3261189
vn 0.9127448 0.2460558 -0.3261189
vn 0.9545723 0.02329352 -0.297068
vn 0.9545723 0.02329352 -0.2970679
vn 0.9243339 0.002602852 -0.3815758
vn 0.9243339 0.002602852 -0.3815758
vn 0.2452006 0.2147397 -0.9453908
vn 0.2452006 0.2147397 -0.9453908
vn 0.2057225 0.02652035 -0.978251
vn 0.2057225 0.02652035 -0.978251
vn 0.1898059 0.004327166 -0.9818121
vn 0.1898059 0.004327166 -0.9818121
vn -0.7529505 0.0785964 0.6533667
vn -0.771821 0.3910395 0.5013785
vn -0.7718211 0.3910394 0.5013784
vn -0.7529505 0.07859641 0.6533667
vn 0.2012791 0.07836986 0.9763938
vn 0.1867183 0.1155322 0.9755965
vn 0.1867183 0.1155322 0.9755965
vn 0.2012791 0.07836986 0.9763938
vn 0.9496675 0.08158941 0.3024483
vn 0.9124091 -0.2215049 0.3441586
vn 0.9124091 -0.2215049 0.3441586
vn 0.9496673 0.0815894 0.3024484
vn -0.2650306 -0.9011842 0.3429663
vn -0.2650307 -0.9011842 0.3429663
vn -0.2650306 -0.9011842 0.3429663
vn 0.2595103 -0.8367854 0.4821251
vn 0.2595103 -0.8367854 0.4821251
vn 0.2595103 -0.8367854 0.4821251
vn 0.6141905 -0.7795166 0.1229788
vn 0.6141905 -0.7795166 0.1229788
vn 0.6141905 -0.7795166 0.1229789
vn -0.8173633 -0.2167314 0.5338022
vn -0.7584417 0.02790926 0.651143
vn -0.7584417 0.02790926 0.651143
vn -0.8173633 -0.2167314 0.5338022
vn -0.7652395 0.006052028 0.6437172
vn -0.8219298 0.00640643 0.5695528
vn -0.8219298 0.00640643 0.5695527
vn 0.9261421 0.1498927 0.3461112
vn 0.9545723 0.02329352 0.2970679
vn 0.9545723 0.02329352 0.297068
vn 0.9261421 0.1498927 0.3461112
vn 0.9243339 0.002601995 0.3815757
vn 0.924334 0.002601995 0.3815757
vn 0.1758733 -0.08612612 0.980638
vn 0.2057225 0.02652035 0.978251
vn 0.2057225 0.02652035 0.978251
vn 0.1758733 -0.08612613 0.980638
vn 0.18434 0.004677488 0.9828514
vn 0.18434 0.004677488 0.9828514
vn 0.2098001 0.1567805 0.9650926
vn 0.2012791 0.07836986 0.9763938
vn 0.2012791 0.07836986 0.9763938
vn 0.2098001 0.1567805 0.9650926
vn -0.7989775 0.2176466 0.5605933
vn -0.7529505 0.07859639 0.6533667
vn -0.7529505 0.0785964 0.6533667
vn -0.7989775 0.2176466 0.5605933
vn -0.8155445 0.1068564 -0.5687432
vn -0.7529505 0.0785964 -0.6533667
vn -0.7529505 0.07859639 -0.6533667
vn -0.8155445 0.1068564 -0.5687432
vn 0.1963622 -0.05013837 -0.9792488
vn 0.2012791 0.07836986 -0.9763938
vn 0.2012791 0.07836986 -0.9763938
vn 0.1963622 -0.05013837 -0.9792488
vn 0.9228943 -0.07284496 -0.3781001
vn 0.9496675 0.08158942 -0.3024484
vn 0.9496675 0.08158941 -0.3024483
vn 0.9228943 -0.07284496 -0.3781001
vn 0.9265152 0.01413681 0.3759919
vn 0.9496675 0.08158941 0.3024483
vn 0.9496675 0.08158942 0.3024484
vn 0.9265152 0.01413681 0.375992
vn 0.9545723 0.02329352 0.2970679
vn 0.9307458 0.04088362 0.3633742
vn 0.9307458 0.04088362 0.3633743
vn 0.9545723 0.02329352 0.2970679
vn 0.9545723 0.02329352 -0.2970679
vn 0.9545723 0.02329352 -0.2970679
vn 0.9285479 0.1444814 -0.3419411
vn 0.9285479 0.1444814 -0.3419411
vn 0.2057225 0.02652035 -0.978251
vn 0.2057225 0.02652035 -0.978251
vn 0.2495565 0.1872731 -0.9500791
vn 0.2495565 0.1872731 -0.9500791
vn -0.7584417 0.02790926 -0.651143
vn -0.7584417 0.02790926 -0.651143
vn -0.8191967 0.0478339 -0.5715143
vn -0.8191967 0.0478339 -0.5715143
vn -0.7584417 0.02790926 0.651143
vn -0.8261348 -0.1230256 0.5498783
vn -0.8261348 -0.1230256 0.5498782
vn -0.7584417 0.02790926 0.651143
vn 0.2057225 0.02652035 0.978251
vn 0.1681254 -0.107194 0.9799201
vn 0.1681254 -0.107194 0.9799201
vn 0.2057225 0.02652035 0.978251
vn 0.208594 0.6176867 -0.7582557
vn 0.208594 0.6176867 -0.7582557
vn 0.208594 0.6176867 -0.7582557
vn -0.5101931 0.271112 0.8162115
vn -0.5101932 0.2711121 0.8162115
vn -0.5101932 0.271112 0.8162115
vn 0.7518726 0.5939575 0.2861856
vn 0.7518726 0.5939574 0.2861855
vn 0.7518726 0.5939575 0.2861856
vn 0.7518726 0.5939574 -0.2861856
vn 0.7518726 0.5939574 -0.2861855
vn 0.7518726 0.5939574 -0.2861855
vn -0.8709942 0.4574112 -0.1792879
vn -0.8709942 0.4574112 -0.1792879
vn -0.8709942 0.4574112 -0.1792879
vn -0.5156283 0.2707873 0.8128971
vn -0.5156283 0.2707873 0.8128971
vn -0.5156284 0.2707873 0.8128971
g witchBroom_break02_0
f 3/3/3 2/2/2 1/1/1
f 4/4/4 3/3/3 1/1/1
f 7/7/7 6/6/6 5/5/5
f 8/8/8 7/7/7 5/5/5
f 11/11/11 10/10/10 9/9/9
f 12/12/12 11/11/11 9/9/9
f 15/15/15 14/14/14 13/13/13
f 18/18/18 17/17/17 16/16/16
f 21/21/21 20/20/20 19/19/19
f 24/24/24 23/23/23 22/22/22
f 25/25/25 24/24/24 22/22/22
f 26/26/26 24/24/24 25/25/25
f 27/27/27 26/26/26 25/25/25
f 30/30/30 29/29/29 28/28/28
f 31/31/31 30/30/30 28/28/28
f 32/32/32 30/30/30 31/31/31
f 33/33/33 32/32/32 31/31/31
f 36/36/36 35/35/35 34/34/34
f 37/37/37 36/36/36 34/34/34
f 38/38/38 36/36/36 37/37/37
f 39/39/39 38/38/38 37/37/37
f 42/42/42 41/41/41 40/40/40
f 43/43/43 42/42/42 40/40/40
f 46/46/46 45/45/45 44/44/44
f 47/47/47 46/46/46 44/44/44
f 50/50/50 49/49/49 48/48/48
f 51/51/51 50/50/50 48/48/48
f 54/54/54 53/53/53 52/52/52
f 57/57/57 56/56/56 55/55/55
f 60/60/60 59/59/59 58/58/58
f 63/63/63 62/62/62 61/61/61
f 64/64/64 63/63/63 61/61/61
f 63/63/63 66/66/66 65/65/65
f 66/66/66 67/67/67 65/65/65
f 70/70/70 69/69/69 68/68/68
f 71/71/71 70/70/70 68/68/68
f 70/70/70 72/72/72 69/69/69
f 72/72/72 73/73/73 69/69/69
f 76/76/76 75/75/75 74/74/74
f 77/77/77 76/76/76 74/74/74
f 76/76/76 78/78/78 75/75/75
f 78/78/78 79/79/79 75/75/75
f 82/82/82 81/81/81 80/80/80
f 83/83/83 82/82/82 80/80/80
f 86/86/86 85/85/85 84/84/84
f 87/87/87 86/86/86 84/84/84
f 90/90/90 89/89/89 88/88/88
f 91/91/91 90/90/90 88/88/88
f 94/94/94 93/93/93 92/92/92
f 95/95/95 94/94/94 92/92/92
f 98/98/98 97/97/97 96/96/96
f 99/99/99 98/98/98 96/96/96
f 102/102/102 101/101/101 100/100/100
f 103/103/103 102/102/102 100/100/100
f 106/106/106 105/105/105 104/104/104
f 107/107/107 106/106/106 104/104/104
f 110/110/110 109/109/109 108/108/108
f 111/111/111 110/110/110 108/108/108
f 114/114/114 113/113/113 112/112/112
f 115/115/115 114/114/114 112/112/112
f 118/118/118 117/117/117 116/116/116
f 119/119/119 118/118/118 116/116/116
f 122/122/122 121/121/121 120/120/120
f 123/123/123 122/122/122 120/120/120
f 126/126/126 125/125/125 124/124/124
f 127/127/127 126/126/126 124/124/124
f 130/130/130 129/129/129 128/128/128
f 133/133/133 132/132/132 131/131/131
f 136/136/136 135/135/135 134/134/134
f 139/139/139 138/138/138 137/137/137
f 142/142/142 141/141/141 140/140/140
f 145/145/145 144/144/144 143/143/143
