g woodAxe
v 0.01260268 0.3037145 -0.02616302
v -0.0176079 0.3037145 -0.02616302
v 0.01643568 -0.1072214 -0.03280261
v -0.0214409 -0.1072214 -0.03280262
v -0.01582262 0.5309619 -0.01980226
v 0.008314345 0.5309619 -0.01980226
v -0.02491502 -0.3883913 -0.03881942
v 0.01989699 -0.3804733 -0.03879793
v -0.02861864 -0.4759955 -0.04558492
v 0.0297798 -0.4680772 -0.04558492
v -0.0214409 -0.1072214 -0.03280262
v -0.0176079 0.3037145 -0.02616302
v -0.04038011 -0.1072214 8.917413E-09
v -0.03271288 0.3037145 9.071082E-09
v -0.02789171 0.5309619 -3.737877E-06
v -0.01582262 0.5309619 -0.01980226
v -0.04738389 -0.4078386 9.913928E-09
v -0.02491502 -0.3883913 -0.03881942
v -0.02861864 -0.4759955 -0.04558492
v -0.05473497 -0.4887207 1.14087E-08
v -0.04038011 -0.1072214 8.917413E-09
v -0.03271288 0.3037145 9.071082E-09
v -0.0214409 -0.1072214 0.03280262
v -0.0176079 0.3037145 0.02616303
v -0.01582262 0.5309619 0.0197948
v -0.02789171 0.5309619 -3.737877E-06
v -0.02494005 -0.4055397 0.03886224
v -0.04738389 -0.4078386 9.913928E-09
v -0.02245104 -0.4931444 0.04558492
v -0.05473497 -0.4887207 1.14087E-08
v -0.0214409 -0.1072214 0.03280262
v -0.0176079 0.3037145 0.02616303
v 0.01643568 -0.1072214 0.03280264
v 0.01260268 0.3037145 0.02616303
v 0.008314345 0.5309619 0.0197948
v -0.01582262 0.5309619 0.0197948
v 0.01991591 -0.3923918 0.03882985
v -0.02494005 -0.4055397 0.03886224
v 0.02361342 -0.4735902 0.04558492
v -0.02245104 -0.4931444 0.04558492
v 0.01643568 -0.1072214 0.03280264
v 0.01260268 0.3037145 0.02616303
v 0.03537367 -0.1072214 8.917413E-09
v 0.02770704 0.3037145 9.071082E-09
v 0.02038222 0.5309619 -3.732382E-06
v 0.008314345 0.5309619 0.0197948
v 0.04231642 -0.3867726 9.913928E-09
v 0.01991591 -0.3923918 0.03882985
v 0.04972853 -0.4679709 1.14087E-08
v 0.02361342 -0.4735902 0.04558492
v 0.03537367 -0.1072214 8.917413E-09
v 0.02770704 0.3037145 9.071082E-09
v 0.01643568 -0.1072214 -0.03280261
v 0.01260268 0.3037145 -0.02616302
v 0.008314345 0.5309619 -0.01980226
v 0.02038222 0.5309619 -3.732382E-06
v 0.01989699 -0.3804733 -0.03879793
v 0.04231642 -0.3867726 9.913928E-09
v 0.0297798 -0.4680772 -0.04558492
v 0.04972853 -0.4679709 1.14087E-08
v 0.02361342 -0.4735902 0.04558492
v 0.04972853 -0.4679709 1.14087E-08
v 0.007929213 -0.4920398 -0.0001025896
v 0.0297798 -0.4680772 -0.04558492
v -0.02861864 -0.4759955 -0.04558492
v -0.05473497 -0.4887207 1.14087E-08
v -0.02245104 -0.4931444 0.04558492
v 0.02361342 -0.4735902 0.04558492
v -0.05473497 -0.4887207 1.14087E-08
v -0.04310716 0.5095561 0.02748216
v -0.04310716 0.6201906 0.02506685
v 0.05573805 0.663462 0.02506685
v 0.05573805 0.5095561 0.02748216
v 0.05573805 0.7970079 0.02506685
v -0.04310716 0.7992696 0.02506685
v 0.05573805 0.9093544 0.02132648
v -0.04310716 0.8958174 0.02506685
v 0.1180122 0.8024006 0.02016594
v 0.1259584 0.9273018 0.01817085
v 0.2762153 0.815212 0.01179846
v 0.2064223 0.9702693 0.008457869
v 0.09978285 0.663462 0.02053889
v 0.05573805 0.663462 0.02506685
v 0.05573805 0.7970079 0.02506685
v 0.270666 0.67291 0.01349894
v 0.2465358 0.5552456 0.01681689
v 0.09978285 0.663462 0.02053889
v 0.09978285 0.5611861 0.01817085
v -0.04310716 0.8958174 0.02506685
v -0.04310716 0.8958174 -0.02517495
v 0.05573805 0.9093544 -0.02143459
v 0.05573805 0.9093544 0.02132648
v -0.04310716 0.6201906 -0.02517495
v -0.04310716 0.5095561 -0.02759027
v 0.05573805 0.5095561 -0.02759027
v 0.05573805 0.663462 -0.02517495
v -0.04310716 0.7992696 -0.02517495
v 0.05573805 0.7970079 -0.02517495
v -0.04310716 0.8958174 -0.02517495
v 0.05573805 0.9093544 -0.02143459
v 0.1259584 0.9273018 -0.01827896
v 0.1180122 0.8024006 -0.02027404
v 0.2064223 0.9702693 -0.008565973
v 0.2762153 0.815212 -0.01190657
v 0.09978285 0.663462 -0.02064699
v 0.270666 0.67291 -0.01360704
v 0.05573805 0.663462 -0.02517495
v 0.05573805 0.7970079 -0.02517495
v 0.2465358 0.5552456 -0.01692499
v 0.09978285 0.5611861 -0.01827896
v -0.04310716 0.5095561 -0.02759027
v -0.04310716 0.5095561 0.02748216
v 0.05573805 0.5095561 0.02748216
v 0.05573805 0.5095561 -0.02759027
v 0.05573805 0.5095561 0.02748216
v 0.05573805 0.663462 0.02506685
v 0.05573805 0.663462 -0.02517495
v 0.05573805 0.5095561 -0.02759027
v -0.04310716 0.5095561 -0.02759027
v -0.04310716 0.6201906 -0.02517495
v -0.04310716 0.6201906 0.02506685
v -0.04310716 0.5095561 0.02748216
v -0.04310716 0.7992696 -0.02517495
v -0.04310716 0.8958174 -0.02517495
v -0.04310716 0.8958174 0.02506685
v -0.04310716 0.7992696 0.02506685
v 0.05573805 0.663462 0.02506685
v 0.09978285 0.663462 0.02053889
v 0.09978285 0.663462 -0.02064699
v 0.05573805 0.663462 -0.02517495
v 0.05573805 0.9093544 -0.02143459
v 0.1259584 0.9273018 -0.01827896
v 0.1259584 0.9273018 0.01817085
v 0.05573805 0.9093544 0.02132648
v 0.09978285 0.4514474 0.01817085
v 0.1867451 0.4277836 0.007432539
v 0.1867451 0.4277836 -0.007540643
v 0.09978285 0.4514474 -0.01827896
v 0.1259584 0.9273018 -0.01827896
v 0.2064223 0.9702693 -0.008565973
v 0.2064223 0.9702693 0.008457869
v 0.1259584 0.9273018 0.01817085
v 0.09978285 0.5611861 0.01817085
v 0.09978285 0.4514474 0.01817085
v 0.09978285 0.4514474 -0.01827896
v 0.09978285 0.5611861 -0.01827896
v 0.09978285 0.5611861 -0.01827896
v 0.09978285 0.4514474 -0.01827896
v 0.1867451 0.4277836 -0.007540643
v 0.2465358 0.5552456 -0.01692499
v 0.2465358 0.5552456 0.01681689
v 0.1867451 0.4277836 0.007432539
v 0.09978285 0.4514474 0.01817085
v 0.09978285 0.5611861 0.01817085
v -0.06949388 0.6256227 -0.01733317
v -0.06949388 0.7938374 -0.01733317
v -0.06949388 0.7938374 0.01722507
v -0.06949388 0.6256227 0.01722507
v 0.09978285 0.663462 0.02053889
v 0.09978285 0.5611861 0.01817085
v 0.09978285 0.5611861 -0.01827896
v 0.09978285 0.663462 -0.02064699
v -0.04310716 0.6201906 -0.02517495
v -0.06949388 0.6256227 -0.01733317
v -0.06949388 0.6256227 0.01722507
v -0.04310716 0.6201906 0.02506685
v -0.04310716 0.6201906 0.02506685
v -0.06949388 0.6256227 0.01722507
v -0.06949388 0.7938374 0.01722507
v -0.04310716 0.7992696 0.02506685
v -0.04310716 0.7992696 0.02506685
v -0.06949388 0.7938374 0.01722507
v -0.06949388 0.7938374 -0.01733317
v -0.04310716 0.7992696 -0.02517495
v -0.04310716 0.7992696 -0.02517495
v -0.06949388 0.7938374 -0.01733317
v -0.06949388 0.6256227 -0.01733317
v -0.04310716 0.6201906 -0.02517495
v 0.3295247 0.8270143 -5.405188E-05
v 0.33381 0.6754298 -5.405188E-05
v 0.270666 0.67291 0.01349894
v 0.2762153 0.815212 0.01179846
v 0.3245778 0.5711879 -5.405188E-05
v 0.2465358 0.5552456 0.01681689
v 0.2730928 0.5498097 0.00925211
v 0.2064223 0.9702693 0.008457869
v 0.2473073 1.009056 -5.405188E-05
v 0.3295247 0.8270143 -5.405188E-05
v 0.2762153 0.815212 0.01179846
v 0.2064223 0.9702693 -0.008565973
v 0.2473073 1.009056 -5.405188E-05
v 0.2064223 0.9702693 0.008457869
v 0.2762153 0.815212 -0.01190657
v 0.3295247 0.8270143 -5.405188E-05
v 0.2473073 1.009056 -5.405188E-05
v 0.2064223 0.9702693 -0.008565973
v 0.270666 0.67291 -0.01360704
v 0.33381 0.6754298 -5.405188E-05
v 0.3295247 0.8270143 -5.405188E-05
v 0.2762153 0.815212 -0.01190657
v 0.3245778 0.5711879 -5.405188E-05
v 0.2465358 0.5552456 -0.01692499
v 0.2730928 0.5498097 -0.009360215
v 0.2730928 0.5498097 -0.009360215
v 0.2730928 0.5498097 0.00925211
v 0.3245778 0.5711879 -5.405188E-05
v 0.1867451 0.4277836 0.007432539
v 0.2560939 0.3961005 -5.405188E-05
v 0.1867451 0.4277836 -0.007540643
v 0.3098121 0.5181154 -5.405188E-05
v 0.2560939 0.3961005 -5.405188E-05
v 0.1867451 0.4277836 0.007432539
v 0.1867451 0.4277836 -0.007540643
v 0.3098121 0.5181154 -5.405188E-05
v 0.2730928 0.5498097 -0.009360215
v 0.2465358 0.5552456 -0.01692499
v 0.3098121 0.5181154 -5.405188E-05
v 0.1867451 0.4277836 0.007432539
v 0.2465358 0.5552456 0.01681689
v 0.2730928 0.5498097 0.00925211
v 0.1867451 0.4277836 -0.007540643
v 0.2560939 0.3961005 -5.405188E-05
v 0.3098121 0.5181154 -5.405188E-05
v 0.2730928 0.5498097 -0.009360215
v 0.3098121 0.5181154 -5.405188E-05
v 0.2730928 0.5498097 0.00925211
vt 0.1690549 0.4229233
vt 0.1630708 0.4229233
vt 0.1698142 0.3479658
vt 0.1623115 0.3479658
vt 0.1626936 0.465408
vt 0.1678304 0.465408
vt 0.1616234 0.306401
vt 0.1704999 0.3079694
vt 0.1608899 0.2890482
vt 0.171236 0.2906167
vt 0.1623115 0.3479658
vt 0.1630708 0.4229233
vt 0.1585602 0.3479658
vt 0.1600788 0.4229233
vt 0.1601251 0.465408
vt 0.1626936 0.465408
vt 0.1571729 0.3025489
vt 0.1616234 0.306401
vt 0.1608899 0.2890482
vt 0.1557167 0.285196
vt 0.1585602 0.3479658
vt 0.1600788 0.4229233
vt 0.1623115 0.3479658
vt 0.1630708 0.4229233
vt 0.1626936 0.465408
vt 0.1601251 0.465408
vt 0.1616186 0.3030042
vt 0.1571729 0.3025489
vt 0.1608899 0.2856514
vt 0.1557167 0.285196
vt 0.1623115 0.3479658
vt 0.1630708 0.4229233
vt 0.1698142 0.3479658
vt 0.1690549 0.4229233
vt 0.1678303 0.465408
vt 0.1626936 0.465408
vt 0.1705036 0.3056085
vt 0.1616186 0.3030042
vt 0.171236 0.2882558
vt 0.1608899 0.2856514
vt 0.1698142 0.3479658
vt 0.1690549 0.4229233
vt 0.1735654 0.3479658
vt 0.172047 0.4229233
vt 0.1703987 0.465408
vt 0.1678303 0.465408
vt 0.1749406 0.3067216
vt 0.1705036 0.3056085
vt 0.1764089 0.2893688
vt 0.171236 0.2882558
vt 0.1735654 0.3479658
vt 0.172047 0.4229233
vt 0.1698142 0.3479658
vt 0.1690549 0.4229233
vt 0.1678304 0.465408
vt 0.1703987 0.465408
vt 0.1704999 0.3079694
vt 0.1749406 0.3067216
vt 0.171236 0.2906167
vt 0.1764089 0.2893688
vt 0.171236 0.2882558
vt 0.1764089 0.2893688
vt 0.1660628 0.2872824
vt 0.171236 0.2906167
vt 0.1608899 0.2890482
vt 0.1557167 0.285196
vt 0.1608899 0.2856514
vt 0.171236 0.2882558
vt 0.1557167 0.285196
vt 0.3418424 0.5781103
vt 0.3418424 0.6072359
vt 0.3678644 0.6186275
vt 0.3678644 0.5781103
vt 0.3678644 0.6537848
vt 0.3418424 0.6543802
vt 0.3678644 0.6833611
vt 0.3418424 0.6797973
vt 0.3868688 0.6552044
vt 0.3863506 0.6880859
vt 0.4259071 0.6585772
vt 0.4075335 0.6993974
vt 0.3794596 0.6186275
vt 0.3678644 0.6186275
vt 0.3678644 0.6537848
vt 0.424446 0.6211149
vt 0.4180936 0.5901386
vt 0.3794596 0.6186275
vt 0.3794596 0.5917025
vt 0.3418424 0.6797973
vt 0.3418424 0.6797973
vt 0.3678644 0.6833611
vt 0.3678644 0.6833611
vt 0.3418424 0.6072359
vt 0.3418424 0.5781103
vt 0.3678644 0.5781103
vt 0.3678644 0.6186275
vt 0.3418424 0.6543802
vt 0.3678644 0.6537848
vt 0.3418424 0.6797973
vt 0.3678644 0.6833611
vt 0.3863506 0.6880859
vt 0.3868688 0.6552044
vt 0.4075335 0.6993974
vt 0.4259071 0.6585772
vt 0.3794596 0.6186275
vt 0.424446 0.6211149
vt 0.3678644 0.6186275
vt 0.3678644 0.6537848
vt 0.4180936 0.5901386
vt 0.3794596 0.5917025
vt 0.3418424 0.5781103
vt 0.3418424 0.5781103
vt 0.3678644 0.5781103
vt 0.3678644 0.5781103
vt 0.3678644 0.5781103
vt 0.3678644 0.6186275
vt 0.3678644 0.6186275
vt 0.3678644 0.5781103
vt 0.3418424 0.5781103
vt 0.3418424 0.6072359
vt 0.3418424 0.6072359
vt 0.3418424 0.5781103
vt 0.3418424 0.6543802
vt 0.3418424 0.6797973
vt 0.3418424 0.6797973
vt 0.3418424 0.6543802
vt 0.3678644 0.6186275
vt 0.3794596 0.6186275
vt 0.3794596 0.6186275
vt 0.3678644 0.6186275
vt 0.3678644 0.6833611
vt 0.3863506 0.6880859
vt 0.3863506 0.6880859
vt 0.3678644 0.6833611
vt 0.3794596 0.5628128
vt 0.4023533 0.556583
vt 0.4023533 0.556583
vt 0.3794596 0.5628128
vt 0.3863506 0.6880859
vt 0.4075335 0.6993974
vt 0.4075335 0.6993974
vt 0.3863506 0.6880859
vt 0.3794596 0.5917025
vt 0.3794596 0.5628128
vt 0.3794596 0.5628128
vt 0.3794596 0.5917025
vt 0.3794596 0.5917025
vt 0.3794596 0.5628128
vt 0.4023533 0.556583
vt 0.4180936 0.5901386
vt 0.4180936 0.5901386
vt 0.4023533 0.556583
vt 0.3794596 0.5628128
vt 0.3794596 0.5917025
vt 0.3348958 0.6086661
vt 0.3348958 0.6529502
vt 0.3348958 0.6529502
vt 0.3348958 0.6086661
vt 0.3794596 0.6186275
vt 0.3794596 0.5917025
vt 0.3794596 0.5917025
vt 0.3794596 0.6186275
vt 0.3418424 0.6072359
vt 0.3348958 0.6086661
vt 0.3348958 0.6086661
vt 0.3418424 0.6072359
vt 0.3418424 0.6072359
vt 0.3348958 0.6086661
vt 0.3348958 0.6529502
vt 0.3418424 0.6543802
vt 0.3418424 0.6543802
vt 0.3348958 0.6529502
vt 0.3348958 0.6529502
vt 0.3418424 0.6543802
vt 0.3418424 0.6543802
vt 0.3348958 0.6529502
vt 0.3348958 0.6086661
vt 0.3418424 0.6072359
vt 0.4220563 0.9176215
vt 0.4231185 0.8800457
vt 0.4074658 0.8794211
vt 0.4088416 0.9146959
vt 0.4217059 0.864095
vt 0.4014843 0.8502537
vt 0.4108889 0.849199
vt 0.3915409 0.9531324
vt 0.4016756 0.9627471
vt 0.4220563 0.9176215
vt 0.4088416 0.9146959
vt 0.3915409 0.9531324
vt 0.4016756 0.9627471
vt 0.3915409 0.9531324
vt 0.4088416 0.9146959
vt 0.4220563 0.9176215
vt 0.4016756 0.9627471
vt 0.3915409 0.9531324
vt 0.4074658 0.8794211
vt 0.4231185 0.8800457
vt 0.4220563 0.9176215
vt 0.4088416 0.9146959
vt 0.4217059 0.864095
vt 0.4014843 0.8502537
vt 0.4108889 0.849199
vt 0.4108889 0.849199
vt 0.4108889 0.849199
vt 0.4217059 0.864095
vt 0.3866632 0.8186575
vt 0.4038538 0.8108037
vt 0.3866632 0.8186575
vt 0.4120736 0.829474
vt 0.4038538 0.8108037
vt 0.3866632 0.8186575
vt 0.3866632 0.8186575
vt 0.4120736 0.829474
vt 0.4108889 0.849199
vt 0.4014843 0.8502537
vt 0.4120736 0.829474
vt 0.3866632 0.8186575
vt 0.4014843 0.8502537
vt 0.4108889 0.849199
vt 0.3866632 0.8186575
vt 0.4038538 0.8108037
vt 0.4120736 0.829474
vt 0.4108889 0.849199
vt 0.4120736 0.829474
vt 0.4108889 0.849199
vn 0 0.01615514 -0.9998695
vn 0 0.01615514 -0.9998695
vn 0 0.01615514 -0.9998695
vn 5.881249E-07 0.0161554 -0.9998695
vn 0 0.02797917 -0.9996086
vn 0 0.02797917 -0.9996086
vn -0.005124324 0.04035747 -0.9991722
vn -0.004322102 0.03582676 -0.9993487
vn -0.01156235 0.07670872 -0.9969864
vn -0.01156235 0.07670871 -0.9969864
vn -0.8659056 0.01615187 -0.4999465
vn -0.8659056 0.01615187 -0.4999465
vn -0.8659056 0.01615188 -0.4999465
vn -0.8659159 0.0161592 -0.4999286
vn -0.8536639 0.02127608 -0.5203896
vn -0.8536639 0.02127608 -0.5203896
vn -0.8715371 0.04176611 -0.4885475
vn -0.8696746 0.03046908 -0.4926842
vn -0.8764707 0.07659309 -0.4753236
vn -0.8764708 0.0765931 -0.4753236
vn -0.8659053 0.01615642 0.4999469
vn -0.8659053 0.01615642 0.4999469
vn -0.8659053 0.01615642 0.4999469
vn -0.8659162 0.01615527 0.4999281
vn -0.8537172 0.01811798 0.5204217
vn -0.8537172 0.01811798 0.5204218
vn -0.8591846 0.02675874 0.5109654
vn -0.8586121 0.02729083 0.5118987
vn -0.8377714 0.04589155 0.5440894
vn -0.8377713 0.04589155 0.5440894
vn -1.960417E-07 0.01615618 0.9998695
vn -1.960417E-07 0.01615619 0.9998695
vn -1.960416E-07 0.01615619 0.9998695
vn 0 0.01615416 0.9998695
vn 0 0.02801258 0.9996076
vn 0 0.02801258 0.9996076
vn -0.007633607 0.03166691 0.9994693
vn -0.01081985 0.0390408 0.9991791
vn -0.02789523 0.07854278 0.9965204
vn -0.02789523 0.07854277 0.9965204
vn 0.8659193 0.01615527 0.4999228
vn 0.8659193 0.01615527 0.4999228
vn 0.8659193 0.01615527 0.4999228
vn 0.865925 0.01615151 0.4999132
vn 0.8534783 0.03068683 0.5202242
vn 0.8534783 0.03068683 0.5202242
vn 0.8641753 0.03485623 0.5019823
vn 0.8638783 0.03842335 0.502233
vn 0.859616 0.07980419 0.5046699
vn 0.859616 0.07980419 0.5046699
vn 0.8659192 0.01615354 -0.4999229
vn 0.8659192 0.01615354 -0.499923
vn 0.8659192 0.01615354 -0.4999229
vn 0.865925 0.01615151 -0.4999132
vn 0.8535569 0.02750304 -0.5202732
vn 0.8535568 0.02750304 -0.5202733
vn 0.8731894 0.04179893 -0.4855854
vn 0.8751904 0.04818665 -0.4813728
vn 0.8915354 0.1090216 -0.4396349
vn 0.8915354 0.1090216 -0.4396349
vn 0.430328 -0.878601 0.2070704
vn 0.4988195 -0.8661535 -0.03093804
vn 0.221637 -0.9677145 -0.1200239
vn 0.2718557 -0.8990999 -0.3430942
vn 0.02772418 -0.9354838 -0.3522805
vn -0.05225093 -0.980681 -0.1885063
vn 0.1298549 -0.9895658 0.06242638
vn 0.430328 -0.878601 0.2070704
vn -0.05225093 -0.980681 -0.1885063
vn -0.003996249 0.01825726 0.9998254
vn -0.003996249 0.01825727 0.9998254
vn -0.003996249 0.01825726 0.9998254
vn -0.003996249 0.01825726 0.9998254
vn 0.01789329 0.01789963 0.9996797
vn 0.0178933 0.01789963 0.9996797
vn 0.0178933 0.01789963 0.9996797
vn 0.0178933 0.01789963 0.9996797
vn 0.05677763 0.02222832 0.9981394
vn 0.05677762 0.02222832 0.9981394
vn 0.06760693 0.03393927 0.9971346
vn 0.06760693 0.03393927 0.9971346
vn 0.08856685 -0.004562011 0.9960598
vn 0.08856685 -0.004562011 0.9960598
vn 0.08856685 -0.004562011 0.9960598
vn 0.04653587 0.00342989 0.9989107
vn 0.02640117 0.001420884 0.9996505
vn 0.02640117 0.001420884 0.9996505
vn 0.02640118 0.001420884 0.9996505
vn -0.1356851 0.990752 0
vn -0.1356851 0.990752 0
vn -0.1356851 0.990752 0
vn -0.1356851 0.990752 0
vn -0.003996236 0.01825727 -0.9998254
vn -0.003996235 0.01825726 -0.9998254
vn -0.003996235 0.01825726 -0.9998254
vn -0.003996235 0.01825726 -0.9998254
vn 0.01789328 0.01789963 -0.9996797
vn 0.01789328 0.01789963 -0.9996797
vn 0.01789328 0.01789963 -0.9996797
vn 0.01789328 0.01789963 -0.9996797
vn 0.05677763 0.02222793 -0.9981394
vn 0.05677762 0.02222793 -0.9981394
vn 0.06760712 0.03393937 -0.9971346
vn 0.06760712 0.03393937 -0.9971346
vn 0.04653583 0.003429821 -0.9989107
vn 0.04653583 0.003429821 -0.9989107
vn 0.08856688 -0.004562146 -0.9960598
vn 0.08856688 -0.004562146 -0.9960598
vn 0.02640117 0.001420841 -0.9996505
vn 0.02640118 0.001420841 -0.9996505
vn 0 -1 0
vn 0 -1 0
vn 0 -1 0
vn 0 -1 0
vn 1 3.577349E-06 0
vn 1 3.577348E-06 0
vn 1 3.577348E-06 0
vn 1 3.577349E-06 0
vn -1 -2.619224E-07 0
vn -1 -2.619224E-07 0
vn -1 -2.619224E-07 0
vn -1 -2.619224E-07 0
vn -1 0 0
vn -1 0 0
vn -1 0 0
vn -1 0 0
vn 0 -1 0
vn 0 -1 0
vn 0 -1 0
vn 0 -1 0
vn -0.247626 0.9688557 0
vn -0.2476259 0.9688557 0
vn -0.2476259 0.9688557 0
vn -0.247626 0.9688557 0
vn -0.2625645 -0.9649144 0
vn -0.2625645 -0.9649144 0
vn -0.2625645 -0.9649144 0
vn -0.2625645 -0.9649144 0
vn -0.4710413 0.8821111 0
vn -0.4710412 0.8821111 0
vn -0.4710412 0.8821111 0
vn -0.4710413 0.8821111 0
vn -1 0 0
vn -1 0 0
vn -1 0 0
vn -1 0 0
vn 0.04517733 -0.05085886 -0.9976835
vn 0.04517733 -0.05085886 -0.9976835
vn 0.04517733 -0.05085886 -0.9976835
vn 0.04517733 -0.05085887 -0.9976835
vn 0.04517732 -0.05085886 0.9976835
vn 0.04517732 -0.05085886 0.9976835
vn 0.04517732 -0.05085886 0.9976835
vn 0.04517732 -0.05085886 0.9976835
vn -1 0 0
vn -1 0 0
vn -1 0 0
vn -1 0 0
vn -1 1.921698E-06 0
vn -1 1.921697E-06 0
vn -1 1.921697E-06 0
vn -1 1.921698E-06 0
vn -0.2016342 -0.979461 0
vn -0.2016342 -0.9794608 0
vn -0.2016342 -0.9794608 0
vn -0.2016342 -0.979461 0
vn -0.2848727 0 0.9585654
vn -0.2848727 0 0.9585654
vn -0.2848727 0 0.9585654
vn -0.2848727 0 0.9585654
vn -0.2016342 0.979461 0
vn -0.2016342 0.9794608 0
vn -0.2016342 0.9794608 0
vn -0.2016342 0.979461 0
vn -0.2848727 0 -0.9585654
vn -0.2848727 0 -0.9585654
vn -0.2848727 0 -0.9585654
vn -0.2848727 0 -0.9585654
vn 0.2125888 0.004738247 0.9771303
vn 0.2125888 0.004738246 0.9771303
vn 0.2125888 0.004738247 0.9771303
vn 0.2125888 0.004738246 0.9771303
vn 0.2105316 -0.01864184 0.9774094
vn 0.2169368 -0.02938563 0.9757432
vn 0.2169368 -0.02938563 0.9757432
vn 0.1667615 0.08493324 0.9823324
vn 0.1667615 0.08493324 0.9823324
vn 0.1667615 0.08493325 0.9823324
vn 0.1667615 0.08493324 0.9823324
vn -0.688244 0.7254792 0
vn -0.688244 0.7254792 0
vn -0.688244 0.7254792 0
vn 0.1667613 0.08493375 -0.9823324
vn 0.1667613 0.08493375 -0.9823324
vn 0.1667613 0.08493375 -0.9823324
vn 0.1667612 0.08493374 -0.9823324
vn 0.2125888 0.004738245 -0.9771303
vn 0.2125888 0.004738246 -0.9771303
vn 0.2125888 0.004738246 -0.9771303
vn 0.2125888 0.004738245 -0.9771303
vn 0.2105315 -0.01864184 -0.9774094
vn 0.2169368 -0.02938563 -0.9757432
vn 0.2169368 -0.02938563 -0.9757432
vn 0.3834783 -0.9235498 0
vn 0.3834783 -0.9235498 0
vn 0.3834784 -0.9235498 0
vn -0.4155502 -0.9095702 0
vn -0.4155502 -0.9095702 0
vn -0.4155502 -0.9095702 0
vn 0.08944714 -0.0393806 0.9952127
vn 0.08944713 -0.03938059 0.9952127
vn 0.08944714 -0.03938059 0.9952127
vn 0.1774931 -0.1401219 -0.9740956
vn 0.1774931 -0.1401219 -0.9740956
vn 0.1774931 -0.1401219 -0.9740956
vn 0.1774931 -0.1401219 -0.9740956
vn 0.1774939 -0.1401225 0.9740953
vn 0.1774939 -0.1401225 0.9740953
vn 0.1774938 -0.1401225 0.9740953
vn 0.1774939 -0.1401225 0.9740953
vn 0.08944714 -0.03938059 -0.9952127
vn 0.08944713 -0.03938059 -0.9952127
vn 0.08944714 -0.0393806 -0.9952127
vn 0.6534012 0.7570118 0
vn 0.6534012 0.7570118 0
vn 0.6534012 0.7570118 0
g woodAxe_0
f 3/3/3 2/2/2 1/1/1
f 3/3/3 4/4/4 2/2/2
f 1/1/1 2/2/2 5/5/5
f 1/1/1 5/5/5 6/6/6
f 7/7/7 4/4/4 3/3/3
f 8/8/8 7/7/7 3/3/3
f 9/9/9 7/7/7 8/8/8
f 10/10/10 9/9/9 8/8/8
f 13/13/13 12/12/12 11/11/11
f 13/13/13 14/14/14 12/12/12
f 12/12/12 14/14/14 15/15/15
f 12/12/12 15/15/15 16/16/16
f 17/17/17 13/13/13 11/11/11
f 18/18/18 17/17/17 11/11/11
f 18/18/18 19/19/19 17/17/17
f 19/19/19 20/20/20 17/17/17
f 23/23/23 22/22/22 21/21/21
f 23/23/23 24/24/24 22/22/22
f 22/22/22 24/24/24 25/25/25
f 22/22/22 25/25/25 26/26/26
f 27/27/27 23/23/23 21/21/21
f 28/28/28 27/27/27 21/21/21
f 29/29/29 27/27/27 28/28/28
f 30/30/30 29/29/29 28/28/28
f 33/33/33 32/32/32 31/31/31
f 33/33/33 34/34/34 32/32/32
f 32/32/32 34/34/34 35/35/35
f 32/32/32 35/35/35 36/36/36
f 37/37/37 33/33/33 31/31/31
f 38/38/38 37/37/37 31/31/31
f 39/39/39 37/37/37 38/38/38
f 40/40/40 39/39/39 38/38/38
f 43/43/43 42/42/42 41/41/41
f 43/43/43 44/44/44 42/42/42
f 42/42/42 44/44/44 45/45/45
f 42/42/42 45/45/45 46/46/46
f 47/47/47 43/43/43 41/41/41
f 48/48/48 47/47/47 41/41/41
f 49/49/49 47/47/47 48/48/48
f 50/50/50 49/49/49 48/48/48
f 53/53/53 52/52/52 51/51/51
f 53/53/53 54/54/54 52/52/52
f 52/52/52 54/54/54 55/55/55
f 52/52/52 55/55/55 56/56/56
f 57/57/57 53/53/53 51/51/51
f 58/58/58 57/57/57 51/51/51
f 59/59/59 57/57/57 58/58/58
f 60/60/60 59/59/59 58/58/58
f 63/63/63 62/62/62 61/61/61
f 64/64/64 62/62/62 63/63/63
f 65/65/65 64/64/64 63/63/63
f 65/65/65 63/63/63 66/66/66
f 63/63/63 68/68/68 67/67/67
f 63/63/63 67/67/67 69/69/69
f 72/72/72 71/71/71 70/70/70
f 73/73/73 72/72/72 70/70/70
f 72/72/72 74/74/74 71/71/71
f 74/74/74 75/75/75 71/71/71
f 74/74/74 76/76/76 75/75/75
f 76/76/76 77/77/77 75/75/75
f 74/74/74 78/78/78 76/76/76
f 78/78/78 79/79/79 76/76/76
f 78/78/78 80/80/80 79/79/79
f 80/80/80 81/81/81 79/79/79
f 78/78/78 82/82/82 80/80/80
f 83/83/83 82/82/82 78/78/78
f 84/84/84 83/83/83 78/78/78
f 82/82/82 85/85/85 80/80/80
f 85/85/85 87/87/87 86/86/86
f 87/87/87 88/88/88 86/86/86
f 91/91/91 90/90/90 89/89/89
f 92/92/92 91/91/91 89/89/89
f 95/95/95 94/94/94 93/93/93
f 96/96/96 95/95/95 93/93/93
f 93/93/93 97/97/97 96/96/96
f 97/97/97 98/98/98 96/96/96
f 97/97/97 99/99/99 98/98/98
f 99/99/99 100/100/100 98/98/98
f 100/100/100 101/101/101 98/98/98
f 101/101/101 102/102/102 98/98/98
f 101/101/101 103/103/103 102/102/102
f 103/103/103 104/104/104 102/102/102
f 102/102/102 104/104/104 105/105/105
f 104/104/104 106/106/106 105/105/105
f 102/102/102 105/105/105 107/107/107
f 108/108/108 102/102/102 107/107/107
f 106/106/106 109/109/109 105/105/105
f 109/109/109 110/110/110 105/105/105
f 113/113/113 112/112/112 111/111/111
f 114/114/114 113/113/113 111/111/111
f 117/117/117 116/116/116 115/115/115
f 118/118/118 117/117/117 115/115/115
f 121/121/121 120/120/120 119/119/119
f 122/122/122 121/121/121 119/119/119
f 125/125/125 124/124/124 123/123/123
f 126/126/126 125/125/125 123/123/123
f 129/129/129 128/128/128 127/127/127
f 130/130/130 129/129/129 127/127/127
f 133/133/133 132/132/132 131/131/131
f 134/134/134 133/133/133 131/131/131
f 137/137/137 136/136/136 135/135/135
f 138/138/138 137/137/137 135/135/135
f 141/141/141 140/140/140 139/139/139
f 142/142/142 141/141/141 139/139/139
f 145/145/145 144/144/144 143/143/143
f 146/146/146 145/145/145 143/143/143
f 149/149/149 148/148/148 147/147/147
f 150/150/150 149/149/149 147/147/147
f 153/153/153 152/152/152 151/151/151
f 154/154/154 153/153/153 151/151/151
f 157/157/157 156/156/156 155/155/155
f 158/158/158 157/157/157 155/155/155
f 161/161/161 160/160/160 159/159/159
f 162/162/162 161/161/161 159/159/159
f 165/165/165 164/164/164 163/163/163
f 166/166/166 165/165/165 163/163/163
f 169/169/169 168/168/168 167/167/167
f 170/170/170 169/169/169 167/167/167
f 173/173/173 172/172/172 171/171/171
f 174/174/174 173/173/173 171/171/171
f 177/177/177 176/176/176 175/175/175
f 178/178/178 177/177/177 175/175/175
f 181/181/181 180/180/180 179/179/179
f 182/182/182 181/181/181 179/179/179
f 181/181/181 183/183/183 180/180/180
f 181/181/181 184/184/184 183/183/183
f 184/184/184 185/185/185 183/183/183
f 188/188/188 187/187/187 186/186/186
f 189/189/189 188/188/188 186/186/186
f 192/192/192 191/191/191 190/190/190
f 195/195/195 194/194/194 193/193/193
f 196/196/196 195/195/195 193/193/193
f 199/199/199 198/198/198 197/197/197
f 200/200/200 199/199/199 197/197/197
f 197/197/197 198/198/198 201/201/201
f 197/197/197 201/201/201 202/202/202
f 201/201/201 203/203/203 202/202/202
f 206/206/206 205/205/205 204/204/204
f 209/209/209 208/208/208 207/207/207
f 212/212/212 211/211/211 210/210/210
f 215/215/215 214/214/214 213/213/213
f 216/216/216 215/215/215 213/213/213
f 219/219/219 218/218/218 217/217/217
f 220/220/220 219/219/219 217/217/217
f 223/223/223 222/222/222 221/221/221
f 226/226/226 225/225/225 224/224/224
